/* XPM */
static char *xpm__usr_share_pixmaps_gns3[] = {
/* columns rows colors chars-per-pixel */
"32 32 232 2 ",
"   c gray33",
".  c #5CDD5C9C5C9C",
"X  c #643163FD6431",
"o  c #6BEC6B6B6B6B",
"O  c #767675F675F6",
"+  c #7AFB7A7A7AFB",
"@  c #9B9B1A1A1A1A",
"#  c #A42301210131",
"$  c #AB6B00810081",
"%  c #A6A609090909",
"&  c #ABAB08080808",
"*  c #B4A200120000",
"=  c #BB1700000000",
"-  c #A9FF11671111",
";  c #ABAB18181717",
":  c #A3A319191919",
">  c #ACAC1A7019C4",
",  c #999925252525",
"<  c #96962F2F3030",
"1  c #A3A322222222",
"2  c #AAAA25252525",
"3  c #B43334B53434",
"4  c #B7613AE53A90",
"5  c #B9393D3D3D3D",
"6  c #CA4A01010081",
"7  c #D75700000000",
"8  c #E6E600000000",
"9  c #ED6D00000000",
"0  c #F8F800000000",
"q  c #ECEC1A1A1818",
"w  c #B6B647473131",
"e  c #979744444444",
"r  c #979759595858",
"t  c #9C9C58585858",
"y  c #A3A34F4F4E4E",
"u  c #BB3B43C443C4",
"i  c #B3B34E4E4E4E",
"p  c #95956F6F6F6F",
"a  c #A3A364646060",
"s  c #BABA6B6B6666",
"d  c #B9B96C6C6C6C",
"f  c #C1C156565656",
"g  c #CACA5A5A5656",
"h  c #C71C640E640E",
"j  c #CA4A6C6C6C6C",
"k  c #D9D974746868",
"l  c #CBCB71717171",
"z  c #C6C67A7A7A7A",
"x  c #BBBBBEBE3535",
"c  c #B6B6B8B83838",
"v  c #B9B9BCBC3D3D",
"b  c #C7C79D9D3E3E",
"n  c #BEBEC1C13D3D",
"m  c #CF8FD4940040",
"M  c #D292D75701C2",
"N  c #D555D9590303",
"B  c #D9D9DE8804AF",
"V  c #D252D6D61192",
"C  c #D5D5DA841C72",
"Z  c #DEDEE1E10586",
"A  c #DDDDE2620808",
"S  c #DDDDE2E21717",
"D  c #DE5EE2621B9C",
"F  c #E4E4E8E80707",
"G  c #EBEBEE4306B1",
"H  c #E0E0E5E50909",
"J  c #E5E5E9E90A0A",
"K  c #EA3FED42085E",
"L  c #EF44F19B08DE",
"P  c #F6F6F7F70909",
"I  c #F736F9380C4C",
"U  c #FBBCFCC50A02",
"Y  c #EDEDF0F01818",
"T  c #C1C1C4C42727",
"R  c #CBCBC2C22B2B",
"E  c #CCCCCFCF2E2E",
"W  c #D3D3D6D62525",
"Q  c #D555D9D92121",
"!  c #D9D9DDDD2727",
"~  c #D8D8DADA2B2B",
"^  c #D328D57F3389",
"/  c #D9D9DDDD3C3C",
"(  c #DEDEE2E22525",
")  c #BABA82827C7C",
"_  c #A8A8AAAA6464",
"`  c #A1A1A2A26E6E",
"'  c #B3B3B3B37373",
"]  c #D3D394946B6B",
"[  c #BEBEC0C05D5D",
"{  c #CBCBCECE4545",
"}  c #D4D4D7D74545",
"|  c #DB5BDF5F4343",
" . c #CACACCCC5B5B",
".. c #D0D0D3D35A5A",
"X. c #DEDEE1E14343",
"o. c #E3E3E76753D4",
"O. c #E1E1E3E35F5F",
"+. c #C4C4C5C56464",
"@. c #CCCCCCCC7777",
"#. c #DFDFE1E17979",
"$. c #E1E1E46363E4",
"%. c #EAEAEEEE6060",
"&. c #E3E3E6E67171",
"*. c #EE6EF1717575",
"=. c #6B6B6B6BB1B1",
"-. c #7F7F7E7EB4B4",
";. c #7E7E7E7EBEBE",
":. c #68686868D5D5",
">. c #66666666D8D8",
",. c #72727272D0D0",
"<. c #5D885D88FACF",
"1. c #69696969F574",
"2. c #633E633EFAB1",
"3. c #6D066D06FAFA",
"4. c #75757575F4F4",
"5. c #748A748AFAEF",
"6. c #7C7C7C7CFAFA",
"7. c #90906A6A9595",
"8. c gray51",
"9. c #888887878888",
"0. c #8E8E8E8E8E8E",
"q. c #949493939494",
"w. c #9F9F9F9F9F9F",
"e. c #BE3E9C1C9C1C",
"r. c #BCBCBCBC9595",
"t. c #AFAFA4A4A4A4",
"y. c #AD02AD02AC01",
"u. c #B0B0ABABAAAA",
"i. c #B0B0B0B0A1A1",
"p. c #B41AB3E6B3E6",
"a. c #BC3CBC3CB737",
"s. c #BABABA7ABA7A",
"d. c #D3D385858585",
"f. c #D62B8C8C8C8C",
"g. c #C8C894949393",
"h. c #D95995149514",
"j. c #DADA99999999",
"k. c #E1E1BCBC9C9C",
"l. c #C6C6A8A8A7A7",
"z. c #D4D4A7A7A727",
"x. c #DFDFA6A6A6A6",
"c. c #D6D6AAAAAAAA",
"v. c #D959AD2DACAC",
"b. c #C1C1B3B3B3B3",
"n. c #D9D9BCBCBBBB",
"m. c #E2E2AEAEAEAE",
"M. c #E4E4B433B433",
"N. c #E6E6BC66BC66",
"B. c #D3D3D4D48F8F",
"V. c #DB5BDBDB9292",
"C. c #E2E2C2C28383",
"Z. c #E3E3C4C48C8C",
"A. c #E9E9EBEB8606",
"S. c #E969EB6B8D0D",
"D. c #EB95ED429292",
"F. c #C6C6C6C6B7B7",
"G. c #EBEBECECAEAE",
"H. c #F2F2F4F4A7A7",
"J. c #F1F1F325AC45",
"K. c #F8F8F9F9ADAD",
"L. c #F1F1F3B3B4B4",
"P. c #99999999C2C2",
"I. c #A4A49999C5C5",
"U. c #A0A0A0A0C9C9",
"Y. c #82028181E666",
"T. c #81818181EB6B",
"R. c #8D0D8B8BEDED",
"E. c #9C9C9C9CE2E2",
"W. c #94949494EBEB",
"Q. c #83438343FAFA",
"!. c #8B8B8B8BFB50",
"~. c #94139413FA7A",
"^. c #9B1B9B1BFBFB",
"/. c #ADADABABE1E1",
"(. c #A0F6A0F6FBFB",
"). c #A9A9A9A9FBFB",
"_. c #B6B6B5B5F3F3",
"`. c #BABABA3AF676",
"'. c #B409B409FCA6",
"]. c #BC97BC73FBB2",
"[. c #C544C443C242",
"{. c #C7C7C7C7C9C9",
"}. c #CC4BCC0BCC0B",
"|. c #D2D2C7C7C7C7",
" X c #DCDCCBCBCBCB",
".X c #D3D3D3D3CCCC",
"XX c #DADADADACECE",
"oX c #C5C5C5C5DCDC",
"OX c #D2D2D2D2D1D1",
"+X c #D3D3D2D2DADA",
"@X c #DDDDDD8EDC3E",
"#X c #E8E8C5C5C5C5",
"$X c #EEEED1D1D1D1",
"%X c #F2F2DEDEDEDE",
"&X c #E3E3E3E3C4C4",
"*X c #E8E8E8E8C0C0",
"=X c #E7E7E7E7C8C8",
"-X c #F2F2EFEFCFCF",
";X c #F7F7F8F8CBCB",
":X c #EAEAEA6AD252",
">X c #F8F8F3F3D4D4",
",X c #F7F7F8F8D252",
"<X c #F8F8F979D453",
"1X c #F0F0F0F0DFDF",
"2X c #CBCBCBCBE1E1",
"3X c #C1C1C1C1EBEB",
"4X c #CACAC9C9EFEF",
"5X c #D7D7D6D6E4E4",
"6X c #D2D2D2D2ECEC",
"7X c #DC9CDC9CEAEA",
"8X c #C0C0C0C0FCFC",
"9X c #CDCDCDCDFBFB",
"0X c #D0D0D0D0F5F5",
"qX c #D6D6D6D6FDFD",
"wX c #DC1BDBDBFCFC",
"eX c #E464E42CE3E3",
"rX c #E8E8E0E0E0E0",
"tX c #ECECEBEBE463",
"yX c #E4E4E3E3EDED",
"uX c #ED19EC82ECFB",
"iX c #F3F3E363E363",
"pX c #F4F4F4F4E7E7",
"aX c #FCFCFCFCE7E7",
"sX c #FBFBFBFBE8E8",
"dX c #E1E1E0E0F9F9",
"fX c #F0F0EFEFF171",
"gX c #F51DF4B2F547",
"hX c #F8F8F7F7F7F7",
"jX c #FDA7FDA7F4F4",
"kX c #F8F8F7F7F8F8",
"lX c #FBB9FB4EFBD7",
"zX c None",
/* pixels */
"zXzXzXzXzXzXzXzXzXzXzXzXzXzXzXlXgXyX7XfXlXzXzXzXzXzXzXzXzXzXzXzX",
"zXzXzXzXzXzXzXzXzXzXzXzXzXzXkXeX4XwXdX0X6XkXzXzXzXzXzXzXzXzXzXzX",
"zXzXzXzXzXzXzXzXzXzXzXzXzXlX7X`.wXwXqXqX9X3XlXzXzXzXzXzXzXzXzXzX",
"zXzXzXzXzXzXzXzXzXzXzXzXzXgXR.8X8X].].].'.~.5XzXzXzXzXzXzXzXzXzX",
"zXzXzXzXzXhXgXfXgXkXlXzXlX2X2.(.(.^.^.^.~.6.W.gXzXzXzXzXzXzXzXzX",
"zXzXzXlXgX Xc.v.v.n.fXlXgXE.<.5.Q.6.6.6.5.<.1.yXzXzXzXzXzXzXzXzX",
"zXzXlXuXz.#XiXiX%X$Xz.rXuXY.2.2.3.3.3.2.2.<.<.5XzXzXzXzXzXzXzXzX",
"zXzXgXg.x.N.N.N.M.M.m.z @XY.Q.Q.5.5.5.5.3.2.<.2XlXzXzXzXzXzXzXzX",
"zXlX X3 j.j.h.f.f.d.d.f ) /.8X'.6.5.5.5.5.5.<.oXlXzXzXzXzXzXzXzX",
"zXgXd > l j j h h h h 4 1 I.R.'.Q.5.5.6.Q.6.1.+XlXzXzXzXzXzXzXzX",
"lXeX2 # 4 u u 5 4 4 3 % # 7._.^.5.5.5.Q.).^.T.eXlXzXzXzXzXzXzXzX",
"kX|.% # % > > ; - - % # # a T.6.5.5.5.~.].`.U.@XtXuXgXlXzXzXzXzX",
"kXl.# # # $ * = * * $ # # y ;.5.5.5.5.!.`.P.B.J.K.H.G.:XkXlXzXzX",
"gXe.# # $ = = = = = = 6 * i p.,.3.5.3.4.U.V.<X<X<X,X;XJ.*XkXzXzX",
"gXe.# $ = = = = = = 6 9 8 g @Xa.-.:.>.=...L.L.L.L.J.G.H.*.:XlXzX",
"lXb.% * = = = = = = 7 0 9 k 1XtX.Xa.y.[ %.D.D.D.S.S.A.A.*.o.gXzX",
"lX}.: * = = = = = = 7 0 6 w k.pXsXpXXXD X.&.&.#.$.$.O.O.o.S &XjX",
"lX@Xy * * = = = = = 6 8 q z.] b Z.-XV.A C X.X.X.| X./ / C A #.gX",
"zXuXt.& = = = = = = 6 6 s :XaX>XC.b R B m V Q C C C V V m A X.uX",
"zXlXOXt * = = = = = = 2 F.gXjXjXsX=X^ M m m Z K G G F B m N ( eX",
"zXlXuXs.e # * * * $ 1 t.eXlXlXlXjX%X^ M M G U U U U U P Z N S @X",
"zXzXlXeXs.p < @ , r u.7XlXzXzXzXkX@X^ M K U U U U U U U P Z S @X",
"zXzXzXlXuX}.p.t.p.{.eXhXzXzXzXzXlXeX{ Z P U U U U U U U U L ! @X",
"zXzXzXzXlXgXuXuXtXgXlXzXzXzXzXzXzXeX+.F U U U U U U U U U P } eX",
"zXzXzXzXzXzXzXzXzXzXzXzXzXzXzXzXzXuXr.J U U U U U U U U U I @.uX",
"zXzXzX. zXzX. zX  o zXzXzXzX+ zXzXgX[.W U U U U U U U U U Y F.gX",
"zXzXzXX O o zXX   O X 0.9.zX  zXzXlX@X' G U U U U U U U I  .@XlX",
"zXzXzX  q.X zXX . zX+ zXzXw.X zXzXzXgXs.n L U U U U U P ~ a.fXlX",
"zXzXzXzXO zXzXzXzX8.zXzXzXO zXzXzXzXlXeXy.v H G L L K E i.eXkXzX",
"zXzXzXzXzXzXzXzXzXzXzXzXzXzXzXzXzXzXzXkX@Xp.` c T x _ y.@XgXzXzX",
"zXzXzXzXzXzXzXzXzXzXzXzXzXzXzXzXzXzXzXlXgXeX{.p.y.p.{.eXgXlXzXzX",
"zXzXzXzXzXzXzXzXzXzXzXzXzXzXzXzXzXzXzXzXzXlXgXuXeXeXgXlXzXzXzXzX"
};
