/* XPM */
static char *xpm__usr_share_pixmaps_tremulous[] = {
/* columns rows colors chars-per-pixel */
"32 32 9 1 ",
"  c #020202020202",
". c gray2",
"X c #0B0B0B0B0B0B",
"o c #0E0E0E0E0E0E",
"O c #101010101010",
"+ c gray10",
"@ c #1E1E1E1E1E1E",
"# c #222222222222",
"$ c None",
/* pixels */
"$$$$$$$$$$$$$$$$$$$$$$$$$$$$$$$$",
"$$$$$$$$$$$$$$$$ ..+$$$$$$$$$$$$",
"$$$$$$$$$$$$$$+.    $$$$$$$$$$$$",
"$$$$$$$$$$$$$$X     $$$$$$$$$$o$",
"$XX$$$$$$$$$$$       $$$$$$$X  $",
"$$  $$$$$$$$$$       $$$$$$$  $$",
"$$o  $$$$$$$$@       X$$$$X .$$$",
"$$$X  $$$$$$$@       $$$$o  o$$$",
"$$$$   $$$$$$$      .$$$   X$$$$",
"$$$$$.  $$$$$$      .$$.  X$$$$$",
"$$$$$$  .$$$$+      O@   X$$$$$$",
"$$$$$$   .$$$       .   .$$$$$$$",
"$$$$$$$.   .           X$$$$$$$$",
"$$$$$$$$.             $$$$$$$$$$",
"$$$$$$$$$$           $$$$$$$$$$$",
"$$$$$$$$$$O.                X$$$",
"$$$$$$$$$$$.                X$$$",
"$$$$$$$$$.              $$$$$$$$",
"$$$$$O.               X$$$$$$$$$",
"$$$$. ..$.            $$$$$$$$$$",
"$$$$##$$$$$.          O$$$$$$$$$",
"$$$$$$$$$$$X           O$$$$$$$$",
"$$$$$$$$$$$.            O$$$$$$$",
"$$$$$$$$$$X             .$$$$$$$",
"$$$$$$$$$$ .  .     $$$$ .$$$$$$",
"$$$$$$$$$$ .$$$    $$$$$. $$$$$$",
"$$$$$$$$$  $$$$$$+$$$$$$$X.+$$$$",
"$$$$$$$$$ .$$$$$$$$$$$$$$$XX$$$$",
"$$$$$$$$$X $$$$$$$$$$$$$$$$X$$$$",
"$$$$$$$$$X+$$$$$$$$$$$$$$$$$$$$$",
"$$$$$$$$$X$$$$$$$$$$$$$$$$$$$$$$",
"$$$$$$$$$$$$$$$$$$$$$$$$$$$$$$$$"
};
