/* XPM */
static char *xpm__usr_share_pixmaps_jumpnbump[] = {
/* columns rows colors chars-per-pixel */
"32 32 56 1 ",
"  c #262618181414",
". c #2A2A26262A2A",
"X c #3A3A36363A3A",
"o c #5E5E2E2E0606",
"O c #5E5E3A3A1E1E",
"+ c #6B6B32320303",
"@ c #737334340303",
"# c #666618183434",
"$ c #6A6A4E4E3A3A",
"% c #434341414343",
"& c #50504C4C4C4C",
"* c #585857575757",
"= c #6D6D6D6D6B6B",
"- c #74746D6D6A6A",
"; c #767676767676",
": c #82823E3E0606",
"> c #B8B83A3A1818",
", c #898942420909",
"< c #86864C4C1E1E",
"1 c #9B9B4E4E1010",
"2 c #ABAB53530B0B",
"3 c #B8B859590D0D",
"4 c #A0A056561818",
"5 c #B6B660601616",
"6 c #C2C261610F0F",
"7 c #C8C869691717",
"8 c #ECEC78781818",
"9 c #F9F97B7B1313",
"0 c #CACA7C7C3030",
"q c #8B8B62624141",
"w c #84846A6A5454",
"e c #96967A7A6060",
"r c #DBDB84843434",
"t c #F6F686862727",
"y c #E2E28A8A3232",
"u c #F6F699993C3C",
"i c #AEAE92927676",
"p c #EFEF9A9A4747",
"a c #FDFDA7A74444",
"s c #FDFDB0B05555",
"d c #D6D6A6A67A7A",
"f c #E6E6A8A86C6C",
"g c #8B8B8A8A8989",
"h c #999999999898",
"j c #ABABA7A7A5A5",
"k c #B8B8B5B5B2B2",
"l c #DADAB6B69E9E",
"z c #EAEAB6B68A8A",
"x c #F6F6C2C29E9E",
"c c #C8C8C1C1BBBB",
"v c #DCDCCECEC6C6",
"b c #F8F8DCDCC2C2",
"n c #E0E0DDDDDBDB",
"m c #EFEFE8E8E4E4",
"M c gray100",
"N c None",
/* pixels */
"NNNNNNNNNNNNNNNNNNNNNNNNNNNNNNNN",
"NNNNNNNNNNNNNNNNNNNNNNNNNNNNNNNN",
"NNNNNNNNNNNNNNNNNNNNNhhNNNNNNNNN",
"NNNNNNNNNNNNNNNNN-NNgg;NNNNNNNNN",
"NNNNNNNhjNNNNNNN*&NNg;;NNNNNNNNN",
"NNNNNNNjhcNNNNNg*%NNg=hNNNNNNNNN",
"NNNNNNNNjkkNNj;h*&Ng;gNNNNNNNNNN",
"NNNNNNNnnkMMzkgk*-hghhNNNNNNNNNN",
"NNNNNNNhMmcalccM&;;ggNNNNNNNNNNN",
"NNNtaaapnmmznmvs**;gg7$NNNNNNNNN",
"NNN0aaasjmMmMmcp1%;gh;Ot9tNNNNNN",
"NNN4rssmMMMMMmy3&*gh*-=8tttttNNN",
"NNNN4ssMMMMMMMf<.&;g;*g8t8tttNNN",
"NNNN10fmvmmmMMb$ &;;g=e379uuNNNN",
"N177988i;MhMMMb, X*==;>@:6uNNNNN",
"NN289998rxkMMMv4  XX&$>rupauNNNN",
"NNN1799898umMnd3##o$ruaaaaaaNNNN",
"NNNN@:79999tpd7317uaaaaaauaaaNNN",
"NNNN+o+13731417usaaaaaaaaaaauaNN",
"NNNN+++++@o++,6uaasaaaaaaauuuuNN",
"NNNN+++++++++:7ysasaaaaaap0eNNNN",
"NNNN+++o+++++173ysssaay55w=NNNNN",
"NNNN+++@++o++3722pur52222-==NNNN",
"NNNNo+++++++@363275222224;;--NNN",
"NNNNNN++++++@6762222222q-==-==NN",
"NNNNNNN+++@+:66532242q=--;-;;;NN",
"NNNNNNNN++++:763224q--==;===NNNN",
"NNNNNNNNNN++,666q-=====NNNNNNNNN",
"NNNNNNNNNNN+13NNN=-=;;NNNNNNNNNN",
"NNNNNNNNNNNNNNNNNNNNNNNNNNNNNNNN",
"NNNNNNNNNNNNNNNNNNNNNNNNNNNNNNNN",
"NNNNNNNNNNNNNNNNNNNNNNNNNNNNNNNN"
};
