/* XPM */
static char *xpm__usr_share_pixmaps_gtk_chtheme[] = {
/* columns rows colors chars-per-pixel */
"32 32 76 1 ",
"  c black",
". c #057C05BF0191",
"X c #0A4C0A9802AE",
"o c #0D780E33035C",
"O c #0EA80E7C039C",
"+ c #109C116704BF",
"@ c #14B11549055E",
"# c #174B18410662",
"$ c #1863192E0654",
"% c #1CC41D1F0779",
"& c #211321130889",
"* c #22AA241408E6",
"= c #25E6272309D3",
"- c #270F28400A29",
"; c #29312A7F0AD5",
": c #2B3B2CD70B4F",
"> c #2CD72E670BC8",
", c #2F2730890C5C",
"< c #308D32310CB3",
"1 c #31DE33D40D12",
"2 c #34C436250D29",
"3 c #366438380E45",
"4 c #383239FE0E7A",
"5 c #3A523C0C0F23",
"6 c #3D363F401011",
"7 c #3F0A41171081",
"8 c #419D43B31107",
"9 c #49A34BE5132F",
"0 c #4ECD5125147D",
"q c #535355F515A0",
"w c #5E9461CA18C6",
"e c #629465EC19B8",
"r c #665469941AC7",
"t c #682F6B601B3F",
"y c #69126C791B6C",
"u c #6AC16E561C07",
"i c #6D9071461C9B",
"p c #789C7D4E1FA5",
"a c #83EB884C2256",
"s c #88558C652389",
"d c #89678E0B23D3",
"f c #8C6190FE24D7",
"g c #91379609261A",
"h c #984D9D6427D6",
"j c #9E1EA44F2973",
"k c #A214A8652A7B",
"l c #A9A9AED72C5D",
"z c #AC5DB2202D36",
"x c #B027B58B2DFE",
"c c #B165B7752E65",
"v c #B376BA622F04",
"b c #B73BBD313004",
"n c #B926BED73058",
"m c #BD65C3B531B7",
"M c #C144C7BF32B9",
"N c #C379C9CB3335",
"B c #C55FCB76338D",
"V c #C528CBAD33BA",
"C c #C6C4CCE933E6",
"Z c #C91ACFD534CC",
"A c #CC99D3683565",
"S c #CEBFD5A53645",
"D c #D26DDA643715",
"F c #DD6EE4DF3A13",
"G c #E0E1E6DF3AE6",
"H c #E15AE8F03B02",
"J c #E450EBC33BD9",
"K c #E5EAED7E3C52",
"L c #EB53F32F3DC7",
"P c #EDBFF5A63E5F",
"I c #F101F9133F32",
"U c #F372FB873FE8",
"Y c #F4A6FC3B3FFF",
"T c #F6B3FEEF40C4",
"R c #FB8BFFFF419D",
"E c None",
/* pixels */
"EEEEEEEEEEEEEEEEEEEEEEEEEEEEEEEE",
"EEEEEEEEEEEEEEEEEEEEEEEEEEEEEEEE",
"EEEEEEEEEEEEEEEEEEEEEEEEEEEEEEEE",
"EEEEEEEEEEEEEEEEEEEEEEEEEEEEEEEE",
"EEEEEEEEEEEEEEEEEEEEEEEEEEEEEEEE",
"EEEEEEEEEEEEEEEEEEEEEEEEEEEEEEEE",
"EEEEEEEEEEEEEEEEEEEEEEEEEEEEEEEE",
"EEEEEEEEEEEEEEEEEEEEEEEEEEEEEEEE",
"EEEEEEEEEEEEEEq4O O$EEEEEEEEEEEE",
"EEEEEEEEEEEEEE234>#OEEEEEEEEEEEE",
"EEEEEEEEEEEE .o4fd> EEEEEEEEEEEE",
"EEEEEEEEEEEE X-yAAe:EEEEEEEEEEEE",
"EEEEEEo=q0@  =aCKHvp;  o3qEEEEEE",
"EEEEEEo*89866rBTTPJce46445EEEEEE",
"EEEEEEEE$7gmnVJUUPPFMvns4@EEEEEE",
"EEEEEEEE.,fSLTUIUIIUTLAs; EEEEEE",
"EEEEEEEE@%<uZRYUPUIUUMt>O EEEEEE",
"EEEEEEEE&+ 2vYYITIUPJj>  .EEEEEE",
"EEEEEEEEEE 2xIIITTUKAs; EEEEEEEE",
"EEEEEEEEEE 3cYTHNVKKCa; EEEEEEEE",
"EEEEEEEEEE 4bTRVeeCPFf, EEEEEEEE",
"EEEEEEEEEE 3zGVa=-aMDj1 EEEEEEEE",
"EEEEEEEEEE <hlw>@@:evk1 EEEEEEEE",
"EEEEEEEEEEX;ti= OO >ap:.EEEEEEEE",
"EEEEEEEEEE$%-;EEEEEE>:$+EEEEEEEE",
"EEEEEEEEEE&@  EEEEEE  O$EEEEEEEE",
"EEEEEEEEEEEEEEEEEEEEEEEEEEEEEEEE",
"EEEEEEEEEEEEEEEEEEEEEEEEEEEEEEEE",
"EEEEEEEEEEEEEEEEEEEEEEEEEEEEEEEE",
"EEEEEEEEEEEEEEEEEEEEEEEEEEEEEEEE",
"EEEEEEEEEEEEEEEEEEEEEEEEEEEEEEEE",
"EEEEEEEEEEEEEEEEEEEEEEEEEEEEEEEE"
};
