/* XPM */
static char *xpm__usr_share_pixmaps_xdino_m[] = {
/* columns rows colors chars-per-pixel */
"32 32 5 1 ",
"  c black",
". c #FFFF69696969",
"X c #000080800000",
"o c yellow",
"O c None",
/* pixels */
"OOOOOOOOOOOOOOO  OOOOOOOOOOOOOOO",
"OOOOOOOOOOOOO      OOOOOOOOOOOOO",
"OOOOOOOOOOO  oo  oo  OOOOOOOOOOO",
"OOOOOOOOO  oooo  oooo  OOOOOOOOO",
"OOOOOOO  oooooo  oooooo  OOOOOOO",
"OOOOO  oooooooo  ooooooo   OOOOO",
"OOO  oooooooooo  oooooooooo  OOO",
"O  oooooooooooo  oooooooooooo  O",
"                                ",
"    ooooooooooo  ooooooooooo    ",
"  X   ooooooooo  ooooooooo   .  ",
" X XX   ooooooo  ooooooo   .. . ",
" XX XXX   ooooo  ooooo   ... .. ",
" XX XXXXX   ooo  oooo  ..... .. ",
" XXX XXXXXX   o  o   ...... ... ",
" XXXX XXXXXXX      ....... .... ",
" XXXX XXXXXXX      ....... .... ",
" XXXXX XXXX  XX  ..  .... ..... ",
" XXXXXX X  XXXX  ....  . ...... ",
" XXXXXX  XXXXXX  ......  ...... ",
" XXXXX   XXXXXX  ......   ..... ",
" XXX  XX XXXXXX  ...... ..  ... ",
" X  XXXXX XXXXX  ..... .....  . ",
"  XXXXXXXX XXXX  .... ........  ",
"O  XXXXXXX XXXX  .... .......  O",
"OOO  XXXXXX XXX  ... ......  OOO",
"OOOOO  XXXXX XX  .. .....  OOOOO",
"OOOOOOO  XXX XX  .. ...  OOOOOOO",
"OOOOOOOOO  XX X  . ..  OOOOOOOOO",
"OOOOOOOOOOO  X    .  OOOOOOOOOOO",
"OOOOOOOOOOOOO      OOOOOOOOOOOOO",
"OOOOOOOOOOOOOOO  OOOOOOOOOOOOOOO"
};
