/* XPM */
static char *xpm__usr_share_pixmaps_cbm2icon_32x28[] = {
/* columns rows colors chars-per-pixel */
"32 28 45 1 ",
"  c black",
". c #0233023306CF",
"X c #08310087021D",
"o c #02BB02BB087C",
"O c #04F704F70F65",
"+ c #19E201AB06AE",
"@ c #06B006B014BB",
"# c #07F307F318A4",
"$ c #099209921DAC",
"% c #3016031A0C69",
"& c #391A03AF0EBC",
"* c #0BDA0BDA24BD",
"= c #0FB30FB330AB",
"- c #467F048B122D",
"; c #4F49051D1476",
": c #57B205A816A2",
"> c #598005C51719",
", c #176317634880",
"< c #1BFE1BFE56C7",
"1 c #1F3A1F3A60CD",
"2 c #20BD20BD657D",
"3 c #24AB24AB71AE",
"4 c #280728077C17",
"5 c #C8BA0CF233CC",
"6 c #CEF70D5A3569",
"7 c #E3A80EC13B07",
"8 c #E57B0ECE3B38",
"9 c #FF5110814207",
"0 c #29F629F681AB",
"q c #30153015950F",
"w c #32FC32FC9E0E",
"e c #33E133E1A0D4",
"r c #359B359BA630",
"t c #377C377CAC02",
"y c #382F382FAE2B",
"u c #40294029C6E7",
"i c #45594559D6FE",
"p c #49A849A8E458",
"a c #4AC54AC5E7CD",
"s c #4CF44CF4EE8F",
"d c #4EEA4EEAF4A3",
"f c #4FE74FE7F6B7",
"g c #50565056F90A",
"h c #53065306FFFF",
"j c None",
/* pixels */
"jjjjjjjjj  o<1<11<ojjjjjjjjjjjjj",
"jjjjjj  @3rydhhhha#jjjjjjjjjjjjj",
"jjjjj $2idhhghggha#jjjjjjjjjjjjj",
"jjjj.3uhghghhgghha@jjjjjjjjjjjjj",
"jjj.0fhgghggghggda#jjjjjjjjjjjjj",
"jj 3ghghhgghhghhhp@jjjjjjjjjjjjj",
"j $uhgghhgfhhghhhp@jjjjjjjjjjjjj",
"j 1hhghffhfi2<<<<w#jjjjjjjjjjjjj",
"j@ihghgggg4@     O           jjj",
" *aghgghd0ojjjjjjjjOqrrrrre= jjj",
" qhhhgghyojjjjjjjjj#ahhhhg0ojjjj",
".yhgghgs, jjjjjjjjj#ahhhg4ojjjjj",
"<fhghghp@jjjjjjjjjjOqrrr3ojjjjjj",
"<hgghggp#jjjjjjjjjj      jjjjjjj",
"1hghghhp#jjjjjjjjjjX;:>>& jjjjjj",
"<ghghgga@jjjjjjjjjj+89997- jjjjj",
".yhfhghs, jjjjjjjjj+899997- jjjj",
" qhfggghyojjjjjjjjj+6877775% jjj",
" *ahghghf4ojjjjjjjj +++++++X jjj",
"j@ihhghghg4#     O              ",
"j 2hgghgghfi<<<<<w#             ",
"j $uhgghhghghhhhha#             ",
"jj 3ghhgghgghggghp@             ",
"jjj.4ghghgghgghhhp@             ",
"jjjj.3uhhghgghgghp#jj        jjj",
"jjjjj $2ifhhhfhgda#jj   j   jjjj",
"jjjjjj  @3rtdhghha#jj        jjj",
"jjjjjjjjj  @<111<<ojj        jjj"
};
