/* XPM */
static char *xpm__usr_share_pixmaps_xrubik_m[] = {
/* columns rows colors chars-per-pixel */
"32 32 5 1 ",
"  c black",
". c #FFFF69696969",
"X c #000080800000",
"o c #88888888FFFF",
"O c None",
/* pixels */
"OOOOOOOOOOOOOOO  OOOOOOOOOOOOOOO",
"OOOOOOOOOOOOO  XX  OOOOOOOOOOOOO",
"OOOOOOOOOOO  XXXXXX  OOOOOOOOOOO",
"OOOOOOOOO  XX  XX  XX  OOOOOOOOO",
"OOOOOOO  XXXXXX  XXXXXX  OOOOOOO",
"OOOOO   XXXXX  XX  XXXXX   OOOOO",
"OOO  XXX  XX XXXXXX XX  XXX  OOO",
"O  XXXXXXX  XXXXXXXX  XXXXXXX  O",
"  XXXXXX  XX  XXXX  XX  XXXXXX  ",
"    XX  XXXXXX XX XXXXXX  XX    ",
" oo   XXXXXXXXX  XXXXXXXXX   .. ",
" oooo   XXXXX  XX  XXXXX   .... ",
" oooo o   X  XXXXXX  X   . .... ",
" oooo ooo   XXXXXXXX   ... .... ",
"  ooo oooo    XXXX    .... ...  ",
" o  o oooo oo      .. .... .  . ",
" ooo  oooo oooo  .... ....  ... ",
" oooo   oo oooo  .... ..   .... ",
" oooo oo   oooo  ....   .. .... ",
"  ooo oooo  ooo  ...  .... ...  ",
" o  o oooo o  o  .  . .... .  . ",
" ooo  oooo ooo    ... ....  ... ",
" oooo   oo oooo  .... ..   .... ",
" oooo oo   oooo  ....   .. .... ",
"O  oo oooo  ooo  ...  .... ..  O",
"OOO   oooo o  o  .  . ....   OOO",
"OOOOO  ooo ooo    ... ...  OOOOO",
"OOOOOOO  o oooo  .... .  OOOOOOO",
"OOOOOOOOO  oooo  ....  OOOOOOOOO",
"OOOOOOOOOOO  oo  ..  OOOOOOOOOOO",
"OOOOOOOOOOOOO      OOOOOOOOOOOOO",
"OOOOOOOOOOOOOOO  OOOOOOOOOOOOOOO"
};
