/* XPM */
static char *xpm__usr_share_pixmaps_colorcode32[] = {
/* columns rows colors chars-per-pixel */
"32 32 211 2 ",
"   c #353516161212",
".  c #2E2E2C2C2121",
"X  c #32322C2C2A2A",
"o  c #363635352020",
"O  c #2C2C2F2F3030",
"+  c #4B4B38383636",
"@  c #4F4F4C4C3C3C",
"#  c #1E1E4C4C6161",
"$  c #4A4A45454242",
"%  c #4B4B4B4B4B4B",
"&  c #57574E4E4949",
"*  c #4D4D4D4D5353",
"=  c #4E4E55555656",
"-  c #515155555A5A",
";  c #51515B5B5C5C",
":  c gray35",
">  c #616151515050",
",  c #6D6D58585656",
"<  c #74746E6E5D5D",
"1  c #545460606B6B",
"2  c #767668686666",
"3  c #7C7C77776D6D",
"4  c #6D6D6E6E7272",
"5  c #62626E6E7878",
"6  c #6E6E75757575",
"7  c #727272727272",
"8  c #747476767A7A",
"9  c #747479797A7A",
"0  c #7B7B7B7B7B7B",
"q  c #ADAD09091414",
"w  c #B3B30C0C1616",
"e  c #BDBD0B0B1010",
"r  c #B1B10F0F1919",
"t  c #B9B910101616",
"y  c #B5B512121A1A",
"u  c #BCBC14141919",
"i  c #939321211212",
"p  c #ACAC18182424",
"a  c #B1B11A1A2323",
"s  c #8D8D36362D2D",
"d  c #BFBF25252626",
"f  c #A1A12F2F3A3A",
"g  c #A6A63A3A3030",
"h  c #A8A83F3F3838",
"j  c #B6B635353A3A",
"k  c #D5D515150E0E",
"l  c #DDDD17170C0C",
"z  c #DDDD1C1C0F0F",
"x  c #C4C415151616",
"c  c #CCCC16161414",
"v  c #CCCC18181515",
"b  c #C7C71A1A1A1A",
"n  c #D4D419191212",
"m  c #D9D91A1A1010",
"M  c #ECEC18180606",
"N  c #E2E217170A0A",
"B  c #E3E31E1E0D0D",
"V  c #F0F01E1E0808",
"C  c #C6C626260C0C",
"Z  c #D1D120201919",
"A  c #E7E723230C0C",
"S  c #EBEB21210A0A",
"D  c #F3F324240606",
"F  c #FAFA26260303",
"G  c #FDFD2A2A0202",
"H  c #F1F123230808",
"J  c #9B9B43434C4C",
"K  c #9E9E4C4C5252",
"L  c #989856565252",
"P  c #9B9B59595E5E",
"I  c #ACAC40404646",
"U  c #AFAF4A4A4848",
"Y  c #B2B245454444",
"T  c #A4A44D4D5353",
"R  c #94945E5E6464",
"E  c #85857F7F7B7B",
"W  c #8E8E7D7D7E7E",
"Q  c #979774747878",
"!  c #93937C7C7C7C",
"~  c #A0A076767979",
"^  c #DCDCB1B13D3D",
"/  c #EFEFBBBB2D2D",
"(  c #F2F2BEBE2C2C",
")  c #EEEEBFBF3333",
"_  c #E6E6BBBB3B3B",
"`  c #E9E9BEBE3E3E",
"'  c #F2F2C3C33434",
"]  c #F5F5CACA3434",
"[  c #F1F1C5C53939",
"{  c #F2F2CACA3D3D",
"}  c #9C9C95954A4A",
"|  c #97978F8F5151",
" . c #B3B3A9A95C5C",
".. c #868680807B7B",
"X. c #A9A99A9A6B6B",
"o. c #B4B4A0A06A6A",
"O. c #D1D1ABAB4949",
"+. c #C1C1A4A45757",
"@. c #CFCFADAD5454",
"#. c #C0C0A6A65E5E",
"$. c #D5D5B6B65B5B",
"%. c #C8C8ADAD6060",
"&. c #C8C8B5B56767",
"*. c #CECEB8B86565",
"=. c #EAEAC8C84D4D",
"-. c #F2F2CECE4141",
";. c #F3F3D2D24444",
":. c #F5F5D8D84646",
">. c #F3F3D6D64949",
",. c #F5F5DADA4C4C",
"<. c #FAFADEDE4A4A",
"1. c #E0E0C0C05555",
"2. c #F6F6DEDE5252",
"3. c #F7F7E2E25656",
"4. c #F9F9E3E35353",
"5. c #FDFDE8E85555",
"6. c #F7F7E4E45959",
"7. c #F8F8E6E65C5C",
"8. c #F9F9E9E95F5F",
"9. c #FFFFF1F15D5D",
"0. c #CCCCC7C76464",
"q. c #F9F9ECEC6464",
"w. c #F5F5EAEA6B6B",
"e. c #FAFAEFEF6A6A",
"r. c #FBFBF1F16D6D",
"t. c #FBFBF3F37373",
"y. c #FBFBF6F67A7A",
"u. c #FEFEFCFC7B7B",
"i. c #5B5B7C7CADAD",
"p. c #52527F7FBABA",
"a. c #10105858CCCC",
"s. c #07075353D3D3",
"d. c #0F0F5E5ED8D8",
"f. c #12125F5FD1D1",
"g. c #0D0D6C6CDEDE",
"h. c #12126464D9D9",
"j. c #14146D6DDCDC",
"k. c #15157373DDDD",
"l. c #2D2D6B6BC5C5",
"z. c #25256F6FCFCF",
"x. c #0F0F7777E2E2",
"c. c #16167D7DE1E1",
"v. c #8A8A7F7F8080",
"b. c #757581818080",
"n. c #757587879696",
"m. c #5E5E8989B5B5",
"M. c #56568A8ABBBB",
"N. c #33338C8CD0D0",
"B. c #2323A1A1C1C1",
"V. c #2727ACACDCDC",
"C. c #15158484E5E5",
"Z. c #17178989E4E4",
"A. c #18188B8BE6E6",
"S. c #19199191E7E7",
"D. c #1A1A9595E9E9",
"F. c #1B1B9B9BEAEA",
"G. c #1C1CA2A2ECEC",
"H. c #1E1EAAAAEFEF",
"J. c #1717A8A8F4F4",
"K. c #1E1EAEAEF0F0",
"L. c #1F1FB2B2F1F1",
"P. c #1A1AB7B7F9F9",
"I. c #2020B7B7F3F3",
"U. c #2121BBBBF4F4",
"Y. c #2020BDBDF8F8",
"T. c #2323C3C3F6F6",
"R. c #2525CCCCF8F8",
"E. c #2727D4D4FAFA",
"W. c #2828DEDEFFFF",
"Q. c #838383838383",
"!. c #8D8D8B8B8383",
"~. c #8D8D8C8C8C8C",
"^. c #94948F8F8282",
"/. c #9B9B95958484",
"(. c #959591918D8D",
"). c #8F8F8F8F9191",
"_. c #8F8F91919191",
"`. c #8C8C94949A9A",
"'. c #939392929292",
"]. c #979799999999",
"[. c #9A9A9A9A9A9A",
"{. c #AFAFA3A38282",
"}. c #84849393A8A8",
"|. c #9A9A9C9CA0A0",
" X c #9D9DA1A1A1A1",
".X c #A2A2A2A2A2A2",
"XX c #ABABA8A8A3A3",
"oX c #A4A4A6A6ABAB",
"OX c #A7A7ADADADAD",
"+X c #ABABACACABAB",
"@X c #B3B3AEAEA7A7",
"#X c #B4B4B1B1ACAC",
"$X c #A6A6A9A9B1B1",
"%X c #AAAAABABB1B1",
"&X c #ABABB3B3B2B2",
"*X c #B2B2B3B3B3B3",
"=X c #B9B9B6B6B2B2",
"-X c #FDFDFAFA8282",
";X c #FFFFFFFF8888",
":X c gray78",
">X c #C8C8C7C7C7C7",
",X c #CBCBCBCBCBCB",
"<X c #D5D5D5D5D5D5",
"1X c gray87",
"2X c #E2E2E2E2E2E2",
"3X c gray92",
"4X c #F4F4F4F4EFEF",
"5X c #F4F4F4F4F1F1",
"6X c #F9F9F9F9F4F4",
"7X c #FCFCFCFCFAFA",
"8X c None",
/* pixels */
"8X8X8X8X7 & - 1 5 9 E ~.'.'.'.'.'.'.'.'.~.4 * , < 3 6 4 8X8X8X8X",
"8X8X8X$ # V.Y.P.J.D.N.n.!.[.[.[.[.].[.Q.O } w.r.9.5.2.&.Q.8X8X8X",
"8X8XX B.W.R.T.I.H.G.S.C.M.(..X.X.X.XQ.o -X-Xt.e.q.6.4.,.>./.8X8X",
"8X$ B.W.E.E.T.I.L.G.D.Z.x.m.[..X.X.X. ;X-Xu.t.r.q.8.3.,.>.-.!.8X",
"7 # W.E.E.R.T.I.I.G.D.A.c.g.`.+X+X- 0.u.u.y.y.r.q.8.3.2.>.-.1.8 ",
"& V.R.R.R.T.U.I.K.G.D.A.c.j.p.+X+X@ u.y.y.t.t.e.q.8.3.2.>.-.] ^.",
"- Y.T.T.T.U.U.I.H.F.D.C.c.k.z.XX[.| r.t.t.r.e.q.q.6.2.,.>.-.[ o.",
"1 P.I.U.U.I.K.K.G.F.S.C.c.j.f.@X). .q.e.e.q.q.q.8.3.2.,.;.-.[ %.",
"5 J.K.K.K.K.H.G.F.D.A.c.k.j.f.#X[. .8.8.q.8.8.7.3.2.,.>.;.{ [ #.",
"9 D.F.G.G.G.G.F.D.A.c.c.j.h.l.=X*XX.4.7.3.6.3.3.2.,.>.;.-.[ ' X.",
"E N.D.D.F.D.D.S.A.c.c.k.j.d.i.>X,X!.<.<.2.2.2.2.,.:.;.;.{ [ ( ~.",
"~.n.C.A.A.A.C.C.c.c.k.j.h.a.#X,X,XoX*.:.>.,.,.>.>.;.-.{ ] ) +.~.",
"'.~.M.x.c.c.c.c.k.k.j.h.s.}.,X>X,X,X].=.-.;.;.-.-.-.{ ) ) ^ ).'.",
"'.].(.m.j.k.j.j.j.h.d.a.}.>X,X,X,X,X>X[.1.{ { { [ { ) / O.'.[.'.",
"'.]..X[.`.p.z.f.f.l.i.#X,X,X,X<X,X,X,X,X%X{.$.` ) _ @.{.|..X[.'.",
"'.]..X.X+X+XXX@X#X=X>X>X,X,X,X,X<X,X,X,X>X>X*X$X$XoX+X+X.X.X[.'.",
").[..X.X+X%X[.'.[.*X:X>X,X,X,X,X,X<X,X,X,X,X*X[.).[.+X+XXX.X].'.",
"'.[..X.X; + s g h L E OX,X,X<X,X,X,X,X,X|.% : ~..X[.b.0 [..X].'.",
"'.[.Q.. C F V A B l k Y ].>X,X,X,X,X,X, * <X5X5X3X3X3X<X'.~.[.'.",
"'.v.  G F F H S A m z c d [.,X,X,X,X1 6 5X5X5X5X6X5X4X3X2X+XQ.'.",
").O D G F D D S B m m n x j +X>X>X.X% 6X5X6X6X6X6X6X4X4X3X2X[.~.",
"6 i F D D D H A B B m v x x ~ >X>X% <X5X6X7X7X7X6X6X5X4X3X2X<Xv.",
"= A D D H H S V B z m v x u I &X=X: 5X5X6X7X7X7X6X6X6X4X3X3X1X'.",
"> H S S H H B B B m m v v u a &X].(.3X6X6X7X7X7X6X6X4X5X5X3X2XoX",
", M A B S A B B z n n c x u r &X(..X3X5X6X6X7X6X6X6X4X4X4X3X1X+X",
"2 N B B B B B l z n v x x y p OX[. X3X4X5X6X6X6X6X6X6X4X5X3X2X.X",
"9 Z m z m m m n n v x x u y I OX+XQ.3X3X4X6X6X4X6X4X4X5X3X2X1X~.",
"6 U n n n n n n v v x u y q Q +X+X0 <X3X4X4X5X5X4X4X4X3X3X2X,X7 ",
"8XQ.b c v v v c c x u u y f  X.X.X[.'.2X3X3X3X5X4X3X3X3X2X1X~.8X",
"8X8X! x x x x x u y y r p '..X X.X.X~.+X2X2X3X3X3X3X3X2X1X.X8X8X",
"8X8X8Xv.j e t y y w q J `.].[.[.[.[.[.Q.].<X2X1X1X1X1X,X).8X8X8X",
"8X8X8X8Xb.W P T K R ~.~._.'.'.'.'.'.'.'.~...'.oX*X.X~.7 8X8X8X8X"
};
