/* XPM */
static char *xpm__usr_share_pixmaps_padre[] = {
/* columns rows colors chars-per-pixel */
"32 32 245 2 ",
"   c #292E0C77056E",
".  c #38910B510510",
"X  c #29E3133E09ED",
"o  c #38DD13A90B39",
"O  c #293109A211A0",
"+  c #24F70CDB1882",
"@  c #361C0C4A1E7D",
"#  c #2A5717451A6E",
"$  c #2C4712FF1BCB",
"%  c #3B29143513C7",
"&  c #3C391D5B1336",
"*  c #32C316781C9F",
"=  c #3938280E1F07",
"-  c #1B9210B4326A",
";  c #268C0E8A2523",
":  c #3619179F2750",
">  c #266717AF38FA",
",  c #354E1DFE3198",
"<  c #1A2A26482E8A",
"1  c #25F9218F1FF9",
"2  c #20A8279E31D5",
"3  c #372727C239A8",
"4  c #37DD321936FC",
"5  c #47BA09840234",
"6  c #57D90AF6059A",
"7  c #41E415A40BDE",
"8  c #42AB179F0C44",
"9  c #417514B60FA9",
"0  c #58A612421BA0",
"q  c #69A418DA15CA",
"w  c #7D641E7D1212",
"e  c #4487262E1845",
"r  c #66BA29101B40",
"t  c #7D3623CB1904",
"y  c #50B2186030E7",
"u  c #61311BD4353B",
"i  c #44232DCC2065",
"p  c #459027C7249C",
"a  c #4919342C26C0",
"s  c #4EEC38CC2267",
"d  c #536A34BE258C",
"f  c #43BF290939BC",
"g  c #5328216F32B5",
"h  c #772C272029C6",
"j  c #6250300F1FC9",
"k  c #68CB345E33B0",
"l  c #5870433B2CCA",
"z  c #1A620FBB4497",
"x  c #111B13AF5D60",
"c  c #2C871D594E84",
"v  c #171D27C147C6",
"b  c #191038214BE2",
"n  c #1C2E2EA3512C",
"m  c #2DCF2BBB4848",
"M  c #363A2C8F4733",
"N  c #239036B94A10",
"B  c #33B135EC437B",
"V  c #24742BFD5AF2",
"C  c #0CDD19E47109",
"Z  c #190F2B7C6788",
"A  c #0F4B28A67F2B",
"S  c #2FDE2F916D7C",
"D  c #233C39417923",
"F  c #487D3454468C",
"G  c #511D31ED4489",
"H  c #729D31794556",
"J  c #1C4E466957BF",
"K  c #37FC45824658",
"L  c #31A74F5F6EBE",
"P  c #20F866027CB1",
"I  c #477E57D05B43",
"U  c #69FA4F1D568B",
"Y  c #7DF33FEF500E",
"T  c #4B9045066627",
"R  c #5A8A4C737733",
"E  c #41E15E5C7366",
"W  c #4AE75C6073FE",
"Q  c #63075AEA636E",
"!  c #55FD663770DD",
"~  c #96221DFB08EF",
"^  c #90D225570E00",
"/  c #881229EF1A3C",
"(  c #A9262C230633",
")  c #B12C290401DB",
"_  c #86282F4A224C",
"`  c #85E43F1C298A",
"'  c #92643886203E",
"]  c #8CE541A33072",
"[  c #848C53EB460A",
"{  c #11D42C3392E0",
"}  c #1E0B21CA9F9C",
"|  c #0BDB336F911F",
" . c #156C371296F9",
".. c #311731E986B8",
"X. c #2E143EB998BC",
"o. c #1D4F287AA496",
"O. c #15B63165AE46",
"+. c #0A5B3054B6EC",
"@. c #0B623959B057",
"#. c #06E139B7BC83",
"$. c #214E3B63AAA6",
"%. c #1BB44694877C",
"&. c #139843B296CE",
"*. c #1A36596C978D",
"=. c #2343558685F6",
"-. c #0EA963138165",
";. c #16F66BE2901C",
":. c #1D3F7E069202",
">. c #2D4F6A8E8115",
",. c #3C4867BE86D5",
"<. c #245C79598C9C",
"1. c #3CC473088D54",
"2. c #27C572C89473",
"3. c #38D9783C99F1",
"4. c #0DBC4BE4A74A",
"5. c #16E544B6A4B8",
"6. c #09F659F3A803",
"7. c #13AA5853A8C5",
"8. c #0539498CB492",
"9. c #1B4D436AB636",
"0. c #1B6C4BDCC00A",
"q. c #09905D02BC3C",
"w. c #271D405DA6AB",
"e. c #20B3473EB379",
"r. c #08C2662BACD4",
"t. c #18CF6B45A663",
"y. c #05C16A44BD6D",
"u. c #1C377A96B6DF",
"i. c #25A277D8A725",
"p. c #2DA3775BACF9",
"a. c #29806C78BD3F",
"s. c #307472A3B03E",
"d. c #438E78098912",
"f. c #042937B6C3DD",
"g. c #05784782C649",
"h. c #023B439ACA43",
"j. c #03B94C13CBC5",
"k. c #1830458BC06F",
"l. c #00ED5532CE7E",
"z. c #0CE95B49CD98",
"x. c #15CA567BC91C",
"c. c #03F04AE2D230",
"v. c #05FD5A9CD794",
"b. c #03215C47D487",
"n. c #034C6415C40D",
"m. c #0004605DCC5B",
"M. c #00006995C9AD",
"N. c #05307B65C9CE",
"B. c #005267E6D6EA",
"V. c #00006EB0DC4B",
"C. c #131E668ED3DA",
"Z. c #08157620D944",
"A. c #02257F8BDB81",
"S. c #10C67137D204",
"D. c #00AA67EFE491",
"F. c #01BD7BC1E529",
"G. c #05E078B1E968",
"H. c #00006885F29F",
"J. c #008F73A6F838",
"K. c #00B37D7FF509",
"L. c #00007756FCA9",
"P. c #357C88749DC9",
"I. c #14268763A84B",
"U. c #1CC788F2ABF5",
"Y. c #1AF39305ABB9",
"T. c #153F88D4B63C",
"R. c #0B1793BAB9CF",
"E. c #170C9520B8BB",
"W. c #1E2D9439BFEB",
"Q. c #27D98644A9CC",
"!. c #34658FC7A240",
"~. c #33C19497B028",
"^. c #289E98EAB983",
"/. c #0ACFA557B7C8",
"(. c #01CC834AC7BA",
"). c #1881875DC95A",
"_. c #12FD9B2AC9A6",
"`. c #077887C0DA38",
"'. c #12B48EDFDE71",
"]. c #02AB96DBDC25",
"[. c #10339828D0FF",
"{. c #22E98D5EC43D",
"}. c #0BBAA892C6F4",
"|. c #18EBA7FBC55B",
" X c #1552ABA6CEA8",
".X c #18D4B4CECB78",
"XX c #0C41AB1CDE73",
"oX c #1637A568D7EF",
"OX c #0713B16ED663",
"+X c #0D4AB786D5DB",
"@X c #1553B80BD3FA",
"#X c #234BA0FDC8BA",
"$X c #20DEB911CE41",
"%X c #21E6B54ED957",
"&X c #06E687ACE639",
"*X c #07DB979EE9D9",
"=X c #00A68518F792",
"-X c #01C08B2BF395",
";X c #0000828FF8AA",
":X c #00458CB2F9E7",
">X c #048895C2F632",
",X c #041F9AEDF3D7",
"<X c #0286985DF9B7",
"1X c #00C0A706E34F",
"2X c #0ADFA32FE222",
"3X c #0B05ADCBE5DF",
"4X c #05D6A709E902",
"5X c #02F8B82CE83C",
"6X c #0C72B613E548",
"7X c #033DB284EBE8",
"8X c #0AC7BD7AED85",
"9X c #192FB9D5E7C1",
"0X c #02ABA35CF5AC",
"qX c #0202AD46F3AA",
"wX c #0048A508FC69",
"eX c #0200AB2AFBD5",
"rX c #058CB1BBF391",
"tX c #008CBC19F53B",
"yX c #017EB235FBE6",
"uX c #0110BDE7FCB2",
"iX c #0657CCE3DC1E",
"pX c #1674C6B7DAD9",
"aX c #2002C182D26B",
"sX c #093AC7D2E7EE",
"dX c #043FC518EEB5",
"fX c #04F9CAFAEF2E",
"gX c #11D9CD12E7A3",
"hX c #05F0D7C7EC5C",
"jX c #12D0D312E6D5",
"kX c #059CC740F3C3",
"lX c #089AC360F4D8",
"zX c #046DCD0CF551",
"xX c #0050C464FC9F",
"cX c #0073CC33FC9E",
"vX c #047CD41AF3D8",
"bX c #09C3D577F129",
"nX c #050BDC59F2C0",
"mX c #0A65DD02F3E8",
"MX c #01AFD316FC09",
"NX c #0100DCA9FDA5",
"BX c #0579E1E4F46E",
"VX c #00AFE4BBFD8D",
"CX c #00ADEBF1FEE0",
"ZX c #0038F4D3FFCC",
"AX c None",
/* pixels */
"8 7 5 . 5 5 AXAXAXAXAXAXAXAXAXAXAXAXAXAXAXAXAXAXAXAXAXAX    AXAX",
"7 % * : 3 B AXAXAXAXAXAXAXAXAXAXAXAXAXAXAXAXAXAXAXAXAXAX+ O AXAX",
"o : c D *.u._.{.1.W AXAXAXAXAXAXAXAXAXAXAXAXAXAX7.&.A x - ; O . ",
"8 , S O.C.'.XX X!.1.AXAXAXAXAXAXAXAXAXAXAXAXAXAX7.4.| A C z $ o ",
"p G S $.q.Z.3X+X@X^.d.Q AXAXAXAXAXAXAXAXAXAXT.T.N.n.8.@.{ C , & ",
"d F ..$.k.Z.4XlXzX@X!.d.AXAXAXAXAXAXAXAXAXAX_.[.].`.m.l.f.@.m e ",
"AXAX$.0.C.&XrXcXMXgX@X#XAXAXAXAXAXAXAXAX|. X6X7X5XqX-XG.D.v.AXAX",
"AXAXx.C.Z.-XrXxXcXMXzXgXAXAXAXAXAXAXAXAX.XpXdXkXcXxXwX:XK.K.AXAX",
"AXAXG.&X-X>XeXuXcXMXzX6X{.s.AXAXAXAXW P.pXBXnXMXcXxXwX<X:X:XAXAX",
"AXAX>X>X0XwXyXxXMXNXzX6X{.s.AXAXAXAXd.Q.iXCXVXNXcXxXeXwXwXwXAXAX",
"AXAXeXyXuXxXcXMXNXNXvX8X'.a.R Y AXAXp.{.sXnXCXVXNXcXxXxXxXcXAXAX",
"AXAX2X9XdXzXfXbXmXmXbX8X*Xa.R H AXAXu.[.8XnXBXBXvXfXdXdXdXfXAXAX",
"AXAXU.E. X+X@XpXpXjXgXlX,Xa.T u q G t.2XsXhXjXpX+XOXOXOX}.}.AXAX",
"AXAX>.<.Y.|..X$XaXaXjXbXrX{.S y 0 G p.3XfXjX@X/.E.T.I.I.:.<.AXAX",
"AXAXI E 2.Q.#X%XpXjXmXmXMX_.E y y F i.6XzXsX/.I.:.=.D L K K AXAX",
"AXAXE ,.Q.W.oX9XgXmXCXCXmXoXL u 0 F U.5XdXOX_.t.*.=.L V M M AXAX",
"AXAX{.).XX8X8XxXvXVXZXCXNXoXW k q I Q.1XtXXX(.r.6.6.4.&. .{ AXAX",
"AXAX>X0XcXNXNXNXVXCXZXZXMX#XQ _ ^ k 3.oX7X1X(.y.y.n.b.l.#.+.AXAX",
"AXAX0XyXMXVXCXCXCXZXZXCXdX~.[ ( ( ` ! #X3XqX].N.n.n.B.b.f.f.AXAX",
"AXAX,XqXxXNXVXCXZXZXZXvX Xd.] ) ( ' U 1.oXqX*XA.M.b.m.B.j.h.AXAX",
"AXAX'.*XqXxXMXNXVXCXZXgXi.T h ~ ^ / u T ).>X&XB.B.l.l.l.v.C.AXAX",
"AXAXC.S.&X0XxXNXVXCXCX.XL g w t / / q G t.A.F.V.D.b.j.g.z.z.AXAX",
"AXAXx.x.v.F.tXVXCXVXsXY.F 6 q r r r 6 y D 7.Z.K.G.D.j.#.#.9.AXAX",
"AXAXe.k.c.D.tXCXZXnX/.P : 6 r j d 0 6 9 c  .Z.-X;XD.j.#.O.o.AXAX",
"AXAXw.e.v.K.xXCXZXiX;.N % 5 AXAXAXAX7 7 @ V y.:XL.H.v.j.O.o.AXAX",
"AXAXX.e.v.=XcXCXnX/.J # % 7 AXAXAXAX9 o . > *.D.L.J.B.j.O.} AXAX",
"AXAXAXAXq.`.lXvX}.-.2 X e a AXAXAXAXAXAX. : Z 6.F.=Xv.g.AXAXAXAX",
"AXAXAXAX%.;.R.R.-.b 1 & i d AXAXAXAXAXAXo $ - Z r.y.5. .AXAXAXAX",
"AXAXAXAXf 4 J b < 1 = a AXAXAXAXAXAXAXAXAXAX+ ; v n m 3 AXAXAXAX",
"AXAXAXAXe 8 * +   X = s AXAXAXAXAXAXAXAXAXAX  X # * 8 e AXAXAXAX",
"AXAXAXAXAXAXe e AXAXAXAXAXAXAXAXAXAXAXAXAXAXAXAXa a AXAXAXAXAXAX",
"AXAXAXAXAXAXs s AXAXAXAXAXAXAXAXAXAXAXAXAXAXAXAXl l AXAXAXAXAXAX"
};
