/* XPM */
static char *xpm__usr_share_pixmaps_snake4[] = {
/* columns rows colors chars-per-pixel */
"32 32 73 1 ",
"  c black",
". c #393939393939",
"X c #838383838383",
"o c #B7B7B7B7B7B7",
"O c #9B9B9B9B9B9B",
"+ c #4C4C4C4C4C4C",
"@ c #1D1D1D1D1D1D",
"# c #171717170000",
"$ c #A4A4A4A40000",
"% c #717171717171",
"& c #6F6F6F6F6F6F",
"* c #A2A2A2A2A2A2",
"= c #535353535353",
"- c #3A3A3A3A3A3A",
"; c #464646460000",
": c #757575750000",
"> c gray88",
", c gray21",
"< c gray7",
"1 c #7E7E7E7E7E7E",
"2 c #5A5A5A5A5A5A",
"3 c #8D8D8D8D8D8D",
"4 c #393939390000",
"5 c #E7E7E7E70000",
"6 c #CFCFCFCF0000",
"7 c #D3D3D3D30000",
"8 c gray14",
"9 c #909090909090",
"0 c #AAAAAAAA0000",
"q c #1D1D1D1D0000",
"w c #A7A7A7A7A7A7",
"e c #696969690000",
"r c #BCBCBCBCBCBC",
"t c #777777777777",
"y c #565656565656",
"u c #1C1C1C1C0000",
"i c #555555550000",
"p c #B8B8B8B80000",
"a c #777777770000",
"s c gray62",
"d c #000082820000",
"f c #000080800000",
"g c #000051510000",
"h c #ABABABAB0000",
"j c #ACACACAC0000",
"k c #9D9D9D9D0000",
"l c #2B2B2B2B0000",
"z c #0E0E0E0E0000",
"x c #0000C3C30000",
"c c #00000000D3D3",
"v c #1C1C00000000",
"b c #555500000000",
"n c #55556C6C0000",
"m c #1C1C48480000",
"M c #00005A5A0000",
"N c #0000A2A20000",
"B c #C6C600000000",
"V c red",
"C c #C6C624240000",
"Z c #71715A5A0000",
"A c #F1F10E0E0000",
"S c #BABA48480000",
"D c #E3E312120000",
"F c #E3E31D1D0000",
"G c #C7C73A3A0000",
"H c #F5F500000000",
"J c #8E8E00000000",
"K c #7A7A00000000",
"L c #717100000000",
"P c #D6D61D1D0000",
"I c #898900000000",
"U c #2B2B00000000",
"Y c #484800000000",
/* pixels */
" .XoO+@                       #$",
".%&**=-@                      ;:",
">,<12<,3                     45;",
">,,2,,,3                    467;",
"89*22*98                   4570q",
" 8w1228                   4677e ",
",2rtyy2,                ui57pa  ",
"*,&Osy,*   dfffg        hjkklz  ",
"          fxxxxxd               ",
"    ffffffxxxxxxxdd             ",
"  ffxxxxxxxxxxxxxxxd            ",
" fxxxxxxxxxxccccxxxxd           ",
" fxxxxdxxxxxxxxxxxxxx           ",
"fxxxxxxdxxxxxxxxxxxxx           ",
"fxxxxxxxxdxxccccxxxxg           ",
"fxxdxxdxxxxxxxxxxxxg            ",
"fxxxdxxxggxxxxxxxgg             ",
"fxxxxxxg  gxxxxdg               ",
"fxxxxdxg    ggg                 ",
"fxdxxxxg                        ",
"fxxxxxxg                        ",
"fxxdxxxg                        ",
"fxxxdxxg                        ",
"fxxxxxxg                        ",
"fxxxxdxg                vbnmMNvb",
"fxxxxdxg                BVVCNZBV",
" xxxxxg                 ASDZnCVF",
" dxxddg                 AADDFFVF",
"  ddxg                  VVGFVGVH",
"  dxxg                  JVFVGVHK",
"   gg                    LBVFPIU",
"                          vbbY  "
};
