/* XPM */
static char *xpm__usr_share_pixmaps_artemis[] = {
/* columns rows colors chars-per-pixel */
"32 32 226 2 ",
"   c black",
".  c #020202020202",
"X  c gray1",
"o  c #040404040404",
"O  c gray2",
"+  c #060606060606",
"@  c #070707070707",
"#  c #090909090909",
"$  c #0B0B0B0B0B0B",
"%  c #0C0C0C0C0C0C",
"&  c gray5",
"*  c #0E0E0E0E0E0E",
"=  c gray6",
"-  c #111111111111",
";  c #131313131313",
":  c gray8",
">  c #151515151515",
",  c #161616161616",
"<  c gray9",
"1  c #191919191919",
"2  c gray10",
"3  c #1B1B1B1B1B1B",
"4  c gray11",
"5  c #1D1D1D1D1D1D",
"6  c #1E1E1E1E1E1E",
"7  c #202020202020",
"8  c #222222222222",
"9  c #232323232323",
"0  c gray14",
"q  c #252525252525",
"w  c gray15",
"e  c #272727272727",
"r  c #282828282828",
"t  c gray16",
"y  c #2A2A2A2A2A2A",
"u  c gray17",
"i  c #2C2C2C2C2C2C",
"p  c #2D2D2D2D2D2D",
"a  c gray18",
"s  c gray19",
"d  c #313131313131",
"f  c #323232323232",
"g  c gray20",
"h  c #343434343434",
"j  c #353535353535",
"k  c gray21",
"l  c #373737373737",
"z  c gray22",
"x  c #3A3A3A3A3A3A",
"c  c gray23",
"v  c #3C3C3C3C3C3C",
"b  c gray24",
"n  c #3E3E3E3E3E3E",
"m  c #3F3F3F3F3F3F",
"M  c gray25",
"N  c #414141414141",
"B  c gray26",
"V  c #434343434343",
"C  c gray27",
"Z  c gray28",
"A  c #484848484848",
"S  c #494949494949",
"D  c gray29",
"F  c #4B4B4B4B4B4B",
"G  c #4C4C4C4C4C4C",
"H  c #4E4E4E4E4E4E",
"J  c gray31",
"K  c #505050505050",
"L  c #515151515151",
"P  c #535353535353",
"I  c gray33",
"U  c #555555555555",
"Y  c #565656565656",
"T  c gray34",
"R  c #585858585858",
"E  c gray35",
"W  c #5A5A5A5A5A5A",
"Q  c #5B5B5B5B5B5B",
"!  c gray36",
"~  c #5D5D5D5D5D5D",
"^  c gray37",
"/  c #5F5F5F5F5F5F",
"(  c #606060606060",
")  c gray38",
"_  c #626262626262",
"`  c gray39",
"'  c #646464646464",
"]  c #656565656565",
"[  c gray40",
"{  c #676767676767",
"}  c #686868686868",
"|  c DimGray",
" . c #6A6A6A6A6A6A",
".. c #6C6C6C6C6C6C",
"X. c gray43",
"o. c #6F6F6F6F6F6F",
"O. c gray44",
"+. c #717171717171",
"@. c gray45",
"#. c #747474747474",
"$. c gray46",
"%. c #767676767676",
"&. c #777777777777",
"*. c gray47",
"=. c #797979797979",
"-. c gray48",
";. c #7C7C7C7C7C7C",
":. c gray49",
">. c #7E7E7E7E7E7E",
",. c gray50",
"<. c #808080808080",
"1. c #818181818181",
"2. c #838383838383",
"3. c #848484848484",
"4. c gray52",
"5. c #868686868686",
"6. c gray53",
"7. c #888888888888",
"8. c #898989898989",
"9. c gray54",
"0. c #8B8B8B8B8B8B",
"q. c #8D8D8D8D8D8D",
"w. c #8E8E8E8E8E8E",
"e. c gray56",
"r. c #909090909090",
"t. c gray57",
"y. c #929292929292",
"u. c #939393939393",
"i. c gray58",
"p. c gray59",
"a. c #979797979797",
"s. c #989898989898",
"d. c gray60",
"f. c #9A9A9A9A9A9A",
"g. c #9B9B9B9B9B9B",
"h. c gray61",
"j. c #9D9D9D9D9D9D",
"k. c #9F9F9F9F9F9F",
"l. c #A0A0A0A0A0A0",
"z. c gray63",
"x. c #A2A2A2A2A2A2",
"c. c gray64",
"v. c #A4A4A4A4A4A4",
"b. c #A5A5A5A5A5A5",
"n. c gray65",
"m. c gray66",
"M. c #A9A9A9A9A9A9",
"N. c #AAAAAAAAAAAA",
"B. c gray67",
"V. c #ACACACACACAC",
"C. c gray68",
"Z. c #AEAEAEAEAEAE",
"A. c #AFAFAFAFAFAF",
"S. c gray69",
"D. c #B1B1B1B1B1B1",
"F. c #B2B2B2B2B2B2",
"G. c gray70",
"H. c #B4B4B4B4B4B4",
"J. c gray71",
"K. c #B6B6B6B6B6B6",
"L. c #B7B7B7B7B7B7",
"P. c gray72",
"I. c #B9B9B9B9B9B9",
"U. c gray73",
"Y. c #BBBBBBBBBBBB",
"T. c #BCBCBCBCBCBC",
"R. c gray74",
"E. c gray75",
"W. c #C0C0C0C0C0C0",
"Q. c #C1C1C1C1C1C1",
"!. c gray76",
"~. c #C3C3C3C3C3C3",
"^. c gray77",
"/. c #C5C5C5C5C5C5",
"(. c #C6C6C6C6C6C6",
"). c gray78",
"_. c #C8C8C8C8C8C8",
"`. c gray79",
"'. c #CACACACACACA",
"]. c #CBCBCBCBCBCB",
"[. c gray80",
"{. c #CDCDCDCDCDCD",
"}. c #CECECECECECE",
"|. c #D0D0D0D0D0D0",
" X c gray82",
".X c #D2D2D2D2D2D2",
"XX c LightGray",
"oX c gray83",
"OX c #D5D5D5D5D5D5",
"+X c gray84",
"@X c #D7D7D7D7D7D7",
"#X c gray85",
"$X c #DADADADADADA",
"%X c gray86",
"&X c gainsboro",
"*X c #DDDDDDDDDDDD",
"=X c gray87",
"-X c #DFDFDFDFDFDF",
";X c gray88",
":X c #E1E1E1E1E1E1",
">X c #E2E2E2E2E2E2",
",X c gray89",
"<X c #E4E4E4E4E4E4",
"1X c gray90",
"2X c #E6E6E6E6E6E6",
"3X c #E7E7E7E7E7E7",
"4X c gray91",
"5X c #EAEAEAEAEAEA",
"6X c #ECECECECECEC",
"7X c gray93",
"8X c #EEEEEEEEEEEE",
"9X c #EFEFEFEFEFEF",
"0X c gray94",
"qX c #F1F1F1F1F1F1",
"wX c gray95",
"eX c #F3F3F3F3F3F3",
"rX c #F4F4F4F4F4F4",
"tX c #F6F6F6F6F6F6",
"yX c #F8F8F8F8F8F8",
"uX c #F9F9F9F9F9F9",
"iX c gray98",
"pX c #FBFBFBFBFBFB",
"aX c gray99",
"sX c #FDFDFDFDFDFD",
"dX c #FEFEFEFEFEFE",
"fX c gray100",
/* pixels */
"fXfXfXfXfXfXfXfXfXfXfXfXfXfXfXfXfXfXfXfXfXfXfXfX0Xv.:X*XD.^ 6 - ",
"fXfXfXfXfXfXfXfXfXfXfXfXfXfXfXfXfXfXfXfXfXfXfXfX}.R.n.T * y 1.@X",
"fXfXfXfXfXfXfXfXfXfXfXfXfXfXfXfXfXfXfXfX8X'.2XR..XZ 5 ! | qXyXfX",
"fXfXfXfXfXfXfXfXfXfXfXfXfXfXfXfXfXfXfXfX-XQ.i.s Z K q.4X~.fXfXfX",
"fXfXfXfXfXfXfXfXfXfXfXfXfXfXfX*XJ.|.^.l.#.z M E 7.R.rXfXtXfXfXfX",
"fXfXfXfXfXfXfXfXfXfXfXfXfXfXfX2Xf.J.P - f ( G.M.fXfXfXfXfXfXfXfX",
"fXfXfXfXfXfXfXfXfXfX.X*X-X6X}.Y.D - a X.'.9XtXfXfXfXfXfXfXfXfXfX",
"fXfXfXfXfXfXfXfXfXfX,X3.(.=.Z   7 o.m.S.1XfXfXfXfXfXfXfXfXfXfXfX",
"fXfXfXfXfXfX0XfX8X-Xi.j -   8 j.E.sXrX@X5X`.sX,X|.sXfXfXfXfX8XfX",
"fXfXfXfXfXfX!. .9.y X     % h.H.6XE._.S.|.}. X%X%X:XfXfXfXfXfXfX",
"fXfX5X4X*XI.>.L o   4 3 - , M.R.8XfXrX8XsXiX9X8X8XpX.X%XoXfXfXfX",
"fXfX=X4.s.S O # R s.9.8 # 4 !.W.OXdX0X(.tXfXfXfXfXfXrXI.8XfXfXfX",
"eX(.u.A   y k 0.K.O.} - . ' Z.1XP.0.S.0XfXfXfXfXfXfXfXfX~.6X8X|.",
"j.' 9 f M.rXK.4.B     # * y.A.t.l.M.K.~.8XiXyXfXfXfXfXfXpX,XwX8X",
"7 E M.%XwX+XZ d &     - )  .D.(._.;XC.N.t.l.z.G.%XI.5XfXfX8XsX[.",
"G 6X0XfX4XJ -   = ; $ r h %./ ! 9.>.$.^.R.o.9.H.>.u.~.fXuX6XoX0X",
":X6XfXC.r J p n = B i l a Q 9.w.V./.*.(.0X*X'.}.|.5X8XfX!.$X7.:X",
"d.sXrXf.h @ 3 l / i e t k X.| @.+.u.=.:._.wXfXfXfXfXfXfX1Xw.c.%X",
"R.sXfXZ.) / F t 1.= 1 t q J U I 1.0.e.*.=.B.2XfXfXfXfX8XfX=X&XfX",
"|.pXrX^ Y   : k Y m u 7 8 A C { ! e.6.:.<.u.`.0XfXwXY 6.5XrXm.fX",
"0X6XR.;.@.H _ ..i Z p + - j N R ) { 0.5.=.e.XXXX<XK.I.{.wXsX).fX",
"pXdXb.,.l $ } G B 0 g # 2 o g 7 r } 8.=.p.8.S.$XT.( :.#.sX0XL.fX",
"/.OX}._ S [ / 4 8 6 > ; > -   6 c P ` ] :.:.N.5XfXtX3X,XuXwXwXfX",
"/.#XJ.Q R w &.    6 g = j $     n 3.W V ^ ~ &.@.V.-XpXfXuXrXfXfX",
":XpX.Xb.p O.M ( = n l 2 *.&.$   t.g.k.q.C J L  .r.a.+X5XfXfXfXfX",
"fXfX5X` b @ K J g * >.3.J.j.v [ $.2.{..X Xi.f < ' Y.U.oXfXfXfXfX",
"fXfXfXM.y X x & : }.:XV.-.pXyX-X-.l.J.&XeXrXrXh.( r p.8XfXfXfXfX",
"fXfXfX].z ! v.[.z.n.fXfXuXfXfXuX/ y.Z.@XaXfXfXfXfX7X0XtXfXfXfXfX",
":XrXfXfX[.|.wX8XfXfXfXfXfXfXfXfX*.-.N.U.;XpXfXfXfXfXfX>X6XOX~.fX",
"fXR.fXfXfXfXfXfXfXfXfXfXfXfXfXfX' #.5.K.|.3XfXfXfXfXfXqX] g.dXpX",
"fXf.dXfXfXfXfXfXfXfXfXfXfXfXfXfX<...1.9.F.%XfXsXfXfXfXfX4X`.B.Z.",
"fX1XpXfXfXfXfXfXfXfXfXfXfXfXfXfXn.O.o.=.a.x.sXwXfXfXfXfX4Xm.,.<."
};
