/* XPM */
static char *xpm__usr_share_pixmaps_freemat_freemat[] = {
/* columns rows colors chars-per-pixel */
"32 32 227 2 ",
"   c #1A0A4590638A",
".  c #386655EA6CEB",
"X  c #383F5EE97762",
"o  c #367161247C90",
"O  c #43645AD56D28",
"+  c #486B66D87EF0",
"@  c #5BEA6A607668",
"#  c #55AE697F79C2",
"$  c #60916DEA78CF",
"%  c #642A72347D20",
"&  c #697E73967BFE",
"*  c #78957AFA7D80",
"=  c #356F6464816C",
"-  c #38286AB4874D",
";  c #39496DA09458",
":  c #288373CD9769",
">  c #348B739295A6",
",  c #3C707415992C",
"<  c #26BC7839A452",
"1  c #388079FDA247",
"2  c #26E97AA7B493",
"3  c #38757FA7B335",
"4  c #45A96AB4881F",
"5  c #53C56D5E8296",
"6  c #5E9474168A0B",
"7  c #456E76FA97BC",
"8  c #45FE79D69A28",
"9  c #538E77F99291",
"0  c #58CA7DA69850",
"q  c #647E7564839F",
"w  c #6B867A90860D",
"e  c #67037BBB8B45",
"r  c #772E7CA9812F",
"t  c #793C7DDC81E0",
"y  c #641E7EA8930C",
"u  c #6ADE7FB1940C",
"i  c #4E0D7E6EA02B",
"p  c #54E37EB1A528",
"a  c #26FE806DAAC4",
"s  c #2FBF812DA3DA",
"d  c #3B0B8A6BAEBC",
"f  c #326984CEB321",
"g  c #2AFF941FBC1D",
"h  c #33799AA1BE7A",
"j  c #39969CE7BE79",
"k  c #54E787569B9C",
"l  c #59918A0D9D86",
"z  c #6F6F82118ECA",
"x  c #7CA0820086A7",
"c  c #76C9802A883B",
"v  c #7A8E83BD8B74",
"b  c #6BC1852E968B",
"n  c #67CD8ADE9C3E",
"m  c #7257852C9446",
"M  c #7AF886F39235",
"N  c #7E12894C9385",
"B  c #73CF8AA69C4A",
"V  c #7AA58CB39D8E",
"C  c #4D1F8443A5A8",
"Z  c #4332889BA8D5",
"A  c #5547889FA8E0",
"S  c #40148F07B334",
"D  c #4EE99007B307",
"F  c #42118637BD45",
"G  c #54288E2CB4E4",
"H  c #42709F52BFEB",
"J  c #5BEB96B2B5B9",
"K  c #64638554A2E2",
"L  c #66578C23A630",
"P  c #77728F6FA587",
"I  c #7B918F00A1CE",
"U  c #688895DDAA19",
"Y  c #6B5C9377AE5A",
"T  c #7F5E9803AEFB",
"R  c #788098BCAC00",
"E  c #6BE89666BA27",
"W  c #764199EDB8B3",
"Q  c #7F17A04BADE0",
"!  c #796DA4ABB7E3",
"~  c #3A73A561C5A4",
"^  c #3DD2A903C7F4",
"/  c #3A19A9D5CB49",
"(  c #39E1ACECD3D0",
")  c #3A58B518D5F1",
"_  c #41819F17C060",
"`  c #4A849F23C08B",
"'  c #5CCD92B4C1AC",
"]  c #61689590C357",
"[  c #451EA4B7CBBC",
"{  c #5A56A93DCD66",
"}  c #42E5B11ACEEF",
"|  c #4E1EAD76D140",
" . c #45FEB165D362",
".. c #49D1B23AD40D",
"X. c #45C2BA11DBA9",
"o. c #4928BCA3DE46",
"O. c #58BDB776D72E",
"+. c #6425A16CC057",
"@. c #788DA4F5C40C",
"#. c #7268A4D1CD89",
"$. c #79F3B37DD520",
"%. c #75EBBB56D96F",
"&. c #7E92C8C7DFA3",
"*. c #4D81C78AE643",
"=. c #55C0CD0BEB27",
"-. c #5D22D3F3EE9C",
";. c #62B5CB38E85C",
":. c #7DFDD23BE81E",
">. c #80D1842387DB",
",. c #862989388DE2",
"<. c #88E289798D5F",
"1. c #827B8C119492",
"2. c #81E08F619A42",
"3. c #854D91069C57",
"4. c #955298CE9E1E",
"5. c #83F69472A34C",
"6. c #87C99953A80B",
"7. c #84A898D6AC42",
"8. c #8FCA9FB5AE21",
"9. c #985D9E1BA33A",
"0. c #94849F56A951",
"q. c #84C89F48B938",
"w. c #8ED4A0D6AE07",
"e. c #9E47A136A64B",
"r. c #935FA30BAF2B",
"t. c #89C2AAC8B75B",
"y. c #8D09AB91B6FB",
"u. c #84E6A5E8B920",
"i. c #915EA1BDB3E9",
"p. c #9738AD91BD75",
"a. c #A3D5A3B8A5BC",
"s. c #A770A743AAB5",
"d. c #B691B119AE40",
"f. c #A08CACA8B78F",
"g. c #A879ADE9B2CA",
"h. c #B22BAFAFB146",
"j. c #A63DB2FEBE77",
"k. c #ACA0B475BB59",
"l. c #B559B28AB32A",
"z. c #B8CCB4BBB34E",
"x. c #B99EB87FB8F2",
"c. c #87B2AB59CA32",
"v. c #93AAAD40C333",
"b. c #999FAE12C0EF",
"n. c #9D6DB521C60B",
"m. c #9F19B825CA0A",
"M. c #87E6B69DD6D7",
"N. c #936AB7E6D82D",
"B. c #9D8EBAE4D3FE",
"V. c #AFFBB8F6C3F6",
"C. c #A4AAB7BACA06",
"Z. c #A49FB960CC4D",
"A. c #B36DBEEACA2C",
"S. c #A26DBCCAD24F",
"D. c #A868BFC4D47C",
"F. c #949ABF86E337",
"G. c #9471C22CDD80",
"H. c #A714C189D910",
"J. c #A0DCC86BDF0D",
"K. c #B441C5DED459",
"L. c #B6A4D04CDE18",
"P. c #BE8CCC42DAD8",
"I. c #81C3C2B3E26B",
"U. c #9E35C4E0E2F9",
"Y. c #9C43C96CE27F",
"T. c #9A48CE6FE9C7",
"R. c #80B8D199E6F5",
"E. c #88F5D17FEB2E",
"W. c #94C9DBC7EEAB",
"Q. c #9F48DE42EE6B",
"!. c #8696D897F216",
"~. c #A6F6CB42E574",
"^. c #ADB3CC5EE506",
"/. c #B35ACEB8E5DE",
"(. c #A7B5D639E87E",
"). c #A722D635EF1E",
"_. c #B7F1D435E84E",
"`. c #BC7FDF7CE831",
"'. c #B4C0D2B8EAB8",
"]. c #B30CD955F1FF",
"[. c #BB8ADB41F2B3",
"{. c #8B66E464F19E",
"}. c #93ACE53AF27F",
"|. c #9E22E6C8F4BB",
" X c #A531E19FF00C",
".X c #BBD2E0F2EC58",
"XX c #A1BDE3B0F395",
"oX c #A991E5EAF3B3",
"OX c #ADEEEB90F73A",
"+X c #AF79EA1FF8D6",
"@X c #BDD3EB24F6F0",
"#X c #B21FEC84F8D7",
"$X c #C0C0CBE9D5BD",
"%X c #C25DD078DC54",
"&X c #C9EAD848E010",
"*X c #D410D517D7BB",
"=X c #C354D47CE2FC",
"-X c #CA2AD60FE124",
";X c #CA7AD8D6E4D6",
":X c #C19AD9EDEE88",
">X c #CC0ADDE4EE73",
",X c #D20BDF9AEFC4",
"<X c #C6B9DFD9F620",
"1X c #D3B8E31BEE29",
"2X c #D32FE90FEF23",
"3X c #C57DE7CBF515",
"4X c #CB64E43DF31D",
"5X c #CCD3ECC9F5AA",
"6X c #D508E4C5F2BA",
"7X c #DADFE700F447",
"8X c #D4BEEB4FF62C",
"9X c #DD5AEBC2F5F2",
"0X c #D3DEEEF9F8DA",
"qX c #C2FBF60FFBE3",
"wX c #C7CAF601FAD7",
"eX c #D3ADF4CEFA87",
"rX c #DAB4F5CBFBB8",
"tX c #E49CEE01F5A6",
"yX c #EA4DEE3FF401",
"uX c #E92DF086F7DD",
"iX c #E4E3F3BCF987",
"pX c #EC56F624FB8F",
"aX c #EDD8F8F4FD4D",
"sX c #F524F80CFD06",
"dX c #F70AF9AAFE1F",
"fX c #F9B2FBEDFF42",
"gX c None",
/* pixels */
"gXgXgXgXgXgXgXgXgXgX-X;X1X1X6X6X7X,X[./.D.v.1.t gXgXgXgXgXgXgXgX",
"gXgXgXgXgXgXgXgXgXgXA.$X%X;X1X8X4X_.B.v.v.8.1.t gXgXgXgXgXgXgXgX",
"gXgXgXgXgXgXgXgX  5 0.k.j.K.1XeX].M.A 9 m ,.v t gXgXgXgXgXgXgXgX",
"gXgXgXgXgXgXgXgX  X 2.g.j.K.2X3X!.E 7 4 q t t t gXgXgXgXgXgXgXgX",
"gXgXgXgXgXgXgXgXgXgXgXgX&X1XrX XO.~ L M gXgXgXgXgXgXgXgXgXgXgXgX",
"gXgXgXgXgXgXgXgXgXgXgXgX&X>X5XQ. .h L 5.gXgXgXgXgXgXgXgXgXgXgXgX",
"gXgXgXgXgXgX,X>X[.~.W E q.m.`.Q. .g C K @.N._.[.'.Z.3.* gXgXgXgX",
"gXgXgXgXgXgX<X^.N.@.E Y 7.n.`.Q. .g C L W N.S.~.'.H.5.b gXgXgXgX",
"gXgXgXgXpX5X).$.k 4 e 5.V.&X5XQ.} j R r.gXgXu.v.J.Y.#.L c t gXgX",
"gXgXgXgX0X.X$.D = . @ 9.*XtXrXQ. .H y.d.gXgXV u.J.T.%.+.n e gXgX",
"gXgXyX0XOX&.d - 5 $ gXgXyXpXrXQ. .H p.z.gXgXgXgX~.T.E.%.A 9 w t ",
"gXgXiX5X!.O.: o % t gXgXdXaXrXQ. .H y.z.gXgXgXgX^.(.XXR.` Z m ,.",
">X6XiX@X;.~ k # gXgXgXgXdXaXrX|. .H r.z.gXgXgXgX>X4X@XW.X._ Q e.",
"6X7XrXOXo.h n >.gXgXgXgXsXaXrXQ. .H y.l.gXgXgXgX7X8XeX X*.} ! e.",
"tX9XwX}.) h Q a.gXgXgXgXsXaXrXQ. .H y.l.gXgXgXgXuXiXrXoX-.} U M ",
"tX9XqX{.) j t.l.gXgXgXgXsXaXrXQ. .H y.l.gXgXgXgXuXpXrXOX-.) l q ",
"7X0XqX{.) ~ y.h.gXgXgXgXsXaXrXQ. .H y.h.gXgXgXgXuXuXiX#X-.) k % ",
"6X8XqX{.X.^ Q s.gXgXgXgXsXaXrXQ. .H y.l.gXgXgXgX9XiXrXOX=./ l w ",
">X4X5X|.*. .! 6.gXgXgXgXsXaXrXQ..._ y.h.gXgXgXgX,X8XeX|.X.h n ,.",
">X>X.XW.=.) U B gXgXgXgXdXaXrXQ. ._ y.z.gXgXgXgX,X4X+X:.h s b <.",
"gXgXU.I.o. .S i z * gXgXfXaXrXQ. ._ y.x.gXgXgXgX7X@XR...: o q v ",
"gXgXM.$.O.[ f 1 0 b gXgXpXaXrX X ._ t.x.gXgXgXgX/.G.{ d o O & x ",
"gXgXgXgX! J 3 2 3 ' N.:X8X9XeX X| _ u.V.=X<X].F.#.G , + # & gXgX",
"gXgXgXgX7.L 3 2 F ] c.S.K.&X5X X..h Y i.C.D.B.c.E i o O & x gXgX",
"gXgXgXgXgXgXgXgXP P P b V p..X X..g 8 6 u b m V w.w.gXgXgXgXgXgX",
"gXgXgXgXgXgXgXgX4.1.6 6 V p..X|.o.g C 6 # # @ c s.x.gXgXgXgXgXgX",
"gXgXgXgXgXgXgXgXgXgXgXgXA.%XwX}.*.~ Y 3.gXgXgXgXgXgXgXgXgXgXgXgX",
"gXgXgXgXgXgXgXgXgXgXgXgXP.L.(.&.( g Y 7.gXgXgXgXgXgXgXgXgXgXgXgX",
"gXgXgXgXgXgXgXgXgXgXH.Z.v.W J d a < , p W q.N t gXgXgXgXgXgXgXgX",
"gXgXgXgXgXgXgXgXgXgXC.b.T K 8 > > ; ; i E 7.M t gXgXgXgXgXgXgXgX",
"gXgXgXgXgXgXgXgXgXgXf.r.5.b y y y y y u I 3.v r gXgXgXgXgXgXgXgX",
"gXgXgXgXgXgXgXgXgXgXs.0.1.v M M N M M M 1.N v t gXgXgXgXgXgXgXgX"
};
