/* XPM */
static char *xpm__usr_share_pixmaps_gringotts[] = {
/* columns rows colors chars-per-pixel */
"32 32 64 1 ",
"  c #4BD52CA1010B",
". c #517932C1066C",
"X c #53D2353A0929",
"o c #575239110CA2",
"O c #58DB3AAC0E69",
"+ c #5B5C3D4B118F",
"@ c #5EF441451576",
"# c #605842DC1714",
"$ c #628A450819A9",
"% c #6697495C1E48",
"& c #67DF4B101FAA",
"* c #6A554D752299",
"= c #6DAE51292658",
"- c #6FA8533C289A",
"; c #71D5557D2B21",
": c #7496586B2E53",
"> c #774F5B66314D",
", c #796B5D9C33BA",
"< c #7BD56073368C",
"1 c #7E2462B53930",
"2 c #817B662A3CEF",
"3 c #8396689A3F72",
"4 c #85E86B114204",
"5 c #89606EDA45FD",
"6 c #8A6A70404772",
"7 c #8D3972DE4A89",
"8 c #9099765B4E4A",
"9 c #95817BB75401",
"0 c #98C67F1457AD",
"q c #9D6F84425D0D",
"w c #A048874C6048",
"e c #A3518A9663D3",
"r c #A77E8EFF689A",
"t c #ABA093816D60",
"y c #AEBC96C070F1",
"u c #AFE19843723E",
"i c #B29B9AFF755A",
"p c #B5C19E6A790C",
"a c #B7BEA0A07B46",
"s c #B98BA27A7D48",
"d c #BD14A64D816C",
"f c #BF55A8E28405",
"g c #C1C0AB5186B1",
"h c #C4D2AEA08A45",
"j c #C77CB1678D41",
"k c #C8D8B2E58ED6",
"l c #CB91B5E79205",
"z c #CE1CB8A49512",
"x c #D076BB15979F",
"c c #D36DBE409B03",
"v c #D681C1889E9A",
"b c #D7EDC322A02A",
"n c #DB0EC67FA3D8",
"m c #DDCBC951A6DE",
"M c #DFC9CB6CA936",
"N c #E2F6CEEEACDF",
"B c #E533D154AF68",
"V c #E6C7D308B138",
"C c #EA4ED6CBB540",
"Z c #EC02D8AFB73D",
"A c #EFDFDCCBBBA9",
"S c #F167DE70BD6B",
"D c #F384E0B5BFD7",
"F c None",
/* pixels */
"FFAAASAAAASAbgssassgnASSAmMAAAFF",
"FAAAAAAASSc9;;&O@O.@-9jNi:4nSAAF",
"AAAAAAAAAp%X0mg*gs>*,+O-53+jSAAA",
"AAAAAAAAp+.wZSz*cSm00i*4nnhVSAAA",
"AAAAAASg@ 5VSSz=vSSN7:4mSSSAAAAS",
"AAAAASn6#+zSSDh$jSASd+tVAASAAAAA",
"AAAAAAtq#4ZSSSi eSSb,;q4pAAAAAAA",
"AAAAAm8eXyABNVs+uSN99ni+3CSAAAAA",
"AAAAAsq8ojk5449%lZetZSl9hAAAAAAA",
"ASAAAee:#k5=as$Ozt7mBBBVVBBAAAAA",
"AAAAS89*%zq+tStO7@@;;;;;;;5mSAAA",
"AAAAS79%$cBhNSc%o:<<<<<,X.qZAAAA",
"AAAAS9q*OkDSSSiX$9qqqqel%4VAAAAA",
"AAAAStr, iSASc*Oqfgspp<f%wAAAAAA",
"AAASAhe7 6ZSB54ymAk97g5f%wAAAAAA",
"AAAASNqtX#vAe1cqsq;7+43f&wAAAAAS",
"AAAAAAie, 9a>zN;%3kvqp4f%qAAAAAA",
"AAAAASN9q=X&sDhO3BSASB5f%eAAAAAA",
"AAAAASSx7q*#jAv;sSAASm2d%qAAAAAA",
"AAAAAmtdg<4$@9i:jAACx7$3OeAAAAAA",
"AAAAS0&5t89;  X.2q03;6jt@qASAAAA",
"AAAASu149MZh9;#.O;6tzZSAfgAAAAAA",
"AAAASZccCSASABm4aVZSSSAAAAAAAAAA",
"SAAAAASDSSSAZSS7sDAASSSDSAAAAAAA",
"AAAAAAcgvble8dc4pkepjzllzCAAAAAA",
"AAAASAt>yi9%X=<+67O#<444qmSAAAAS",
"AAAAAAZNCCCnfc7*<szvBBBNBZSAAAAA",
"AAAAAAAAACBSZiqtr9zDmvAAAAAAAAAA",
"AAAAAASASt>de9vqdcqp41VSAAAAAAAA",
"AAAAAAAASx9rsNp+=lnu9dAAAAAAAAAA",
"FAAAAAAAAAZZSZ9$*pSAZASAAASAAAAF",
"FFAAAAAAAAASASNgcZAAAAAAAAAAAAFF"
};
