/* XPM */
static char *amph[] = {
/* columns rows colors chars-per-pixel */
"32 32 246 2 ",
"   c #1C41047304C7",
".  c #27A806E00510",
"X  c #2D34153B0A2D",
"o  c #30AB0FF3054F",
"O  c #37CD1C9016C2",
"+  c #0CAA365A0BBE",
"@  c #2D1233B00AB9",
"#  c #39C0244A1360",
"$  c #38051EEC2061",
"%  c #4A20197C10A3",
"&  c #456727C60014",
"*  c #4E8D292E1148",
"=  c #59C226A61342",
"-  c #7BBF3E48091A",
";  c #6F443A0F14CE",
":  c #54B32E3D2B06",
">  c #66622C8E2768",
",  c #69813A802ADF",
"<  c #72FF3DCF2CDD",
"1  c #6B77359F3280",
"2  c #678E3A2935AF",
"3  c #6C073DC0331D",
"4  c #7968374535A0",
"5  c #74BC3BC03361",
"6  c #02B94EC90A46",
"7  c #1A0546980412",
"8  c #21304C5D0CBA",
"9  c #3A065B600008",
"0  c #30304C7C0FBD",
"q  c #18866C790DED",
"w  c #15185A3E31BD",
"e  c #386C5C533291",
"r  c #1B4962662AEA",
"t  c #1B1969473682",
"y  c #3454610D319F",
"u  c #3BB0704439F8",
"i  c #4BB444A7067E",
"p  c #56CF47C2045C",
"a  c #54024EF4120E",
"s  c #6A85425C0000",
"d  c #77094817049B",
"f  c #7AE343C416E2",
"g  c #77CC58261171",
"h  c #541367121B1C",
"j  c #65F0649318EB",
"k  c #55F459BC3355",
"l  c #6E8A4C622C53",
"z  c #691F461C3714",
"x  c #744244DA3366",
"c  c #7929485B3730",
"v  c #767052B03A2D",
"b  c #28477AD34603",
"n  c #6A0946FF4190",
"m  c #737D4B404563",
"M  c #7E7451C44203",
"N  c #768566254439",
"B  c #49FB7CAD6AF9",
"V  c #881B396235EB",
"C  c #88A455950490",
"Z  c #8A124F801133",
"A  c #96D15C00171A",
"S  c #A8865E971289",
"D  c #8F8263B20C84",
"F  c #96E4640B048C",
"G  c #A94C76CD022E",
"H  c #A037615C19EE",
"J  c #8A8346CE2F3A",
"K  c #8AA057D82887",
"L  c #935A57732401",
"P  c #889E48AF36DE",
"I  c #96024B0C3B81",
"U  c #99444BE638FF",
"Y  c #8820547E3A99",
"T  c #944654C43B56",
"R  c #99A357AC3A83",
"E  c #99DB5C703C9F",
"W  c #ABC946713C36",
"Q  c #959969DE26C4",
"!  c #999364463E13",
"~  c #AE3D69413A2F",
"^  c #8BBF4A0941D7",
"/  c #970C4DE7463E",
"(  c #88F15459486C",
")  c #9C1854FD447E",
"_  c #9516587C452D",
"`  c #9C355D534279",
"'  c #9B1256444CB4",
"]  c #9B835B164C69",
"[  c #8AD15AF35466",
"{  c #97A159F253AD",
"}  c #A57D587645D3",
"|  c #ADF3552E4A49",
" . c #A5C75AEF4CA8",
".. c #AA925BB24C15",
"X. c #9984618D4394",
"o. c #9A52641E4C36",
"O. c #8C5A6ACA5152",
"+. c #96FB63D35734",
"@. c #A4BE65084C12",
"#. c #AAB466CA49CB",
"$. c #ACA9640C4CD1",
"%. c #B2D364F94C4A",
"&. c #B94369404A17",
"*. c #B89973C44C6D",
"=. c #ABF964BF535B",
"-. c #A3FE63AD5A53",
";. c #A886688457F1",
":. c #B31166BA5754",
">. c #A73F75505F03",
",. c #BAA976CA57C4",
"<. c #95AD5DD463C7",
"1. c #9918657C6410",
"2. c #96326F7F6E91",
"3. c #9B7F74E06A55",
"4. c #A51C6805644D",
"5. c #AA496CC1624E",
"6. c #B68A687A6295",
"7. c #A4E174896517",
"8. c #AB9678E4692A",
"9. c #B2BC77FB663B",
"0. c #BCCF793E6C14",
"q. c #A79577797419",
"w. c #B22077E572C1",
"e. c #CC696CBE40DB",
"r. c #CA377A5648BE",
"t. c #C93A6B3D5655",
"y. c #C71975A65740",
"u. c #C0EC7D266E57",
"i. c #49BA83D13CC6",
"p. c #31858C3253ED",
"a. c #290E99096D76",
"s. c #364C9CC769A1",
"d. c #58C58EE95B26",
"f. c #518491816F9D",
"g. c #7BA1B59C770A",
"h. c #8E3B891138D4",
"j. c #DD358DDC36B1",
"k. c #9571895D75E0",
"l. c #AAC4874F78EE",
"z. c #B5B586857643",
"x. c #B56E8B6E7189",
"c. c #B6988A0972B4",
"v. c #B47485D47B36",
"b. c #BC2E8A4F7C60",
"n. c #890AB2246242",
"m. c #CB2D895A437E",
"M. c #DA868DED4DDA",
"N. c #DB1397344C1D",
"B. c #CDC0879053B3",
"V. c #D44A90B85512",
"C. c #DED396F25624",
"Z. c #E66496714CA0",
"A. c #F09D9A675199",
"S. c #F0C1A98A4FCD",
"D. c #F3A6AB2958C6",
"F. c #EC7BB4CE5EE8",
"G. c #FA58B9255E08",
"H. c #CBC98DC96EE2",
"J. c #D6E197DB63D8",
"K. c #C3898B697D38",
"L. c #C97189957BDC",
"P. c #C469987C7C2B",
"I. c #E1FC9D59746E",
"U. c #DD1EA5046A42",
"Y. c #E9E3A967634A",
"T. c #FFFFB025667E",
"R. c #EC42B667641D",
"E. c #F937BEAA668D",
"W. c #FFFFCC8165C8",
"Q. c #F88CC6B96991",
"!. c #FF5BCC726CE6",
"~. c #F011CCAD781F",
"^. c #F12CCC0A7007",
"/. c #FFF8CD227398",
"(. c #FFFFCD497CA5",
"). c #E23CD3FC76DB",
"_. c #FFFFD6FE78F5",
"`. c #42C7919480B2",
"'. c #429CBD47971B",
"]. c #7E43B84F9AF1",
"[. c #7BDCB3D6A58B",
"{. c #52AFC7E7AAEE",
"}. c #7761CAB1B277",
"|. c #7EDDEDF8BA53",
" X c #7296DE77C6B6",
".X c #708BD64DCF83",
"XX c #7642E590DB1E",
"oX c #72C3F3A1ECB7",
"OX c #8E32874880A1",
"+X c #8458934B907C",
"@X c #AA0E86C382C8",
"#X c #B4408C7686BC",
"$X c #BDAD96FC8A56",
"%X c #95CEAA0F9798",
"&X c #A4E3ACB793EE",
"*X c #BF139C6DA7AF",
"=X c #8A28B454B4E0",
"-X c #BC72ABFBA9B9",
";X c #AE44BB60B966",
":X c #C54A940D84C8",
">X c #C9659965857B",
",X c #CBE99AE68CCE",
"<X c #C83F99F49607",
"1X c #CB1E9A769517",
"2X c #C8CCA4479D6F",
"3X c #F201BF958A61",
"4X c #CBF1A4E8A2F6",
"5X c #C929A74DA4BA",
"6X c #CD09AF84AFA9",
"7X c #C978B7FCAB26",
"8X c #D69FB6E4A774",
"9X c #D2E7BAE8B43C",
"0X c #E8BCBF2FBB66",
"qX c #C30AD88A86F6",
"wX c #FF62CC968775",
"eX c #FFFFD9408869",
"rX c #D91CC520AF42",
"tX c #C8FCC3E3B5EE",
"yX c #D96EC683B542",
"uX c #E7B3CCAFBB2B",
"iX c #8C57C9A4C3D8",
"pX c #A2CED795D831",
"aX c #B179E901DD36",
"sX c #8593FC16FA04",
"dX c #AD0EF300E93E",
"fX c #A24EFFFFFFFF",
"gX c #B4BAFFFFFFFF",
"hX c #C7F1C79EC4D7",
"jX c #CD96CC9CCCB6",
"kX c #D6E5C9F9C60E",
"lX c #D8AACEDDD937",
"zX c #D34BD3A6D3A5",
"xX c #DC74D5F5D652",
"cX c #DCD0DCA4DCB8",
"vX c #E69ECED7C9DC",
"bX c #F2D5CB5DCB1E",
"nX c #E659D388CC32",
"mX c #E491D48ED4AA",
"MX c #EB8BD626D657",
"NX c #E35EDDA4DDB5",
"BX c #F198D561D5A9",
"VX c #E552E438E43B",
"CX c #EC1FE1D9E1D8",
"ZX c #EDFAEE01EE01",
"AX c #F334F334F334",
"SX c #FDD9FDD9FDD9",
/* pixels */
"/./.W.W./.!./././.!.W.W.T.G.Q.E.D.N.j.z m ( v z m n ^ ( T X.Y Y ",
"W.W.W.W.!./././.!.^.R.Q.Q.G.G.S.S.Z.m.v O.o.O.P M : * # > Y E X.",
"(.W.!./.!./._._.W./.Q.F.S.R.E.A.A.j.M.*. .) E m X $ O     X x  .",
"W./.wXeX_././.!._._.E.N.m.Z.A.N.m.&.&.! E / P % o & O % .   % T ",
"!.(.wX/.(././.W.).).C.~ r.B.c.&.%.@.@.' ] ! ) = C G H d # X X l ",
"eXwX/.(./.!.^.Q.qX|.&X&.l.iX=X#.%.R X.o.] ) ' = s C - C * X . , ",
"eX~.!./.E.R.R.C.J.%XXX;XXX.X7.:.=.-.} ]  .@.` f s F & d d # . V ",
"wX(./.!.T.C.B.e.y.,.aXgXsX&X:.:.$.-.%.;.} @.o.Q G G F C F l = J ",
"(.(.W.Q.F.M.r.t.&.=XXXiXpXXX8.#.$.#.| $.@.@.$._ C C C F A g ! #.",
"(.(.W.Y.N.B.t.t.t.k.@X:.5.k.;.;.%.%.) o.@.%. .` D C g i 0 8 h j ",
"wXE.U.V.J.,.*.&.:.%.=.#.' ....} } @.;.....] K h 9 7 7 r t t e 8 ",
"(.Y.y.t.&.*.r.%.-.:.%.@.@. ._ .... .-.-.] OXN h i.p.s.'.p.p.y 6 ",
"(.Y.H.:.:.y.>.>.u.0.9.| $.#.....7.2.k.[.+X=X}.f.{. XsXoX{.d.p.q ",
"/.Q.I.L.v.9.w.w.0.0.P.K.b.>.%...2.<.3.[.[.].}. XoXsXfXfXXXn.n.h ",
"/.3XP.K.l.%.6.;...q.#X:.z.8.z.5.@.%.@.O.+Xk.h.].{.{.sXsXoXg.p @ ",
"wXI.y.u.:Xz.v.v.v.:X:Xl.5.;.0.u.7. .=.o.P F Q N u i.dXgX{.f.B @ ",
"M.B.8.L.>X1X,X<X,X2X1X>X$Xv.>.q.c.8.;.@.o.T P k s.r =XpXb w + # ",
"y.H.P.,X1X8X6X4X4XrX5X1X>Xc.q.3.@.x.5.$.' o.+.e a.w `.k 8 0 + a ",
"H.L.>X4X8XyXuXkXvXnXbX9X5X:Xl.q.-.:.b.6.$./ 3.b 6 6 f.^ l 8 i f ",
",X,X2XrXvXMXnXvXnXNXxXkX6X5X,X@X3.=.x.8.] ] _ g p p a  .J v Z - ",
">X8XuXvXxXVXVXNXCXVXxXzXjXtX5X<X:X7.5.@X{ ] ) H S - f @.V R A C ",
",X8XnXmXVXVXZXZXZXZXVXVXzXhX7X1XL.#Xv.<X9.I E L Z ; Z ;.E R Q A ",
"8XkXnXVXZXZXZXAXAXZXZXVXcXzX9X4X4X<X$Xb.w.Y ~ L ; ; U P P K K X.",
"tXkXMXVXZXAXAXSXSXSXAXZXVXcXzXhX2X2Xl.;.-.5 5 1 V ' ] [ ( c > ] ",
"tXxXVXZXZXSXSXSXSXSXAXAXZXVXjX;X4X<Xq._ ( 3 x 1 ^ ] ] ) I x : V ",
"tXzXVXZXZXSXSXSXSXSXSXAXZXcXhXtX<X,X{ x M 3 x 1 _ o.' X.^ P x > ",
"9XjXNXZXZXSXSXSXSXSXAXZXZXVXlX9X5X>X3.' [ z 2 x I ] I 4 1 1 , P ",
"9XjXxXVXAXAXSXSXSXSXAXZXVXmXmXjX7X<Xz.k.+.c 4 P ] U 4 : > , ^ I ",
"uXnXcXNXZXZXAXAXSXAXZXZXNXjXkXhX,Xb.3.k.1.x ( < Y T 1 4 _ U _ V ",
"7XrXkXmXNXZXZXZXZXZXZXVXcXzX-X#XK.8.+.4.1.5 x 2 1 5 2 P R ..R } ",
"$X4XrXkXcXcXVXZXVXCXNXMXmXjX*Xq.1.[ ] 5.{ P 2 x c 2 4 _ @.%.} | ",
"P.1X;XhXjXjXzXVXmXMXMXvX0X-X*XOX<.n ^ 4.) J z 5 2 4 R }  .W U U "
};
