/* XPM */
static char *amule[] = {
/* columns rows colors chars-per-pixel */
"32 32 170 2 ",
"   c #020202020202",
".  c gray8",
"X  c #1D1D1E1E1E1E",
"o  c #1D1D20202020",
"O  c #202025252626",
"+  c #2B2B30303232",
"@  c #323234343535",
"#  c #35353B3B3C3C",
"$  c #39393D3D3D3D",
"%  c #47472E2E3030",
"&  c #41413F3F3232",
"*  c #575735353636",
"=  c #3E3E40403F3F",
"-  c #606048481B1B",
";  c #74744F4F1313",
":  c #7B7B52521010",
">  c #575749492B2B",
",  c #4D4D46463535",
"<  c #434341413B3B",
"1  c #4D4D47473838",
"2  c #4E4E49493C3C",
"3  c #7E7E5C5C2424",
"4  c #747460603F3F",
"5  c #3A3A3F3F4040",
"6  c #3D3D42424343",
"7  c #45454A4A4B4B",
"8  c #4B4B4D4D4C4C",
"9  c #515152525151",
"0  c #535359595959",
"q  c #5B5B5D5D5C5C",
"w  c #6D6D60604646",
"e  c #6E6E63634E4E",
"r  c #7A7A68684646",
"t  c #75756D6D5D5D",
"y  c #7E7E70705959",
"u  c #616162626060",
"i  c #676769696666",
"p  c #6A6A6D6D6C6C",
"a  c #73736E6E6161",
"s  c #757574746E6E",
"d  c #7B7B75756868",
"f  c #6E6E72727171",
"g  c #79797B7B7777",
"h  c #7A7A7E7E7D7D",
"j  c #939300000000",
"k  c #9E9E01010101",
"l  c #A7A707070707",
"z  c #BEBE08080808",
"x  c #ADAD14141414",
"c  c #B0B018181818",
"v  c #8C8C27272828",
"b  c #BCBC30303030",
"n  c #C1C130303030",
"m  c #D6D631313131",
"M  c #8F8F59590202",
"N  c #8E8E59590D0D",
"B  c #92925B5B0404",
"V  c #92925D5D0C0C",
"C  c #92925E5E1010",
"Z  c #9F9F64640606",
"A  c #969661610D0D",
"S  c #9D9D64640C0C",
"D  c #979763631313",
"F  c #999964641414",
"G  c #9D9D69691616",
"H  c #939368681C1C",
"J  c #9D9D6A6A1818",
"K  c #A1A165650808",
"L  c #B2B273730D0D",
"P  c #A5A56E6E1616",
"I  c #A1A16C6C1919",
"U  c #A6A673731F1F",
"Y  c #ABAB75751B1B",
"T  c #B3B376761414",
"R  c #BBBB7B7B1414",
"E  c #B4B479791A1A",
"W  c #828260602525",
"Q  c #828267673636",
"!  c #A1A16F6F2020",
"~  c #A5A574742626",
"^  c #A3A376762E2E",
"/  c #ACAC7A7A2C2C",
"(  c #B3B37E7E2727",
")  c #B3B37F7F2B2B",
"_  c #A5A57B7B3636",
"`  c #C2C27E7E1212",
"'  c #8B8B71714646",
"]  c #939376764444",
"[  c #91917C7C5555",
"{  c #8A8A7B7B6262",
"}  c #DEDE5C5C5C5C",
"|  c #E0E06F6F6F6F",
" . c #7F7F83837F7F",
".. c #BEBE85852727",
"X. c #B6B682822D2D",
"o. c #BFBF85852A2A",
"O. c #ADAD81813B3B",
"+. c #B0B081813737",
"@. c #C3C380801616",
"#. c #C3C382821B1B",
"$. c #C8C884841919",
"%. c #CDCD89891E1E",
"&. c #C5C586862323",
"*. c #C7C789892727",
"=. c #CACA8D8D2D2D",
"-. c #D2D28F8F2424",
";. c #D7D794942A2A",
":. c #DBDB98982E2E",
">. c #C2C28E8E3B3B",
",. c #C9C990903535",
"<. c #CCCC94943C3C",
"1. c #D2D294943131",
"2. c #DEDE9C9C3232",
"3. c #D3D39A9A3F3F",
"4. c #E2E2A0A03737",
"5. c #BEBE8E8E4242",
"6. c #8E8E83836E6E",
"7. c #8D8D85857575",
"8. c #C3C392924444",
"9. c #C9C995954141",
"0. c #C2C296964E4E",
"q. c #C9C998984C4C",
"w. c #C2C297975151",
"e. c #C9C99C9C5555",
"r. c #D5D5A0A04E4E",
"t. c #DFDFA6A64C4C",
"y. c #DCDCA7A75252",
"u. c #D3D3A5A55C5C",
"i. c #DCDCABAB5B5B",
"p. c #CDCDA3A36363",
"a. c #DADAABAB6161",
"s. c #D6D6AEAE6C6C",
"d. c #E5E5B5B56767",
"f. c #E2E2B5B56D6D",
"g. c #E4E4BBBB7A7A",
"h. c #838384848383",
"j. c #868689898888",
"k. c #8A8A8C8C8989",
"l. c #8C8C90908C8C",
"z. c #989893938686",
"x. c #939394949292",
"c. c #9B9B9D9D9C9C",
"v. c #A0A0A3A39D9D",
"b. c #A3A3A6A6A3A3",
"n. c #A5A5A9A9A5A5",
"m. c #ABABADADABAB",
"M. c #B5B5B6B6B6B6",
"N. c #BABABDBDB6B6",
"B. c #B5B5B7B7B8B8",
"V. c #BDBDBFBFBBBB",
"C. c #DEDEBCBC8585",
"Z. c #E1E1BEBE8686",
"A. c #BEBEC0C0BABA",
"S. c #C0C0C2C2BDBD",
"D. c #C4C4C5C5C2C2",
"F. c #C6C6C9C9C3C3",
"G. c #C9C9CBCBC6C6",
"H. c #CCCCCECEC9C9",
"J. c #CFCFD0D0CDCD",
"K. c #D1D1D3D3CECE",
"L. c #D4D4D6D6D2D2",
"P. c #D7D7D9D9D5D5",
"I. c #D8D8D8D8D7D7",
"U. c #DCDCDDDDDBDB",
"Y. c #E3E3E4E4E2E2",
"T. c #E8E8E9E9E7E7",
"R. c #EEEEEEEEECEC",
"E. c #EFEFF0F0EEEE",
"W. c #F8F8F8F8F8F8",
"Q. c None",
/* pixels */
"Q.Q.Q.Q.B Q.Q.Q.Q.Q.Q.Q.Q.Q.Q.Q.Q.Q.Q.Q.Q.Q.Q.Q.Q.Q.Q.Q.Q.Q.Q.Q.",
"Q.Q.Q.Q.B ^ B Q.Q.Q.Q.Q.Q.Q.Q.Q.Q.Q.Q.Q.Q.Q.Q.Q.Q.Q.Q.Q.Q.Q.Q.Q.",
"Q.Q.Q.Q.Q.O.e.B Q.Q.Q.Q.Q.Q.Q.Q.Q.Q.Q.Q.Q.Q.Q.Q.Q.Q.Q.Q.Q.Q.Q.Q.",
"Q.Q.Q.Q.Q.A Z.e.B Q.Q.Q.Q.Q.Q.Q.Q.Q.Q.Q.Q.Q.Q.Q.Q.Q.Q.Q.Q.Q.Q.Q.",
"Q.Q.Q.Q.Q.Q.0.g.5.B Q.Q.Q.Q.Q.Q.Q.Q.Q.Q.Q.Q.Q.Q.Q.Q.Q.Q.Q.Q.Q.Q.",
"Q.Q.Q.Q.Q.Q.F a.r.) B Q.C C Q.N Q.Q.Q.Q.Q.Q.Q.Q.Q.Q.Q.Q.Q.Q.Q.Q.",
"Q.Q.Q.Q.Q.Q.B 8.*.<.P B D C V F V B J P B B Q.Q.Q.Q.Q.Q.Q.Q.Q.Q.",
"Q.Q.Q.Q.Q.Q.Q.J ,.` *.B F G A V ~ f.d.i.i.9.P B Q.Q.Q.Q.Q.Q.Q.Q.",
"Q.Q.Q.Q.Q.Q.Q.B ( #.@.Z D O.p.w.+.A X.3.=.&.=...S B Q.Q.Q.Q.Q.Q.",
"Q.Q.Q.Q.Q.Q.Q.Q.V #.L ! Z.f.y.y.i.s./ V U X.o.*.&.T B B Q.Q.Q.Q.",
"Q.Q.Q.Q.Q.Q.Q.Q.B K J C.t.4.2.-.$.#.u.X.B B B B B B B M Q.Q.Q.Q.",
"Q.Q.Q.Q.Q.Q.Q.Q.N B 0.i.:.2.;.-.@.R $.q.B M Q.Q.Q.Q.Q.Q.Q.Q.Q.Q.",
"Q.Q.Q.Q.Q.Q.Q.Q.N B s.1.-.-.%.` ` R Q 8.S Q.Q.Q.Q.Q.Q.Q.Q.Q.Q.Q.",
"Q.Q.Q.Q.Q.Q.Q.Q.Q.B s.#.' [ E ` / z.I.7.H M Q.Q.Q.Q.Q.Q.Q.Q.Q.Q.",
"Q.Q.Q.Q.Q.Q.Q.Q.Q.B u.r D.T.7.R [ R.R.I.4 B Q.Q.Q.Q.Q.Q.Q.Q.Q.Q.",
"Q.Q.Q.Q.Q.Q.Q.Q.Q.B q.a R.R.I.] 6.F.M.R.t B Q.Q.Q.Q.Q.Q.Q.Q.Q.Q.",
"Q.Q.Q.Q.Q.Q.Q.Q.Q.B 8.d R.c.i { y b.9 S.e V Q.Q.Q.Q.Q.Q.Q.Q.Q.Q.",
"Q.Q.Q.Q.Q.Q.Q.Q.Q.B >.w V.7.@ 9 Q .   h.3 T B Q.Q.Q.Q.Q.Q.Q.Q.Q.",
"Q.Q.Q.Q.Q.Q.Q.Q.Q.B >.I s X . 1 1 $ 5 5 1 W Z B Q.Q.Q.Q.Q.Q.Q.Q.",
"Q.Q.Q.Q.Q.Q.Q.Q.Q.B >.Y , # h B.U.Y.Y.U.m.# 2 : Q.Q.Q.Q.Q.Q.Q.Q.",
"Q.Q.Q.Q.Q.Q.Q.Q.Q.B _ # c.W.W.E.Y.U.P.U.N.5 u 8 > Q.Q.Q.Q.Q.Q.Q.",
"Q.Q.Q.Q.Q.Q.Q.Q.Q.; 7 7 B.W.Y.U.P.L.G.P.h.# q I.9 - Q.Q.Q.Q.Q.Q.",
"Q.Q.Q.Q.Q.Q.Q.Q.Q.$ n.$ $ U.T.L.H.G.S.L.7 6 x.Y.A.$ Q.Q.Q.Q.Q.Q.",
"Q.Q.Q.Q.Q.Q.Q.Q.& b.I.i 6 7 Y.L.F.V.V.F.# g L.L.H.# Q.Q.Q.Q.Q.Q.",
"Q.Q.Q.Q.Q.Q.Q.Q.< V.U.J.k.7 f U.A.N.A.N.6 G.G.K.m.5 Q.Q.Q.Q.Q.Q.",
"Q.Q.Q.Q.Q.Q.Q.Q.$ n.U.D.F.n.0 L.N.N.N.F.7 b.F.F.6 Q.Q.Q.Q.Q.Q.Q.",
"Q.Q.Q.Q.Q.Q.Q.Q.Q.$ J.K.A.l.p J.N.N.N.A.h.p m.8 % Q.Q.Q.Q.Q.Q.Q.",
"Q.Q.Q.Q.Q.Q.Q.Q.Q.+ 6 c.L.j.j.F.A.A.A.A.v.5 $ v l Q.Q.Q.Q.Q.Q.Q.",
"Q.Q.Q.Q.Q.Q.Q.Q.Q.Q.Q.# 6 7 f n.v.b. .= $ * z m b Q.Q.Q.Q.Q.Q.Q.",
"Q.Q.Q.Q.Q.Q.Q.Q.Q.Q.Q.Q.Q.O + # # # + o k n } | c Q.Q.Q.Q.Q.Q.Q.",
"Q.Q.Q.Q.Q.Q.Q.Q.Q.Q.Q.Q.Q.Q.Q.Q.Q.Q.Q.Q.Q.k x l j Q.Q.Q.Q.Q.Q.Q.",
"Q.Q.Q.Q.Q.Q.Q.Q.Q.Q.Q.Q.Q.Q.Q.Q.Q.Q.Q.Q.Q.Q.Q.Q.Q.Q.Q.Q.Q.Q.Q.Q."
};
