/* XPM */
static char *aqemu_32x32[] = {
/* columns rows colors chars-per-pixel */
"32 32 143 2 ",
"   c #046B0CAA1874",
".  c #06F91483283A",
"X  c #081416F42D39",
"o  c #09451A623415",
"O  c #0A501DD73AA4",
"+  c #0C15224F436C",
"@  c #0D8A260E4AAA",
"#  c #0E7728204E82",
"$  c #0F2629D851CA",
"%  c #10082C48568D",
"&  c #10D12E7C5AD4",
"*  c #1172302F5E48",
"=  c #12AE32D66327",
"-  c #147D38316DCA",
";  c #18933B296DD9",
":  c #15883AEF7353",
">  c #17233EA579F2",
",  c #175E40657DE5",
"<  c #19FB418C7CC8",
"1  c #198844B58559",
"2  c #19D3469889A2",
"3  c #1B47494A8E25",
"4  c #1BC84C06947D",
"5  c #1CD04F169B3C",
"6  c #1D5D50B59E3A",
"7  c #24D853A29589",
"8  c #2A1B5690917B",
"9  c #24CA560A9D16",
"0  c #2C075C7A9EE5",
"q  c #357C61999732",
"w  c #3E056B369F7A",
"e  c #1E785378A318",
"r  c #1F535675A98D",
"t  c #2C4F5E78A352",
"y  c #1FDA5736AA8B",
"u  c #20EA5932ADBB",
"i  c #2B0B5F79AAE4",
"p  c #22B15CC3B3DD",
"a  c #23445F97BA61",
"s  c #2A936014AC9E",
"d  c #3F276EFBAA0E",
"f  c #2A356203B499",
"g  c #248D61C0BDA3",
"h  c #29F7648EBB9A",
"j  c #371C6C4EB378",
"k  c #329F6BA0BBDF",
"l  c #3EB9726BB3D4",
"z  c #3C7172CDBCEA",
"x  c #423B71DAAA88",
"c  c #3FC26F82B253",
"v  c #42EF75A5B568",
"b  c #4601795CB4FF",
"n  c #4C817CEDB485",
"m  c #4AC77D03BD53",
"M  c #24E264A8C4C3",
"N  c #27BF6529C053",
"B  c #2BBE6923C3C6",
"V  c #25E06700C93B",
"C  c #26E66914CCBC",
"Z  c #29286B21CE14",
"A  c #31886DD6C63D",
"S  c #31346FC3CD9C",
"D  c #3D477423C499",
"F  c #34F37150CB12",
"G  c #3BB97522CB41",
"H  c #26FA6AA6D0A8",
"J  c #2A446DCFD291",
"K  c #2E8971DCD63E",
"L  c #32E673A0D471",
"P  c #393D773AD400",
"I  c #3AF678B2D51A",
"U  c #339E75D4D8AE",
"Y  c #3C0E7B3CD9F3",
"T  c #412576D5C3A2",
"R  c #43F978F9C55F",
"E  c #4C627E22C29C",
"W  c #40207758C878",
"Q  c #440B7B87CE3F",
"!  c #48897D40CB34",
"~  c #42807CC6D496",
"^  c #40FE7E59DAAA",
"/  c #4CF781FFBF58",
"(  c #53218093B711",
")  c #5A0B85AEB7ED",
"_  c #544384B6BEBE",
"`  c #5EDE8911BCBF",
"'  c #62E58BEEB6C1",
"]  c #61BB8F9ABEF7",
"[  c #69B091D2BA86",
"{  c #4E37809BC3B0",
"}  c #545F84B0C2F5",
"|  c #558E8A1AC163",
" . c #5C8A8BB7C47B",
".. c #53B68489CD71",
"X. c #5C688965CA62",
"o. c #5F359231C91C",
"O. c #488F8198D79D",
"+. c #459F81B6DC5B",
"@. c #4B5B84D6DB81",
"#. c #4F55882FDD34",
"$. c #550488E4D69A",
"%. c #5B6A8BA3D27B",
"&. c #50D98935DDBA",
"*. c #5B208DE5DA95",
"=. c #5D1E9126DF2C",
"-. c #63688F74C600",
";. c #60A28B86C8B6",
":. c #620B9333C6D3",
">. c #6A8D952FC4D3",
",. c #63CF9452CA59",
"<. c #68BD96ADCA25",
"1. c #671D9B04CCC5",
"2. c #6C419BE8CC9C",
"3. c #708D9A4BC684",
"4. c #72649ECBCC31",
"5. c #60898F71D651",
"6. c #62E8909BD53C",
"7. c #63DB92B5D958",
"8. c #74C0A200CE8B",
"9. c #78A2A4C0CF32",
"0. c #6EFDA37FD31A",
"q. c #7354A422D256",
"w. c #797CA66DD19E",
"e. c #74A2A880D6E2",
"r. c #751FAC2CDB02",
"t. c #7C42AE56DA0B",
"y. c #7CDAB166DDF8",
"u. c #641F9615E15C",
"i. c #68219934E344",
"p. c #818AACFBD57F",
"a. c #8245B00ED9A4",
"s. c #8548B07AD7F7",
"d. c #8432B37BDC58",
"f. c #899FB6DCDE15",
"g. c #8C4DB925DFA3",
"h. c #8438B778E1D2",
"j. c #8628B930E367",
"k. c #8D2DBC3FE376",
"l. c #91D1BE2DE368",
"z. c #9346C10AE726",
"x. c #982DC43DE7BA",
"c. c #9692C3B5E927",
"v. c None",
/* pixels */
"v.v.v.v.v.v.v.v.v.v.v.v.v.v.O + + v.v.v.v.v.v.v.v.v.v.v.v.v.v.v.",
"v.v.v.v.v.v.v.v.v.v.v.@ = < 2 4 1 < = # O v.v.v.v.v.v.v.v.v.v.v.",
"v.v.v.v.v.v.v.v.O # > i W ~ +.^ @.~ W f < # O v.v.v.v.v.v.v.v.v.",
"v.v.v.v.v.v.v.+ > a Y ^ ~ ~ ! ! ~ ~ ~ ^ P h > + v.v.v.v.v.v.v.v.",
"v.v.v.v.v.o & e J L F R m ,.<.4.<.X.R D P L J e & X v.v.v.v.v.v.",
"v.v.v.v.o * p H V T :.s.l.l.l.l.l.l.k.4.m A J J a = X v.v.v.v.v.",
"v.v.v.v.$ r M N m a.l.p.<.} E E m X.q.g.k.,.k M V u & . v.v.v.v.",
"v.v.v.+ 4 g f } k.g.) c Q ~ @.O.@.! R m 8.k.q.k M g 4 + v.v.v.v.",
"v.v.O = r p v f.c.z.8. .E ! O.#.#.@.+.~ z :.f.1.f a u - o v.v.v.",
"v.v.+ 4 r s 0.z.z.z.z.z.a.>.E ! O.O.+.+.I z 2.j.m u u 4 @ v.v.v.",
"v.v.= e 6 ( g.] s.f.' 8.l.x.s.2.} R ~ ^ Y L z y.q.i r e = o v.v.",
"v.+ > e 9 1.y.s  .l.>.x _ 9.l.x.f.2.} T G L B o.d.l r e , + v.v.",
"v.% 2 5 0 t. .g z d.d.m G R _ 8.k.l.k.w.| T h l d._ e 9 2 # v.v.",
"v.* 2 4 x y.m M B :.z.2.D +.~ D n g.z.l.k.d.,.n t.1.9 6 3 & v.v.",
"+ = 2 4 n y.l V Z z d.f.{ ~ Y T 1.k.q.;.w.j.k.h.j.e.9 5 2 = O v.",
"# = 1 3 n y.l C K A :.z.2.D R 2.g.2.R F D { 1.y.j.0.9 4 2 = . v.",
"@ * , 2 d r.b V K L m d.a.n 2.k.8.R ~ ^ Y L B v t.1.7 3 > * . v.",
"v.* - , 8 e.| g K P W 2.l.d.l.8.E +.@.+.^ I Z v d._ 4 2 : * o v.",
"v.* : 1 4 o.e.k K ^ ~ E j.l.8.E #.#.#.O.~ P A o.d.d 4 2 > & v.v.",
"v.& : 1 3 ( r.{ S ^ &.! w.l.3...=.=.$.} ,.m b y.0.t 5 2 : # v.v.",
"v.% - 1 4 0 1.e.m Q &.$.-.l.s.;.u.u.%.4.k.w.q.h.m e 5 1 - O v.v.",
"v.v.= , 4 6 v r.2.m ! *. .a.l.>.7.i.5.` d.l.k.0.s r 4 1 &   v.v.",
"v.v.$ : 2 e y / y.e.-.X.} 3.x.p.;.6.X.' p.l.k.2.t e 3 > O v.v.v.",
"v.v.v.= < 4 y p E e.h.w.>.[ l.l.>.>.w.k.k.q.t.h.o.7 < &   v.v.v.",
"v.v.v.v.- 1 6 p g z :.t.k.l.x.c.l.l.k.w.| k j 2.r.q = . v.v.v.v.",
"v.v.v.v.# : 2 e a M B R  .1.4.8.4.<.} T S V a t w ; o v.v.v.v.v.",
"v.v.v.v.v.# : 4 r g Z K P Q Q ! ! ~ I U Z M y 4 - O v.v.v.v.v.v.",
"v.v.v.v.v.v.$ : 4 y g Z L Y Y ^ Y Y L Z g u 5 - X v.v.v.v.v.v.v.",
"v.v.v.v.v.v.v.v.- 3 r g V J K L K J Z g y 1 $   v.v.v.v.v.v.v.v.",
"v.v.v.v.v.v.v.v.v.v.- 2 e a M V M a e 1 % . v.v.v.v.v.v.v.v.v.v.",
"v.v.v.v.v.v.v.v.v.v.v.v.v.v.> % # & o v.v.v.v.v.v.v.v.v.v.v.v.v.",
"v.v.v.v.v.v.v.v.v.v.v.v.v.v.v.v.v.v.v.v.v.v.v.v.v.v.v.v.v.v.v.v."
};
