/* XPM */
static char *asylum[] = {
/* columns rows colors chars-per-pixel */
"32 32 4 1 ",
"  c #555588880000",
". c #0000CCCC0000",
"X c gray100",
"o c None",
/* pixels */
"ooooooooo..ooooo..oooooooooooooo",
"o.oooooo.  .ooo.  .oooo....ooooo",
"o.oooooo.  .ooo.  .oooo....ooooo",
". .ooooo.   ..oo.  .oo.    .oooo",
". .ooooo.   ..oo.  .oo.    .oooo",
"o. ........   .oo. .oo. ...ooooo",
"o. ........   .oo. .oo. ...ooooo",
"o.       ....  ..  .... .ooooooo",
"o.       ....  ..  .... .ooooooo",
"oo......   ..  .        .ooooooo",
"oo......   ..  .        .ooooooo",
"ooo..oooo.  ..  .X.X..  .ooooooo",
"ooo..oooo.  ..  .X.X..  .ooooooo",
"oo.  ...oo.   X.X.X   .....oo..o",
"oo.  ...oo.   X.X.X   .....oo..o",
"o.      .. ..X.X.X ..      ..  .",
"o.      .. ..X.X.X ..      ..  .",
".  ....      .X.    ......    .o",
".  ....      .X.    ......    .o",
"o..oooo..  ..    ..     .o....oo",
"o..oooo..  ..    ..     .o....oo",
"ooooooooo. .o..   .o.   .ooooooo",
"ooooooooo. .o..   .o.   .ooooooo",
"oooooooo.  .ooo..  .. ..oooooooo",
"oooooooo.  .ooo..  .. ..oooooooo",
"ooooooo.  .o....   ..   ......oo",
"ooooooo.  .o....   ..   ......oo",
"oooooo.  .o.     ..oo..       .o",
"oooooo.  .o.     ..oo..       .o",
"ooooooo..oo. ....oooooo.......oo",
"ooooooo..oo. ....oooooo.......oo",
"oooooooooooo.ooooooooooooooooooo"
};
