/* XPM */
static char *audio_x_generic[] = {
/* columns rows colors chars-per-pixel */
"32 32 83 1 ",
"  c #9BA8AF1F24D4",
". c #9F11B1ED2BE0",
"X c #A0E2B36B2FA7",
"o c #A26FB4AB3309",
"O c #A624B7C83A44",
"+ c #A76DB8C53D6F",
"@ c #A9E7BAC742BE",
"# c #ADAFBDFA49FD",
"$ c #9D9DA7DF64AB",
"% c #9A41A2F96C1F",
"& c #9F2CA73974EF",
"* c #9FAFA70D79F8",
"= c #A14FAA09723A",
"- c #A401AB867CBC",
"; c #AAC3B3DF77EB",
": c #ABCCB3D87FFC",
"> c #B091C0664FA3",
", c #B1C9C15C5266",
"< c #B611C4BD5C43",
"1 c #B7B4C602602D",
"2 c #BA63C83965B6",
"3 c #BA5DC85364D8",
"4 c #BD31CA4D6D16",
"5 c #BEE3CB8471C8",
"6 c #C182CDBD76BD",
"7 c #C293CE947939",
"8 c #C53BD0B57F19",
"9 c #A69EADA98242",
"0 c #ABAFB30284CD",
"q c #AD82B4318AB9",
"w c #B450BB848D26",
"e c #B187B7D290DC",
"r c #B5F9BC6F939C",
"t c #B8D5BF1A9767",
"y c #BEA4C6179480",
"u c #BCA2C2C69B96",
"i c #BF3FC4C0A235",
"p c #C520D00C82C9",
"a c #C76CD27983E6",
"s c #C8E8D38D87F8",
"d c #CA78D4D08B55",
"f c #C2D2CA719700",
"g c #C1B8C83A9D91",
"h c #C3A9CA799D37",
"j c #C805D146908E",
"k c #CB7FD4629614",
"l c #CD61D5A19C06",
"z c #D401DCBD9E90",
"x c #C192C74FA2A2",
"c c #C557CB32A522",
"v c #C2BCC7A1A95A",
"b c #C63FCB57AB0F",
"n c #C935CE2CAE88",
"m c #CDBBD4C4A487",
"M c #CDE0D3EEAB40",
"N c #D17BD954A255",
"B c #D0E0D756AB26",
"V c #D33AD9DBAC14",
"C c #CAF2CF69B36F",
"Z c #CCBDD151B43B",
"A c #D21FD7D1B16C",
"S c #D599DB05B648",
"D c #D201D5F0BD31",
"F c #D4ACD957BA9A",
"G c #DA19DF4EBBAB",
"H c #DBD4E09AC01E",
"J c #D68DDA29C35F",
"K c #D9C8DD86C54C",
"L c #DB7BDEA8CAA3",
"P c #DD7FE21FC293",
"I c #DFCCE292D11F",
"U c #E385E5DBD74E",
"Y c #E60EE896D837",
"T c #E7B2E9C5DCBE",
"R c #E8D1EAA8DF52",
"E c #EB6AED25E251",
"W c #EF64F0D4E7C5",
"Q c #F03CF1A0E8D5",
"! c #F3DBF4EFEE1B",
"~ c #F75AF821F337",
"^ c #F816F8DFF3CA",
"/ c #F9FDFA8BF6FC",
"( c #FFE6FFE9FFD8",
/* pixels */
"((((((((((((((((((((((((((((((((",
"((((((((((((((((((((((((((((((((",
"((((((((((((((((((((((((((((((((",
"((((((((((((((((((((((((((((((((",
"(((((((((((((((((((((((((((^/(((",
"((((((((((((((((((^QERLZt9--x(((",
"((((((((((((!JCvue0==9qrfmVFw(((",
"(((((((((((/w$;rucmkdp753<1At(((",
"(((((((((((~wma2>#,<56afhbGPt(((",
"(((((((((((~wl5pzmBht0rcZ0yPu(((",
"(((((((((((~wVGwq9qCURQ~(nfGu(((",
"(((((((((((~wVbu!((((((((cyGu(((",
"(((((((((((~wVcD(((((((((cfGu(((",
"(((((((((((~wVcD(((((((((bySi(((",
"(((((((((((~wVcD(((((((((bySx(((",
"(((((((((((~wVcD(((((((((bySx(((",
"(((((((((((~wVxJ(((((((((bfAx(((",
"(((((((((((~wVxJ(((((((((byVn(((",
"(((((((((((~wNgJ(((((((((byBb(((",
"(((((((((((^wBgK((((EULJLrymn(((",
"(((((((((//~wNgK((Uq=9etrqBMn(((",
"((((((Yn-***%VgL(L&uNa5457NcC(((",
"((((Ee&rlBmmVVgL/9M4o    +z&I(((",
"(((E&yk4#oXo@kwY!-V#OO@>pB9r/(((",
"(((qg6.   .@scr/(t0chmcxr9D/((((",
"(((9fa,#<5lmqeW((/JxutuxJ^((((((",
"(((U-euuuw00J/((((((//((((((((((",
"((((!JbnbCE(((((((((((((((((((((",
"((((((((((((((((((((((((((((((((",
"((((((((((((((((((((((((((((((((",
"((((((((((((((((((((((((((((((((",
"(((((((((((((((((((((((((((((((("
};
