/* XPM */
static char *babiloo[] = {
/* columns rows colors chars-per-pixel */
"32 32 94 2 ",
"   c #151515151717",
".  c #151515961898",
"X  c #292928282C2C",
"o  c #2EAF2EAF3434",
"O  c #333332B33535",
"+  c #383838383E3E",
"@  c #3A903A9041EC",
"#  c #424241EC4646",
"$  c #42C342C34989",
"%  c #484848484F4F",
"&  c #4C7F4CCC5487",
"*  c #52D351D252D3",
"=  c #53DD53F15B83",
"-  c #575758585F5F",
";  c #59DA5A5A5DDE",
":  c #5717571760A0",
">  c #575758D96161",
",  c #5C015C1864F2",
"<  c #5E5E5EFF6888",
"1  c #5F5F60606565",
"2  c #5EDF60B66A14",
"3  c #63E4636364E5",
"4  c #6D6D6B6B6464",
"5  c #62FC64266D4E",
"6  c #676769696F6F",
"7  c #6A6A6A6A6D6D",
"8  c #6545670770F1",
"9  c #66C669897414",
"0  c #6A7A6C3C7515",
"q  c #6B6B6E357907",
"w  c #6E5771E67CAB",
"e  c #737373737777",
"r  c #7E7E7C7C7676",
"t  c #732374C47D3D",
"y  c #79FA79FA7F7F",
"u  c #828280807474",
"i  c #818180807F7F",
"p  c #72F276768181",
"a  c #75CB7923832D",
"s  c #7B697C4583BA",
"d  c #7B7B7E7E8888",
"f  c #7E7E81818A8A",
"g  c #831C828283EA",
"h  c #898988888585",
"j  c #83A384C48BCB",
"k  c #868688888F8F",
"l  c #898989898F0F",
"z  c #999995958686",
"x  c #929291918E8E",
"c  c #878789899292",
"v  c #8BB08CFA92B7",
"b  c #8F8F91919696",
"n  c #959594FB94C7",
"m  c #9A9A99999696",
"M  c #94EA953F9AF0",
"N  c #969698989D9D",
"B  c #999998989999",
"V  c #A0A09D9D9191",
"C  c #ACACA8A89494",
"Z  c #A2A2A2229E1E",
"A  c #AF2FABAB9B9B",
"S  c #B3B3B0B09F9F",
"D  c #9D9D9D9DA222",
"F  c #A6FCA5A5A34D",
"G  c #A8A8A7A7A3A3",
"H  c #ACACAA2AA121",
"J  c #A6A6A6A6AAAA",
"K  c #AD2DACACACAC",
"L  c #B9B9B6B6A5A5",
"P  c #B4B4B3B3ABAB",
"I  c #ACACADADB1B1",
"U  c #B44DB41AB5B5",
"Y  c #BBBBB9B9B1B1",
"T  c #B4B4B4B4B8B8",
"R  c #B939BA3ABC3C",
"E  c #C141BF3FB636",
"W  c #C1C1BFBFB8B8",
"Q  c #C5C5C3C3BDBD",
"!  c #C9C9C747B8B8",
"~  c #CD77CACABC11",
"^  c #D0D0CDCDC5C5",
"/  c #DADAD8D8D3D3",
"(  c #E18BDEDED227",
")  c #E666E423DA19",
"_  c #E969E7E7DE5E",
"`  c #ECECEB2AE1E1",
"'  c #F1F1EFEFE6E6",
"]  c #F49EF1F1E791",
"[  c #F6A0F49EEAFF",
"{  c #F9D4F7AEED7F",
"}  c #FB7BF979EF8F",
"|  c #FEF5FD4CF389",
" . c #FFFFFFFFFC7C",
".. c None",
/* pixels */
"................................................................",
"................................................................",
"................................................................",
"................................................................",
"................................................................",
"............................; p 8 2 8 & ........................",
"..........................1 a d w q f w 0 2 > > = ..............",
"........................w p w c q I R R K 8 8 8 5 5 < - & & ....",
"......................e w f p d p j M v 0 l j 0 t < , , , $ ....",
"..................0 q w q p 9 9 9 p s 0 f < , p , a 0 , & 4 ....",
"................9 t w w 9 T N a f 8 5 5 < 5 s < e < , = # C ....",
"..............1 a w q 9 U s 8 8 b l 5 < < , , , > , < + z A ....",
"............6 w q q 9 T k c v M D 8 < , , , , , , 1 # u A E O ..",
"..........a w q a k U t 8 5 j J , , , , : , , , , * * S L H . ..",
"......6 t q q 0 9 5 v s v v T s 7 j f , s y , , - # S L E + ....",
"....q q q q 9 9 9 5 8 5 , < > e N = , l l = , , @ V E ~ 7 ......",
"..w e 1 q 5 8 5 8 5 < < < , > 5 j s D t , , , % r E ! m . ......",
"....Z ) P i , 5 < < < , , , , , , , : , , , = * ~ ~ E O ........",
"....x | | } _ Y i ; - - , , , , , , , , , : @ ! ~ ( = ..........",
"....n | | | | | } ` E i 1 = - > , , , , , $ H ^ ( i   ..........",
"....&  .} | | | | | | { _ E h 3 & = , , & 7 ( ( Q O ............",
"....& Z  .| { [ } | { | | | [ _ W h 5 % = ( ( ( $ ..............",
"......e O M F  .| [ ] { } ] | { | [ ( ^ E ) ] e ................",
"............y + B F  .} [ ' { [ ] | { { ) ] G o ................",
"..................s $ m G | } { ` } [ { [ / @ ..................",
"........................y & n K | | { ]  ., ....................",
"..............................7 = b Y | g X ....................",
"...................................., 5 # ......................",
"................................................................",
"................................................................",
"................................................................",
"................................................................"
};
