/* XPM */
static char *balsa[] = {
/* columns rows colors chars-per-pixel */
"32 32 67 1 ",
"  c #656564646060",
". c #6E6E6D6D6868",
"X c #70706F6F6C6C",
"o c #717170706D6D",
"O c #757574747171",
"+ c #797978787373",
"@ c #7C7C7A7A7777",
"# c #818180807A7A",
"$ c #848483837E7E",
"% c #858584848080",
"& c #888886868181",
"* c #8B8B8A8A8585",
"= c #90908F8F8B8B",
"- c #929291918B8B",
"; c #979796968F8F",
": c #969695959090",
"> c #9A9A99999797",
", c #9C9C9A9A9696",
"< c #9E9E9C9C9696",
"1 c #A0A09F9F9A9A",
"2 c #9E9EA5A59E9E",
"3 c #A2A2A1A19A9A",
"4 c #A7A7A6A6A0A0",
"5 c #A8A8A6A6A1A1",
"6 c #A3A3A9A9A3A3",
"7 c #ACACACACA5A5",
"8 c #ABABB1B1ABAB",
"9 c #AEAEB4B4AEAE",
"0 c #B0B0B6B6B0B0",
"q c #B6B6B6B6B6B6",
"w c #B7B7BCBCB7B7",
"e c #BBBBBBBBBBBB",
"r c gray74",
"t c #BCBCC2C2BCBC",
"y c gray76",
"u c #C5C5C5C5C5C5",
"i c #C8C8C8C8C8C8",
"p c #CBCBCECECBCB",
"a c gray80",
"s c #CCCCD0D0CCCC",
"d c LightGray",
"f c gray83",
"g c #D7D7D7D7D7D7",
"h c #D7D7DADAD7D7",
"j c #D8D8D8D8D8D8",
"k c gray86",
"l c gainsboro",
"z c #DEDEE0E0DEDE",
"x c gray88",
"c c #E2E2E3E3E2E2",
"v c gray89",
"b c #E4E4E4E4E4E4",
"n c #E7E7E9E9E7E7",
"m c gray91",
"M c gray92",
"N c #EAEAECECEAEA",
"B c #EEEEEEEEEEEE",
"V c #EFEFF0F0EFEF",
"C c gray94",
"Z c #F1F1F1F1F1F1",
"A c #F3F3F4F4F3F3",
"S c #F5F5F4F4F4F4",
"D c gray96",
"F c #F8F8F8F8F8F8",
"G c gray98",
"H c gray99",
"J c None",
/* pixels */
"JJJJJJJJJJJJJJJJJJJJJJJJJJJJJJJJ",
"JJJJJJJJJJJJ=**%%%$$JJJJJJJJJJJJ",
"JJJJJJJJJJJ;ZHHHGGGZ=JJJJJJJJJJJ",
"JJJJJJJJJJ3GDVVmmBbZG,JJJJJJJJJJ",
"JJJJJJJJJ5HZBmmvbbcccG,JJJJJJJJJ",
"JJJJJJJJ7HZBvmbcblkklcD>JJJJJJJJ",
"JJJJJJJ7HZnmmvcczllgkgcZ:JJJJJJJ",
"JJJJJJ4GZccvvvlkllllgddkB%JJJJJJ",
"JJJJJ3GZbbcckllkgkgdggiplb@JJJJJ",
"JJJJ3DZbbbzkkklhddddiarqubk+JJJJ",
"JJJ1bDbcckllkkdggiiquvGGracuOJJJ",
"JJJ<GccllkgkgdarykDHHGGGByaBoJJJ",
"JJJ<HclklggyedBHHGGGDDDDGraBoJJJ",
"JJJ<HzlarabGHHGDGDDZZDDZCcgZoJJJ",
"JJJ<HDsDGHGGDDDZZZZZZBBBBdBBoJJJ",
"JJJ<HDZpDDDDDZZZBBBBBBmBucmBoJJJ",
"JJJ,HZZNwZZBZZBBBmBbmmbykcmBoJJJ",
"JJJ<HZVZc0mcmbMcmBvBmcakmnmN.JJJ",
"JJJ<HZBBBj8kllkklllllyammmvBoJJJ",
"JJJ>HZBZBBa9y22222226ebmvmvNoJJJ",
"JJJ,HZNmmmB99ZHAZmcku7kvbbbmoJJJ",
"JJJ,HNnBBctpDBbBBbnbvk9kcbbBoJJJ",
"JJJ<GmZmcymZNbmcbvvmbvktlccmoJJJ",
"JJJ<HmvkaSmBbbbbvvvvbblbydbm.JJJ",
"JJJ,GblmZbbZccbcbccckcbbvhkm.JJJ",
"JJJ<DcDNbcbbccbblclbbbkbkckb.JJJ",
"JJJ,GDDZZZZZBZVmBZNmBmZmBBbZ.JJJ",
"JJJ;;;;-=-**%&$$###+++OOO.oo JJJ",
"JJJJJJJJJJJJJJJJJJJJJJJJJJJJJJJJ",
"JJJJJJJJJJJJJJJJJJJJJJJJJJJJJJJJ",
"JJJJJJJJJJJJJJJJJJJJJJJJJJJJJJJJ",
"JJJJJJJJJJJJJJJJJJJJJJJJJJJJJJJJ"
};
