/* XPM */
static char *berusky[] = {
/* columns rows colors chars-per-pixel */
"32 32 16 1 ",
"  c black",
". c #0E0E04040404",
"X c #373702020202",
"o c #363632323232",
"O c #71711E1E1E1E",
"+ c #7D7D61616161",
"@ c #A6A614141414",
"# c #CCCC0D0D0D0D",
"$ c #EDED13131313",
"% c #E7E747474747",
"& c #979790909090",
"* c #E8E891919191",
"= c #D2D2CCCCCCCC",
"- c #EAEADEDEDEDE",
"; c #F7F7E2E2E2E2",
": c gray100",
/* pixels */
":::::::&  o-::::::::&  +::::::::",
":::::::=o.o&-:===--=+ o&::::::::",
":::::::;-+.o&-oo.&=o.o&-::::::::",
":::::::::&+.+&+oo++.o&-:::::::::",
":;-:::::::&oo&+oo...&=::::::--::",
":&+-:::::&oo&&&oo..oo+=:::::&+=:",
":+o-:::::+.+&&+o .oooo&:::::&.=:",
":+o-:::::+.o++o  oo&oo=:::::+o=:",
":+.+&::=oo.oooo.oo+oo.o&::=+oo&:",
":&o.+=-&....ooo.+oooo .+:=&o.+=:",
":-&o.o=&..  ...oooo.   +:+..+-::",
"::-&o.++XOXXX. .o.XXOX.o+oo+=:::",
"::::&o.X@##@X.   X@@@#X ..+=::::",
"::::=&oX$$%##XX  O####@X.+=:::::",
":=&::-oO$%*%$@X  @#$$$$@.&::=&-:",
":+o-:-+#%*-*%#X  @$%%%$#O*::+o=:",
":+.++o@%=*%%$$X  +%%$%$#Oo++oo&:",
":&ooo O%=%$$$$X .+*$####OX oo+=:",
":---+ O%=%$#$%X .+%#@@#@@Xo==-::",
"::::=+@%**%%%%o.X%*%%@##O+&:::::",
"::::-=%@%****%XXO%***%$@@&-:::::",
"::::&oO#$%$%#$XXO%*%####OO+-::::",
"::-&+ X#$$@@##XXX%%#@O@@OXo&=:::",
"::=o .X#$#@X@@XXO##@OO@@OX  +:::",
":&o.o&O@####@OX.O#$##@@OO++.o+=:",
":+.o=-OO@####OXXO#$$#@OXO&-+o.=:",
":+o=--oXO@#@@O.XO@##@OX..&:=+o=:",
":+o-::&+XXX#@OX.XO@@OX.o&=::&.=:",
":++=:::&o.XXOO.  XOOX .+::::&o=:",
":==::::-=o.XX..  X.X..&-::::==-:",
":::::::::&+++o+++o++++-:::::::::",
"::::::::::::::::::::::::::::::::"
};
