/* XPM */
static char *bittornado[] = {
/* columns rows colors chars-per-pixel */
"32 32 53 1 ",
"  c #010101010101",
". c #060606060606",
"X c gray4",
"o c #0E0E0E0E0E0E",
"O c gray7",
"+ c #151515151515",
"@ c #1B1B1B1B1B1B",
"# c #1E1E1E1E1E1E",
"$ c #202020202020",
"% c #272727272727",
"& c gray16",
"* c gray18",
"= c #313131313131",
"- c gray21",
"; c #3A3A3A3A3A3A",
": c #3E3E3E3E3E3E",
"> c #434343434343",
", c #464646464646",
"< c #484848484848",
"1 c gray30",
"2 c gray32",
"3 c gray34",
"4 c #5A5A5A5A5A5A",
"5 c gray36",
"6 c #606060606060",
"7 c #646464646464",
"8 c #686868686868",
"9 c #6C6C6C6C6C6C",
"0 c gray45",
"q c #767676767676",
"w c #7B7B7B7B7B7B",
"e c gray50",
"r c #808080808080",
"t c gray53",
"y c gray54",
"u c #8D8D8D8D8D8D",
"i c #909090909090",
"p c gray59",
"a c #9A9A9A9A9A9A",
"s c gray61",
"d c #A2A2A2A2A2A2",
"f c gray65",
"g c gray66",
"h c gray68",
"j c #B2B2B2B2B2B2",
"k c #B4B4B4B4B4B4",
"l c #B9B9B9B9B9B9",
"z c gray75",
"x c gray76",
"c c #C6C6C6C6C6C6",
"v c gray79",
"b c #CECECECECECE",
"n c None",
/* pixels */
"nnnnnnnnnnnnnnnnnnuO     #nnnnnn",
"nnnnnnnnnnnnnnn2@ *5889wtt>nnnnn",
"nnnnnnnnnnnn;,X,4117000eui0nnnnn",
"nnnnnnnnnn56d0nn4%5eqqwyupw4nnnn",
"nnnnnnnn$qjzcx4-6itrew6#@=&6nnnn",
"nnnnnnn1ay4694    %59w9789  $nnn",
"nnnnnnnn0 Ojq  1000<3yuipuy0<>On",
"nnnnnnnnn5O3dbvxhdpuuuuuur954,,n",
"nnnnnnO**%=pcbvcjfsppiuuyt0312=n",
"nnnn<$,tj#-3788sggdsi6,,>>:::3nn",
"nnnn=&o#$O1qnn69ggfawr1:ynnnnnnn",
"nnnnn% -nn 460lxkt596   2OX@nnnn",
"nnnnnnn;##7fxvvxjq;    >nn7&nnnn",
"nnnnn5o,5&0kxcvxkhggp64Onnnnnnnn",
"nnnn13sn29650%0>whhhy@n<-nnnnnnn",
"nnnnne9,%7oeX98rfsrt984#Onnnnnnn",
"nnnnnn.wX13ycl92 -wreq,::nnnnnnn",
"nnnnnn1&;1qjci8oonnnnnnnnnnnnnnn",
"nnnn:+:y,%yzt3skwnnnnnnnnnnnnnnn",
"nnnX=rq765sfw4<1nnnnnnnnnnnnnnnn",
"nnn3nn9<%4yr9%gnnnnnnnnnnnnnnnnn",
"nnnnnnnn75-innnnnnnnnnnnnnnnnnnn",
"nnn#nnn3t146$nnnnnnnnnnnnnnnnnnn",
"no3nnn1uf9658nnnnnnnnnnnnnnnnnnn",
">dnnnn78,,nnncnnnnnnnnnnnnnnnnnn",
"*nnn6wfq:nnnn@.=nnnnnnnnnnnnnnnn",
"-nnnty0g,nnnnnonnnnnnnnnnnnnnnnn",
"nnnnn0nXnnnn3onnnnnnnnnnnnnnnnnn",
"nnnnnnn-nn$,&nnnnnnnnnnnnnnnnnnn",
"nnn,0n24nnfnnnnnnnnnnnnnnnnnnnnn",
"nnnnnn>nn0znnnnnnnnnnnnnnnnnnnnn",
"nnnnnnpn5annnnnnnnnnnnnnnnnnnnnn"
};
