/* XPM */
static char *blobby[] = {
/* columns rows colors chars-per-pixel */
"32 32 46 1 ",
"  c #4F4F4F4F4E4E",
". c gray33",
"X c #5BD35C065C31",
"o c #61615F5F6060",
"O c #5F5F60606060",
"+ c #643964646468",
"@ c #676767676868",
"# c #676768686868",
"$ c #6C846C1C6C64",
"% c #6F6F6F6F7070",
"& c #741E7426747C",
"* c #767678787777",
"= c #787877777878",
"- c #7C0E7BF57C02",
"; c #80807F7F7E7E",
": c #7F7F80807F7F",
"> c #838D83838365",
", c #8BEC8BFA8BD0",
"< c #909090908F8F",
"1 c #945894739489",
"2 c #979797979898",
"3 c #9B579B579B81",
"4 c #9F9FA0A0A0A0",
"5 c #A401A40AA3E8",
"6 c #AC51AC4CAC46",
"7 c #B0B0AFAFB0B0",
"8 c #B419B405B3FC",
"9 c #B7B7B8B8B8B8",
"0 c #BBF0BC1CBBDE",
"q c #C0C0BFBFC0C0",
"w c #C414C3DEC3DE",
"e c #CB2FCB1DCB2F",
"r c #D3BBD3ABD413",
"t c #DC2ADC10DC10",
"y c #E0E0DFDFDFDF",
"u c #E0E0E0E0DFDF",
"i c #DFDFE0E0E0E0",
"p c #E45DE4B1E457",
"a c #E7E7E8E8E7E7",
"s c #E7E7E8E8E8E8",
"d c #EBCDEC02EBFA",
"f c #F474F48AF492",
"g c #F7F7F8F8F7F7",
"h c #F7F7F8F8F8F8",
"j c #FD38FD2DFD3E",
"k c None",
/* pixels */
"kkkkkkkkkkkkphjjfdfjkkkkkkkkkkkk",
"kkkkkkkkkffjfdffhjjjjhfkkkkkkkkk",
"kkkkkkkpjjjjfdhjjjjhffffpkkkkkkk",
"kkkkkkffjjjjjfjjjjhgfdpirekkkkkk",
"kkkkkjjfgjjjjfdghffatttttrekkkkk",
"kkkkjjjhfjjjgfppdddpytpttrwekkkk",
"kkkdjhjfdffffdytsdppptttrrw99kkk",
"kkrdfhhfapdddautpdaptrrrree886kk",
"kkdpdfdddaddddpttutttreeewq765kk",
"kddppdpppddpauutrtttreqqq086451k",
"kpptrtppppppyttrwereew09888621,k",
"kttrtttttttttrre0weewq9766651,,k",
"eeettttttrrreew088qq098655531:->",
"5eerrrreeeewq009878886652111,-&-",
"9eeeeeeew000000986576552<,,>;*@%",
"80wwwq988899988775445321,;;-=$O@",
"67998777898877665411211,>&=*%#Oo",
"657667889887766664,,11<,>=%&$#O.",
"545888888877665531,>,<,>>*$%@+X ",
"5557888776665532111,:,,>-*+OXXXX",
"k556767666432222211<-:>:=$X.XoOk",
"k44566653332333222<,:=-=%+.XO+@k",
"k233432233343322<<<,:$##@OO+@++k",
"kk1<<<334433221<<,,--@o++++++@kk",
"kk<,,2333221111,>;-=&#XO+@+@++kk",
"kkk,,111211<,,>;-**&&$XX++++Okkk",
"kkkk>>1<<,,>>;-=%%&%%@OXXOXXkkkk",
"kkkkk->>>-=&---*%@%$#+@X..Okkkkk",
"kkkkkk$&==%$==**%oo++@+O.Xkkkkkk",
"kkkkkkk%&=&$%%%%#oX+++++Xkkkkkkk",
"kkkkkkkkk$#+X+++#oXO@++kkkkkkkkk",
"kkkkkkkkkkkkX+%##$oXkkkkkkkkkkkk"
};
