/* XPM */
static char *bloboats[] = {
/* columns rows colors chars-per-pixel */
"32 32 102 2 ",
"   c #616147475656",
".  c #7B7B7676A5A5",
"X  c #7E7E7979A1A1",
"o  c #76767070B2B2",
"O  c #7F7F7878BCBC",
"+  c #52527272CDCD",
"@  c #56D770F1D2D2",
"#  c #58587373D5D5",
"$  c #5F5F7272DDDD",
"%  c #73736B6BD6D6",
"&  c #77776E6EDFDF",
"*  c #77777070D0D0",
"=  c #78787171D2D2",
"-  c #7B7B7373DEDE",
";  c #77776D6DE0E0",
":  c #78F96EEFE241",
">  c #79796E6EEFEF",
",  c #6A6A7272EBEB",
"<  c #7BBB7232E524",
"1  c #7A7A7171EAEA",
"2  c #73737A7AE8E8",
"3  c #79796F6FF0F0",
"4  c #77776F6FFCFC",
"5  c #78786E18FC6D",
"6  c #6E6E7272F0F0",
"7  c #717171F2F4B4",
"8  c #7B7B7070F171",
"9  c #774C711BFCA6",
"0  c #7B2B716CFFF4",
"q  c #81817D7D9494",
"w  c #8B8B7F7FACAC",
"e  c #814175F6FFFF",
"r  c #84847878FFFF",
"t  c #8B8B7D7DFFFF",
"y  c #72728383D2D2",
"u  c #8A8A88888787",
"i  c #8E208B8B8D1F",
"p  c #91668EE48E0E",
"a  c #92E890908F8F",
"s  c #898983839292",
"d  c #94948F8F9292",
"f  c #92928B8B9A9A",
"g  c #9555927291D1",
"h  c #9A2C96F295BA",
"j  c #9C6998FF9764",
"k  c #9E129AF399E7",
"l  c #A1A99DF39C94",
"z  c #A2A2A0A09E9E",
"x  c #8E8E8A8AA2A2",
"c  c #90908E8EA7A7",
"v  c #9B9B8F8FAAAA",
"b  c #9C9C9292A6A6",
"n  c #95959393ADAD",
"m  c #8A8A8989B7B7",
"M  c #9A9A8A8AB7B7",
"N  c #96968989BFBF",
"B  c #94949393BCBC",
"V  c #9A9A9999BCBC",
"C  c #A3A39494BC3C",
"Z  c #94949393C2C2",
"A  c #98989595C5C5",
"S  c #9C9C9D9DC5C5",
"D  c #98989797C8C8",
"F  c #9A1A9A9ACC4C",
"G  c #9A9A8989DFDF",
"H  c #9F9F9E9ED0D0",
"J  c #A34D9E9ED4D4",
"K  c #A0A0A1A1D3D3",
"L  c #A8A8A5A5DCDC",
"P  c #96968383FFFF",
"I  c #9B9B8989FFFF",
"U  c #AFAF9E9EE3E3",
"Y  c #BB109E9EEEEE",
"T  c #A1A18989FFFF",
"R  c #ACAC9393F2F2",
"E  c #AB2B9313FFFF",
"W  c #B9B99797FFFF",
"Q  c #BC119BF1FFFF",
"!  c #9090AFAFE4E4",
"~  c #ADADA4A4E4E4",
"^  c #AF59A6A6EFEF",
"/  c #ABABA9A9EFEF",
"(  c #B434A277EFEF",
")  c #B3B3AAAAEFEF",
"_  c #AEAEA2A2F5F5",
"`  c #B4B4ADADF4F4",
"'  c #BBBBA9A9F7F7",
"]  c #B6B6A5A5F9F9",
"[  c #BEBEA0A0FFFF",
"{  c #B6B6AFAFFBFB",
"}  c #BE4BAEC7FFFF",
"|  c #AFAFB0B0F7F7",
" . c #B66FB44DFFE3",
".. c #BA4AB1C5FFFA",
"X. c #B4B4BCBCF9F9",
"o. c #C2C29D9DFFFF",
"O. c #C0C0A1A1F3F3",
"+. c #C6B4A70BFF7F",
"@. c #CA80A5A5FFFF",
"#. c #C398AAEEFFF6",
"$. c #C0C0B0B0FCFC",
"%. c #BA3ACDCDFDFD",
/* pixels */
"p H  . . . . . . . . . . .V j j l c  . . . . .X. . .| F B K S F ",
"n  . . . . . . . . . . . .B l j l A  . . . . . . . .| B J Z D / ",
"J .. . . ... .{  . ... . .A j l k L  . . ... . . . . . . . . ./ ",
"{  .{ ..{ {  . ..... ... .J l k a `  . . ....... . . . . ... ./ ",
"{ ......{ ..............{ J g p x  ...........................) ",
"} } { } } ..{ ......{ ..} ` ~ ` ..............................^ ",
"{ } ..{ } { } } } } } } } { ................} ..$.............( ",
"} } } } } } } } } } ......#.} } $.} #...$...$.....$.....#.....( ",
"} } } } } } } } } } } } } } } } #...} $...$.$.$.$.$.} ..#.#...( ",
"#.} #.} } } #.} #.} #.} #.} } } m N #...#...#.$...#.$...#...} ( ",
"#.} } #...#.#.$.#.} } #.#.} } U     ' #.#.$.$.#.#...#.#.#.} #.( ",
"#.#.} #.#.#.#.#.#.#.} #.} #.#.#.} #.#...#.#.#.$.#.#.#.$.#.#.#.( ",
"#.[ #.#.#.#.#.#.#.} #.#.#.#.#.#.#.#.#.#.$.#.#.#.#.#.#.#.#.#.#.( ",
"#.#.#.#.#.#.+.#.#.#.+.#.#.#.#.+.#.#.#.#.@.#.#.#.#.#.#.#.#.#.#.( ",
"#.#.+.+.+.#.+.#.#.#._ ] #.M p i s #.#.#.#.#.#.#.#.#.+.+.#.#.#.Y ",
"+.+.+.+.+.+.+.+.+.+.! X.$.C j l g O.+.+.@.#.@.@.#.+.+.+.+.+.+.Y ",
"+.@.+.+.+.+.+.@.@.+.%.%.+.C l j p O.+.+.+.+.+.+.+.+.#.#.+.#.Q R ",
"@.+.@.+.@.@.+.@.+.+.@.+.+.v l j a O.+.@.+.#.+.+.E I P 0 0 0 9 4 ",
"@.+.@.@.@.@.@.@.@.@.@.@.@.b l l a O.@.+.E y 2 0 0 0 9 0 0 9 9 9 ",
"@.@.@.@.@.@.@.@.@.@.@.@.+.b l j h G t 0 9 + # 9 9 0 0 9 9 0 0 9 ",
"@.o.@.@.@.@.@.@.@.@.@.@.Q f j h j = 0 0 9 @ @ 9 0 0 9 0 0 0 0 9 ",
"o.o.@.@.@.@.o.W Q T P r 0 u l j l * 0 0 9 $ # 7 9 0 0 0 0 0 0 9 ",
"5 e r r e e 0 0 0 0 0 0 0 p j l z % 9 0 0 6 , 6 0 0 0 0 0 0 9 9 ",
"5 e 5 e 0 0 0 0 0 0 0 0 9 i l l l w 0 9 0 7 7 0 0 0 0 9 0 0 0 9 ",
"5 e 5 5 e e 5 0 0 0 0 0 1 a z j k O 0 0 0 0 0 0 0 0 0 0 0 0 0 0 ",
"5 5 e 5 5 5 e 0 0 0 0 0 - l z j j w 0 0 0 0 0 0 0 0 0 0 0 0 0 4 ",
"e e 5 5 0 0 5 0 0 0 0 0 % k k h z w 0 0 0 0 0 0 0 0 0 0 5 0 0 4 ",
"5 5 5 e 0 0 0 0 0 0 0 9 * j k j z . 5 e 5 0 4 0 0 0 0 0 e 0 5 4 ",
"e 5 e 5 e 5 e 5 0 0 0 > . j l j z q < < ; ; : < ; : : < : ; : & ",
"5 e 5 e 5 e e 5 0 8 w X h h j l z f i u u d i g p p g d p d g p ",
"5 e e 5 5 5 5 > o a k j k h l k k j k l j k j l j j h k k j j j ",
"5 5 5 5 5 3 w q h z b j k j z k j j l l j l j z k j k l l j l k "
};
