/* XPM */
static char *blogtk[] = {
/* columns rows colors chars-per-pixel */
"32 29 87 1 ",
"  c black",
". c #040402020101",
"X c #060604040202",
"o c #090906060303",
"O c #0C0C07070404",
"+ c #0E0E08080404",
"@ c #12120B0B0505",
"# c #15150C0C0606",
"$ c #19190E0E0707",
"% c #1A1A0F0F0808",
"& c #1D1D10100808",
"* c #222214140B0B",
"= c #242415150B0B",
"- c #2D2D1A1A0D0D",
"; c #32321D1D0F0F",
": c #35351F1F1010",
"> c #3A3A22221212",
", c #3E3E24241313",
"< c #404025251313",
"1 c #414126261414",
"2 c #444427271515",
"3 c #464628281616",
"4 c #4C4C2C2C1717",
"5 c #525230301919",
"6 c #565632321B1B",
"7 c #5B5B35351C1C",
"8 c #5C5C36361C1C",
"9 c #606037371D1D",
"0 c #616138381E1E",
"q c #64643A3A1E1E",
"w c #69693D3D2020",
"e c #6D6D3E3E2121",
"r c #6E6E40402222",
"t c #727242422323",
"y c #777745452424",
"u c #7A7A47472626",
"i c #7F7F49492727",
"p c #81814A4A2828",
"a c #87874E4E2929",
"s c #89894F4F2A2A",
"d c #8D8D51512B2B",
"f c #909053532C2C",
"g c #909054542C2C",
"h c #959556562E2E",
"j c #999959592F2F",
"k c #9C9C5A5A2F2F",
"l c #9A9A59593030",
"z c #9D9D5B5B3030",
"x c #A0A05D5D3131",
"c c #A5A55F5F3232",
"v c #A7A761613333",
"b c #A8A861613333",
"n c #ABAB63633434",
"m c #B5B569693737",
"M c #BBBB6C6C3939",
"N c #BDBD6D6D3A3A",
"B c #C3C371713B3B",
"V c #C3C371713C3C",
"C c #C4C471713C3C",
"Z c #C9C974743D3D",
"A c #CECE77773F3F",
"S c #CFCF78783F3F",
"D c #D2D279794040",
"F c #D5D57B7B4141",
"G c #D5D57C7C4141",
"H c #DADA7E7E4343",
"J c #DCDC7F7F4343",
"K c #DDDD80804343",
"L c #E0E082824444",
"P c #E3E384844646",
"I c #E6E685854646",
"U c #E9E987874747",
"Y c #E9E987874848",
"T c #EBEB88884848",
"R c #EFEF8A8A4949",
"E c #F1F18B8B4A4A",
"W c #F2F28C8C4A4A",
"Q c #F6F68E8E4B4B",
"! c #F7F78F8F4C4C",
"~ c #F8F88F8F4C4C",
"^ c #F7F790904C4C",
"/ c #F8F890904C4C",
"( c #FEFE93934E4E",
") c #FFFF95954F4F",
"_ c #FFFF97975050",
"` c #FFFF9A9A5252",
"' c None",
/* pixels */
"'''''''''''''''''''''''  '''''''",
"'''''''''''''  ''''''''o#.    ''",
"'''''''''   X++   '''''6ECxw2*O ",
"'''''   O4abAPIVd& ''' j_/)(Q/7 ",
"''''.8uvHQ))/QQ/_V@'''OF~WEE(M@'",
"''''#R_(!QWWWWWWQ!>''':EQWE!I* '",
"''''*TQWWWWWWWWWQE;'' 5~WWW_s ''",
"''''-TQWWWWQQWWWQY='' r)WW/K& ''",
"'''',EQWWW/WREWE(Go'' x(WW)p '''",
"''' 4QQEWWy:,PQQ/w ' $LQEQQ> '''",
"''' 0(WE/Z  w^W)h '' q(WW(N.''''",
"''' r)WE)z <RQ)B@ '' c)WQ/6 ''''",
"''' a)WQ)w,I~/S& '' @J~E/D+'''''",
"''' c(WWECR//G& ''' 3QQE)i '''''",
"'''XA/WWW/QW~Zf0 '' j)E~H% '''''",
"'' &UQWWWWWWE~))e  @K~W)f ''''''",
"'' >EQWWQ))/~QW/N  3!WQ!3 ''''''",
"'' 6~WWQUkr8n/W/Zo g`)`HO'''''''",
"'' i)WW(x   e/E)b  3wup8 '''''''",
"'' v)WW(q *dI/QQ1 ''''' ''''''''",
"''XA~WQE0iI)QW)s ''   ''''''''''",
"' %UQWEER/QWE(N@ ' %1<o ''''''''",
"' ,WQEWWQWWW(K*   aY~~c.''''''''",
"' 0(WWWWWW/)I5   p(QE~E= '''''''",
"' h_EEEE!)Gt& ' r(QWW~P# '''''''",
"'.B(Q!()Wd$ ''' m)WWQ`g ''''''''",
" #JERGnu;  '''' u)))Qj@'''''''''",
"'o--*o   '''''' .9lp,  '''''''''",
"''   '''''''''''     '''''''''''"
};
