/* XPM */
static char *cellwriter[] = {
/* columns rows colors chars-per-pixel */
"32 32 75 1 ",
"  c black",
". c #070707070707",
"X c #0B0B0B0B0B0B",
"o c #131313131313",
"O c #181818181818",
"+ c gray12",
"@ c #222222222222",
"# c gray14",
"$ c #282828282828",
"% c #2D2D2D2D2D2D",
"& c gray19",
"* c #373737373737",
"= c #393939393939",
"- c gray24",
"; c #464646464646",
": c gray29",
"> c gray31",
", c #555555555555",
"< c #5A5A5A5A5A5A",
"1 c #606060606060",
"2 c #656565656565",
"3 c #6C6C6C6C6C6C",
"4 c #727272727272",
"5 c gray47",
"6 c #7C7C7C7C7C7C",
"7 c #808080808080",
"8 c gray55",
"9 c gray58",
"0 c #9A9A9A9A9A9A",
"q c #9D9D9D9D9D9D",
"w c #8A8A9B9BAAAA",
"e c #90909E9EAEAE",
"r c #9D9DA9A9B7B7",
"t c gray63",
"y c #A5A5A5A5A5A5",
"u c #A9A9A9A9A9A9",
"i c gray68",
"p c #B4B4B4B4B4B4",
"a c #BBBBBBBBBBBB",
"s c gray74",
"d c #A5A5B4B4C0C0",
"f c #A9A9B4B4C1C1",
"g c #AEAEBBBBC7C7",
"h c #B1B1BDBDC8C8",
"j c gray78",
"k c #C0C0C9C9D1D1",
"l c #C1C1CACAD4D4",
"z c #C5C5CFCFD7D7",
"x c #C6C6D0D0D8D8",
"c c #CECED8D8DEDE",
"v c gray82",
"b c gray83",
"n c gray85",
"m c #D9D9DCDCDCDC",
"M c #DDDDDFDFDFDF",
"N c #DFDFE1E1E1E1",
"B c #DADAE2E2E5E5",
"V c #DBDBE4E4E7E7",
"C c #DDDDE7E7E9E9",
"Z c #E1E1E1E1E1E1",
"A c #E4E4E6E6E6E6",
"S c #E6E6E8E8E8E8",
"D c #E1E1EAEAEDED",
"F c #E7E7ECECEDED",
"G c gray92",
"H c #EAEAECECECEC",
"J c #EEEEEEEEEEEE",
"K c #EFEFF1F1F1F1",
"L c #EFEFF4F4F5F5",
"P c #F1F1F3F3F3F3",
"I c #F3F3F4F4F4F4",
"U c gray96",
"Y c gray98",
"T c gray100",
"R c None",
/* pixels */
"RRRRRRRRRRRRRRRRRRRRRRRRRRRRRRRR",
"RRRRRRRRRRRRRRRRRRRRRRRRRRRRRRRR",
"RRRRRRRRRRRRRRRRRRRRRRRRRRRRRRRR",
"wffffffffffffffffffffffffffffffe",
"rTTTTTTTTTTTTTTTTTTTTTTTTTTTTTTf",
"rTTTTTTTTTTTTTTYYTTTTTTTTTTTTTTf",
"rTTTTTTTTTTTTTTYYTTTTTTTTYTTTTTf",
"rTTTTTTTTTTTTTTYITTTTTTTTUGTTTTf",
"rTTTTTTTTTTTTTTUITTTTTTTTTjTTTTf",
"rTTTTTTTTGTTTTTUPTTTTTTTTTtTTTTf",
"rTTTTTTi*<TTTTTPJTTTTTTTTTasTTTf",
"rTTTTJ, .2TTTTTPJTTTTTTTTTP<TTTf",
"rTTTU*@pYTTTTTTJGTTpvTTTTTT=TTTf",
"rTTT,oZTTTTTTTTHATT-4TTTTTT>bTTf",
"rTTa yTTTTTTTTTGATT=jTTTTTT39TTf",
"rTT-$TTTTTTTTTTSMTT%PTT58TT6,TTf",
"rTTo<TTTTTTTTTTAmTT=TTb XJT2=TTf",
"rTTO$TTTTTTTTTTAMTT&TT6  iT>+TTf",
"rTT< yTTTTTTTTPNZTToYT#X 2To$TTf",
"rTTMo.4JTTTTTnZHATT nt 0X , <TTf",
"rTTTv& X<796tKTJSTTO$X$T2   aTTp",
"rTTTTTp<:19PTTTKGTT;  uTY6#3TTTd",
"rTTTTTTTTTTTTTTIJTTAqZTTTTTTTTTr",
"rTTTTTTTTTTTTTTIKTTTTTTTTTTTTTTg",
"hLLLLLLLILLLLLLFSLLLLLLLLLLLLLLk",
"lDDDDDDDDDDDDDDVBDDDDDDDDDDDDDDc",
"lDDDDDDDDDDDDDDVVDDDDDDDDDDDDDDc",
"lDDDDDDDDDDDDDDCVDDDDDDDDDDDDDDc",
"lDDDDDDDDDDDDDDCCDDDDDDDDDDDDDDc",
"dxxxzzxxxxxxxxxxxxxxxxxxxxxxzxxg",
"RRRRRRRRRRRRRRRRRRRRRRRRRRRRRRRR",
"RRRRRRRRRRRRRRRRRRRRRRRRRRRRRRRR"
};
