/* XPM */
static char *chemtool[] = {
/* columns rows colors chars-per-pixel */
"32 32 103 2 ",
"   c black",
".  c #071907190719",
"X  c #0AFA0AFA0AFA",
"o  c #0EA10EA10EA1",
"O  c #13EB13EB13EB",
"+  c #18B818B818B8",
"@  c #1F391F391F39",
"#  c #215021502150",
"$  c #337733773377",
"%  c #3D723D723D72",
"&  c #41F441F441F4",
"*  c #445744574457",
"=  c #480548054805",
"-  c #501950195019",
";  c #550E550E550E",
":  c #589958995899",
">  c #5BDE5BDE5BDE",
",  c #639163916391",
"<  c #678C678C678C",
"1  c #6A2B6A2B6A2B",
"2  c #6C636C636C63",
"3  c #70C670C670C6",
"4  c #77B777B777B7",
"5  c #7B077B077B07",
"6  c #7E4D7E4D7E4D",
"7  c #4CC372FE84B8",
"8  c #4EC574408595",
"9  c #5DDF7F438E9F",
"0  c #5A2984199829",
"q  c #7B8B896B8FD1",
"w  c #7E3F8B90919F",
"e  c #657990ABA56A",
"r  c #6A599618AB1A",
"t  c #7EB99AB8A7D8",
"y  c #7F189B44A87A",
"u  c #7945A45FB8B5",
"i  c #7B78A56CB920",
"p  c #7CD6A7A8BBB9",
"a  c #7DA9A875BCA2",
"s  c #829682968296",
"d  c #870B870B870B",
"f  c #80248C70920F",
"g  c #8ED393FC9658",
"h  c #83DA929C99AB",
"j  c #913691369136",
"k  c #93A493A493A4",
"l  c #97B897B897B8",
"z  c #98A398A398A3",
"x  c #9CEF9CE29CDB",
"c  c #8C699A7FA146",
"v  c #90029DDFA487",
"b  c #800F9CA8AA19",
"n  c #81F39F68AD50",
"m  c #82499FE4ADE0",
"M  c #98BA9F3EA21E",
"N  c #8417A177AFA5",
"B  c #9FCAA173A23A",
"V  c #9CECA82EAD72",
"C  c #83B6A1D5B05B",
"Z  c #843CA1FBB05C",
"A  c #85EEA529B406",
"S  c #870BA6A2B5C2",
"D  c #8BAFA530B12D",
"F  c #8831A86FB7D8",
"G  c #A1A5A1A5A1A5",
"H  c #A478A478A478",
"J  c #A584A584A584",
"K  c #A0B8AB0AAFF2",
"L  c #A9EEA9EEA9EE",
"P  c #ADA0AD46AD1D",
"I  c #AFE5B875BC4C",
"U  c #B15EB15EB15E",
"Y  c #B36EB302B2CE",
"T  c #B3ABB33FB30C",
"R  c #B3EFB3EFB3EF",
"E  c #B5B6B5B6B5B6",
"W  c #B879B879B879",
"Q  c #BBAABBAABBAA",
"!  c #BF7BBF7BBF7C",
"~  c #A6EFBA04C353",
"^  c #C182C182C182",
"/  c #C438C438C438",
"(  c #C742C742C742",
")  c #CA62CA62CA62",
"_  c #CA83CCD9CDF1",
"`  c #CD18CD18CD18",
"'  c #D0A2D0A2D0A2",
"]  c #D421D421D421",
"[  c #D57ED57ED57E",
"{  c #DC17DC17DC17",
"}  c #DFABDFABDFAB",
"|  c #E1CEE1CEE1CE",
" . c #E2DBE2DBE2DB",
".. c #E661E661E661",
"X. c #E8C5E8C5E8C5",
"o. c #EBCBEBCBEBCB",
"O. c #ED50ED50ED50",
"+. c #F3D4F3D4F3D4",
"@. c #F564F564F564",
"#. c #F8E8F8E8F8E8",
"$. c #FA1AFA1AFA1A",
"%. c #FCF3FCF3FCF3",
"&. c #FF46FF46FF46",
/* pixels */
"g q c v V K K K K K K K K K K K K K K K K K K K K g q h v w G { ",
"w 8 e r u a p u u p u a p p u p p p p p p u p p a e 7 0 e 9 I [ ",
"M D C Z S F m b t A y S t A t A b F b m m m N y y N A N Z ~ _ / ",
"x P T T T T T T T T T T T T T T T T T T T T T T T E T T T T H ! ",
"x { @.@.@.@.@.@.@.@.@.@.@.@.@.@.+.@.@.@.@.@.@.@.@.@.@.@.@.O.L { ",
"G  .&.&.&.&.&.&.&.&.&.&.&.&.&.&.&.&.&.&.&.&.&.&.&.&.&.&.&.@.L { ",
"x } &.&.&.&.&.&.&.&.&.&.&.&.&.@. .{ %.X.[ ` ` ` ` ` } $.&.@.L { ",
"l } &.&.&.&.&.&.&.&.&.&.&.&...P 4 H #.d W ( T T T L G o.&.@.L { ",
"l } &.&.&.&.&.&.&.&.&.&.O.( l 1 k ..&.; * } $.@.@. .H ..&.@.L  .",
"z { &.&.&.&.&.&.&.&.@.[ L x k l  .&.&.:   * ..&.&...L ..&.@.L { ",
"z { &.&.&.&.&.&.$. .T x ! ^ l ] &.&.&.:     *  .&...L  .&.@.L { ",
"z } &.&.&.&.&.&.] x T }  .H ! @.&.&.&.:       & } o.L ..&.@.L { ",
"z } &.&.&.&.&.$.E E +.+.T L +.&.&.&.&.:     @ : x o.L ..&.$.L { ",
"z } &.&.&.&.&.@.E ) $.] x  .&.&.&.&.&.; * * - $.&...L ..&.@.L { ",
"x } &.&.&.&.&.$.W ) $.! W $.&.&.&.&.&.G  .} + T &.o.L ..&.@.L { ",
"x } &.&.&.&.&.$.E ) $.! ^ &.&.&.&.&.&.&.&.@.3 & O...H ..&.@.L { ",
"l } &.&.&.&.&.@.E ) $.! ^ $.&.&.&.&.&.&.&.&.) ,  .T k o.&.$.L { ",
"x } &.&.&.&.&.$.E ) $.! ^ &.&.&.&.&.&.&.&.&.@.{ z = G @.&.+.L { ",
"z } &.&.&.&.&.$.E ) $.! ^ &.&.&.&.&.&.&.$. .E d * 1 ..&.&.@.L { ",
"l } &.&.&.&.&.$.E ) $.! ^ $.&.&.&.&.&.O.^ x l ; % ! &.&.&.@.L { ",
"l { &.&.&.&.&.@.T P { H L { } } } } ) H H ! 2 # s +.&.&.&.$.L { ",
"z { &.&.&.&.&.o.l k H 6 5 x G G G G G W ] s + * [ &.&.&.&.@.L { ",
"l { &.&.&.&.+.T L } ` 2 = , , < , , < 3 : + + H $.&.&.&.&.@.L { ",
"l } &.&.&.$.( B [ ^ < O   . X X X X X X X X 2 ..&.&.&.&.&.@.L { ",
"z { &.&.&.{ z E k $ . O & 1 5 5 5 5 6 6 6 l [ &.&.&.&.&.&.$.L { ",
"z { &.&.o.x d : # # ; x [ +.@.@.@.@.@.@.+.$.&.&.&.&.&.&.&.@.L { ",
"z { &.+.H ; & & 3 W O.$.&.&.&.&.&.&.&.&.&.&.&.&.&.&.&.&.&.@.L { ",
"z { &.) < , l ) O.&.&.&.&.&.&.&.&.&.&.&.&.&.&.&.&.&.&.&.&.@.L { ",
"l { &.} !  .@.&.&.&.&.&.&.&.&.&.&.&.&.&.&.&.&.&.&.&.&.&.&.@.L } ",
"l } $.@.@.$.$.&.$.$.$.&.$.&.$.$.$.&.&.$.$.$.$.&.$.&.$.$.$.@.H { ",
"L P ! W W ! W ! ! W ! W ! ! ! W ! W W ! ! W ! W ! W W ! ! W G { ",
"o.{ [ } [ [ [ { [ [ { [ { ] [ ] { [ { [ [ ] { [ } [ [ { [ [ { +."
};
