/* XPM */
static char *cuyo[] = {
/* columns rows colors chars-per-pixel */
"32 32 11 1 ",
"  c black",
". c gray20",
"X c #4C4C4C4C4C4C",
"o c #666666666767",
"O c #800080008000",
"+ c gray60",
"@ c #B2B2B2B2B2B2",
"# c gray80",
"$ c gray90",
"% c gray100",
"& c None",
/* pixels */
"&&&&&&&&&&&&&&&&&&&&&&&&&&&&&&&&",
"&&&&&&&&&&&&&&&&&&&&&&&&&&&&&&&&",
"&&&&&&&&&&&&        &&&&&&&&&&&&",
"&&&&&&&&&&  $$$#$$$+ &&&&&&&&&&&",
"&&&&&&&&  $$$###@#+++ &&&&&&&&&&",
"&&&&&&& $#$@@@#+++++++ &&&&&&&&&",
"&&&&&&& $###+++++++O+O &&&&&&&&&",
"&&&&&& +##++++OO+OOO+OX &&&&&&&&",
"&&&&&& $+++++OOOOOO+OOX &&&&&&&&",
"&&&&&& $+++X  OO.  XO+o &&&&&&&&",
"&&&&&& $++X %% . %% XOo &&&&&&&&",
"&&&&&& $+O %%%% %%%% XX &&&&&&&&",
"&&&&&& ++ %%%%% %%%%% X &&&&&&&&",
"&&&&&&& + %%  % %  %%  &&&&&&&&&",
"&&&&&&& + %   % %   %  &&&&&&&&&",
"&&&&&&& + %         %  &&&&&&&&&",
"&&&&&&  O %% .##   %%.  &&&&&&&&",
"&&&&  +$$$  .$$##   .$@#  &&&&&&",
"&&& +$$$$#$$#$#@++#$$$##+O &&&&&",
"&& #$#@#@#++++++++++++++OX  &&&&",
"&& $#@+++OOOOOOO++OO+OOO+X. &&&&",
"&& $+++++OOOOO+OOOOOOOOOOX. &&&&",
"&& $++OOOOOOOOOOOOOOOOO+XX. &&&&",
"&&  OOOOOOO+OOOOOOOOOOXXo.. &&&&",
"&&& +OOXo+O+OO+OO+O+XXoXX.  &&&&",
"&&& .XXXXXXXXXoXXXXXooXX.. &&&&&",
"&&&&   ....XXoXoXXXoX....  &&&&&",
"&&&&&&    .....Xo......   &&&&&&",
"&&&&&&&&&     ......    &&&&&&&&",
"&&&&&&&&&&&&         &&&&&&&&&&&",
"&&&&&&&&&&&&&&&&&&&&&&&&&&&&&&&&",
"&&&&&&&&&&&&&&&&&&&&&&&&&&&&&&&&"
};
