/* XPM */
static char *defendguin_icon[] = {
/* columns rows colors chars-per-pixel */
"32 16 16 1 ",
"  c #191919191919",
". c gray20",
"X c #7F7F00000000",
"o c #7F7F00007F7F",
"O c #7F7F7F7F0000",
"+ c #4C4C4C4C4C4C",
"@ c #666666666767",
"# c #800080008000",
"$ c red",
"% c magenta",
"& c yellow",
"* c gray60",
"= c #B2B2B2B2B2B2",
"- c gray80",
"; c gray90",
": c gray100",
/* pixels */
":::::;::::::::;:::::::::::::::::",
":::::::;:*=:;:::::::::::::::::::",
"*;::-**+@X++ @*#;;;:;:::::::::::",
" #;:@X$oXo@@+.. ..+;::::::::::::",
"#*##o$*$$*ooX+@X+...*;:::;::::::",
"*==o**# $==$$+.++++...+=::::::::",
"*=-=$*X+o-=-;#o+.+.+.....#;:::::",
"=--==#O=*-=-=**##++..+.+. .#=:::",
"-;-*#X;:#---***####@+++....  +-:",
"--=$$@::=*-=**#*#####@@+++...  .",
"-=$=O#::O#=%***####@@@@++@++....",
"*=$*&O*=&&=*#**#####@@@@++++++..",
"o$$=$**$$==**$***##$#@@@@@++....",
" XX+XoX+Xoo@$#@$@o#$o$$$$oX+++X.",
"#XoXXoXXXXXX+X. X.oXo X..XoXX +;",
";+X+@X++@++++++o.+.+.++.+...@=::"
};
