/* XPM */
static char *digikam[] = {
/* columns rows colors chars-per-pixel */
"32 32 60 1 ",
"  c black",
". c #070707070707",
"X c gray4",
"o c #131313131313",
"O c gray9",
"+ c #1B1B1B1B1B1B",
"@ c gray12",
"# c #202020202020",
"$ c gray15",
"% c gray17",
"& c gray18",
"* c #323232323232",
"= c #373737373737",
"- c gray23",
"; c #3F3F3F3F3F3F",
": c #414141414141",
"> c #464646464646",
", c #494949494949",
"< c #4C4C4C4C4C4C",
"1 c #505050505050",
"2 c gray33",
"3 c #5A5A5A5A5A5A",
"4 c gray37",
"5 c gray38",
"6 c gray40",
"7 c #6A6A6A6A6A6A",
"8 c #6F6F6F6F6F6F",
"9 c #727272727272",
"0 c #777777777777",
"q c gray47",
"w c #7E7E7E7E7E7E",
"e c #838383838383",
"r c #848484848484",
"t c gray54",
"y c #8E8E8E8E8E8E",
"u c #929292929292",
"i c gray59",
"p c gray60",
"a c #9D9D9D9D9D9D",
"s c #A2A2A2A2A2A2",
"d c #A4A4A4A4A4A4",
"f c #ACACACACACAC",
"g c gray70",
"h c gray73",
"j c #BCBCBCBCBCBC",
"k c gray76",
"l c #C5C5C5C5C5C5",
"z c #C8C8C8C8C8C8",
"x c #CDCDCDCDCDCD",
"c c #D0D0D0D0D0D0",
"v c gray85",
"b c gray87",
"n c #E1E1E1E1E1E1",
"m c #E6E6E6E6E6E6",
"M c #EAEAEAEAEAEA",
"N c #ECECECECECEC",
"B c gray94",
"V c #F6F6F6F6F6F6",
"C c gray100",
"Z c None",
/* pixels */
"ZZZZZZZZZZr4>:;=-,5ZZZZZZZZZZZZZ",
"ZZZZZZZZr1:5edlgy7<=,ZZZZZZZZZZZ",
"ZZZZZZZr<8kllzzzzlly:;ZZZZZZZZZZ",
"ZZZZZZu5dfgsudffdrudd,=<ZZZZZZZZ",
"ZZZZZs0piphnNuwreMl9yy&*ZZZZZZZZ",
"ZZZZfpiuwlCCCCp2CCCv697@&ZZZZZZZ",
"ZZZZftu8pVCMnCCsCNjCq22#$ZZZZZZZ",
"ZZZhfe0<zCf@+tCdx#X3g-;$X$ZZZZZZ",
"ZZfks01%bC23i-Cd7q0@M%@+ +OZZZZZ",
"ZZhlu4*#NC9  1Cda  =C%.  .@ZZZZZ",
"ZZljr<O$VCB64nCdC0<kC*    @ZZZZZ",
"ZZzf0;.XMCCCCCCdCCCCC$    O ZZZZ",
"O1ue4-++dkkkkkktkkllh#Oooo=clfZZ",
"-dMMMMMMMMMmMmmmmmmmmmmmmBvs075Z",
"8fCCzffghjMCCCCCVCCCCVCCCci6=X& ",
"idVVrkdvBlcVBVBVVVVBVVBBnt3%  # ",
"asmNpMVCVnbnMnnnnnnnbnnng<@  #+ ",
"aiccflMNMCnxxcnmnncxxxzxf&X&>q: ",
"pyjjjjjjjjjjbMr<,<rcjhhhgrqrup4 ",
"prffddddddsbn=@ooX@2ddddddaasd9 ",
"ptgfgdggggxn-O@&=&+ 6pggggggggr ",
"ppsasappppcj$#>dt4,+.idddddfffd.",
"pgVVVVVVVVN7O%2fsr0; ygBBBBBBBk.",
"pjvvvvvvvbny$*10isp4 subnnvbbvc.",
"izBBBBBVVBNj,#:6tsg ,ihVVVVVVVn ",
"isvccvccccvly,@-28 :f2dcccccccdX",
"ipccvcvvvvvldaq638yd,ykvvvvvvvpX",
"ianbnnnnbnbblytyi925udnnnnnnnbaX",
"ipvvvvvvvvvbvcdw8qyydcvvvvcvvvi.",
"iweyriettttrtrtteerrtyutttuytt0o",
":22121<21211112111111111<111<>+ ",
"                                "
};
