/* XPM */
static char *disks[] = {
/* columns rows colors chars-per-pixel */
"32 32 141 2 ",
"   c black",
".  c #0CCD0CCD0CCD",
"X  c #133813381338",
"o  c #1CB61CB61C83",
"O  c #17171D1D2727",
"+  c #1F1F21212626",
"@  c #232323232323",
"#  c #2BEC2BEC2BEC",
"$  c #33DE33DE33DE",
"%  c #3E943E943E94",
"&  c #252531314545",
"*  c #3E3E3F3F4040",
"=  c #454545854484",
"-  c gray30",
";  c #50504E4E4C4C",
":  c #565656565656",
">  c #5B5B58585656",
",  c gray36",
"<  c #639663CA641F",
"1  c #6A036AD16B38",
"2  c #64E56D6D7A7A",
"3  c #760F760F760F",
"4  c #7B7B7B7B7B7B",
"5  c #858586867D7D",
"6  c #676773738888",
"7  c #656579799A9A",
"8  c #69698383ACAC",
"9  c #6A6A8B8BBEBE",
"0  c #75F69413C545",
"q  c #79CF96ECC670",
"w  c #7D7D9999C7C7",
"e  c #838383838383",
"r  c #88888F8F8686",
"t  c #848487878888",
"y  c #8E0E8E0E8E0E",
"u  c #929295958A8A",
"i  c #941394349434",
"p  c #9B459B459B45",
"a  c #A7A79F9F9898",
"s  c #9C9CA7A79999",
"d  c #A3A3AAAA9999",
"f  c #B2B2A7A79C9C",
"g  c #B4B4B5B59E9E",
"h  c #A3BDA3BDA3BD",
"j  c #A8A8A8A8A6A6",
"k  c #ABBFABBFABD3",
"l  c #BBBBBDBDA4A4",
"z  c #ACACAFAFB5B5",
"x  c gray70",
"c  c #BD67BD67BD67",
"v  c #C2C2C6C6A5A5",
"b  c #C1C1CDCDAEAE",
"n  c #CACACD4DB534",
"m  c #CDCDDFDFB5B5",
"M  c #D959D5D5B7B7",
"N  c #D37DDC31BBBB",
"B  c #E439CBF6B3DE",
"V  c #E0E0D0D0B7B7",
"C  c #D3D3EAEABE13",
"Z  c #E6E6F3F3B7B7",
"A  c #ED97F5F5B5B5",
"S  c #E767F272BC3C",
"D  c #ED42F49EB963",
"F  c #F1BEF5C2B41A",
"G  c #82029C9CC545",
"H  c #82BB9DBACA02",
"J  c #8A8AA1A1C7C7",
"K  c #8BE8A447CD58",
"L  c #9D9DAAAAC1C1",
"P  c #9090A7A7CF4F",
"I  c #9595AAAACDCD",
"U  c #9A9AADADCFCF",
"Y  c #95B5ABCBD1F1",
"T  c #9AF0AF59D37D",
"R  c #9D9DB3B3D5D5",
"E  c #A423B0B0C5C5",
"W  c #AD2DB636C6C6",
"Q  c #B5B5BBBBC4C4",
"!  c #B8B8BEBEC0C0",
"~  c #B3B3BBBBCBCB",
"^  c #BABABFBFC8C8",
"/  c #A201B514D6F6",
"(  c #AD02BC66D52A",
")  c #A4A4B7B7D8D8",
"_  c #A7A7B8B8D8D8",
"`  c #AC87BC97DAB5",
"'  c #B1B1BFBFDBDB",
"]  c #BEBEC1C1C7C7",
"[  c #ADADC4C4D0D0",
"{  c #B9B9C3C3D2D2",
"}  c #B535C302DE1D",
"|  c #B7B7D3D3DCDC",
" . c #B9B9C6C6E0E0",
".. c #BCBCCA37E1E1",
"X. c #B433D7D7E767",
"o. c #B939D959E463",
"O. c #B7B7D8D8E8E8",
"+. c #BDBDDADAE8E8",
"@. c #C5DFC693C6F9",
"#. c #CACAC6C6C2C2",
"$. c #CBCBC8C8C6C6",
"%. c #CC6CCC8CCC8C",
"&. c #D0D0CECECBCB",
"*. c #C3C3DADACFCF",
"=. c #C1C1C6C6D1D1",
"-. c #C7C7CECEDADA",
";. c #CFCFD0D0D2D2",
":. c #CDCDD2D2D9D9",
">. c #C0C0DDDDDDDD",
",. c gray83",
"<. c #D2D2D72CDE88",
"1. c #D5D5D9D9DFDF",
"2. c #DCE3DCF9DD0F",
"3. c #EAEAD5D5C3C3",
"4. c #EE6EDC5CCD4D",
"5. c #CACAE6E6C141",
"6. c #CD22EAEAC116",
"7. c #CDCDE1E1CDCD",
"8. c #D1D1E5E5CECE",
"9. c #D5D5E8E8CBCB",
"0. c #CDCDE463D2D2",
"q. c #F2F2E463D959",
"w. c #C343CE4EE3E3",
"e. c #C6C6D0D0E5E5",
"r. c #C2C2DB85E53A",
"t. c #CDCDD6D6E8E8",
"y. c #D47EDCDCE2E2",
"u. c #DBDBDDDDE0E0",
"i. c #D0D0D9D9EAEA",
"p. c #D6D6E3E3EA6A",
"a. c #E4B7E4B7E4B7",
"s. c #EFEFE7E7E0E0",
"d. c #E666E969EB6B",
"f. c #ED11ED29ED2F",
"g. c #F5F5EBEBE2E2",
"h. c #F7F7EFEFE9E9",
"j. c #E6E6EAEAF2F2",
"k. c #F42AF424F419",
"l. c #FCFCF7F7F5F5",
"z. c #FCFCFCA6FC51",
"x. c None",
/* pixels */
"x.x.x.x.x.x.x.x.x.x.x.x.x.x.x.x.x.x.x.x.x.x.x.x.x.x.x.x.x.x.x.x.",
"x.x.x.x.x.x.x.x.x.x.x.x.x.x.x.x.x.x.x.x.x.x.x.x.x.x.x.x.x.x.x.x.",
"x.x.x.x.x.x.x.x.x.x.x.x.x.o o o x.x.x.x.x.x.x.x.x.x.x.x.x.x.x.x.",
"x.x.x.x.x.x.x.x.x.  # < s z x j t : . x.x.x.x.x.x.x.x.x.x.x.x.x.",
"x.x.x.x.x.x.x.x.% i a.k.k.f.f.f.O.| g = x.x.x.x.x.x.x.x.x.x.x.x.",
"x.x.x.x.x.x.. , ;.k.k.k.k.k.f.p.X.9.F v $ x.x.x.x.x.x.x.x.x.x.x.",
"x.x.x.x.x.X i f.z.k.k.k.f.f.f.r.0.F A 6.s o x.x.x.x.x.x.x.x.x.x.",
"x.x.x.x.. 3 f.k.k.k.k.f.f.f.p.| D A 6.5.n > x.x.x.x.x.x.x.x.x.x.",
"x.x.x.x.3 d.k.k.k.k.k.f.f.d.+.9.Z 6.N B B d   x.x.x.x.x.x.x.x.x.",
"x.x.x.@ 1.l.k.k.k.k.f.2.c ! 7.Z 6.M B B q.&.  x.x.x.    x.x.x.x.",
"x.x.. i z.k.k.k.k.a.h y p p u b V 3.g.l.,.j + O & 2 c @.- x.x.x.",
"x.x.# %.k.k.k.k.a.k i y 1 y i f s.$.t < 2 6 7 8 9 H e.a.x x.x.x.",
"x.x.3 k.k.k.k.f.$.i 3 X   $ < < < t W  .` _ R R / T U z 3 x.x.x.",
"x.  h k.k.k.f.j.k i % x.o 3 j @.j.i.w..... .} ` / T U ] p x.x.x.",
"x.  ,.k.k.l.l.l.j p : X < 2.k.f.^ t.i.t.w...} _ T P I y.k x.x.x.",
"x.X a.z.z.z.z.q.f i i 4 < a.c a.=.e.e.w...} _ / T K I 1.x x.x.x.",
"x.X 2.z.h.4.B M m d i i < a.h 2.^  . . .' ` / T P H J 1.k x.x.x.",
"x.  #.4.B B N 6.D *.@.@.< a.d.f.~ } ' ` _ / T P P H H <.k x.x.x.",
"x.x.e B M 6.C F 8.r.a.2.< a.h.f.W ) / R T T Y H H q H :.k x.x.x.",
"x.x.; n 6.6.F S o.y.a.2.< a.d.f.E T T Y Y P H H q 0 G :.j x.x.x.",
"x.x.X r C F D >.r.p.2.2.< f.f.f.L K K H H H w 0 0 H ( 2.j x.x.x.",
"x.x.x.@ l A 0.X.y.2.2.2.< d.a.f.L H H G H H Y ' { Q %.2.h x.x.x.",
"x.x.x.x.@ 5 [ ..2.2.2.,.1 a.d.f.U H T ( -.2.,.,.%.c x %.h x.x.x.",
"x.x.x.x.x.. * 1 p d p 4 < d.s.a.u.y.,.2.2.a.k.k.a.c z %.a x.x.x.",
"x.x.x.x.x.x.x.x.x.x.x.x.1 a.a.2.2.;.f.a.@.a.f.h.a.x h @.p x.x.x.",
"x.x.x.x.x.x.x.x.x.x.x.x.1 a.a.2.2.;.h.2.@.a.j.f.2.j h @.p x.x.x.",
"x.x.x.x.x.x.x.x.x.x.x.x.< a.2.2.2.;.f.2.c 2.a.a.,.i 3 e = x.x.x.",
"x.x.x.x.x.x.x.x.x.x.x.x.@ x 2.,.,.%.f.2.,.a.s.a.h $ X x.x.x.x.x.",
"x.x.x.x.x.x.x.x.x.x.x.x.x.X i %.@.x a.@.j 6 = X x.x.x.x.x.x.x.x.",
"x.x.x.x.x.x.x.x.x.x.x.x.x.x.X ; = # = # x.x.x.x.x.x.x.x.x.x.x.x.",
"x.x.x.x.x.x.x.x.x.x.x.x.x.x.x.x.x.x.x.x.x.x.x.x.x.x.x.x.x.x.x.x.",
"x.x.x.x.x.x.x.x.x.x.x.x.x.x.x.x.x.x.x.x.x.x.x.x.x.x.x.x.x.x.x.x."
};
