/* XPM */
static char *disksearch[] = {
/* columns rows colors chars-per-pixel */
"32 32 239 2 ",
"   c #014100000141",
".  c #0AB50AB5045A",
"X  c #0D0D00C10909",
"o  c #124502690C3F",
"O  c #109010900687",
"+  c #191918980D8E",
"@  c #161607071010",
"#  c #1E9E03841090",
"$  c #2464098A1495",
"%  c #277D0D631A1A",
"&  c #39390D0D1A1A",
"*  c #282828281369",
"=  c #3B3B0E0E2222",
"-  c #3CE710BB20CB",
";  c #37371A1A2828",
":  c #367635B62767",
">  c #48480F0F2424",
",  c #4646164929F7",
"<  c #55D615152424",
"1  c #55551C723A90",
"2  c #64E509092BAC",
"3  c #7B7B00002F2F",
"4  c #646416962BAC",
"5  c #6C6C1B1B3333",
"6  c #444420202828",
"7  c #4A4A23233333",
"8  c #494939063704",
"9  c #5C5C31313F3F",
"0  c #626220202E2E",
"q  c #6C6C2AAB3838",
"w  c #656531313737",
"e  c #464645C628A9",
"r  c #437642752CFA",
"t  c #484847473737",
"y  c #4CA24B4B33DE",
"u  c #4BB249B03AD4",
"i  c #569655D636F7",
"p  c #58D954D53A3A",
"a  c #5BB15B5B3C92",
"s  c #606060603B3B",
"d  c #575720204848",
"f  c #63632B2B4242",
"g  c #6A6A39064AB1",
"h  c #787832B34949",
"j  c #7B7B2F2F5252",
"k  c #6F6F37375252",
"l  c #5701489E4AF5",
"z  c #5D5D5CB243EE",
"x  c #585855154949",
"c  c #5F5F4E4E5050",
"v  c #6D6D40404BCC",
"b  c #7777434350D1",
"n  c #7777494957AD",
"m  c #636356AC5555",
"M  c #6DEE59DA5E5E",
"N  c #79B954D55B1B",
"B  c #632362E24242",
"V  c #666665654848",
"C  c #6C6C6C164B4B",
"Z  c #686866665F5F",
"A  c #72F26EEF5959",
"S  c #782276765D07",
"D  c #70F158D962E3",
"F  c #777764BA62B8",
"G  c #86DC03AE33DE",
"H  c #939308083838",
"J  c #A44E08B33BE6",
"K  c #A0A015153F3F",
"L  c #95952C2C3B3B",
"P  c #979734343C3C",
"I  c #A7A737B83CBD",
"U  c #B7373D3D3EBF",
"Y  c #A0A01B1B4141",
"T  c #B93916164343",
"R  c #8A3435354B4B",
"E  c #8A8A3D3D5555",
"W  c #AC2C292947C8",
"Q  c #BB3B20A14646",
"!  c #B0B039BA5151",
"~  c #C7C71A9A4545",
"^  c #D9D927274545",
"/  c #D5D52BAC4848",
"(  c #CFCF35354C4C",
")  c #E26236364747",
"_  c #8383424254D5",
"`  c #92124ECF4FD0",
"'  c #913B46465BB1",
"]  c #A953494947F2",
"[  c #B3B3474744C5",
"{  c #BBBB49495151",
"}  c #8C0C4ACA6767",
"|  c #93934D4D6262",
" . c #8B8B58986767",
".. c #9E9E52A8640E",
"X. c #941353537474",
"o. c #A54F4CA26EC4",
"O. c #A828545465E6",
"+. c #B7B751517272",
"@. c #83036D6D67E8",
"#. c #88886D6D7878",
"$. c #941365257939",
"%. c #999975757A7A",
"&. c #A8FE6969640E",
"*. c #ACAC64BA731D",
"=. c #AC2C67E879FA",
"-. c #B6B668687434",
";. c #ABAB74747373",
":. c #B575763679B9",
">. c #C70649094444",
",. c #D8D85A5A4A4A",
"<. c #D75642C251D2",
"1. c #EA6A47C84DCE",
"2. c #E7E74D4D5656",
"3. c #EA6A5A5A58D9",
"4. c #C1C160604F4F",
"5. c #DC5C60E14D4D",
"6. c #CC4C6B6B5555",
"7. c #DC5C65655555",
"8. c #C9C977775D5D",
"9. c #D3287A7A5BB1",
"0. c #E7E769EA5858",
"q. c #E1E172725B5B",
"w. c #CDCD5F5F7878",
"e. c #C2C263636C6C",
"r. c #E94F76DD6734",
"t. c #E7E77822751F",
"y. c #840384036565",
"u. c #95148A8A6DEE",
"i. c #909090906E6E",
"p. c #D9D98D0D6A6A",
"a. c #D1D1888875F6",
"s. c #DA84939377CD",
"d. c #DCDC97977A7A",
"f. c #DE4B9BC07C33",
"g. c #E76784846C6C",
"h. c #EA9488DE7878",
"j. c #EC9694947CD2",
"k. c #F17190907979",
"l. c #9B9B5F5F8787",
"z. c #A7A75A048832",
"x. c #97176BEC8383",
"c. c #9A9A7A7A8484",
"v. c #A6A661618282",
"b. c #ADAD7E7E8181",
"n. c #BA0F77218BE1",
"m. c #AEAE6C6C9A9A",
"M. c #BFBF7E7E9797",
"N. c #B8B87676A9A9",
"B. c #C9C975F68A0A",
"V. c #CF4F71F28F0F",
"C. c #D5D578789090",
"Z. c #D42975CB9A44",
"A. c #CECE7F7FAAAA",
"S. c #D5D57E7EB2B2",
"D. c #B3F386058A0A",
"F. c #BABA82829191",
"G. c #A2A29D9D9797",
"H. c #B1B191919F9F",
"J. c #A7A78D8DA0A0",
"K. c #BCBC8202A5A5",
"L. c #BA3AAA2AB736",
"P. c #C71C852F8686",
"I. c #D62B89DF8989",
"U. c #DB859A9A8AE0",
"Y. c #D0508D8D9919",
"T. c #D0D093139B9B",
"R. c #D9A696C99932",
"E. c #F0F08E0E8808",
"W. c #ECEC9D9D8585",
"Q. c #F1F19D1D8484",
"!. c #E6E698989898",
"~. c #F2729B1B9696",
"^. c #DFDFA0A08282",
"/. c #DD5DA1219494",
"(. c #E1E1A44E8BE1",
"). c #EEEEA1A18A0A",
"_. c #E3B0A9A9942D",
"`. c #E38DAD029C9C",
"'. c #F2F2AD6D94D4",
"]. c #F2F2A5A59B9B",
"[. c #E6E6B1B19E1E",
"{. c #F473B1F19858",
"}. c #F59FBA649EF4",
"|. c #C8888848AA2A",
" X c #D1D187DDACAC",
".X c #D62B9943A6A6",
"XX c #CF4F8B0BB535",
"oX c #D3538403B3B3",
"OX c #D3128B4BBBFB",
"+X c #CDCD9393BABA",
"@X c #E5659595AA2A",
"#X c #E0E09E9EB7B7",
"$X c #DA5AA323A7A7",
"%X c #D8D8B1B1ADAD",
"&X c #D9D9A3A3B0B0",
"*X c #E9BEA953AAAA",
"=X c #F373AA6AA6E6",
"-X c #E726B3B3A2E2",
";X c #E8E8B5B5A4FA",
":X c #EA3FBA0FA751",
">X c #E6E6B64FAD13",
",X c #EB40BD3DAB00",
"<X c #F595BD5DA383",
"1X c #EFEFAE58BB10",
"2X c #E969B9B9B575",
"3X c #F3F3B761B409",
"4X c #F348B6B6BC11",
"5X c #ECECC242AEAE",
"6X c #EE18C4EFB3DE",
"7X c #EF6FC949B4B4",
"8X c #EE6EC443BABA",
"9X c #F0F0C61BB207",
"0X c #F0F0CA97B5E8",
"qX c #F18ACBCBBD8A",
"wX c #F2F2D151BC3C",
"eX c #D27C8CE2C1C1",
"rX c #D3D39494C3C3",
"tX c #CACAA852C872",
"yX c #C5C5B0B0C5C5",
"uX c #D8D8BABAD858",
"iX c #E58FB761C872",
"pX c #E5E5BA3AD353",
"aX c #E5E5BFBFD8D8",
"sX c #D655C1C1CDCD",
"dX c #F49ED52AC419",
"fX c #F7A1DADAC71C",
"gX c #F8F8DD1CCA8A",
"hX c #E767C242DB5B",
"jX c #F1F1CECEDFDF",
"kX c #FB7BE2E2CDCD",
"lX c #FC51E53AD126",
"zX c #F4F4D4D4E5E5",
"xX c #F449DCDCEEEE",
"cX c #EDEDE0E0E9E9",
"vX c #F9B9E827F5F5",
"bX c #FBC8ED1FFA2C",
"nX c #FED3F4C9FE53",
"mX c #FFFFF8F8FFFF",
"MX c None",
/* pixels */
"MXMXMXMXMXMXMXMXMXMXMXMXMXMXMXMXMXMXMXMXMXMXMXMXMXMXMXMXMXMXMXMX",
"MXMXMXMXMXMXMXMXMXMX, f k k 1 - MXMXMXMXMXMXMXMXMXMXMXMXMXMXMXMX",
"MXMXMXMXMXMXMX% v ;.$X,X5X,XU.a.` w $ MXMXMXMXMXMXMXMXMXMXMXMXMX",
"MXMXMXMXMXMX6 &./.;X9XwX7X,X`.U.j.s.&.7 X MXMXMXMXMXMXMXMXMXMXMX",
"MXMXMXMX$ q 8.f._.-X9X0X7X,X/.f.^.^.[./.N % MXMXMXMXMXMXMXMXMXMX",
"MXMXMXMX0 ] 9.p.(.[.5X9X7X,X_.f.^.`.;X7X5X .o MXMXMXMXMXMXMXMXMX",
"MXMXMX< P I 4.p.d._.5X9X7X:X^.f.^.-X7XwXgXdXn o MXMXMXMXMXMXMXMX",
"MXMX& I U I [ 4.p.(.:X9X9X-Xf.d.[.,XwXfXkXlX%X7 X MXMXMXMXMXMXMX",
"MXMXP 5.,.>.U U 6.p.[.,X,X_.a.j.`.2XdXgXlXlXkXD.; @ MXMXMXMXMXMX",
"MX- 6.q.7.5.>.>.>.p.U.&XiXiXI.P.-X8XdXgXgXgXgX2Xf ; MXMXMXMXMXMX",
"MXh h.h.g.r.q.5.>.{ iXbXnXmXbXaX&X8XdX8XqX8X6X6X .A $ MXMXMXMXMX",
"MXO.).W.j.j.g.r.7.C.nXbXaXhXbXnXpX%X2X2X2X>X>X>X=.F k X MXMXMXMX",
"MX:.{.{.'.'.).).R.jXbX|._ @.tXbXxX XR.T..XR.R.R.*.N %.; MXMXMXMX",
"MXP.<X<X<X<X<X<X*XvXxX..| L.yXvXcXc.u.S F @.D.I.-.b b.g MXMXMXMX",
"MXa.<X<X<X}.}.}.!.zXvXN.J.L.tXsXV s z t x C B F O.v b._ MXMXMXMX",
"MX:.{.'.'.).Q.j.t.#XnXxXuXuXyXS y l M D F x B a N v :.' MXMXMXMX",
"MXE Q.k.k.r.0.3.<.! pXbXmXnXG.A c M. X X|.H.c i r n *.| MXMXMXMX",
"MX1 r.r.0.3.1.( W W w.#XjXuXz r %.Y. XXX+X+XD.u e N *.E MXMXMXMX",
"MXMX! 1.) / Q K Y ( t.~.*XR.u : B.Z. XoX+XrXK.m i N =.k MXMXMXMX",
"MXMX< / ~ T H G Q <.h.].=X*Xr : V.Z.A.XXeXrXrXM s  .v.7 MXMXMXMX",
"MXMXMX4 J G 3 J / 2.E.=X3X*Xr r X.Z.oXOXOXeX$.Z p x.} % MXMXMXMX",
"MXMXMX# 2 3 J ~ ) 3.E.=X3X*Xu V l n.S.XXeXz.m C l K.d MXMXMXMXMX",
"MXMXMXMX$ 2 ~ ^ 1.t.~.=X4X1Xn.y a u #.m.x.M S e l x.X MXMXMXMXMX",
"MXMXMXMXMX# 4 / 3.t.~.1X4X4X@X=.y e y a B u u : C x 8 MXMXMXMXMX",
"MXMXMXMXMXMXo = R e.!.=X4X1X@XC.O.8 8 9 k l.N.D S i.: O MXMXMXMX",
"MXMXMXMXMXMXMXo > 5 R | X.X.} _ g b ' o.z.m.z.8 + V y.*   MXMXMX",
"MXMXMXMXMXMXMXMXX , L ] &.;.b.D.F.B.-.+.o.j o     O z i.* MXMXMX",
"MXMXMXMXMXMXMXMXMXMX- f O.:.T.$XT.B.o.R = # MX      + a y.* MXMX",
"MXMXMXMXMXMXMXMXMXMXMXMXMX, 1 d 1 , $ MXMXMXMXMXMXMX  . B i . MX",
"MXMXMXMXMXMXMXMXMXMXMXMXMXMXMXMXMXMXMXMXMXMXMXMXMXMXMXMXO O MXMX",
"MXMXMXMXMXMXMXMXMXMXMXMXMXMXMXMXMXMXMXMXMXMXMXMXMXMXMXMXMXMXMXMX",
"MXMXMXMXMXMXMXMXMXMXMXMXMXMXMXMXMXMXMXMXMXMXMXMXMXMXMXMXMXMXMXMX"
};
