/* XPM */
static char *earth[] = {
/* columns rows colors chars-per-pixel */
"32 32 189 2 ",
"   c #000001010000",
".  c #04040A0A0404",
"X  c #000001010808",
"o  c #0B0B0E0E0C0C",
"O  c #000015150101",
"+  c #000007071717",
"@  c #0C0C0C0C1111",
"#  c #000000001F1F",
"$  c #00000E0E1D1D",
"%  c #01011E1E1E1E",
"&  c #161619191616",
"*  c #161616161B1B",
"=  c #000022220000",
"-  c #000038380000",
";  c #0A0A36360A0A",
":  c #0D0D39390C0C",
">  c #000038381313",
",  c #242420201D1D",
"<  c #000000002D2D",
"1  c #22221D1D2222",
"2  c #000032322020",
"3  c #00002B2B3939",
"4  c #27272B2B2727",
"5  c #2C2C29292C2C",
"6  c #272738382727",
"7  c #333335353232",
"8  c #3A3A38383535",
"9  c #3A3A34343A3A",
"0  c #030343430303",
"q  c #000048480000",
"w  c #121244440F0F",
"e  c #000057570000",
"r  c #00005D5D0C0C",
"t  c #12125A5A1212",
"y  c #000066660000",
"u  c #00006B6B0000",
"i  c #000070700000",
"p  c #00007B7B0202",
"a  c #000079791010",
"s  c #000040402121",
"d  c #3A3A44443A3A",
"f  c #00006A6A2424",
"g  c #000067672E2E",
"h  c #000072723030",
"j  c #000000004747",
"k  c #000002024B4B",
"l  c #000000005151",
"z  c #00000D0D5555",
"x  c #000028284B4B",
"c  c #252525254141",
"v  c #010104046565",
"b  c #000000006969",
"n  c #000000007373",
"m  c #00000F0F7575",
"M  c #000021216B6B",
"N  c #00003A3A6666",
"B  c #000041414141",
"V  c #00004B4B4C4C",
"C  c #00004C4C5252",
"Z  c #000046465B5B",
"A  c #00007E7E4747",
"S  c #00004C4C6B6B",
"D  c #000049497171",
"F  c #000042427C7C",
"G  c #000053537676",
"H  c #00006E6E6F6F",
"J  c #000078786262",
"K  c #00006D6D7070",
"L  c #5A5A5A5A5656",
"P  c #595955555959",
"I  c #5C5C5B5B5B5B",
"U  c #646463636464",
"Y  c #6E6E6D6D6E6E",
"T  c #737374747373",
"R  c gray49",
"E  c #000081810101",
"W  c #000089890000",
"Q  c #00008B8B0F0F",
"!  c #000093930000",
"~  c #00009A9A0505",
"^  c #0000BDBD0303",
"/  c #0000B6B60D0D",
"(  c #0000ACAC1A1A",
")  c #0000B0B01515",
"_  c #0000B8B81313",
"`  c #0000B8B81919",
"'  c #000097972020",
"]  c #00009C9C2E2E",
"[  c #000097973737",
"{  c #00009B9B3535",
"}  c #000096963838",
"|  c #0000A4A42525",
" . c #0000A5A52A2A",
".. c #0000C2C20101",
"X. c #0000CCCC0101",
"o. c #0000D7D71616",
"O. c #0000E4E40505",
"+. c #0000E8E80000",
"@. c #0000F1F10606",
"#. c #0000FAFA0000",
"$. c #0000E6E63232",
"%. c #000095954F4F",
"&. c #000083835353",
"*. c #000088885D5D",
"=. c #0000A9A95151",
"-. c #000080807474",
";. c #000087877E7E",
":. c #00008F8F7A7A",
">. c #000096967777",
",. c #0000B0B06E6E",
"<. c #0404FFFF4444",
"1. c #0000E5E56565",
"2. c #6767C4C47171",
"3. c #000000008383",
"4. c #000000009393",
"5. c #00001B1B9D9D",
"6. c #000028288585",
"7. c #000022228F8F",
"8. c #000039399595",
"9. c #00000707A1A1",
"0. c #00000000ABAB",
"q. c #00000D0DABAB",
"w. c #00001717A0A0",
"e. c #00001919A5A5",
"r. c #00000202B4B4",
"t. c #00000202BEBE",
"y. c #00003F3FABAB",
"u. c #00002525B5B5",
"i. c #00003B3BB1B1",
"p. c #00003333BBBB",
"a. c #00005D5D8585",
"s. c #000052528D8D",
"d. c #000042429191",
"f. c #00004F4F9696",
"g. c #00004E4E9898",
"h. c #000053539292",
"j. c #00004444A7A7",
"k. c #00004141A9A9",
"l. c #00000202C1C1",
"z. c #00000000CECE",
"x. c #00000000D1D1",
"c. c #00000D0DD4D4",
"v. c #00000101DBDB",
"b. c #00001E1ED7D7",
"n. c #00001B1BDADA",
"m. c #00002424CECE",
"M. c #00002424D1D1",
"N. c #00002929DEDE",
"B. c #00000303E2E2",
"V. c #00000000EBEB",
"C. c #00000F0FECEC",
"Z. c #00001313E6E6",
"A. c #00001919E0E0",
"S. c #00000202F4F4",
"D. c #00000000FEFE",
"F. c #00002323EBEB",
"G. c #00003030FDFD",
"H. c #00004040C4C4",
"J. c #07075454FDFD",
"K. c #0B0B90909C9C",
"L. c #0404A7A7A7A7",
"P. c #0000BABAA7A7",
"I. c #2121DADA8B8B",
"U. c #3333DDDD8181",
"Y. c #1C1CF9F9BCBC",
"T. c #00008C8CD3D3",
"R. c #00008686E7E7",
"E. c #00009999EDED",
"W. c #0F0FF8F8D2D2",
"Q. c #0000CECEECEC",
"!. c #1F1FCFCFF6F6",
"~. c #0000D1D1FFFF",
"^. c #0000DDDDFFFF",
"/. c #1F1FD0D0F8F8",
"(. c #0303E7E7E7E7",
"). c #0808FFFFFFFF",
"_. c #1717FFFFFFFF",
"`. c #3535EFEFF1F1",
"'. c #5555CACACACA",
"]. c #7575E1E1CFCF",
"[. c #5151EEEEEEEE",
"{. c #4F4FE7E7F0F0",
"}. c #4040F3F3F3F3",
"|. c #6E6EE0E0E0E0",
" X c #6161EBEBE9E9",
".X c #848484848484",
"XX c #8585CECED8D8",
"oX c #9393D3D3D5D5",
"OX c None",
/* pixels */
"OXOXOXOXOXOXOXOXOXOXOXOXOXOXOXOXOXOXOXOXOXOXOXOXOXOXOXOXOXOXOXOX",
"OXOXOXOXOXOXOXOXOXOXOXOXOXOXOXOXOXOXOXOXOXOXOXOXOXOXOXOXOXOXOXOX",
"OXOXOXOXOXOXOXOXOXOXOXOXOXOXOXOXOXOXOXOXOXOXOXOXOXOXOXOXOXOXOXOX",
"OXOXOXOXOXOXOXOXOXOXOXOX              OXOXOXOXOXOXOXOXOXOXOXOXOX",
"OXOXOXOXOXOXOXOXOXOXOXB V V V V V x j < OXOXOXOXOXOXOXOXOXOXOXOX",
"OXOXOXOXOXOXOXOXX X % L.(.(.(.(.(.R.c.k .   OXOXOXOXOXOXOXOXOXOX",
"OXOXOXOXOXOXOX# 3.8.K.'.[.).}. X_.^.E.A y q = OXOXOXOXOXOXOXOXOX",
"OXOXOXOXOXOX< k u.T.W.].XX`.|.XX!.~.Q.,.' E q O OXOXOXOXOXOXOXOX",
"OXOXOXOXOXX 3.u.=.$.<.Y.{.oX X/.J.G.G.N.d.a p e O OXOXOXOXOXOXOX",
"OXOXOXOXOX  Z ;.o.+.O.1.I.2.U.P.F.D.D.D.c.F h u O 1 OXOXOXOXOXOX",
"OXOXOXOXOX+ Q @.X.^ ........X.{ M.D.D.D.D.C.S u = 7 T OXOXOXOXOX",
"OXOXOXOXj 9.%.#.X.^ ^ ........] M.D.D.D.D.D.D p y w 4 OXOXOXOXOX",
"OXOXOX  l B.>.#.X...^ } } ^ X.] M.D.D.D.D.D.S E g 2   7 OXOXOXOX",
"OXOXOX  l B.:.@.X...) k.y.( X.{ m.D.D.D.D.D.S f 7.v o L .XOXOXOX",
"OXOXOX  k B.H.-._ X.) p.Z.g.{ | m.D.D.D.S.v.5.6.t.n @ I .XOXOXOX",
"OXOXOX  k V.D.n.&.` ( i.D.D.a.&.b.D.D.D.V.l.q.w.5.z @ I .XOXOXOX",
"OXOXOX  j V.D.S.b.H | i.D.D.Z.b.S.D.D.D.V.l.N f f > o P .XOXOXOX",
"OXOXOX  k V.D.D.D.f._ J h.h.b.D.D.D.D.D.S.l.V W W q o P .XOXOXOX",
"OXOXOX  j v.D.D.C.a.^ ..^ / a.C.D.D.D.D.V.l.C E p 0 & U .XOXOXOX",
"OXOXOXOX< k r.A.K  ......... .H n.D.D.B.x.t.C i - 6 I T .XOXOXOX",
"OXOXOXOXOX  4.M. .X.........X.| m.D.S.x.l.t.C u O 9 .X.XOXOXOXOX",
"OXOXOXOXOXX 4.m.[ ..^ ..^ ....[ m.D.D.x.l.r.C y O 9 R OXOXOXOXOX",
"OXOXOXOXOXOXl m d.*.........&.j.C.S.v.z.e.Z s ; d U R OXOXOXOXOX",
"OXOXOXOXOXOXOX< r.F ~ ^ ..^ s.D.S.B.t.0.M r : 5 Y .X.XOXOXOXOXOX",
"OXOXOXOXOXOXOXOX< $ - ! X.^ G x.x.x.r.l + O d Y R .XOXOXOXOXOXOX",
"OXOXOXOXOXOXOXOXOX, 8 t u y 3 b b b v c 8 9 U .X.XOXOXOXOXOXOXOX",
"OXOXOXOXOXOXOXOXOXOXT 5 . o o @ @ @ * I .XR R .XOXOXOXOXOXOXOXOX",
"OXOXOXOXOXOXOXOXOXOXOXOX9 P L L L L I T .XOXOXOXOXOXOXOXOXOXOXOX",
"OXOXOXOXOXOXOXOXOXOXOXOXOX.X.X.X.X.X.X.XOXOXOXOXOXOXOXOXOXOXOXOX",
"OXOXOXOXOXOXOXOXOXOXOXOXOXOXOXOXOXOXOXOXOXOXOXOXOXOXOXOXOXOXOXOX",
"OXOXOXOXOXOXOXOXOXOXOXOXOXOXOXOXOXOXOXOXOXOXOXOXOXOXOXOXOXOXOXOX",
"OXOXOXOXOXOXOXOXOXOXOXOXOXOXOXOXOXOXOXOXOXOXOXOXOXOXOXOXOXOXOXOX"
};
