/* XPM */
static char *eric[] = {
/* columns rows colors chars-per-pixel */
"32 32 31 1 ",
"  c #0E0E0D0D0C0C",
". c #242420201E1E",
"X c #464635352D2D",
"o c #555543433D3D",
"O c #75754A4A3535",
"+ c #77775B5B3E3E",
"@ c #5E5E54544141",
"# c #7F7F6A6A4A4A",
"$ c #9A9A5B5B4040",
"% c #89897A7A5454",
"& c #88887B7B7979",
"* c #A2A26D6D4747",
"= c #B3B370704D4D",
"- c #BBBB7E7E5757",
"; c red",
": c #9E9E90906969",
"> c #A6A683835D5D",
", c #BCBC90907676",
"< c #C9C990906868",
"1 c #9C9C94949696",
"2 c #AEAEA1A18A8A",
"3 c #B9B9B2B2ADAD",
"4 c #C9C9A1A18282",
"5 c #DEDEA2A28484",
"6 c #D7D7B4B49B9B",
"7 c #CCCCBFBFB4B4",
"8 c #D7D7D0D0CCCC",
"9 c #E0E0DEDEDDDD",
"0 c #ECECE8E8E8E8",
"q c #F1F1F0F0F0F0",
"w c gray100",
/* pixels */
"wwwwwwwwwwwwwwwwqqw8990wwwwwwwww",
"wwwwwwwwwwwwwwwq887@@@18wwwwwwww",
"wwwwwwwwwwwwwww02#X...X18qwwwwww",
"wwwwwwwwwwwwww02@.   . .@3qwwwww",
"wwwwwwwwwwwwq8&o       ..1qwwwww",
"wwwwwwwwwwwq3@X.   .X$. X&9wwwww",
"wwww;www;ww8@..   ...*@o$o1wwwww",
"www;wwwww;w3X.@+. ...*55-$3qwwww",
"www;wwwww;w8o&-OXXOO&,<=$X&9wwww",
"wwww;www;wq&o4$OX$<$$$$$OO*wwwww",
"wwwww;;;wwq731*$$*--=$O$$O6wwwww",
"wwwwwwwwwwwq#*<<$$==-=$$=-9wwwww",
"wwwwwwwwwww03&<-=$$=<-=O=<qwwwww",
"www;;;;;;;www75$--$$=-$$$6wwwwww",
"wwwwwwwwwwwwq55-==,,*-=-*<wwwwww",
"wwwwwwwwwwww85<$*#-4<=$*->wwwwww",
"wwww;;www;ww6<-7q*>->+>:*4wwwwww",
"www;ww;w;www00q13%:>%%@7wwwwwwww",
"www;ww;;wwwwq07@222:%:#:wwwwwwww",
"www;;;;;;;wwq3&%2:::::>>wwwwwwww",
"wwwwwwwwwwwww2o::::%%%#%wwwwwwww",
"wwwwwwwwwwww03@%##%%%#%#9wwwwwww",
"www;wwwww;ww91@:#@@#@@@+:wwwwwww",
"www;ww;ww;ww911::%@o@@o%%wwwwwww",
"www;ww;ww;wwwq81::%@.Xo#:wwwwwww",
"www;;;;;;;wwqq9%@#@% X@+7wwwwwww",
"wwwwwwwwwwwwwq3:%%@..X@@3wwwwwww",
"wwwwwwwwwwwqq932%%@.X@O#*6qwwwww",
"wwwwwwwwwwwwq9322:>@X@+#4,4wwwww",
"wwwwwwwwwwwqqq322>,>1&+>>-,qwwww",
"wwwwwwwwwwwwwq32,-<-7988660wwwww",
"wwwwwwwwwwwwwwq764470qwqwqwwwwww"
};
