/* XPM */
static char *extrema[] = {
/* columns rows colors chars-per-pixel */
"32 32 128 2 ",
"   c #2C2C1B1B1C1C",
".  c gray13",
"X  c gray17",
"o  c #34342D2D2D2D",
"O  c #343432323232",
"+  c #3C3C33333333",
"@  c #3D3D3C3C3C3C",
"#  c #43433D3D3D3D",
"$  c #4A4A3C3C4848",
"%  c #3F3F40404040",
"&  c gray26",
"*  c #4A4A44444545",
"=  c #4C4C4C4C4C4C",
"-  c #53534C4C4C4C",
";  c #53534F4F5050",
":  c gray32",
">  c #5A5A56565656",
",  c #5D5D5D5D5E5E",
"<  c #62625C5C5C5C",
"1  c #69695C5C5D5D",
"2  c #77775C5C5C5C",
"3  c #626262626262",
"4  c #686867676868",
"5  c #6A6A6A6A6A6A",
"6  c #767660606060",
"7  c #747469696969",
"8  c #7A7A66667171",
"9  c gray45",
"0  c #7D7D73737373",
"q  c #767672727B7B",
"w  c #777778787878",
"e  c #7B7B7B7B7B7B",
"r  c #8E8E6E6E6E6E",
"t  c #8C8C78787878",
"y  c #868679798383",
"u  c #90907E7E8585",
"i  c #848484848484",
"p  c #8B8B8C8C8C8C",
"a  c #9A9A83838383",
"s  c #9C9C8E8E8D8D",
"d  c #939393939393",
"f  c #989897979797",
"g  c #9A9A9A9A9A9A",
"h  c #B5B580808B8B",
"j  c #A5A59D9D9D9D",
"k  c #ACAC9C9C9C9C",
"l  c #9F9FA1A1A9A9",
"z  c #A0A0A0A0A0A0",
"x  c #A7A7A8A8A8A8",
"c  c gray67",
"v  c #B0B0A8A8A9A9",
"b  c #ABABACACB3B3",
"n  c #B4B4B4B4B4B4",
"m  c #BBBBBBBBBBBB",
"M  c #C9C990909999",
"N  c #CCCCB9B9BEBE",
"B  c #EEEEAFAFBCBC",
"V  c #F6F6B9B9BFBF",
"C  c #D5D5BDBDC7C7",
"Z  c #E0E0B9B9C1C1",
"A  c #F3F3BABAC3C3",
"S  c #C3C3C3C3C4C4",
"D  c gray80",
"F  c #D4D4CECECDCD",
"G  c #D5D5CCCCD8D8",
"H  c #DEDEC8C8DADA",
"J  c LightGray",
"K  c gray86",
"L  c #EDEDC0C0CFCF",
"P  c #FDFDC4C4C4C4",
"I  c #F2F2C4C4CFCF",
"U  c #FCFCCCCCCCCC",
"Y  c #EBEBC2C2D3D3",
"T  c #EEEEC8C8D6D6",
"R  c #EDEDCBCBDADA",
"E  c #F3F3C8C8D2D2",
"W  c #F8F8CDCDD2D2",
"Q  c #E5E5D4D4D9D9",
"!  c #EAEADADADEDE",
"~  c #FDFDD2D2D2D2",
"^  c #F4F4D4D4DDDD",
"/  c #F7F7D9D9DEDE",
"(  c #FDFDDCDCDDDD",
")  c #FEFEE0E0DFDF",
"_  c #DCDCD6D6E7E7",
"`  c #DADAD9D9E5E5",
"'  c #EDEDD4D4E4E4",
"]  c #EFEFDADAE7E7",
"[  c #E3E3D7D7EBEB",
"{  c #E7E7D8D8EEEE",
"}  c #EDEDDCDCECEC",
"|  c #F2F2D5D5E0E0",
" . c #F2F2DADAE5E5",
".. c #F8F8DEDEE3E3",
"X. c #F1F1DDDDE9E9",
"o. c #E8E8DCDCF1F1",
"O. c #DFDFE0E0E0E0",
"+. c #E4E4E4E4E4E4",
"@. c #EFEFE1E1EFEF",
"#. c #ECECECECECEC",
"$. c #F4F4E3E3E7E7",
"%. c #FDFDE2E2E3E3",
"&. c #F6F6E6E6EEEE",
"*. c #FAFAE6E6E9E9",
"=. c #F7F7E9E9EFEF",
"-. c #FEFEEBEBEBEB",
";. c #E2E2E2E2F0F0",
":. c #EEEEE3E3F2F2",
">. c #EEEEE8E8F7F7",
",. c #EDEDECECFCFC",
"<. c #F3F3E6E6F1F1",
"1. c #F4F4EAEAF4F4",
"2. c #FAFAEDEDF1F1",
"3. c #F1F1EDEDFAFA",
"4. c #EFEFF0F0FFFF",
"5. c #F3F3F3F3F3F3",
"6. c #FDFDF3F3F4F4",
"7. c #FFFFF8F8F7F7",
"8. c #F5F5F4F4FCFC",
"9. c #F9F9F5F5FAFA",
"0. c gray100",
"q. c black",
"w. c black",
"e. c black",
"r. c black",
"t. c black",
"y. c black",
"u. c black",
/* pixels */
"0.0.0.0.0.-.-.7.0.0.0.0.0.0.0.0.0.0.0.0.0.0.0.0.0.0.0.0.0.0.0.0.",
"0.0.0.0.( ^ I -.0.0.0.0.0.0.0.0.0.0.0.0.0.0.0.0.0.0.0.0.0.0.0.0.",
"0.0.0.0.W R ,.9.0.0.0.0.0.0.0.0.0.0.0.0.0.0.0.0.0.0.0.0.0.0.0.0.",
"0.0.0.7.' / A X.0.0.0.0.0.0.0.0.0.0.0.0.0.0.0.0.0.0.0.0.0.0.0.0.",
"0.0.0.*.T ( 2.' 7.0.0.0.0.0.0.0.0.0.0.0.-.7.0.0.0.0.0.0.0.0.0.0.",
"0.0.0.6.:.0.0.} 0.0.0.0.0.0.0.0.0.0.0.-.-.*.0.0.0.0.0.0.0.0.0.0.",
"0.0.0.8.8.0.7.^ 8.0.0.0.0.0.0.0.0.0.7.7.9.~ 7.0.0.0.0.0.0.0.0.0.",
"0.0.0.X.3.0.0.&.1.0.0.0.0.0.0.0.0.0.-.1.{ E -.0.0.0.0.0.0.0.0.0.",
"0.0.0.,.9.0.0.2.T 0.0.0.0.0.0.0.0.0.9.>.%.] ..0.0.0.0.0.0.0.0.0.",
"0.0.0.} 0.0.0.7.T 0.0.0.0.0.0.0.0.0.} $.6.=.,.0.0.0.0.0.0.0.0.0.",
"0.0.0.:.0.0.0.0.4.0.0.0.0.0.0.0.0.0.:.U ~ 0.,.0.0.0.0.0.0.0.0.0.",
"0.0.1.:.0.0.0.0.3.8.0.0.0.0.0.0.0.8.R ~ 6.7. .1.0.0.0.0.0.0.0.0.",
"0.0.1. .0.0.0.0.&.3.0.0.0.0.0.0.0.X./ -.0.6.V B -.0.0.0.0.0.0.0.",
"0.0.8.8.0.0.0.0.9.>.0.m m K 0.9.0.L *.0.0.0.7.} 6.0.0.0.0.0.0.0.",
"0.0.<.9.0.0.0.0.-.R 7.d 5 S J D 0.} 7.0.0.0.0.X.2.0.0.0.0.0.0.0.",
"0.7.R *.0.0.0.0.1.M ( x d O., x Q G #.0.K #.$.Z C #.K 5.0.K K 5.",
"0.9.} 7.0.0.0.0.f , j p e m . e : = i n 5 d i 3 * w % n D 3 = n ",
"0.9.T 0.0.0.0.D : 4 > i i S % n @ = e : 9 9 i : ; - * d 5 0 + c ",
"0.9.X.0.0.0.0.d @ , b +.+.c = S o k z O , f 3 3 = 1 + p & a # S ",
"0.^ 1.0.0.0.0.5 % c ` 0.0.f , m O J g X g J : w % q @ i * s * O.",
"0.3.9.0.0.0.0.3 w S H 6.0.e 3 d * #.d : m D & p # 8 # 2 * 2 = K ",
"0.8.0.0.0.0.0.p O f _ 8.0.w > 7 3 9.m X p m & p - r O t   $ % K ",
"0.0.0.0.0.0.0.#.p m R 5.0.D j h v 0.5.p x K c D c F i N y l f +.",
"0.0.0.0.0.0.0.0.9.5.&.I 6.0.#.} 5.0.0.5.#.0.5.9.5.7.! [ ;.5.#.7.",
"0.0.0.0.0.0.0.0.0.0.7.Y -.6.1.8.0.0.0.0.0.0.0.0.0.0.) ) 7.0.0.0.",
"0.0.0.0.0.0.0.0.0.0.0.:.9.) T 9.0.0.0.0.5.0.0.0.0.5.-.-.0.9.5.0.",
"0.0.0.0.0.0.0.0.0.0.0.&.3.9.} 7.0.0.0.5.m #.5.#.#.J 5.$.#.J J 9.",
"0.0.0.0.0.0.0.0.0.0.0.0.} o./ -.0.0.0.5.m S n n J c n m J m m 5.",
"0.0.0.0.0.0.0.0.0.0.0.6.U %.-.0.0.0.0.5.D D m S +.S D S K S S +.",
"0.0.0.0.0.0.0.0.0.0.0.7.~ P ( 0.0.0.0.0.9.0.9.0.0.0.9.9.#.#.9.0.",
"0.0.0.0.0.0.0.0.0.0.0.0.7.( 7.0.0.0.0.0.0.0.0.0.0.0.0.0.0.0.0.0.",
"0.0.0.0.0.0.0.0.0.0.0.0.0.0.0.0.0.0.0.0.0.0.0.0.0.0.0.0.0.0.0.0."
};
