/* XPM */
static char *firebug[] = {
/* columns rows colors chars-per-pixel */
"32 32 201 2 ",
"   c #0C0C0C900D40",
".  c #17A10DCB07DF",
"X  c #186511140BE9",
"o  c #135515DE1758",
"O  c #1409171019CC",
"+  c #1A1E1BA11C81",
"@  c #218514C20E45",
"#  c #27B7199F10B5",
"$  c #3DC822210F57",
"%  c #226E26B82959",
"&  c #25C22F4D3621",
"*  c #2A732EDC328F",
"=  c #2CBB30C533DB",
"-  c #337033A433F3",
";  c #2FDF38BC3E98",
":  c #3CDA3CDA3CDF",
">  c #5CF02DE30CF7",
",  c #63B82CC3054A",
"<  c #6D002F8C04D9",
"1  c #60E62CDE07FE",
"2  c #71CD37BB0CDB",
"3  c #62BA34631564",
"4  c #6ABC39D81649",
"5  c #6B8B3AEF1A13",
"6  c #72FA3F8D1C94",
"7  c #43DE36022C58",
"8  c #5EA33B0E221B",
"9  c #57933E9A2C9E",
"0  c #40CD3C9235F3",
"q  c #43433E2D3989",
"w  c #51C63F4C327A",
"e  c #792443281EAD",
"r  c #5A68415A30C1",
"t  c #5AED4C313598",
"y  c #527946DC3AE8",
"u  c #5F2D506E3CEE",
"i  c #6397409D27F4",
"p  c #7C5745B721B1",
"a  c #618E44F5318A",
"s  c #6B1948433085",
"d  c #611F4ABC39B5",
"f  c #74B14B4C310D",
"g  c #7D904F453079",
"h  c #6A8D560A3C6F",
"j  c #6C4A587B3B65",
"k  c #749F54213E74",
"l  c #7E4F55AB3B36",
"z  c #70FA60383EB3",
"x  c #3C07426846F8",
"c  c #40E940F840F2",
"v  c #48D648AF489A",
"b  c #54535451544E",
"n  c #5A845A855A85",
"m  c #755C564C40D0",
"M  c #7BA55B9F4572",
"N  c #617C617D617D",
"B  c #8141371400A3",
"V  c #87223D4306C8",
"C  c #90393EB90286",
"Z  c #993442900370",
"A  c #94D143BE0838",
"S  c #96F44A5512F3",
"D  c #97AC4F1B1D49",
"F  c #9C0650D81C1C",
"G  c #A6CD47250073",
"H  c #A46E499D0668",
"J  c #AEC249230000",
"K  c #A1294B0D0DB6",
"L  c #B7064F650371",
"P  c #B5C8516A0735",
"I  c #B16D50A50936",
"U  c #A8564EE310FB",
"Y  c #AB725264138D",
"T  c #A38C565F1E2B",
"R  c #AC4A5C191A5A",
"E  c #B1B15595136F",
"W  c #B3765D30175E",
"Q  c #B8E05E4A1639",
"!  c #B2B85C4D1AE3",
"~  c #BC9F63EE1CCA",
"^  c #84614B0424FE",
"/  c #8C7A4F2F2408",
"(  c #864950482B18",
")  c #8D8E514929B0",
"_  c #9037514A24F4",
"`  c #957756F92D15",
"'  c #8BF655D431B0",
"]  c #8195560D3889",
"[  c #8CB15B2739A1",
"{  c #956B5D1F37A6",
"}  c #9A6E5ACB318D",
"|  c #B6605E102118",
" . c #A2C85F543262",
".. c #862B6187334F",
"X. c #88EF677B3B81",
"o. c #8DB86A833B8C",
"O. c #949B6D873EBE",
"+. c #B743609323D2",
"@. c #BA0762F326EB",
"#. c #B9F9659B2C1B",
"$. c #BEDC6A0B2E8D",
"%. c #AD6564D4352B",
"&. c #A35164213A51",
"*. c #A8F564C337CD",
"=. c #AD476B323CFD",
"-. c #BDB56D1B363E",
";. c #B5F06D5F3B8B",
":. c #BBDA6E4339A5",
">. c #BD2672733C58",
",. c #C214566C0765",
"<. c #C52659A40BEF",
"1. c #CED45FB10DE2",
"2. c #C4F35A921008",
"3. c #DE3563020BC6",
"4. c #C75A68901E96",
"5. c #D29B65FE1674",
"6. c #DEB569B31591",
"7. c #DB546B001AD0",
"8. c #E9A566740A37",
"9. c #E15869AB1371",
"0. c #E5FA6F331AD9",
"q. c #C702667823BF",
"w. c #CE0B6C07238D",
"e. c #D4656EF92490",
"r. c #DDF66EE02000",
"t. c #D9A1714026D8",
"y. c #D396727C2A38",
"u. c #D94274AC29D5",
"i. c #DB0878EC2D7C",
"p. c #C3FA70E2365A",
"a. c #CACF762E3C2C",
"s. c #CC31781A3ED6",
"d. c #D78A76023030",
"f. c #DEBF7D4C3279",
"g. c #D5F87AEB3CE2",
"h. c #DC567D45395C",
"j. c #EA8A744E20D0",
"k. c #E7077CE33302",
"l. c #EC637EE831FD",
"z. c #8A8262F446C7",
"x. c #898D6D72439E",
"c. c #9A0268494388",
"v. c #97BB74AF469C",
"b. c #AF9E6DD1409F",
"n. c #A5ED789D412C",
"m. c #ADA37F504591",
"M. c #BA9375EF46E0",
"N. c #B5B3790B4C4A",
"B. c #C56A77CA4226",
"V. c #D28E7BF743B7",
"C. c #D2647EEB4A03",
"Z. c #E3FE824037A9",
"A. c #E24682313C81",
"S. c #ED3082F53966",
"D. c #E900883B3E9B",
"F. c #F479827732F1",
"G. c #F71D89863E8E",
"H. c #B032817D45A5",
"J. c #B550866E4AD3",
"K. c #A3A683EF54D2",
"L. c #DB778291432A",
"P. c #DF2E87474F1C",
"I. c #DD1588AC4DC7",
"U. c #E328837E4165",
"Y. c #E5B98941425A",
"T. c #EB678E4E46DC",
"R. c #E6C4876F47D7",
"E. c #E7A78CD947EC",
"W. c #EDED8E014C7E",
"Q. c #F3B88A00426E",
"!. c #EBA291F54D86",
"~. c #E22A8E06574C",
"^. c #EF3F9873556F",
"/. c #E5F2926F5DE8",
"(. c #E99495095B73",
"). c #F5F497E15673",
"_. c #F1B39A935F37",
"`. c #F5199F11644B",
"'. c #EE9AA0836FAA",
"]. c #F25BA1A56D52",
"[. c #F6FAAA5E6F30",
"{. c #F00DA2E87142",
"}. c #F83AA8FB71D8",
"|. c #FCDBAD2174D6",
" X c #F7A2ADE87B8E",
".X c #F61EB1F48551",
"XX c #FAC9B31C8188",
"oX c #E6C2BA8F9641",
"OX c #FBE7BF0293CB",
"+X c #F93EBF06994C",
"@X c #FE12C17A931C",
"#X c #EF8DC532A381",
"$X c #F294C880A5FE",
"%X c #FE46CAB8A42F",
"&X c #FDC0CD9FAD20",
"*X c #FD5DD264B44F",
"=X c #FF12DE0FC710",
"-X c #FDFBDE90C974",
";X c #FFB2E3B4CD59",
":X c #FF5BE80DD1E3",
">X c None",
/* pixels */
">X>X>X>X>X>X>X>X>X>X>X>X>X>X>X>X>X>X>X>X>X>X>X>X>X>X>X>X>X>X>X>X",
">X>X>X>X>X>X>X>X>X>X>X>X>X>X>X>X>X>X>X>X>X>X>X>X>X- : >X>X>X>X>X",
">X>X>X>X>X>X>X>X>X>X>X>X>X>Xo.m.>X>X>X>X>X>X>X>X>X>X: x >X>X>X>X",
">X>X>X>X>X>X>X>X>X>X>X>X>X>X>Xx.d >X>X>X>X>X>X>X>Xo y v >X>X>X>X",
">X>X>X>X>X>X>X>X>X>X>X>X>X>X>X>X- >X>X>X>X>X>X  + * N n : >X>X>X",
">X>X>X>X>X>X>X>X>X>X>X>X>X>X>X>X>X>X>X>X>X>X< X % v b n n v c >X",
">X>X>X>X>X>X>X>X>X>X>X>X>X>X>X= >X>X>X>X|.@XN.# + - : b : * : : ",
">X>X>X>X>X>X>X>X>X>X>X>X>X>X>X= >X>XQ. X*X;X#X[ @ O - q + >X>X- ",
">X>X>X>X>X>X>X>XJ.>X>X>X>X>X>Xi +.F.`.+X*X=X;XoX] # o + + >X>Xu ",
">X>X>X>X>X>X>X>XO.O.>X>X>Xq ( q.k.W.{..X+X&X;X:XoXc.$ . >X>X>XK.",
">X>X>X>X>X>X>X>Xt 0 = = 7 D w.l.U.P./.].XX%X*X=X;X$X>.>X>X>X>X>X",
">X>X>X>X>X>X>X>X>X>X>X>X>X0.k.g.s.B.V.(.XXOX+X&X-X*X|.>X>X>X>X>X",
">X>X>X>X>X>X>X>X>X>X>X>Xj.U.B.:.%.%.s._.[.}.XX+X*XXX>X>X>X>X>X>X",
">X>X>X>X>X>X>X>X>X>X>X9.h.M.&.} } -.W.^.I.~.'..X.X).>X>X>X>X>X>X",
">X>X>X>X>X>X>X>X>X>X3.u.=.[ ' ) #.E.!.a.:.C./._.G.>X>X>X>X>X>X>X",
">X>X>X>X>X>X>Xx d <.7.=.l f ^ #.Y.T.p. .:.V.R.S.r.>X>X>X>X>X>X>X",
">X>X>X>X>X>X* 0 F 5.:.m a p | A.D.$.` &.:.V.F.q.i & - * 0 v.>X>X",
">X>X>X>X>X= - >X6.a.M w 6 ! f.Z.@.) ) *.a.k.e._ >X& >X>X>XO.J.>X",
">X>X>X>X>X& >X>Xt.X.w 5 E d.f.! ^ g { M.A.r./ 9 >X>X>X>X>X>X>X>X",
">XX.n.h * >X>X1.T 8 3 U y.i.R e s ] b.L.j.2.7 >X>X>X>X>X>X>X>X>X",
">X>Xo.y >X>X>XI 2 1 K w.e.Y 5 r k =.d.0.8.>X= >X>X>X>X>X>X>X>X>X",
">X>X>X>X>X>X>XC < Z ~ 4.K 3 r m ;.t.3.>X>X>X= >X>X>X>X>X>X>X>X>X",
">X>X>X>X>X>X>XZ A ! Q A > r z.>.7.3.>X>X>X= q >X>X>X>X>X>X>X>X>X",
">X>X>X>X>X>X>XP R R A , 4 } y.5.` D >X>X>X>Xj H.>X>X>X>X>X>X>X>X",
">X>X>X>X>X>X>XW W H B V E 5.9.S y >X>X>X>X>Xz x.>X>X>X>X>X>X>X>X",
">X>X>X>X>X>X>XQ ,.J G L >X>X>X= ; >X>X>X>X>X>X>X>X>X>X>X>X>X>X>X",
">X>X>X>X>X>X>X>X>X>X>X>X>X>X= = >X>X>X>X>X>X>X>X>X>X>X>X>X>X>X>X",
">X>X>X>X>X>X>X>X>X>X>X>X>X* >X>X>X>X>X>X>X>X>X>X>X>X>X>X>X>X>X>X",
">X>X>X>X>X>X>X>X>X>X>X>Xq >X>X>X>X>X>X>X>X>X>X>X>X>X>X>X>X>X>X>X",
">X>X>X>X>X>X>X>X>X>X>X>XO.J.>X>X>X>X>X>X>X>X>X>X>X>X>X>X>X>X>X>X",
">X>X>X>X>X>X>X>X>X>X>X>X..m.>X>X>X>X>X>X>X>X>X>X>X>X>X>X>X>X>X>X",
">X>X>X>X>X>X>X>X>X>X>X>X>X>X>X>X>X>X>X>X>X>X>X>X>X>X>X>X>X>X>X>X"
};
