/* XPM */
static char *flobopuyo[] = {
/* columns rows colors chars-per-pixel */
"32 32 212 2 ",
"   c black",
".  c gray5",
"X  c #00000E0E1C1C",
"o  c #151515151515",
"O  c #181818181818",
"+  c #000013132525",
"@  c #000016162A2A",
"#  c #000019192D2D",
"$  c #00001C1C3333",
"%  c #00001E1E3A3A",
"&  c #010121213636",
"*  c #000022223B3B",
"=  c #0A0A27273B3B",
"-  c #0D0D2A2A3E3E",
";  c gray13",
":  c gray22",
">  c #000024244242",
",  c #02022A2A4545",
"<  c #09092A2A4040",
"1  c #000025254848",
"2  c #01012C2C4A4A",
"3  c #0D0D2D2D4E4E",
"4  c #040430304D4D",
"5  c #121233334848",
"6  c #1C1C38384B4B",
"7  c #01012D2D5252",
"8  c #040433335454",
"9  c #0F0F38385252",
"0  c #000034345A5A",
"q  c #080835355C5C",
"w  c #07073A3A5E5E",
"e  c #090939395D5D",
"r  c #141439395353",
"t  c #000035356363",
"y  c #03033B3B6363",
"u  c #0D0D3C3C6363",
"i  c #01013C3C6B6B",
"p  c #0C0C3C3C6969",
"a  c #00003E3E7272",
"s  c #35354D4D5E5E",
"d  c #0B0B40406464",
"f  c #000041416E6E",
"g  c #0D0D43436969",
"h  c #181843436363",
"j  c #121244446C6C",
"k  c #1F1F4B4B6B6B",
"l  c #000042427474",
"z  c #040448487474",
"x  c #0F0F4B4B7575",
"c  c #000044447B7B",
"v  c #0E0E46467A7A",
"b  c #000049497E7E",
"n  c #0B0B49497979",
"m  c #111145457575",
"M  c #111149497474",
"N  c #19194D4D7373",
"B  c #13134B4B7B7B",
"V  c #1B1B4E4E7D7D",
"C  c #0F0F51517F7F",
"Z  c #1A1A51517979",
"A  c #242447476161",
"S  c #22224D4D6B6B",
"D  c #28284E4E6A6A",
"F  c #383856566A6A",
"G  c #21214E4E7070",
"H  c #222252527575",
"J  c #2A2A55557474",
"K  c #292956567878",
"L  c #36365A5A7373",
"P  c #3B3B5B5B7171",
"I  c #414141414141",
"U  c #49495D5D6A6A",
"Y  c #595969697474",
"T  c #58586C6C7B7B",
"R  c gray38",
"E  c #000047478282",
"W  c #01014B4B8383",
"Q  c #01014E4E8A8A",
"!  c #040450508585",
"~  c #0B0B53538383",
"^  c #020252528B8B",
"/  c #080853538B8B",
"(  c #070758588E8E",
")  c #0D0D58588C8C",
"_  c #121252528282",
"`  c #191953538383",
"'  c #1B1B59598484",
"]  c #101057578989",
"[  c #191957578989",
"{  c #13135A5A8B8B",
"}  c #1B1B5C5C8C8C",
"|  c #020253539292",
" . c #040458589393",
".. c #0C0C5B5B9494",
"X. c #010156569A9A",
"o. c #04045A5A9A9A",
"O. c #08085C5C9B9B",
"+. c #13135E5E9696",
"@. c #232359598787",
"#. c #0D0D60609797",
"$. c #050560609D9D",
"%. c #0A0A61619B9B",
"&. c #161662629797",
"*. c #141461619A9A",
"=. c #191964649C9C",
"-. c #151569699F9F",
";. c #1C1C69699D9D",
":. c #2E2E64648F8F",
">. c #393963638080",
",. c #3A3A69698B8B",
"<. c #323269699292",
"1. c #05055C5CA1A1",
"2. c #07076060A4A4",
"3. c #09096464A3A3",
"4. c #0B0B6565A9A9",
"5. c #15156868A6A6",
"6. c #19196D6DA3A3",
"7. c #11116666A8A8",
"8. c #14146C6CABAB",
"9. c #1C1C6D6DA9A9",
"0. c #15157171AFAF",
"q. c #1F1F7474B2B2",
"w. c #2A2A7272A6A6",
"e. c #28287474ABAB",
"r. c #31317B7BACAC",
"t. c #25257979B4B4",
"y. c #29297B7BB5B5",
"u. c #31317E7EB3B3",
"i. c #575771718484",
"p. c #424273739A9A",
"a. c #4C4C7D7D9E9E",
"s. c #575779799191",
"d. c #66667B7B8B8B",
"f. c #66667F7F9090",
"g. c #2F2F8484BBBB",
"h. c #34348181B5B5",
"j. c #3B3B8181B2B2",
"k. c #3A3A8686BEBE",
"l. c #797983838A8A",
"z. c #757589899595",
"x. c #72728A8A9C9C",
"c. c #40408383B3B3",
"v. c #45458888B5B5",
"b. c #48488A8AB7B7",
"n. c #4F4F9090BCBC",
"m. c #52529191BBBB",
"M. c #6B6B8F8FAAAA",
"N. c #6E6E9090A9A9",
"B. c #71719090A7A7",
"V. c #62629696B7B7",
"C. c #46468F8FC3C3",
"Z. c #52529696C3C3",
"A. c #5A5A9A9AC3C3",
"S. c #5B5B9F9FCBCB",
"D. c #60609D9DC6C6",
"F. c #6666A2A2CCCC",
"G. c #6969A5A5CDCD",
"H. c #7171A6A6CACA",
"J. c #7272A8A8CBCB",
"K. c #7878ACACCDCD",
"L. c #6969A6A6D0D0",
"P. c #7A7AAEAED1D1",
"I. c #7474B0B0D5D5",
"U. c #7D7DB3B3D5D5",
"Y. c #888889898A8A",
"T. c #80808D8D9595",
"R. c #888890909595",
"E. c #949495959595",
"W. c #9393A4A4AFAF",
"Q. c #8D8DA1A1B0B0",
"!. c #A2A2A4A4A5A5",
"~. c #A4A4A8A8ABAB",
"^. c #ABABACACACAC",
"/. c #A6A6B3B3BCBC",
"(. c #B2B2B3B3B3B3",
"). c #BCBCBDBDBDBD",
"_. c #8585B5B5D4D4",
"`. c #8989B7B7D5D5",
"'. c #8E8EB9B9D7D7",
"]. c #8C8CBBBBDADA",
"[. c #9191BDBDD9D9",
"{. c #9292C0C0DDDD",
"}. c #9B9BC4C4DFDF",
"|. c #B5B5CDCDDDDD",
" X c #A1A1C7C7E2E2",
".X c #A7A7CBCBE3E3",
"XX c #ACACCDCDE4E4",
"oX c #B4B4D3D3E8E8",
"OX c #BABAD6D6E9E9",
"+X c #BEBED9D9EAEA",
"@X c #C1C1C1C1C2C2",
"#X c #C8C8C8C8C8C8",
"$X c #CACAD2D2D8D8",
"%X c #D2D2D2D2D3D3",
"&X c #DFDFDFDFDFDF",
"*X c #C4C4DCDCEBEB",
"=X c #C9C9DFDFEDED",
"-X c #D2D2DEDEE7E7",
";X c #CECEE2E2F0F0",
":X c #D4D4E6E6F1F1",
">X c #DEDEEBEBF5F5",
",X c gray90",
"<X c #EEEEEFEFEFEF",
"1X c #E6E6F0F0F7F7",
"2X c #EBEBF0F0F5F5",
"3X c #E6E6F1F1F8F8",
"4X c #EDEDF4F4F9F9",
"5X c #F5F5F5F5F6F6",
"6X c #F2F2F6F6F8F8",
"7X c #F5F5F9F9FBFB",
"8X c #FEFEFEFEFEFE",
"9X c None",
/* pixels */
"9X9X9X9X9X9X9X9X9XX + $ $ % % % % % % > 9X9X9X9X9X9X9X9X9X9X9X9X",
"9X9X9X9X9X9X9X9X# 1 i E E E Q E a a a t t 7 7 2 1 > 9X9X9X9X9X9X",
"9X9X9X9X9X9X$ 1 a W E E Q E W W W E E E E c c c t 1 9X9X9X9X9X9X",
"9X9X9X9X9X% c | | W / / / / / / / / / Q Q W E b c a 7 > 9X9X9X9X",
"9X9X9X9X1 t X.o.O.....+.&.=.=.=.=.=.+.....^ ^ W E E i 2 9X9X9X9X",
"9X9X9X1 W X.1.4.8.9.e.r.j.j.b.b.b.v.u.e.6.O. .( Q W b i 2 9X9X9X",
"9X9X9X0 X.1.4.8.t.k.Z.F.P.`.'.'.'.`.P.A.h.8.$.o.| ^ E c 7 2 9X9X",
"9X9X7 a | 2.8.t.C.G.[.oX*X=X*X+XOXoX.X_.Z.t.7.$. .^ Q c l 2 9X9X",
"9X9X0 E X.7.q.k.L. X;X2X4X3X:X*XOXoX.X].S.g.0.%.X.^ W c f G 2 9X",
"9X9Xt | X.5.y.Z.].;X6X7X7X4X7X7X;X{.].I.I.1X{.3.o.^ W c l G S * ",
"9X9Xl Q 1.5.u.D..X>X7X7X7X8X8X8X7XOXG.F.7X8X7X*X;.^ b z l G N * ",
"9X7 l Q O.9.u.G.XX>X6X6X7X8X8X8X8X3XK.|.7X8X8X8X-Xb z l l S G 1 ",
"9X> a Q | *.r.D. X=X:X;X4X8X8X8X8X6X|.7X8X&XI ,X$Xz l f f S S 2 ",
"9X* a E Q ..w.m._.XXXX}.:X8X<X!.7X7X7X8X8XE.O %X/.i y y i k a 2 ",
"9X% i l E / =.u.H.[.[.U.[.8X~.R 5X,X<X<X,XO . @Xd.w u j g S a 2 ",
"9X% 0 m c W +.w.n.J.P.G.J.8X: o ^.%X|.#X#X. ; ~.F r A D N S a 1 ",
"9X% q S n b ~ &.r.n.n.n.m.,XY.. ^.).Y.(.(.^.!.R.5 6 s P J D f , ",
"9X9X3 2 Z } W ) ;.6.h.h.h.V.%XE.(.l.5 U l.R.Y 6 - 6 s P J D i > ",
"9X9X= 2 4 M ] ! ( #.-.6.;.;.c.W.z.4 < * * * & & - A s F S S 2 * ",
"9X9X% 2 2 d Z { ! ( #.%.#.( ~ z w 8 , * * * * - 6 s U L N , 2 # ",
"9X9X$ 2 4 4 d C ] ( ^ ( ( ( ! z d 0 4 , , , 4 r F T i.>.K , 2   ",
"9X9X9X# , , 4 g x C ) ^ ^ ! b z f w 0 0 0 e h F f.T.x.,.K , 2   ",
"9X9X9X# 4 4 4 4 d x C ) ! ! b l f y y d g H L s.T.Q.B.,.9 , * 9X",
"9X9X9X9X# , 4 4 8 w g ' } } } C z f f f Z ,.a.M.N.M.a.@.4 , % 9X",
"9X9X9X9X9X$ 2 2 2 4 8 8 w d d d 8 Z n n ` <.p.p.r.<.:.j 2 * 9X9X",
"9X9X9X9X9X9X@ * 2 , 2 2 2 4 4 , 4 8 y B ` [ } [ ` ` u 3 2 % 9X9X",
"9X9X9X9X9X9X9X9X# % 2 2 2 , 4 4 2 8 y v v E _ B m u 7 2 % 9X9X9X",
"9X9X9X9X9X9X9X9X9X9X9X9X7X2X2X5X* a a V v V j e q 3 2 2 > 9X9X9X",
"9X9X9X9X9X9X9X9X9X9X9X9X9X9X9X9X9Xa a B p q 8 8 2 2 2 9X9X9X9X9X",
"9X9X9X9X9X9X9X9X9X9X9X9X9X9X9X9X@ 2 2 7 4 4 4 2 2 $ $ 9X9X9X9X9X",
"9X9X9X9X9X9X9X9X9X9X9X9X9X9X9X9X+ 2 2 2 2 2 2 2 # 9X9X9X9X9X9X9X",
"9X9X9X9X9X9X9X9X9X9X9X9X9X9X9X9X+ 2 2 2 2 @ + @ 9X9X9X9X9X9X9X9X"
};
