/* XPM */
static char *foff[] = {
/* columns rows colors chars-per-pixel */
"32 32 187 2 ",
"   c #1D1D1F1F1F1F",
".  c #2E2E1E1E1E1E",
"X  c #1D1D20202020",
"o  c #222223E423E4",
"O  c #25252B2B2B2B",
"+  c #373720202020",
"@  c #32B32B6B2B6B",
"#  c #3A3A2E2E2E2E",
"$  c #2E2E30303030",
"%  c #31B233333333",
"&  c #3B3B37373737",
"*  c #343439393939",
"=  c #3A903CE73CE7",
"-  c #7C7C00810081",
";  c #444437373737",
":  c #51513B3B3A3A",
">  c #7B7B24242424",
",  c #75752A2A2A2A",
"<  c #6A6A3E3E3E3E",
"1  c #787836363636",
"2  c #42C246464646",
"3  c #474749494949",
"4  c #4C4C4CF74CF7",
"5  c #5E5E4B4B4B4B",
"6  c #4BCC56565656",
"7  c #48C958D958D9",
"8  c gray35",
"9  c #656544444444",
"0  c #666648484848",
"q  c #6E6E4B4B4B4B",
"w  c #757542424242",
"e  c #7B7B4B4B4B4B",
"r  c #6A6A52D352D3",
"t  c #7D7D5A5A5A5A",
"y  c #52D363636363",
"u  c #565668686868",
"i  c #595969696969",
"p  c #626263636363",
"a  c #6F6F63636363",
"s  c #656568686868",
"d  c #69EA6B6B6B6B",
"f  c #7C7C63636363",
"g  c #650F721C721C",
"h  c #6E6E71717171",
"j  c #6D6D7A7A7A7A",
"k  c #743474347434",
"l  c #71F27BFC7BFC",
"z  c #7D7D7DFE7DFE",
"x  c #852502A30283",
"c  c #8B8B04370437",
"v  c #82820C0C0C0C",
"b  c #8B0B09090909",
"n  c #94C7049E049E",
"m  c #9C1C02420242",
"M  c #94C70AD80AD8",
"N  c #9C650B300B30",
"B  c #868616161616",
"V  c #8D8D16161616",
"C  c #838319191919",
"Z  c #8E8E19191919",
"A  c #943E12BD12BD",
"S  c #9A1A11111111",
"D  c #9C1C1E1E1E1E",
"F  c #A5FB02AD02AD",
"G  c #A9A906060606",
"H  c #A5160C0C0C0C",
"J  c #ABD60B0B0B0B",
"K  c #B57504040404",
"L  c #BD3D05C605C6",
"P  c #B5B50AB50AB5",
"I  c #BC550AD80AD8",
"U  c #A30914AE14AE",
"Y  c #AB7813461346",
"T  c #A2E219591959",
"R  c #AAAA1D1D1D1D",
"E  c #B58212E012E0",
"W  c #BB3A123D123D",
"Q  c #B4B4196F196F",
"!  c #BC3C1A1A1A1A",
"~  c #87872C2C2C2C",
"^  c #943E22CD22CD",
"/  c #9F9F24242424",
"(  c #94132B6B2B6B",
")  c #9C1C29292929",
"_  c #8E0E32B332B3",
"`  c #8C8C3F3F3F3F",
"'  c #9D1D31B231B2",
"]  c #969639393939",
"[  c #9E9E3E3E3E3E",
"{  c #A4FA23232323",
"}  c #AD57247A247A",
"|  c #A5A529292929",
" . c #AD2D2C2C2C2C",
".. c #B5B522222222",
"X. c #BBBB22222222",
"o. c #B5B52BAC2BAC",
"O. c #AAAA3B3B3B3B",
"+. c #C36D045A045A",
"@. c #C40309CA09CA",
"#. c #878742424242",
"$. c #8D8D44444444",
"%. c #8C364BF64BF6",
"&. c #9AF043EE43EE",
"*. c #92924B4B4B4B",
"=. c #838352525252",
"-. c #88885B5B5B5B",
";. c #94945DDE5DDE",
":. c #A3A341414141",
">. c #ADAD43434343",
",. c #A4A452525252",
"<. c #A9A956565656",
"1. c #A7275A5A5A5A",
"2. c #B2325E5E5E5E",
"3. c #8E2762C962C9",
"4. c #8C8C6C6C6C6C",
"5. c #949463636363",
"6. c #9D9D6C6C6C6C",
"7. c #878779797979",
"8. c #939374747474",
"9. c #91917D7D7D7D",
"0. c #999978787878",
"q. c #A8A865656565",
"w. c #A2A26A6A6A6A",
"e. c #A8FE6C6C6C6C",
"r. c #BABA6D6D6D6D",
"t. c #A7A772727272",
"y. c #ABAB73737373",
"u. c #AA2A79797979",
"i. c #C0C053535353",
"p. c #767682828282",
"a. c #7E7E86868686",
"s. c #7A7A8D0D8D0D",
"d. c #820281818181",
"f. c #8C8C87878787",
"g. c #83D98C8C8C8C",
"h. c #9C1C83038303",
"j. c #9B9B8B8B8B8B",
"k. c #8A0A91919191",
"l. c #88889C9C9C9C",
"z. c #945495149514",
"x. c #9B9B95959595",
"c. c #9D479D9D9D9D",
"v. c #A5A584848484",
"b. c #AC0183D983D9",
"n. c #A44E8CE28CE2",
"m. c #AEAE89898989",
"M. c #B35D82D882D8",
"N. c #ADAD9C9C9C9C",
"B. c #B0B099999999",
"V. c #BCBC9D9D9D9D",
"C. c #9C1CA3A3A3A3",
"Z. c #A0A0A0A0A0A0",
"A. c #A7A7A8A8A8A8",
"S. c #AC2CAD2DAD2D",
"D. c #B7B7A3A3A3A3",
"F. c #B4F4AC2BAC2B",
"G. c #B5F5B5F5B5F5",
"H. c #BC3CB4B4B4B4",
"J. c #B534BBBBBBBB",
"K. c #BBBBBD12BD12",
"L. c #C3C393939393",
"P. c #C343ABABABAB",
"I. c #C545B2B2B2B2",
"U. c #CFCFB5B5B5B5",
"Y. c #CECEBCBCBCBC",
"T. c #C545C545C545",
"R. c #CFCFC5C5C5C5",
"E. c #C51ACC21CC21",
"W. c #CBCBCD22CD22",
"Q. c #DBDBC6C6C6C6",
"!. c #DFDFCDCDCDCD",
"~. c #D27CD3D3D3D3",
"^. c #D8D8D4D4D4D4",
"/. c #DD43DD76DD76",
"(. c #E0E0D5D5D5D5",
"). c #E463DCDCDCDC",
"_. c #DD1CE3A3E3A3",
"`. c #E3E3E408E408",
"'. c #EAEAE5E5E5E5",
"]. c #E7E7E8E8E8E8",
"[. c #EDC2ECC1ECC1",
"{. c #F0F0E9E9E9E9",
"}. c #E6E6F1F1F1F1",
"|. c #ED53F18AF18A",
" X c #F2F2F48DF48D",
".X c #F53DF9B0F9B0",
"XX c #FF8FFFA4FFA4",
/* pixels */
"XXXXXXXXXXXXXXXXXXXXXXXXXXXXXXXXXXXXXXXXXXXXXXXXXXXXXXXXXXXXXXXX",
"XXXXXXXXXXXXXXXXXXXXXXXXXXXXXXXXXXXXXXXXXXXXXXXXXXXXXXXXXXXXXXXX",
"XXXXXXXXXXXXXXXXXXXXXXXXXXXXXXXXXXXXXXXXXXXXXXXXXXXXXXXXXXXXXXXX",
"XXXXXXXXXXXXXXXXXXXX.X[.XXXXXXXXXXXXXXXXXXXXXXXXXXXXXXXXXXXXXXXX",
"XXXXXXXXXXXXXX X!.M.O.0.XXXXXXXXXXXX.XT.6.w.n..XXXXXXXXXXXXXXXXX",
"XXXXXXXXXXXX^.i.! I L 1 XXXXXXXXXXXX`.u W L <..XXXXXXXXXXXXXXXXX",
"XXXXXXXXXXK.O.@.@.W D e XXXXXXXXXXXX/.7 ! +.,..XXXXXXXXXXXXXXXXX",
"XXXXXXXXW.>.@.@.( : z `.XXXXXXXXXXXX/.7 Q L ,..XXXXXXXXXXXXXXXXX",
"XXXXXX.Xa Q P ( l. XXXXXXXXXXXXX[.D./.y X.K 1.[.R.P.[.XXXXXXXXXX",
"XXXXXXY.0 E H B.XXXXXXXXXXXX.XI...J k.i ..P 1.g.2.J O.T.XXXXXXXX",
"XX X[.f.3.H U Y.{.'.[.XXXX XV.E H J #.u } G *.s.R J G D H.XXXXXX",
"`.C.T / { H H | | { y..X XF.Y H U < x.g } G %.* @ %.F H / ~.XXXX",
"T.g.m N m N N N m m w.XXF. .N S 4.E.`.g | m q._.d O t N m %..XXX",
"T.z.;.5.;.A M &.5.5.h.G.v.A M 4.[.XX/.j | m w.XX.Xx.o ` M m F.XX",
"^.4 3 = @ ^ M 3.= 4 [.a.r.n ( ].XXXX/.l ) b e..XXXXXk g A v &..X",
"XX.X.X[.= ~ v _ _.XX/.J.c x t..XXXXX^.p.) x e.XXXXXX).O M.b ( '.",
"XXXXXXXXs -.- - E.XXW.N.- - H.XXXXXX/.l $.> m.XXXXXX X4 8.v C ).",
"XXXXXXXXc.k.x b b.XXG.h.- x E.XXXXXX[.k d h ].XXXXXXXXh f V B ^.",
"XXXXXXXXW.6 :.b ] .XS.9.x x G.XXXXXXXXXXXXXXXXXXXXXXXXz 4.A Z (.",
"XXXXXXXX[.% u.M ^ '.G.g.n m u.XXXXXXXXXXXXXXXXXXXXXXXXp L.n ^ ).",
"XXXXXXXXXX8 r S N Y.~.6 O.N ' [.XXXXXXXXXXXXXXXXXXXX{.C. .N [ |.",
"XXXXXXXXXXx.# T N v. X% 3.H N n.XXXXXXXXXXXXXXXXXXXX^.q.m F j.XX",
"XXXXXXXXXX~.@ { J -.XXk @ { J U D.XXXXXXXXXXXXXXXX|.v.Y G _ _.XX",
"XXXXXXXXXX[.& { P =.XX'.$ r K J T n.}.XXXXXXXXXX_.r.Y J N F.XXXX",
"XXXXXXXXXX`.5 Q P 3.XXXXG.X q J K K ' v.U.Q.U.M.o.P P Y 8..XXXXX",
"XXXXXXXXXXd.9 W E I.XXXXXXZ.  : } L I P E E W I I @.T 7. XXXXXXX",
"XXXXXXXXXXk.  ~ &.[.XXXXXXXXJ.& O , H P W I W E T w s. XXXXXXXXX",
"XXXXXXXXXXXXz.2 ^.XXXXXXXXXXXX[.C.2 . . + ; + ; d.~.XXXXXXXXXXXX",
"XXXXXXXXXXXXXX{.XXXXXXXXXXXXXXXXXX.X^.A.c.A.T.[.XXXXXXXXXXXXXXXX",
"XXXXXXXXXXXXXXXXXXXXXXXXXXXXXXXXXXXXXXXXXXXXXXXXXXXXXXXXXXXXXXXX",
"XXXXXXXXXXXXXXXXXXXXXXXXXXXXXXXXXXXXXXXXXXXXXXXXXXXXXXXXXXXXXXXX",
"XXXXXXXXXXXXXXXXXXXXXXXXXXXXXXXXXXXXXXXXXXXXXXXXXXXXXXXXXXXXXXXX"
};
