/* XPM */
static char *freealchemist[] = {
/* columns rows colors chars-per-pixel */
"32 32 162 2 ",
"   c #58D94A4A36B7",
".  c #5B5B4D4D3838",
"X  c #5D5D50503C3C",
"o  c #353557577474",
"O  c #4A4A50505151",
"+  c #64E556D74242",
"@  c #68E95ADB45C6",
"#  c #6C6C5E5E4A4A",
"$  c #737365655050",
"%  c #6E6E74747474",
"&  c #828274745E5E",
"*  c #8B8B7D7D6464",
"=  c #3939E4E43D3D",
"-  c #7D3DF7EA1A41",
";  c #4040E6E63939",
":  c #6464F0F02727",
">  c #6868F0F02E2E",
",  c #7272F2F23131",
"<  c #0D0DD9D35460",
"1  c #0E8FD7575A5A",
"2  c #1292DADA5757",
"3  c #1B1BDC5C5BDC",
"4  c #2727DEDE4C4C",
"5  c #2626DEDE5656",
"6  c #1414CFCF6D6D",
"7  c #1192D3D36464",
"8  c #1212D0D06C6C",
"9  c #1494CD4D75F6",
"0  c #15C0CA1F7E28",
"q  c #3232DFDF6868",
"w  c #4646E3E37373",
"e  c #4E4EE5E57575",
"r  c #5151E5E57979",
"t  c #8585F7F72727",
"y  c #8787F7F72C2C",
"u  c #8F8FF8F83B3B",
"i  c #929284846B6B",
"p  c #A6A696967575",
"a  c #B0F0A0E07DBD",
"s  c #8C8CF7774545",
"d  c #9393F8F84242",
"f  c #9D1DF9F95454",
"g  c #A2A2F9F95CDD",
"h  c #A6A6F9F96363",
"j  c #A8A8FAFA6666",
"k  c #A7A7F9F96868",
"l  c #ABABFAFA6CED",
"z  c #00E74D1A9663",
"x  c #03034F4F9919",
"c  c #0D0D53539696",
"v  c #064651919A5A",
"b  c #0B0B55959CFC",
"n  c #101059599F9F",
"m  c #06065454A0A0",
"M  c #09095858A6A6",
"N  c #13135BF5A23B",
"B  c #1A9A61E2A6E6",
"V  c #1E1E6464A929",
"C  c #0E8F62E3B433",
"Z  c #10106565B7B7",
"A  c #14146B6BBFBF",
"S  c #21A26767AB6B",
"D  c #23A46969ACAC",
"F  c #2A2A6E6EB0B0",
"G  c #2D2D7171B333",
"H  c #33337575B6B6",
"J  c #36367878B8B8",
"K  c #3ABB7CFDBCBC",
"L  c #47477F7FB3B3",
"P  c #17177070C6C6",
"I  c #1B1B7171C6C6",
"U  c #1A1A7474CCCC",
"Y  c #20A17CFDD959",
"T  c #1C9CBE3E9C9C",
"R  c #2424BDBDA4A4",
"E  c #2323B4B4B7B7",
"W  c #41418080BEBE",
"Q  c #1717C7C78383",
"!  c #1717C8C88181",
"~  c #196FC4C48D37",
"^  c #1BDCC2C292D2",
"/  c #5F5FE7E78181",
"(  c #6868E9E98686",
")  c #6B6BE8E88B8B",
"_  c #7A7AE1E1B4B4",
"`  c #2727ADADC9C9",
"'  c #2828ABABCFCF",
"]  c #29AAA9A9D4D4",
"[  c #2AABA7A7D9D9",
"{  c #2F2F9F9FEEEE",
"}  c #30CA9E6BF325",
"|  c #31319696FBFB",
" . c #33789A44FEDC",
".. c #3C3C9E55FFFF",
"X. c #2CD7A34DE5E5",
"o. c #2F2FA0A0EDED",
"O. c #43438484C3C3",
"+. c #4CCD8A8AC6C6",
"@. c #4F4F8C8CC8C8",
"#. c #50D18D8DC8C8",
"$. c #57579616D353",
"%. c #5B5B9999D6D6",
"&. c #5C069C46DB30",
"*. c #6D6D9C9CC1C1",
"=. c #67679C9CCACA",
"-. c #61619B9BD2D2",
";. c #6F6FA7A7DEDE",
":. c #44449A9AEDED",
">. c #44449D9DF6F6",
",. c #40409F9FFFFF",
"<. c #5E5EA7A7EFEF",
"1. c #4242A1A1FEFE",
"2. c #4B94A5A5FFB6",
"3. c #5151A7A7FFFF",
"4. c #54C2A9F2FF47",
"5. c #5AC8ABF4FC8E",
"6. c #6464A4A4E2E2",
"7. c #69A9A6A6E2E2",
"8. c #6BECA9A9E666",
"9. c #6565A9A9EDED",
"0. c #6DEEAD2DEB6B",
"q. c #70F1A9A9E161",
"w. c #7070AEAEEAEA",
"e. c #6363AEAEF9F9",
"r. c #6CEDB2B2F6F6",
"t. c #62FCB14AFF31",
"y. c #6C16B4B4FD52",
"u. c #7272B3F3F474",
"i. c #7171B6B6FB7B",
"p. c #731DB963FEFE",
"a. c #78CEBBBBFE53",
"s. c #B3B3A44E8383",
"d. c #B5B5A7A78E8E",
"f. c #BABAABAB8D8D",
"g. c #BBBBAE589393",
"h. c #BDBDB0B09696",
"j. c #C2C2B5B59999",
"k. c #C646B9399F1F",
"l. c #8989F0F08989",
"z. c #952EF1BE9F05",
"x. c #BBBBFBA58CE2",
"c. c #A6A6F4F49999",
"v. c #B2B2F7F79393",
"b. c #BABAFA7A9111",
"n. c #8C8CE4E4BFBF",
"m. c #BFBFF9F9A1A1",
"M. c #B6B6F7F7ACAC",
"N. c #8181B0B0DBDB",
"B. c #8181BEBEFBFB",
"V. c #A3A3EDEDC7C7",
"C. c #ACACE7E7DCDC",
"Z. c #9494D4D4EBEB",
"A. c #8585C2C2FEFE",
"S. c #9932CCFFFECB",
"D. c #A3F9D328FDA7",
"F. c #B6B6DB30FFFF",
"G. c #BC3CDE5EFFFF",
"H. c #C4C4F2F2DCDC",
"J. c #D0D0F575E6E6",
"K. c #CACAE5E5FFFF",
"L. c #D5B0EC34FE46",
"P. c None",
/* pixels */
"P.P.P.P.P.P.P.P.P.P.P.P.P.P.P.P.P.P.P.P.P.P.P.P.P.P.P.P.P.P.P.P.",
"P.P.P.P.P.P.P.P.P.P.P.P.P.P.P.P.P.P.P.P.P.P.P.P.P.P.P.P.P.P.P.P.",
"P.P.P.P.P.P.P.P.P.P.P.P.P.P.P.P.P.P.P.P.+ $ # X P.P.P.P.P.P.P.P.",
"P.P.P.P.P.P.P.P.P.P.P.P.P.P.P.P.P.P.P.  * g.d.p @   P.P.P.P.P.P.",
"P.P.P.P.P.P.P.P.P.P.P.P.P.P.P.P.P.P.c O p s.j.k.h.& P.P.P.P.P.P.",
"P.P.P.P.P.P.P.P.P.P.P.P.P.P.P.P.P.Z %.% a a s.h.k.g.+ P.P.P.P.P.",
"P.P.P.P.P.P.P.P.P.P.P.P.P.P.P.P.P.A B.N.p s.a a s.f.@ P.P.P.P.P.",
"P.P.P.P.P.P.P.P.P.P.P.P.P.P.P.P.P.m >.y.*.s.a a s.i . P.P.P.P.P.",
"P.P.P.P.P.P.P.P.P.P.P.P.P.P.P.P.P.M  ...| :.*.=.L o P.P.P.P.P.P.",
"P.P.P.P.P.P.P.P.P.P.P.P.x B S S v U ..a.2. . . .| C P.P.P.P.P.P.",
"P.P.P.P.P.P.P.P.P.P.G $.u.p.y.&.I | 5.a. . .Y x z z P.P.P.P.P.P.",
"P.P.P.P.P.P.P.P.v #.u.4.4.t.e.<.5...A.4.|  .C P.P.P.P.P.P.P.P.P.",
"P.P.P.P.P.P.P.v 7.t.1.y.D.F.F.F.D.S.4. . .Y N P.P.P.P.P.P.P.P.P.",
"P.P.P.P.P.P.v @.t...a.S.K.L.L.L.F.S.e. .| P 6.S P.P.P.P.P.P.P.P.",
"P.P.P.P.P.P.G u. .2.S.G.L.L.L.L.D.S.3. . .| 2.8.x P.P.P.P.P.P.P.",
"P.P.P.P.P.z &.3. .3.Z.C.J.J.H.V.n._ ^ E }  . .i.S P.P.P.P.P.P.P.",
"P.P.P.P.P.b a. .{ R ) z.c.v.b.x.l y : ; 6 ` | 1.-.z P.P.P.P.P.P.",
"P.P.P.P.P.H t. .~ 4 > d h j g d t t - - = 1 [  .q.m P.P.P.P.P.P.",
"P.P.P.P.P.W 4.[ 5 , - - - - - - - - - - s q ^ } w.B P.P.P.P.P.P.",
"P.P.P.P.P.+.2.` e b.u - - - - - - - y j l.5 9 X.9.D P.P.P.P.P.P.",
"P.P.P.P.P.K 5.` 2 r M.b.g f f k x.m.z.( 2 2 0 o.w.S P.P.P.P.P.P.",
"P.P.P.P.P.V p.X.< < q / z.z.z.z.( w 3 < < < ~  .q.b P.P.P.P.P.P.",
"P.P.P.P.P.z 0.1.Q < < < < < < < < < < < < < ] 4.+.P.P.P.P.P.P.P.",
"P.P.P.P.P.P.O.4.' 7 < < < < < < < < < < < ~  .i.N P.P.P.P.P.P.P.",
"P.P.P.P.P.P.N 7...' 8 < < < < < < < < 2 T } 5.O.z P.P.P.P.P.P.P.",
"P.P.P.P.P.P.P.D r...' 9 < < < < < < < T } 2.%.n P.P.P.P.P.P.P.P.",
"P.P.P.P.P.P.P.P.F 7.2. .E ~ 0 ! 0 T X.,.5.%.v P.P.P.P.P.P.P.P.P.",
"P.P.P.P.P.P.P.P.P.B $.r.1. .{ { { 1.e.B.I b P.P.P.P.P.P.P.P.P.P.",
"P.P.P.P.P.P.P.P.P.P.z B @.7.7.7.;.=.J v P.P.P.P.P.P.P.P.P.P.P.P.",
"P.P.P.P.P.P.P.P.P.P.P.P.z b N N v z P.P.P.P.P.P.P.P.P.P.P.P.P.P.",
"P.P.P.P.P.P.P.P.P.P.P.P.P.P.P.P.P.P.P.P.P.P.P.P.P.P.P.P.P.P.P.P.",
"P.P.P.P.P.P.P.P.P.P.P.P.P.P.P.P.P.P.P.P.P.P.P.P.P.P.P.P.P.P.P.P."
};
