/* XPM */
static char *funnyboat[] = {
/* columns rows colors chars-per-pixel */
"32 32 119 2 ",
"   c black",
".  c #040404040404",
"X  c #0A0A04040303",
"o  c #0B0B06060606",
"O  c #090909090909",
"+  c gray5",
"@  c #121206060606",
"#  c #12120B0B0B0B",
"$  c #111111111111",
"%  c #151515151515",
"&  c #111115151A1A",
"*  c #181818181818",
"=  c #1D1D1D1D1D1D",
"-  c #2D2D13131212",
";  c #202020202020",
":  c gray14",
">  c #282828282828",
",  c gray18",
"<  c gray19",
"1  c gray21",
"2  c gray23",
"3  c #3F3F3F3F3F3F",
"4  c #66660B0B0606",
"5  c #6A6A0A0A0606",
"6  c #7D7D0C0C0707",
"7  c #7F7F13130D0D",
"8  c #7F7F15151010",
"9  c #7F7F1F1F1A1A",
"0  c #42423B3B3B3B",
"q  c #38383D3D4545",
"w  c #33333B3B4848",
"e  c #363640405050",
"r  c #383843435252",
"t  c #3D3D48485959",
"y  c gray26",
"u  c gray28",
"i  c #434345454B4B",
"p  c gray29",
"a  c #49494B4B4E4E",
"s  c gray30",
"d  c #43434D4D5D5D",
"f  c #555555555555",
"g  c #585858585858",
"h  c gray37",
"j  c #464653536666",
"k  c gray39",
"l  c #656565656565",
"z  c gray42",
"x  c #6E6E6F6F6E6E",
"c  c #707070706F6F",
"v  c gray44",
"b  c gray46",
"n  c #797979797979",
"m  c gray49",
"M  c #83830D0D0707",
"N  c #84840D0D0707",
"B  c #84840E0E0808",
"V  c #898911110C0C",
"C  c #818117171010",
"Z  c #898918181313",
"A  c #8B8B1D1D1717",
"S  c #91911F1F1A1A",
"D  c #B3B311110909",
"F  c #B6B611110909",
"G  c #B7B715150E0E",
"H  c #B7B71A1A1313",
"J  c #B8B81D1D1616",
"K  c #B3B324241E1E",
"L  c #97973B3B3737",
"P  c #B1B134342E2E",
"I  c #B7B737373131",
"U  c #B6B641413C3C",
"Y  c #A6A660605C5C",
"T  c #A9A963636060",
"R  c #B6B667676363",
"E  c #ACAC71716F6F",
"W  c #6F6F77778383",
"Q  c #74747D7D8A8A",
"!  c #71718686A6A6",
"~  c #818181818181",
"^  c #848484848484",
"/  c gray54",
"(  c #8D8D8D8D8D8D",
")  c #919189898989",
"_  c #96968F8F8F8F",
"`  c #86868A8A9191",
"'  c #939393939393",
"]  c #959595959595",
"[  c gray60",
"{  c gray61",
"}  c #A3A39D9D9C9C",
"|  c #8F8F9E9EB6B6",
" . c #9898A6A6BCBC",
".. c #A0A0A0A0A0A0",
"X. c #A7A7A7A7A7A7",
"o. c #AEAEA7A7A6A6",
"O. c #ACACACACACAC",
"+. c #ABABADADB0B0",
"@. c #B2B2B2B2B2B2",
"#. c #B6B6B6B6B6B6",
"$. c #B8B8B2B2B2B2",
"%. c #B9B9B9B9B9B9",
"&. c #BCBCBCBCBCBC",
"*. c #B1B1B9B9C4C4",
"=. c #9696B4B4E0E0",
"-. c #9999B6B6E2E2",
";. c #9A9ABCBCEDED",
":. c #B8B8C7C7DDDD",
">. c #9E9EC2C2F8F8",
",. c #B6B6C9C9E6E6",
"<. c #B9B9CCCCE9E9",
"1. c #BCBCCFCFEBEB",
"2. c #C0C0C0C0C0C0",
"3. c gray78",
"4. c #CACAC2C2C2C2",
"5. c #CBCBCBCBCBCB",
"6. c gray80",
"7. c gray83",
"8. c None",
/* pixels */
"8.8.8.8.8.8.8.8.8.8.8.8.8.8.8.8.8.8.8.8.8.8.8.8.8.8.8.8.8.8.8.8.",
"8.8.8.8.8.8.8.8.8.8.8.8.8.8.8.8.8.8.8.8.8.8.8.8.8.8.8.8.8.8.8.8.",
"8.8.8.8.8.8.8.8.8.8.8.8.8.8.8.8.8.8.8.8.8.8.8.8.8.8.8.8.8.8.8.8.",
"8.8.8.8.8.8.. O .         % + 8.8.8.8.8.8.8.8.8.8.8.8.8.8.8.8.8.",
"8.8.8.8.8.8.3 m ,         f p 8.8.8.8.8.8.8.8.8.8.8.8.8.8.8.8.8.",
"8.8.8.8.8.8.f { u : = ; * [ k 8.8.8.8.8.8.8.8.8.8.8.8.8.8.8.8.8.",
"8.8.8.8.8.8.h 5...( / ' n &.k 8.8.8.8.8.8.8.8.8.8.8.8.8.8.8.8.8.",
"8.8.8.8.8.8.h 5.{ ' ' ' ~ 2.l 8.8.8.8.8.8.8.8.8.8.8.8.8.8.8.8.8.",
"8.8.8.8.8.8.h 5...' ' ' ~ 2.l 8.8.8.8.+ 2 =     $ ; 8.8.8.8.8.8.",
"8.8.8.8.8.8.h 5...' ' ' ~ 2.h 8.8.8.8.> ' 2     y h 8.8.8.8.8.8.",
"8.8.8.8.8.8.h 5...' ' ' ~ 2.f 8.8.8.8.1 2.b f s ^ ~ 8.8.8.8.8.8.",
"8.8.8.8.8.8.h 5...' ' ' ~ &.s 8.8.8.8.1 7.X.' / X.( 8.8.8.8.8.8.",
"8.8.8.8.8.8.h 5...' ' ' ~ #.2 8.8.8.8.1 7.X.' ^ X./ 8.8.8.8.8.8.",
"8.8.8.8.8.8.h 6...' ] ] ~ %.y . $ > * = y y 1 1 3 2 * 8.8.8.8.8.",
"8.8.8.8.    + = * % % * = 2 = n ] @.#.5.3.5.5.6.7.~ = 8.8.8.8.8.",
"8.8.8.8.2 5.5.%.%.&.&.%.%.&.%.] ] [ ] ] [ [ [ { O.#.y   8.8.8.8.",
"8.8.8.8.0 4.o.) ) ) ) / ) ) ) ) ) ) ) ) ) ) ) _ } $.g # 8.8.8.8.",
"4 A S Z C V B B N N N N M B B B M N N N B B 6 6 7 C 8 C A 9 8 5 ",
"o Y R U I J H G F F F F D F D D F F F F F F F F D D K P E T L X ",
"8.@ : , , 1 %   $ < y : O   = 1 2 =   O : > : $   % : ; ; +   8.",
"8.- ( { [ / u e j ] #.z e r h @.O.p w d v ' b i r j v x h ;   8.",
"8.+ v ] ' f t ;. ./ ] : ! >.` ] / & =.-.^ ' f j ;.| l f > . 8.8.",
"8.o 3 ~ / x W <.*.{ ] f  .1.+.' ( a ,.:...' x Q <.*.x 1 $   8.8.",
"8.8.$ l _ / ] X.[ ( ] / } @./ ' ' / O.X.( ] ( ( _ c s : O 8.8.8.",
"8.8.O < b ( ~ ~ / ] ] ' ' ' ' ' _ ' ] ] ] ( / n k y > + . 8.8.8.",
"8.8.8.+ y x m m ^ ( ( ( ( ( ( ~ ) ! / / ~ m x k p ; + . 8.8.8.8.",
"8.8.8.. % y z x c b m ~ m n m n b n n n c k f y * .   8.8.8.8.8.",
"8.8.8.8.  $ q u u u u p p p p u u p u u 0 > = O   8.8.8.8.8.8.8.",
"8.8.8.8.8.  . . . + . . . . . . X $ $ + +     8.8.8.8.8.8.8.8.8.",
"8.8.8.8.8.8.8.8.8.8.8.8.8.8.8.8.8.8.8.8.8.8.8.8.8.8.8.8.8.8.8.8.",
"8.8.8.8.8.8.8.8.8.8.8.8.8.8.8.8.8.8.8.8.8.8.8.8.8.8.8.8.8.8.8.8.",
"8.8.8.8.8.8.8.8.8.8.8.8.8.8.8.8.8.8.8.8.8.8.8.8.8.8.8.8.8.8.8.8."
};
