/* XPM */
static char *gadmin_squid[] = {
/* columns rows colors chars-per-pixel */
"32 28 65 1 ",
"  c black",
". c #040404040202",
"X c #060606060404",
"o c #0C0C0C0C0707",
"O c #0F0F0F0F0909",
"+ c #121212120B0B",
"@ c #151515150D0D",
"# c #1A1A1A1A1111",
"$ c #1E1E1E1E1313",
"% c #232323231616",
"& c #202020201818",
"* c #292929291B1B",
"= c #2F2F2F2F1E1E",
"- c #323232322121",
"; c #343434342323",
": c #393939392626",
"> c #3D3D3D3D2828",
", c #424242422C2C",
"< c #464646462F2F",
"1 c #434343433535",
"2 c #4C4C4C4C3232",
"3 c #525252523636",
"4 c #575757573A3A",
"5 c #606060604040",
"6 c #686868684747",
"7 c #727272724D4D",
"8 c #747474744F4F",
"9 c #7A7A7A7A5353",
"0 c #7B7B7B7B5454",
"q c #808080805757",
"w c #858585855A5A",
"e c #868686866565",
"r c #8C8C8B8B6767",
"t c #929292926363",
"y c #989898986969",
"u c #9B9B9B9B6A6A",
"i c #929292927777",
"p c #A3A3A3A36F6F",
"a c #A6A6A6A67272",
"s c #A8A8A8A87373",
"d c #A9A9A9A97474",
"f c #AEAEAEAE7777",
"g c #A8A8A8A87A7A",
"h c #B2B2B2B27B7B",
"j c #B3B3B3B37B7B",
"k c #B3B3B3B37C7C",
"l c #A0A0A0A08383",
"z c #B5B5B5B58080",
"x c #B7B7B6B68282",
"c c #B9B9B9B98787",
"v c #B9B9B9B98888",
"b c #BBBBBBBB8A8A",
"n c #BEBEBEBE8F8F",
"m c #BEBEBEBE9090",
"M c #C2C2C2C29797",
"N c #C5C5C5C59B9B",
"B c #C9C9C9C9A3A3",
"V c #CACACACAA5A5",
"C c #CDCDCDCDA9A9",
"Z c #CFCFCFCFADAD",
"A c #D2D2D2D2B2B2",
"S c #D5D5D5D5B7B7",
"D c #D7D7D7D7BBBB",
"F c #D9D9D9D9BEBE",
"G c None",
/* pixels */
"GGGGGGGABNNNNNNNNNNNNNNNNGGGGGGG",
"GGGGGCchhhhhhhhhfhjhhhhhhcMGGGGG",
"GGGFnhhhhhhhhhhkjjfjhhhhhhhxGGGG",
"GGDvhhhhhyyyyyyyuuuuyypjhhhhkGGG",
"GGnhhhp5&+OOO+++++++++@<thhhhaGG",
"GNhhhy=.GGGGGGGGGGGGGGGG*thhhdGG",
"Gchhd- GGGGGGGGGGGGGGGGGGGahhhwG",
"Nhhh7.GGGGGGGGGGGGGGGGGGGGahhhpG",
"Mhhh,GGGGGGGGGGGGGGGGGGGGGGkkha-",
"vkhh;GGGGGVzhhkzzkza=GGGGGGckka*",
"chhf:GGGGGMkhhhhkkhp$GGGGGGvfhs*",
"zhhh5GGGGGgppppdhhhtoGGGGGGchhp#",
"hkhhyGGGGG@++++ehhh7GGGGGGCjhh9 ",
"GhhhkyGGGGGGGGGMhhs:GGGGGGMhhh2G",
"GfhhhhcGGGGGGGBhhhwoGGGGGNhhkt@G",
"GGdhhhhmGGGGSMhhhs=GGGGAmkhjd> G",
"GG0dhhhhjbnchhhhf2.GGCchhhhf4.GG",
"GGG6phhhhhhhhhha3 GGZkhhhhp2XGGG",
"GGGG>9shjhhhhs9= GGVkkhhs8* GGGG",
"GGGGGG=49wq94=&1ilrwwq83%.GGGGGG",
"GGGGGGGG ... GGGGX.X.X. GGGGGGGG",
"GGGGGGGGGGGGGGGGGGGGGGGGGGGGGGGG",
"GGGGGGGGGGGGGGGGGGGGGGGGGGGGGGGG",
"GGGGGGGGGGGGGGGGGGGGGGGGGGGGGGGG",
"GGGGGkGhGhGhGhGhGhGhGhhhhGGGGGGG",
"GGGGGGGGGhhGhGGhGhGhGhhGGhGGGGGG",
"GGGGGhGhGhGhGhGhGhGhGhhGGhGGGGGG",
"GGGGGGhhGGhGGGhhGGhGGGGhhGGGGGGG"
};
