/* XPM */
static char *gadmin_dhcpd[] = {
/* columns rows colors chars-per-pixel */
"32 28 104 2 ",
"   c #010101010000",
".  c #050504040000",
"X  c #080807070000",
"o  c #0C0C0B0B0000",
"O  c #0E0E0D0D0000",
"+  c #111110100000",
"@  c #161614140000",
"#  c #191917170000",
"$  c #1B1B19190000",
"%  c #1C1C1A1A0000",
"&  c #21211F1F1212",
"*  c #232321210000",
"=  c #252522220000",
"-  c #2A2A27270000",
";  c #2B2B28280000",
":  c #2D2D2A2A0000",
">  c #32322E2E0000",
",  c #393935350000",
"<  c #3C3C38380000",
"1  c #40403C3C0000",
"2  c #454540400000",
"3  c #4A4A46460000",
"4  c #4C4C47470000",
"5  c #52524C4C0000",
"6  c #575751510000",
"7  c #595953530000",
"8  c #5F5F59590000",
"9  c #63635C5C0000",
"0  c #6B6B64640000",
"q  c #6E6E67670000",
"w  c #71716A6A0000",
"e  c #787871710000",
"r  c #82827A7A0000",
"t  c #8B8B82820000",
"y  c #8C8C83830000",
"u  c #8E8E85850000",
"i  c #93938A8A0000",
"p  c #96968D8D0000",
"a  c #9D9D94940000",
"s  c #A3A399990000",
"d  c #A9A99F9F0000",
"f  c #B9B9ADAD0000",
"g  c #BDBDB1B10000",
"h  c #B2B2A8A81C1C",
"j  c #C7C7BBBB0101",
"k  c #C9C9BDBD0000",
"l  c #CECEC1C10000",
"z  c #D1D1C4C40000",
"x  c #D7D7CACA0000",
"c  c #D9D9CDCD0000",
"v  c #DBDBCECE0505",
"b  c #DEDED2D20000",
"n  c #E0E0D3D30000",
"m  c #E2E2D5D50000",
"M  c #E4E4D7D70000",
"N  c #E5E5D8D80000",
"B  c #E8E8DBDB0000",
"V  c #EBEBDDDD0000",
"C  c #EBEBDEDE1212",
"Z  c #EEEEE1E10000",
"A  c #F0F0E3E30000",
"S  c #F3F3E5E50000",
"D  c #F5F5E7E70000",
"F  c #F6F6E8E80000",
"G  c #F9F9EBEB0000",
"H  c #FAFAECEC0303",
"J  c #FAFAECEC0707",
"K  c #F8F8EBEB0A0A",
"L  c #FAFAECEC0909",
"P  c #FAFAEDED0E0E",
"I  c #FAFAEDED1616",
"U  c #FAFAEDED1818",
"Y  c #FBFBEDED1E1E",
"T  c #DDDDD3D33F3F",
"R  c #F2F2E5E52525",
"E  c #FBFBEDED2020",
"W  c #FBFBEEEE2727",
"Q  c #FBFBEEEE2929",
"!  c #FBFBEEEE2C2C",
"~  c #FBFBEEEE3030",
"^  c #FBFBEFEF3737",
"/  c #FBFBEFEF3A3A",
"(  c #A0A09A9A5151",
")  c #FBFBEFEF4545",
"_  c #F4F4E9E94D4D",
"`  c #FBFBF0F04646",
"'  c #FBFBF0F04949",
"]  c #FCFCF0F04E4E",
"[  c #FCFCF1F15A5A",
"{  c #FCFCF1F15F5F",
"}  c #E7E7DFDF6C6C",
"|  c #FCFCF1F16161",
" . c #FCFCF2F26565",
".. c #FCFCF2F26E6E",
"X. c #FCFCF2F27070",
"o. c #FCFCF2F27777",
"O. c #FCFCF3F37878",
"+. c #FCFCF3F37D7D",
"@. c #FCFCF4F48080",
"#. c #FDFDF4F48585",
"$. c #FDFDF5F58F8F",
"%. c #FDFDF5F59393",
"&. c #FDFDF5F59999",
"*. c None",
/* pixels */
"*.*.*.*.*.*.*.@.{ ] ] ] ] ] ] ] ] ] ] ] ] ] ] ] { *.*.*.*.*.*.*.",
"*.*.*.*.*...W H H H H H H H H H H H H H H H H H J W ) *.*.*.*.*.",
"*.*.*.&.^ H H H H H H H H H H H H H H H H H H G H H J E *.*.*.*.",
"*.*.%.W H H H H S m n n n n n n n n n n n n B G H H H H K *.*.*.",
"*.*.^ H H H V i < % $ $ $ $ $ $ $ $ $ $ $ $ = q x G H H H B *.*.",
"*.{ H H H b 4 . *.*.*.*.*.*.*.*.*.*.*.*.*.*.*.*.1 z H G H F *.*.",
"*.E H H A 5   *.*.*.*.*.*.*.*.*.*.*.*.*.*.*.*.*.*.*.A G H G f *.",
"| H H H d X *.*.*.*.*.*.*.*.*.*.*.*.*.*.*.*.*.*.*.*.V H H G b *.",
") H H G 9 *.*.*.*.*.*.*.*.*.*.*.*.*.*.*.*.*.*.*.*.*.*.I H H V 4 ",
"~ H H F 3 *.*.*.*.*.X.U I I U U U U U C 2 *.*.*.*.*.*.E H H V , ",
"! H H F 5 *.*.*.*.*.] H H H H H H H H N : *.*.*.*.*.*.! H H Z , ",
"W H H G r *.*.*.*.*.R Z Z Z Z D H H H z @ *.*.*.*.*.*.E H H M ; ",
"U G H H l *.*.*.*.*.> - - - ; h H H H d   *.*.*.*.*.o.J H H g o ",
"*.H H H F j *.*.*.*.*.*.*.*.*._ H H F 8 *.*.*.*.*.*.` H H H e *.",
"*.S H H H L *.*.*.*.*.*.*.*.X.J H H k @ *.*.*.*.*. .H H H c * *.",
"*.x D H H H U ] *.*.*.*.&.[ L H H S 7 *.*.*.*.$.' J H H D 0   *.",
"*.*.g F H H H H Y / ` ^ P H H H F t o *.*.+.Q J H H G G p o *.*.",
"*.*.*.d S H H H H H H H H H H S u O *.*.#.I H H H H S y + *.*.*.",
"*.*.*.*.w l F H H H H H H F l 9 o *.*.O.I H H H H j 6 X *.*.*.*.",
"*.*.*.*.*.% 8 s z c c l s 0 # & ( } T v c c k a 6 @   *.*.*.*.*.",
"*.*.*.*.*.*.*.*.+ $ @ @ .   *.*.< % # @ @ # +   *.*.*.*.*.*.*.*.",
"*.*.*.*.*.*.*.*.*.*.*.*.*.*.*.*.*.*.*.*.*.*.*.*.*.*.*.*.*.*.*.*.",
"*.*.*.*.*.*.*.*.*.*.*.*.*.*.*.*.*.*.*.*.*.*.*.*.*.*.*.*.*.*.*.*.",
"*.*.*.*.*.*.*.*.*.*.*.*.*.*.*.*.*.*.*.*.*.*.*.*.*.*.*.*.*.*.*.*.",
"*.*.*.*.H H H *.H H H *.H *.H *.H H H *.H H H H H H *.*.*.*.*.*.",
"*.*.*.*.*.*.*.*.H *.H *.H H H *.H *.*.*.H *.H H *.*.H *.*.*.*.*.",
"*.*.*.*.*.*.H *.H *.H *.H *.H *.H *.*.*.H *.*.H *.*.H *.*.*.*.*.",
"*.*.*.*.H H H *.H H H *.H *.H *.H H H *.H *.*.*.H H *.*.*.*.*.*."
};
