/* XPM */
static char *gadmin_rsync[] = {
/* columns rows colors chars-per-pixel */
"32 27 81 1 ",
"  c black",
". c #020203030505",
"X c #030304040606",
"o c #030305050808",
"O c #060607070909",
"+ c #050507070C0C",
"@ c #060609090F0F",
"# c #07070B0B1212",
"$ c #08080B0B1313",
"% c #08080C0C1313",
"& c #09090E0E1717",
"* c #0A0A0F0F1919",
"= c #0D0D10101515",
"- c #0B0B11111B1B",
"; c #0B0B11111D1D",
": c #0C0C13131E1E",
"> c #101015151F1F",
", c #0D0D14142121",
"< c #0E0E16162424",
"1 c #0F0F18182626",
"2 c #121218182222",
"3 c #16161A1A2222",
"4 c #101018182727",
"5 c #17171C1C2525",
"6 c #18181D1D2525",
"7 c #11111A1A2A2A",
"8 c #16161D1D2929",
"9 c #12121B1B2C2C",
"0 c #13131D1D2F2F",
"q c #13131D1D3030",
"w c #1B1B20202A2A",
"e c #1D1D25253232",
"r c #1D1D26263737",
"t c #171723233838",
"y c #171724243A3A",
"u c #191926263E3E",
"i c #212126263030",
"p c #23232A2A3636",
"a c #191927274040",
"s c #1C1C2A2A4545",
"d c #1E1E2E2E4B4B",
"f c #22222D2D4141",
"g c #2E2E35354343",
"h c #34343C3C4949",
"j c #3B3B42425050",
"k c #3B3B44445454",
"l c #3F3F49495B5B",
"z c #3C3C4C4C6868",
"x c #474751516363",
"c c #4A4A53536464",
"v c #414150506B6B",
"b c #4D4D5C5C7777",
"n c #53535E5E7171",
"m c #5E5E68687C7C",
"M c #4B4B5F5F8484",
"N c #545468688E8E",
"B c #565670709F9F",
"V c #656570708787",
"C c #676772728888",
"Z c #686873738888",
"A c #6B6B76768A8A",
"S c #6B6B79799191",
"D c #6A6A7B7B9A9A",
"F c #6B6B7C7C9B9B",
"G c #757583839D9D",
"H c #787885859D9D",
"J c #7D7D89899E9E",
"K c #75758686A4A4",
"L c #7B7B9292BCBC",
"P c #8B8B9898AFAF",
"I c #8D8D9A9AB1B1",
"U c #9595A2A2B9B9",
"Y c #9797A4A4BBBB",
"T c #9696A3A3BDBD",
"R c #89899E9EC5C5",
"E c #8E8EA3A3C9C9",
"W c #9F9FACACC4C4",
"Q c #9191A5A5CACA",
"! c #A8A8B6B6CFCF",
"~ c #B5B5C2C2DADA",
"^ c None",
/* pixels */
"^^^^^^^!JZCCCCCCCCCCCCVDL^^^^^^^",
"^^^^^YjO                -zB^^^^^",
"^^^^mO                    >:^^^^",
"^^^x    @;;;;-;-;;-;-;*.   Oq^^^",
"^^N   %9:$#####$######&q,   Of^^",
"^IO  &1.^^^^^^^^^^^^^^^^q7   9^^",
"^l  +7^^^^^^^^^^^^^^^^^^^d*  os^",
"R%  7O^^^^^^^^^^^^^^^^^^^^q  .t^",
"F   7^^^^^^^^^^^^^^^^^^^^^&O  0^",
"M  O0^^^^^Qpwwwwwwwf;^^^^^^8  0^",
"M  Oq^^^^^F        ,&^^^^^^e  0^",
"r   t^^^^^v----&   :#^^^^^E-  7^",
"o   0^^^^^&&%%&lO  7^^^^^^K   0^",
"^O  .a^^^^^^^^^S  X7^^^^^^g  &:^",
"^u    %^^^^^^^I%  <#^^^^^n   0O^",
"^^<   2N^^^^~A%  #4^^^^Uh   :-^^",
"^^s:    5lcj=   O0.^^Ti    &<^^^",
"^^^y,          %9o^^W6    ,4^^^^",
"^^^^<q*      +<<X^^P3   -0&^^^^^",
"^^^^^^:0<,<,7<3kGHb4<,79*.^^^^^^",
"^^^^^^^^^^+^^^^^^^Oo+o^^^^^^^^^^",
"^^^^^^^^^^^^^^^^^^^^^^^^^^^^^^^^",
"^^^^^^^^^^^^^^^^^^^^^^^^^^^^^^^^",
"^^^^^^^^^^^^^^^^^^^^^^^^^^^^^^^^",
"^^^^^^^^^^^^^^^^^^^^^^^^^^^^^^^^",
"^^^^^^^^^^^^^^^^^^^^^^^^^^^^^^^^",
"^^^^^^^^^^^^^^^^^^^^^^^^^^^^^^^^"
};
