/* XPM */
static char *gadmin_proftpd[] = {
/* columns rows colors chars-per-pixel */
"32 27 91 1 ",
"  c #000002020404",
". c #010104040909",
"X c #010107070E0E",
"o c #010109091212",
"O c #02020A0A1414",
"+ c #03030E0E1B1B",
"@ c #040413132323",
"# c #050514142626",
"$ c #050516162929",
"% c #070719192E2E",
"& c #12121C1C2828",
"* c #08081C1C3232",
"= c #08081D1D3434",
"- c #0B0B23233F3F",
"; c #0B0B25254141",
": c #0C0C28284646",
"> c #0E0E2D2D4E4E",
", c #0F0F2E2E5151",
"< c #101032325757",
"1 c #111135355B5B",
"2 c #121237375F5F",
"3 c #131338386161",
"4 c #13133A3A6464",
"5 c #14143B3B6565",
"6 c #14143C3C6767",
"7 c #15153D3D6969",
"8 c #343445455959",
"9 c #171742427272",
"0 c #181844447373",
"q c #191947477878",
"w c #1A1A4A4A7E7E",
"e c #343451517373",
"r c #3E3E5B5B7D7D",
"t c #1D1D4E4E8383",
"y c #1C1C4F4F8686",
"u c #1D1D50508787",
"i c #1E1E52528B8B",
"p c #1E1E53538C8C",
"a c #1F1F54548E8E",
"s c #1F1F56569191",
"d c #202057579393",
"f c #212158589393",
"g c #21215A5A9797",
"h c #21215A5A9898",
"j c #22225C5C9B9B",
"k c #23235E5E9D9D",
"l c #29295F5F9999",
"z c #282861619F9F",
"x c #2F2F64649F9F",
"c c #24245F5FA0A0",
"v c #24246161A2A2",
"b c #26266363A5A5",
"n c #26266464A7A7",
"m c #2D2D6464A0A0",
"M c #26266565A9A9",
"N c #2A2A6767AAAA",
"B c #2D2D6969ABAB",
"V c #33336969A7A7",
"C c #31316C6CADAD",
"Z c #37376E6EACAC",
"A c #38387070AFAF",
"S c #5E5E74749090",
"D c #616176768F8F",
"F c #42427777B3B3",
"G c #43437878B3B3",
"H c #47477979B4B4",
"J c #4C4C7A7AB0B0",
"K c #4B4B7C7CB5B5",
"L c #4F4F8080B8B8",
"P c #50508181B8B8",
"I c #57578686BBBB",
"U c #5B5B8989BDBD",
"Y c #64648D8DBFBF",
"T c #67679191C1C1",
"R c #69699292C2C2",
"E c #6C6C9494C3C3",
"W c #72729595C2C2",
"Q c #71719797C5C5",
"! c #76769B9BC6C6",
"~ c #7B7B9C9CC6C6",
"^ c #8080A0A0CACA",
"/ c #8484A5A5CCCC",
"( c #8888A7A7CDCD",
") c #8989A8A8CECE",
"_ c #8E8EACACD0D0",
"` c #9797B2B2D4D4",
"' c #9898B3B3D4D4",
"] c #A6A6BCBCD9D9",
"[ c #A9A9BFBFDBDB",
"{ c #B8B8CACAE1E1",
"} c None",
/* pixels */
"}}}}}}}]/QQQEEEEQQWEEEERW}}}}}}}",
"}}}}}'PNMMMMMNMMMMMMMMNMZHJ}}}}}",
"}}}}RNMMMMMMMMMMMMMMMMMMMMBV}}}}",
"}}}IMMMMkyttytytyttutysnMMMNh}}}",
"}}TMMMg,+oXooooOoXoooXO-iMMMM0}}",
"}(NMMa$ }}}}}}}}}}}}}}}}%uMMMf}}",
"}LMMc%}}}}}}}}}}}}}}}}}}},vnMb>}",
"^BMM7.}}}}}}}}}}}}}}}}}}}}gMMM6}",
"YMMM-}}}}}}}}}}}}}}}}}}}}}mBMMq}",
"KMMn%}}}}}(ACCZBZCCl+}}}}}}BMMq}",
"KMMM*}}}}}WMMMMnMMMdo}}}}}}ZMM0}",
"ZMMM1}}}}}FyyyyhMMMwX}}}}}/CMM7}",
"zMMMp}}}}}ooXoorNMM3}}}}}}!MMM;}",
"}bMMMt}}}}}}}}}EMMv%}}}}}[FMMg+}",
"}pMMMNx}}}}}}})BMM9X}}}}{UMMM<}}",
"}}dMMMCK~}}}[ENMMh#}}}{_GMMMuO}}",
"}}:fMMMMBHLHNMMMk-}}}_CMMMMa#}}}",
"}}}-uMMMMMMMMMMg- }}`ZMMMMq@}}}}",
"}}}}},aMMMMMMj3@}}}/CMMbi:o}}}}}",
"}}}}}}O=<652-+&8SDe645,%o}}}}}}}",
"}}}}}}}}}}}}}}}}}}}}}}}}}}}}}}}}",
"}}}}}}}}}}}}}}}}}}}}}}}}}}}}}}}}",
"}}}}}}}}}}}}}}}}}}}}}}}}}}}}}}}}",
"}MMM}MMM}MMM}MMM}MMMMMM}MMMMMM}}",
"}M}}}M}M}M}M}M}}MM}}}M}}M}MM}}M}",
"}M}MMMM}}MMM}M}}MM}}}M}}M}}M}}M}",
"}}MM}M}}}M}M}MMM}M}}}M}}M}}}MM}}"
};
