/* XPM */
static char *gimp[] = {
/* columns rows colors chars-per-pixel */
"32 32 119 2 ",
"   c #02EE031802C3",
".  c #0B3E0B8C0AD8",
"X  c #0D0D0F0F1010",
"o  c #0E0E10101212",
"O  c #139414951353",
"+  c #151516961898",
"@  c #15961898199A",
"#  c #199A1B9C1BDC",
"$  c #232320201A1A",
"%  c #1D1D1F1F2020",
"&  c #1D5D212122E3",
"*  c #2278247A2525",
"=  c #272728282727",
"-  c #26A72A2A2B2B",
";  c #2A5D2C2C2C93",
":  c #333330302626",
">  c #3D3D39392E2E",
",  c #2E2E334B3504",
"<  c #319B35713609",
"1  c #343437373838",
"2  c #35353AA13B08",
"3  c #39393AE538E3",
"4  c #434323230505",
"5  c #474735351F1F",
"6  c #545436361515",
"7  c #66663C3C0E0E",
"8  c #3E3E41413E3E",
"9  c #747443430E0E",
"0  c #747448481717",
"q  c #474742423535",
"w  c #410141413C3C",
"e  c #4C4C46463838",
"r  c #4F4F49493B3B",
"t  c #5D5D4C4C3434",
"y  c #53D44DCE3DDE",
"u  c #636348482525",
"i  c #37373E3E4141",
"p  c #3D3D43434545",
"a  c #440446064444",
"s  c #474748484444",
"d  c #4C4C4ACA4343",
"f  c #444448484848",
"g  c #4ACA4B4B4A8A",
"h  c #52D24ECF42C2",
"j  c #51514F4F4949",
"k  c #5681512641EC",
"l  c #5A8D540F4310",
"z  c #5F5F58D94747",
"x  c #535352274B4B",
"c  c #5B0556004949",
"v  c #5D90598C4CB3",
"b  c #494953535656",
"n  c #51D253D45252",
"m  c #575758585656",
"M  c #515157575A5A",
"N  c gray36",
"B  c #606059DA4747",
"V  c #63CD5CF34B0F",
"C  c #62E35E5E51D2",
"Z  c #5DDE60605E5E",
"A  c #676760604D4D",
"S  c #6A45631A4EE1",
"D  c #666662625656",
"F  c #6BC16548541B",
"G  c #6A6A66265959",
"H  c #6E6E69695B5B",
"J  c #70F168E953D4",
"K  c #7C7C6C6C5757",
"L  c #73F46DCD5C1C",
"P  c #777771715F5F",
"I  c #656565656464",
"U  c #676768686363",
"Y  c #66666A6A6B6B",
"T  c #72726E6E61B7",
"R  c #6EC4711B6D17",
"E  c #767671716161",
"W  c #7A7A747464E5",
"Q  c #73C97474721C",
"!  c #777778787373",
"~  c #707076767878",
"^  c #74747C7C7D7D",
"/  c #7B7B7E7E7F7F",
"(  c #82824B4B0E0E",
")  c #929254541212",
"_  c #ACAC5F5F0D0D",
"`  c #9D9D61611F1F",
"'  c #BBBB67670F0F",
"]  c #81817F7F7272",
"[  c #830381817575",
"{  c #860686067BFC",
"}  c #844485C581C1",
"|  c #868688888181",
" . c #89898B52854C",
".. c #8C368E388888",
"X. c #8F8F91918B8B",
"o. c #931394138F0F",
"O. c #953F964091E7",
"+. c #9A1A9B1B9595",
"@. c #9E489F4999EF",
"#. c #9C9CA0A0A1A1",
"$. c #A423A524A323",
"%. c #A7A7A8A8A8A8",
"&. c #A9A9A9A9A9A9",
"*. c #B1B1B1B1AEAE",
"=. c #ACACB0B0B2B2",
"-. c #B4B4B6B6B3B3",
";. c #BABABB3BB737",
":. c #BCBCBDBDBABA",
">. c #C6C6C6C6BFBF",
",. c #C9C9CACAC7C7",
"<. c #D2D2D2D2CCCC",
"1. c #D9D9D9D9D656",
"2. c #D7D7D8D8D9D9",
"3. c gray87",
"4. c #E8E8E8E8E7E7",
"5. c #EB95EBEBEA94",
"6. c gray95",
"7. c #FE53FEA8FEA8",
"8. c None",
/* pixels */
"8.8.8.8.8.8.8.8.8.8.8.8.8.8.8.8.8.8.8.8.8.8.8.8.8.8.8.8.8.8.8.8.",
"8.8.8.8.8.8.8.8.8.8.8.8.8.8.8.8.8.8.8.8.8.8.8.8.8.8.8.8.8.8.8.8.",
"8.8.8.8.8.8.8.8.8.8.8.8.8.8.8.8.8.8.8.8.8.8.8.8.8.8.8.8.8.8.8.8.",
"8.8.8.8.8.8.8.8.8.8.8.8.8.8.8.8.8.8.8.8.8.8.8.8.8.8.8.8.8.8.8.8.",
"8.8.8.8.8.8.8.8.8.8.8.8.8.8.8.8.8.8.8.8.8.8.8.8.8., 8.8.8.8.8.8.",
"8.8.8.8.8.8.8.8.8.8.8.8.8.8.8.8.8.8.8.8.8.8.8.8.8., , 8.8.8.8.8.",
"8.8.8.8.8.8.8., 8.8.8.8.8.8.8.8.8.8.8.8.8.8.8.8.< s < 8.8.8.8.8.",
"8.8.8.8.8.8.8., 8.8.8.8.8.8.8.8.8.8.8.8.8.8.8.< x j , 8.8.8.8.8.",
"8.8.8.8.8.8.8.< < 8.8.8.8.8.8.8.8.8.8.8.8., 2 x D x , 8.8.8.8.8.",
"8.8.8.8.8.8.8.2 T f 1 8.8.8.8.8.8.8.8., 2 x H v c x < 8.8.8.8.8.",
"8.8.8.8.8.8.8.n .... .Z a { o.@...R g m T D y r c j < 8.8.8.8.8.",
"8.8.8.8.8.8.8. .,.2.$.X...;.5.4.2.@.[ H B l y y v h < 8.8.8.8.8.",
"8.    % .   R @.*.5.} a o.1.&.3.s D  .V B z y y C h < 8.8.8.8.8.",
"8.  2.6.~ ; . ..I %.Y < +.<.Q 7./   / C B l l y C s , 8.8.8.8.8.",
"8.# 7.7.^ M - 3 O.. . w ..>.; ; % X { V B z l y D 3 8.8.8.8.8.8.",
"8.O #.=.b i , . | | R ] { o.+.1 - U L V B l k h G < 8.8.8.8.8.8.",
"8.  a p 2 , * . y P L L K ]  . .| L A B z l y c v < 8.8.8.8.8.8.",
"8.8.O < - % @ . e S J J J J F F S V k : l l y D 3 , 8.8.8.8.8.8.",
"8.8.8.. # @ o . B S S S S S S V V > .   $ k v v < 8.8.8.8.8.8.8.",
"8.8.8.8.      w W P S A A B l q : O $ ( 9 u V 2 = 8.8.8.8.8.8.8.",
"8.8.8.8.8.8.8., 3 v E E F V v z t l k t 0 ' ) 6 8.8.8.8.8.8.8.8.",
"8.8.8.8.8.8.8.8.* , < x G L L H G L G D d 5 7 _ ` ;.! 8.8.8.8.8.",
"8.8.8.8.8.8.8.8.8.8.@ ; , , < 8 s 3 , , , + 8.4 K -.4.:.8.8.8.8.",
"8.8.8.8.8.8.8.8.8.8.8.8.8.8.+ & * # . 8.8.8.8.8.Q  .$.O.I Q * 8.",
"8.8.8.8.8.8.8.8.8.8.8.8.8.8.8.8.8.8.8.8.8.8.8.8.8.8.8.m N g 3 8.",
"8.8.8.8.8.8.8.8.8.8.8.8.8.8.8.8.8.8.8.8.8.8.8.8.8.8.8.8.n g ; 8.",
"8.8.8.8.8.8.8.8.8.8.8.8.8.8.8.8.8.8.8.8.8.8.8.8.8.8.8.8.8.8.#   ",
"8.8.8.8.8.8.8.8.8.8.8.8.8.8.8.8.8.8.8.8.8.8.8.8.8.8.8.8.8.8.8.8.",
"8.8.8.8.8.8.8.8.8.8.8.8.8.8.8.8.8.8.8.8.8.8.8.8.8.8.8.8.8.8.8.8.",
"8.8.8.8.8.8.8.8.8.8.8.8.8.8.8.8.8.8.8.8.8.8.8.8.8.8.8.8.8.8.8.8.",
"8.8.8.8.8.8.8.8.8.8.8.8.8.8.8.8.8.8.8.8.8.8.8.8.8.8.8.8.8.8.8.8.",
"8.8.8.8.8.8.8.8.8.8.8.8.8.8.8.8.8.8.8.8.8.8.8.8.8.8.8.8.8.8.8.8."
};
