/* XPM */
static char *gliv[] = {
/* columns rows colors chars-per-pixel */
"32 32 61 1 ",
"  c black",
". c #030300000404",
"X c #040400000606",
"o c #050500000909",
"O c #080800000D0D",
"+ c #0B0B00001212",
"@ c #0E0E00001616",
"# c #0F0F00001818",
"$ c #121200001D1D",
"% c #161600002323",
"& c #171700002525",
"* c #181800002727",
"= c #1A1A00002929",
"- c #1B1B00002C2C",
"; c #1F1F00003131",
": c #212100003535",
"> c #232300003838",
", c #242400003A3A",
"< c #262600003D3D",
"1 c #272700004040",
"2 c #292900004343",
"3 c #2A2A00004444",
"4 c #2F2F00004C4C",
"5 c #313100004E4E",
"6 c #323200005151",
"7 c #373700005858",
"8 c #393900005C5C",
"9 c #3D3D00006262",
"0 c #404000006666",
"q c #414100006969",
"w c #434300006C6C",
"e c #454500006F6F",
"r c #474700007272",
"t c #484800007373",
"y c #484800007474",
"u c #4E4E00007C7C",
"i c #525200008383",
"p c #525200008484",
"a c #555500008989",
"s c #575700008C8C",
"d c #595900008E8E",
"f c #595900009090",
"g c #5C5C00009393",
"h c #5F5F00009898",
"j c #626200009D9D",
"k c #65650000A3A3",
"l c #67670000A5A5",
"z c #69690000A9A9",
"x c #6D6D0000AEAE",
"c c #6E6E0000B0B0",
"v c #71710000B6B6",
"b c #73730000B9B9",
"n c #74740000B9B9",
"m c #76760000BEBE",
"M c #79790000C3C3",
"N c #7B7B0000C6C6",
"B c #7C7C0000C7C7",
"V c #7F7F0000CBCB",
"C c #7F7F0000CCCC",
"Z c #80800000CCCC",
"A c None",
/* pixels */
"AAAAAAAAAAAAA=-><7AAAAAAAAAAAAAA",
"AAAAAAAAAA;qhlcMMvzjr2AAAAAAAAAA",
"AAAAAAA$8jCCCCCCCCVVCCa-AAAAAAAA",
"AAAAAA<hVCCCCCCCCCCCCCCc3AAAAAAA",
"AAAA#9VCCCCVVVBZAnNCVVCCv:AAAAAA",
"AAAAwMCCVVVAAAAAAAAAAVCVVkoAAAAA",
"AA.6CCCVCAAAAAAAAAAAAAVVVV5AAAAA",
"AA$kCCVVAAeCAAAypAAAAAAVCCeAAAAA",
"A 9VCCAAAAeCNAAuiAAAAAACCCaAAAAA",
"A jCCCAAAAeCNAAgfAAbxAACCCdAAVrA",
"A+VVCZAAAAeCNAACCAAABMtMCCheZm8A",
"A1CCCAAAAAeCNAACCAAAcMMNCCMMv5AA",
" 0CCCAAAAAeCNAACCAAAAAmVCCVk&AAA",
" yCCCAAAAAeCNAACCAAAAAAMCVs<AAAA",
" pCCCAAAAAeCNAAAAAAAAAAAzrAAAAAA",
".sCCCAAAAAeCNAAAAACCCCCmAAAAAAAA",
"OfCCCAAAAAeCNAAVCCCCCCCCMxAAAAAA",
"XdCCCAAAAAeCNACCCCCCCCCCVNAAAAAA",
" pCCCAAAAAeCVVCCCNlatulVVCxAAAAA",
" 9CCCAAAAAeCCCCCz6*AAA,aVCVrAAAA",
"A:ZZCAAAAAeCCCCmzMCAAAAANCZdAAAA",
"AoCZCCAAAAeCCCCCVVCAAAAAMCZz AAA",
"A aCCCAAAA=44444444AAAAAVVCz AAA",
"A 2NCCCAAAAAAAAAAAAAAAAACVZf AAA",
"AAOaCCCCAAAAAAAAAAAAAAAZCCN5AAAA",
"AA &mVCCCCAAAAAAAAAAAAZCCCl$AAAA",
"AAA >cCCCCCCAAAAAAAACCCCCN1 AAAA",
"AAAA.>bCCCCCCCCCCCCCCCCCVr.AAAAA",
"AAAAA @9lNCCCCCVCCCCVVVc8oAAAAAA",
"AAAAAA  $<uzVCCCCCCCVvq=  AAAAAA",
"AAAAAAAA    X%358751@   AAAAAAAA",
"AAAAAAAAAAAAA       AAAAAAAAAAAA"
};
