/* XPM */
static char *gltron[] = {
/* columns rows colors chars-per-pixel */
"32 32 69 1 ",
"  c #020202020000",
". c #050505050000",
"X c #0B0B0B0B0000",
"o c #0F0F0F0F0000",
"O c #232323230000",
"+ c #292929290000",
"@ c #363636360000",
"# c #3B3B3B3B0000",
"$ c #3E3E3E3E0000",
"% c #4A4A4A4A0000",
"& c #515151510000",
"* c #555555550000",
"= c #686868680000",
"- c #7F7F7F7F0000",
"; c #808080800000",
": c #8E8E8E8E0000",
"> c #969696960000",
", c #9B9B9B9B0000",
"< c #A6A6A6A60000",
"1 c #ACACACAC0000",
"2 c #B7B7B7B70000",
"3 c #B9B9B9B90000",
"4 c #BEBEBEBE0000",
"5 c #C1C1C1C10000",
"6 c #C8C8C8C80000",
"7 c #CECECECE0000",
"8 c #D1D1D1D10000",
"9 c #D7D7D7D70000",
"0 c #DEDEDEDE0000",
"q c #D9D9D9D90404",
"w c #C2C2C2C21717",
"e c #E2E2E2E20000",
"r c #E6E6E6E60000",
"t c #E8E8E8E80000",
"y c #EEEEEEEE0000",
"u c #F0F0F0F00000",
"i c #F7F7F7F70000",
"p c #F4F4F4F40707",
"a c #FAFAFAFA0000",
"s c #FEFEFEFE0000",
"d c #F8F8F8F80F0F",
"f c #F3F3F3F31919",
"g c #CDCDCDCD2121",
"h c #858585857272",
"j c #CCCCCCCC4343",
"k c #D7D7D7D75252",
"l c #C7C7C7C77373",
"z c #C4C4C4C47B7B",
"x c #C3C3C3C37D7D",
"c c #4D4D4D4D9595",
"v c #565656569E9E",
"b c #BDBDBDBD8181",
"n c #9A9A9999A2A2",
"m c #9A9A9999B3B3",
"M c #A3A3A3A3A5A5",
"N c #ACACACACA1A1",
"B c #AAAAAAAAA4A4",
"V c #9B9B9B9BCECE",
"C c #89898989DEDE",
"Z c #8C8C8B8BDDDD",
"A c #97979696D7D7",
"S c #96969696D9D9",
"D c #8F8F8F8FE8E8",
"F c #8C8C8C8CECEC",
"G c #90909090E6E6",
"H c #89898989F4F4",
"J c #85858585FAFA",
"K c #84848484FFFF",
"L c None",
/* pixels */
"LLLLLLLLLLLLLLLLLLLLLLLLLLLLLLLL",
"LLLLLLLLLLLLLLLLLLLLLLLLLLLLLLLL",
"LLLLLLLLLLLLLLLLLLLLLLLLLLLLLLLL",
"LLLLLLLLLLLLLLLLLLLLLLLLLLLLLLLL",
"LLLLLLLLLLLLLLLLLLLLLLLLLLLLLLLL",
"LLLLLLLLLLLLLLLLLLLLLLLLLLLLLLLL",
"LLLLLLLLLLLLLLLLLLLLLLLLLLLLLLLL",
"LLLLLLLLLLLLLLLLLLLLLLLLLLLLLLLL",
"LLLLLLLLLLLLLLLLLLLLLLLLLLLLLLLL",
"LLLLLLLLLLLLLLLLLLLLLLLLLLLLLLLL",
"LLLLLLLLLLLL $*=8utLLLLLLLLLLLLL",
"LLLLLO%&->4tuaiiuasauytLLLLLLLLL",
"LLLL3aiuiyiiuassssaiiiiiiuLLLLLL",
"LL;raiassssssssssssssssapbVLLLLL",
"L3iuasssssssssssssssssdzSKFttyLL",
"LL71:::,tfssssssssssssLjhcv@#9yL",
"L94o    :gNksssssssssr03X    %yL",
"Lr&      >gKDlfssssssra+     .9i",
"ii1.    o2wJKKHGGGGxsLs6    .1sL",
"Lis1.   <qnCZmMBALLLLLLs4>>>5sLL",
"LLssyeeepLLLLLLLLLLLLLLLsssssLLL",
"LLLssapayLLLLLLLLLLLLLLLLLLLLLLL",
"LLLLLLLLLLLLLLLLLLLLLLLLLLLLLLLL",
"LLLLLLLLLLLLLLLLLLLLLLLLLLLLLLLL",
"LLLLLLLLLLLLLLLLLLLLLLLLLLLLLLLL",
"LLLLLLLLLLLLLLLLLLLLLLLLLLLLLLLL",
"LLLLLLLLLLLLLLLLLLLLLLLLLLLLLLLL",
"LLLLLLLLLLLLLLLLLLLLLLLLLLLLLLLL",
"LLLLLLLLLLLLLLLLLLLLLLLLLLLLLLLL",
"LLLLLLLLLLLLLLLLLLLLLLLLLLLLLLLL",
"LLLLLLLLLLLLLLLLLLLLLLLLLLLLLLLL",
"LLLLLLLLLLLLLLLLLLLLLLLLLLLLLLLL"
};
