/* XPM */
static char *gmult[] = {
/* columns rows colors chars-per-pixel */
"32 32 200 2 ",
"   c black",
".  c #020202020202",
"X  c gray2",
"o  c gray3",
"O  c gray4",
"+  c #0C0C0C0C0B0B",
"@  c #121212121111",
"#  c #141414141313",
"$  c gray8",
"%  c #151515151515",
"&  c #161616161515",
"*  c #161616161616",
"=  c gray9",
"-  c #181818181717",
";  c #181818181818",
":  c #191919191818",
">  c #191919191919",
",  c gray10",
"<  c #1D1D1D1D1C1C",
"1  c #1D1D1D1D1D1D",
"2  c #1E1E1E1E1C1C",
"3  c #1E1E1E1E1D1D",
"4  c #202020202020",
"5  c #232323232222",
"6  c #232323232323",
"7  c gray14",
"8  c #272727272727",
"9  c #282828282828",
"0  c gray16",
"q  c #2A2A2A2A2929",
"w  c #2C2C2C2C2C2C",
"e  c #323232323232",
"r  c #343434343333",
"t  c #353535353333",
"y  c gray21",
"u  c #393939393737",
"i  c gray22",
"p  c #393939393939",
"a  c #3A3A3A3A3A3A",
"s  c #3A3A3A3A3B3B",
"d  c gray23",
"f  c #3E3E3E3E3B3B",
"g  c #3C3C3C3C3C3C",
"h  c #3F3F3F3F3F3F",
"j  c #404040403D3D",
"k  c gray25",
"l  c #434343434242",
"z  c #454545454242",
"x  c #454545454343",
"c  c #484848484848",
"v  c #4C4C4C4C4949",
"b  c #4E4E4E4E4E4E",
"n  c #545454545050",
"m  c #545454545151",
"M  c #565656565656",
"N  c #5B5B5B5B5B5B",
"B  c #5E5E5E5E5A5A",
"V  c #5D5D5D5D5C5C",
"C  c #5D5D5D5D5D5D",
"Z  c gray37",
"A  c #626262625E5E",
"S  c gray38",
"D  c gray40",
"F  c #676767676767",
"G  c #686868686464",
"H  c #6B6B6B6B6767",
"J  c #6A6A6A6A6868",
"K  c #6A6A6A6A6A6A",
"L  c #6C6C6C6C6C6C",
"P  c #6D6D6D6D6C6C",
"I  c #6D6D6D6D6D6D",
"U  c #6E6E6E6E6D6D",
"Y  c #707070706E6E",
"T  c gray44",
"R  c #747474747474",
"E  c #7B7B7B7B7878",
"W  c gray48",
"Q  c #7A7A7A7A7B7B",
"!  c #7D7D7D7D7878",
"~  c gray49",
"^  c gray50",
"/  c #818181817C7C",
"(  c #828282827D7D",
")  c #808080808080",
"_  c #808080808181",
"`  c #818181818181",
"'  c gray51",
"]  c #858585858484",
"[  c #888888888686",
"{  c #8C8C8C8C8787",
"}  c gray55",
"|  c #8E8E8E8E8E8E",
" . c #909090908B8B",
".. c #909090908E8E",
"X. c #929292928C8C",
"o. c #929292928D8D",
"O. c #939393938D8D",
"+. c #939393938E8E",
"@. c #949494948E8E",
"#. c gray58",
"$. c #979797979696",
"%. c #989898989292",
"&. c #989898989898",
"*. c #9F9F9F9F9999",
"=. c gray61",
"-. c #9E9E9E9E9D9D",
";. c gray62",
":. c #A1A1A1A19B9B",
">. c #A2A2A2A29B9B",
",. c #A2A2A2A29C9C",
"<. c #A2A2A2A29F9F",
"1. c #A3A3A3A39F9F",
"2. c #A4A4A4A49D9D",
"3. c #A3A3A3A3A0A0",
"4. c #A4A4A4A4A4A4",
"5. c gray65",
"6. c #A8A8A8A8A2A2",
"7. c #A9A9A9A9A2A2",
"8. c #ADADADADA6A6",
"9. c #ACACACACAAAA",
"0. c #AEAEAEAEA8A8",
"q. c #ACACACACACAC",
"w. c #AEAEAEAEAEAE",
"e. c #AFAFAFAFAFAF",
"r. c #B1B1B1B1AAAA",
"t. c #B6B6B6B6AFAF",
"y. c #B7B7B7B7B4B4",
"u. c #B9B9B9B9B2B2",
"i. c #BEBEBEBEB7B7",
"p. c gray73",
"a. c #BBBBBBBBBBBB",
"s. c #BFBFBFBFBCBC",
"d. c #C1C1C1C1B9B9",
"f. c #C1C1C1C1BABA",
"g. c #C2C2C2C2BABA",
"h. c #C5C5C5C5BDBD",
"j. c #C6C6C6C6BFBF",
"k. c #C2C2C2C2C0C0",
"l. c #C6C6C6C6C6C6",
"z. c #C8C8C8C8C0C0",
"x. c #CBCBCBCBC3C3",
"c. c #CCCCCCCCC3C3",
"v. c #CECECECEC6C6",
"b. c #CFCFCFCFC6C6",
"n. c #C8C8C8C8C8C8",
"m. c gray80",
"M. c #CDCDCDCDCDCD",
"N. c #D2D2D2D2CACA",
"B. c #D5D5D5D5CCCC",
"V. c #D7D7D7D7CECE",
"C. c #D7D7D7D7CFCF",
"Z. c #D2D2D2D2D2D2",
"A. c LightGray",
"S. c #D7D7D7D7D6D6",
"D. c #D9D9D9D9D0D0",
"F. c #DADADADAD1D1",
"G. c #DCDCDCDCD3D3",
"H. c #DDDDDDDDD4D4",
"J. c #D8D8D8D8D8D8",
"K. c #E0E0E0E0D7D7",
"L. c #E0E0E0E0D8D8",
"P. c #E2E2E2E2DADA",
"I. c #E3E3E3E3DADA",
"U. c #E1E1E1E1DFDF",
"Y. c #E4E4E4E4DBDB",
"T. c #E5E5E5E5DCDC",
"R. c #E6E6E6E6DDDD",
"E. c #E7E7E7E7DEDE",
"W. c #E8E8E8E8DFDF",
"Q. c #E9E9E9E9DFDF",
"!. c #E1E1E1E1E1E1",
"~. c #E2E2E2E2E2E2",
"^. c #E4E4E4E4E4E4",
"/. c #E7E7E7E7E7E7",
"(. c #E9E9E9E9E0E0",
"). c #EAEAEAEAE0E0",
"_. c #EAEAEAEAE1E1",
"`. c #EBEBEBEBE2E2",
"'. c #ECECECECE3E3",
"]. c #EDEDEDEDE4E4",
"[. c gray91",
"{. c #E9E9E9E9E9E9",
"}. c #EBEBEBEBE9E9",
"|. c #EAEAEAEAEAEA",
" X c gray92",
".X c #EEEEEEEEEEEE",
"XX c #EFEFEFEFEFEF",
"oX c #F3F3F3F3F2F2",
"OX c #F3F3F3F3F3F3",
"+X c #F4F4F4F4F3F3",
"@X c gray96",
"#X c #F6F6F6F6F6F6",
"$X c #F9F9F9F9F8F8",
"%X c #F9F9F9F9F9F9",
"&X c gray98",
"*X c #FBFBFBFBFBFB",
"=X c #FDFDFDFDFDFD",
"-X c #FEFEFEFEFEFE",
";X c #FFFFFFFFFEFE",
":X c gray100",
/* pixels */
"[ <.<.3.3.3.3.3.3.3.3.3.3.3.3.3.1.<.<.<.2.3.<.<.<.<.<.<.<.<.1.[ ",
"1.E.(.V.x.x.x.x.x.x.x.x.x.x.x.x.V.(.E.E.E.E.E.E.E.E.E.E.E.E.E.<.",
"<.(.x.E U U U U U U U U U U U U W x.(.R.E.E.E.E.E.E.E.R.E.E.E.3.",
"<.'.@.4.:X:X:X:X:X:X:X:X:X:X:X:X4.@.'.R.E.E.E.E.E.E.E.R.R.E.E.<.",
"<.'.@.4.:X&XJ.Z.!.:XOXS.A.}.:X:X4.@.'.R.R.E.E.E.E.E.E.E.R.E.E.<.",
"<.'.@.4.:X Xh 7 U :Xk.r 9 #.:X:X4.@.'.E.E.x.@.u.H.>.2.H.E.E.E.<.",
"<.'.@.4.:X^.= X h ^.#.o   ' &X:X4.@.'.R.(.N.x r ( - E I.E.E.E.<.",
"<.'.@.4.:X X= y 7 p.J y o ' :X:X4.@.'.E.E.(.6.< @ x B.E.E.E.E.<.",
"<.'.@.4.:X^.= S , | s J @ ' :X:X3.@.'.E.E.E.D.j   ( E.E.E.E.E.2.",
"<.'.@.4.:X X= U s c , .., ' &X:X4.@.'.E.E.E...@ = q g.(.E.E.E.1.",
"1.'.@.4.:X^.= W K   3 w., ~ :X:X4.@.'.E.E.d.5 v >.< n D.E.E.E.<.",
"<.'.@.4.:X^.= ' &.  h m.= ~ :X:X4.@.'.E.E.j.%.j.I.8.>.D.(.E.E.<.",
"<.'.@.4.:XXXD e.m.C }  XD q.:X:X4.@.'.E.R.(.'.(.E.(.'.E.R.R.E.<.",
"1.'.@.4.:X:X:X:X:X:X:X:X:X:X:X:X4.@.'.E.R.R.R.R.E.R.R.R.R.R.E.<.",
"<.(.r.] 4.4.4.4.4.4.4.4.4.4.4.4.] r.'.R.R.R.R.R.E.E.R.R.R.R.E.<.",
"<.E.(.r.@.@.@.@.@.@.@.@.@.@.@...t.'.'.'.'.'.'.'.'.'.'.'.'.(.E.<.",
"2.E.E.E.'.'.'.'.'.'.'.'.'.'.'.E.>...@.@.@.@.@.@.@.@.@.@.@.x.(.<.",
"2.E.E.E.E.E.E.E.E.E.E.E.E.E.E.{ &.4.4.4.4.4.4.4.4.4.4.4.4.W D.2.",
"<.E.R.R.R.R.E.E.R.R.E.E.E.E.E.G !.:X:X:X:X:X:X:X:X:X:X:X:XU x.1.",
"1.E.R.R.R.E.'.E.E.R.E.E.E.E.E.G !.:X:X&Xy.;.;.;.s.XX:X:X:XU x.3.",
"<.E.E.E.E.I.g.g.I.E.E.E.E.E.E.G !.:X:X.Xl - e q = ' &X:X:XU x.3.",
"<.E.R.E.Q.I.A A I.(.E.E.E.E.E.G !.:X:X.Xs b m.l.n 5  X:X:XU x.3.",
"1.E.E.R.g.2.j d 2.g.I.E.E.E.E.G !.:X:X.Xs M ^.U.N <  X:X:XU x.3.",
"<.E.E.H.H 3 + + 3 H K.E.E.E.E.G !.:X:X.Xd - l u , ~ &X:X:XU x.3.",
"<.E.E.R.j.6.j j 6.j.R.R.R.R.E.G !.:X:X.Xs w R W 9.XX:X:X:XU x.3.",
"<.E.E.E.R.K.B B L.E.R.R.R.R.E.G !.:X:X.Xs C @X:X:X:X:X:X:XU x.3.",
"<.E.E.E.R.I.j.j.R.R.E.R.R.R.R.G !.:X:X.Xs C @X:X:X:X:X:X:XU x.3.",
"<.E.E.E.R.R.R.R.R.R.R.R.R.R.R.D !.:X:X&Xp.l.:X:X:X:X:X:X:XU x.3.",
"<.E.E.E.R.R.R.R.E.R.R.R.R.R.(.G !.:X:X:X:X:X:X:X:X:X:X:X:XP x.2.",
"<.E.E.E.R.R.R.R.E.E.R.R.R.E.E.8.U U U U U U U U U U U U U ..L.1.",
"<.E.E.E.E.E.E.E.E.E.E.E.E.E.E.(.b.x.x.x.x.x.x.x.x.x.x.x.x.L.(.<.",
"[ 3.<.<.<.<.<.<.<.<.1.<.<.<.<.<.3.3.3.3.3.3.3.3.3.3.3.3.3.1.<.[ "
};
