/* XPM */
static char *gnome_vumeter[] = {
/* columns rows colors chars-per-pixel */
"32 32 117 2 ",
"   c #7D7D7F7F0000",
".  c #8E8E01010000",
"X  c #909001010000",
"o  c #91910A0A0000",
"O  c #959515150000",
"+  c #97971A1A0000",
"@  c #98981F1F0000",
"#  c #9A9A24240000",
"$  c #9D9D2D2D0000",
"%  c #9E9E33330000",
"&  c #A1A136360F0F",
"*  c #F0F013130000",
"=  c #F1F11A1A0000",
"-  c #F1F123230000",
";  c #F1F12A2A0000",
":  c #F2F224240A0A",
">  c #F2F233330000",
",  c #F2F23D3D0000",
"<  c #F1F132320909",
"1  c #A3A341410000",
"2  c #A6A64B4B0000",
"3  c #A9A952520000",
"4  c #ACAC5B5B0000",
"5  c #97976F6F0000",
"6  c #99996D6D0000",
"7  c #8C8C76760000",
"8  c #85857B7B0000",
"9  c #A6A665650000",
"0  c #A9A963630000",
"q  c #A1A169690000",
"w  c #F3F349490000",
"e  c #F2F240400909",
"r  c #F3F34E4E0909",
"t  c #F3F355550000",
"y  c #F3F35C5C0000",
"u  c #F3F35D5D0909",
"i  c #F4F466660000",
"p  c #F4F46C6C0909",
"a  c #EFEF7C7C0000",
"s  c #F4F472720000",
"d  c #F5F579790000",
"f  c #F4F47B7B0909",
"g  c #4D4D9E9E0000",
"h  c #5B5B95950000",
"j  c #565698980000",
"k  c #63638F8F0000",
"l  c #6B6B8A8A0000",
"z  c #727286860000",
"x  c #616191910000",
"c  c #747490900E0E",
"v  c #5252A1A10707",
"b  c #5555A3A30C0C",
"n  c #7979CDCD1414",
"m  c #9C9CB5B50E0E",
"M  c #9898B8B80F0F",
"N  c #9494BABA1010",
"B  c #9999BBBB1717",
"V  c #A6A6AEAE0D0D",
"C  c #ABABABAB0C0C",
"Z  c #B7B7A3A30A0A",
"A  c #B8B8A2A20A0A",
"S  c #A2A2B1B10D0D",
"D  c #B8B8A6A61212",
"F  c #A9A9B1B11515",
"G  c #D5D58E8E0505",
"H  c #D8D88C8C0404",
"J  c #CBCB95950606",
"K  c #C6C699990707",
"L  c #C1C19C9C0808",
"P  c #C8C89B9B0F0F",
"I  c #D8D891910D0D",
"U  c #E2E285850303",
"Y  c #EAEA80800101",
"T  c #E8E886860B0B",
"R  c #8484C6C61313",
"E  c #8989C7C71919",
"W  c #B5B5E3E37B7B",
"Q  c #DBDBCDCD7D7D",
"!  c #CFCFD3D37D7D",
"~  c #C4C4D9D97C7C",
"^  c #D1D1D2D27B7B",
"/  c #EBEBC3C37D7D",
"(  c #E1E1C9C97E7E",
")  c #F9F997979292",
"_  c #F9F99C9C9090",
"`  c #F9F99F9F9C9C",
"'  c #F9F9ADAD8686",
"]  c #F9F9A3A38B8B",
"[  c #F9F9AAAA8888",
"{  c #FAFAB4B48484",
"}  c #FAFABCBC8282",
"|  c #FAFAB5B58F8F",
" . c #FAFABCBC8D8D",
".. c #F9F9A6A69696",
"X. c #FAFAADAD9595",
"o. c #F9F9A3A39C9C",
"O. c #F9F9A9A99999",
"+. c #FAFAB3B39292",
"@. c #FAFAB8B89090",
"#. c #B4B4E7E78282",
"$. c #BBBBE3E38383",
"%. c #C5C5DDDD8484",
"&. c #CBCBDADA8585",
"*. c #D4D4D6D68585",
"=. c #DBDBD1D18686",
"-. c #D1D1D8D88686",
";. c #DCDCD2D28888",
":. c #EBEBC5C58080",
">. c #E3E3CDCD8686",
",. c #EBEBC9C98787",
"<. c #E4E4CECE8888",
"1. c #EBEBCACA8989",
"2. c #F1F1C4C48585",
"3. c #F3F3C6C68A8A",
"4. c #F9F9C2C28A8A",
"5. c #C0C0E1E18484",
"6. c None",
/* pixels */
"6.6.6.6.6.6.6.6.6.6.6.6.6.6.6.6.6.6.6.6.6.6.6.6.6.6.6.6.6.6.6.6.",
"6.6.6.6.6.6.6.6.6.6.6.6.6.6.6.6.6.6.6.6.6.6.6.6.6.6.6.6.6.6.6.6.",
"6.6.6.6.6.6.6.6.6.o . . . . . . 6.6.6.6.6.6.6.6.6.6.6.6.6.6.6.6.",
"6.6.6.6.6.6.6.6.6.+ o.` ` ` ` . 6.6.6.6.6.6.6.6.6.6.6.6.6.6.6.6.",
"6.6.6.6.6.6.6.6.6.# o.* * * ` o 6.6.6.6.6.6.6.6.6.6.6.6.6.6.6.6.",
"6.6.6.6.6.6.6.6.6.% o.= * * ..O 6.6.6.6.6.6.6.6.6.6.6.6.6.6.6.6.",
"6.6.6.6.6.6.6.6.6.1 O.- - - ..# 6.6.6.6.6.6.6.6.6.6.6.6.6.6.6.6.",
"6.6.6.6.6.6.6.6.6.3 O.; ; ; ..% 6.6.6.6.6.6.6.6.6.6.6.6.6.6.6.6.",
"6.6.6.6.6.6.6.6.6.4 X.> > > X.1 6.6.6.6.6.6.6.6.6.6.6.6.6.6.6.6.",
"6.6.o . . . . . . 9 X.e , , X.2 6.6.6.6.6.6.6.6.6.6.6.6.6.6.6.6.",
"6.6.@ o.o.o.` o.. 5 +.w w w X.4 6.6.6.6.6.6.6.6.6.6.6.6.6.6.6.6.",
"6.6.$ o.* = * o.O 7 +.t t t | 0 6.6.6.6.6.6.6.6.6.6.6.6.6.6.6.6.",
"6.6.1 O.- - - ..#   @.y y y | 5 o . . . . . . 6.6.6.6.6.6.6.6.6.",
"6.6.3 O.> > ; O.% z @.i i i  .7 @ o.o.o.o.) . 6.6.6.6.6.6.6.6.6.",
"6.6.0 X., , , X.2 k  .s s s  .  % O.= = : ) + 6.6.6.6.6.6.6.6.6.",
"6.6.5 +.w w w +.4 j 4.d d d 4.z 2 O.; ; < ] $ 6.6.6.6.6.6.6.6.6.",
"6.6.8 +.t t t | q g 3.Y Y a 3.k 0 X., , e ] 1 6.6.6.6.6.6.6.6.6.",
"6.6.z  .i i i  .7 g 3.U U H 2.j 6 X.w w r [ 4 o o X . X X . 6.6.",
"6.6.x  .s s s  .z j 1.H G G ,.g 8 @.t t u ' 5 & o.o.o.o.o.o 6.6.",
"6.6.g 4.a a a 4.l g <.J J J ,.g z @.p i p |   & _ ; ; ; O.$ 6.6.",
"6.6.g 3.U H U 2.h g <.L L L >.g h 4.s s f }   5 ] , , e X.2 6.6.",
"6.6.g 1.G G G ,.g g ;.Z A A =.g g 3.U Y T 2.  V ' t t t +.9 6.6.",
"6.6.g <.K K K <.g g *.C C C *.g g 1.H G I :.j c { i i i  .8 6.6.",
"6.6.g ;.A A A =.g g -.S S S &.g g <.K K P ( g b / a a d 4.l 6.6.",
"6.6.g *.C C C *.g g &.m M M &.g g ;.Z Z D ^ g b / H G H ,.g 6.6.",
"6.6.g -.m m m &.g g 5.E R N %.g g *.S S F ! g b Q K L L >.g 6.6.",
"6.6.g 5.N R R &.g g 5.R R R %.g g &.m m B ~ g b ^ C C C *.g 6.6.",
"6.6.g $.R R R $.g g $.n n n $.g g 5.R E E W g b ~ N N N %.g 6.6.",
"6.6.g #.#.#.#.#.g g #.#.#.#.#.g g #.#.#.#.W g b $.W W W W g 6.6.",
"6.6.g g g g g g g g g g g g g g g g g g g g g g v v v v v j 6.6.",
"6.6.6.6.6.6.6.6.6.6.6.6.6.6.6.6.6.6.6.6.6.6.6.6.6.6.6.6.6.6.6.6.",
"6.6.6.6.6.6.6.6.6.6.6.6.6.6.6.6.6.6.6.6.6.6.6.6.6.6.6.6.6.6.6.6."
};
