/* XPM */
static char *gnome_nettool[] = {
/* columns rows colors chars-per-pixel */
"32 32 176 2 ",
"   c black",
".  c #0B0B0B0B0B0B",
"X  c #131313131313",
"o  c #11111B1B1B1B",
"O  c #181818181818",
"+  c #1B1B20201616",
"@  c #23232C2C1C1C",
"#  c #1F1F2C2C2D2D",
"$  c #1D1D2F2F3535",
"%  c #151529293B3B",
"&  c #242425252525",
"*  c #26262D2D2E2E",
"=  c gray17",
"-  c #262632322525",
";  c #282834342020",
":  c #2B2B34342B2B",
">  c #2B2B35353232",
",  c #222233333A3A",
"<  c #323232323232",
"1  c #3C3C3C3C3C3C",
"2  c #363644442A2A",
"3  c #3A3A4A4A2D2D",
"4  c #373740403030",
"5  c #3C3C46463434",
"6  c #3B3B45453939",
"7  c #3F3F50503333",
"8  c #42424D4D3939",
"9  c #404051513434",
"0  c #434353533C3C",
"q  c #484855553D3D",
"w  c #474758583A3A",
"e  c #494959593939",
"r  c #1E1E3E3E5D5D",
"t  c #2B2B3B3B4343",
"y  c #22223C3C5454",
"u  c #39394C4C4E4E",
"i  c #232343436262",
"p  c #2C2C4E4E6D6D",
"a  c #35354E4E6363",
"s  c #363651516666",
"d  c #2D2D50507070",
"f  c #333354547272",
"g  c #3C3C5B5B7878",
"h  c #444444444444",
"j  c #4B4B4B4B4B4B",
"k  c #52525A5A4949",
"l  c gray32",
"z  c gray36",
"x  c #505061614646",
"c  c #57576B6B4444",
"v  c #525262624B4B",
"b  c #5F5F76764B4B",
"n  c #5B5B69695353",
"m  c #626279794D4D",
"M  c #65656F6F5B5B",
"N  c #616174745454",
"B  c #656575755959",
"V  c #63637B7B5B5B",
"C  c #6C6C7C7C5D5D",
"Z  c #48485C5C6C6C",
"A  c #5C5C6C6C7777",
"S  c #646464646464",
"D  c gray42",
"F  c #606071716D6D",
"G  c #6C6C7B7B6F6F",
"H  c #616171717A7A",
"J  c #686876767A7A",
"K  c #747474747474",
"L  c #74747E7E7171",
"P  c #7C7C7C7C7C7C",
"I  c #6A6A83835757",
"U  c #6A6A83835959",
"Y  c #72728C8C5B5B",
"T  c #797997975E5E",
"R  c #767687876565",
"E  c #78788E8E6565",
"W  c #737383836B6B",
"Q  c #76768B8B6A6A",
"!  c #757592926262",
"~  c #7E7E9D9D6464",
"^  c #7B7B91916A6A",
"/  c #787888887171",
"(  c #7F7F92927171",
")  c #808093936E6E",
"_  c #828292927777",
"`  c #84849B9B7676",
"'  c #89899D9D7777",
"]  c #8383A0A06B6B",
"[  c #8B8BA4A47777",
"{  c #4D4D6B6B8585",
"}  c #4D4D6F6F8C8C",
"|  c #51516B6B8080",
" . c #515172728E8E",
".. c #626274748080",
"X. c #61617F7F9797",
"o. c #626282829C9C",
"O. c #6D6D85859999",
"+. c #7F7F8F8F9595",
"@. c #6B6B8989A0A0",
"#. c #7A7A9595ACAC",
"$. c #838383838383",
"%. c #82828E8E8686",
"&. c #88888E8E8686",
"*. c #8B8B8B8B8B8B",
"=. c #94948F8F8787",
"-. c #8E8E92928B8B",
";. c #999991918787",
":. c #878792929696",
">. c #939393939393",
",. c #9B9B9B9B9B9B",
"<. c #A1A198988C8C",
"1. c #B0B09E9E8787",
"2. c #A1A19A9A9292",
"3. c #A0A09F9F9C9C",
"4. c #9494AFAF8888",
"5. c #9A9AADAD8A8A",
"6. c #A0A0B9B98D8D",
"7. c #A9A9A1A19696",
"8. c #B8B8AAAA9797",
"9. c #A4A4BEBE9797",
"0. c #ABABBDBD9F9F",
"q. c #83839898AAAA",
"w. c #8686A2A2B7B7",
"e. c #8D8DA6A6B9B9",
"r. c #9191A6A6B5B5",
"t. c #9E9EABABB3B3",
"y. c #9393AAAABDBD",
"u. c gray64",
"i. c #ACACA8A8A3A3",
"p. c gray67",
"a. c #B0B0ADADA9A9",
"s. c #B2B2B1B1AFAF",
"d. c #A0A0AAAAB0B0",
"f. c #B4B4B4B4B4B4",
"g. c #B8B8B7B7B4B4",
"h. c #BBBBBBBBBBBB",
"j. c #D5D5BCBC9C9C",
"k. c #D7D7BFBFA1A1",
"l. c #B6B6CACAA8A8",
"z. c #C0C0D4D4B3B3",
"x. c #9494AEAEC2C2",
"c. c #9C9CB3B3C5C5",
"v. c #A3A3B7B7C6C6",
"b. c #A3A3BABACCCC",
"n. c #ACACBFBFCECE",
"m. c #B3B3C1C1CDCD",
"M. c #AEAEC3C3D3D3",
"N. c #B2B2C6C6D4D4",
"B. c #B5B5CCCCDBDB",
"V. c #BDBDCECEDADA",
"C. c #B7B7D0D0E1E1",
"Z. c #BBBBD4D4E4E4",
"A. c #C3C3C3C3C3C3",
"S. c #CACAC9C9C7C7",
"D. c #CACACACACACA",
"F. c #D0D0CFCFCBCB",
"G. c #C2C2CECED9D9",
"H. c #C2C2D2D2DDDD",
"J. c #C9C9D4D4DDDD",
"K. c #D2D2D2D2D2D2",
"L. c #D9D9D7D7D4D4",
"P. c #C5C5D6D6E1E1",
"I. c #CBCBD7D7E1E1",
"U. c #C5C5D8D8E4E4",
"Y. c #CDCDDBDBE6E6",
"T. c #C3C3DADAE8E8",
"R. c #CDCDDDDDE8E8",
"E. c #D1D1DDDDE6E6",
"W. c #D5D5E0E0E7E7",
"Q. c #D3D3E0E0E9E9",
"!. c #DBDBE5E5ECEC",
"~. c #DDDDE9E9F0F0",
"^. c #E2E2EAEAEFEF",
"/. c #E3E3EBEBF1F1",
"(. c #EBEBF2F2F6F6",
"). c None",
/* pixels */
").).).).).).).).                                  ).).).).).).).",
").).                                                        ).).",
"  O             .   . . . . . . . . . . . . .           X       ",
"  O & j l z z S S S S D D K K P P P P K K K D S l j j < X       ",
"    P *.z z j j z n l S S S z S K K K D &.h.g.u.P *.*.*.        ",
"    *.j @ w e x x 0 > * # * : 7 w 7 9 3 + ,.u.>.1.=.D *.        ",
"    *.* V 6.9.4.L :.J.!.!.G.t.J V ! ~ Y 2 *.g.s.8.2.z $..       ",
"    >.= U l.l.G d.E.E.Q.U.P.Y.J.J v ] T 3 >.$.D.$.g.= D .       ",
"  . u.< ^ l.:.t.!.!.T.T.Z.R.Q.Q.V.H Q ] 5 >.p.P ,.D < K .       ",
"  . u.< U l.+.I.Y.B.Z.Z.C.U.B.V.V.c.F E 3 ,.>.3.D l l P X       ",
"  . u.< ^ / r.N.M.B.C.~.R.R.Q.M.b.c...W 3 ,.F.u.u.$.u.,.X       ",
"  . p.1 Q n e.q.W.Q.B.B.(./.~.I.b.x.Z L 3 *.K.p.s.,.p.u.X       ",
"  X g.1 ( / r.n.Y.!.b.b././.H.H.N.v.H &.8 u.L.D.<.a.,.p.X       ",
"  X h.1 ` %.O.y.M.^.M.x.I.I.c.V.!.q.A -.8 3.A.f.z.2.P u.O       ",
"  X A.1 V _ s  .c.Q.Y.#.G.G.o.J.y.g $ M 4 *.p.K.P j.l $.X       ",
"  X h.1 I 0.u p @.c.v. .m.m.} w.@.y - C l ,.p.p.a.,.h $.O       ",
"  X A.1 Y 5.N , { w.{ p d p f X.a o w R 8 ,.u.$.z l l >.O       ",
"  X h.6 b ] ! 0 t | i i r r r y o ; c R 2 ,.D.K.i.,.u.p.X       ",
"  X h.1 m ] [ [ B 6 , % % % & = k C [ 5.9 *.A.$.>.S >.3.X       ",
"  . g.1 w Y E E ^ N e 5 1 6 q M U R ) ' & *.F.K.,.f.g.p.X       ",
"  X h.p.j h h h l j h h h j h h j j h j K K.u.u.j.2.D ,..       ",
"  . g.S.D h $.*.j D p.h.S.D.D.D.D.D.D.A.D.S.g.D.;.i.D >..       ",
"  . f.S p.i.S P p.*.z P D 3.n.k.A.A.h.P *.>.P g.7.p.1 D .       ",
"  . a.t >.& K *.& P 1 l 3.i...,.u.u.>.P >.>.*.S D l 1 $.        ",
"    u.$.D *.S S $.P K K K *.K D ,.*.z K $.*.P >.D S D ...       ",
"    3.f.$.S S S l D p.g.-.u.,.2.p.,.>.,.>.,.*.z S h D P         ",
"  . 1 P *.*.$.P *.*.*.>.$...$.P P P P K K K K D D D S < .       ",
"  .         . X X O O X X . . . . . . . .                       ",
"                                                                ",
"                                                                ",
").).                                                            ",
").).                                                        ).)."
};
