/* XPM */
static char *goplay[] = {
/* columns rows colors chars-per-pixel */
"32 32 93 2 ",
"   c #E5E537373333",
".  c #E6E63E3E3232",
"X  c #E3E330303838",
"o  c #E2E23D3D3A3A",
"O  c #FBFB74740808",
"+  c #F3F364641818",
"@  c #EAEA41412A2A",
"#  c #E9E945452B2B",
"$  c #E0E041413E3E",
"%  c #E2E24E4E3939",
"&  c #E1E148483C3C",
"*  c #E5E557573535",
"=  c #E4E458583636",
"-  c #E2E250503939",
";  c #E3E354543838",
":  c #EDED61612323",
">  c #E8E86E6E2F2F",
",  c #ECEC7C7C2525",
"<  c #E8E872722E2E",
"1  c #E9E977772C2C",
"2  c #EAEA7A7A2B2B",
"3  c #E6E666663131",
"4  c #D8D80A0A4E4E",
"5  c #D9D90E0E4D4D",
"6  c #DCDC17174747",
"7  c #DDDD1A1A4444",
"8  c #DBDB14144848",
"9  c #DADA19194B4B",
"0  c #D7D707075151",
"q  c #D7D708085050",
"w  c #D8D808085050",
"e  c #DEDE23234141",
"r  c #DCDC26264646",
"t  c #DDDD2A2A4545",
"y  c #DDDD2D2D4444",
"u  c #DCDC23234848",
"i  c #DEDE31314343",
"p  c #DEDE34344242",
"a  c #FFFF80800000",
"s  c #FFFF85850000",
"d  c #FFFF89890000",
"f  c #FFFF8D8D0000",
"g  c #FFFF92920000",
"h  c #FFFF96960000",
"j  c #FFFF9F9F0000",
"k  c #F4F486861414",
"l  c #FBFBA2A20707",
"z  c #FDFDA6A60404",
"x  c #FFFFA9A90000",
"c  c #FEFEADAD0202",
"v  c #FFFFB2B20000",
"b  c #FFFFB5B50000",
"n  c #FFFFBBBB0000",
"m  c #FFFFBDBD0000",
"M  c #F1F1ADAD1A1A",
"N  c #F1F1A9A91C1C",
"B  c #F5F5BFBF1414",
"V  c #F2F2B2B21919",
"C  c #F3F3B5B51818",
"Z  c #ECEC8A8A2626",
"A  c #ECEC8C8C2525",
"S  c #EAEA82822828",
"D  c #EBEB85852828",
"F  c #EDED91912323",
"G  c #EEEE95952222",
"H  c #EFEF9C9C2020",
"J  c #FFFFC0C00000",
"K  c #FFFFC7C70000",
"L  c #FFFFCACA0000",
"P  c #FFFFCECE0000",
"I  c #FAFACECE0A0A",
"U  c #FFFFD3D30000",
"Y  c #FFFFD4D40000",
"T  c #FCFCD6D60606",
"R  c #FFFFDBDB0000",
"E  c #FFFFDCDC0000",
"W  c #F8F8D7D70D0D",
"Q  c #F9F9DADA0C0C",
"!  c #F6F6C6C61212",
"~  c #F4F4C0C01414",
"^  c #F7F7CFCF1010",
"/  c #FFFFE2E20000",
"(  c #FFFFE8E80000",
")  c #FFFFEDED0000",
"_  c #FCFCEDED0606",
"`  c #FAFAE2E20909",
"'  c #FBFBE7E70808",
"]  c #FFFFF0F00000",
"[  c #FFFFF7F70000",
"{  c #FDFDF2F20404",
"}  c #FFFFF9F90000",
"|  c #FFFFFDFD0000",
" . c None",
/* pixels */
" . . . . . . . . . . . . . . . . . . . . . . . . . . . . . . . .",
" . . . . . . . . . . . . .a a  . . . . . . . . . . . . . . . . .",
" . . . . . . . . . . . . .n J  . . . . . . . . . . . . . . . . .",
" . . . . . . . . . . . .a ( } c  . . . . . . . . . . . . . . . .",
" . . . . . . . . . . . .+ * i %   q  . . . . . . . . . . . . . .",
" . . . . . . . . . . .0 0 0 0 q 0 0 0 0 0 0  . . . . . . . . . .",
" . . . . . . . . .0 0 0 0 q ; < D 2 X w 0 0 0  . . . . . . . . .",
" . . . . . . . .0 0 0 5 ; ^ | | | | K O 0 0 0 0  . . . . . . . .",
" . . . . . . . .0 0 4 k | | | | | | | v a @ q 0 0  . .s a s a  .",
" . . . . . . .0 0 0  .m | | | | | | | } U P 2 0 0 o / ( ( ( x a ",
" . . . . . .0 0 0  .a / | | | | | | | | | | | y 8 S } | | [ h  .",
" . . . . . .0 4  .a j } | | | N 3 2 H ' | | | A q G { | | b  . .",
" . . . . .8 q : m / | | | | Z F { | | ` | | | ! 0 Z { | Y s  . .",
" . . .s j e u { | | | | | B F | | | | | | | | Q 0 1 | ] g  . . .",
"a a m ] | y ; | | | | | | 3 _ | | | | | { { | ` 0 = | x  . . . .",
" .a v [ | y > | | | | | | - } | | | | | | | | W 0 M L  . . . . .",
" . . .g R t D | | | | | } p { | | | | } ' | | V 9 I d  . . . . .",
" . . . .a 6 Z | | | | | | ; C | | } { } { | } r S z  . . . . . .",
" . . . . .0 . L | | | | { C $ { | { Q | | } S & } m  . . . . . .",
" . . . . .0 w  .x ( | | } ~ Z & W | | } ! - % _ | ) d  . . . . .",
" . . . . . .0  . .d Y | | | W < y % = p & H | | | | b  . . . . .",
" . . . . . .0 0  . .J | | | } { ~ V C ` | | | | | | ( s  . . . .",
" . . . . . .0 0  . .J | | | | | | | | | | | | | | | | x  . . . .",
" . . . . . . .0 q  .J | | | | | | | | | | | | | | | | E  . . . .",
" . . . . . . .0 0  .J | | | | | | } J n R [ | | | | | | z  . . .",
" . . . . . . . .q 7 m | | | | | ) j  . . .s x L / } | | L  . . .",
" . . . . . . . . .q , | | | | R f  . . . . . . . .f x L Y s  . .",
" . . . . . . . . . .8 2 } | L s  . . . . . . . . . . . .O a  . .",
" . . . . . . . . . .k y < l a  . . . . . . . . . . . . . . . . .",
" . . . . . . . . . .J T # 8  . . . . . . . . . . . . . . . . . .",
" . . . . . . . . . .s d  . . . . . . . . . . . . . . . . . . . .",
" . . . . . . . . . .O  . . . . . . . . . . . . . . . . . . . . ."
};
