/* XPM */
static char *gquilt[] = {
/* columns rows colors chars-per-pixel */
"32 32 72 1 ",
"  c black",
". c #272725251818",
"X c red",
"o c #FFFF00004D4D",
"O c #FFFF00005A5A",
"+ c #FFFF00006666",
"@ c #000080800000",
"# c #0000EEEE0000",
"$ c #0D0DFFFF0000",
"% c #0000FFFF0C0C",
"& c #1A1AFFFF0000",
"* c #0000FFFF1919",
"= c #2727FFFF0000",
"- c #3333FFFF0000",
"; c #0000FFFF2626",
": c #0000FFFF3333",
"> c #0000FFFF3F3F",
", c #4040FFFF0000",
"< c #4D4DFFFF0000",
"1 c #5A5AFFFF0000",
"2 c #6666FFFF0000",
"3 c #7373FFFF0000",
"4 c #0000FFFF4C4C",
"5 c #0000FFFF5959",
"6 c #0000FFFF6666",
"7 c #0000FFFF7272",
"8 c SpringGreen",
"9 c #8080FFFF0000",
"0 c #9999FFFF0000",
"q c #A6A6FFFF0000",
"w c yellow",
"e c blue",
"r c #0C0C0000FFFF",
"t c #19190000FFFF",
"y c #26260000FFFF",
"u c #33330000FFFF",
"i c #3F3F0000FFFF",
"p c #4C4C0000FFFF",
"a c #59590000FFFF",
"s c #66660000FFFF",
"d c #72720000FFFF",
"f c #7F7F0000FFFF",
"g c #FFFF00008D8D",
"h c #FFFF0000B3B3",
"j c #8C8C0000FFFF",
"k c #99990000FFFF",
"l c #A5A50000FFFF",
"z c #B2B20000FFFF",
"x c #BFBF0000FFFF",
"c c #91912C2CEEEE",
"v c #FFFF0000C0C0",
"b c #FFFF0000D9D9",
"n c #CCCC0000FFFF",
"m c #D8D80000FFFF",
"M c #EEEE0000EEEE",
"N c #FFFF0000E6E6",
"B c #E5E50000FFFF",
"V c #FFFF0000F3F3",
"C c #F2F20000FFFF",
"Z c magenta",
"A c #0000FFFF8C8C",
"S c #0000FFFF9999",
"D c #0000FFFFA5A5",
"F c #0000FFFFB2B2",
"G c #0000FFFFBFBF",
"H c #0000FFFFCCCC",
"J c #0000FFFFD8D8",
"K c #0000FFFFE5E5",
"L c #0000FFFFF2F2",
"P c cyan",
"I c #CDCDB7B79E9E",
"U c None",
/* pixels */
"UUUUUUUUUUU UU UU UU UU UU UUUUU",
"UUUUUUUUUU                    UU",
"UUUUUUUUUU ogh ld J8 %& ,1 0q UU",
"UUUU UU U    N jp JD ;% =, 39 UU",
"UUU           zdpteHA5>;@=<12 UU",
"U    ee e  ww ldpyLHS7tm*$-     ",
"UUU eeeua  w    syLHz287:@=-& UU",
"UU    eed  ww kkayL,FD864;:;> UU",
"UUU epees  w    syLBGGA5678    U",
"     afss  ww ffpyrLKKF6SFFFF UU",
"UUU cjks         ttLLLFADHHGF UU",
"UUU Mnnl X PP PP u te HFHLK    U",
"U     CB X PP PP u uy eKLrrrt UU",
"UUU vh                   yyis UU",
"UU   g w X ww PP w ww ww ps    U",
"UUU O+ w X ww PP wwwww    jlz UU",
"UUU           P    wwwww jlln UU",
"UUUUUU # X PPPPP wwwwwww xn    U",
"UUU....     PPP   ww.. ...CVb UU",
"U..UUU.. X P P P ww ..ww..Z ..UU",
"U..U   ..X P P P ww ww w..V ..UU",
"..UUUU ..X...  .. ...  .. .....U",
"..UUUU ..XX..X ..##..# ..UU..UUU",
"..UII  .. X..XX..# .. #..  ..UUU",
"...UU... X..XX.. #..# .. U..UUUU",
"U..UU...  .. ... ... ... ...UIUU",
"UU.....U PP..P...U... ...U...UUU",
"UUUUU....PPPPPPP UUUUUUUUUUUUUUU",
"UUUwUU.. PPPPPP   UUwUUUUUUUUUwU",
"UUUwUw     PP PP wUUwUUwUUUwUUwU",
"Uwwwwwww P PP PP wwwwwwwwwwwwwww",
"UUUwUUUU         UUUwUUwUUUwUUwU"
};
