/* XPM */
static char *grafx2[] = {
/* columns rows colors chars-per-pixel */
"32 32 10 1 ",
"  c black",
". c navy",
"X c blue",
"o c #808000008080",
"O c #000080808080",
"+ c cyan",
"@ c #808080808080",
"# c #C0C0C0C0C0C0",
"$ c #FEFEFFFFFFFF",
"% c None",
/* pixels */
"          %%%%%%%%%%%%          ",
" $$$+$+++# %%%%%%%%%% $$+++++#X ",
" $++#O#OOOO %%%%%%%% $OOXXXXXX. ",
" $O+O#OOXOOO %%%%%% +OX@$@XXXX. ",
" ++OOOOOOXOXO %%%% +OXX@$@XXXX. ",
" $O#OOOOXOXOXO %% +OXXX@$@XXXX. ",
" +OOOXOXOXXXOXO  +OX@@@@$@@@@X. ",
" +OOXOXOXXXOXXXO#OX@$$$$$$$$$X. ",
" #OXOXOXXXXXXXXXXX@$@@@@$@@@@X. ",
" XOOXOXXXXXXXXXXX@$@XXX@$@XXXX. ",
"% .OOXOXOXXXXXXX@$@X@@X@$@XXX. %",
"%% .OOXXXXXXXXXXX@$@$@X@$@XX. %%",
"%%% .OXXXXXXXXX@@X@$@XXXXXX. %%%",
"%%%% .OXXXXXX@#$#@X@$@XXXX. %%%%",
"%%%%% .XXXXXX#@X@$@X@$XXX. %%%%%",
"%%%%%% .XXXX@$X@$@$@#@XX. %%%%%%",
"%%%%%% #XXXX@#@$@X@$@XXXO %%%%%%",
"%%%%% +XXXXXX@$@XXXXXXXXXO %%%%%",
"%%%% +OX@$#@XX@$@XXXXXXXXXO %%%%",
"%%% +OX@$@@#XXX@$XXXXXXXXXXO %%%",
"%% $OX@$@X@$@@@#@XXX@$$@XXXXO %%",
"% $OX@$@X@$$$$$@XXXX$@@$XXXXXO %",
" $OX@$@X@$@XXXXXXXXX$XX$XXXXXXX ",
" $X@$@XXX@$@XXXXXXXX#XX$X@$XXXo ",
" +X$@X@$@X@$XXXXXXXXXXX$@$@XXoo ",
" $X$XX$@$@XXXXo  XXXXXX$$@XXXXo ",
" +X#@XXX@$XoXo %% oXoXX$@XXXoXo ",
" +X@$@X@$@oXo %%%% oXXXXXXXXXXo ",
" +XX@#$$@oXo %%%%%% oXoXXXoXoXo ",
" #XXXXoXoXo %%%%%%%% oXoXoXoXoo ",
" @oooooooo %%%%%%%%%% ooooooooo ",
"          %%%%%%%%%%%%          "
};
