/* XPM */
static char *gtg[] = {
/* columns rows colors chars-per-pixel */
"32 32 104 2 ",
"   c #26264A4A7E7E",
".  c #7B7BB1B146C7",
"X  c #7E7EB4B44A4A",
"o  c #2A2A4F4F8080",
"O  c #2D2D54548989",
"+  c #303056568989",
"@  c #2BF956F0922B",
"#  c #2D9459599562",
"$  c #30305C5C9797",
"%  c #32325CDD9999",
"&  c #359C612E9C9C",
"*  c #39E465BB9EF4",
"=  c #3AFB66E7A1E1",
"-  c #3DE86994A3CE",
";  c #47476C6C9D9D",
":  c #4A6A6DCD9F9F",
">  c #42026D6DA6A6",
",  c #4D047128A20F",
"<  c #461372A5ABDE",
"1  c #49EA75D5AEEE",
"2  c #4C4C7777B0B0",
"3  c #49497878B0B0",
"4  c #747482829292",
"5  c #757589899E9E",
"6  c #7C268CE29E1E",
"7  c #7E7E8E8EA0A0",
"8  c #7F7F9090A1A1",
"9  c #66668D8DB7B7",
"0  c #6C6C8F8FB5B5",
"q  c #60608787B8B8",
"w  c #66208BA2BB8C",
"e  c #78789C9CC5C5",
"r  c #868690909898",
"t  c #9B9B9D9D9898",
"y  c #811A91F8A3F0",
"u  c #93939F9FAAAA",
"i  c #9191A1A1A2A2",
"p  c #9E9EA7A7ACAC",
"a  c #A8A8AA90A6A6",
"s  c #A1A1A7A7ABAB",
"d  c #AC2CADADAA2A",
"f  c #A3A3AF2FBA3A",
"g  c #B5B5B7B7B4B4",
"h  c #B5B5B8B8B2B2",
"j  c #BA5DBD60B64F",
"k  c #AC6CCD0C8D4D",
"l  c #B0B0CFCF9292",
"z  c #BFBFD9D9A8A8",
"x  c #BCBCC1C1B7B7",
"c  c #BFBFC1C1BCBC",
"v  c #C4C4DBDBAEAE",
"b  c #C293C596BF79",
"n  c #C3C3C9C9BEBE",
"m  c #CECEE0E0BBBB",
"M  c #9C9CAEAEC0C0",
"N  c #831CAB11D4FD",
"B  c #8989AFAFD7D7",
"V  c #8DC6B122D6F3",
"C  c #9999B5B5D7D7",
"Z  c #9494B55FD9D9",
"A  c #9C2EBB96DD01",
"S  c #ACACBABAC7C7",
"D  c #A34DBF69DEDE",
"F  c #A525C141DF5F",
"G  c #A4A4C141E161",
"H  c #AB2BC59AE28C",
"J  c #AFAFC9B2E4E4",
"K  c #B269CAEFE552",
"L  c #B9B9CFCFE767",
"P  c #B9B9CFCFE8E8",
"I  c #B9B9D0D0E8E8",
"U  c #C9B2CFB8C4AD",
"Y  c #C3C3CBCBCBCB",
"T  c #CD33CF01CA30",
"R  c #CF4FD151CC1A",
"E  c #D17BD396CE78",
"W  c #C7C7D4D4DDDD",
"Q  c #CACAD2D2DADA",
"!  c #D519D6F8D25A",
"~  c #D723D9CCD346",
"^  c #D98CDB41D709",
"/  c #DCB0DE7FDA9F",
"(  c #D959E6E6CC4C",
")  c #DFDFE0E0DE08",
"_  c #E140E241DF5F",
"`  c #C544D454E363",
"'  c #CBCBD757E2E2",
"]  c #CC21D983E6E6",
"[  c #C2C2D6D6EBEB",
"{  c #CFCFDCDCE8E8",
"}  c #D37DDF34EAEA",
"|  c #D781E28CED97",
" . c #DCDCE6E6F1F1",
".. c #DF89E993F3F3",
"X. c #E4E4E5B9E370",
"o. c #E7E7E8E8E678",
"O. c #E8E8E9C9E7A7",
"+. c #EE8BEEA5ECF7",
"@. c #F141F14FEF83",
"#. c #E4F8ED63F6CE",
"$. c #F544F56AF43F",
"%. c #F8F8F915F7F7",
"&. c #FDACFDAFFD79",
"*. c None",
/* pixels */
"*.*.*.*.*.*.*.*.*.*.*.*.*.*.*.*.*.*.*.*.*.*.*.*.*.*.*.*.*.*.*.*.",
"*.*.*.*.*.*.*.*.*.g o.X.X.X.X./ / / ^ ^ ! T t *.*.*.*.*.*.*.*.*.",
"*.*.2 w w w w w w p E U b b b b c U b b b c r w w w w q q 1 *.*.",
"*.< D K K J J K J s g j j j j j j j j j j h u J K J J J K C *.*.",
"*.3 I [ &.&.&.&.&.O.d d a d a a a a a a a d +.&.&.%.%.%.L J > *.",
"*.1 P #.&.&.&.&.&.&.&.&.&.&.&.&.&.&.&.&.&.&.&.%.&.&.%.%.| J - *.",
"*.1 P #.$./ ) / / / / / ) / / ) / / / X.&.&.&.&.%.%.( $.| J = *.",
"*.2 I #.%./ ) / / / ) / / / / ) / / / / &.%.%.%.z X m $.| H = *.",
"*.1 I #.O.$.! ! E ! E E ! $.&.&.&.&.&.&.&.&.%.%.v k $.$.} G - *.",
"*.1 I #.&.&.&.&.&.&.&.&.&.&.&.&.&.&.&.%.%.%.%.%.%.%.$.$.} G = *.",
"*.1 I #.&.&.&.&.&.&.&.&.&.&.&.&.&.%.%.%.%.%.%.$.$.$.$.$.} F & *.",
"*.1 I #.+.j j j j x j j j j j j j j j b %.%.$.%.$.$.$.$.{ A = *.",
"*.1 P #.$.%.O.O.O.O.O.o.O.o.X.X.o.X.+.$.%.$.$.$.$.$.$.@.] D & *.",
"*.< L #.$.%.O.O.O.O.o.o.o.o.o.o.X.X.+.%.$.$.$.$.@.$.@.@.] A & *.",
"*.< L #.O.@.! R ! R E E T R R R E R T T / $.$.$.( k k $.] A & *.",
"*.< K #.O.@.! ! E E E R R R R E T T R ! $.$.@.$.k . @.@.` C % *.",
"*.< K ..&.&.&.&.&.&.&.&.%.%.%.%.$.%.$.$.$.@.@.@.@.@.+.+.W Z % *.",
"*.> K #.&.&.&.&.%.&.%.%.&.%.%.$.$.$.$.$.@.@.@.@.@.@.+.+.' Z % *.",
"*.> J ..$./ / ^ ^ ^ ^ ^ ! ~ ~ ! ! ! ! +.@.@.@.+.@.+.+.+.` Z # *.",
"*.> J ..$./ ^ / / ~ ! ^ ^ ~ ! ! ! ! ! O.@.@.+.@.@.@.+.+.` V $ *.",
"*.> H ..o.+.R R T R R R R +.$.$.$.@.@.@.@.@.+.+.+.+.( +.` V @ *.",
"*.- H  .X.+.E R R T R R R R R U T E @.+.+.+.+.+.l . v +.` B # *.",
"*.> G | @.@.o._ _ _ X.| _ ) ) ) O.@.@.@.+.+.+.+.v k +.+.W V @ *.",
"*.- G ' @.@.o.o._ _ _ _ ) ) ) ) o.@.+.+.+.@.+.+.+.+.+.+.Y V @ *.",
"*.- D Q %.%.%.$.$.$.@.$.@.@.o.~ ~ ~ ~ ~ ~ ~ ~ ~ ! ! ~ E i V O *.",
"*.* A Q %.$.%.$.$.$.$.@.$.@./ n U U U U U U x U U U U U f V @ *.",
"*.* A S $.$.$.$.@.$.$.@.@.@.X.+.$.$.$.$.$.@.X.$.$.$.$.$.M V @ *.",
"*.& A 0 6 y 7 7 8 8 y f f i 4 8 8 r y y y y 5 7 y y y 5 9 V @ *.",
"*.O N B B B N N B e B N B e N N N e B e N N N N N N N N N e   *.",
"*.*.+ , , , , , , , 1 , , , , , , , , 2 : : : : : : : : ; o *.*.",
"*.*.*.*.*.*.*.*.*.*.*.*.*.*.*.*.*.*.*.*.*.*.*.*.*.*.*.*.*.*.*.*.",
"*.*.*.*.*.*.*.*.*.*.*.*.*.*.*.*.*.*.*.*.*.*.*.*.*.*.*.*.*.*.*.*."
};
