/* XPM */
static char *gtkhash[] = {
/* columns rows colors chars-per-pixel */
"32 32 246 2 ",
"   c #036D0262033F",
".  c #0A1E0468046F",
"X  c #061806D0091E",
"o  c #1685083A09C1",
"O  c #09D7142D0A51",
"+  c #0AE60EC313AD",
"@  c #0C10107E1753",
"#  c #0ECE11C01C6E",
"$  c #249B0C430C77",
"%  c #2CE70DD40DF2",
"&  c #27C60D5E116A",
"*  c #24D111D113B5",
"=  c #200C19A513AD",
"-  c #138B23291476",
";  c #1EE722531F4D",
":  c #1BEC328F1B47",
">  c #26A936D01C93",
",  c #13E519D4271E",
"<  c #17D81C1B3847",
"1  c #31901EED2C7A",
"2  c #165E2160262D",
"3  c #1A663314272E",
"4  c #1D2926543395",
"5  c #1C2021463CAF",
"6  c #279624622825",
"7  c #35A9279D23F5",
"8  c #250B3D0E2221",
"9  c #2BC338BA29C4",
"0  c #2C8C3BAB2B00",
"q  c #21E02B1D3C83",
"w  c #2B4E29C53B41",
"e  c #2CC5379B3037",
"r  c #64051FC81C11",
"t  c #468424A029CB",
"y  c #56722F003229",
"u  c #6905272C272A",
"i  c #78842A712CF5",
"p  c #67812D773503",
"a  c #7BA22DA831A9",
"s  c #6782317537B6",
"d  c #78F432EE3825",
"f  c #19F849B61848",
"g  c #244541D61CB8",
"h  c #2A3148F425A1",
"j  c #348648F02BE5",
"k  c #2DD2563F290F",
"l  c #374D59542D80",
"z  c #3C7645B53CE5",
"x  c #2BCB7D482BCB",
"c  c #3C4867683412",
"v  c #676757992992",
"b  c #46ED6C6A37D1",
"n  c #42F17351355C",
"m  c #465E76063B73",
"M  c #5923702F3CAE",
"N  c #29732C6141F7",
"B  c #26D42BB3495D",
"V  c #2B3337CF4874",
"C  c #3301385F50A0",
"Z  c #339A3A026295",
"A  c #35E048555B75",
"S  c #3B3771BA5A5E",
"D  c #3992455E6538",
"F  c #3EA954886556",
"G  c #3D4146B47709",
"H  c #43E645404441",
"J  c #458648244C79",
"K  c #4D304A954B10",
"L  c #4D8051D04D50",
"P  c #4A5A4BB7550D",
"I  c #5123504F56B8",
"U  c #566C529355FC",
"Y  c #60185BDA5D20",
"T  c #4E187B3F43F8",
"R  c #530262E550FD",
"E  c #448D5B796A48",
"W  c #42D84BFC7C77",
"Q  c #4304515678F1",
"!  c #4B93662A75F5",
"~  c #6779664166AB",
"^  c #68F178076AC4",
"/  c #798278D874BD",
"(  c #7A4E796B7A68",
")  c #917631442F09",
"_  c #86D637AF3C1D",
"`  c #97D4352C367E",
"'  c #AA352EC52A9F",
"]  c #AE6231A92DF9",
"[  c #A6EF3A333905",
"{  c #B6E4372B37FE",
"}  c #89E056F02B69",
"|  c #95A8535131C7",
" . c #A71A55D33CE6",
".. c #87F43A484228",
"X. c #AE2C3B2840E4",
"o. c #9FD2492C503A",
"O. c #A50D43CE456E",
"+. c #BC4D42B743C0",
"@. c #B12554EB4CB6",
"#. c #A8D74B4A5133",
"$. c #B34C4AD15618",
"%. c #9F7872F15F05",
"&. c #B8826C0A5812",
"*. c #A91B57D0626A",
"=. c #B93952AC60BE",
"-. c #BD1560917083",
";. c #C2C0452D493E",
":. c #C8BF4B995154",
">. c #C8FF530A54D5",
",. c #D8E6531C5C0A",
"<. c #C9F95B8C6BB4",
"1. c #D5F85B1864F1",
"2. c #DC315B486593",
"3. c #DCEB5A33640A",
"4. c #E0C1580C62B3",
"5. c #DACC6341698A",
"6. c #D05A69926FEE",
"7. c #DAED6587750F",
"8. c #E5B2622C7137",
"9. c #EC736CBB7D07",
"0. c #F2DE6B257B1E",
"q. c #31838CCB2D30",
"w. c #3A00A6C136BC",
"e. c #38D6B8E03668",
"r. c #4645818F3743",
"t. c #60C29FDF3E18",
"y. c #565CA6C03846",
"u. c #46FDB0703AB1",
"i. c #3E7EC67D3BA4",
"p. c #3F33C86F3B4A",
"a. c #4202C66E3DAC",
"s. c #420EC8B83E15",
"d. c #3EBABB6C40DC",
"f. c #55AE896047E7",
"g. c #57089822460E",
"h. c #56FF91D54A3A",
"j. c #6C0E8D9E4679",
"k. c #61399A18489F",
"l. c #59A1A38E4C10",
"z. c #4CFCB14949C0",
"x. c #58A9B8A846A1",
"c. c #624DAB514FB5",
"v. c #70FCA7CE4AF0",
"b. c #6664AB6856AC",
"n. c #6761B78158E3",
"m. c #4D138ADB74EE",
"M. c #61C190026601",
"N. c #4FFAB5F96FD6",
"B. c #6A16A95660E6",
"V. c #4975C83D467E",
"C. c #46CEC9E341C4",
"Z. c #566FCF8949AA",
"A. c #558BD35E4D73",
"S. c #5AC7CD6458A8",
"D. c #689BCB8B57A0",
"F. c #6ED6C3A15C48",
"G. c #658AD78B57DA",
"H. c #6ECED5FD5833",
"J. c #6687CB8F649A",
"K. c #7CE2C21A6454",
"L. c #758CCFA66590",
"P. c #7A52DDB2640B",
"I. c #7887D5996815",
"U. c #7864D7FC762B",
"Y. c #78A9E7036671",
"T. c #7C90E5FE65A1",
"R. c #7C72E9C163B7",
"E. c #7E04E47D69EC",
"W. c #902599BB55F7",
"Q. c #A1F9863F5AD4",
"!. c #A93A92D46582",
"~. c #C4A086E5739D",
"^. c #8621E14E5D8C",
"/. c #853EDB3F6833",
"(. c #AB4FDA416FEE",
"). c #806CE5926A8C",
"_. c #9B94ECA767C2",
"`. c #495755248F5D",
"'. c #4C0058948BD3",
"]. c #4D8E585194EF",
"[. c #583373338BE9",
"{. c #580A709B9518",
"}. c #64A87B3C9C9A",
"|. c #582A6656A6E7",
" X c #5CBB6CC6B475",
".X c #5F3B7582B506",
"XX c #616B7CB8A832",
"oX c #648376E9B9D3",
"OX c #6A637A49C903",
"+X c #6A587BE4D128",
"@X c #E91D6E8082A9",
"#X c #EB7973FB85AB",
"$X c #F58C75158910",
"%X c #5DAFAECB9D81",
"&X c #651AB3A99529",
"*X c #6E578F60B311",
"=X c #77C39BBFB550",
"-X c #7193A2F3B2B9",
";X c #7B02A73FB6A6",
":X c #78A6960EC424",
">X c #6E9E862BD639",
",X c #72FD83F4DB23",
"<X c #7C629AADD5A9",
"1X c #79DDA7A0CD8F",
"2X c #7B228EEFEBB6",
"3X c #7A8C9844EA41",
"4X c #7CF3981BF6FC",
"5X c #855E82B385C5",
"6X c #97E798DA9582",
"7X c #9BC89AEC9C03",
"8X c #A3F6A258A3A0",
"9X c #A8E2A870AA4C",
"0X c #B186B19EAF92",
"qX c #B26AB2DBB2C2",
"wX c #BCFFBD51BBBC",
"eX c #C10ABE40BA71",
"rX c #B997D2BBB78A",
"tX c #A93CE5E2A7EF",
"yX c #B654E9A3B478",
"uX c #82ECA633CA96",
"iX c #8A9DB599C72F",
"pX c #82BAAB8BDCCF",
"aX c #81BF9C38ECE3",
"sX c #821A997BFA3F",
"dX c #8416A687EC46",
"fX c #8B08B1CAF055",
"gX c #84DFA4D1F910",
"hX c #8970B3E9F685",
"jX c #C74BC56CC700",
"kX c #CCD2CB90CBDD",
"lX c #D8EDD768D82B",
"zX c #C501E9E4C405",
"xX c #D46FEFAAD51D",
"cX c #D81AF2FAD79F",
"vX c #E1D1E271DF6E",
"bX c #E3ACE05BE406",
"nX c #E79BE7EEE56C",
"mX c #EE33ECE5ED85",
"MX c #F13EEFBBEF2C",
"NX c #E2EEF80FE21E",
"BX c #EFEFF26BEF81",
"VX c #F235F1EDEF49",
"CX c #EC95F0F8F21C",
"ZX c #F4EFF48CF4D9",
"AX c #F93CF9F4F7ED",
"SX c #FEA5FED7FEA2",
/* pixels */
"SXSXSXSXSXSXSXSXSXSXSXSXSXSXSXSXAXvXnXAXSXSXSXSXSXSXSXSXSXSXSXSX",
"SXSXSXSXSXSXSXSXSXSXSXSXSXSXmXeX/ P I 7XnXSXSXSXSXSXSXSXSXSXSXSX",
"SXSXSXSXSXSXSXSXSXSXSXAXlX6XI N Z ].`.B H 7XbXSXSXSXSXSXSXSXSXSX",
"SXSXSXSXSXSXSXSXSXAXjX( C V `.OX4XsXsX,X].B J 7XnXSXSXSXSXSXSXSX",
"SXSXSXSXSXSXSXmXqX~ N Z ].OXOXoX X|. X+X2X,X].B J 7XnXSXSXSXSXSX",
"SXSXSXSXSXnX8XI B Z oX|.Z B 5 5 5 5 < < Z  X4X+X`.V M.rXMXSXSXSX",
"SXSXAXvX6XJ B W +X4XOX, # W  XOX,X,XOXW @ ,  X4X3XN.e.d.^ jXAXAX",
"SXSXkXJ q '.,X4X4XaXG X Z aXgXsXaXsXsXsX`., G 2X%Xd.s.z.A w 6XMX",
"SXAX( o 5 |.2XgXgXaXQ X '.fXgXdX{.G .X3X4X>X>X-Xz.p.d.m.D # 2 wX",
"SXBXY s ..1 A oXdXhXXX# C :XfXhX[.+ + Z <X4X1XN.i.i.x 3 k T 9 eX",
"SXZXI ..5.@.p 1 D *XpX[.q q ! *X}., X q 1XfXN.C.p.d.n c.P.b.z lX",
"SXVXK _ 3.4.1.#.p 1 E =X;X! q 4 2 2 F :X1X&Xa.i.C.G.P.E.T.f.L nX",
"SXMXK _ ,.,.1.4.1.#.y 6 E uXiX;X*X1XuX}.S e.i.a.G.).R.Y.T.n ~ ZX",
"SXMXK d >.;...$.1.8.7.o.t ; E ;XiX[.V g w.s.i.Z.Y.n.f.l.P.l }.SX",
"SXBXK i :.O.$ & p $.7.0.5.U % ; e j j.x.s.s.C.Y.c.: g D.L.j 8XAX",
"SXVXU i ;.[ %   . * p =.9.$X$.$ l (.^.p.s.s.P.K.> - c.^.n.j jXAX",
"SXZXU u X.+.X.u .   X o s 7.@Xt M _.s.a.s.H./.l O f.E.E.b.9 nXSX",
"SXZXU r X.{ X.[ &   . X * <.#Xt n G.i.a.D.^.b O c /.E.E.h.J mXSX",
"SXvXR r { {  .{ & . s ..d 7.9.y q.a.i.w.g.f.O h L.T.T.E.c ~ ZXSX",
"xXI.u.v ] ] { ` o o O.2.7.@X9.M e.i.e.f > - X > k.I.T.P.k 5XSXSX",
"yXa.a.u.} ' ] ` o o #.3.8.0.~.Z.i.i.q.. - c l - O g g.n.k 8XSXSX",
"NXU.p.p.y.} ] ) o $ $.4.8.6.v.s.i.Z.m   f./.T.b.c - l B.h wXSXSX",
"SXcXJ.i.s.y.| ) % % $.3.6.W.a.p.C.P.m   g.Y.Y.Y./.F.H.g.e kXSXSX",
"SXAXzXS.a.a.y.| ` i ;.,.Q.x.i.e.D.T.b O l.T.T.T.E.L.m 9 ( mXSXSX",
"SXSXSXzXJ.s.p.y.@.;.:.&.y.p.u.q.n.E.h.n I.R.R.I.l.h H 9XmXSXSXSX",
"SXSXSXSXzXS.p.C.y.@.:.v.p.s.y.> b.E.P.T.T.).b.l 0 5XlXSXSXSXSXSX",
"SXSXSXSXAXzXS.i.a.g.j.C.p.x.%.7 n.Y.Y.).F.m 9 ~ kXAXSXSXSXSXSXSX",
"SXSXSXSXSXSXyXA.p.a.e.p.s.!.6.7 n.Y.L.f.0 L 0XZXSXSXSXSXSXSXSXSX",
"SXSXSXSXSXSXAXyXA.i.i.i.r.*.-.7 n.g.k A 7XnXSXSXSXSXSXSXSXSXSXSX",
"SXSXSXSXSXSXSXAXtXV.p.J.^ t y = h 9 %.lXSXSXSXSXSXSXSXSXSXSXSXSX",
"SXSXSXSXSXSXSXSXSXzXtXcXZX9XH 6 ~ kXAXSXSXSXSXSXSXSXSXSXSXSXSXSX",
"SXSXSXSXSXSXSXSXSXSXSXSXSXSXlXjXCXAXSXAXSXSXSXSXSXSXSXSXSXSXSXSX"
};
