/* XPM */
static char *gtwitter_menu[] = {
/* columns rows colors chars-per-pixel */
"32 32 103 2 ",
"   c black",
".  c #07570757073D",
"X  c #0A090A0909E4",
"o  c #2183218320F6",
"O  c #2444244423BE",
"+  c #2A6E2A6E29D1",
"@  c #353E353E347B",
"#  c #5CB65CB65BFF",
"$  c #60BB60BB5F96",
"%  c #6279627960F4",
"&  c #64866486630F",
"*  c #686F686F66DB",
"=  c #6B9A6B9A69F1",
"-  c #782D782D7673",
";  c #B39018791879",
":  c #B58F20AF20AF",
">  c #B74225832583",
",  c #B7BE28362836",
"<  c #B8DD2AFF2AFF",
"1  c #B9242CAC2CAC",
"2  c #BCBA38C438C4",
"3  c #BE193DBA3DBA",
"4  c #BF6B410D410D",
"5  c #C1A149C749C7",
"6  c #C3054EE74EE7",
"7  c #C49356A556A5",
"8  c #CAFF5E655E6B",
"9  c #CBF063B563BB",
"0  c #C8F164296429",
"q  c #CEE27A037A03",
"w  c #D0677E2F7E2F",
"e  c #D5027ED87EDE",
"r  c #823382338055",
"t  c #848A848A826E",
"y  c #865A865A8465",
"u  c #88D988D986DB",
"i  c #8B968B968993",
"p  c #8CD38CD38AD2",
"a  c #8E698E698C68",
"s  c #911791178F02",
"d  c #965196519445",
"f  c #985A985A9660",
"g  c #9D9A9D9A9BB9",
"h  c #A0CDA0CD9EA8",
"j  c #A26FA26FA08C",
"k  c #AA7EAA7DA902",
"l  c #AB2BACD4AB59",
"z  c #B11FB11FAFC9",
"x  c #B3D3B3D3B1D6",
"c  c #B84AB84AB65B",
"v  c #BBE3BBE3BAB8",
"b  c #BFB2BFB2BE70",
"n  c #D228818A818A",
"m  c #D4D88DB88DB8",
"M  c #D5C3926A926A",
"N  c #D789979E979E",
"B  c #DC0CA2B0A2B0",
"V  c #DB34A7CDA7CD",
"C  c #DCE2AB02AB02",
"Z  c #DF77B394B394",
"A  c #E08EA220A22D",
"S  c #BFF1C0FFBFB7",
"D  c #BF1BC319C1D2",
"F  c #C12CC569C422",
"G  c #C85FC85FC71E",
"H  c #CB2CCB2CCA11",
"J  c #D046D046CF70",
"K  c #D0D8D0D8D013",
"L  c #D13BD13BD070",
"P  c #D7BDD7BDD708",
"I  c #DB40DB40DAA0",
"U  c #DE95DE95DE33",
"Y  c #E5C5C823C823",
"T  c #EC88CA06CA12",
"R  c #E97DCD5ACD60",
"E  c #E75ED137D137",
"W  c #E871D328D328",
"Q  c #EFCFD4ACD4B8",
"!  c #EB92DA84DA84",
"~  c #EB23DCCBDCCB",
"^  c #EE4EDFF9DFF9",
"/  c #E403E538E4C9",
"(  c #E5F4E5F4E4A6",
")  c #ED6FE1FEE1FE",
"_  c #E89CE89CE845",
"`  c #EBDAEBDAEBDB",
"'  c #EEE6EBC0EBC0",
"]  c #ECD3ECD3ECD3",
"[  c #F5F8E58DE585",
"{  c #F7B1EB6EEB66",
"}  c #F09BEFC6EFC6",
"|  c #EFFCF28CF28C",
" . c #F43CF422F41A",
".. c #F63DF43CF416",
"X. c #F216F68AF68A",
"o. c #F6C8F641F61C",
"O. c #F8C6F8C6F84C",
"+. c #F298F95EF95E",
"@. c #F4BFF926F926",
"#. c #FA89FA89FA46",
"$. c #FBEEFD32FD3E",
"%. c #FD5EFD5EFD59",
"&. c None",
/* pixels */
"&.&.&.&.&.&.&.&.&.&.&.&.&.&.&.&.&.&.&.&.&.&.&.&.&.&.&.&.&.&.&.&.",
"&.&.&.&.&.&.&.&.&.&.&.&.&.&.&.&.&.&.&.&.&.&.&.&.&.&.&.&.&.&.&.&.",
"&.&.&.&.&.&.&.&.&.&.&.&.&.&.&.&.&.&.&.&.&.&.&.&.&.&.&.&.&.&.&.&.",
"&.&.&.&.&.&.&.&.&.&.&.&.&.&.&.&.&.&.&.&.&.&.&.&.&.&.&.&.&.&.&.&.",
"&.&.&.p u y t t t t t t t t t t t t y t t t t t t t y u i &.&.&.",
"&.&.&.p d j k k k k k k k k k k l k k k k k k k k k j d p &.&.&.",
"&.&.&.p x ~  .o.o.o.o.o.o.o.o.......o.o.o.o.o.#.o.o.U x p &.&.&.",
"&.&.&.p G O.@.o.#.o.#.#.@.#.o.Q A T $.#.#.#.$.#.#.#.o.G a &.&.&.",
"&.&.&.p L %.o.]  .]  .] o.X.Y n 6 B +.o...o...X.X.o.%.L a &.&.&.",
"&.&.&.p L %. .] ]  .]  .] ] m , > m }  .X. . . ...o.%.J a &.&.&.",
"&.&.&.a L %.]  .| ]  .| ) q 3 > > 5 n ) o.o. .o. .o.%.K a &.&.&.",
"&.&.&.p L %.] ] ]  .] X.! 4 ; > > ; 5 ! X. . .o. .o.%.L a &.&.&.",
"&.&.&.p L %.] ]  .] | X.! 0 1 > > < 0 ^ X. . . .o.o.%.K p &.&.&.",
"&.&.&.a K %.` ` `  .]  .' E q > > q E }  .} ]  . .o.%.L a &.&.&.",
"&.&.&.p K %.] ` ] ]  .` | +.N > > N @.X.X.|  .]  . .%.L p &.&.&.",
"&.&.&.a J %.] ] ]  .`  .]  .M > > w R W [ X.]  . .| %.J a &.&.&.",
"&.&.&.a L %.` ` ` ' | ] ` | N 1 > 2 5 7 Z | |  .] o.%.K a &.&.&.",
"&.&.&.p L #.` ` ` ] ] ] ( | V 4 < ; : 3 C  . .] ' | %.J a &.&.&.",
"&.&.&.a H #. .]  . . .]  .X.E M 9 7 8 e Y ..|  . ...#.H a &.&.&.",
"&.&.&.p c / #.#.#.#.%.#.#.$.+.| [ [ { { ]  .` ] X.#.( c p &.&.&.",
"&.&.&.i g x b b b b b b S Z D D F F F Z / +. .| U v z h s &.&.&.",
"&.&.&.# % % % % % % % % % % % $ % % = y D _ +.+.J i = & * &.&.&.",
"&.&.&.X X X X X X X X X X X X X X X O - p l ] +.P y + X X &.&.&.",
"&.&.&.                              . + * f x / I t o     &.&.&.",
"&.&.&.                                  @ * y v S t O     &.&.&.",
"&.&.&.&.                                . + r s s r O   &.&.&.&.",
"&.&.&.&.&.&.&.&.&.&.&.                    &.&.i i u &.&.&.&.&.&.",
"&.&.&.&.&.&.&.&.&.&.&.&.                &.&.&.&.i i &.&.&.&.&.&.",
"&.&.&.&.&.&.&.&.&.&.&.&.&.&.&.&.&.&.&.&.&.&.&.&.&.p &.&.&.&.&.&.",
"&.&.&.&.&.&.&.&.&.&.&.&.&.&.&.&.&.&.&.&.&.&.&.&.&.&.&.&.&.&.&.&.",
"&.&.&.&.&.&.&.&.&.&.&.&.&.&.&.&.&.&.&.&.&.&.&.&.&.&.&.&.&.&.&.&.",
"&.&.&.&.&.&.&.&.&.&.&.&.&.&.&.&.&.&.&.&.&.&.&.&.&.&.&.&.&.&.&.&."
};
