/* XPM */
static char *icebreaker_48[] = {
/* columns rows colors chars-per-pixel */
"32 32 80 1 ",
"  c #374F36BB36E4",
". c #6113486A2B1E",
"X c #1D0531B9761C",
"o c #2048348A77CA",
"O c #213E35657851",
"+ c #498C475643FA",
"@ c #6D90596345B2",
"# c #652D659165C0",
"$ c #755271B26C7B",
"% c #C56F00003DA5",
"& c #A2EC0624492B",
"* c #A4010A514C10",
"= c #AA821F2A5AFF",
"- c #C5C900474104",
"; c #C747086B476F",
": c #C9C01602517A",
"> c #CC201EB55840",
", c #B6C3516A7D80",
"< c #CDB44B217704",
"1 c #CF7C4D0078FB",
"2 c #CF4551487BD0",
"3 c #00003EA6829C",
"4 c #000040438387",
"5 c #15684F328C8A",
"6 c #15E650398D36",
"7 c #335745798243",
"8 c #20BE55D58E49",
"9 c #32F862AC9630",
"0 c #49F672B59FCF",
"q c #60656C49993D",
"w c #4CC5756CA2B8",
"e c #85B685B083DD",
"r c #92E5936E932B",
"t c #9836947F9080",
"y c #A4299C5B90EF",
"u c #B56AA0CD8625",
"i c #B285A13A8B8B",
"p c #DECD95C1AE27",
"a c #DF58AD97BF0F",
"s c #CDE3C5BDBF29",
"d c #D3BAC814BA83",
"f c #C217BF3AC222",
"g c #BAE8C350CF36",
"h c #BCC7C514D32E",
"j c #BF1AC9A6D58B",
"k c #CECBCD38CF04",
"l c #D635CD68C5A2",
"z c #C924CCD4D574",
"x c #CF9DD29EDB69",
"c c #D484D0A9D111",
"v c #D162D522DD51",
"b c #DB75D7CDDB75",
"n c #DE33DB44DE38",
"m c #EA81DA68CB1A",
"M c #E398CD70D730",
"N c #E3F8CFD5D9A9",
"B c #EB3FD511DECE",
"V c #F38FE3B2CFE9",
"C c #EA60E0E6D671",
"Z c #E2B5E13BDE74",
"A c #DFD7DC58E073",
"S c #E1CADE2DE1CB",
"D c #EFC3D99BE35B",
"F c #F27ADC52E612",
"G c #E006E611EC56",
"H c #E622E362E61A",
"J c #E86BE412E7C5",
"K c #E7E6E519E8A9",
"L c #EA7EE6C0EA6A",
"P c #EE77EB3CEE95",
"I c #F7D2E0D8EB62",
"U c #FA97E44EEE9F",
"Y c #F3EEEDA5EB7D",
"T c #EF4AED12F088",
"R c #F37EEF44F364",
"E c #FB74F001F6D3",
"W c #F612F343F620",
"Q c #F798F741F8DC",
"! c #FC54F77EFC55",
"~ c #FFBEFC88FFC2",
/* pixels */
"PPP!~~RW~~~PTWWRHTTRj83444444444",
"PPP!!~WQ~~~PWQWWSYPRj83444444444",
"HSKWRWPPWWWHKPPLnJSLg84444444444",
"RYKWWRPLWWWHPLPLBKLLg84444444444",
"!!R~~~RW~~~PRW!RGPTWj64444444444",
"~!P~~~WW~!QPRWERHPTWz84444444444",
"~!P!~~WW~sycW!WRZTTYj64434343434",
"PPSRPTJLk@.$AJJJnZGZg96655556566",
"LJL!!!RPe+t fRRRAKSLAxxAczxvvvvG",
"PPR!~~RTreZ#k!WRASLSAASLKnHHHHKQ",
"PPP!~~RTludiLWRRASLKAAKSHnHHHHKQ",
"LJP!!!TTYVCmRRRRSSSSAAKSHbBGHZHW",
"LFSJLLAHLLLSLPPJAFKSAASSSbSSSBZL",
"~!SPPPFPQQWL!!~!T!~~RPEWWLWWWWP~",
"~!STPPLPWWWP!~~!T~~~RPWWWLRWWWP~",
"~!HTPPLPWWWP!~~!R!~~RTEW!LRWWWP~",
"WTGKLHHKTTTHWQWWKRWWPKPTTHPTPLKW",
"ww0wwwq,<<<<<<<<<<11<<<<<<<2aKHW",
"33X433X&%%-%%%%%%%--%%%%%%%-pTP~",
"434444O*-------------------;pTP~",
"334344O*---%-------------%%;pPP~",
"6656667=:::::::::::::::::::>pGZP",
"vxzvvvxMBDBMDDFBMBBBMMBBBNIUWWP~",
"KHZKLHSKPTYJWWQWSTPTHLTPPP!~~~P~",
"KHnHHKZKPPPHRWWWSPPPJJPPPK!~~!T~",
"HZnZHHZHPPLHRRWPSPPPFSPPPHQ!!WP~",
"ZZbGHGZnHZHnHHPHbnHnAvSSBnPTPPnH",
"TPT~~~WHPPPHWQWWZHKHSSJSHH!~~!AH",
"PPP~~~TKPPPHWQQRAHHHSSSKJJ!!~!nH",
"PPP~~~YKPPPKWQQWGHLLSSJJKJ!~~!SJ",
"HHHQWWPGHHGZLYPPbZZZnnSSSSRRRRbS",
"nZZWWWHbGZZnZZZZGTTPSbnSASRRRRSJ"
};
