/* XPM */
static char *ii_esu[] = {
/* columns rows colors chars-per-pixel */
"32 32 137 2 ",
"   c #000032323C3C",
".  c #030334343E3E",
"X  c #040435353F3F",
"o  c #060636364040",
"O  c #080838384141",
"+  c #090939394242",
"@  c #0B0B3A3A4343",
"#  c #0A0A3A3A4444",
"$  c #0B0B3B3B4444",
"%  c #0B0B3B3B4545",
"&  c #0F0F3E3E4747",
"*  c #10103E3E4747",
"=  c #10103F3F4848",
"-  c #131341414B4B",
";  c #141442424B4B",
":  c #131342424C4C",
">  c #171744444D4D",
",  c #191946464F4F",
"<  c #1B1B48485151",
"1  c #1D1D49495353",
"2  c #1D1D4A4A5454",
"3  c #22224D4D5757",
"4  c #24244F4F5757",
"5  c #25254F4F5858",
"6  c #292953535B5B",
"7  c #2B2B55555D5D",
"8  c #2C2C55555E5E",
"9  c #303058586161",
"0  c #33335B5B6363",
"q  c #35355D5D6464",
"w  c #36365E5E6666",
"e  c #3A3A60606868",
"r  c #404065656C6C",
"t  c #424267676F6F",
"y  c #434367676F6F",
"u  c #424268687171",
"i  c #454569697171",
"p  c #46466B6B7272",
"a  c #49496D6D7474",
"s  c #4C4C6F6F7575",
"d  c #4C4C6F6F7676",
"f  c #4A4A6F6F7878",
"g  c #4E4E70707777",
"h  c #4C4C70707979",
"j  c #525273737A7A",
"k  c #545476767C7C",
"l  c #5B5B7B7B8282",
"z  c #5C5C7C7C8282",
"x  c #5E5E7D7D8383",
"c  c #5D5D7D7D8484",
"v  c #616180808787",
"b  c #626281818787",
"n  c #646482828888",
"m  c #696986868C8C",
"M  c #6D6D89898F8F",
"N  c #6E6E8A8A9090",
"B  c #71718D8D9292",
"V  c #72728D8D9393",
"C  c #74748E8E9393",
"Z  c #767690909595",
"A  c #777791919797",
"S  c #787892929797",
"D  c #787893939999",
"F  c #7A7A94949A9A",
"G  c #7D7D96969B9B",
"H  c #7D7D96969C9C",
"J  c #83839A9A9F9F",
"K  c #83839B9BA0A0",
"L  c #85859D9DA2A2",
"P  c #87879D9DA2A2",
"I  c #87879E9EA3A3",
"U  c #85859E9EA5A5",
"Y  c #8888A0A0A4A4",
"T  c #8989A1A1A6A6",
"R  c #8B8BA2A2A6A6",
"E  c #8C8CA2A2A7A7",
"W  c #8989A1A1A8A8",
"Q  c #8C8CA3A3A8A8",
"!  c #8F8FA6A6ACAC",
"~  c #9191A6A6AAAA",
"^  c #9292A7A7ABAB",
"/  c #9393A8A8ACAC",
"(  c #9595AAAAAEAE",
")  c #9696AAAAAEAE",
"_  c #9797ABABAFAF",
"`  c #9898ACACB0B0",
"'  c #9B9BAFAFB2B2",
"]  c #9D9DB1B1B6B6",
"[  c #9E9EB2B2B7B7",
"{  c #A1A1B3B3B7B7",
"}  c #A2A2B3B3B6B6",
"|  c #A1A1B4B4B7B7",
" . c #A2A2B4B4B8B8",
".. c #A5A5B6B6BABA",
"X. c #A6A6B7B7BBBB",
"o. c #ABABBBBBBFBF",
"O. c #AEAEBDBDC1C1",
"+. c #AEAEBEBEC1C1",
"@. c #B2B2C0C0C3C3",
"#. c #B2B2C1C1C5C5",
"$. c #B3B3C2C2C5C5",
"%. c #B7B7C4C4C7C7",
"&. c #B7B7C5C5C8C8",
"*. c #B9B9C6C6C9C9",
"=. c #BABAC7C7CACA",
"-. c #BABAC8C8CACA",
";. c #BCBCC8C8CBCB",
":. c #BCBCC9C9CCCC",
">. c #BEBECBCBCECE",
",. c #BFBFCBCBCECE",
"<. c #C1C1CDCDCFCF",
"1. c #C1C1CDCDD0D0",
"2. c #C4C4CFCFD2D2",
"3. c #C6C6D1D1D3D3",
"4. c #C7C7D2D2D4D4",
"5. c #C9C9D4D4D6D6",
"6. c #CACAD4D4D7D7",
"7. c #CBCBD5D5D7D7",
"8. c #CBCBD5D5D8D8",
"9. c #CECED7D7D9D9",
"0. c #D3D3DBDBDDDD",
"q. c #D4D4DCDCDFDF",
"w. c #D5D5DDDDDFDF",
"e. c #D6D6DEDEE0E0",
"r. c #D9D9E0E0E1E1",
"t. c #DBDBE2E2E4E4",
"y. c #DFDFE4E4E5E5",
"u. c #E3E3E8E8EAEA",
"i. c #E7E7EBEBEDED",
"p. c #ECECF0F0F0F0",
"a. c #EDEDF0F0F0F0",
"s. c #EDEDF0F0F1F1",
"d. c #F0F0F2F2F2F2",
"f. c #F2F2F4F4F5F5",
"g. c #F4F4F6F6F6F6",
"h. c #F8F8F9F9F9F9",
"j. c #FBFBFBFBFBFB",
/* pixels */
"                        X , g { [ j , o                         ",
"                    % 0 m [ $.1.1.+.[ m 0 $                     ",
"                + s E +.^ n 8 D F 8 n ^ +.W s %                 ",
"            * s $.6.T i = o   V V   o = i U 6.+.s =             ",
"        3 L r.i.( a 0 0 0 0 0 ` ` 0 0 0 0 0 a ( i.e.P 3         ",
"        ! h.t.| ` ` ` ` ` %.a.g.f.a.*.` ` ` ` ` { u.h.J         ",
"      > 4.[ <.z         w ` O.O.O.+.' w         N 6...<.*       ",
"      b @.1 N w.i   + a 8.{ w A C w ] 6.p     c t.M 1 ;.s       ",
"    - @.s     z e.S ^ 6.c +   V B   + c 0.^ L e.z     b +.@     ",
"    s <.,     $ o.h.6.s       V V       a w.h.o.@     > 7.a     ",
"  = ( U     1 D ;.o.<.c       V V       V 6.O.,.B 1     T E $   ",
"  0 O.w   w o.*.i > N e.i     V V     l t.N : j *.o.w . u +.0   ",
"+ C ^ 5 Z 3.L 1       z e.l % V V % N t.z       , T ,.V 3 ^ m o ",
"<  .K ( $.z =           M <.z H H N 6.N         X : c &.^ Q } , ",
"g r.1...0 +             % M 1.+.*.8.M %             + w ..6.e.s ",
"8.a.*.Q B B B B V V V V V H ;.a.d.*.G B V V V V V V V B Q ,.a.*.",
"6.a.*.I V V B C V V V V V H ;.d.a.$.D C C V V V V V V V T ,.a.*.",
"s r.6.} 9 +             % M 6.;.;.1.c +             + w ..1.e.h ",
"1 { I ` O.z =           M 6.M H H M 1.l           : b $./ U | , ",
"% C / 5 C 7.I =       l e.N % V B % N w.i       1 T ,.V 4 ^ m + ",
"  0 O.w . w +.;.r : N e.z     V V     l 0.z : i *.O.w . y +.0   ",
"  = ( U     3 G *.O.8.V       V V       V 2.} ,.C 1     T T $   ",
"    s ;.,     = o.j.9.f       V V       a 8.j.` %     > 6.s     ",
"    : $.f     z e.E / 8.s +   V V   + s 6./ Q e.i     n +.$     ",
"      c +.3 M t.z   + z 8.Q 6 C Z 8 Q 7.z +   z e.z 1 *.s       ",
"      , 8.' 6.N         i } O.O.o.O.} u         N 1.[ <.*       ",
"        ( g.u.{ ) ` ` ` ' *.d.g.f.a.*.' ) ` ` ` ..u.h.J         ",
"        8 { t.u.E k i w r r r ` ` r r r r r k T u.t.) 4         ",
"            : n $.<.U w - o   B C   o - w U <.@.b >             ",
"                : s ( O.( k 6 S F 6 k ^ o.( g -                 ",
"                    = 0 C } $.<.<.$. .B 0 *                     ",
"                        + , s o.o.h 1 +                         "
};
