/* XPM */
static char *kitsune_64x64[] = {
/* columns rows colors chars-per-pixel */
"32 32 114 2 ",
"   c #0177011700A0",
".  c #095A05D801C1",
"X  c #130B0B2B01E3",
"o  c #1A040EBB01E7",
"O  c #1CC914600ABC",
"+  c #0EC70FB310D7",
"@  c #141C14E715D5",
"#  c #1B9C1C191CAE",
"$  c #229B14150323",
"%  c #2ABB18A80366",
"&  c #215F16460948",
"*  c #35961EDB0458",
"=  c #37051FDF04B1",
"-  c #3C3522A904C1",
";  c #3979247A0BDB",
":  c #356B258212DE",
">  c #228B228B228B",
",  c #26E227692806",
"<  c #2EEF2EEF2EEF",
"1  c #38002F4D2581",
"2  c #32E832E932EB",
"3  c #388138813881",
"4  c #40A625580552",
"5  c #495B2A680608",
"6  c #459629670837",
"7  c #494D2E360F25",
"8  c #523B2F9A06DD",
"9  c #54D1310C06EC",
"0  c #5CDD345804D2",
"q  c #45C82E001217",
"w  c #46C02FD4160B",
"e  c #491C300712C8",
"r  c #4ED2350D17C0",
"t  c #51C535D7153C",
"y  c #64633A0E083D",
"u  c #6CC53EF9093A",
"i  c #55823CF120D1",
"p  c #45AF3DFB34EE",
"a  c #6F6540530935",
"s  c #757944510A86",
"d  c #796F464C0A6F",
"f  c #7F2E49A90AC3",
"g  c #78C249021190",
"h  c #7FFF5554236D",
"j  c #77FA565A2EC5",
"k  c #442544594493",
"l  c #4E9050275209",
"z  c #58FE563952F2",
"x  c #5B595B705B8A",
"c  c #76A25F3843CA",
"v  c #74DE61BE4BCD",
"b  c #6778633A5E6F",
"n  c #783666FE530D",
"m  c #5FDF5FE05FE0",
"M  c #7BC2701F62B7",
"N  c #7DE676C16E79",
"B  c #73F0742F7476",
"V  c #84314CCB0B71",
"C  c #892A4F430B02",
"Z  c #87FC502A0EF5",
"A  c #8D6B52750D3B",
"S  c #929C550E0CF5",
"D  c #9D445B2D0D98",
"F  c #89D1515C0FED",
"G  c #83A1557B1F77",
"H  c #8DFE59961C3D",
"J  c #99E35C611449",
"K  c #A1345D590D8B",
"L  c #9F8E60D11705",
"P  c #9A2E60161BD6",
"I  c #A72A60DE0E42",
"U  c #AB34633C0E4E",
"Y  c #B29167040E36",
"T  c #B9A36AF00E8F",
"R  c #A6AA620D11C8",
"E  c #AFE366D11149",
"W  c #A38F644519EB",
"Q  c #B211688A1298",
"!  c #BA6F6C34104F",
"~  c #C49F70E70E7D",
"^  c #C4D3722B1113",
"/  c #CB3E75B31142",
"(  c #CEFE784311B1",
")  c #D46B7B18120B",
"_  c #DD3B7F7F1169",
"`  c #DE8681341305",
"'  c #E45B84AF139D",
"]  c #E92986B2129D",
"[  c #EE358A281460",
"{  c #F4378DAE145A",
"}  c #F83B90461563",
"|  c #FFA194E61613",
" . c #8AE9853E7ED8",
".. c #836C83E58476",
"X. c #8CCC8CCA8CDA",
"o. c #922E8BE5848E",
"O. c #957B95C99631",
"+. c #9ACE9A779A18",
"@. c #A77AA77AA77A",
"#. c #AE54ADBEAD11",
"$. c #B2BBB2C2B2DA",
"%. c #BBDABC13BC55",
"&. c #C40FC44DC493",
"*. c #C6AEC783C8A8",
"=. c #CECCCECCCECC",
"-. c #CEE8CFFED146",
";. c #D2A1D2A1D2A1",
":. c #D676D814DA05",
">. c #DE19DE19DE19",
",. c #E469E482E49E",
"<. c #EDE2EEE3F00D",
"1. c #F3DFF412F453",
"2. c #FFA8FFB0FFB9",
"3. c None",
/* pixels */
"3.3.3.3.3.3.3.3.3.3.3.3.3.3.3.3.3.3.3.3.3.3.3.3.3.3.3.3.3.3.3.3.",
"3.3.3.3.3.3.3.3.3.3.3.3.3.3.3.3.3.3.3.3.3.3.3.3.3.3.3.3.3.3.3.3.",
"3.3.3.3.3.3.3.3.  3.3.3.3.3.3.3.3.3.. . 3.3.3.3.3.3.3.3.3.3.3.3.",
"3.3.3.3.3.3.3.3.= - 3.3.3.3.3.3.3.3.9 u 3.3.3.3.3.3.3.3.3.3.3.3.",
"3.3.3.3.3.3.3.3.V / - 3.3.3.3.3.3.X K D 3.3.3.3.3.3.3.3.3.3.3.3.",
"3.3.3.3.3.3.3.3.S / I % 3.3.3.3.. 6 S d 4 3.3.3.3.3.3.3.3.3.3.3.",
"3.3.3.3.3.3.3.3.R 8 D I - 3.3.3.O C d s y 3.3.3.3.3.3.3.3.3.3.3.",
"3.3.3.3.3.3.3.= ) s t S ^ y * & ; D * s f 3.3.3.3.3.3.3.3.3.3.3.",
"3.3.3.3.3.3.3.5 [ A q A } { _ / ) ` A y 9 3.3.3.3.3.3.3.3.3.3.3.",
"3.3.3.3.3.3.3.a } Y I } | | | | | | | ` 9 . 3.3.3.3.3.3.3.3.3.3.",
"3.3.3.3.3.3.3.S | | | | | | | | | | | | ' 9 3.3.3.3.3.3.3.3.3.3.",
"3.3.3.3.3.3.3.y { | | | | | | | | | | | | ( - 3.3.3.3.3.3.3.3.3.",
"3.3.3.3.3.3.. d } | | | | | | | | | | | | | R o 3.3.3.3.3.3.3.3.",
"3.3.3.3.3.3.9 ] | | | | | | | | | | | | | | } f 3.3.3.3.3.3.3.3.",
"3.3.3.3.3.% ^ | | | | | | | | | | | ' ^ | | | ' 9 3.3.3.3.3.3.3.",
"3.3.3.3.3.V } | | | | | | | | [ I ' Z 7 ` | | | ) 5 3.3.3.3.3.3.",
"3.3.3.3.5 ` | | | | | | | | | E w S g r ^ | | | | ] S %   3.3.3.",
"3.3.3.$ U | | | | | | | | | | J i F S e ` | | | | | ` a o 3.3.3.",
"3.3.X S | | | | | | | | | | | ! e R [ ) | ` ) | | | | { I %   3.",
"3.  $ a D } | | | | | | | | | } ^ { | | | ) s A ! Q A 0 - 3.3.3.",
"3.3.3.= ~ | | | | | } ` Y L P W Q ` | | | | ] Z ; b ..l # 3.3.3.",
"3.3.y ` | | | } ] T G n o.#.$.+. .v H / } | | | / j  .X.2   3.3.",
"3.4 ! ) ~ Y J G c  .*.1.2.2.,.x B ..X.M h ! [ | | { s .   3.3.3.",
"3.3.% & p o.$.:.<.2.2.2.2.2.1. .B m k ..O.N j R ! ` y       3.3.",
"3.3.3.@ B %.,.1.2.2.2.2.2.2.2.1.#.@.=.%.X.*.-.z 1 : &       3.3.",
"3.3.3.3.3.> 3 x ..+.$.;.>.>.;.&.$.+.O.X.X.O.B k , + 3.3.3.3.3.3.",
"3.3.3.3.3.3.3.3.3.3.# 2 3 3 < > # 3.3.3.3.3..   3.3.3.3.3.3.3.3.",
"3.3.3.3.3.3.3.3.3.3.3.3.3.3.3.3.3.3.3.3.3.3.3.3.3.3.3.3.3.3.3.3.",
"3.3.3.3.3.3.3.3.3.3.3.3.3.3.3.3.3.3.3.3.3.3.3.3.3.3.3.3.3.3.3.3.",
"3.3.3.3.3.3.3.3.3.3.3.3.3.3.3.3.3.3.3.3.3.3.3.3.3.3.3.3.3.3.3.3.",
"3.3.3.3.3.3.3.3.3.3.3.3.3.3.3.3.3.3.3.3.3.3.3.3.3.3.3.3.3.3.3.3.",
"3.3.3.3.3.3.3.3.3.3.3.3.3.3.3.3.3.3.3.3.3.3.3.3.3.3.3.3.3.3.3.3."
};
