/* XPM */
static char *kkbswitch[] = {
/* columns rows colors chars-per-pixel */
"32 32 249 2 ",
"   c #005000500050",
".  c #181800000000",
"X  c #242400000000",
"o  c #3A3A26260303",
"O  c #24CF24CF24CF",
"+  c #297F297F297F",
"@  c #4B4B00000000",
"#  c #56D700000000",
"$  c #454511110000",
"%  c #6F6F00000000",
"&  c #717100001A1A",
"*  c #57573A3A0606",
"=  c #5E5E45450D0D",
"-  c #7E7E62621F1F",
";  c #0A0A10106E6E",
":  c #15151C1C7979",
">  c #72F234347D7D",
",  c #3D3D47474848",
"<  c #4D4D55D65757",
"1  c #5DB35DB35DB3",
"2  c #717147474646",
"3  c #5B5B63636565",
"4  c #626262626262",
"5  c #6D6D6DEE6DEE",
"6  c #686870707070",
"7  c #767676767676",
"8  c #777779797979",
"9  c #7CFD7CFD7CFD",
"0  c #840300810000",
"q  c #8A0A00000687",
"w  c #B8B801010000",
"e  c #A92900001111",
"r  c #B6B62BAC1717",
"t  c #81810F0F2828",
"y  c #B2B200002424",
"u  c #A2A20A0A3535",
"i  c #8B8B36363636",
"p  c #BCBC21212828",
"a  c #BCBC26263131",
"s  c #AAAA3A3A3131",
"d  c #CFCF00000606",
"f  c #DCB700A50081",
"g  c #D8D808080707",
"h  c #E4A400810000",
"j  c #EBCE00C80056",
"k  c #E3E30B0B0000",
"l  c #F489006B00AB",
"z  c #FE5C00B000D8",
"x  c #F57409090A8B",
"c  c #FECB0AD80B0B",
"v  c #E2E21C1C0000",
"b  c #F5F50E0E1192",
"n  c #FAFA0F0F1111",
"m  c #E99318C31919",
"M  c #F3F317171717",
"N  c #FFFF12121252",
"B  c #FF7F1C9C199A",
"V  c #CDCD27271898",
"C  c #DCDC16162B2B",
"Z  c #C0C026262E2E",
"A  c #DADA27272424",
"S  c #D7D735352121",
"D  c #C8C835353232",
"F  c #DCDC3A3A3A3A",
"G  c #EC96297F2929",
"H  c #F3F325252525",
"J  c #FE7E23232323",
"K  c #F17129292929",
"L  c #FDA72C822AD5",
"P  c #EFEF2EAF34B5",
"I  c #E7E734F53777",
"U  c #EBEB3A3A3B3B",
"Y  c #F3F335B635B6",
"T  c #FFFF35353030",
"R  c #9C9C66660606",
"E  c #959571711B1B",
"W  c #ABAB5A5A3E3E",
"Q  c #C6C656561010",
"!  c #ECEC4A4A0101",
"~  c #F2F25E5E0000",
"^  c #F2F268680505",
"/  c #F9F97B7B0000",
"(  c #DBDB7D7D3434",
")  c #808013135B5B",
"_  c #A4A41B1B4F4F",
"`  c #AFAF46464747",
"'  c #BFBF45C64848",
"]  c #B0B048485555",
"[  c #A7A750D15DDE",
"{  c #B7B766664141",
"}  c #A5A56A6A6A6A",
"|  c #C1C147C845C6",
" . c #D983489E499F",
".. c #DBDB54D55A5A",
"X. c #F4F4424241C2",
"o. c #F4F44F4F4F4F",
"O. c #FE7E4D4D4D4D",
"+. c #E4E44C4C53D4",
"@. c #E6E650D14FD0",
"#. c #F27253D45414",
"$. c #FAFA54FF5757",
"%. c #F5B55A9A5B5B",
"&. c #FEFE59AF5903",
"*. c #CCCC56D76464",
"=. c #EEEE646463E4",
"-. c #FD5264BA650F",
";. c #E6E66A6A7373",
":. c #FEFE757574F5",
">. c #F2F27F7F7F7F",
",. c #BFBFA4A43232",
"<. c #D75789891090",
"1. c #ECEC98980707",
"2. c #F4F49B9B0505",
"3. c #FDFD9E9E0283",
"4. c #FFFFA6260384",
"5. c #FFFFABAB0202",
"6. c #FFFFAC560BB6",
"7. c #EEEEACAC1B1B",
"8. c #FFFFAEAE1010",
"9. c #FFFFB2F21454",
"0. c #FEFEB8381696",
"q. c #FFFFBA0F1C1C",
"w. c #C7C791912F2F",
"e. c #DADA85853232",
"r. c #C7C795953131",
"t. c #F7F78A8A2C2C",
"y. c #DC31B50A3737",
"u. c #EDEDB0B02121",
"i. c #F0F0B7B72A2A",
"p. c #ECECBB653A3A",
"a. c #FFFFC2422424",
"s. c #FE3DC3832CED",
"d. c #FFFFCBCB2C2C",
"f. c #FDFDCACA36B7",
"g. c #FFFFD2D23434",
"h. c #FFFFD9593CBD",
"j. c #EEEECACA42C2",
"k. c #EEEED3D34C4C",
"l. c #FFFFD55541C2",
"z. c #FFD4DB5A451A",
"x. c #EEEED8D85252",
"c. c #FEFEE3E34AF5",
"v. c #FFFFEA6A4C4C",
"b. c #FCFCE4E45555",
"n. c #FFFFEC9654AA",
"m. c #FFFFF3F35757",
"M. c #FFFFFEFE6262",
"N. c #08080C0C8F8F",
"B. c #19192525AFAF",
"V. c #0A0A2222B1B1",
"C. c #1B1B2525B1B1",
"Z. c #22222828ADAD",
"A. c #24242F2FB737",
"S. c #2BAC3BBCBBBB",
"D. c #38384646BF14",
"F. c #64647373B3B3",
"G. c #34344646C771",
"H. c #3CE74DF8C2C2",
"J. c #4CCD5353C645",
"K. c #44445802C81D",
"L. c #4ACB5B5BC7C7",
"P. c #4B4B5E5ECA4A",
"I. c #51516161C9C9",
"U. c #545468E9CECE",
"Y. c #5BDC6AEACD4D",
"T. c #56D76DEED1D1",
"R. c #58D971F2D3D3",
"E. c #63636D6DC7C7",
"W. c #68687373D6D6",
"Q. c #B5B576768A8A",
"!. c #CFCF6B6B8383",
"~. c #ECEC7D7D8080",
"^. c #F2F27E7E8585",
"/. c #69698686DBDB",
"(. c gray54",
"). c #959596569656",
"_. c #9B9B9B9B9B9B",
"`. c #A4A48B8B8A8A",
"'. c #8E8E9D9DB6B6",
"]. c #A5A5A5A5A5A5",
"[. c #B4B4B4B4B4B4",
"{. c #D3D38F8F8F8F",
"}. c #F67683838504",
"|. c #FFFF8F8F8F8F",
" X c #ECEC9C9C9C9C",
".X c #FD52953F953F",
"XX c #F74C99439943",
"oX c #E4E49B9BA3A3",
"OX c #DCDCA1A1A1A1",
"+X c #CBCBBC66B80D",
"@X c #EC41A7A7A8A8",
"#X c #F837A7E7A7E7",
"$X c #FFFFACACACAC",
"%X c #ECECA8A8B1B1",
"&X c #ECECB2B2B2B2",
"*X c #FCA6B35DB35D",
"=X c #F7F7B8B8B8B8",
"-X c #85858E8ED8D8",
";X c #93939A9ADBDB",
":X c #A3A39797C8C8",
">X c #9F9FA0A0C1C1",
",X c #9C9CABABDEDE",
"<X c #A1A1A6A6DDDD",
"1X c #9D1DA6A6E1E1",
"2X c #A8A8AEAEE3E3",
"3X c #A8A8B1B1E5E5",
"4X c #B2B2BFBFECEC",
"5X c #A9A9C8C8EDED",
"6X c #B1B1CCCCF0F0",
"7X c #BA64D92EF7F7",
"8X c #C46EC46EC46E",
"9X c #CE67CE67CE67",
"0X c #D151CFCFC949",
"qX c #D4D4D353CCCC",
"wX c #CD4DDADADADA",
"eX c #D4D4D4B2D45C",
"rX c #D554D959D5D5",
"tX c #DD25DD25DD25",
"yX c #FE7EC544C544",
"uX c #F54AC8C8C9C9",
"iX c #E6E6C6C6D7D7",
"pX c #EE6ECDCDD3D3",
"aX c #EDEDD52AD429",
"sX c #E7E7DCDCDCDC",
"dX c #FE3DD656D494",
"fX c #F6F6D858DADA",
"gX c #FFFFE1E1DA5A",
"hX c #C3C3D757EB6B",
"jX c #E1E1D6D6E3E3",
"kX c #CBCBE767FEFE",
"lX c #DFDFE4E4F2F2",
"zX c #D7D7F8F8FFFF",
"xX c #DC5CFCFCFFFF",
"cX c #E442E48BE4C8",
"vX c #E791E7E7E73C",
"bX c #E4E4E9B6EA83",
"nX c #EC82EC79EC8B",
"mX c #FD96E4E4E47D",
"MX c #F7F7E7E7EAEA",
"NX c #F5F5ED6DEEEE",
"BX c #FEFEEB6BEB6B",
"VX c #EEEEF171F171",
"CX c #E54BFFFFFFFF",
"ZX c #EBC6FFC8FF47",
"AX c #F452F49CF49C",
"SX c #FEA8F49EF54A",
"DX c #F373FFBFFFBF",
"FX c #FDD2FE2EFE34",
"GX c None",
/* pixels */
"GXGXGXGXGXGXGXGXGXGXGXGXGXGXGXGXGX> > GXGXGXGXGXGXGXGXGXGXGXGXGX",
"GXGXGXGXGXGXGXGXGXGXGXGXGXu ;.*XdXgXgXP d & GXGXGXGXGXGXGXGXGXGX",
"GXGXGXGXGXGXGXGXGXGXGXy j B dXmXmXBXmXY j z e GXGXGXGXGXGXGXGXGX",
"GXGXN.GXGXGXGXGXV.) z z L XXSXFXFXFXFXNX@XP j GXGXGXGXGXGXGXGXGX",
"GXGXZ.J.C.B.A.H.G._ T XXAXFXFXFXFXFXFXDXCXlX*.GXGXGXGXGXGXGXGXGX",
"GXGXJ.4XD.;XJ.2X-X:XDXZXAXyXyX*X$X$X.X$.%XxX5XGXGXGXGXGXGXGXGXGX",
"GXGXA.S.D.,XL.L.P.7XNX|.J O..X|.|..X-.z z %.>XGXGXGXGXGXGXGXGXGX",
"GXGXG.I.D.D.D.U.U.!.L c c &..XXX$X*X:.c z z a < 5 4       GXGXGX",
"GX; W.hXI.3XT.5X<XC N B O.*XBXFXFXFXFXfX^.B w 3 8 1         GXGX",
"GX: S.J.P.1XR.R.E.P &.=XFXFXFXmXdXfXMXZXCXiX[ < 6 ,           GX",
"GXF.U.K.K.P.Y./.,XpXDXDX%X}.%.#.o.#.G U oXzX'.2 } i # .       GX",
"GXhXZX7X6X7XkXCXZXnXXXK l H X.o.%.#.m j j ..Q.' =.G h d 0 .   GX",
"GX*.aXDXZXDXvX&X=.M l l X.#XdXSXFXSXuX~.m j Z | ..m f h j w X GX",
"GXf j G U K x l z x $.uXDXFXFXFXFXFXDXZXjX+.p | @.g f f f j q GX",
"GX+.l j l z l Y >.aXDXDXmX#X:.&.$.-.}.pXCXkX] D U g f f f j 0 GX",
"GXZXaX@X X&XsXZXCXZXuX-.B z z z z z z b ;.hX[ D I h f f f j % GX",
"GXAXZXZXZXZXCXnX#X$.N z n N n M b x z z z I { ( t.^ ! v f h # GX",
"q L OXwXwX+X{...F F  . . .| ` s r r V A l l w.p.i.9.6.3.~ k @ GX",
"e A +XnXvXsXsXcXbXbXbXcXbXlXbX8XW Q <.y.e.S r.p.s.0.8.6.5./ $ GX",
"t `.wXFXAXAXAXAXVXAXVXVXVXVXVXnX[.i.g.l.k.j.y.f.s.q.0.8.4.4.GXGX",
"GX_.eXAXAXAXnXnXnXnXvXcXbXbXcXcX0Xf.h.z.z.z.l.f.d.a.q.9.6.3.GXGX",
"GX).tXVXnXNXVXnXvXvXcXcXtXtXjXcX9Xj.z.c.c.z.z.h.g.d.a.q.9.2.GXGX",
"GX).eXAXbXVXnXnXnXcXcXsXtXtXrXcXqXk.v.n.n.m.v.h.s.u.7.0.0.1.GXGX",
"GX).tXAXnXcXtXnXeXvXvXtXtXtXeXtXqXx.m.M.m.y.E * GXGXGXGXR <.GXGX",
"GX_.tXnX(.8 5 7 8 cXcXcXtXrX9XcXeXb.v.,.= GXGXGXGXGXGXGXGXGXGXGX",
"GX].nXeX1 8 4 9 9 cXcXtXtXtXeXbXeX- o GXGXGXGXGXGXGXGXGXGXGXGXGX",
"GX].cXFX0XrX9XtXtXnXvXvXcXsXtXVX9XGXGXGXGXGXGXGXGXGXGXGXGXGXGXGX",
"GX[.cXFXFXFXFXFXFXAXAXAXAXAXAXFXeXGXGXGXGXGXGXGXGXGXGXGXGXGXGXGX",
"GX[.eXtXjXcXvXnXnXVXAXAXAXFXFXFXeXGXGXGXGXGXGXGXGXGXGXGXGXGXGXGX",
"GX8XtXcXcXvXvXnXnXAXAXSXFXFXFXFXeXGXGXGXGXGXGXGXGXGXGXGXGXGXGXGX",
"GX8XcXtXtXtXcXvXbXnXnXNXAXAXAXAX9XGXGXGXGXGXGXGXGXGXGXGXGXGXGXGX",
"GXGX+ + + + + + + + + + + + O O O GXGXGXGXGXGXGXGXGXGXGXGXGXGXGX"
};
