/* XPM */
static char *laby[] = {
/* columns rows colors chars-per-pixel */
"32 29 35 1 ",
"  c #000100010001",
". c #043F043F043F",
"X c #07C007C007C0",
"o c #0CC30CC30CC3",
"O c #121012101210",
"+ c #15C415C415C4",
"@ c #190319031903",
"# c #1D0C1D0C1D0C",
"$ c #22F822F822F8",
"% c #256225622562",
"& c #2B9D2B9D2B9D",
"* c #2C372C372C37",
"= c #316C316C316C",
"- c #340634063406",
"; c #3ACE3ACE3ACE",
": c #3E253E253E25",
"> c #418241824182",
", c #457D457D457D",
"< c #490E490E490E",
"1 c #4D6C4D6C4D6C",
"2 c #523B523B523B",
"3 c #569B569B569B",
"4 c #5A325A325A32",
"5 c gray36",
"6 c #638563856385",
"7 c #643264326432",
"8 c #6A0B6A0B6A0B",
"9 c #6D706D706D70",
"0 c #701470147014",
"q c #748074807480",
"w c #7A997A997A99",
"e c #7F067F067F06",
"r c #836983698369",
"t c #840784078407",
"y c None",
/* pixels */
"yyyyyyyyyyyyyyyyyyyyyyyyyyyyyyyy",
"yyyyyyyyyyyyyyyy  yyyyyyyyyyyyyy",
"yyyyyyyyyyyyy. XOO..yyyyyyyyyyyy",
"yyyyyyyyyyyy +:455,@ yyyyyyyyyyy",
"yyyyyyyyyyyy.O5ttt9$oyyyyyyyyyyy",
"yyyyyyyyyyyy%-8rrr0<-yyyyyyyyyyy",
"yyyyyy yyyyX>0eeeere2oyyyyyyyyyy",
"yyyyyyy yyyo:qrrerew1oyyyyyyyyyy",
"yyyyyyy  yyy%7reerr0=Xyyyyyy yyy",
"yyyyyyyy yyyX;8ewe0<Xyyyyyyy yyy",
"yyyyyyyyy  yyo#:1>%oyyyyyy  yyyy",
"yyyyyyyyyyy  .&:;::$Xy      yyyy",
"yyyyyyyyyyyy.-709903X yyyyyyyyyy",
"yyyyy yyyyyy 3errrt0#yyyyyyyy yy",
"yyyyyy    yy 5reeer0&yyyyyyy yyy",
"yyyyyyy    y.1wrrrr8+yyyyyy yyyy",
"yyyyyyyyyyy  $4wee9,X yyy  yyyyy",
"yyyyyyyyyyyX##=265>$%o    yyyyyy",
"yyyyyyyyyyy$8q<$O+=6w,Oyyyyyyyyy",
"yyyyyyyyyyX5ereqqqweeq&yyyyyyyyy",
"yyyyyyyy  @qeerrrreree<o  yyyyyy",
"yyyyyy  y.&wreeereeree5+yy yyyyy",
"yyyyy  yyy$qrereeeeeee3+yyy yyyy",
"yyyy  yyyyO0reeeerrere:+yyyy yyy",
"yyy  yyyyyX,wrereeerr8$yyyyy  yy",
"yy  yyyyyy.O1qerrrre6=oyyyyyy yy",
"y  yyyyyyyyX+,589973%.yyyyyyyy y",
"  yyyyyyyyyyy O&=*@.Xyyyyyyyyy y",
"yyyyyyyyyyyyyyyyy.yyyyyyyyyyyyyy"
};
