/* XPM */
static char *liguidsoap[] = {
/* columns rows colors chars-per-pixel */
"14 32 189 2 ",
"   c #050900000005",
".  c #0C4601480044",
"X  c #04FD07B10698",
"o  c #067F096008F0",
"O  c #09B50EEF0D86",
"+  c #155D05B100DC",
"@  c #19C506B400DC",
"#  c #143D07B900F8",
"$  c #1DD20A9C0151",
"%  c #0BD3119912C6",
"&  c #106915FF1096",
"*  c #151918D2188F",
"=  c #23D00AC301CC",
"-  c #293E0C9701E3",
";  c #237510E70216",
":  c #2F8115DD0288",
">  c #255B1883033A",
",  c #2B331A9A0318",
"<  c #35671312037E",
"1  c #39ED14920398",
"2  c #3BE31A9F03C7",
"3  c #35F3281708CF",
"4  c #34452D3A1323",
"5  c #350C307B1F0E",
"6  c #20032674221C",
"7  c #22A929E922D6",
"8  c #222B290728D1",
"9  c #39D035E923A2",
"0  c #260632F1326D",
"q  c #2F09396B32D9",
"w  c #527126040590",
"e  c #52B625DD0A13",
"r  c #54A12C1D0AF5",
"t  c #4F1D3AEA1626",
"y  c #47383E0D1AF8",
"u  c #66902D200AF5",
"i  c #6C252EC60A36",
"p  c #70E43DF0101C",
"a  c #547341C3088D",
"s  c #593D45FB08E2",
"d  c #5E8A490E0A36",
"f  c #567E4B52198A",
"g  c #657F43B60EB7",
"h  c #632B4B0F09E5",
"j  c #6C9B52BD0AC9",
"k  c #74BE5AA30DA8",
"l  c #7C4B5C1009CA",
"z  c #68E6511615BB",
"x  c #6F405A431143",
"c  c #6B95592C17B9",
"v  c #747B5CDF1307",
"b  c #7BE55C9510A9",
"n  c #7CFD62F6126F",
"m  c #78DE60981932",
"M  c #53AB49582121",
"N  c #7FD2686A1FEF",
"B  c #33C7446A465F",
"V  c #3D87481B45B1",
"C  c #446B4DDB4A37",
"Z  c #45B554575492",
"A  c #4B2F5A325267",
"S  c #4B965BB65985",
"D  c #529A612A5DEE",
"F  c #5677643C6191",
"G  c #696775A16F9D",
"H  c #64FC775A77CB",
"J  c #694E7C7679CF",
"K  c #80EE3EF01686",
"L  c #84E14C7804AC",
"P  c #870A51AB06E4",
"I  c #834753C70C90",
"U  c #9E175F480673",
"Y  c #8711420914AE",
"T  c #8CFE43FB168C",
"R  c #840B484F1730",
"E  c #910A44C115AF",
"W  c #8E215226167F",
"Q  c #944554731715",
"!  c #93F955B017C8",
"~  c #A7EE5FD30B11",
"^  c #8B5962120950",
"/  c #972472620C01",
"(  c #9D9173D40C11",
")  c #820866A4190C",
"_  c #98F1776F12DC",
"`  c #A59564AB05D8",
"'  c #AFCC65390699",
"]  c #AD7869A206E6",
"[  c #AA1B64690EA5",
"{  c #A4636B650A2B",
"}  c #B50B6F5C0620",
"|  c #B26E6B6A0926",
" . c #AF64764D0A1F",
".. c #AA8C7C590EC2",
"X. c #B84771BA067D",
"o. c #B53372E40853",
"O. c #B4D97B7F0BE8",
"+. c #BBBB7D4D0AA7",
"@. c #A4006AC8152E",
"#. c #A0397A6C17BE",
"$. c #B035704819B0",
"%. c #896F4F4F212B",
"&. c #86CA63512B6C",
"*. c #A1016ADF215D",
"=. c #C0B077B706F3",
"-. c #C51D7D2E09CE",
";. c #C4EA7FED1A23",
":. c #8E5B7F766642",
">. c #AD0A831D0DE8",
",. c #B1FB80F40E51",
"<. c #BD5583B90D0C",
"1. c #BF2789C20B7F",
"2. c #A7AD81281371",
"3. c #ABD783F11561",
"4. c #B2FE864B138E",
"5. c #B63E8A08176F",
"6. c #BB878917104F",
"7. c #B5C98CA11829",
"8. c #BA528D31192F",
"9. c #B5D590A9135F",
"0. c #B5EF94681F75",
"q. c #BEDA91AB1959",
"w. c #C46D86630ECD",
"e. c #CD7F850E08CB",
"r. c #C2658CE00C4B",
"t. c #CD1B8BD00B4C",
"y. c #D0EF83D60837",
"u. c #D3848D540B0D",
"i. c #DAF894CB0BDA",
"p. c #D9E69C9D0ED8",
"a. c #CA0885621688",
"s. c #C8478AF11058",
"d. c #CD668EE51064",
"f. c #CCBF93CD10AA",
"g. c #C6FA9D2511C1",
"h. c #CE54992F12B6",
"j. c #D44395D211DA",
"k. c #DB4695CA1064",
"l. c #D4EA9BB613D2",
"z. c #E1BD9B110C42",
"x. c #DCACA0E30E97",
"c. c #C76CA36012FF",
"v. c #DD82A56913A4",
"b. c #D844A5FA1E41",
"n. c #DD37A4031A75",
"m. c #D084A8E01D70",
"M. c #E301A1830D1D",
"N. c #E2F3A4C212ED",
"B. c #E693AD4113B3",
"V. c #E2F5B878141B",
"C. c #E405B15B19C0",
"Z. c #C75BA091220A",
"A. c #D31BA2B2203A",
"S. c #DE16A7B42259",
"D. c #DD66ACAE2170",
"F. c #E059B40325A3",
"G. c #D881AD6431D8",
"H. c #CEB5B80833C4",
"J. c #DA53BCBC30D8",
"K. c #D6DCBE243F22",
"L. c #E447B906273A",
"P. c #E2A6BBDE3563",
"I. c #D4CBC33A3CBD",
"U. c #E442D00F3D1E",
"Y. c #978A8B2F5862",
"T. c #ABDC92454791",
"R. c #8C4282406B76",
"E. c #9BD5920C7168",
"W. c #BB40AB996D3E",
"Q. c #CC45BFE147F4",
"!. c #D53AC0CD40AB",
"~. c #D8FBC47E4169",
"^. c #DBC7CC3E4610",
"/. c #D7E9C6C54DC9",
"(. c #E008D1FF4C5E",
"). c #E11DCE984551",
"_. c #E2BDD4434A53",
"`. c #E390DFDD5248",
"'. c #E5D1E522556E",
"]. c #D374CDBE623D",
"[. c #E44EE73F6439",
"{. c #E341E732689D",
"}. c #7E478FA98E0D",
"|. c #7C9C978E9589",
" X c #8111995B98D8",
".X c #9671AD14AF4A",
"XX c #AB49BA79BA21",
"oX c #AE10CAC1CCBB",
"OX c None",
/* pixels */
"OXOXOXOXOXOX}.S S D F J G OX",
"OXOXOXOXOXOXXXF V OXOXOXOXOX",
"OXOXOXOXOXOXXXZ 8 OXOXOXOXOX",
"OXOXOXOXOXoX|.B % * OXOXOXOX",
"OXOXOXOXOXoX XB % o OXOXOXOX",
"OXOXOXOXOX.XH 0 O X OXOXOXOX",
"OXOXOXOXOXC A 7 & q OXOXOXOX",
"OXOXOXOXOXZ A 6 6 D OXOXOXOX",
"OXOXOXOX9 4 3 , 3 4 5 OXOXOX",
"OXOXOXy d ^ ^ L ^ I a y OXOX",
"OXOXM l ..1.<.] O.>.( j M OX",
"OXOXk 0.I.J.k.=.t.f.<./ d OX",
"OXf _ !.[.U.N.y.p.N.l.,.l t ",
"OXc 7.(.{.U.V.u.x.B.v.l...I ",
"OXm q./.].H.c.+.1.g.h.v.s.{ ",
"OXN q.*.%.p w 2 , > , k j.a.",
"OX) 8.! K e 1 - +     a j.;.",
"OXn q.! T u < - @ +   s j.' ",
"OXv 5.! E u 1 = + + . d j.' ",
"OXv 5.Q E i 1 @ @ @ . d j.| ",
"OXv 5.W Y w : $ + @ . d d.$.",
"OXj 3.W R r 2 : ; $ # h s.~ ",
"OXx 5.Q./.Z.r.1.<.` { 6.w.[ ",
"OXv 5.^.'.L.M.M.z.-.-.k.w.] ",
"OXb 5.(.'.F.z.p.z.e.X.u.<.] ",
"OXb 4.^.`.D.i.z.i.t.} u.+.[ ",
"OXj 3.~._.b.u.i.u.t.} -.O.U ",
"OXj 2.K.).b.t.u.u.t.o.o. .U ",
"OXk 3.G.P.n.p.i.i.t.+.o.+.@.",
"OXb 8.S.C.C.B.B.N.N.u.} o.&.",
"OXz #.A.m.9.>.>.>.2.6.P g OX",
"OXOXOXT.W.E.:.R.R.E.Y.OXOXOX"
};
