/* XPM */
static char *maelstrom[] = {
/* columns rows colors chars-per-pixel */
"32 32 51 1 ",
"  c #0114010D010D",
". c #0B3B0B310B31",
"X c #12320F240F24",
"o c #0C2411BA11BA",
"O c #13F013E813E8",
"+ c #14DF1C031C03",
"@ c #1C6E1C661C66",
"# c #1FBF1DEF1DEF",
"$ c #15CC1FC31FC3",
"% c #1B8622112211",
"& c #210021092109",
"* c #289126E826E8",
"= c #242F2A282A28",
"- c #29B529BD29BD",
"; c #307A2F612F61",
": c #2CC833EE33EE",
"> c #334E333B333B",
", c #355A3B193B19",
"< c #3B943BAC3BAC",
"1 c #3E0740554055",
"2 c #3EF948164816",
"3 c #343A53005300",
"4 c #3AA1569F569F",
"5 c #3BAD5B465B46",
"6 c #43EA43D843D8",
"7 c #452C4A7B4A7B",
"8 c #4B2E4BB74BB7",
"9 c #50984F534F53",
"0 c #4D0D52CB52CB",
"q c #540B54835483",
"w c #539E59F259F2",
"e c #5A535A255A25",
"r c #5FED5F485F48",
"t c #43F264566456",
"y c #5EFD60226022",
"u c #644F643B643B",
"i c #67AC6BD06BD0",
"p c #6B3D6BFD6BFD",
"a c #691F702E702E",
"s c #748474767476",
"d c #76787A817A81",
"f c #7BBB7B927B92",
"g c #849D84108410",
"h c #8DE98DE58DE5",
"j c #8D1E933C933C",
"k c #975397539753",
"l c #9C379C769C76",
"z c #A362A1F7A1F7",
"x c #B999B7DEB7DE",
"c c #BBEABBF2BBF2",
"v c #C210C219C219",
/* pixels */
" &-----------------*-----*----& ",
"@kkhhhhhhhhhhhhhhhhhhjhhhhhhhkk&",
"-k<@&@&&@&&&&@&&&#%#&&##&#&@@<k-",
"-h@             .            @h-",
"-h@          ...@@O.%>#.     &h-",
"-h&        .%<,*-8<=1<*;.    @h-",
"-h&    OO%,6uq4,<88-1<-8<O.  &h-",
"-h#   O>,30qe87*@75=<9986<<O &h-",
"-h&  .>6:-<>60e-O<,*qdp01>6@ &h-",
"-h@  @<61<*O*30u@.O*ue:50<6>.@h-",
"-h& O*-<6<o.o+*q%.O@6>O7q-->.&h-",
"-h& >8--<@O-O .O@.@O**.>i<O%.@h-",
"-h& *806;.*O@,8605wieuqep@+5=#h-",
"-h@  %3<#OO#6tpfljlhpssd8-yp%#h-",
"-h&   o+@O>sdwqskhgaq88qeq6* &h-",
"-h&    .@<kczu09e866<6&6fpO  @h-",
"-h#    .,zvvcd07*@&@@-@1gg-  &h-",
"-h&  @.Oscvck,%,. .-qse>pguO &h-",
"-h# #6>6phlf: ...#6dgs6=td0. %h-",
"-h% *efd<<-@  .@6qsse<O@id*  &h-",
"-h@ &esp>O  . &uggp*@@ *p6   &h-",
"-h% .OO-- . .*phhp-..O+40O   #h-",
"-h#   @8q@ OOqlks;@@-88d8.   &h-",
"-h#   @<<>O%>shd8&#6pssp<.   @h-",
"-h&    *<8ytae6*&>*6fgq<#    &h-",
"-h@    @<8uwee8O.@*elp<8@    @h-",
"-h#    o@OO*6sh>o *df-@&     @h-",
"-h&         &ef1@X&6*.       &h-",
"-h@         .>>O   .         @h-",
"-k<@@&&@&@@&@@@@@&&@&@@&&@&&@<k-",
"&kkhhhhhhhhhhhhhhhhhhhhhhhhhhkk@",
" @----------------------------& "
};
