/* XPM */
static char *mupen64plus_large[] = {
/* columns rows colors chars-per-pixel */
"32 32 240 2 ",
"   c #2CB62E8B2E8B",
".  c #310032BC32BD",
"X  c #377039173917",
"o  c #3CC03CFC3CFC",
"O  c #7E9913941345",
"+  c #781324AA23CD",
"@  c #321C7E861D6D",
"#  c #3F05417B417B",
"$  c #4631474D46EB",
"%  c #4A3C4C124BFB",
"&  c #518C44C54570",
"*  c #55774A004A00",
"=  c #5B6C4CB34D8A",
"-  c #53A5544653DF",
";  c #5F0D513F513F",
":  c #54885C16517B",
">  c #5CB55CC15C98",
",  c #6063498E4B6A",
"<  c #658651B451B5",
"1  c #6BAB56595657",
"2  c #640C57DA57DA",
"3  c #6F08590C590C",
"4  c #72CE54E854E8",
"5  c #724D59935993",
"6  c #5EDB60F960E2",
"7  c #620B61F761F5",
"8  c #6C536BF16BF2",
"9  c #754A66FA66AA",
"0  c #7C0965906559",
"q  c #71027DDE6AEB",
"w  c #74BE7497748C",
"e  c #77C379847988",
"r  c #7AC27B437B37",
"t  c #93EB00000000",
"y  c #9B3200000000",
"u  c #9CE119111911",
"i  c #A48700000000",
"p  c #AD7700AA00AA",
"a  c #ADEE08F808F8",
"s  c #B57701540154",
"d  c #BCE800360036",
"f  c #B74F0BBC0BBC",
"g  c #AE5A19911991",
"h  c #B56E1EB11EB1",
"j  c #BC051A271A83",
"k  c #9D4F20202020",
"l  c #994C28A32AA7",
"z  c #A404203F203F",
"x  c #AC9D21172117",
"c  c #AB822D782EE4",
"v  c #B406213C213C",
"b  c #BA601FDF1FDF",
"n  c #BF1D37113711",
"m  c #B6A93B6A3B6A",
"M  c #C47E01610161",
"N  c #CBA501C601C6",
"B  c #CC5E07ED07ED",
"V  c #D36C01C701C7",
"C  c #DC15011D011D",
"Z  c #D46008D308D3",
"A  c #CEA411CB11CB",
"S  c #CFBA19E719E7",
"D  c #DE961C091C09",
"F  c #E4C000FF00FF",
"G  c #EC9500EF00EF",
"H  c #E0630F210F21",
"J  c #F40A005E005E",
"K  c #FCB800EE00EE",
"L  c #FF270DD10DD1",
"P  c #E4771C131C13",
"I  c #EB431C131C13",
"U  c #F4911C131C13",
"Y  c #FD9C1C121C12",
"T  c #C15326062607",
"R  c #CD5525DA25DB",
"E  c #C75429972999",
"W  c #CEAA29AB29AB",
"Q  c #D2D3272A2728",
"!  c #DCC020912091",
"~  c #D3282A0B2A0B",
"^  c #DBCD2AA92AA9",
"/  c #CF64375B375B",
"(  c #D35032453245",
")  c #DCE333493349",
"_  c #D4EF37DA37A9",
"`  c #DED33D793D7A",
"'  c #ED0A23572357",
"]  c #E43627D927D9",
"[  c #ED1729BC29BC",
"{  c #F19D22742274",
"}  c #F5EB283D283D",
"|  c #E1243C033C03",
" . c #8667421C3B77",
".. c #8E1344C045BD",
"X. c #9C7A4E154E1C",
"o. c #97F757185718",
"O. c #991F532D532D",
"+. c #96CB5CAB5CAB",
"@. c #A4694EB74EB7",
"#. c #AB914E754E75",
"$. c #B9164D2B4F5D",
"%. c #A36255045504",
"&. c #ADBD51565156",
"*. c #BE0F52E352E3",
"=. c #BDF65E2A5E2B",
"-. c #8CCB702D57C3",
";. c #92C970855963",
":. c #9ABA6BE46BE4",
">. c #8F53795D795D",
",. c #9990751A751A",
"<. c #94F17C737C56",
"1. c #A237636D636F",
"2. c #A8CD648D648E",
"3. c #ABB26EF76EF7",
"4. c #BC286316630C",
"5. c #B12C6A5B6A5B",
"6. c #AC027B487B48",
"7. c #B5837B1A7B1A",
"8. c #C3B543424342",
"9. c #C8964103410B",
"0. c #C1184ACA4B34",
"q. c #D7D547384738",
"w. c #DBAB436C436C",
"e. c #D4B54AD14AD1",
"r. c #CE86563E563E",
"t. c #CBFC5C7C5C7C",
"y. c #D42755EF55EF",
"u. c #DC6554F154F1",
"i. c #D5725D555D55",
"p. c #F6EF495A4953",
"a. c #E5B7546D546D",
"s. c #EC14546D546D",
"d. c #E56C59865983",
"f. c #ECB95E175E17",
"g. c #F5F8546D546D",
"h. c #F88954065403",
"j. c #FC0F5D795D72",
"k. c #C08B6175611E",
"l. c #CB5B6371636D",
"z. c #C4616CF26CF2",
"x. c #DBFC68E468E5",
"c. c #CF1177A677A6",
"v. c #C3047950791E",
"b. c #DA6C72A072A0",
"n. c #DEB47F057F05",
"m. c #E85D64B864B8",
"M. c #E4EF6C4D6C4D",
"N. c #F0076D7E6D7E",
"B. c #E846768B765D",
"V. c #4944967C2AD0",
"C. c #516694E63B25",
"Z. c #5E85AD36370A",
"A. c #6924B8513D28",
"S. c #5449855D4B59",
"D. c #5D688C015310",
"F. c #686F93F25DF7",
"G. c #6EA39DB85E03",
"H. c #65AEAA7A4700",
"J. c #6ACDACF34C86",
"K. c #6F3ABB5444E2",
"L. c #7472BF724CA4",
"P. c #6D5BA432570E",
"I. c #6CD08B396864",
"U. c #7DC393646DA5",
"Y. c #77D688B571AE",
"T. c #7D4B8C487652",
"R. c #7C5EAA5A6931",
"E. c #742FC3D143BF",
"W. c #7DD8CED448AB",
"Q. c #809181476717",
"!. c #8C4A861F6A1F",
"~. c #82DC90F5728F",
"^. c #9A24988C734C",
"/. c #8592B88E6B9C",
"(. c #9A18A15E7773",
"). c #8115D0394D1A",
"_. c #870DDA684C6F",
"`. c #880BDA2A4E2F",
"'. c #923AE5FE5335",
"]. c #9BB5F1285795",
"[. c #A90FFFFF5E9B",
"{. c #957DC8F173F9",
"}. c #A397F3A8646C",
"|. c #AD5DFD3B6A8D",
" X c #AB90E2AF7EE5",
".X c #B247FFFF7215",
"XX c #B6CAFFFF7AD0",
"oX c #B910FFFF79E3",
"OX c #821282728272",
"+X c #8A33854B854D",
"@X c #86DC89648948",
"#X c #8C338C628C63",
"$X c #9D5587C6878B",
"%X c #924F93049306",
"&X c #9D149D639D59",
"*X c #A6EF814A814A",
"=X c #ADE686FA86FA",
"-X c #B52A85448544",
";X c #B6FA8E2C8E0C",
":X c #AB6C97B097B0",
">X c #B9629E3B9E3C",
",X c #A49EB78D8382",
"<X c #A628A550A552",
"1X c #AA3AA381A37C",
"2X c #ABEAACBEACA7",
"3X c #BE84AF73AF76",
"4X c #AF2CB19CB19C",
"5X c #B5ADB548B536",
"6X c #B95EB9D8B9D6",
"7X c #C899836D836D",
"8X c #D2AA80EA80EB",
"9X c #DD3487168716",
"0X c #DD9695059505",
"qX c #D21E9DF19DC2",
"wX c #DE849A469A0B",
"eX c #E2D88297828B",
"rX c #E76E956F956E",
"tX c #F6FD970696D7",
"yX c #CEE1A4A4A492",
"uX c #C352A860A845",
"iX c #DB8DA5C6A5AC",
"pX c #C91EB5BEB5BE",
"aX c #D340B41EB418",
"sX c #D8F3B604B5EB",
"dX c #A453D3298277",
"fX c #B1DDE5FE86EC",
"gX c #C513C507C4E5",
"hX c #CBF4C353C34C",
"jX c #CC6DCC62CC43",
"kX c #D969CE8ECE72",
"lX c #D538D536D517",
"zX c #DBD0DBE2DBC2",
"xX c #E90CC39EC386",
"cX c #E9E5D799D791",
"vX c #E672E5FEE5B9",
"bX c #EE1AE4BCE483",
"nX c #EDA1ED01ECC0",
"mX c #F31FF2B9F25F",
"MX c #FB07F767F704",
"NX c None",
/* pixels */
"NXNXNXNXNXNXNXNXNXNXNXNXNXNXNXNXNXNXNXNXNXNXNXNXNXNXNXNXNXNXNXNX",
"NXNXNXNXNXNXNXNXNXNXNXNXNXNXNX6 % NXNXNXNXNXNXNXNXNXNXNXNXNXNXNX",
"NXNXNXNXNXNXNXNXNXNXNXNXNX2 OXe r e % NXNXNXNXNXNXNXNXNXNXNXNXNX",
"NXNXNXNXNXNXNXNXNXNXNXNX2XgX&X%X%X2XjXw NXNXNXNXNXNXNXNXNXNXNXNX",
"NXNXNXNXNXNXNXNXNXNXNXe zXmXvXvXvXnXnX5XNXNXNXNXNXNXNXNXNXNXNXNX",
"NXNXNXNXNXNXNXNXNXNXNX&X6XjXvXMXmXzXgX5Xe NXNXNXNXNXNXNXNXNXNXNX",
"NXNXNXNXNX8 8 - NXNX8 #X%X2XgXiXsX5X&X@X@XNXNXNX7 w > NXNXNXNXNX",
"NXNXNXe %X>.e #X@X6 w > 8 #X7X=.t.1Xe 6 7 8 w #X>.e @X@X7 NXNXNX",
"NXNX9 qX3X2X2X6XzXvXr . % +Xm *.x 7.> X o gXvXgX4X2X4XyX;XNXNXNX",
"NXNX5 T / 0XbXmXvXlXsX, . 3.a *.g n 9 . *XkXzXnXmXxXx.S $.NXNXNX",
"NXNX5 b d B rXzX6X2X>Xl.,.n p l.v f 5.2.8X<X5XjXcX` M M #.NXNXNX",
"NXNX5 b d M ( pX&XOXr k.~ E 4.$X6.8.R _ <.e %X2X9XB M M #.NXNXNX",
"NXNX5 v s M B c.OX7 $ 0 eXuX%XOX@X<XwXv.% - 8 :X) N M d #.NXNXNX",
"NXNX3 v s d M ~ >.X . 1.p.B.aXgXhXwXg.d.;   - z.V N d s @.NXNXNX",
"NXNX5 g p d d B =.# +.' J J } tXj.L K K e.* 9 ^ N M d s @.NXNXNX",
"NXNX5 x i j i.M W 4.] F G J J h.Y K K J G e.t.V W y.s p @.NXNXNX",
"NXNX3 z p h rXR N V C F G J J g.Y K J G F C Z N M.x.s p X.NXNXNX",
"NXNX3 z i h M.u.M N V C F G J h.Y K J G F C V Q m.y.p i X.NXNXNX",
"NXNX3 z y v u.w.W N V ` f.G J g.Y J { N.H V N u.| y.p i X.NXNXNX",
"NXNX3 k t g u.A y.W w.yXb.F G g.Y J [ yXn.! q.9.j $.t y X.NXNXNX",
"NXNX3 k t x u.M j v.<.% &.F G g.Y G [ 5 8 =X0. .^.(.Q.O X.NXNXNX",
"NXNX3 k t z y.d s o.NXNX#.F F g.U G ] 4 NX= c ;.oX|.fX+ X.NXNXNX",
"NXNX3 k t k r.s s o.NXNX#.C C g.U F ^ 5 NX& l -..X[. X+ ..NXNXNX",
"NXNX= O.u z r.f m 0 NXNX#.C C s.I F ^ , : ~.!.,X|.]. X!.Q.q NXNX",
"NXNXNX$ 4 1.7X+.2 NXNXNX@.V C s.I C ^ , U.XX|.}.'._.).).L./.NXNX",
"NXNXNXNXNXo - NXNXNXNXNX@.V V s.P C Q , U.}.'.`.W.E.A.Z.V.P.NXNX",
"NXNXNXNXNXNXNXNXNXNXNXNX@.B V s.P V Q = q dX{.{.K.Z.J.R.R.~.NXNX",
"NXNXNXNXNXNXNXNXNXNXNXNX%.B N a.D V ( 1 NXNXNXT.H.V.G.> NXNXNXNX",
"NXNXNXNXNXNXNXNXNXNXNXNX< &.R d.^ 9.+.NXNXNXNXY.C.@ D.$ NXNXNXNX",
"NXNXNXNXNXNXNXNXNXNXNXNXNXNX4 -X:.* NXNXNXNXNXq F.S.I.NXNXNXNXNX",
"NXNXNXNXNXNXNXNXNXNXNXNXNXNXNXNXNXNXNXNXNXNXNXNX: NXNXNXNXNXNXNX",
"NXNXNXNXNXNXNXNXNXNXNXNXNXNXNXNXNXNXNXNXNXNXNXNXNXNXNXNXNXNXNXNX"
};
