/* XPM */
static char *neverputt[] = {
/* columns rows colors chars-per-pixel */
"32 32 149 2 ",
"   c #068703C403C4",
".  c #088906460646",
"X  c #0CE20C620C62",
"o  c #12120E0E0E0E",
"O  c #139F13421342",
"+  c #1C7C1C2C1C2C",
"@  c #2CAD03030303",
"#  c #33F402C30283",
"$  c #3B3B04AF04AF",
"%  c #23F423F423F4",
"&  c #2C932C5F2C5F",
"*  c #383820202020",
"=  c #323232322E2E",
"-  c #3411341133B4",
";  c #393937373737",
":  c #3B7B3A3A35B6",
">  c #3B943B943B4D",
",  c #444407070707",
"<  c #49F40A600A60",
"1  c #51510E0E0E0E",
"2  c #464610101010",
"3  c #484817171616",
"4  c #555510101010",
"5  c #595912BD12BD",
"6  c #55551D1D1D1D",
"7  c #636317171717",
"8  c #63631A9A1A9A",
"9  c #6B6B1C1C1C1C",
"0  c #49492E2E2B2B",
"q  c #676723232323",
"w  c #65652A2A2929",
"e  c #78DF22892289",
"r  c #76762F2F2F2F",
"t  c #61613D3D3939",
"y  c #72723E3E3E3E",
"u  c #41E242023D9D",
"i  c #43FC43E84315",
"p  c #4747484842C3",
"a  c #497C4A7D4512",
"s  c #4C134C214B84",
"d  c #575741414141",
"f  c #5D5D45454141",
"g  c #565649494646",
"h  c #51A752274DCE",
"j  c #53DA53F25353",
"k  c #595959595656",
"l  c #5C4A5C375BC0",
"z  c #64E5434341C2",
"x  c #757540404040",
"c  c #777757575757",
"v  c #5F5F60605C5C",
"b  c #606060605D5D",
"n  c #63E464146383",
"m  c #6C6C64646464",
"M  c #69696A6A6767",
"N  c #6C7E6C7E6C50",
"B  c #717171716F6F",
"V  c #743C74317431",
"C  c #7BAB7B8B7B8B",
"Z  c #858528282828",
"A  c #8B8B2CAD2C2C",
"S  c #86863D3D3D3D",
"D  c #8F8F3E3E3C3C",
"F  c #974131873187",
"G  c #991930B130B1",
"H  c #A2A235353535",
"J  c #AD2D39BA39BA",
"K  c #B3333A7A3A7A",
"L  c #FCFC0E0E0E0E",
"P  c #FD7D13131313",
"I  c #FDBD1ADB1ADB",
"U  c #FDCA24F224F2",
"Y  c #FDCA2B5E2B5E",
"T  c #EFEF3F3F3F3F",
"R  c #FD6333003300",
"E  c #F6763BBC3BBC",
"W  c #FB7B3ABB3ABB",
"Q  c #8B8B49494949",
"!  c #931342424242",
"~  c #848452D35151",
"^  c #919159595959",
"/  c #A5A542424242",
"(  c #B5B548484848",
")  c #AAAA6B6B6A6A",
"_  c #AEAE73737373",
"`  c #B3B37B7B7B7B",
"'  c #C6C640404040",
"]  c #CB2040EB40EB",
"[  c #D5D542424242",
"{  c #DCA942DC42DC",
"}  c #C9C956565656",
"|  c #EC2B40C140C1",
" . c #E9E94B4B4B4B",
".. c #F7F740404040",
"X. c #FD7D44C544C5",
"o. c #F5F54E4E4E4E",
"O. c #FDA74BF64BF6",
"+. c #E4E456565656",
"@. c #F0F05C5C5C5C",
"#. c #FCBC5E5E5E5E",
"$. c #CECE79797979",
"%. c #ECEC6D6D6D6D",
"&. c #FDFD60606060",
"*. c #EAEA7A7A7A7A",
"=. c #FC2672F372F3",
"-. c #F2F27D7D7D7D",
";. c #844984498449",
":. c gray55",
">. c #944594379437",
",. c #9BCC9BC09BC0",
"<. c #B7B786868686",
"1. c #A4A496969696",
"2. c #B2B291919191",
"3. c #B8B890909090",
"4. c #BBBB9C9C9C9C",
"5. c #A2A2A2A2A2A2",
"6. c #ABEBAB2BAAEA",
"7. c #B319B2E5B2E5",
"8. c #BD67BD67BD67",
"9. c #C7C785858585",
"0. c #C7C78E8E8E8E",
"q. c #C4C49D9D9D9D",
"w. c #D1D195959595",
"e. c #F47385858585",
"r. c #F4F48E8E8E8E",
"t. c #E4E490909090",
"y. c #ECEC9F9F9F9F",
"u. c #F5F592929292",
"i. c #CDCDA5A5A5A5",
"p. c #DFDFA0A0A0A0",
"a. c #D8D8A8A8A8A8",
"s. c #DBDBB5B5B5B5",
"d. c #D4D4B9B9B9B9",
"f. c #DDDDBEBEBEBE",
"g. c #F0F0AAAAAAAA",
"h. c #E8E8B3B3B3B3",
"j. c #E5E5BFBFBFBF",
"k. c #F2F2B1B1B1B1",
"l. c #C419C419C419",
"z. c #CC8CCC8CCC8C",
"x. c #DA9ADA9ADA9A",
"c. c #E5E5C2C2C2C2",
"v. c #EFEFC3C3C3C3",
"b. c #E0E0CBCBCBCB",
"n. c #F2F2CDCDCDCD",
"m. c #ED6DD656D656",
"M. c #EAEAEAEAEAEA",
"N. c #F6F6E7E7E7E7",
"B. c None",
/* pixels */
"B.B.B.B.B.h B l = B.B.B.B.B.B.B.B.B.B.B.B.B.B.B.B.B.B.B.B.B.B.B.",
"B.B.B.B.B.i M n : B.B.B.B.B.B.B.B.B.B.B.B.B.B.B.B.B.B.B.B.B.B.B.",
"B.B.B.B.B.: b M p B.B.B.B.B.B.B.B.B.B.B.B.B.B.B.B.B.B.B.B.B.B.B.",
"B.B.B.B.B.- h M h B.B.B.B.B.B.B.B.B.B.B.B.B.B.B.B.B.B.B.B.B.B.B.",
"B.B.B.B.B.B.a n k - B.B.B.B.# # .   B.B.B.B.B.B.B.B.B.B.B.B.B.B.",
"B.B.B.B.B.B.: l v u @ $ < 1 5 8 + O O X .   B.B.B.B.B.B.B.B.B.B.",
"B.B.B.B.B.B.: h v u 3 q ^ 3.d.b.z.8.>.v % O X B.B.B.B.B.B.B.B.B.",
"B.B.B.B.B.B.B.u v s z <.i.f.m.N.M.x.l.6.:.s + X . B.B.B.B.B.B.B.",
"B.B.B.B.B.B.# : k h g 0.a.j.m.N.M.x.l.6.>.C s + O   B.B.B.B.B.B.",
"B.B.B.B.B.@ < 0 s j u 9.p.h.v.n.z.l.7.5.:.V l & + O   B.B.B.B.B.",
"B.B.B.B.B., 7 w u h u ) t.y.g.k.7.6.5.>.;.N j ; & + X B.B.B.B.B.",
"B.B.B.B.# 5 e A u h a ~ *.e.r.u.>.>.:.C N l s > = % + . B.B.B.B.",
"B.B.B.B.< 9 A H t a a f -.e.=.=.N N N n j s i > ; & + O B.B.B.B.",
"B.B.B.# 5 e F J D u a u s.c.` Q ( ( / ! x d i u > - & O . B.B.B.",
"B.B.B., 8 Z F S y u p u 6.x.;.% U U Y R E | [ / y : & + X B.B.B.",
"B.B.B.< 6 0 : u p u p p B 5.s + I I U Y R E | { ' J r * X B.B.B.",
"B.B.B.o % & > > i i i l s - O o L P I U R W T { ] K G e 2 B.B.B.",
"B.B.B.X % & > i i i N ,.V % + O P I U Y R W | { ] K G e 1 B.B.B.",
"B.B.B.O % & > > i > N ,.:.i - & Y Y R W ....| { ] K G e 4 B.B.B.",
"B.B.B.X % & > > i i N ,.5.V i i X.X.O.O.O.o. .{ ] J ! ~ c m B.B.",
"B.B.B.o + & ; i s j V ,.5.,.N l #.#.&.&.#.@.+.} _ 1.5.5.>.:.:.B.",
"B.B.z.x.7.s - i j l V 5.5.5.,.C =.=.=.=.%.$.2.6.5.;.N j i ; & B.",
"B.z.8.5.,.7.V i j n ;.5.5.,.,.,.q.w.w.4.6.6.>.;.V B n l s u & + ",
"l.,.l V C C >.;.l n 5.5.,.,.>.:.:.,.,.>.:.;.;.C C N n l s u = + ",
"7.> s k n V C :.5.5.7.,.,.>.>.>.>.:.:.:.:.:.;.C V N n j s > & + ",
"B & i s l N V ;.;.>.,.,.,.>.,.>.>.>.>.:.:.;.;.C V N l j s ; & O ",
"B.& - i j n V C ;.:.:.>.>.,.,.,.>.>.>.>.:.;.;.C V N l s > & + O ",
"B.& % - s j n N C ;.;.:.:.:.>.:.>.>.:.:.;.;.C V M l j s > % O B.",
"B.B.B.& - i j l n V V C ;.;.;.:.;.:.;.C C V N n l j i ; & + B.B.",
"B.B.B.B.& & ; s j l n N N V V V V V V N N n l j s > - & + B.B.B.",
"B.B.B.B.B.B.B.- > i s s j l l l l l l j s s i > & % % B.B.B.B.B.",
"B.B.B.B.B.B.B.B.B.B.& - ; > > > > > > ; - & & % B.B.B.B.B.B.B.B."
};
