/* XPM */
static char *nip2[] = {
/* columns rows colors chars-per-pixel */
"32 32 57 1 ",
"  c #2F2F4B4B3838",
". c #4D4D60603D3D",
"X c #242415154D4D",
"o c #1E1E2D2D4D4D",
"O c #303025255050",
"+ c #252535355151",
"@ c #2B2B43434646",
"# c #3B3B54544040",
"$ c #3D3D59594646",
"% c #45455D5D4A4A",
"& c #727270704B4B",
"* c #646466665656",
"= c #727279795151",
"- c #747481815454",
"; c #9F9F9C9C6060",
": c #9E9E99996969",
"> c #86868C8C7373",
", c #979794947676",
"< c #969697977676",
"1 c #ACACA9A98585",
"2 c #AFAFA4A48989",
"3 c #B4B4AFAF8989",
"4 c #BCBCBABA8181",
"5 c #B8B8B4B49292",
"6 c #C1C1B7B79797",
"7 c #C2C2BEBE9595",
"8 c #C3C3BCBCA5A5",
"9 c #C4C4C0C0A0A0",
"0 c #CFCFC9C9A7A7",
"q c #D5D5CECEAFAF",
"w c #CBCBC4C4B0B0",
"e c #CECEC7C7B1B1",
"r c #CFCFCCCCB9B9",
"t c #D6D6D2D2B9B9",
"y c #DBDBD7D7C6C6",
"u c #DCDCD5D5C9C9",
"i c #DFDFD6D6CDCD",
"p c #E0E0DADACCCC",
"a c #E3E3DEDED8D8",
"s c #E7E7E1E1DDDD",
"d c #EDEDE9E9DEDE",
"f c #E9E9E4E4E0E0",
"g c #EFEFEDEDE4E4",
"h c #F0F0EFEFE9E9",
"j c #F0F0EEEEEBEB",
"k c #F2F2F1F1EEEE",
"l c #F4F4F3F3EDED",
"z c #F6F6F5F5F3F3",
"x c #F7F7F6F6F4F4",
"c c #F8F8F6F6F3F3",
"v c #F8F8F8F8F5F5",
"b c #FAFAFAFAF9F9",
"n c #FBFBFBFBF9F9",
"m c #FCFCFCFCFAFA",
"M c #FCFCFCFCFBFB",
"N c #FEFEFEFEFCFC",
"B c gray100",
/* pixels */
"BBBBBBBBBBBBBBBBBBBBBBBBBBBBBBBB",
"BBBBBBBBBBBBBBBBBBBBBBBBBBBBBBBB",
"BBBBBBBBBBBBBBBBBBBBBBBBBBBBBBBB",
"BBBBBBBBBBBBBBBBBBBBBBBBBBBBBBBB",
"BBBBBBBBBBBBBBBBBBBBBBBBBBBBBBBB",
"BBBBBBBBBBBBBBBBBBBBBBBBBBBBBBBB",
"BBBBBBBBBBBBBBBBBBBBBBBBBBBBBBBB",
"BBBBBBBBBBBBBmBBmBBmBBBBBBBmBBmB",
"mBmBBBBBmmBBBBBBBBBBBBBBmmmBmBBB",
"mg00cBml6egxdfmxdtwpcBBMu1;5smBB",
"cq&-smvy**y:=0l4=$+.:vMd;  %6kmB",
"xq&$qvx8+=y;.3a> %*@=tj7@%:1egBB",
"xy;$7xk<o<w; 1r>.<2<.4s4 -5wikBB",
"na: ;ss-$4r; 1r; 5w3.4p4..5akvBB",
"mg8%&yr%&wi<@3r;@7r;$5ae;@*0vmBB",
"Blr*.92o>ri>o1r>o**@>efu6>+%9vmB",
"Bxp<@>*O2sa, 2r>XO*<6ixju5>O=snB",
"BBa5#oX+8ss<o2r>X>28ujnnju5*OwxB",
"Bnhw&XX*rjs<o2r>O2esjnBniaw%OwxB",
"BBcu>Xo>pxs,o2r>@8scnBx7*>>o*rxB",
"BBva:*$4snf4 5t;.qhBBBk7&  O<uxB",
"BBBg0:;qgnf740u7:tkBBBhr4>>,8avB",
"BBBxi88ixBjiwuartpcBBBcsw558pkBB",
"BBBvgssjnMnjsgkggknBBmBxfipshnBB",
"BmBBBxvBBBBmvBmnnnBmBBBmnvcnBBBB",
"BBBBBBBBBBBBBBBBBBBBBBBBBBBBBBBB",
"BBBBBBBBBBBBBBBBBBBBBBBBBBBBBBBB",
"BBBBBBBBBBBBBBBBBBBBBBBBBBBBBBBB",
"BBBBBBBBBBBBBBBBBBBBBBBBBBBBBBBB",
"BBBBBBBBBBBBBBBBBBBBBBBBBBBBBBBB",
"BBBBBBBBBBBBBBBBBBBBBBBBBBBBBBBB",
"BBBBBBBBBBBBBBBBBBBBBBBBBBBBBBBB"
};
