/* XPM */
static char *open_invaders[] = {
/* columns rows colors chars-per-pixel */
"32 32 6 1 ",
"  c black",
". c #1A1A1B1B4747",
"X c red",
"o c #686868686868",
"O c #E8E883838383",
"+ c gray100",
/* pixels */
"                                ",
"                                ",
"      +                         ",
"                    +           ",
"                                ",
"                                ",
"                                ",
"             +                  ",
"       +                   +    ",
"                                ",
"                                ",
"              ++                ",
"             +oo+               ",
" +          +oooo+              ",
"           +oooooo+             ",
"           +oo..oo+             ",
"          +oo....oo+    +       ",
"          +o......o+            ",
"          +o......o+            ",
"          +o......o+            ",
"    +     +o......o+            ",
"          +oooooooo+            ",
"          +ooooooooo+        +  ",
"        ++ooooooooooo++         ",
"     O++ooooooooooooooo++ O     ",
"    OXOooooooooooooooooooOXO    ",
"  ++oOooooooooooooooooooooO++   ",
" +ooooooooooooooooooooooooooo++ ",
" +oooooooooooooooooooooooooooo+ ",
" +oooooooooooooooooooooooooooo+ ",
" ++++++++++++++++++++++++++++++ ",
"                                "
};
