/* XPM */
static char *openofficeorg3_calc[] = {
/* columns rows colors chars-per-pixel */
"32 32 245 2 ",
"   c #00000C0C1C1C",
".  c #050511111919",
"X  c #1E1E25250000",
"o  c #121223231D1D",
"O  c #1A1A2A2A1E1E",
"+  c #202026260101",
"@  c #232329290101",
"#  c #292930300101",
"$  c #00000E0E2121",
"%  c #000011112323",
"&  c #000016162B2B",
"*  c #000018182E2E",
"=  c #0C0C1C1C2D2D",
"-  c #0C0C1E1E3232",
";  c #121220202E2E",
":  c #0D0D21213636",
">  c #0E0E24243C3C",
",  c #131323233535",
"<  c #181823233030",
"1  c #161628283939",
"2  c #161628283C3C",
"3  c #262636362626",
"4  c #3B3B43430101",
"5  c #3C3C45450909",
"6  c #2D2D41411717",
"7  c #353548482B2B",
"8  c #44444D4D0909",
"9  c #454555550707",
"0  c #494953530B0B",
"q  c #53535E5E0909",
"w  c #414157571313",
"e  c #464661610505",
"r  c #555568680808",
"t  c #53536C6C0D0D",
"y  c #565672720202",
"u  c #595976760202",
"i  c #5D5D7E7E0000",
"p  c #595967671414",
"a  c #54546E6E1717",
"s  c #5C5C6A6A1414",
"d  c #62627E7E0404",
"f  c #61616D6D1313",
"g  c #696975751515",
"h  c #6C6C79791717",
"j  c #656576761B1B",
"k  c #70707C7C1717",
"l  c #434356562727",
"z  c #4E4E63632828",
"x  c #575770702222",
"c  c #5B5B75752424",
"v  c #5B5B74742E2E",
"b  c #55556A6A3737",
"n  c #56566E6E3535",
"m  c #5C5C73733434",
"M  c #5D5D75753B3B",
"N  c #63637D7D2727",
"B  c #62627A7A3232",
"V  c #63637B7B3939",
"C  c #68687E7E3B3B",
"Z  c #12122A2A4343",
"A  c #13132E2E4A4A",
"S  c #1A1A31314646",
"D  c #141430304C4C",
"F  c #1B1B34344D4D",
"G  c #191936365252",
"H  c #1E1E3A3A5454",
"J  c #1D1D3B3B5858",
"K  c #212135354949",
"L  c #22223C3C5656",
"P  c #2D2D3E3E5050",
"I  c #23233E3E5A5A",
"U  c #222241415F5F",
"Y  c #2C2C44445C5C",
"T  c #313145455959",
"R  c #272748486666",
"E  c #2F2F49496363",
"W  c #2D2D4E4E6D6D",
"Q  c #35354B4B6060",
"!  c #2F2F50506D6D",
"~  c #323256567575",
"^  c #38385B5B7575",
"/  c #363659597979",
"(  c #38385D5D7D7D",
")  c #5C5C72724343",
"_  c #63637A7A4141",
"`  c #66667C7C4949",
"'  c #40405E5E7575",
"]  c #5A5A66667070",
"[  c #5F5F80800000",
"{  c #626283830202",
"}  c #6A6A87870000",
"|  c #6D6D8B8B0202",
" . c #676786860A0A",
".. c #66668A8A0A0A",
"X. c #6B6B8D8D0B0B",
"o. c #757594940101",
"O. c #787896960000",
"+. c #7A7A9A9A0101",
"@. c #787894940C0C",
"#. c #676782821717",
"$. c #767682821818",
"%. c #7D7D9A9A1111",
"&. c #7C7C94941A1A",
"*. c #6C6C84842A2A",
"=. c #6E6E88882A2A",
"-. c #74748D8D2C2C",
";. c #7D7D96962424",
":. c #7C7C93932E2E",
">. c #6D6D86863535",
",. c #707089893636",
"<. c #6B6B81814545",
"1. c #6E6E83834848",
"2. c #77778E8E4141",
"3. c #747489894A4A",
"4. c #78788E8E4A4A",
"5. c #7C7C93934646",
"6. c #727282825353",
"7. c #7B7B8F8F5858",
"8. c #7C7C90905D5D",
"9. c #80809F9F0000",
"0. c #8484A4A40000",
"q. c #8888A7A70000",
"w. c #8C8CABAB0101",
"e. c #8787A7A70C0C",
"r. c #8E8EABAB0B0B",
"t. c #9090AFAF0101",
"y. c #9393B2B20202",
"u. c #9595B3B30B0B",
"i. c #9E9EBBBB0A0A",
"p. c #8B8BA6A61313",
"a. c #8A8AA4A41C1C",
"s. c #9090B1B11212",
"d. c #9B9BB7B71515",
"f. c #9D9DBABA1818",
"g. c #9E9EBFBF1A1A",
"h. c #A0A0BDBD0A0A",
"j. c #A1A1BDBD1515",
"k. c #858592922A2A",
"l. c #888897972929",
"z. c #898996963030",
"x. c #83839A9A3C3C",
"c. c #91919E9E3939",
"v. c #8B8BA2A22727",
"b. c #9393A8A82626",
"n. c #9797B8B82222",
"m. c #9A9ABCBC2323",
"M. c #8C8CA4A43333",
"N. c #A4A4BEBE2020",
"B. c #A6A6BEBE2D2D",
"V. c #A0A0B7B73737",
"C. c #A6A6C2C21515",
"Z. c #A6A6C5C51A1A",
"A. c #B0B0CFCF1C1C",
"S. c #A1A1C2C22424",
"D. c #AAAAC4C42121",
"F. c #A8A8C9C92424",
"G. c #AEAEC6C62F2F",
"H. c #B1B1D1D12525",
"J. c #B8B8D7D72626",
"K. c #B9B9D8D82626",
"L. c #B2B2D3D32F2F",
"P. c #ACACC4C43B3B",
"I. c #B3B3CACA3D3D",
"U. c #B5B5D6D63030",
"Y. c #BCBCDBDB3131",
"T. c #C4C4E4E43232",
"R. c #CACAE8E83333",
"E. c #CBCBEAEA3C3C",
"W. c #D4D4F3F33E3E",
"Q. c #D9D9F7F73E3E",
"!. c #85859A9A5757",
"~. c #8C8CA2A24848",
"^. c #9F9FADAD4949",
"/. c #9191A3A35F5F",
"(. c #9C9CB0B05A5A",
"). c #A2A2B7B75050",
"_. c #A7A7BABA5353",
"`. c #868697976262",
"'. c #9696AAAA6767",
"]. c #8E8EA1A17474",
"[. c #9A9AABAB7272",
"{. c #9F9FB0B07474",
"}. c #A8A8BABA6767",
"|. c #A3A3B6B66C6C",
" X c #A7A7B7B77777",
".X c #ABABBCBC7C7C",
"XX c #AFAFC5C54A4A",
"oX c #B9B9CECE4E4E",
"OX c #B8B8CBCB5858",
"+X c #BEBED2D25B5B",
"@X c #B4B4C7C76464",
"#X c #BEBECFCF6868",
"$X c #BDBDCECE7272",
"%X c #BFBFD0D07272",
"&X c #C0C0D3D35D5D",
"*X c #C5C5D6D66B6B",
"=X c #C1C1D2D27272",
"-X c #C5C5D5D57A7A",
";X c #C7C7D8D87979",
":X c #CCCCDCDC7E7E",
">X c #3D3D63638484",
",X c #414165658080",
"<X c #414168688787",
"1X c #565673738C8C",
"2X c #6D6D80809292",
"3X c #78788D8D9E9E",
"4X c #7D7D9292A4A4",
"5X c #97979F9F9797",
"6X c #9898A6A68787",
"7X c #9D9DAAAA8B8B",
"8X c #A7A7B4B48787",
"9X c #A8A8B6B68888",
"0X c #B1B1BFBF8E8E",
"qX c #A0A0ADAD9393",
"wX c #ADADB8B89898",
"eX c #B3B3BFBF9A9A",
"rX c #93939C9CA4A4",
"tX c #90909D9DA8A8",
"yX c #AFAFB9B9A2A2",
"uX c #ADADB3B3B8B8",
"iX c #B3B3C0C09393",
"pX c #BBBBC5C5A6A6",
"aX c #CECEDDDD8383",
"sX c #D0D0DEDE8787",
"dX c #CECEE0E08181",
"fX c #D1D1E2E28181",
"gX c #D3D3E1E18C8C",
"hX c #DADAE7E79292",
"jX c #DDDDEAEA9595",
"kX c #C1C1CBCBADAD",
"lX c #CBCBD2D2BDBD",
"zX c #C4C4C8C8CDCD",
"xX c #D6D6DDDDC5C5",
"cX c #D5D5DCDCCACA",
"vX c #D8D8DEDECFCF",
"bX c #CCCCD0D0D4D4",
"nX c #D8D8DDDDD3D3",
"mX c #E0E0E5E5D9D9",
"MX c #E8E8EBEBE6E6",
"NX c #EFEFF1F1EBEB",
"BX c #F2F2F4F4EFEF",
"VX c #F3F3F4F4F3F3",
"CX c #F7F7F8F8F6F6",
"ZX c #FEFEFEFEFEFE",
"AX c None",
/* pixels */
"AX* * & * & & 3 h h h h g f s s p p s f g k $.$.$.$.$.$.$.$.AXAX",
"AX* ' 4X4X3XS 6.}.}.|.|.'.'.eXcXMXZXNXcX.X$X-X:X:X:X:X:Xz.AXAXAX",
"AX* 1X/ ~ W = /.9XiX[.5.[.NXZXNXwX`.C 2.~.).XX#X+X&X&X+Xk AXAXAX",
"AX& ,X^ ' tXMXZXZXZXZXCXZXZXyX) ) _ <.4.!.(.}.@X#X*X*X_.g AXAXAX",
"AX% ^ 3XBXzX5X7X].6XqXnXCX6Xn ) _ <.1.3.!.{..X_.@X*X*X^.f AXAXAX",
"AX% ! 2XY , 7 M M m M b ` m M V 3.9XvXZXZXVXxX.X).OX&Xc.AXAXAXAX",
"AX& U L H , l ,.>.>.B B v v B wXZXZXCXpX7.B >.x.^.XXoXz.AXAXAXAX",
"AX& U L F 1 z -.-.=.*.N c V mXZXZXwXm x N =.:.M.V.P.I.k.AXAXAXAX",
"AX& L F F 2 b  X0XkXkX8X`.mXZXVX8.a c $.;.l.b.B.B.G.G.k.AXAXAXAX",
"AX& S Z Q uXCXZXZXZXZXZXZXZXCX1.a #.&.a.n.f.m.N.D.D.D.l.AXAXAXAX",
"AX% S rXZXZXZXZXvXkXlXmXZXZX].t ..%.p.d.j.j.j.C.C.C.C.b.r AXAXAX",
"AX, bXVXuX] 3 e e e e 9 x !.y  .@.r.u.i.i.h.i.i.i.i.i.b.q AXAXAX",
"AXzXrX2 = 1 . y i i u u y u { | 0.q.w.y.t.t.t.t.t.y.y.j.q AXAXAX",
"AX< = : : > ; d O.O.o.| } } | O.0.0.0.q.q.q.q.q.q.q.t.y.f AXAXAX",
"AX  > > Z Z T w w.w.0.+.o.| o.O.+.O.O.O.O.O.+.9.9.9.0.w.k.0 AXAX",
"AX% Z Z Z D T O y.t.0.=X=X=X=X=X%X%X%X%X=X=X=X=X=X=X*X0.p.0 AXAX",
"AX% A A D A I - 0.w.+.%XgXgXgXgXgXgXgXgXgXgXgXgXgXgX%X+.s.q AXAX",
"AX% D D D A A P t w.+.%XgX{ [ [ [ [ %XgX[ [ [ [ [ sX%X+.w.#.AXAX",
"AX% D D D D A Y 6 q.+.%XgX[ [ [ i i %XgX[ [ [ [ [ dX$X+.q.&.4 AX",
"AX% D A D D A E o 0.+.%XgX[ [ i i i $XgXu i [ [ [ gX%Xo.q.p.4 AX",
"AX$ G D D D D I % 0.O.%XgX%X%X$X$X$XsXgX$X$X$X$X%XaX%XO.q.u.4 AX",
"AX$ G G G G G G - o.O.%XgXgXgXgXgXgXgXgXgXgXgXgXgXgX%X+.0.w.8 AX",
"AX$ J J J J J H , X.O.%XgX[ [ [ [ [ $XgXi [ [ [ [ aX=X+.q.y.0 AX",
"AX$ U U U U I R , X.+.-XhX{  .{ [ [ %XhX[ [  .[ { gX-X+.r.u.0 AX",
"AX$ R R R R R R , @.e.;XhXX.X.......-XhX......X.X.gX;Xe.s.h.9 AX",
"AX$ W W W W W W = p.p.:XjXjXjXjXjXjXjXjXjXjXjXjXjXjX:Xs.j.C.5 AX",
"AX$ ~ ~ ~ / / ~   Z.g.fXfXdXdXdXdXdXdXdXdXdXdXdXfXdXfXg.Z.A.# AX",
"AX  ( ( ( ( ( W O J.H.F.S.S.m.m.n.n.n.n.n.n.m.m.S.S.F.H.K.D.@ AX",
"AX  ( >X>X>X>XW l R.T.Y.Y.U.L.L.L.L.L.L.L.L.L.L.U.U.Y.T.R.v.+ AX",
"AX  L <X>X>X<XK :.Q.W.W.E.E.E.E.E.E.E.E.E.E.E.E.E.W.W.Q.Q.j AXAX",
"AX              X X X X X X X X X X X X X X X X X X X X + X AXAX",
"AXAXAXAXAXAXAXAXAXAXAXAXAXAXAXAXAXAXAXAXAXAXAXAXAXAXAXAXAXAXAXAX"
};
