/* XPM */
static char *openjdk_6[] = {
/* columns rows colors chars-per-pixel */
"32 32 85 1 ",
"  c #6D6D44440101",
". c #767649490000",
"X c #787852521515",
"o c #707071716D6D",
"O c #747476767272",
"+ c #7B7B7D7D7878",
"@ c #808050500000",
"# c #8A8A56560101",
"$ c #8C8C5B5B0B0B",
"% c #818159591616",
"& c #8C8C62621E1E",
"* c #939363631515",
"= c #989866661717",
"- c #969669691D1D",
"; c #98986B6B2222",
": c #9D9D73733131",
"> c #A1A173732929",
", c #A1A178783737",
"< c #A7A77E7E3C3C",
"1 c #9E9E7C7C4444",
"2 c #A4A480804444",
"3 c #A2A282824D4D",
"4 c #ACAC86864848",
"5 c #A4A486865656",
"6 c #AEAE8E8E5555",
"7 c #B5B594945F5F",
"8 c #818183837E7E",
"9 c #ABAB97976E6E",
"0 c #B4B49A9A6F6F",
"q c #BABA9A9A6969",
"w c #848486868181",
"e c #878789898484",
"r c #88888A8A8585",
"t c #8C8C8E8E8989",
"y c #8E8E90908B8B",
"u c #919193938E8E",
"i c #949496969191",
"p c #979799999595",
"a c #99999B9B9797",
"s c #9C9C9D9D9999",
"d c #9D9DA0A09B9B",
"f c #B9B9AAAA8C8C",
"g c #A1A1A3A39E9E",
"h c #A4A4A6A6A2A2",
"j c #A9A9ABABA7A7",
"k c #ACACADADA9A9",
"l c #AEAEB0B0ACAC",
"z c #B0B0B1B1AEAE",
"x c #B3B3B5B5B2B2",
"c c #B6B6B8B8B4B4",
"v c #B8B8BABAB6B6",
"b c #BDBDBEBEBCBC",
"n c #C5C5ABAB8282",
"m c #CDCDB1B18383",
"M c #C9C9B1B18989",
"N c #BFBFC0C0BDBD",
"B c #CFCFC0C0A3A3",
"V c #D5D5C4C4A7A7",
"C c #C1C1C3C3BEBE",
"Z c #D2D2C6C6B0B0",
"A c #D9D9CBCBB2B2",
"S c #C5C5C6C6C3C3",
"D c #C7C7C9C9C4C4",
"F c #C9C9CBCBC6C6",
"G c #CCCCCDCDCACA",
"H c #CFCFD0D0CCCC",
"J c #D0D0D1D1CECE",
"K c #D4D4D5D5D3D3",
"L c #D7D7D9D9D7D7",
"P c #D8D8D9D9D7D7",
"I c #DBDBDCDCDADA",
"U c #DFDFE1E1DDDD",
"Y c #E1E1E3E3DEDE",
"T c #E4E4E5E5E2E2",
"R c #E7E7E9E9E5E5",
"E c #E8E8EAEAE7E7",
"W c #ECECEDEDEBEB",
"Q c #F0F0ECECE3E3",
"! c #EFEFF0F0EEEE",
"~ c #F1F1F1F1EFEF",
"^ c #F4F4F4F4F3F3",
"/ c #F7F7F8F8F6F6",
"( c #F8F8F8F8F7F7",
") c #FBFBFCFCFBFB",
"_ c None",
/* pixels */
"________________________________",
"________________________________",
"________________________________",
"________________________________",
"________rrrrerrrrrr_____________",
"_____rruzGPTW/WTPGxirr__________",
"___rtDW))^!ETYR!^/))WFtr________",
"__rk()YGGJJKPIYYREWW/)(xr_______",
"_rg)!DDFGHKKPUUYTEW~~/()hree____",
"_rE)CCCFGHJKPIUYREW~^())EtTLzr__",
"_rR)CCSDf5:-=--;,6BW^/()RiW^)h__",
"_rK(WD9*$&:2350Mm2**M/))Kg^/^Wr_",
"_rS)))Z>$$$#@.  X%*=V)(!Nyj)WWr_",
"__l)))))^AMq4><7nVQ)(~Y~krh)^Ir_",
"__i))((())))))))((^RTYY(irI/^Fr_",
"__r~)^^^//))))/^~WERTYY^rG)W^s__",
"__eb^!!^^/)))/^^!!ERRUENd!!)Fr__",
"___i(!W^^/^//^^~!WERRU^dH!)Sr___",
"___tI~WW^^)^^^~~!WERURUyYRkr____",
"____s(WW!^/^^^~!WWEYT!dkNye_____",
"___iyS^WW!^/^~!WEERYWDtyt_______",
"_uaIGyLWWW^/^~WWERRRHrhWIat_____",
"eh^ILSyI!WW^^^WEEREHrx!!^Iiry___",
"rWTLLIvj^/!^^~WWWQUikURNsvE)Ecy_",
"rW^ILLKtS^^^(/^WWTktSIRr^())))Rr",
"rp)~ILLbupcKT!IFkuycHIRr(((^^WWr",
"_tyI)WUIJxduyryyslFJIW^r(((^WWWr",
"___esJ^)^WETIKKLURW/)^Gr(((^WWWr",
"_____eeixGKT!//^ULGkrr+rE(/^WKur",
"________8w88weet81+O___orsKRht__",
"__________________________rrw___",
"________________________________"
};
