/* XPM */
static char *pixelize[] = {
/* columns rows colors chars-per-pixel */
"32 32 220 2 ",
"   c black",
".  c #03E403E403E4",
"X  c #067C067C067C",
"o  c #072C072C072C",
"O  c #08EB08EB08EB",
"+  c #09C509C509C5",
"@  c #0B060B060B06",
"#  c #0BB10BB10BB1",
"$  c #0CD10CD10CD1",
"%  c #0ED20ED20ED2",
"&  c #115C115C115C",
"*  c #11DB11DB11DB",
"=  c #151815181518",
"-  c #176217621762",
";  c #1AAB1AAB1AAB",
":  c #1C441C441C44",
">  c #1D1F1D1F1D1F",
",  c #200520052005",
"<  c #212721272127",
"1  c #222F222F222F",
"2  c #235623562356",
"3  c #241724172417",
"4  c #251425142514",
"5  c #260426042604",
"6  c #271127112711",
"7  c #29CE29CE29CE",
"8  c #2C1A2C1A2C1A",
"9  c #2D092D092D09",
"0  c #2E342E342E34",
"q  c #2F582F582F58",
"w  c #301B301B301B",
"e  c #312D312D312D",
"r  c #31FF31FF31FF",
"t  c #339733973397",
"y  c #352F352F352F",
"u  c #35D035D035D0",
"i  c #377337733773",
"p  c #384638463846",
"a  c #395C395C395C",
"s  c #3A0E3A0E3A0E",
"d  c #3B4C3B4C3B4C",
"f  c #3BED3BED3BED",
"g  c #3D2D3D2D3D2D",
"h  c #3E303E303E30",
"j  c #3F2A3F2A3F2A",
"k  c #404940494049",
"l  c #417941794179",
"z  c #41F141F141F1",
"x  c #437543754375",
"c  c #444544454445",
"v  c #450245024502",
"b  c #465346534653",
"n  c #473C473C473C",
"m  c #482948294829",
"M  c #497E497E497E",
"N  c #4B444B444B44",
"B  c #4C1D4C1D4C1D",
"V  c #4D594D594D59",
"C  c #4E494E494E49",
"Z  c #4F584F584F58",
"A  c #500E500E500E",
"S  c #511A511A511A",
"D  c #529E529E529E",
"F  c #53AA53AA53AA",
"G  c #547354735473",
"H  c #552E552E552E",
"J  c #565A565A565A",
"K  c #576057605760",
"L  c #587158715871",
"P  c #597659765976",
"I  c #5A8E5A8E5A8E",
"U  c #5BEA5BEA5BEA",
"Y  c #5D9F5D9F5D9F",
"T  c #5E425E425E42",
"R  c #5F3F5F3F5F3F",
"E  c #606E606E606E",
"W  c #614C614C614C",
"Q  c #627E627E627E",
"!  c #639F639F639F",
"~  c #656E656E656E",
"^  c #667966796679",
"/  c #672967296729",
"(  c #685468546854",
")  c #697D697D697D",
"_  c #6A266A266A26",
"`  c #6B976B976B97",
"'  c #6C8C6C8C6C8C",
"]  c #6D4D6D4D6D4D",
"[  c #6E906E906E90",
"{  c #6F956F956F95",
"}  c #705170517051",
"|  c #715471547154",
" . c #727072707270",
".. c #738D738D738D",
"X. c #74E774E774E7",
"o. c #754075407540",
"O. c #769176917691",
"+. c #771477147714",
"@. c #789B789B789B",
"#. c #794979497949",
"$. c #7A8C7A8C7A8C",
"%. c #7BA97BA97BA9",
"&. c #7CAA7CAA7CAA",
"*. c #7D7C7D7C7D7C",
"=. c #7E767E767E76",
"-. c #7F3F7F3F7F3F",
";. c #80A080A080A0",
":. c #815981598159",
">. c #82A482A482A4",
",. c #83BB83BB83BB",
"<. c #842984298429",
"1. c #859385938593",
"2. c #866486648664",
"3. c #87B187B187B1",
"4. c #88B188B188B1",
"5. c #89CE89CE89CE",
"6. c #8A9A8A9A8A9A",
"7. c #8BCA8BCA8BCA",
"8. c #8C7A8C7A8C7A",
"9. c #8EA78EA78EA7",
"0. c #908D908D908D",
"q. c #919291929192",
"w. c #927492749274",
"e. c #937493749374",
"r. c #94D094D094D0",
"t. c #959495949594",
"y. c #96AD96AD96AD",
"u. c #97A797A797A7",
"i. c #985698569856",
"p. c #99A499A499A4",
"a. c #9B939B939B93",
"s. c #9CA29CA29CA2",
"d. c #9DCB9DCB9DCB",
"f. c #9EB09EB09EB0",
"g. c #9F9F9F9F9F9F",
"h. c #A0F0A0F0A0F0",
"j. c #A1E2A1E2A1E2",
"k. c #A2F1A2F1A2F1",
"l. c #A3EFA3EFA3EF",
"z. c #A4B0A4B0A4B0",
"x. c #A5F9A5F9A5F9",
"c. c #A6C6A6C6A6C6",
"v. c #A8B6A8B6A8B6",
"b. c #A9E3A9E3A9E3",
"n. c #AAB5AAB5AAB5",
"m. c #AB69AB69AB69",
"M. c #ACEEACEEACEE",
"N. c #AE18AE18AE18",
"B. c #AEABAEABAEAB",
"V. c #AF9AAF9AAF9A",
"C. c #B117B117B117",
"Z. c #B1E3B1E3B1E3",
"A. c #B25EB25EB25E",
"S. c #B380B380B380",
"D. c #B4C5B4C5B4C5",
"F. c #B5D0B5D0B5D0",
"G. c #B6D7B6D7B6D7",
"H. c #B7A2B7A2B7A2",
"J. c #B8D9B8D9B8D9",
"K. c #BA0FBA0FBA0F",
"L. c #BAFCBAFCBAFC",
"P. c #BD1CBD1CBD1C",
"I. c #BD70BD70BD70",
"U. c #BFD1BFD1BFD1",
"Y. c #C0D9C0D9C0D9",
"T. c #C218C218C218",
"R. c #C2BCC2BCC2BC",
"E. c #C3C7C3C7C3C7",
"W. c #C465C465C465",
"Q. c #C549C549C549",
"!. c #C6D2C6D2C6D2",
"~. c #C7DDC7DDC7DD",
"^. c #C88CC88CC88C",
"/. c #C968C968C968",
"(. c #CA6FCA6FCA6F",
"). c #CC09CC09CC09",
"_. c #CCADCCADCCAD",
"`. c #CD51CD51CD51",
"'. c #CEF6CEF6CEF6",
"]. c #CFE6CFE6CFE6",
"[. c #D10DD10DD10D",
"{. c #D225D225D225",
"}. c #D33CD33CD33C",
"|. c #D3D4D3D4D3D4",
" X c #D4BED4BED4BE",
".X c #D706D706D706",
"XX c #D826D826D826",
"oX c #D8DDD8DDD8DD",
"OX c #DAADDAADDAAD",
"+X c #DBC4DBC4DBC4",
"@X c #DC91DC91DC91",
"#X c #DD5FDD5FDD5F",
"$X c #DF55DF55DF55",
"%X c #DFACDFACDFAC",
"&X c #E0D8E0D8E0D8",
"*X c #E1E4E1E4E1E4",
"=X c #E308E308E308",
"-X c #E4DDE4DDE4DD",
";X c #E5C4E5C4E5C4",
":X c #E6D5E6D5E6D5",
">X c #E7AEE7AEE7AE",
",X c #E925E925E925",
"<X c #E9DFE9DFE9DF",
"1X c #EBD2EBD2EBD2",
"2X c #EC74EC74EC74",
"3X c #EDF2EDF2EDF2",
"4X c #EEF6EEF6EEF6",
"5X c #F080F080F080",
"6X c #F204F204F204",
"7X c #F3C3F3C3F3C3",
"8X c #F618F618F618",
"9X c #F714F714F714",
"0X c #F909F909F909",
"qX c #FA1CFA1CFA1C",
"wX c #FB2BFB2BFB2B",
"eX c #FBD5FBD5FBD5",
"rX c #FD2EFD2EFD2E",
"tX c #FE42FE42FE42",
"yX c #FEF8FEF8FEF8",
"uX c #FFFCFFFCFFFC",
/* pixels */
"b 2.6.6.9.6.2.B o.2.6.2.2.2.2.B o.2.2.2.2.2.2.B o.2.2.2.2.2.2.b ",
"2.uXD.z.j.XXuXr.&XuXXXuXuXqXuXr.&XuXuXuXuXuXuXw.&XuXuXuXuXuXuX2.",
"2.uXw.f.A.! 9Xw.&XqX&XuXqX>.!.r.%XuXqXuXqXuXuXw.%XuXuXqXuXuXuX2.",
"2.uXM.9.f._ qXw.&X^.9.uX2.H A.r.%XqX9.w.w.uXuXr.%XqXA.9.<XuXuX2.",
"2.uXm.9.D.-XuXw.&X5X2.I.D.m.^.p.%XuX&X>.-XuXuXw.&X5XT | !.uXuX2.",
"2.uXw.m.uXuXuXw.&X&X^ >.M.`.XXr.%XuXA.#.L.uXuXw.%X9X! j.L.qXuX2.",
"2.uXA.I.uXuXuXr.-X`.r ^ T o.M.p.%XuXD.^.L.uXuXr.&XuXoXj.&XuXuX2.",
"B w.p.r.w.r.w.H &.P g p 4 r P H &.r.p.r.r.w.w.H >.w.r.p.r.w.r.B ",
"o.%X&X&X%X%X%X>.A.g i p g 7 H | R.%X%X%X%X%X%X>.R.%X%X%X%X%X%X| ",
"2.uX&XL.uXuXuXw.m.| ^ z.! 1 N ! &XuXuXuXuXuXuXr.&XuXuXuXuXuXuX2.",
"2.uX-X#.qXuXuX2._ M.%Xf.P H N T &XuXqX9XuXuXuXw.%XuXuXqXuXuXuX2.",
"2.uX9X2.qXuXuX6.{ &.6.9.>.w.B ^ &X9X&.{ !.uXuXw.%XqXA.9.<XuXuX2.",
"2.uX9X6.qXuX9X#.f.j.>.w.9.&.{ H r.qX!.f.-XuXuXr.&X5XT | !.uXuX2.",
"2.uX-X_ 2XuX&Xi &.^.{ D.r.6.2.H o.-X6.w.[.uXuXw.%X9X! j.L.qXuX2.",
"2.uX&Xj.-XuX<Xb >.r.T w.6.w.6._ M.^.A.j.&XuXuXr.&XuXXXj.&XuXuX2.",
"B r.r.p.r.r.>.1 { 2.{ ^ { b b 1 2.2.6.r.r.w.w.H >.w.r.p.r.r.r.B ",
"| %X%X%X%X%Xm.{ | M.f.9.w.w.o.0 !.`.A.%X%X%X%X>.R.%X%X%X%X%X%Xo.",
"2.uXuXuXuXuXm.P [.2XL.XX`.qXz.0 oX`.-X2XuXuXuXw.%XuXuXuXuXuXuX2.",
"2.uXuXuXuXuXj.{ -XuXoXuXuXuXI.o.%XuX2X`.uXuXuXr.%XuXuXuXuXuXuX2.",
"2.uXuXuXuXuXoX_ I.%X&X%XuXuX!.2.oX%XuX`.<XuXuXw.%XuXuXuXuXuXuX2.",
"2.uXuXuXuXuXm.D f.A.5XI.p.-XL.D R.%XqXA.`.uXuXw.%XuXuXuXuXuXuX2.",
"2.uXuXuXuXuXA.D #.j.XX!.A.[.D.b m.%XR.[.R.2XuXr.%XuXuXuXuXuXuX2.",
"2.uXuXuXuX-XP r b T B z >.6.M.g o.#.[.!.A.r.2Xr.&XuXuXuXuXuXuX2.",
"B r.w.w.w.| i * 1 : 0 X p O N % 0 g D r g z ! H >.w.r.w.w.w.r.B ",
"o.&X%X%X%X!.g i % B r g r : p 1 0 g r D z T P | R.%X%X%X%X%X%Xo.",
"6.uXuXuXuX%XP H { b g ^ b T | z z b z H | N P p <XuXuXuXuXuXuX6.",
"T !.L.m.m.M.o.N z.f.R.m.j.p.&.N z.j.m.f.D.z.2.B w.M.M.`.m.m.m.H ",
"p P _ P B w.&._ r.w.#.| #.9.w.p w.M.oXoX!.R.XXb 1 { T D T D P * ",
"O D z z D oX`.r.!.R.[.`.R.`.&X>.R.^.^.^.R.m.P b | H N _ ^ _ _ 1 ",
"1 H D g b b T p D z b b 4 0 g b H D N H 1 P g i g T #.&.z B B { ",
"P N N ! 0 z g 7 0 b b 7 b 0 4 4 : g p 0 0 z 1 g g p b B P b g z ",
"O O r O . r O O O = i : 7 . r X 0 * O O 1 1 . O 7 ; p X p * ; 0 "
};
