/* XPM */
static char *PosteRazor[] = {
/* columns rows colors chars-per-pixel */
"32 32 21 1 ",
"  c black",
". c #073507350735",
"X c #171617161716",
"o c #195D195D195D",
"O c #1C121C121C12",
"+ c #1FF61FF61FF6",
"@ c #24CA24CA24CA",
"# c #357135713571",
"$ c #46B546B546B5",
"% c #4B484B484B48",
"& c #4D544D544D54",
"* c #5E8D5E8D5E8D",
"= c #631763176317",
"- c #67AC67AC67AC",
"; c #6B1A6B1A6B1A",
": c #760A760A760A",
"> c #7A687A687A68",
", c #7CAF7CAF7CAF",
"< c #836B836B836B",
"1 c #849484948494",
"2 c None",
/* pixels */
"22222222222222222222222222222222",
"22222222222222222222222222222222",
"22222222222222222222222222222222",
"22222222222222222222222222222222",
"2222                        2222",
"2222 .o+OOO++OOO+OOOOOOO+o. 2222",
"2222 X$=****=***=***=***=%o 2222",
"2222 O&;><<<,<<,<,<<<<<>;%O 2222",
"222222O#-<<,<,<<<,,<<><-#o222222",
"222222o#-<<,,,,<<<,<,<<;#o222222",
"     o%;>,<<,<<<,<,,<<<>;%o     ",
" .XOO#;,;**-::-**-::-**;>;#OOX. ",
" X$*=->;#OO#;;#OO#;;#+O#;>-==$X ",
" O=1<>;&o  @--@  @--@  o&;><1=O ",
" +=11-#O2222::2222::2222o#-<1=O ",
" O*<<*o 2222,<2222,,2222 o*<<*+ ",
" O*<<*o 2222,<2222<,2222 O*<<*O ",
" O*1<;#o2222::2222::2222O#;1<*O ",
" +*11>;%o  @;-@  @;-@  o&;><1=+ ",
" o$=*;,;#OO#-;#OO#-;#OO#;,;*=$X ",
" .XOO#;,;**;:>-**-:>-**-,;#OOX. ",
"     o&;><<>,<,<<<<,,<<:;&o     ",
"222222o#-<<,,,,<,,<,,<<-#o222222",
"222222o#-<<<<,<,,<,<<<<-#o222222",
"2222 O&;><<,<<<<<<,<><<>;&o 2222",
"2222 X%==******=***=***-=%o 2222",
"2222 .XO++OOOOOOOO+OOOO+oo. 2222",
"2222                        2222",
"22222222222222222222222222222222",
"22222222222222222222222222222222",
"22222222222222222222222222222222",
"22222222222222222222222222222222"
};
