/* XPM */
static char *powder[] = {
/* columns rows colors chars-per-pixel */
"32 32 15 1 ",
"  c #BCBC5E5E1212",
". c #A1A179791C1C",
"X c #BCBC76761212",
"o c #858567672222",
"O c #C1C196962F2F",
"+ c #F0F0D9D9C7C7",
"@ c #F5F5E5E5D8D8",
"# c #F4F4E8E8DDDD",
"$ c #F6F6E8E8DCDC",
"% c #F6F6E9E9DDDD",
"& c #FAFAF1F1EBEB",
"* c #FEFEFBFBF9F9",
"= c #FCFCFCFCFAFA",
"- c #FEFEFDFDFAFA",
"; c gray100",
/* pixels */
"       .........................",
" XXX OOOOOOOOOOOOOOOOOOOOO......",
"     OOOOOOOOOOOOOOOOOOOOOOO....",
"       OOOOOOOOOOOOOOOOOOOOOO...",
"       OOOOOOOOOOOOOOOOOOOOOOO..",
"     OOOOOOOOOOOOOOOOOOOOOOOOO..",
" XXX OOOOOOOOOOOOOOOOOOOOOOOOO..",
" XXX OOOOOOOOOOOOOOOOOOOOOOOOO..",
" XXX OOOOOOOOOOOOOOOOOOOOOOOOO..",
" XXX OOOOOOOOOO    OOOOOOOOOOO..",
" XXX OOOOOOOOOXoooooOOOOOOOOOO..",
" XX.;;;.;;;.;...;.;;..;;;.;;;...",
" XX.;.;.;.;.;.;.;.;.;.;...;.;...",
" XX.;.;.;.;.;.;.;.;.;.;...;.&...",
" XX.;.;.;.;.;.;.;.;.;.;...;@....",
" XX.;;..;.;.;.;.;.;.;.;++.;.;...",
" XX.;...;.;.;.;.;.;.;.;...;.;...",
" XX.;...;.;.;.;.;.;.;.;...;.;...",
" XX.;...;;;.;#;#;.;;;.;;;.;.;...",
" XX.*...=#=.;;=#;.=#..=#$.=.=...",
" XXX OOOOOOOOXoooooooOOOOOOOOO..",
" XXX OOOOOOOOOXoooooOOOOOOOOOO..",
" XXX OOOOOOOOOO    OOOOOOOOOOO..",
" XXX OOOOOOOOOOOOOOOOOOOOOOOOO..",
" XXX OOOOOOOOOOOOOOOOOOOOOOOOO..",
" XXX OOOOOOOOOOOOOOOOOOOOOOOOO..",
"     OOOOOOOOOOOOOOOOOOOOOOOOO..",
"       OOOOOOOOOOOOOOOOOOOOOOO..",
"       OOOOOOOOOOOOOOOOOOOOOO...",
"     OOOOOOOOOOOOOOOOOOOOOOO....",
" XXX OOOOOOOOOOOOOOOOOOOOO......",
"       ........................."
};
