/* XPM */
static char *pyneighborhood_48x48[] = {
/* columns rows colors chars-per-pixel */
"32 32 242 2 ",
"   c #00CC00BF00C7",
".  c #06CD075607E2",
"X  c #0A3209CE0A1D",
"o  c #1642156B15E1",
"O  c #22651F341F48",
"+  c #2B8623CA1F0E",
"@  c #2D33262923AD",
"#  c #2F73285C2682",
"$  c #302E289E26AF",
"%  c #334D2C032ABE",
"&  c #381F2F972F20",
"*  c #36E4301F2DF3",
"=  c #2C212F3531E4",
"-  c #34F52F39304B",
";  c #25AB302F3C0E",
":  c #3B173451333A",
">  c #3599344339EA",
",  c #3BA9379A3895",
"<  c #3CD43A293C1D",
"1  c #4B7431D22ADC",
"2  c #40FB3A7B347B",
"3  c #46CA39C237B7",
"4  c #433C3CCB3A73",
"5  c #58204D512EF6",
"6  c #456E40B43D99",
"7  c #52E953A3394B",
"8  c #6285414533A2",
"9  c #6E235F8B36AC",
"0  c #75047BFE3FA9",
"q  c #2DF8394E4532",
"w  c #2D4438CF47E9",
"e  c #327F3D1B461D",
"r  c #3B6E3E354315",
"t  c #33033E134BDE",
"y  c #3A373FB948C6",
"u  c #4F593CF24248",
"i  c #387940EE4615",
"p  c #337A409F4E9F",
"a  c #3AA943254C4F",
"s  c #3645437F52A1",
"d  c #392446B4552F",
"f  c #3A81497A5BC1",
"g  c #3C674C776159",
"h  c #3D614C6F7D85",
"j  c #4329416D431E",
"k  c #4DFA450941E9",
"l  c #4B45488045D7",
"z  c #42A745964C60",
"x  c #4A18477649E2",
"c  c #46D148084AE9",
"v  c #4B584A564ADC",
"b  c #54474C7546A3",
"n  c #51CA4DBE4A5F",
"m  c #58CE541648DF",
"M  c #45514C98530D",
"N  c #464E50E95B6D",
"B  c #4DB456B45C3D",
"V  c #54CD559B56EE",
"C  c #5DAB5C1A5514",
"Z  c #544256CE58BC",
"A  c #5A215BB35A6E",
"S  c #61FF5A664DDB",
"D  c #68065C5A4E79",
"F  c #62525D5C56AF",
"G  c #6912616E53C6",
"H  c #6A9D67B857BF",
"J  c #75E4690B516B",
"K  c #72566C065E72",
"L  c #736B73675389",
"P  c #47C4555062F5",
"I  c #56025D3A6207",
"U  c #58115B5A6862",
"Y  c #47835A6973C0",
"T  c #5C0A653C6AF2",
"R  c #4C90605F7839",
"E  c #56C767BD78B1",
"W  c #63926360630A",
"Q  c #67FE67F7667A",
"!  c #6D456D6B6BC9",
"~  c #74416BC962E1",
"^  c #77A46B126573",
"/  c #76E074FF6713",
"(  c #7904759064D9",
")  c #7A177691692B",
"_  c #7BD879B86C42",
"`  c #64DC6DC17262",
"'  c #6A8A6F3973F8",
"]  c #6D42751776A1",
"[  c #6D2E76217DB4",
"{  c #783478E477D7",
"}  c #766F7C3D7CA6",
"|  c #97FC53583E5D",
" . c #86716B143355",
".. c #8E1E5BC95575",
"X. c #8F8D73FC4DD0",
"o. c #B099729C5A82",
"O. c #810476DF645E",
"+. c #80E47D8C732F",
"@. c #80A27D0D7841",
"#. c #B1B0788E67A2",
"$. c #CAEC7AEE5D06",
"%. c #7F9B84407FD3",
"&. c #A8E685F03B67",
"*. c #AD5A8CEC3E36",
"=. c #92C789F95209",
"-. c #B9869B45511D",
";. c #BE08A2804A2A",
":. c #A083ABCD5F38",
">. c #9AAE8A846876",
",. c #9334921767D1",
"<. c #853983B972E7",
"1. c #89D288757784",
"2. c #86F7827A7B50",
"3. c #8CAE87277B75",
"4. c #96E889B374A0",
"5. c #A3688B3F6030",
"6. c #A1FA95FD745A",
"7. c #B7F7BD5B714A",
"8. c #C355A1D04A23",
"9. c #CE87AD6D4DD3",
"0. c #D41BB3F9542E",
"q. c #DB1ABC7B594E",
"w. c #D5F597277A82",
"e. c #CBB7B82F624F",
"r. c #B9B9C0447650",
"t. c #D8D5C95873D6",
"y. c #E63FCC636983",
"u. c #4D3E5CA48866",
"i. c #4E80601A8E5C",
"p. c #544F68848147",
"a. c #50B762568FA0",
"s. c #5EB1749B8E2B",
"d. c #53046539932D",
"f. c #56DC692796A2",
"g. c #61D76F2E8CBE",
"h. c #655576BB87A6",
"j. c #71967C6383F2",
"k. c #78FA7CD08299",
"l. c #64C47A8A98C9",
"z. c #69477BEC98F9",
"x. c #64D17941A23C",
"c. c #69F87E0DA715",
"v. c #7D73856888D8",
"b. c #7A45857F8E66",
"n. c #6BCB83619F6D",
"m. c #73EA88C1AC46",
"M. c #7DEE91A8B600",
"N. c #87128989821D",
"B. c #8B4B8C698518",
"V. c #851B89DF8A8C",
"C. c #91878E1B833C",
"Z. c #959D8BFF8FBB",
"A. c #8F37905B8DF6",
"S. c #98E595428807",
"D. c #9CCD9AE68E06",
"F. c #850F8CEC92E8",
"G. c #8CD2934F9584",
"H. c #8E4695339A61",
"J. c #959D996297F8",
"K. c #9B4F9AD0949D",
"L. c #946E9A7C9A4C",
"P. c #A8969FDB8B22",
"I. c #A2C89F00926A",
"U. c #9C1CA5139BB6",
"Y. c #A1B1A0D28BAF",
"T. c #A439A28A9589",
"R. c #A5F4A49F9B8D",
"E. c #A89AA81199DE",
"W. c #A40BA9ED9E92",
"Q. c #ACB7AA899C0A",
"!. c #B1F2ACEE9DBE",
"~. c #AB58B1E99DA3",
"^. c #B1B2B0609BC8",
"/. c #BAF7B49B9F13",
"(. c #8BE19940AAE3",
"). c #98539CCBA5D8",
"_. c #87F39A13B796",
"`. c #9D08A3CAA5B2",
"'. c #9E2DA859AED8",
"]. c #A48AA617A313",
"[. c #AD4BAD43A486",
"{. c #A62BA9DDA934",
"}. c #B146ADFAA3D4",
"|. c #AE02B253ACD5",
" X c #B3A7B338A45C",
".X c #B901B3BEA6B1",
"XX c #B812BC47A589",
"oX c #B4F8B42CABD3",
"OX c #BBE1B793AB41",
"+X c #BB6BBA09AD9A",
"@X c #A958ACFFB237",
"#X c #A6C3B111B46F",
"$X c #AE30B491B554",
"%X c #B51FB67EB19D",
"&X c #B79EBC10B880",
"*X c #DBA1A1928453",
"=X c #EB2AB87C96F5",
"-X c #C382BF1EB2E6",
";X c #BFA2C207B6C2",
":X c #C866C64586BA",
">X c #D2ECD2FF91A7",
",X c #C5AEC230B5BC",
"<X c #C94DC512B77F",
"1X c #C4CCC4E0BC63",
"2X c #CB5EC704BB4E",
"3X c #C82DC8C6BE47",
"4X c #CE4CCAF2BE31",
"5X c #DB6DD97EB5DD",
"6X c #EBCDD158A9BA",
"7X c #F0B3DAA8BE8D",
"8X c #EFA9E44ABE9B",
"9X c #9B38AD1FC984",
"0X c #A757B703C934",
"qX c #ACE1BDA7D53B",
"wX c #BC84C4B5C8AC",
"eX c #B860C7F6DBF0",
"rX c #C4B9C75EC57B",
"tX c #CDF3CBDCC306",
"yX c #CE5CCE93C8B7",
"uX c #D2A8CEFBC2C8",
"iX c #D583D373C537",
"pX c #D483D3B8CB33",
"aX c #D9D9D664CA26",
"sX c #DD29DAAECDC6",
"dX c #C2B3CE68D567",
"fX c #C795D181D61B",
"gX c #D35AD696D492",
"hX c #DCF8DD3ED7A2",
"jX c #E1CDDF2CD444",
"kX c #E3A8E296D46F",
"lX c #E5DCE390D9AF",
"zX c #E90CE6DEDBAD",
"xX c #EC7EEAB5DF48",
"cX c #CDE2D945E175",
"vX c #E5AFE4C3E11A",
"bX c #EE9DECE7E40E",
"nX c #F153EF94E5E1",
"mX c #F318F148E720",
"MX c #F678F461EC34",
"NX c #FA18F7FCF443",
"BX c #FAF4F972F2CC",
"VX c None",
/* pixels */
"VXVX& % % % % % % VXVXVXVX% - % % # % % % VXVXVXVXVXVXVXVXVXVXVX",
"VX% % 4 { +.v & % % VXVX% & & 4 3 4 4 : % % VXVXVXVXVXVXVXVXVXVX",
"VX% < K.lXlX,X2.3 % % % n Z.{.-XyXyXrXoX! & % % VXVXVXVXVXVXVXVX",
"& % Q OX-XlXxXsXC.b % $ 2.vXNXNXNXNXNXbXpX@.& % VXVXVXVXVXVXVXVX",
"* * C.Q.].rXxXmXzX-X^ 2 2.E.hXMXMXnXxXjXsXaXC.3 % % VXVXVXVXVXVX",
"$ 6 E.~.J.{.tXbXMXMXuX^ ) ) D.kXMXnXjXaXuXiXaX@.: % VXVXVXVXVXVX",
"# V %X#XA ` '.1XnXNXMX-XK G K D.jXnXjXaXuX4XuXuX3.3 % % VXVXVXVX",
"# F %Xj.q ; ` ].2XnXBXnXS.S G K Q.zXnXjXiX4X-XuXiX2.2 & VXVXVXVX",
"# H {.P p w ; ] U.1XmXBXsX,.m H ^ }.bXxXsX4X2X2XuXiX2.2 % & VXVX",
"# Q ].d g g q a F.[.4XmXnX<X( D K ) uXnXzXsX4X2X2XtXuX+.& % VXVX",
"$ W L.P Y Y f p I G.[.4XxXkX~.G G L C.aXxXsX<X<X2X<X4XuX~ % % & ",
"% Q U.R s.s.h f a T U. XsXkX4X1.m J ) P.sXjX4X,X<X2X-X4XOXn % % ",
"* ! U.p.n.n.p.g p i %.W.;XsX4X~.S m ( <..XsX4X,X-X<X.X-XuXK.: % ",
"$ H U.h.n.n.s.Y f i f F.;XiX5XXX<.m ( 1.S.4XsX4X-X-X.X.X,X+Xk % ",
"* n [.V.` n.n.R g g p B #XiXsXXXY.C L 4.S.OXsX,X!.Q.}.OX.X.Xm % ",
"$ r N.XX` s.h.E g g p i F.;XpX;XW.F 7 <.D.I.XXP.Y.!.aX4XOX!.b % ",
"VX* V K.W.` E E g d p e } ].1X|.v.Z b m F C C C / D.|.K.K.I.k % ",
"VX% j ' OXY.T R g p t i k.K.+XB.l 7 ..4.6.6.4.L 7 c { U.[.C.4 % ",
"VXVX* v A.1XB.T N t q B L.R.G.u 8 o.*X6X7X8X5X:X,.7 l U.].{ : % ",
"VXVX# : ' %X3XA.B s a b.oX|.^ 1 | $.w.=X6X6X>Xr.:.0 2 H N.Q % $ ",
"VXVX% * ! L.&X;XN.T [ $XoXA.3 u ..#.*X*X*X:X:X7.:.=.5 6 { B @ VX",
"VXVX% 3 S.3.`.$X|.G.#X%XR.F y u.z.F.).@X.X:Xt.t.e.;. .3 V u @ VX",
"VXVX+ l T.( %.'.[.wX;X[.J.x h d.c.c.M._.].e.y.y.q.0.*.5 < c VXVX",
"VXVXo n XX1.H J.@XR.K.|.V.M Y f.l.x.c.c.F.e.q.q.0.0.8.9 > y VXVX",
"VX  X 6 tX;X<.( `.$X$XfX[ N i.u.d.d.f.f.k.8.9.9.9.8.-.J > a VXVX",
"VX    O ].jX/.<.) |.gX;XA U l.i.h h h h U X.*.&.&.&.5.O.< a VXVX",
"VX    X Z pXiXT.%.( { _ n U _.c.a.u.u.a.g.4.>.5.>.6.Y.{ < z VXVX",
"VX      o v.hXyX[.G.N.K.' l (.9XM.m.M.M._.$X.X!.Q.^.oX~ j B VXVX",
"VXVX    . o } wXcXdXrXdXb.z Z F.0XqXqXqXeXdXrX0X$X).! l I VXVXVX",
"VXVX        o d b.H.F.T = t u u T k.F.H.G.V.k.! C l x U [ VXVXVX",
"VXVXVX          . . X     X y y > > > , , r e u M I T VXVXVXVXVX",
"VXVXVXVX                    o t t w w t a d N M j.(.VXVXVXVXVXVX"
};
