/* XPM */
static char *pyshell[] = {
/* columns rows colors chars-per-pixel */
"32 32 171 2 ",
"   c #2B6B2B6B0000",
".  c #343434340101",
"X  c #3B3B3B3B0000",
"o  c #515139390000",
"O  c #010159590000",
"+  c #282856560000",
"@  c #3F3F57570000",
"#  c #24245D5D1A1A",
"$  c #030360E10000",
"%  c #00816B6B0000",
"&  c #141469690000",
"*  c #1A1A68680000",
"=  c #025871710000",
"-  c #00007C7C0000",
";  c #0A0A7F7F0000",
":  c #19197D7D0000",
">  c #3E3E6C6C0000",
",  c #434343430000",
"<  c #499F499F0000",
"1  c #4F4F51510000",
"2  c #52D252D20000",
"3  c #5BEE5C5C00DC",
"4  c #4A4A43431919",
"5  c #5ADA5B5B1394",
"6  c #5D5D5D5D1B1B",
"7  c #79795F5F0000",
"8  c #585860600000",
"9  c #555572720000",
"0  c #640E640E0039",
"q  c #6D536D870283",
"w  c #6DEE6DEE0A0A",
"e  c #6C6C78780000",
"r  c #73C973C90040",
"t  c #74F579790000",
"y  c #7CE67D0A003E",
"u  c #6A6A6A6A1515",
"i  c #6B6B6B6B1A1A",
"p  c #747474741A1A",
"a  c #515153532929",
"s  c #54544E4E3232",
"d  c #676769692222",
"f  c #6D6D6D6D2626",
"g  c #707071712222",
"h  c #727274742B2B",
"j  c #676769693636",
"k  c #262627277878",
"l  c #67676A6A4949",
"z  c #6E6E71714E4E",
"x  c #79797B7B4343",
"c  c #767679795353",
"v  c #9C9C09090000",
"b  c #B6B602020000",
"n  c #90902E2E0000",
"m  c #CCCC00000000",
"M  c #015785DB0000",
"N  c #03038C0C0000",
"B  c #09098E8E0000",
"V  c #141489890000",
"C  c #000095140000",
"Z  c #019B9D9D0000",
"A  c #20208F8F0000",
"S  c #33338C8C0000",
"D  c #20209E9E0000",
"F  c #323283831818",
"G  c #2E2E9D9D1B1B",
"H  c #0182A2A20000",
"J  c #0141AC2B0000",
"K  c #0D0DAEAE0000",
"L  c #1818ACAC0000",
"P  c #0202B4B40000",
"I  c #0202BC3C0000",
"U  c #1A1AB6B60000",
"Y  c #1A1ABC3C0000",
"T  c #2424A4A40000",
"R  c #2424AAAA0000",
"E  c #3F3FBCBC0000",
"W  c #444480800000",
"Q  c #7D1383830000",
"!  c #74748BF90000",
"~  c #6CC293E90000",
"^  c #63A39CDC0000",
"/  c #707090900000",
"(  c #5CDDA2A20000",
")  c #5313AD6D0000",
"_  c #4B4BB4F40000",
"`  c #4646BA3A0000",
"'  c #6060A0A00000",
"]  c #41419E9E2424",
"[  c #7F7F82823F3F",
"{  c #0000C4430000",
"}  c #0182CBCB0000",
"|  c #1212CECE0000",
" . c #0404D5070000",
".. c #0202DBDB0000",
"X. c #0909DADA0000",
"o. c #1494D5D50081",
"O. c #1A1AD2D20101",
"+. c #1414D9D90505",
"@. c #1DC8DADA0000",
"#. c #1212D7D70D0D",
"$. c #2D2DC7C70101",
"%. c #3B3BC4430000",
"&. c #3409CC4C0000",
"*. c #24A5D5D50000",
"=. c #2B2BD52A0000",
"-. c #244FDBB00000",
";. c #0033E47D0000",
":. c #0A8BE5640000",
">. c #0168EDBA0000",
",. c #1394E6E60000",
"<. c #1B9CE3A30000",
"1. c #12A1ED250000",
"2. c #024FF65C0000",
"3. c #0AEEF49E0000",
"4. c #01C6FD480000",
"5. c #7676A5A55353",
"6. c #7676B2B25050",
"7. c #80DF80DF0000",
"8. c #8F8F8F8F0202",
"9. c #828282820C0C",
"0. c #A2A2A2A20101",
"q. c #B5B5B5B53939",
"w. c #C8C8C8C81F1F",
"e. c #D4D4D4D41616",
"r. c #D9D9D9D91A1A",
"t. c #E2E2E2E20505",
"y. c #8B8B8E8E4F4F",
"u. c #8B8B8E8E5353",
"i. c #848487875D5D",
"p. c #89898C8C5858",
"a. c #9B9B9C9C5757",
"s. c #98989B9B5D5D",
"d. c #8C8C8D8D6C6C",
"f. c #8E38923C640E",
"g. c #95FC9ACD699C",
"h. c #99999D9D6C6C",
"j. c #9E9EA2A26F6F",
"k. c #A0A0A4A46666",
"l. c #A5A5A9A96C6C",
"z. c #A222A6667272",
"x. c #A650AAAA73C9",
"c. c #A929ADAD76F7",
"v. c #AB55AF597878",
"b. c #AEAEB2B27171",
"n. c #B1DCB68B7D7D",
"m. c #B55FBA647D7D",
"M. c #BABABFBF7F7F",
"N. c #262626269494",
"B. c #36363636ACAC",
"V. c #4C4C4D4DA2A2",
"C. c #38383838C1C1",
"Z. c #30303131CCCC",
"A. c #B636BABA8080",
"S. c #BA64BEBE8383",
"D. c #BEBEC3C38686",
"F. c #C2C2C7C78484",
"G. c #C1C1C5C58888",
"H. c #C6B8CBA08C28",
"J. c #C9C9CE4E8E0E",
"K. c #CDCDD2D29090",
"L. c #D1D1D7579413",
"P. c #D7D7DD5D9717",
"I. c #D7D7DDDD9898",
"U. c #D9D9DEDE9919",
"Y. c #DD0FE2AF9C02",
"T. c #E18BE7919F49",
"R. c #E2E2E8E89F9F",
"E. c #E596EB88A1DC",
"W. c #E97BEF5CA45B",
"Q. c #EDCBF3CFA78D",
"!. c None",
/* pixels */
"!.!.!.!.!.!.!.!.!.!.!.!.!.!.!.!.!.!.!.!.!.!.!.!.!.!.!.!.!.!.!.!.",
"!.!.!.!.!.!.    !.!.X   !.!.!.!.!.!.!.!.!.!.!.!.!.!.!.!.!.!.!.!.",
"!.!.!.!.!.  0 q < 3 q r , !.!.!.!.!.!.!.!.!.!.!.!.!.!.!.!.!.!.!.",
"!.!.!.!.!.. 7.y 2 7.8.0 q !.!.!.!.!.!.!.!.!.!.!.!.!.!.!.!.!.!.!.",
"!.!.!.!.!.7.r.q.y t.q.d q , !.!.!.!.!.!.!.!.!.!.!.!.i.f.g.g.f.c ",
"!.!.!.!.!.0.d.Z.f w.C.N.0 , !.!.!.!.!.!.!.!.!.f.S.K.Y.E.W.W.R.S.",
"!.!.!.!.!.7.a.B.i e.V.k q < !.!.!.!.!.!.!.z.U.Q.Q.Q.Q.Q.Q.Q.Q.H.",
"!.!.!.!.!., 9.6 3 8.p 5 y 3 !.!.!.!.!.z J.E.Q.Q.Q.Q.Q.Q.Q.Q.Q.H.",
"!.!.!.X 2 r r y y r r 7.7.y , 1 < o a m.Q.Q.Q.Q.Q.Q.Q.Q.Q.Q.Q.J.",
"!.!.3 r y 7.y 7.y 7.7.7.Q ^ R W t t q h M.R.Q.Q.Q.Q.Q.Q.Q.Q.Q.H.",
"!.0 y 7.7.y 7.7.7.7.Q ! _ 3.4. .9 Q 7.7.u b.Q.Q.Q.Q.Q.Q.Q.Q.Q.H.",
"o r 0 y y 0 y y 7.7.) -.1.4.4.4.> Q 7.7.y h Y.Q.Q.Q.Q.Q.Q.Q.Q.H.",
"@ e 3 y t 8 Q ! %.=.3.;.H  .4.>.S Q 7.7.7.w n.Q.Q.Q.Q.Q.Q.Q.Q.J.",
": ) ( ( ^ E _ &.4.4.} = Z >.4.} +._ Q 7.7.r h.Q.Q.Q.Q.Q.Q.Q.W.D.",
"=  .4.3.3.4.4.4.;.Z O J 4.4.} o.3.1.! 7.7.r s.Q.Q.Q.Q.W.J.A.c.z.",
"!.M ;.4.4.4.2.I % $ } 2.4.#.G O.1.4.' 7.Q q l.Q.Q.Q.E.A.A.K.E.H.",
"!.!.!.B S > X !.C ;.4.4.I 5.6.+.4.1./ 7.Q u J.Q.Q.E.c.H.Q.Q.Q.H.",
"!.!.!.!.b v + P 4.4.2.{ # j.] $.<.` 7.7.r [ E.Q.W.n.J.Q.Q.Q.Q.H.",
"!.!.o n 7 U 2.4.2...C !.!.F :.3._ Q 7.7.g F.Q.Q.L.n.Q.Q.Q.Q.Q.H.",
"!.!.m n | 4.2.;.J !.!.% I o.-.` Q 7.y q k.E.Q.Q.G.J.Q.Q.Q.Q.R.n.",
"!.m m !.!.- !.!.!.& D :.4.<.^ Q 7.7.w u.W.Q.Q.Q.v.Y.Q.Q.Q.Q.H.h.",
"!.!.!.!.!.!.!.!.J X.*.=.&.^ 7.7.Q q y.P.Q.Q.Q.Q.v.E.Q.Q.Q.Q.A.v.",
"!.!.!.!.!.!.!.L <.3.1._ Q 7.7.y 3 j I.Q.Q.Q.Q.W.v.E.Q.Q.Q.Q.n.n.",
"!.!.!.!.!.!.K @.-.<._ Q 7.7.y 3 X 6 x x.T.Q.Q.E.v.E.Q.Q.Q.Q.S.x.",
"!.!.!.!.!.$ 3.4.4.-.Q 7.7.7.0 < t 7.y 0 6 u.H.E.c.T.Q.Q.Q.Q.U.j.",
"!.!.!.!.!.M 3.3.4.-.7.7.7.7.r r 7.7.7.7.y q d p.z.P.Q.Q.Q.Q.Q.G.",
"!.!.!.!.!.V &.&.=.1.~ 7.7.Q ~ ~ 7.7.Q 7.Q 7.0 4 s z.Q.Q.Q.Q.Q.H.",
"!.!.!.!.!.N 3.4.4.4.=.( ( ` -.*.) ~ Q ! ! e X !.!.l E.Q.Q.Q.Q.H.",
"!.!.!.!.!.!. .,.=.1.4.1.2.>.Z N ..,.%.@.Y * !.!.!.!.g.Y.Q.Q.Q.H.",
"!.!.!.!.!.!.; Y 1.3.3.&.>.H !.!.M Z A J !.!.!.!.!.!.!.g.Y.Q.Q.H.",
"!.!.!.!.!.!.!.!.C {  .T = !.!.!.!.!.!.!.!.!.!.!.!.!.!.!.!.z.H.n.",
"!.!.!.!.!.!.!.!.!.!.!.!.!.!.!.!.!.!.!.!.!.!.!.!.!.!.!.!.!.!.!.!."
};
