/* XPM */
static char *python3_0[] = {
/* columns rows colors chars-per-pixel */
"32 32 154 2 ",
"   c #7D7D65650000",
".  c #7C7C7C7C3737",
"X  c #2E2E53536E6E",
"o  c #3A3A59596767",
"O  c #27274F4F7171",
"+  c #28284F4F7272",
"@  c #2A2A51517474",
"#  c #2D2D55557979",
"$  c #303055557777",
"%  c #313157577B7B",
"&  c #35355B5B7E7E",
"*  c #494960605C5C",
"=  c #525265655555",
"-  c #B3B394940101",
";  c #BBBB99990101",
":  c #B7B79A9A0D0D",
">  c #ADAD94941414",
",  c #A5A592921919",
"<  c #B5B59A9A1111",
"1  c #C2C29F9F0101",
"2  c #C5C5A2A20202",
"3  c #C8C8A5A50303",
"4  c #C7C7A6A60B0B",
"5  c #C9C9A6A60C0C",
"6  c #CACAA9A90B0B",
"7  c #C9C9A9A91414",
"8  c #C6C6A7A71818",
"9  c #DADABEBE1616",
"0  c #D4D4B6B61B1B",
"q  c #DADABDBD1B1B",
"w  c #CACAAFAF2E2E",
"e  c #D3D3B6B62424",
"r  c #E5E5CBCB1B1B",
"t  c #F3F3DCDC1717",
"y  c #F3F3DDDD1B1B",
"u  c #E3E3CACA2424",
"i  c #E6E6CECE2B2B",
"p  c #EEEED9D92929",
"a  c #F4F4DEDE2323",
"s  c #F3F3DEDE2E2E",
"d  c #EFEFDADA3232",
"f  c #E8E8D1D13939",
"g  c #F2F2DDDD3333",
"h  c #F2F2DEDE3F3F",
"j  c #F6F6E1E12525",
"k  c #F6F6E1E12B2B",
"l  c #F8F8E3E32F2F",
"z  c #F6F6E2E23333",
"x  c #F8F8E4E43232",
"c  c #F5F5E1E13D3D",
"v  c #F8F8E5E53D3D",
"b  c #BDBDB4B47272",
"n  c #C1C1B8B87373",
"m  c #F3F3DFDF4A4A",
"M  c #E0E0C9C95555",
"N  c #F6F6E3E34343",
"B  c #F9F9E6E64444",
"V  c #F5F5E2E24A4A",
"C  c #F8F8E7E74D4D",
"Z  c #F8F8E7E75454",
"A  c #F9F9E8E85555",
"S  c #F9F9E9E95B5B",
"D  c #D9D9C7C77171",
"F  c #F7F7E8E86565",
"G  c #FAFAEAEA6363",
"H  c #F7F7E9E96D6D",
"J  c #FAFAEBEB6B6B",
"K  c #FBFBEDED7474",
"L  c #FBFBEEEE7B7B",
"P  c #36365F5F8585",
"I  c #38385D5D8181",
"U  c #3C3C62628383",
"Y  c #3B3B62628B8B",
"T  c #35356666A5A5",
"R  c #37376868A7A7",
"E  c #3C3C6D6DACAC",
"W  c #3F3F7070AFAF",
"Q  c #4E4E6F6F8F8F",
"!  c #44446A6A9393",
"~  c #505073739696",
"^  c #4D4D7474A4A4",
"/  c #45457373AFAF",
"(  c #4E4E7777A9A9",
")  c #52527979A6A6",
"_  c #42427373B2B2",
"`  c #4B4B7979B6B6",
"'  c #4E4E7C7CB8B8",
"]  c #52527D7DB4B4",
"[  c #51517E7EBABA",
"{  c #57578181B6B6",
"}  c #5C5C8383B6B6",
"|  c #55558282BCBC",
" . c #5C5C8686BDBD",
".. c #67678787A8A8",
"X. c #6E6E8B8BAAAA",
"o. c #61618787B9B9",
"O. c #64648B8BBCBC",
"+. c #6A6A8E8EBCBC",
"@. c #75759595B8B8",
"#. c #5D5D8989C1C1",
"$. c #64648D8DC3C3",
"%. c #67679191C7C7",
"&. c #6A6A9292C6C6",
"*. c #6D6D9595CACA",
"=. c #73739696C3C3",
"-. c #75759898C5C5",
";. c #7C7C9D9DC6C6",
":. c #73739A9ACCCC",
">. c #7A7A9F9FCFCF",
",. c #7E7EA1A1CECE",
"<. c #7B7BA1A1D1D1",
"1. c #ECECDFDF9898",
"2. c #F2F2E3E38484",
"3. c #FBFBEFEF8484",
"4. c #F3F3E6E68E8E",
"5. c #F9F9EDED8B8B",
"6. c #FCFCF0F08787",
"7. c #F5F5E9E99292",
"8. c #FAFAEEEE9292",
"9. c #F9F9EEEE9B9B",
"0. c #FCFCF1F19393",
"q. c #FCFCF2F29A9A",
"w. c #F6F6EBEBA5A5",
"e. c #FBFBF2F2A4A4",
"r. c #FCFCF2F2AAAA",
"t. c #FCFCF4F4B2B2",
"y. c #FEFEF7F7BEBE",
"u. c #80809F9FC2C2",
"i. c #8484A4A4CCCC",
"p. c #8A8AA7A7CBCB",
"a. c #8C8CA9A9CECE",
"s. c #9090ABABCBCB",
"d. c #8787AAAAD6D6",
"f. c #8B8BABABD5D5",
"g. c #8989ACACD8D8",
"h. c #9292AEAED3D3",
"j. c #9595B1B1D4D4",
"k. c #9A9AB4B4D4D4",
"l. c #9393B1B1D8D8",
"z. c #9A9AB7B7DBDB",
"x. c #9E9EB9B9DCDC",
"c. c #A3A3BBBBDBDB",
"v. c #A2A2BDBDE0E0",
"b. c #A5A5C0C0DFDF",
"n. c #ABABC2C2DFDF",
"m. c #B6B6C9C9E1E1",
"M. c #FEFEF9F9CBCB",
"N. c #FDFDF9F9D1D1",
"B. c #FEFEFBFBDCDC",
"V. c #C4C4D5D5EBEB",
"C. c #CBCBDADAEEEE",
"Z. c #D1D1DEDEF0F0",
"A. c #FFFFFFFFFDFD",
"S. c None",
/* pixels */
"S.S.S.S.S.S.S.S.S.S.S.S.S.S.S.S.S.S.S.S.S.S.S.S.S.S.S.S.S.S.S.S.",
"S.S.S.S.S.S.S.S.S.S.S.S.S.@ @ @ @ @ @ S.S.S.S.S.S.S.S.S.S.S.S.S.",
"S.S.S.S.S.S.S.S.S.S.S.& X.s.c.b.x.f.u.~ O S.S.S.S.S.S.S.S.S.S.S.",
"S.S.S.S.S.S.S.S.S.S.Q m.Z.v.g.d.d.g.g.z.a.! @ S.S.S.S.S.S.S.S.S.",
"S.S.S.S.S.S.S.S.S.@ k.C.A.V.<.<.>.:.*.*.<.a.@ S.S.S.S.S.S.S.S.S.",
"S.S.S.S.S.S.S.S.S.@ n.l.C.f.:.:.*.*.*.%.$.d.$ S.S.S.S.S.S.S.S.S.",
"S.S.S.S.S.S.S.S.S.@ c.:.:.:.*.*.&.$.$.#.#.,.& S.S.S.S.S.S.S.S.S.",
"S.S.S.S.S.S.S.S.S.@ c.c.x.z.l.h.f.*.#.#.#.*.& S.S.S.S.S.S.S.S.S.",
"S.S.S.S.S.@ @ + + O @ # # # # % ;.$.| [ [ $.I > 4 2 3 S.S.S.S.S.",
"S.S.S.S.# @.j.x.k.h.a.i.i.;.;.=.,.| ' ` ` $.I n B.B.w.7 S.S.S.S.",
"S.S.S.O ..j.:.$.$.#. .| | ' ' ' ' _ _ _ _ $.# b N.y.M.M S.S.S.S.",
"S.S.S.@ p.-.#.[ ` ` _ _ _ _ _ _ W / _ E ] ] + D y.r.r.2.6 S.S.S.",
"S.S.S.@ j. .` _ W W _ _ _ E / E E E E _ } Y * 1.r.0.0.9.3 S.S.S.",
"S.S.S.I i._ _ _ W W ` } O.O.O.O.o.O.o.{ Y X w r.6.L K 8.4 S.S.S.",
"S.S.S.U =._ W E W ] &.^ Y % # # # @ @ O = 8 7.6.K G S K 5 S.S.S.",
"S.S.S.@ -.E E E _ O.% o . < < < : : : 4 M 8.3.G S C x A 4 S.S.S.",
"S.S.S.@ +./ R R { ! = e 4.t.t.r.e.e.q.q.3.J C v l j j m 2 S.S.S.",
"S.S.S.+ ) ] R R } & , 8.t.q.0.3.L G B z k j j j j j k f 3 S.S.S.",
"S.S.S.S.P o.R T } # : q.6.L J G v x k k k j k j y k c 0 S.S.S.S.",
"S.S.S.S.O ( o.} } @ : q.J G B G S A A Z A V V V V h u 3 S.S.S.S.",
"S.S.S.S.S.O @ # # @ : 3.Z x k S 3 3 2 2 2 2 2 2 2 2 3 S.S.S.S.S.",
"S.S.S.S.S.S.S.S.S.S.2 K k j k A m N V N N N 2 S.S.S.S.S.S.S.S.S.",
"S.S.S.S.S.S.S.S.S.S.2 S j j y s a a a y y c 2 S.S.S.S.S.S.S.S.S.",
"S.S.S.S.S.S.S.S.S.S.1 C k j y y y y y H F g 2 S.S.S.S.S.S.S.S.S.",
"S.S.S.S.S.S.S.S.S.S.2 c z y t y t t a A.A.d 2 S.S.S.S.S.S.S.S.S.",
"S.S.S.S.S.S.S.S.S.S.; q N k a y y t t 8.5.9 - S.S.S.S.S.S.S.S.S.",
"S.S.S.S.S.S.S.S.S.S.S.; 4 i d z g s p r 6 ; S.S.S.S.S.S.S.S.S.S.",
"S.S.S.S.S.S.S.S.S.S.S.S.S.; 1 2 2 1 1 ;   S.S.S.S.S.S.S.S.S.S.S.",
"S.S.S.S.S.S.S.S.S.S.S.S.S.S.S.S.S.S.S.S.S.S.S.S.S.S.S.S.S.S.S.S.",
"S.S.S.S.S.S.S.S.S.S.S.S.S.S.S.S.S.S.S.S.S.S.S.S.S.S.S.S.S.S.S.S.",
"S.S.S.S.S.S.S.S.S.S.S.S.S.S.S.S.S.S.S.S.S.S.S.S.S.S.S.S.S.S.S.S.",
"S.S.S.S.S.S.S.S.S.S.S.S.S.S.S.S.S.S.S.S.S.S.S.S.S.S.S.S.S.S.S.S."
};
