/* XPM */
static char *robocode[] = {
/* columns rows colors chars-per-pixel */
"32 32 147 2 ",
"   c #010101010000",
".  c #080807070505",
"X  c #050504040C0C",
"o  c #090909090A0A",
"O  c #0A0A0E0E1313",
"+  c #0B0B0A0A1E1E",
"@  c #0F0F1E1E1515",
"#  c #121216161B1B",
"$  c #13131A1A1B1B",
"%  c gray10",
"&  c #131324241F1F",
"*  c #060606062020",
"=  c #0E0E0E0E2525",
"-  c #070707072929",
";  c #09090A0A2E2E",
":  c #0D0D10102D2D",
">  c #1C1C1C1C2D2D",
",  c #0B0B0B0B3131",
"<  c #0E0E0D0D3A3A",
"1  c #131312123434",
"2  c #1A1A1A1A3131",
"3  c #131313133A3A",
"4  c #181817173838",
"5  c #1D1D1D1D3F3F",
"6  c #1B1B26263D3D",
"7  c #252525252424",
"8  c #2A2A2A2A2A2A",
"9  c #303030302F2F",
"0  c #222222223434",
"q  c #2D2D2D2D3434",
"w  c #2A2A2A2A3C3C",
"e  c gray20",
"r  c #363636363C3C",
"t  c #141414144646",
"y  c #1F1F1F1F4343",
"u  c #161616164B4B",
"i  c #1B1B1C1C4D4D",
"p  c #1D1D1D1D5656",
"a  c #1E1E1E1E5A5A",
"s  c #1E1E24244F4F",
"d  c #262626264444",
"f  c #2C2C2C2C4242",
"g  c #222222224D4D",
"h  c #2D2D2D2D4B4B",
"j  c #313131314444",
"k  c #3D3D3D3D4646",
"l  c #353535354F4F",
"z  c #3D3D3D3D4B4B",
"x  c #252525255353",
"c  c #292929295656",
"v  c #242424245C5C",
"b  c #282828285959",
"n  c #393939395353",
"m  c #1E1E1E1E6B6B",
"M  c #1F1F1F1F7676",
"N  c #212121216262",
"B  c #222222226B6B",
"V  c #303030306363",
"C  c #3D3D3D3D6A6A",
"Z  c #212121217171",
"A  c #292929297474",
"S  c #2A2A2A2A7A7A",
"D  c #3F3F4F4F6262",
"F  c gray27",
"G  c #41414B4B4040",
"H  c #424242424B4B",
"J  c gray29",
"K  c #515151514C4C",
"L  c #414141415454",
"P  c #494949495252",
"I  c #454545455D5D",
"U  c #4A4A4A4A5D5D",
"Y  c #5A5A5A5A5656",
"T  c #5A5A5A5A5A5A",
"R  c #626262625E5E",
"E  c #454545456464",
"W  c #4D4D4D4D6161",
"Q  c #555555556464",
"!  c #595959596262",
"~  c #555555556C6C",
"^  c #595959596B6B",
"/  c #535353537171",
"(  c #50505E5E7373",
")  c #5F5F5F5F7171",
"_  c #646464646464",
"`  c #6A6A6A6A6666",
"'  c #6D6D6D6D6D6D",
"]  c #737373736D6D",
"[  c #606060607474",
"{  c gray46",
"}  c #797979797575",
"|  c #727272727878",
" . c #7C7C7C7C7A7A",
".. c #818181817F7F",
"X. c #222222228383",
"o. c #2D2D2D2D8181",
"O. c #2C2C2C2C8B8B",
"+. c #303030308A8A",
"@. c #2B2B2B2B9393",
"#. c #313131319696",
"$. c #393939399292",
"%. c #313131319999",
"&. c #3E3E3E3EA2A2",
"*. c #35353535AFAF",
"=. c #464646469F9F",
"-. c #5B5B5B5B9595",
";. c #505050509F9F",
":. c #656565658A8A",
">. c #717171718181",
",. c #6E6E6E6E9191",
"<. c #4C4C4C4CA5A5",
"1. c #54545454A2A2",
"2. c #52525252ABAB",
"3. c #57575858ABAB",
"4. c #5C5C5C5CAEAE",
"5. c #55555454B0B0",
"6. c #7B7B7B7BABAB",
"7. c #6D6D6D6DB0B0",
"8. c #838383838282",
"9. c #898989898181",
"0. c gray55",
"q. c #909090908D8D",
"w. c #959595959494",
"e. c #979798989595",
"r. c #9A9A97979A9A",
"t. c #9C9C9C9C9A9A",
"y. c #A1A1A1A19D9D",
"u. c #A4A4A4A4A3A3",
"i. c #AAAAAAAAA7A7",
"p. c gray67",
"a. c #B1B1B1B1B1B1",
"s. c #BBBBBBBBBBBB",
"d. c #C1C1C1C1BFBF",
"f. c #9A9A9A9AEBEB",
"g. c #AFAFAFAFFCFC",
"h. c #B7B7B7B7FFFF",
"j. c #BFBFBFBFFFFF",
"k. c #C3C3C3C3C3C3",
"l. c #CDCDCDCDCCCC",
"z. c #D2D2D2D2D2D2",
"x. c #D8D8D8D8D3D3",
"c. c #DADADADADBDB",
"v. c #C7C7C7C7F5F5",
"b. c #CBCBCBCBF4F4",
"n. c #E4E4E4E4E3E3",
"m. c #ECECECECEBEB",
"M. c #F4F4F4F4F3F3",
/* pixels */
"                            . ' 8..                             ",
"                            o a.a.o                             ",
"                          . 9 u.p.8                             ",
"                          . q u.p.8 .                           ",
"                              _ '                               ",
"        o e e e e e o o     .  . ..     o o e 9 e e e o         ",
"        % |  . .q -.4.1.( s 4 }  .4 x D ;.4.-.w  . .| %         ",
"        8 y.u.y.I =.%.%.2.*.S } } S *.2.%.%.<.I y.u.u.7         ",
"        8 z.c.x.~ 1.2.<.2.@.b ` ` x O.4.<.2.1.~ x.c.z.7         ",
"        8.M.M.M.) $.<.=.$.v R s.s.R x &.<.<.$.) M.M.M.8.        ",
"      o k.z.l.l./ M O.O.#.v  .n.m...c #.O.@.X.~ l.l.z.l..       ",
"      o k.u.u.y.L m S O.#.m } c.c.} b %.O.S B L y.t.u.k.o       ",
"      o  .| ' ' q a A O.B y  .m.M.8.d Z O.A B q ' ' '  .o       ",
"          F J F 7 v M b _ F H 0.0.H F _ v m v 7 J J F .         ",
"        % _ ` _ e x E ] U g I ! ! I g U ] U x e _ _ _ %         ",
"        % q.w.0.z w K V a ] >.:.:.>.] a V J w z q.w.q.%         ",
"        0.s.s.s.I h n p J ) X.@.@.X.^ P a n h U s.s.s.0.        ",
"      o l.m.m.m.~ ~ / 7.,.W E E E E W ,.7./ ~ ~ m.m.m.l.o       ",
"      . z.m.m.m.Q ) _ C f.j.v.b.v.v.v.f.C _ ) Q m.m.m.l..       ",
"        { s.s.s.n ^ | < l 6.g.h.h.g.6.l < | ^ L s.s.s.|         ",
"        % 9.0.0.j W } u u q T T T T q p t | W j 0.0.9.%         ",
"        % T T T 0 H ..y p i 5 y y y i p d } L 0 Y T T %         ",
"        X F J J > z 9.d t u u u t u u t d 9.z > J K J .         ",
"      o 8.} } } w w w.0 2 f w w w w f 2 0 w.f w } |  .>.o       ",
"      o k.p.p.p.z 0 _ ' w.w.w.e.w.w.w.w.' ! 0 z i.i.p.k.o       ",
"      o l.n.n.n.Q * } u.r.t.t.t.t.t.t.t.y. .* ! n.n.n.l.o       ",
"        8.m.m.m.! - k k G z z z z z z k H z - ! m.m.m.8.        ",
"        7 s.k.d.P ; < = & < < < 3 < 3 , , < , P d.d.s.7         ",
"        7 w.w.w.j ; 6 1 + = = = = = = = 1 3 - r w.w.w.7         ",
"        # ` ' ' e $ & X B S S S S A S N X O # r ' ' ` %         ",
"        o 7 7 8 7 7     p p p p p p a t     7 7 8 8 7 o         ",
"                                                                "
};
