/* XPM */
static char *screenruler[] = {
/* columns rows colors chars-per-pixel */
"32 32 71 1 ",
"  c #666654540000",
". c #D7D7C0C00000",
"X c #D9D9C3C30C0C",
"o c #D9D9C4C40F0F",
"O c #DADAC5C51313",
"+ c #DADAC5C51616",
"@ c #DCDCC7C71D1D",
"# c #DCDCC9C92323",
"$ c #DDDDC9C92626",
"% c #DDDDCACA2828",
"& c #DEDECBCB2E2E",
"* c #DFDFCCCC3232",
"= c #DFDFCDCD3535",
"- c #E0E0CFCF3C3C",
"; c #D7D7C6C64040",
": c #D8D8C7C74040",
"> c #E1E1D0D04040",
", c #E2E2D1D14444",
"< c #E3E3D6D66B6B",
"1 c #E3E3D6D66D6D",
"2 c #E7E7DADA6A6A",
"3 c #E8E8DBDB6D6D",
"4 c #E4E4D7D77070",
"5 c #E5E5D9D97676",
"6 c #E9E9DCDC7373",
"7 c #E5E5DADA7A7A",
"8 c #E6E6DBDB7F7F",
"9 c #EAEADEDE7B7B",
"0 c #E7E7DDDD8484",
"q c #E8E8DEDE8888",
"w c #E9E9DFDF8D8D",
"e c #EBEBE0E08080",
"r c #ECECE1E18484",
"t c #ECECE2E28888",
"y c #EDEDE3E38D8D",
"u c #EAEAE1E19292",
"i c #EEEEE4E49191",
"p c #EBEBE2E29797",
"a c #EEEEE5E59595",
"s c #ECECE3E39B9B",
"d c #EFEFE6E69A9A",
"f c #EFEFE6E69C9C",
"g c #EDEDE5E5A1A1",
"h c #EEEEE6E6A6A6",
"j c #EFEFE7E7AAAA",
"k c #F0F0E8E8A0A0",
"l c #F1F1E9E9A4A4",
"z c #F2F2EAEAA9A9",
"x c #F0F0E9E9AFAF",
"c c #F3F3ECECB1B1",
"v c #F1F1EAEAB4B4",
"b c #F1F1EBEBB8B8",
"n c #F4F4EEEEBABA",
"m c #F2F2EDEDBDBD",
"M c #F5F5EFEFBFBF",
"N c #F3F3EEEEC2C2",
"B c #F6F6F0F0C4C4",
"V c #F6F6F1F1C8C8",
"C c #F5F5F1F1CCCC",
"Z c #F7F7F3F3CDCD",
"A c #F6F6F2F2D1D1",
"S c #F7F7F4F4D6D6",
"D c #F8F8F4F4D1D1",
"F c #F9F9F5F5D6D6",
"G c #F8F8F5F5DADA",
"H c #F9F9F6F6DADA",
"J c #FAFAF7F7DEDE",
"K c #FAFAF7F7E4E4",
"L c #FBFBF9F9E8E8",
"P c #FCFCFAFAEDED",
"I c gray100",
/* pixels */
"                                ",
" 333333333333333333333333333331 ",
" 2,,,,,,,,,,,,,,,,,,,,,,,,,,,>< ",
" 3,,,, , : ; : , : : : : : : >4 ",
" 6,,,, , ; ; ; , ; ; ; ; ; ; >5 ",
" 9,,,, , ; ; ; , ; ; ; ; ; ; >7 ",
" 9,,,, , ; ; ; , ; ; ; ; ; ; >8 ",
" e,,,, , ; ; ; , ; ; ; ; ; ; >0 ",
" r,,,, , ; ; ; , ; ; ; ; ; ; >q ",
" t,,,, ,,,,,,,,, ,,,,,,,,, , >w ",
" y,,,, ,,,,,,,,, ,,,,,,,,, , >u ",
" i,,,, ,,,,,,,,,,,,,,,,,,, ,,>p ",
" a,,,, ,,,,,,,,,,,,,,,,,,, ,,>s ",
" d>,,,,,,,,,,,,,,,,,,,,,,,,,,>g ",
" f+$=   ,,,,,,,,,,,,,,,,,, ,,+h ",
" k... o %*-,,,,,,,,,,,,,,, ,@.j ",
" l... . ....XO+@#$%&&**&&% $..x ",
" z... . .................. ...v ",
" x...   .................. ...b ",
" c............................m ",
" n............................N ",
" b............................B ",
" M............................C ",
" B............................A ",
" V............................S ",
" C............................G ",
" D............................K ",
" F............................K ",
" G............................L ",
" J............................P ",
" IIIIIIIIIIIIIIIIIIIIIIIIIIIIII ",
"                                "
};
