/* XPM */
static char *seahorse[] = {
/* columns rows colors chars-per-pixel */
"32 32 185 2 ",
"   c #69696B6B6767",
".  c #777778787474",
"X  c #78787A7A7575",
"o  c #D0D05E5E0303",
"O  c #D4D463630404",
"+  c #D8D865650303",
"@  c #DADA6A6A0707",
"#  c #D0D062620808",
"$  c #D5D568680B0B",
"%  c #D2D26B6B1212",
"&  c #D9D974741A1A",
"*  c #E3E36F6F0505",
"=  c #E7E772720404",
"-  c #E7E773730808",
";  c #EAEA76760808",
":  c #ECEC79790909",
">  c #F4F47C7C0606",
",  c #F5F57F7F0909",
"<  c #C9C974742D2D",
"1  c #D3D373732222",
"2  c #DCDC7F7F2D2D",
"3  c #D0D07C7C3434",
"4  c #F4F480800909",
"5  c #EAEA80801A1A",
"6  c #DEDE82823030",
"7  c #DADA88883F3F",
"8  c #EAEA8A8A2E2E",
"9  c #F1F18E8E2B2B",
"0  c #E1E188883636",
"q  c #A6A68B8B6B6B",
"w  c #D8D88E8E4848",
"e  c #D9D995955B5B",
"r  c #E3E395954444",
"t  c #F7F79B9B4040",
"y  c #E6E69E9E5858",
"u  c #E6E6A1A14F4F",
"i  c #EEEEADAD4F4F",
"p  c #E9E9A5A55E5E",
"a  c #FAFAB9B95252",
"s  c #E6E6A6A66666",
"d  c #E7E7A9A96969",
"f  c #EBEBABAB6969",
"g  c #F3F3AFAF6161",
"h  c #F8F8B2B26262",
"j  c #E4E4AFAF7676",
"k  c #EDEDB4B47575",
"l  c #EDEDBEBE7171",
"z  c #F3F3B9B97474",
"x  c #FAFABEBE7777",
"c  c #FBFBC6C66262",
"v  c #FBFBC9C96666",
"b  c #FCFCCDCD6B6B",
"n  c #FDFDD5D57676",
"m  c #3B3B6B6BA8A8",
"M  c #41416F6FAAAA",
"N  c #4D4D7B7BB4B4",
"B  c #52528181B7B7",
"V  c #58588686BBBB",
"C  c #7F7F9999B6B6",
"Z  c #72729494BBBB",
"A  c #62628E8EC1C1",
"S  c #65659191C3C3",
"D  c #6C6C9393C1C1",
"F  c #76769898C3C3",
"G  c #7A7A9E9EC6C6",
"H  c #70709A9ACACA",
"J  c #7A7AA2A2CDCD",
"K  c #7A7AA5A5D1D1",
"L  c #858588888787",
"P  c #8A8A8B8B8686",
"I  c #8D8D8E8E8989",
"U  c #8F8F90908C8C",
"Y  c #919193938F8F",
"T  c #959597979292",
"R  c #969698989292",
"E  c #AAAAA0A09292",
"W  c #A2A2A3A39F9F",
"Q  c #A2A2A3A3A0A0",
"!  c #A8A8AAAAA6A6",
"~  c #ADADAFAFACAC",
"^  c #AFAFB0B0ADAD",
"/  c #BCBCB5B5A7A7",
"(  c #B1B1B2B2AEAE",
")  c #A4A4AEAEB7B7",
"_  c #B6B6B6B6B4B4",
"`  c #B4B4B8B8B1B1",
"'  c #BBBBBDBDB5B5",
"]  c #BCBCBEBEBABA",
"[  c #CECEADAD8787",
"{  c #D2D2B3B39B9B",
"}  c #E1E1B0B08787",
"|  c #EBEBBABA8888",
" . c #E1E1B6B69393",
".. c #E1E1BABA9A9A",
"X. c #C3C3BEBEB1B1",
"o. c #EFEFC7C78F8F",
"O. c #F5F5C1C18585",
"+. c #FEFEDADA8F8F",
"@. c #EEEEC5C59696",
"#. c #FBFBCDCD9393",
"$. c #F4F4CECE9B9B",
"%. c #FDFDDDDD9595",
"&. c #F3F3D4D49D9D",
"*. c #FDFDE5E58D8D",
"=. c #FCFCE3E39393",
"-. c #FAFAE8E89191",
";. c #FEFEE3E39D9D",
":. c #FEFEF2F29C9C",
">. c #C2C2C0C0B7B7",
",. c #C2C2C2C2BEBE",
"<. c #E2E2CCCCABAB",
"1. c #F0F0CBCBA8A8",
"2. c #F6F6D7D7AFAF",
"3. c #F5F5D8D8AFAF",
"4. c #FAFADDDDAEAE",
"5. c #FDFDE4E4A4A4",
"6. c #FDFDE3E3ACAC",
"7. c #FEFEEAEAAAAA",
"8. c #FCFCE3E3BDBD",
"9. c #FEFEEBEBBBBB",
"0. c #FEFEF7F7B5B5",
"q. c #80809F9FC3C3",
"w. c #8888A6A6CACA",
"e. c #8686A8A8CDCD",
"r. c #9393AEAECACA",
"t. c #9F9FB6B6CECE",
"y. c #8C8CAEAED3D3",
"u. c #9494B0B0D2D2",
"i. c #9E9EBBBBDADA",
"p. c #B1B1BCBCCCCC",
"a. c #ABABC2C2DEDE",
"s. c #BDBDC9C9D3D3",
"d. c #BABACACADBDB",
"f. c #B4B4CCCCE5E5",
"g. c #B9B9CDCDE3E3",
"h. c #BEBED2D2E9E9",
"j. c #C5C5C6C6C3C3",
"k. c #C7C7C9C9C4C4",
"l. c #C9C9CBCBC6C6",
"z. c #CCCCCECEC9C9",
"x. c #D1D1D2D2CECE",
"c. c #D4D4D5D5D2D2",
"v. c #D7D7D8D8D4D4",
"b. c #D8D8D9D9D5D5",
"n. c #DCDCDDDDDADA",
"m. c #F5F5DCDCC2C2",
"M. c #DFDFE0E0DDDD",
"N. c #F7F7E1E1C2C2",
"B. c #FBFBE6E6C7C7",
"V. c #FEFEEDEDC3C3",
"C. c #FDFDE9E9CACA",
"Z. c #FEFEF0F0C8C8",
"A. c #E1E1E1E1DFDF",
"S. c #F8F8E7E7D6D6",
"D. c #FCFCEDEDD3D3",
"F. c #FCFCEFEFD9D9",
"G. c #FEFEF3F3D3D3",
"H. c #FFFFFAFAD3D3",
"J. c #FEFEF3F3DBDB",
"K. c #CACAD8D8E7E7",
"L. c #C1C1D5D5EAEA",
"P. c #CDCDDCDCECEC",
"I. c #D1D1DFDFEEEE",
"U. c #D4D4E2E2F1F1",
"Y. c #DADAE6E6F3F3",
"T. c #DEDEE8E8F3F3",
"R. c #E4E4E5E5E2E2",
"E. c #E7E7E8E8E7E7",
"W. c #E8E8E8E8E6E6",
"Q. c #EBEBEBEBEAEA",
"!. c #FDFDF5F5E3E3",
"~. c #FFFFFAFAE4E4",
"^. c #F0F0F1F1EFEF",
"/. c #FDFDF7F7E8E8",
"(. c #FFFFF9F9ECEC",
"). c #E4E4ECECF5F5",
"_. c #EAEAF1F1F7F7",
"`. c #ECECF2F2F9F9",
"'. c #F5F5F5F5F4F4",
"]. c #F9F9F7F7F5F5",
"[. c #FDFDFBFBF5F5",
"{. c #F2F2F6F6FAFA",
"}. c #F5F5F9F9FCFC",
"|. c #FBFBFCFCFCFC",
" X c None",
/* pixels */
" X X X X X X X X X X X X X X X X X X X X X X X X X X X X X X X X",
" X X X X X X X X X X X X X X X X X X X X X X X X X X- * *  X X X",
" X X X X X X X X X> , , 4 >  X X X X X X X X; = 8 O.B.D.f @  X X",
" X X X X X X X> t 8.J.J.D.x >  X X X: : 5 z 8.!.m.| y p 1.+  X X",
" X X X X X X> #.(.9.5.6.9.[.G.9 , g 4.!.S.@.d u i #.6.%.J.#  X X",
" X X X X X> h (.%.+.%.;.5.7.Z.[.[.S.&.l c 3.!.[.J.F.2.|.k o  X X",
" X X X X X> C.[.(.!.V.5.5.-.*.*.-.*.9.~.J.F.O 7 (.6 # 2 #  X X X",
" X X X X X9 ].<.[ k [.9.n n n n :.0.[.p D.$.O O % #  X X X X X X",
" X X X Xq 0 >.z.z./ O.~.b b b n H.|.k + $ %  X X X X X X X X X X",
" X X X XE X.b.E.M.,.j G.c b v 4./.& < q.G  X X X X X X X X X X X",
" X X XY ] A.A.' X./ N.Z.c a a /.s ..{.|._.L.y.K  X X X X X X X X",
" X X X` n.A.>.W.B.!.Z.*.b a 6.J.1 ).U.P.I.).}.|.T.a.K H  X X X X",
" X X Xl.^.l.w x [.G.=.=.%.J.!.w { _.}.`.Y.P.f.f.P.).|.{.g.A  X X",
" X X,.Q.A.s.p.6 r C.!.(.(.o.% } }._.i.|.}.).{.`.P.h.f.f.U.y. X X",
" X Xn.'.x.Q.r.d. .3 o # % e X.D S A V a.I.V A |.}.|.).).Y.D  X X",
" Xz.'.W.l.Y E.r.J g.P.P.K.e.w.L  X X XV B  XN ).u.F }.}.P.M  X X",
" Xn.}.R. X! T b.I.t.G Z C ) ^.~  X X X X X X XM  Xm a.w.m  X X X",
"x.Q.]. X' z.c.W U Y ] |.M.x.z.'.I  X X X X X X X X X X X X X X X",
"v.|.^.j.l.Q.j. X X XI j.E.].j.R.j. X X X X X X X X X X X X X X X",
"b.].n.z.Q.b.'  X X X X XP ].n.' '.T  X X X X X X X X X X X X X X",
"x.'.A.Q.b.]  X X X X X XT |.].x.z.n.T  X X X X X X X X X X X X X",
"l.v.A.k.X. X X X X X X XT ` ^ }.' '.R  X X X X X X X X X X X X X",
" X,.' '  X X X X X X X X X XI R.n.j.Q.I  X X X X X X X X X X X X",
" X X X X X X X X X X X X X XQ |.Q.] E._  X X X X X X X X X X X X",
" X X X X X X X X X X X X X XQ n.].W.] ].Y  X X X X X X X X X X X",
" X X X X X X X X X X X X X X XP z.}.z.n.j. X X X X X X X X X X X",
" X X X X X X X X X X X X X X XP Q.].'.,.j. X X X X X X X X X X X",
" X X X X X X X X X X X X X X XX ! c.R.( P  X X X X X X X X X X X",
" X X X X X X X X X X X X X X X X X  .  X X X X X X X X X X X X X",
" X X X X X X X X X X X X X X X X X X X X X X X X X X X X X X X X",
" X X X X X X X X X X X X X X X X X X X X X X X X X X X X X X X X",
" X X X X X X X X X X X X X X X X X X X X X X X X X X X X X X X X"
};
