/* XPM */
static char *simutrans[] = {
/* columns rows colors chars-per-pixel */
"32 32 14 1 ",
"  c black",
". c #202000000000",
"X c #202020200000",
"o c #606000000000",
"O c #606060604040",
"+ c #808020200000",
"@ c #C0C020200000",
"# c #FFFF60600000",
"$ c #FFFFFFFF4040",
"% c #6060A0A0FFFF",
"& c #808080808080",
"* c #C0C0C0C0FFFF",
"= c gray100",
"- c None",
/* pixels */
"------------%%-----%%-----------",
"-----------%%%%---%%%%----------",
"-----------%%%%---%%%%----------",
"-----%%----%%%%%-%%%%%---%%-----",
"----%%%%--%%%%%%%%%%%%%-%%%%----",
"----%%%%%%%%%%%%%%%%%%%%%%%%%---",
"--X-%%%%%%%%%%%%%%%%%%%%%%%%%---",
"XXXX-%%%%%%%%-------%%%%%%%%----",
"&&XX&.%%%%% X---------%%%%%-----",
"O&&OO.%%%%X  X--OO-----%%%%%----",
"O%%%.%%%%O&   OOOOOO----%%%%----",
"%%%%%%%%OX*X*OOOOOO  ---%%%%%---",
"%%%%%%%O&&&XO**OO  O ----%%%%%%%",
"&%%%%%%OOO&XOOO  &** O --%%%%%%%",
"--&%%%%+OO&XO*O &*& &&OO %%%%%%%",
"---%%%%@+O&XO*OOO&&*& &&OO &%%%-",
"---%%%%@@@+oOOO OOO&&* O*& & %--",
"-%%%%%%-@+##  O&  OOO&&&OO &OO -",
"%%%%%%%%--o     &&  OO O&&OO**O ",
"%%%%%%%%----  =O  &&    OO&OO&O ",
"%%%%%%%%------@@=O  &&    OO*&O ",
"-%%--%%%%-------@@=O  &&   &&O &",
"------%%%%--------@@=O  &&  OO $",
"------%%%%%---------@@=O  &   @*",
"----%%%%%%%%%------%%%@@  $ @@  ",
"---%%%%%%%%%%%%%%%%%%%%%  *@  --",
"---%%%%%%%%%%%%%%%%%%%%%%%  %---",
"----%%%%--%%%%%%%%%%%%--%%%%..--",
"-----%%----%%%%%%%%%%----%%---..",
"----------%%%%%--%%%%%----------",
"----------%%%%%--%%%%%----------",
"-----------%%%----%%%-----------"
};
