/* XPM */
static char *smart[] = {
/* columns rows colors chars-per-pixel */
"32 32 141 2 ",
"   c #6F6F71716767",
".  c #6F6F76767979",
"X  c #7F7F7C7C7272",
"o  c #8E8E57572525",
"O  c #94945CDD2626",
"+  c #95955E5E2828",
"@  c #9A9A61612727",
"#  c #9BBB634328E9",
"$  c #A0A066662828",
"%  c #A4796AC028D3",
"&  c #A8A86D6D28A9",
"*  c #AEAE70702727",
"=  c #ADAD70F12929",
"-  c #B1B175752BAC",
";  c #B7B778782929",
":  c #B8B87C7C2E2E",
">  c #ABAB77773636",
",  c #B6367F7F3BBC",
"<  c #C1C184843030",
"1  c #B6B685854343",
"2  c #BEBE91914F4F",
"3  c #979789896565",
"4  c #9F9F8D8D6B6B",
"5  c #9F9F83837171",
"6  c #9E9E93937979",
"7  c #ABAB87876060",
"8  c #A4A48C8C6464",
"9  c #AEAE8D8D6464",
"0  c #A7A787876969",
"q  c #A2A293936868",
"w  c #A3A38D8D7F7F",
"e  c #AEAE9D9D7B7B",
"r  c #C0C08F8F4646",
"t  c #CBCB9A9A4D4D",
"y  c #CCCC9D9D5151",
"u  c #D52AA2F84EF9",
"i  c #CACAA6A65F5F",
"p  c #D433A4445313",
"a  c #D7D7A9A95555",
"s  c #DCA9AC5F553B",
"d  c #D5D5A9A95959",
"f  c #DB5BAE2E5959",
"g  c #D7D7B9B97E7E",
"h  c #E0E0B7B76F6F",
"j  c #E8E8C0C07373",
"k  c #F7F7CDCD7B7B",
"l  c #7D7D9797C7C7",
"z  c #7A7A9797CECE",
"x  c #7A7A9A9AD8D8",
"c  c #71719898E3E3",
"v  c #7A7A9E9EE0E0",
"b  c #72729F9FF3F3",
"n  c #7A7AA7A7FFFF",
"m  c #7C7CA9E9FF7F",
"M  c gray53",
"N  c #8B8B8B8B8484",
"B  c #82828B8B9999",
"V  c #878792929999",
"C  c #8D8D95159E9E",
"Z  c #945494D49514",
"A  c #979798989898",
"S  c #9CF29CF29CF2",
"D  c #A0A08B8B8080",
"F  c #A4A49C9C8686",
"G  c #A9A9A7A79999",
"H  c #99999E9EA2A2",
"J  c #88889797B4B4",
"K  c #90909F9FB3B3",
"L  c #A6A69D9DA0A0",
"P  c #9595A3A3B5B5",
"I  c #A222A222A222",
"U  c #A5A5A7A7A9A9",
"Y  c #AF2FAC2CAE2E",
"T  c #B6B6B2B2A2A2",
"R  c #A423ABABB5B5",
"E  c #AD46B1B1B24B",
"W  c #B232B433B5B5",
"Q  c #B9B9BA3AB9B9",
"!  c #C8C8BCBC9595",
"~  c #F9F9D6D68A8A",
"^  c #F8F8DADA9696",
"/  c #CECEC9C9A8A8",
"(  c #F9F9E0E0A2A2",
")  c #F9F9E4E4AAAA",
"_  c #FBFBECECB4B4",
"`  c #FCFCEFEFBDBD",
"'  c #83839B9BC9C9",
"]  c #AAAAB3B3C5C5",
"[  c #A4A4B333C949",
"{  c #A5A5B8B8D4D4",
"}  c #9898B3B3E5E5",
"|  c #83D9AE58FDA7",
" . c #8E8EB6B6FEFE",
".. c #9494B9B9FFFF",
"X. c #9E9EBFBFFFFF",
"o. c #A121BF3FFFFF",
"O. c #C2C2BEBEC3C3",
"+. c #B6B6C2C2DBDB",
"@. c #9D9DCFCFFFFF",
"#. c #B1B1C6C6EBEB",
"$. c #B9B9CDCDEBEB",
"%. c #A4A4C242FFFF",
"&. c #ACACC6C6FFFF",
"*. c #AD2DCBCBFFFF",
"=. c #A2A2D1D1FFFF",
"-. c #AD6DD3D3FFFF",
";. c #B7B7D2D2FFFF",
":. c #BDBDD3D3FFFF",
">. c #C403C403C484",
",. c #C0C0C9C9C6C6",
"<. c #C7C7CBCBCACA",
"1. c #CB75CB75CB75",
"2. c #D0D0D8D8CACA",
"3. c #C3C3CCCCD2D2",
"4. c #CBCBCECED1D1",
"5. c #D453D4A1D43A",
"6. c #DC00DC24DC00",
"7. c #FAFAF5F5C9C9",
"8. c #E3E3EAEAD1D1",
"9. c #C2C2D3D3EBEB",
"0. c #CACAD9D9EBEB",
"q. c #DB30DE88E338",
"w. c #C3C3D7D7FFFF",
"e. c #CBCBDCDCFFFF",
"r. c #DEDEE0E0E1E1",
"t. c #D5D5E0E0EBEB",
"y. c #DADAE363F575",
"u. c #D6D6EAEAFFFF",
"i. c #DBDBE9E9FFFF",
"p. c #E46CE48EE4D3",
"a. c #E6E6E7E7E8E8",
"s. c #EBEBEC00EC2B",
"d. c #E0E0E7E7F4F4",
"f. c #EE6EEFEFF1F1",
"g. c #E7E7EFEFFFFF",
"h. c #EFEFF0F0F2F2",
"j. c #F465F482F4BB",
"k. c #F2F2F676FCFC",
"l. c #F68FF95FFECB",
"z. c #FA6BFB17FD19",
"x. c None",
/* pixels */
"x.x.x.x.x.x.x.x.x.x.x.x.x.x.x.x.x.x.x.x.x.x.x.x.x.x.x.x.x.x.x.x.",
"x.x.x.x.x.x.x.x.x.x.x.x.x.x.x.x.x.x.x.x.x.x.x.x.x.x.x.x.x.x.x.x.",
"x.x.x.x.x.x.x.x.x.x.x.x.x.x.x.x.x.x.x.x.x.x.x.x.x.x.x.x.x.x.x.x.",
"x.x.x.x.x.x.x.x.x.x.x.x.x.x.x.x.x.x.x.x.x.x.x.x.x.x.x.x.x.x.x.x.",
"x.x.x.x.x.x.x.x.x.x.x.x.x.x.x.x.x.x.x.x.x.x.x.x.x.x.x.x.x.x.x.x.",
"x.x.x.x.x.x.x.x.x.x.x.x.x.x.q.3.x.x.x.x.x.x.x.x.x.x.x.x.x.x.x.x.",
"x.x.x.x.x.x.x.x.x.x.x.x.x.,.8.2.4.x.T d F x.x.x.x.x.x.x.x.x.x.x.",
"x.x.x.x.x.x.x.x.x.x.x.<./ _ ` 7.E G f s a 6 x.x.x.x.x.x.x.x.x.x.",
"x.x.x.x.x.x.x.x.x.x.x.! ~ ^ ( ) g s s s a p 4 x.x.x.x.x.x.x.x.x.",
"x.x.x.x.x.x.x.x.x.x.x.Q j k h , * < s s s p y 8 x.x.x.x.x.x.x.x.",
"x.x.x.x.x.x.x.x.x.x.x.x.e , @ # & ; : u s a p t 8 x.x.x.x.x.x.x.",
"x.x.x.x.x.x.x.x.x.x.x.x.[ 5 O + $ ; = - u s p y 2 N x.x.x.x.x.x.",
"x.x.x.x.x.x.x.x.x.x.x.x.{ | D o @ = & % % t a y X x.x.x.x.x.x.x.",
"x.x.x.x.x.x.x.x.x.x.x.x.{ m | F + & % # # @ r   H x.x.x.x.x.x.x.",
"x.x.x.x.x.x.x.x.6.1.5.>.R v m | L % # # @ > p d i q V x.x.x.x.x.",
"x.x.x.x.x.x.x.5.s.j.h.6.6.5.' |  .Y @ # 1 t p p 3 Z x.x.x.x.x.x.",
"x.x.x.x.x.x.6.h.z.z.j.p.p.k.q.z ..X.O.w 0 7 9 . Q x.x.x.x.x.x.x.",
"x.x.x.x.x.x.5.j.z.z.j.a.h.z.z.] b %.:.X.%.o.o.I x.x.x.x.x.x.x.x.",
"x.x.x.x.x.p.p.s.j.z.j.s.z.z.z.q.c n w.X.%.&.#.E x.x.x.x.x.x.x.x.",
"x.x.x.x.x.5.6.p.s.f.Q Q f.s.r.5.z n e.&.*.-.$.E x.x.x.x.x.x.x.x.",
"x.x.x.x.x.5.6.p.f.h.A S 8.h.p.5.l m u.;.-.-.9.E x.x.x.x.x.x.x.x.",
"x.x.x.x.x.5.k.l.z.z.p.p.z.j.s.6.x | i.:.=.=.0.E x.x.x.x.x.x.x.x.",
"x.x.x.x.x.a.r.z.z.j.s.z.z.z.j.] } | g.e.@.-.t.E x.x.x.x.x.x.x.x.",
"x.x.x.x.x.x.O.k.k.p.a.j.z.z.j.C y.w.k.i.u.k.+.W x.x.x.x.x.x.x.x.",
"x.x.x.x.x.x.x.>.a.6.p.h.j.z.S A K d.z.z.y.J A x.x.x.x.x.x.x.x.x.",
"x.x.x.x.x.x.x.1.U >.p.s.1.M I x.x.P y.[ B x.x.x.x.x.x.x.x.x.x.x.",
"x.x.x.x.x.x.x.x.x.Y Z Z S x.x.x.x.x.R W x.x.x.x.x.x.x.x.x.x.x.x.",
"x.x.x.x.x.x.x.x.x.x.x.x.x.x.x.x.x.x.x.x.x.x.x.x.x.x.x.x.x.x.x.x.",
"x.x.x.x.x.x.x.x.x.x.x.x.x.x.x.x.x.x.x.x.x.x.x.x.x.x.x.x.x.x.x.x.",
"x.x.x.x.x.x.x.x.x.x.x.x.x.x.x.x.x.x.x.x.x.x.x.x.x.x.x.x.x.x.x.x.",
"x.x.x.x.x.x.x.x.x.x.x.x.x.x.x.x.x.x.x.x.x.x.x.x.x.x.x.x.x.x.x.x.",
"x.x.x.x.x.x.x.x.x.x.x.x.x.x.x.x.x.x.x.x.x.x.x.x.x.x.x.x.x.x.x.x."
};
