/* XPM */
static char *Spider32x32[] = {
/* columns rows colors chars-per-pixel */
"32 32 6 1 ",
"  c black",
". c #080805050202",
"X c gray5",
"o c #1B1B10100404",
"O c #EAEA8E8E2525",
"+ c None",
/* pixels */
"++++++++++ +++++++++++ +++++++++",
"+++++++++  +++++++++++  ++++++++",
"+++++++++  ++++++++++++ ++++++++",
"+++++++++ +++++++++++++  +++++++",
"+++++++++ ++++++++++++++ +++++++",
"+++++++++  +++++++++++++ +++++++",
"+++++++++  +++++++++++++ +++++++",
"+++++++++  ++++++++++++  +++++++",
"++++++++++ ++++ +++++++  +++++++",
"++++++++++ +++   +++++  ++++++++",
"++++++++++ ++  O. ++++  ++++++++",
"++++++++++ + o OO ++++  ++++++++",
"++++++++++   O OO  ++  +++++++++",
"++++++  +++  O OO  +  ++++++++++",
"++++++++  +  O OO    ++  +++++++",
"+++++++++  + O OO   +   ++++++++",
"++++++++++    OO   +  ++++++++++",
"++++++++++++         +++++++++++",
"+++++++++++   OOO ++++++++++++++",
"++++++++++  + OOO      +++++++++",
"+++++++++  ++ OOo ++++  ++++++++",
"++++++++  +   ..      +  +++++++",
"++++++++ +  + X  ++++  + +++++++",
"++++++++ + ++  + +++++ + +++++++",
"+++++++  + +++++++++++ + +++++++",
"++++++  +  +++++++++++ + +++++++",
"++++++ ++ ++++++++++++ + +++++++",
"+++++  ++ ++++++++++++ + +++++++",
"+++++ ++  ++++++++++++ + +++++++",
"++++++++ ++++++++++++  +++++++++",
"+++++++  +++++++++++  ++++++++++",
"+++++++ ++++++++++   +++++++++++"
};
