/* XPM */
static char *supertuxkart[] = {
/* columns rows colors chars-per-pixel */
"32 32 215 2 ",
"   c #03C301EB03ED",
".  c #0C4205A8046F",
"X  c #0B5209A00B3D",
"o  c #1D0104200624",
"O  c #185C0DDB04EE",
"+  c #112A07640955",
"@  c #054D1318054D",
"#  c #137811C211BF",
"$  c #1AA619D21BAC",
"%  c #22FA049A0687",
"&  c #2E6009210AF1",
"*  c #327205440323",
"=  c #3ADD06F208F7",
"-  c #2378134103C5",
";  c #2B6A16E10700",
":  c #25B917C20A53",
">  c #31E41DAE0686",
",  c #058F231E054C",
"<  c #071235C906EE",
"1  c #35E735C509F9",
"2  c #273722D61D78",
"3  c #35542988155B",
"4  c #3E403E451371",
"5  c #3F19369D1E23",
"6  c #0B400D673245",
"7  c #244223272424",
"8  c #2D402C2B2D1B",
"9  c #34402E032B78",
"0  c #31C5315331F3",
"q  c #375A36F138A3",
"w  c #3B9E3AE73C58",
"e  c #52810C440D62",
"r  c #5AD10AA10D0E",
"t  c #5F03161817BC",
"y  c #63D70B2F0D23",
"u  c #6BB909BE0A8F",
"i  c #746D0A120BC9",
"p  c #7C6F09B20B9C",
"a  c #78DB1F6609E1",
"s  c #6D9609381AB0",
"d  c #61CC106910C9",
"f  c #6816108710F7",
"g  c #6BCF183A19B6",
"h  c #7A85101713ED",
"j  c #4F752CF20760",
"k  c #41A335230A61",
"l  c #5FD73A3A05A6",
"z  c #5A1F339F07F5",
"x  c #517A32E511CA",
"c  c #5C06397319F4",
"v  c #75CA0A9420FC",
"b  c #6FFB1E9835DE",
"n  c #789010DF38A8",
"m  c #0818431C0818",
"M  c #09D8599209DD",
"N  c #0E7350B412C7",
"B  c #3D44463F3B9D",
"V  c #779B58041559",
"C  c #550354BC223A",
"Z  c #43D841F43FB0",
"A  c #51A4497734A7",
"S  c #0E760C2152A5",
"D  c #1740158F5C7F",
"F  c #2550048A5EDE",
"G  c #165B07F56A37",
"H  c #1FCC1E37603C",
"J  c #2DFE03557B37",
"K  c #4A682937543F",
"L  c #417040B34151",
"P  c #4976491A49C7",
"I  c #5768571E57A2",
"U  c #56C356F4584F",
"Y  c #652658143FD2",
"T  c #63CA40CC57C3",
"R  c #767E60C5491E",
"E  c #485948FB76D6",
"W  c #543D47577A08",
"Q  c #5D82753E76B6",
"!  c #61D660E25FF4",
"~  c #68156787664F",
"^  c #6C8D6CBC6CD9",
"/  c #81BA07670977",
"(  c #821A09C00BDA",
")  c #8CDF0CAD0E30",
"_  c #98270EF10EC6",
"`  c #850D19CF1A1F",
"'  c #9A26101C1132",
"]  c #ABAD148F1507",
"[  c #B64918E218BA",
"{  c #BD8318E618C0",
"}  c #86EE293C3F0E",
"|  c #BE1122C330FC",
" . c #C07819B11929",
".. c #D16A1E0A1D32",
"X. c #CEC81D8624A2",
"o. c #D5711F7D2881",
"O. c #D2BC20EA1FB7",
"+. c #DDDA213F1FD7",
"@. c #DB5B20362DB4",
"#. c #EC0825042341",
"$. c #F187263E241B",
"%. c #9A564EC20C9B",
"&. c #88E2553D09BC",
"*. c #8D624ED41247",
"=. c #8E75575E1D86",
"-. c #A39A47A70C16",
";. c #A1E8549D0C0A",
":. c #9D4E64C70AFA",
">. c #93326D1E0ABF",
",. c #93697AB60DC5",
"<. c #B34174520B45",
"1. c #BD7E61660FAB",
"2. c #A4F97445173F",
"3. c #C88A767C0BC0",
"4. c #C3A664E31100",
"5. c #CEA777411D14",
"6. c #921D1955471B",
"7. c #93504A9C4008",
"8. c #8FA75DB04D02",
"9. c #9048512B51B8",
"0. c #82707D277CDE",
"q. c #AA117211729B",
"w. c #B0318B690727",
"e. c #B7E88AB51D08",
"r. c #BD2A88BD24AA",
"t. c #C51C85110B53",
"y. c #D02B813C0CEF",
"u. c #C8B48A6D0ED8",
"i. c #D2658A130C01",
"p. c #DAD18B860BE6",
"a. c #CFA491700E79",
"s. c #D2EF980B0BE3",
"d. c #D999962B0C37",
"f. c #DD209D9F0E4A",
"g. c #DAFA9B4E1051",
"h. c #E74097BC0C35",
"j. c #E6169BF40C56",
"k. c #DEDEA72D0BD5",
"l. c #D3B4B593163F",
"z. c #DF61B132180F",
"x. c #E599AC1C0C55",
"c. c #EAC8AFA80BFE",
"v. c #E42EB2600A7F",
"b. c #F86CB6CF0C63",
"n. c #F3A8BD740C70",
"m. c #D1E4A7B43122",
"M. c #F6C8C4350C19",
"N. c #F66BCBCE0C3E",
"B. c #FCBBD1BB0F7D",
"V. c #FB42DB3B0C15",
"C. c #E6E0C2FA1217",
"Z. c #FAD1DCF8108B",
"A. c #FEEDE5D60AF9",
"S. c #FDA5EF630BB5",
"D. c #FD73EEAD1DE2",
"F. c #E2B4C1D9315D",
"G. c #FD5AE83C29BA",
"H. c #FDB9F1003B90",
"J. c #BABB9BF04A11",
"K. c #9FFCA06D5FA7",
"L. c #B9F7A8D24893",
"P. c #98308A9A6D94",
"I. c #A98A9D657A95",
"U. c #A4A2A5287731",
"Y. c #C866C86F7E35",
"T. c #D8D1C1967B9A",
"R. c #155B154BA1B6",
"E. c #26681F25A2BE",
"W. c #36E7352CA2EE",
"Q. c #4C604AD8842C",
"!. c #5E7D5347A683",
"~. c #57D3564DBEC4",
"^. c #6BA26984BD07",
"/. c #188316EAC0AA",
"(. c #090A0710D374",
"). c #1A281A43DCCF",
"_. c #01FC0122E4E9",
"`. c #00370000E86F",
"'. c #59DE5855D079",
"]. c #738772C0C330",
"[. c #9B2E747A8143",
"{. c #8C208BD88B8A",
"}. c #8785888A9393",
"|. c #87A7869F9DAD",
" X c #B31282B78251",
".X c #B096A80B8D36",
"XX c #BA05AAB28AD5",
"oX c #990197D8A88E",
"OX c #856C83E9BB14",
"+X c #89F8892BBD60",
"@X c #AA68AA78ADD3",
"#X c #B507B4FDB53B",
"$X c #BADFBB4CBC76",
"%X c #D2EABEA29BAF",
"&X c #D16BD17788C4",
"*X c #DAC6D03B933B",
"=X c #D5DFD6219195",
"-X c #CD43CDC8A6D5",
";X c #C097C119BF71",
":X c #D350D3ADB6AB",
">X c #A150A0C1C2D6",
",X c #B79CB8ABCF27",
"<X c #CE11CE90C6C4",
"1X c #CB0BCC11CBC9",
"2X c #DD21DAC6D019",
"3X c #DA62DA6EDA68",
"4X c #E423E47DE245",
"5X c #EFACEB76E12C",
"6X c #EA9BECFDEC56",
"7X c #F3C1EFF7E17F",
"8X c #F01DF247F07A",
"9X c #F5D8F5A3F517",
"0X c #F8E8F8CCF686",
"qX c #FAF4FAF8FA92",
"wX c None",
/* pixels */
"wXwXwXwXwXwXwXwXwXwXwXwXwXwXwXwXwXwXwXwXwXwXwXwXwXwXwXwXwXwXwXwX",
"wXwXwXwXwXwXwXwXwXwXwXwXwXwXwXwXwXwXwXwXwXwXwXwXwXwXwXwXwXwXwXwX",
"wXwXwXwXwXwXwXwXwXwXwXwXwXwXwX          wXwXwXwXwXwXwXwXwXwXwXwX",
"wXwXwXwXwXwXwXwXwXwXwXwXwXwXwX            wXwXwXwXwXwXwXwXwXwXwX",
"wXwXwXwXwXwXwXwXwXwXwXwXwXwX              wXwXwXwXwXwXwXwXwXwXwX",
"wXwXwXwXwXwXwXwXwXwXwXwXwXwX# $   X X     wXwXwXwXwXwXwXwXwXwXwX",
"wXwXwXwXwXwXwXwXwXwXwXwXwXwXZ P.8 8 ^ 0   wXwXwXwXwXwXwXwXwXwXwX",
"wXwXwXwXwXwXwXwXwXwXwXwXwXwXw I P U ^ L   wXwXwXwXwXwXwXwXwXwXwX",
"wXwXwXwXwXwXwXwXwXwXwXwXwXwX7 P 5 A ! 7   : wXwXwXg.wXwXwXwXwXwX",
"wXwXwXwXwXwXwXwXwXwXwXwXwXwXk ,.w.>.3 .   x 5.4.k.Z.u.wXwXwXwXwX",
"wXwXwXwXwXwXwXwXwXwXwXwXwX$ ,.l.v.w.V 2   + *.1.s.V.2.9 wXwXwXwX",
"wXwXwXwXwXwXwXwXwXwX      L L.C.c.e.XX~ X   ; %.i.n.2.9 wXwXwXwX",
"wXwXwXwXwXwXwXwXwX< @   X {.*XF.m.%X0X#X$     z x.N.a.c wXwXwXwX",
"wXwXwXwXwXwXwXwXwXm M < B #X4X7X7X0XqX$X7   . &.Z.S.c.3.wXwXwXwX",
"wXwXwXwXwXwXwXwXwX  , N Q oX@X;X<X:X-XU.C 1 > t.A.S.n.y.wXwXwXwX",
"wXwXwXwXwXwXwXwXwX    6 ).W.Q.'.|.Y.&X=XK.4 > f.G.D.M.<.z wXwXwX",
"wXwXwXwXwXwXwXwXwX    S _.H D `.~.6XqXqX#X$ - d.H.G.n.&..     wX",
"wXwXwXwXwXwXwXwXwX  * G (.Y W `.^.9XqXqX3Xq . <.V.B.j.j         ",
"wXwXwXwXwXwXwXwXwXwXu J R.I.!.`.OX0X0XqX4Xw . :.n.b.<.O         ",
"wXwX        wXwXwXi i J E 5X].(.>X9X9XqX1X7 l p.j.h.<.+       wX",
"wX            % u i s F }.qX+X/.,X8X6X4X0.& a -.;.p.<.O       wX",
"wX          o y i p v K .XqXoXE.[. Xq.9.g p / r e wXwXwXwX  wXwX",
"wX        o u p p ( ` r.T.2XJ.T h ( ( / ( ( i e wXwXwXwXwXwXwXwX",
"wX        f ..{ ] _ n 8.R P.z.=.p ( ( ( ( p r o       wXwXwXwXwX",
"wX        d #.$.#.#.o.| 6.} 7.b p ( ( ( ( i =             wXwXwX",
"wXwXwX    e #.$.$.$.$.$.$.#.@.X. .] ' ) ( f &             wXwXwX",
"wXwXwXwXwXwXwX$.$.$.$.$.$.$.$.$.$.#.#.+.[ d 7             wXwXwX",
"wXwXwXwXwXwXwXwXwXwX$.$.$.$.$.#.$.$.#.$.O.t +             wXwXwX",
"wXwXwXwXwXwXwXwXwXwXwXwXwXwXwX$.$.$.$.$.O.r               wXwXwX",
"wXwXwXwXwXwXwXwXwXwXwXwXwXwXwXwXwXwXwX$.#.wX              wXwXwX",
"wXwXwXwXwXwXwXwXwXwXwXwXwXwXwXwXwXwXwXwXwXwXwXwX        wXwXwXwX",
"wXwXwXwXwXwXwXwXwXwXwXwXwXwXwXwXwXwXwXwXwXwXwXwXwXwXwX  wXwXwXwX"
};
