/* XPM */
static char *teg[] = {
/* columns rows colors chars-per-pixel */
"32 31 14 1 ",
"  c black",
". c #191919191919",
"X c gray20",
"o c #7F7F00000000",
"O c #7F7F7F7F0000",
"+ c #4C4C4C4C4C4C",
"@ c #666666666767",
"# c gray50",
"$ c red",
"% c yellow",
"& c gray60",
"* c #B2B2B2B2B2B2",
"= c gray80",
"- c None",
/* pixels */
"--------------------------------",
"--------------------------------",
"--------------O&&---------------",
"---------&O&&OOOOOO&&-----------",
"--------&&OOO&&&&O&OO&----------",
"-------$OO&O&&*****&&&&O--------",
"------&*O&&***&******&OOo-------",
"------&OO**&**&*=*&&&*O&#-------",
"-----OOO&******=*OO*&&&&O@------",
"----&&O&&&**%=O**O**&&&&O#------",
"----O*&&&**=*O&&&&**OO&&OO+-----",
"----OO&***&O&&OOOOOOO*&&OO@-----",
"---O$&&&&OOO&&&*&OO#&&&OO$@-----",
"---&*$O&OO&O&&OOOOO&&&O#OO+ ----",
"---OO&OO&OOOOO$&O#$&O$&$O$+ ----",
"---O$OOOOO*$O&OO&&$@@o+@$+. ----",
"---O&$&OOOO&OO$O$@Xo..oX+o  ----",
"---OOO$&$O&$OO@+o.         -----",
"---oO$@OO$OO$oo      -----------",
"---#OO$$OO$@+.   ---------------",
"---+$&O@$@o.   -----------------",
"----$@$OoX    ------------------",
"----+$O$+.  --------------------",
"----@$@+.  ---------------------",
"-----+$+o ----------------------",
"-----Xo.  ----------------------",
"------- ------------------------",
"--------------------------------",
"--------------------------------",
"--------------------------------",
"--------------------------------"
};
