/* XPM */
static char *torus_trooper[] = {
/* columns rows colors chars-per-pixel */
"32 32 53 1 ",
"  c #020202020202",
". c gray3",
"X c #111111111111",
"o c #161616161616",
"O c #191919191919",
"+ c gray13",
"@ c #272727272727",
"# c #2A2A2A2A2A2A",
"$ c gray18",
"% c gray21",
"& c gray23",
"* c #3C3C3C3C3C3C",
"= c #414141414141",
"- c #444444444444",
"; c #4B4B4B4B4B4B",
": c #4C4C4C4C4C4C",
"> c #515151515151",
", c #585858585858",
"< c gray37",
"1 c #606060606060",
"2 c gray40",
"3 c #6A6A6A6A6A6A",
"4 c #6C6C6C6C6C6C",
"5 c #727272727272",
"6 c #767676767676",
"7 c gray47",
"8 c gray49",
"9 c #7E7E7E7E7E7E",
"0 c gray51",
"q c gray53",
"w c #8B8B8B8B8B8B",
"e c #8D8D8D8D8D8D",
"r c #939393939393",
"t c #989898989898",
"y c #9D9D9D9D9D9D",
"u c #A2A2A2A2A2A2",
"i c gray65",
"p c gray66",
"a c #AFAFAFAFAFAF",
"s c #B1B1B1B1B1B1",
"d c #B6B6B6B6B6B6",
"f c gray72",
"g c #C0C0C0C0C0C0",
"h c gray78",
"j c #CACACACACACA",
"k c #CECECECECECE",
"l c #D0D0D0D0D0D0",
"z c gray83",
"x c #DADADADADADA",
"c c #DDDDDDDDDDDD",
"v c #E1E1E1E1E1E1",
"b c gray100",
"n c None",
/* pixels */
"nnnnnnnnnnnn X+$-,4779663,&@O.nn",
"nnnnnnnn +-5wifzxzk9dd99kzzzdt5*",
"nnnnn $4yagjdr1-***====*&**;7phf",
"nnnX1a9ap6;%*=-;:;;;;;:;:::;-*%>",
"n@wkft5=&=;;;;;;;;;;;;;;;;;;:;:;",
"rcu5,==;;;;;;;;;;;;;;;;;;;;;:;;;",
"i<;=;;::;;;;;;;;;;;;;;;;;;;;;;;;",
"-;;;;;;;;;;;;;;;;;;;;;;;;;;;;;;;",
";;;;;;;;;;;;;;;;;;;;;;;;;;;;;;;;",
";;;;;;;;;;;;;;;;;;;;;;;;;;;;;;;;",
";;;;;;;;;;;;;;;;;;;;;;;;;;;;;;;;",
";;;;;;;;;;;;;;;;;;;;;;;;;;;;;;;;",
";;;;;;;;;;;;;;;;;;;;;;;;;;;;;;;;",
";;;;;;;;;;;;;;;;;;;;;;;;;;;;;;;;",
";;;;;;;;;;;;;;;;;;;;;;;;;;;;;;;;",
";;;;;;;;;;;;;;;;;;;;;;;;;;;;;;;;",
";;;;;;;;;;;;;;;;;:::;;;;;;;;;::;",
";;;;;;;;;;;;;;;;1797974997974:;;",
";;;;;;;;;;;;;;;;ubbbbbbbbbbbk;;;",
";;;;;;;;;;;;;;;;;:6by;;;6by::;;;",
";;;;;;;;;;;;;;;;;;9by;;;7by;;;;;",
";;;;;;;;;;;;;;;;;;7by:;;9bu:;;;:",
";;;;;;;;;;;;;;;;;;7bu;;;6by:;;:*",
";;;;;;;;;;;;;;;;;;9by:;;7by;;;&0",
";;;;;;;;;;;;;;;;;:7by;;;9by-;<9k",
";;;;;;;;;;;;;;;;;::;:;;:;=;<ivq+",
";;;;;;;;;;;;;;;;;;;;:;-*;3tci%nn",
";;;;;;;;;;;;;;;;;;;;**<wizi-nnnn",
";:;;;::;:;;:::;;-&%>edgdq@nnnnnn",
"*==-;--;-:--=**>7ajhse:Xnnnnnnnn",
"x9u02<1333qydzckdt4=onnnnnnnnnnn",
",7eifggfddue93=+o.nnnnnnnnnnnnnn"
};
