/* XPM */
static char *tree_puzzle[] = {
/* columns rows colors chars-per-pixel */
"32 32 2 1 ",
"  c black",
". c #00009898F8F8",
/* pixels */
"                                ",
"                                ",
"  ............  ..............  ",
"  ............  ..............  ",
"  ..        ..  ..          ..  ",
"  ..        ..  ..          ..  ",
"  ..  ....          ..........  ",
"  ..  ....          ..........  ",
"  ........  ....  ....  ..  ..  ",
"  ........  ....  ....  ..  ..  ",
"    ..  ..  ..    ..            ",
"    ..  ..  ..    ..            ",
"  ....  ..  ..  ..............  ",
"  ....  ..  ..  ..............  ",
"  ..    ..........          ..  ",
"  ..    ..........          ..  ",
"  ....  ..          ..........  ",
"  ....  ..          ..........  ",
"  ..        ......  ..  ..      ",
"  ..        ......  ..  ..      ",
"  ........  ..  ......  ......  ",
"  ........  ..  ......  ......  ",
"    ..      ..      ..      ..  ",
"    ..      ..      ..      ..  ",
"  ....  ......  ......  ......  ",
"  ....  ......  ......  ......  ",
"  ..    ..      ..      ..      ",
"  ..    ..      ..      ..      ",
"  ..  ........  ......  ......  ",
"  ..  ........  ......  ......  ",
"                                ",
"                                "
};
