/* XPM */
static char *tuxguitar[] = {
/* columns rows colors chars-per-pixel */
"32 32 225 2 ",
"   c #02780262024D",
".  c #0B0B08080404",
"X  c #030305860B8C",
"o  c #0B970B800B97",
"O  c #1AC511BC0101",
"+  c #030308081414",
"@  c #08080C0C1515",
"#  c #0D0D10901616",
"$  c #12BD12BD1313",
"%  c #151516961A1A",
"&  c #1BC11BD01BD0",
"*  c #212117170404",
"=  c #22221B1B1268",
"-  c #22221F1F1919",
";  c #35351B1B1111",
":  c #33B422CD0303",
">  c #3A3A27270303",
",  c #3F3F29290202",
"<  c #3D3D27270A0A",
"1  c #242421A21D1D",
"2  c #2D2D26261B1B",
"3  c #37372B2B1515",
"4  c #17171B1B2121",
"5  c #1A1A1C1C2424",
"6  c #24BA24FA2525",
"7  c #2C2C29292727",
"8  c #2AD52B2B2B81",
"9  c #39392B2B2626",
"0  c #323230302E2E",
"q  c #252527273232",
"w  c #26262E2E3131",
"e  c #2D2D30303333",
"r  c #272731313E3E",
"t  c #33C633A1336A",
"y  c #383837373535",
"u  c #3A903A653A65",
"i  c #4C4C1F1F0C0C",
"p  c #484830300303",
"a  c #50FB35E003AE",
"s  c #444438381A1A",
"d  c #696925250E0E",
"f  c #64642B2B0F0F",
"g  c #676736361717",
"h  c #7A7A30301414",
"j  c #767638381818",
"k  c #565633332020",
"l  c #515139392C2C",
"z  c #4C4C3B3B3333",
"x  c #40403F3F3C3C",
"c  c #5D5D4242098A",
"v  c #62E244440505",
"b  c #6B154646045A",
"n  c #75F64CCD0202",
"m  c #7D7D53530404",
"M  c #7E7E58580A0A",
"N  c #525246462929",
"B  c #454541413E3E",
"V  c #4A4A41413C3C",
"C  c #5ADA47473D3D",
"Z  c #505049493D3D",
"A  c #76765C5C2E2E",
"S  c #65E64A4A3BBC",
"D  c #7E7E52523939",
"F  c #797964643E3E",
"G  c #2A2A36364545",
"H  c #39393D3D4343",
"J  c #3E3E41414848",
"K  c #432643264326",
"L  c #4D4D46464141",
"P  c #454547474848",
"I  c #454549494DF8",
"U  c #4BDE4C714C03",
"Y  c #55554C4C4747",
"T  c #5F5F4E4E4747",
"R  c #545452524E4E",
"E  c #5A5A53534C4C",
"W  c #4F4F4F4F5050",
"Q  c #530652D252B9",
"!  c #515154545D5D",
"~  c #585857575959",
"^  c #5AF45B755B0E",
"/  c #6C6C53534646",
"(  c #62E353D44BCC",
")  c #63E456565050",
"_  c #70705C5C5050",
"`  c #7A7A74745757",
"'  c #555563636464",
"]  c #64E5648F64E5",
"[  c #6B156B156B40",
"{  c #69EA6F6F7373",
"}  c #6E6E70707A7A",
"|  c #72BB73057373",
" . c gray50",
".. c #B8B822220B0B",
"X. c #AEAE34340707",
"o. c #ADAD37370C0C",
"O. c #A0A039391111",
"+. c #8D8D3A3A2727",
"@. c #96963F3F2A2A",
"#. c #858559590505",
"$. c #8D8D5C5C0404",
"%. c #BBBB40C10000",
"&. c #A2A246461F1F",
"*. c #A8A844441C1C",
"=. c #BABA58581313",
"-. c #9B9B65650505",
";. c #BCBC7C7C0606",
":. c #B3B376760808",
">. c #B8B87A7A0808",
",. c #BEBE7A7A1C1C",
"<. c #808048483636",
"1. c #ACAC4C4C2626",
"2. c #A7A75B5B3939",
"3. c #9E9E67672020",
"4. c #97976C6C2020",
"5. c #9B9B62623737",
"6. c #ACAC61612525",
"7. c #A7A764643D3D",
"8. c #BCBC67673535",
"9. c #A3A371713D3D",
"0. c #B6B672723E3E",
"q. c #B45E7A7A3D3D",
"w. c #C6C654540C0C",
"e. c #CCCC6B6B0505",
"r. c #C6C677770505",
"t. c #CFCF73730202",
"y. c #C0C07F7F1111",
"u. c #D1D16B6B3737",
"i. c #86865B5B5050",
"p. c #B4B47C7C4C4C",
"a. c #90906E6E6262",
"s. c #8A8A7B7B7474",
"d. c #ABAB80801717",
"f. c #BFBF85853131",
"g. c #B5B585853A3A",
"h. c #C5C581810707",
"j. c #C6C682820909",
"k. c #C9C987870909",
"l. c #D7D78A8A0101",
"z. c #D55583830A8B",
"x. c #D0D08A8A0909",
"c. c #DBDB89890E0E",
"v. c #DBDB95950606",
"b. c #DB5B93930A0A",
"n. c #C5C581811F1F",
"m. c #DADA8F8F1E1E",
"M. c #E5E58E8E0606",
"N. c #E4E491910E0E",
"B. c #E8E896961111",
"V. c #EDED9F9F1616",
"C. c #DCDCA2A21717",
"Z. c #FFFFA4230404",
"A. c #FFFFA6A60A0A",
"S. c #FFFFA9A90F0F",
"D. c #F3F3A6A61717",
"F. c #FFCCACDF11AB",
"G. c #FFFFB2B21A1A",
"H. c #D9D994942A2A",
"J. c #FFFFB6B62626",
"K. c #FBFBB0B02B2B",
"L. c #FFFFBA642B2B",
"P. c #FFFFBABA3232",
"I. c #FFFFC1C13E3E",
"U. c #999987874E4E",
"Y. c #B8B890905656",
"T. c #B4B497975A5A",
"R. c #8D8D89896C6C",
"E. c #92928A8A6363",
"W. c #838380807C7C",
"Q. c #929282827373",
"!. c #999984847D7D",
"~. c #96968A8A7B7B",
"^. c #A4A486866E6E",
"/. c #A8A89D9D7777",
"(. c #B3B393937E7E",
"). c #C0C09D9D5F5F",
"_. c #DDDD96967676",
"`. c #DFDFA4A46A6A",
"'. c #E5E5B2B27373",
"]. c #FFFFC5C54848",
"[. c #FFFFCE4E53D4",
"{. c #FFFFCBCB5B5B",
"}. c #FFFFD1D15B5B",
"|. c #D5D5C2C27C7C",
" X c #FFFFD4D46464",
".X c #FFFFDFDF6565",
"XX c #FFFFD7D76868",
"oX c #FFFFDCDC6868",
"OX c #FDFDDDDD7E7E",
"+X c #FFFFE2E27C7C",
"@X c #7E7E7E7E8383",
"#X c #7A7A84848686",
"$X c #810184038282",
"%X c #890989098909",
"&X c #9D9D97978181",
"*X c #989899998D8D",
"=X c #8F8F90909191",
"-X c #919190909090",
";X c #949495959898",
":X c #9B9B9B9B9C9C",
">X c #AAAA93938787",
",X c #B9B9A2A28F8F",
"<X c #AAAAAAAA9696",
"1X c #B2B2ACAC9191",
"2X c #B3B3B4B49D9D",
"3X c #AB44AADDAB44",
"4X c #B7B7ACACA4A4",
"5X c #B4B4B4B4B4B4",
"6X c #BDBDBDBDBD67",
"7X c #CECEA9A99999",
"8X c #D7D7B9B9A7A7",
"9X c #E9E9B9B9A4A4",
"0X c #E3E3D1D18686",
"qX c #EFEFD9D99F9F",
"wX c #FFFFEAEA9191",
"eX c #CECEC2C2A5A5",
"rX c #CACAC2C2B5B5",
"tX c #E7E7CACAABAB",
"yX c #C318C2C2C217",
"uX c #CA1FCA1FCA74",
"iX c #D8D8DCDCE8E8",
"pX c #E2E2E2E2E2E2",
"aX c #E3E3E9E9ECEC",
"sX c #EFEFEFEFEFEF",
"dX c None",
/* pixels */
"dXdXdXdXdXdXdXdXdXdXdXdXdXdX| [ | dXdXdXdXdXdXdXdXdXdXdXdXdXdXdX",
"dXdXdXdXdXdXdXdXdXdXdXdXdX] ~ U W ^ [ dXdXdXdXdXdXdXdXdXdXdXdXdX",
"dXdXdXdXdXdXdXdXdXdXdXdX~ t & & & & t ^ dXdXdXdXdXdXdXdXdXdXdXdX",
"dXdXdXdXdXdXdXdXdXdXdX~ 7 o o     6 y 8 ] dXdXdXdXdXdXdXdXdXdXdX",
"dXdXdXdXdXdXdXdXdXdXdXK w 5XuX6 & pXsXW U dXdXdXdXdXdXdXdXdXdXdX",
"dXdXdXdXdXdXdXdXdXdXdXt %XuXrX;X| 6XuX5XP dXdXdXdXdXdXdXdXdXdXdX",
"dXdXdXdXdXdXdXdXdXdXdXt 3X[ J 3X@XI | yXK dXdXdXdXdXdXdXdXdXdXdX",
"dXdXdXdXdXdXdXdXdXdXdX5 ! iXeX0X|.rXaX} q dXdXdXdXdXdXdXdXdXdXdX",
"dXdXdXdXdXdXdXdXdXdXdXR.` |.[.wX+X{.qXE./.dXdXdXdXdXdXyXdXdXdXdX",
"dXdXdXdXdXdXdXdXdXdX{.OX.XL.L.].I.J.L.oX XD.dXdXdXdX6X:X$XdXdXdX",
"dXdXdXdXdXdXdXdXdXdXj.c.V.S.S.S.F.A.F.B.M.dXdXdXdXdX3X] 8 u dXdX",
"dXdXdXdXdXdXdXdXdXdXdX4.N.P.F.Z.Z.G.K.r.A dXdXdXdXQ P u ~ u dXdX",
"dXdXdXdXdXdXdXdXdXdXdXr < f.XX[.[.}.3.= G dXdXz / z 6 P B ] dXdX",
"dXdXdXdXdXdXdXdXdXdX^ 7 + E q.0.p.9.^ @ 9 Y s._ l s dXdXdXdXdXdX",
"dXdXdXdXdXdXdXdXdX| ] 6 8 =XT f g ] { B ) C / 9 dXdXdXdXdXdXdXdX",
"dXdXdXdXdXdXdX .[ K U Q W.8X>Xa.<.( t U ) z B dXdXdXdXdXdXdXdXdX",
"dXdXdXdXdXdXdX| t & - t Q ,XtX^.T Y 7 8 0 6 ^ dXdXdXdXdXdXdXdXdX",
"dXdXdXdXdXdX!.I % o o % 4 y rXQ.V L K $ & 6 u ^ dXdXdXdXdXdXdXdX",
"dXdXdXdXdX_.9X~.t # o   o   { 4XS x U $   6 t U dXdXdXdXdXdXdXdX",
"dXdXdXdXdXu.`.'.T.N + $ -   t uX(.U I 8 X   & 8 dXdXdXdXdXdXdXdX",
"dXdXdXdX8.w.H.m.).U.s H Q 1 $X7X..@.^ K &     o P dXdXdXdXdXdXdX",
"dXdXdXdX0.%.z.v.,./.d.F *X<X&XD +.i. .[ K # . $ u dXdXdXdXdXdXdX",
"dXdXdXdXdXX.e.b.l.g.C.j.2X1XZ J ' #X:X3X[   $ 6 dXdXdXdXdXdXdXdX",
"dXdXdXdXdX&.%.z.v.n.Y.t.5.<.U | -X<X3X%X6   & y dXdXdXdXdXdXdXdX",
"dXdXdXdXdXdXo.=.Y.y.6.p.1.i w R ^ Q y o   & t ^ dXdXdXdXdXdXdXdX",
"dXdXdXdXdXdXdXO.*.7.2.+.k .           o % w e dXdXdXdXdXdXdXdXdX",
"dXdXdXdXdXdXdXdXd h j ; X X @ o $ $ % % 6 9 dXdXdXdXdXdXdXdXdXdX",
"dXdXdXdXdXdXdXdXc M c : = = - & & 1 2 3 c $.-.dXdXdXdXdXdXdXdXdX",
"dXdXdXdXdXdXdXk.h.;.$.b m v *   . p #.n n >.:.x.#.dXdXdXdXdXdXdX",
"dXdXdXdXdXdX: a : b , : b ,       O a > O p : O dXdXdXdXdXdXdXdX",
"dXdXdXdXdXdXdXdXdXdXdXdXdXdXdXdXdXdXdXdXdXdXdXdXdXdXdXdXdXdXdXdX",
"dXdXdXdXdXdXdXdXdXdXdXdXdXdXdXdXdXdXdXdXdXdXdXdXdXdXdXdXdXdXdXdX"
};
