/* XPM */
static char *utilities_file_archiver[] = {
/* columns rows colors chars-per-pixel */
"32 32 99 2 ",
"   c #7D7D5D5D2A2A",
".  c #7F7F60602B2B",
"X  c #80805EDF2B2B",
"o  c #8504630D2CD7",
"O  c #898966662E2E",
"+  c #868665653131",
"@  c #8EE86B2B3243",
"#  c #8B8B6D6D3D3D",
"$  c #924F6E413513",
"%  c #92926E6E3838",
"&  c #969673213AF5",
"*  c #9A82766A3D9F",
"=  c #9A9A78783F3F",
"-  c #808068684040",
";  c #8A8A73734B4B",
":  c #999977774242",
">  c #9DC87A4441D7",
",  c #96967A7A4C4C",
"<  c #9C9C7B7B4949",
"1  c #8B8B77775757",
"2  c #94547D7D5A9A",
"3  c #A18C7DA644FD",
"4  c #A1A17F7F4A4A",
"5  c #969682825B5B",
"6  c #9B4583835C5C",
"7  c #A3A380804747",
"8  c #A616827A49EF",
"9  c #AA4386904E1B",
"0  c #ACAC89BC4E4E",
"q  c #A626858551D2",
"w  c #AE248ACA526E",
"e  c #A0A087875E5E",
"r  c #AE038E385A04",
"t  c #B1B18E5F5627",
"y  c #B588929A5AAD",
"u  c #B970965F5E15",
"i  c #BDBD98985F5F",
"p  c #8E8E80806565",
"a  c #95EB838363B9",
"s  c #9C0285EC6497",
"d  c #9F9F8A8A6565",
"f  c #9BF18A346AC0",
"g  c #9C1C8C8C7373",
"h  c #A5728C8C6363",
"j  c #A6A690906969",
"k  c #AAAA93936D6D",
"l  c #B4B4962F63CA",
"z  c #BD529A8562D4",
"x  c #B2B297416A6A",
"c  c #B7B79B9B6D6D",
"v  c #BD4F9E306BB4",
"b  c #A3A391917575",
"n  c #AFAF98987272",
"m  c #A8A898987F7F",
"M  c #B2B299997575",
"N  c #B2B29E9E7F7F",
"B  c #BEBEA2227373",
"V  c #BABAA2A27A7A",
"C  c #C17B9EB56695",
"Z  c #C2C29F9F6868",
"A  c #C4CFA2806B49",
"S  c #C93DA68F6EE3",
"D  c #C592A5A572D9",
"F  c #C9C9A72770F1",
"G  c #CDAFAB6F7430",
"H  c #C2C2A6A67878",
"J  c #C646AA2A7D7D",
"K  c #CCBCAD6D7A8A",
"L  c #D110AEAE76F7",
"P  c #D2D2AFAF7878",
"I  c #D4C2B2C47B97",
"U  c #D959B6F67F7F",
"Y  c #A9A99C9C8484",
"T  c #AAAA9F9F8B8B",
"R  c #B939A3238181",
"E  c #B6B6A6A68E8E",
"W  c #BBBBA9538B35",
"Q  c #ADADA2A29292",
"!  c #B1B1A6269413",
"~  c #B7B7AAAA9292",
"^  c #B7B7ABAB9999",
"/  c #B8B8AEAE9E9E",
"(  c #BE3EB1319C9C",
")  c #BD3DB433A1A1",
"_  c #CACAAEAE8181",
"`  c #CC4CB0B08383",
"'  c #CCCCB3B38A8A",
"]  c #D6D6B6368080",
"[  c #D983B78C80D6",
"{  c #DD8BBB7F8450",
"}  c #D3D3BB3B9494",
"|  c #C5C5B9B9A3A3",
" . c #DBDBC5C5A2A2",
".. c #DBDBC8C8A7A7",
"X. c #D1D1C3C3ABAB",
"o. c #E1E1CECEAFAF",
"O. c #DEDED5D5C3C3",
"+. c #E5E5DBDBCACA",
"@. c None",
/* pixels */
"@.@.@.@.@.@.@.@.@.@.@.@.@.@.@.@.@.@.@.@.@.@.@.@.@.@.@.@.@.@.@.@.",
"@.@.@.@.@.@.@.@.@.@.@.@.@.@.{ { { { { @.@.@.@.@.@.@.@.@.@.@.@.@.",
"@.@.@.@.@.@.@.@.@.@.{ { { { { { { { { { I D L @.@.@.@.@.@.@.@.@.",
"@.@.@.@.@.@.{ { { { { { { { { { { { K K L P L G S A z @.@.@.@.@.",
"@.@.G I { { { { { { { { { { { I K K { I L L F S A Z z z u t 0 @.",
"@.v e ] { { { { { { { { { K K U { { I L L G S A A z z u y B t @.",
"@.G G v h K { { { { K K K { { { U I I L F S A A z z z J B w 9 @.",
"@.x Y G L G W c K K [ { { { { U I L G G S A A z D ' H t w 0 8 @.",
"@.k f / S L I U x h { { { { U I L G G F A A _ } J y t w 0 9 3 @.",
"@.A l f ) v G I I U D W K U I L L G S Z } } _ u y t w w 8 8 > @.",
"@.A C z h ( c G L U U { I X.x I G A  ..._ z l y t w w 8 8 3 = @.",
"@.C z z l s V G G G I U { { { B o.o._ z z z y t w 9 8 8 3 > * @.",
"@.i u z C h g x F N c W R ` W { K Z z z u y t w 0 8 3 3 > * & @.",
"@.u y z i l ) +.T b M g n R Q { A C z y y t 0 9 8 8 3 3 * & $ @.",
"@.y t y u z ( O.! h v G G G j { Z i y y t w 0 8 8 3 = * & $ $ @.",
"@.y t t y u E ^ ) A S S G G L U Z u t t w 0 8 3 3 > * & $ $ $ @.",
"@.t w w t y m | E C A A S G K I v t t 0 9 8 3 3 > * $ $ $ @ @ @.",
"@.0 9 w t t f ~ m i C A A F F P c t 0 0 9 8 3 > * & $ $ $ $ $ @.",
"@.0 8 9 9 w a p p u z C A A F G l w 9 8 3 3 * * & $ $ @ @ @ @ @.",
"@.8 4 8 8 w d s 6 u u z z C A F l 0 8 4 3 * * & $ $ $ @ @ @ $ @.",
"@.4 > 3 8 8 , s 2 y y u z z Z A l 4 3 3 3 & & $ $ @ @ @ @ @ @ @.",
"@.3 = > 3 8 2 d a w t y u z z Z y 3 3 * * & $ @ @ @ $ $ $ * $ @.",
"@.3 * * > > 5 a j w t t y y z z r 3 > * & $ $ @ @ @ $ & & @ @.@.",
"@.@.> * * > 6 2 6 9 0 w t y y z q > & & $ @ @ @ $ & < # X @.@.@.",
"@.@.@.@.> > # 2 ; 8 8 0 w t t u 8 * & $ @ @ @ @ @ % + @.@.@.@.@.",
"@.@.@.@.@.@ : - 1 7 8 9 9 w t y 4 & $ @ @ @ $ @ o @.@.@.@.@.@.@.",
"@.@.@.@.@.@.@.# > > 3 8 8 w w t < $ @ @ $ O O X @.@.@.@.@.@.@.@.",
"@.@.@.@.@.@.@.@.@.+ = 3 3 8 8 w * $ @ $ O X @.@.@.@.@.@.@.@.@.@.",
"@.@.@.@.@.@.@.@.@.@.@.+ : 3 8 9 & @ @ o @.@.@.@.@.@.@.@.@.@.@.@.",
"@.@.@.@.@.@.@.@.@.@.@.@.@.+ * 7 % O   @.@.@.@.@.@.@.@.@.@.@.@.@.",
"@.@.@.@.@.@.@.@.@.@.@.@.@.@.@.o . @.@.@.@.@.@.@.@.@.@.@.@.@.@.@.",
"@.@.@.@.@.@.@.@.@.@.@.@.@.@.@.@.@.@.@.@.@.@.@.@.@.@.@.@.@.@.@.@."
};
