/* XPM */
static char *val_and_rick[] = {
/* columns rows colors chars-per-pixel */
"32 32 3 1 ",
"  c black",
". c #0C0C7474ECEC",
"X c None",
/* pixels */
"XXX     XXXXXXXXXXXXXXXX     XXX",
"X       XXXXXXXXXXXXXXXX       X",
"X    XXXXXXXXX....XXXXXXXXX    X",
"   XXXXXXXXXXX....XXXXXXXXXXX   ",
"   XXXXXXXXXXXXXXXXXXXXXXXXXX   ",
"  XXXXXXXXXXXXXXXXXXXXXXXXXXXX  ",
"  XXXXXXXXXXXX....XXXXXXXXXXXX  ",
"  XXXXXXXXXXXX....XXXXXXXXXXXX  ",
"XXXXXXXXXXXXXXXXXXXXXXXXXXXXXXXX",
"XXXXXXXXXXXXXXXXXXXXXXXXXXXXXXXX",
"XXXXXXXXXXXXXX....XXXXXXXXXXXXXX",
"XXXXXXXXXXXXXX....XXXXXXXXXXXXXX",
"XXXXXXXXXXXXXXXXXXXXXXXXXXXXXXXX",
"XXXXXXXXXXXXXXXXXXXXXXXXXXXXXXXX",
"XX..XX..XX..XXXXXXXX..XX..XX..XX",
"XX..XX..XX..XXXXXXXX..XX..XX..XX",
"XX..XX..XX..XXXXXXXX..XX..XX..XX",
"XX..XX..XX..XXXXXXXX..XX..XX..XX",
"XXXXXXXXXXXXXXXXXXXXXXXXXXXXXXXX",
"XXXXXXXXXXXXXXXXXXXXXXXXXXXXXXXX",
"XXXXXXXXXXXXXX....XXXXXXXXXXXXXX",
"XXXXXXXXXXXXXX....XXXXXXXXXXXXXX",
"XXXXXXXXXXXXXXXXXXXXXXXXXXXXXXXX",
"XXXXXXXXXXXXXXXXXXXXXXXXXXXXXXXX",
"  XXXXXXXXXXXX....XXXXXXXXXXXX  ",
"  XXXXXXXXXXXX....XXXXXXXXXXXX  ",
"  XXXXXXXXXXXXXXXXXXXXXXXXXXXX  ",
"   XXXXXXXXXXXXXXXXXXXXXXXXXX   ",
"   XXXXXXXXXXX....XXXXXXXXXXX   ",
"X    XXXXXXXXX....XXXXXXXXX    X",
"X       XXXXXXXXXXXXXXXX       X",
"XXX     XXXXXXXXXXXXXXXX     XXX"
};
