/* XPM */
static char *vboxgtk[] = {
/* columns rows colors chars-per-pixel */
"32 32 78 1 ",
"  c #20204A4A8787",
". c #3C3C6C6CA9A9",
"X c #3E3E6E6EABAB",
"o c #42427272ADAD",
"O c #43437373AFAF",
"+ c #46467676B0B0",
"@ c #48487777B1B1",
"# c #4A4A7979B3B3",
"$ c #4D4D7A7AB1B1",
"% c #4B4B7B7BB4B4",
"& c #4D4D7D7DB5B5",
"* c #4F4F7F7FB7B7",
"= c #50507D7DB4B4",
"- c #51518080B8B8",
"; c #53538282BABA",
": c #54548383BBBB",
"> c #55558484BBBB",
", c #57578686BCBC",
"< c #5B5B8787B9B9",
"1 c #58588585BBBB",
"2 c #5B5B8A8ABFBF",
"3 c #63638D8DBFBF",
"4 c #66668E8EBDBD",
"5 c #66668F8FBEBE",
"6 c #6D6D9191BCBC",
"7 c #5D5D8B8BC0C0",
"8 c #5F5F8E8EC2C2",
"9 c #61618F8FC3C3",
"0 c #63639191C5C5",
"q c #64649191C5C5",
"w c #65659393C6C6",
"e c #67679595C7C7",
"r c #69699797C9C9",
"t c #71719999C6C6",
"y c #75759B9BC7C7",
"u c #7C7C9C9CC3C3",
"i c #7A7A9D9DC5C5",
"p c #70709B9BCACA",
"a c #79799E9EC8C8",
"s c #7F7FA1A1C9C9",
"d c #7B7BA2A2CCCC",
"f c #8383A4A4C9C9",
"g c #8585A5A5CACA",
"h c #8484A7A7CDCD",
"j c #8C8CAAAACBCB",
"k c #8F8FAAAACBCB",
"l c #8A8AAAAACECE",
"z c #9292ADADCDCD",
"x c #9B9BB3B3CFCF",
"c c #8D8DADADD0D0",
"v c #9797B1B1D0D0",
"b c #9A9AB4B4D2D2",
"n c #A6A6BBBBD3D3",
"m c #A2A2BBBBD7D7",
"M c #A4A4BBBBD4D4",
"N c #ACACC2C2DADA",
"B c #B0B0C3C3D7D7",
"V c #B1B1C4C4D9D9",
"C c #B5B5C8C8DCDC",
"Z c #BCBCCBCBDCDC",
"A c #BFBFCDCDDDDD",
"S c #C3C3D0D0DDDD",
"D c #C4C4D1D1DEDE",
"F c #CACAD5D5E0E0",
"G c #D0D0D9D9E3E3",
"H c #D6D6DDDDE4E4",
"J c #D8D8DFDFE5E5",
"K c #DADAE0E0E7E7",
"L c #DDDDE3E3E7E7",
"P c #DFDFE4E4E7E7",
"I c #E7E7E9E9EAEA",
"U c #E7E7EAEAEAEA",
"Y c #E9E9EAEAEAEA",
"T c #EAEAEBEBEAEA",
"R c #ECECEDEDEBEB",
"E c #EDEDEDEDEBEB",
"W c #EDEDEEEEECEC",
"Q c #EEEEEEEEECEC",
/* pixels */
"                                ",
"                                ",
"  QQQQQQQQQQQQQQQQQQQQQQQQQQQQ  ",
"  QQQQQQQQQQQQQQQQQQQQQQQQQQQQ  ",
"  QQrrrrrrrrrrrrrrrrrrrrrrrrQQ  ",
"  QQeeeeeeeeeeeeepdrewwrwrwrQQ  ",
"  QQwwwwwwwwwwwwwmNwwwwwwwwwQQ  ",
"  QQ0000000000000JLww9w99w9wQQ  ",
"  QQ999999999999cQRh99989999QQ  ",
"  QQ888888888888FQRC88888988QQ  ",
"  QQ77777777777yQQRI97287777QQ  ",
"  QQ22222222222VQVGRl2222222QQ  ",
"  QQQQQQQQa2,29YQtbQS2227,2,QQ  ",
"  QQQQQQQQM,,,bQD10QY3;,,,,,QQ  ",
"  QQ>>>>sQG>;,HQg::DQv>:::::QQ  ",
"  QQ;;;;1IQ3;fQJ:;;jQD:;;:;;QQ  ",
"  QQ*****ZEz*SQv=;*:YR4-----RR  ",
"  QQ*****jES6EY:;*;=CRb-----RR  ",
"  QQ==&&&<QIVQB$***#iYH-%%&&QQ  ",
"  QE&&&#&&FQQE9%#%%#*IR6%%%%QQ  ",
"  QQ######xEES#%#####nQQQQQQQQ  ",
"  QQ@@@@@@9EEu++#O##+6RRQQQRQQ  ",
"  QQ@+O@O+@LJ+++OOO+OO-@@O@OQQ  ",
"  QQOOOOOoonjo++OOOOOOOOOOOOQQ  ",
"  QQOoooooo6$ooooooooooOOoooQQ  ",
"  QQXooXXooXXoXoXoXo.oo.ooO.QQ  ",
"  QQXXXXXXXXXXXXXX.X.oo...o.QQ  ",
"  QQ........................QQ  ",
"  QQEQQQQQQQQQQQQQQQQQQQQQQQQQ  ",
"  QQQQQQQQQQQQQQQQQQQQQQQQQQQQ  ",
"                                ",
"                                "
};
