/* XPM */
static char *videoporama[] = {
/* columns rows colors chars-per-pixel */
"31 32 236 2 ",
"   c #1BB47B480ECF",
".  c #331D7A4A10AA",
"X  c #30485D4932B5",
"o  c #1CFB7D173ED0",
"O  c #2B0D69CF262E",
"+  c #266872B2277A",
"@  c #32FC777C3785",
"#  c #32CB7D023509",
"$  c #3E3C719B3D64",
"%  c #1EBB74584DB8",
"&  c #3BFA6BB243F7",
"*  c #308770C44C54",
"=  c #20C47A09567A",
"-  c #1E815DCA6182",
";  c #1C8179BC6A30",
":  c #1A9067A2726F",
">  c #1E267FF87D0A",
",  c #3A916839658F",
"<  c #345371FD6A00",
"1  c #3A89664C77AA",
"2  c #278A7F4D7849",
"3  c #4E2942F5435C",
"4  c #525E4729479C",
"5  c #54994B0B4B47",
"6  c #59D64E954E8D",
"7  c #48CD5C344DD7",
"8  c #58C154944E51",
"9  c #4DCA564D5C8A",
"0  c #561051A6523A",
"q  c #5A95546C5487",
"w  c #55C25EB6526E",
"e  c #5A0656EC59DA",
"r  c #53E85CD05935",
"t  c #5BF15A1D5C34",
"y  c #6097563555DD",
"u  c #6152572C57F5",
"i  c #64E75C4B5C53",
"p  c #68E05EC65DE8",
"a  c #45DE668846AC",
"s  c #58D26CE94F2E",
"d  c #49D578464897",
"f  c #473F65EB53E3",
"g  c #4BF065CD5513",
"h  c #516062595755",
"j  c #6BB1674B59B4",
"k  c #712E6C0857AE",
"l  c #76D1777F564C",
"z  c #4C7C5A0E61B7",
"x  c #548B5AF46674",
"c  c #5AFF5C1E6224",
"v  c #41675BA77F38",
"b  c #63CA5DB16194",
"n  c #69905EE06074",
"m  c #419664086332",
"M  c #5C6E63826AA2",
"N  c #4CA27C5962D1",
"B  c #446F63FC7BEC",
"V  c #5AC370BA7F08",
"C  c #662E61CB62E1",
"Z  c #6BC4640363B5",
"A  c #63BA66486BB8",
"S  c #6889679C6B09",
"D  c #6F33685F697F",
"F  c #70DB6A7A6A8F",
"G  c #62DC6D017560",
"H  c #666371D6762F",
"J  c #BC3257C63592",
"K  c #B760707837DC",
"L  c #CF1A54983C1B",
"P  c #D18C503039FA",
"I  c #C4C864423688",
"U  c #A4815E595742",
"Y  c #851C7E694F86",
"T  c #B553622B40CF",
"R  c #B76C6CF44CCD",
"E  c #9F2B6EF76A67",
"W  c #8AEE776B6FBA",
"Q  c #9F0C756566CF",
"!  c #93AD6EFA7370",
"~  c #C65B64DD4455",
"^  c #1D5390330F25",
"/  c #1C02896518EC",
"(  c #1F0B98D318EE",
")  c #25388B81173B",
"_  c #28898BC91B2D",
"`  c #256295CD1A73",
"'  c #22A4A65D0F2B",
"]  c #2508AF2C134D",
"[  c #24A7A2081B82",
"{  c #220CABAC1AA1",
"}  c #2672BA85118E",
"|  c #1D5E8F3C2FC7",
" . c #279E8B712987",
".. c #39EA845F2C8A",
"X. c #2B9693A32136",
"o. c #265898732625",
"O. c #30BD875B347B",
"+. c #26BB9A0E354C",
"@. c #1B12A67B37F4",
"#. c #271BA5812070",
"$. c #3832AEEA202A",
"%. c #2996B9A5286C",
"&. c #2195B6033666",
"*. c #497184BF39B5",
"=. c #53A689013A19",
"-. c #4762B8242A6F",
";. c #22D2C41E15FC",
":. c #27B881BF490E",
">. c #2A879C39455B",
",. c #1CBEABE759C6",
"<. c #27E6A230438A",
"1. c #2023B3744B32",
"2. c #1FC7A61050A7",
"3. c #3A05A2CF5547",
"4. c #16D1924971B6",
"5. c #254B884364BE",
"6. c #1E8DA03E7CB3",
"7. c #56109125520D",
"8. c #7B80831056BE",
"9. c #75DCA20A5AC4",
"0. c #426287F174E1",
"q. c #55C69CBD7DB3",
"w. c #6BD7A61A7153",
"e. c #89A988B34A8A",
"r. c #935387F946DC",
"t. c #916E81164B88",
"y. c #9BAD91C14F48",
"u. c #88D388B759ED",
"i. c #97A28EFF550D",
"p. c #999698095D62",
"a. c #B2358C874718",
"s. c #A6EF965B484D",
"d. c #A46A8EE45B1A",
"f. c #B200A1BB473B",
"g. c #A4A0A7DF57BC",
"h. c #B88DA8175E28",
"j. c #BBB8B871566D",
"k. c #918F87476BE5",
"l. c #85BE9516676C",
"z. c #91BB964661C0",
"x. c #B4CF9D486C57",
"c. c #878CA0737225",
"v. c #9334A8027853",
"b. c #A2C4A1686781",
"n. c #AF8EB1556209",
"m. c #C2EAB6AD543D",
"M. c #1950598F9489",
"N. c #1AD768BC8052",
"B. c #1D0A76D69E07",
"V. c #2FAB65008B1B",
"C. c #049D7F41BB99",
"Z. c #34CB67A9AAF5",
"A. c #3E0E7BEBA496",
"S. c #23AE64D4B80B",
"D. c #2915727DBF99",
"F. c #372C7AA0B658",
"G. c #4B2F65C6868C",
"H. c #50E967AD80CD",
"J. c #4DFC75CE8729",
"K. c #526976B489C8",
"L. c #43AC76A7978C",
"P. c #4B63793F9108",
"I. c #61C4789D8743",
"U. c #70657AB693C2",
"Y. c #71767E6D97F8",
"T. c #0E667097C7AC",
"R. c #08E972A3CBC9",
"E. c #0A4778CFCAA8",
"W. c #10087084D4B8",
"Q. c #284870FFC1F5",
"!. c #08B56B16E9B3",
"~. c #0DB97D3BEBA0",
"^. c #181C7E73E23E",
"/. c #01D86D81FDB0",
"(. c #0A867532F309",
"). c #033574ADFB39",
"_. c #0A497164FC94",
"`. c #013F7C73FBA3",
"'. c #1686870A8635",
"]. c #0DBB86F39F00",
"[. c #15C78AE39A2C",
"{. c #256492678C97",
"}. c #307889AB9A34",
"|. c #0DD784E7A5F4",
" X c #095E831ABB4F",
".X c #2ECE896EA83E",
"XX c #3884820FADF9",
"oX c #2392815CB778",
"OX c #5DFE821A8DB0",
"+X c #4931967D8696",
"@X c #41DF82579F78",
"#X c #73DF85EA8F3E",
"$X c #48558776A9A5",
"%X c #49548A96AE1C",
"&X c #54A98AEEA3E0",
"*X c #4A4488A1B262",
"=X c #636B9674A315",
"-X c #18FF89D6D9F7",
";X c #28CA88C0C294",
":X c #3215838BC9C9",
">X c #330C91E5C66B",
",X c #22FB8B11D2C7",
"<X c #34B89C60D54C",
"1X c #07519007F016",
"2X c #16DB8828E87F",
"3X c #115E946EE6A1",
"4X c #1A7E9A63E4F3",
"5X c #0698882AF675",
"6X c #0CC48A39F801",
"7X c #016585FAFB2E",
"8X c #001A8D2CFD4F",
"9X c #0D8E9D89F779",
"0X c #01C192E9FBF9",
"qX c #22A49984E7AF",
"wX c #2A1B8798F0F3",
"eX c #1C64A604EEAA",
"rX c #1364A3E3F42D",
"tX c #1B2EAA23F39A",
"yX c #3CDCAF0FEA94",
"uX c #3437ABF3F243",
"iX c #4825927DC20D",
"pX c #5F39AA62C96B",
"aX c #7C47A792C5A0",
"sX c #760BB767DD89",
"dX c #7D44BB0FDB45",
"fX c #41B890F4EB41",
"gX c #535B9B07E836",
"hX c #46DBB323EDA0",
"jX c #5A19B896E85C",
"kX c #61B3B64CE25B",
"lX c #8C9EAD37BCA6",
"zX c #8211BA81C59F",
"xX c #82B3BBA5DA27",
"cX c #9334BED2D5BE",
"vX c #981EC019D4B5",
"bX c None",
/* pixels */
"bXbXbXbXbXbXbXbXbXbXbXbXbXbXcXcXdXxXvXbXbXbXbXbXbXbXbXbXbXbXbX",
"bXbXbXbXbXbXbXbXvXxXdXkXkXjXhXyX>X<XyXbXbXbXbXbXbXbXbXbXbXbXbX",
"bXbXcXxXsXjXyXtXeXrXuXhXuX4X[.< z B A.bXbXbXbXbXbXbXbXbXbXbXbX",
"xXrXrXrXrX9X9X4X! Q =XqX0X].* h Z A I.lXbXbXbXbXbXbXbXbXbXbXbX",
"sX9X0X0X8X0X1XW L P ~ I.2XB.7 j p 0 I.aXbXbXbXbXbXbXbXbXbXbXbX",
"dX6X7X7X7X7XU.T J J K a.J.1 0 i t u S M bXbXbXbXbXbXbXbXbXbXbX",
"cX6X`.`.`.^.i.x.n.h.x.m.8.9 Z Z H.P.C j q q bXbXbXbXbXbXbXbXbX",
"bX2X).).).(.b.m.j.n.n.p.j S Z G.-X3XXXA b C 0 bXbXbXbXbXbXbXbX",
"bXwX)./././.l.y.s.8.e.k n p x D.5X8X1X>XK.i b q q bXbXbXbXbXbX",
"bXfX_./././.#Xt.r.k w 8 i j Z._.).5X2X*X&XP.p n u q bXbXbXbXbX",
"bXgX_.!.R.|.3.-.-.d 8 j Z V.W./.(.*XW U E =X%XS i j 0 bXe e bX",
"bXpX6.,.1.&.%.;.$.s Z p d <.4.E.F.z.f.K T #XrXiXI.i b 0 u 0 e ",
"bXzX%.} } ] ' ` a u u 6 f  .{ 2.7.Y i.y.d.OX X{..X@XC 0 Z q e ",
"bXbX+.^  .| :.a 8 i y u h f O.{ $.=.l b.c.2 :. .4.,Xc D b q bX",
"bXbX+Xq.* bXm t Z i L.J.Z b g @ [ ) *.w.A.: .  .= L.Z Z q bXbX",
"bXbXbXbXbXbXu Z Z V -X-XA.G Z r & +   >.N.: : = , u Z 5 bXbXbX",
"bXbXbXbXbXq q i x Q.5X7X6X;XJ.A t 7 O ( o.; R.M.t Z y q bXbXbX",
"bXbXbXbXbXu i b Z.(.).~.:X*XI.H A i h @ X.@.> G.D Z q bXbXbXbX",
"bXbXbXbXu Z S N T././.%Xk.R R #X$XG i t & O.d n Z 4 bXbXbXbXbX",
"bXbXbXq C i h +.4.C.F.l.f.a.I Y.qXXXK.Z t 9 t Z 6 6 bXbXbXbXbX",
"bXbXq u t q g O.] <.7.e.r.g.s.K.C.[.}.J.c 6 j b q bXbXbXbXbXbX",
"bXbX5 i u 0 i h ..[ ] *.s u.v.0.o ) 5.oXM Z F 5 e bXbXbXbXbXbX",
"bXbXbX5 e t i i x $ X./ ..9.%XN.. _ = V.i Z 4 q bXbXbXbXbXbXbX",
"bXbXbXbXbXbXt u i j f + / o.'.M.- % a t i t 0 bXbXbXbXbXbXbXbX",
"bXbXbXbXbXbXbXbXC i b r X ) ` ; R.S.x Z D 5 bXbXbXbXbXbXbXbXbX",
"bXbXbXbXbXbXbXbXbXt q i c $ _ #.5.v Z Z 4 t bXbXbXbXbXbXbXbXbX",
"bXbXbXbXbXbXbXbXbXbXq u p n g # $ i i q q bXbXbXbXbXbXbXbXbXbX",
"bXbXbXbXbXbXbXbXbXbXbXbXi i i t 0 i C 5 bXbXbXbXbXbXbXbXbXbXbX",
"bXbXbXbXbXbXbXbXbXbXbXbXbXq q 5 Z D 3 bXbXbXbXbXbXbXbXbXbXbXbX",
"bXbXbXbXbXbXbXbXbXbXbXbXbXbX5 n p 5 t bXbXbXbXbXbXbXbXbXbXbXbX",
"bXbXbXbXbXbXbXbXbXbXbXbXbXt 0 u u q bXbXbXbXbXbXbXbXbXbXbXbXbX",
"bXbXbXbXbXbXbXbXbXbXbXbXbXbXbXe t bXbXbXbXbXbXbXbXbXbXbXbXbXbX"
};
