/* XPM */
static char *wormux_128x128[] = {
/* columns rows colors chars-per-pixel */
"32 32 222 2 ",
"   c #512E5D0C34E2",
".  c #57CC653735D7",
"X  c #5781674E3C8F",
"o  c #5EAF72533A7C",
"O  c #647D7D113E21",
"+  c #3E845600614B",
"@  c #49805BD25513",
"#  c #796E4F724A1D",
"$  c #4EA960FD4BE8",
"%  c #545966A940B8",
"&  c #65FB7F9B42E5",
"*  c #58DC4AF66FA5",
"=  c #51D54A2F799A",
"-  c #43D35CFB7763",
";  c #5E6F58527944",
":  c #63895B44659D",
">  c #73D25B976040",
",  c #4F9964A1697A",
"<  c #595D74916051",
"1  c #4A6665CD71CB",
"2  c #557A73977BA3",
"3  c #58C5777A7E2A",
"4  c #6C0F67106F30",
"5  c #782C6BDA6342",
"6  c #7F336B2669BE",
"7  c #787977CE6FD9",
"8  c #7ECC7B196D2B",
"9  c #637963AE77B6",
"0  c #610C6DA27F0E",
"q  c #75AD6C8D7599",
"w  c #6EAD73FA7738",
"e  c #66B5704F7C29",
"r  c #747876B6743B",
"t  c #7981725D72E9",
"y  c #77D9786B7260",
"u  c #7BC27ADF7285",
"i  c #8B263FC82DA1",
"p  c #9E90467B257F",
"a  c #9EE9482A2734",
"s  c #90EC44EE2901",
"d  c #9FFA4E982B3B",
"f  c #83F6411F3715",
"g  c #8DC354443286",
"h  c #92E15CBA360E",
"j  c #A82652EE2F47",
"k  c #A908547D3062",
"l  c #AAA8595F333B",
"z  c #94706ADF3765",
"x  c #98B075363B7A",
"c  c #9EA75C0247A2",
"v  c #9F6A5D23484A",
"b  c #A10B5FBE49C1",
"n  c #945C78C14CCC",
"m  c #81036F5B5AC9",
"M  c #89016A5F5D39",
"N  c #8A7A733451AD",
"B  c #9FF77EAF5EA8",
"V  c #A6D27D594444",
"C  c #83AE7892664E",
"Z  c #89DD7C5463C1",
"A  c #81A57C2C6BAE",
"S  c #838D742A71A7",
"D  c #6D8E896C489F",
"F  c #70158B7447AB",
"G  c #65EF824756C2",
"H  c #7B1999D753AD",
"J  c #A95C916C396C",
"K  c #C3689FFF3EFA",
"L  c #CBD29E073E5F",
"P  c #D02BA0F63E97",
"I  c #D9CFA4EE375C",
"U  c #D549A2F63A91",
"Y  c #DFA6AA683C26",
"T  c #E2F0A96232CC",
"R  c #EAC7AF23332A",
"E  c #EF23B2663522",
"W  c #EBFCB2F63C4D",
"Q  c #F466B537338F",
"!  c #FA65BA11360C",
"~  c #FD4BBDDB3AB8",
"^  c #FFFFC1473D90",
"/  c #81B9831F4987",
"(  c #9FDB83704E93",
")  c #962185365D4A",
"_  c #9B4285DC5C01",
"`  c #A58386BD4BA5",
"'  c #AC8A8CAB4BE0",
"]  c #B9B59533479E",
"[  c #BF24987E4696",
"{  c #B0D491D04EEC",
"}  c #A4F88BF1548B",
"|  c #A5D38DC55822",
" . c #B7C88EC2516C",
".. c #B153923B5030",
"X. c #B0E29597596B",
"o. c #8256A29C5EA0",
"O. c #BEAEA3525D2B",
"+. c #9E1D85EC6066",
"@. c #9F188C3261A5",
"#. c #9F5F92816FB3",
"$. c #8CA2852171C6",
"%. c #A2328F3B6554",
"&. c #A45491C16647",
"*. c #AF7B90FA6783",
"=. c #A41993096A7F",
"-. c #AB6699226BD2",
";. c #B2C996E4642E",
":. c #B5499D0762E9",
">. c #B36594046DE7",
",. c #A782956070A6",
"<. c #AF119E947283",
"1. c #AA949EBD794A",
"2. c #8B78AE366CB8",
"3. c #926DB5BD691B",
"4. c #9479B84F6E9C",
"5. c #8EFBB32D7871",
"6. c #B7DEA3546722",
"7. c #BFCEA42861FA",
"8. c #B47EA60F75F6",
"9. c #BB96A9807A34",
"0. c #CA589EC54344",
"q. c #C41D9ECC4E70",
"w. c #DDDBAE2B492F",
"e. c #F599BB624278",
"r. c #F209BB5047EF",
"t. c #E266B40053E8",
"y. c #E5C8BCA05DA6",
"u. c #E040BD15661D",
"i. c #C4E8AE1F78F2",
"p. c #D3D7BABB773D",
"a. c #9E72C3EE72C3",
"s. c #FFD6C3EA4381",
"d. c #FFC9C63C4A0F",
"f. c #EFC6C1F15AA5",
"g. c #FAF3C65252DF",
"h. c #F77AC9535F3E",
"j. c #FD64CC755C88",
"k. c #E679C2446A29",
"l. c #FBB2CE6363CF",
"z. c #E560C5D37476",
"x. c #EA7CC7CF70AC",
"c. c #EB6ECEDE7F1F",
"v. c #F28ECB977FE8",
"b. c #F04BD0EE7BE6",
"n. c #F901D29071EE",
"m. c #F261D24B7B96",
"M. c #4EF8564D8FE6",
"N. c #522F5A67833B",
"B. c #51175C3D893D",
"V. c #45C65E4D94C3",
"C. c #4B3B5E1392E9",
"Z. c #47F865C586B5",
"A. c #4F566DE587ED",
"S. c #4C0D64EB8E40",
"D. c #5ACE613C8253",
"F. c #574169518688",
"G. c #5C706CBA8561",
"H. c #51F366C189E0",
"J. c #563B750881C1",
"K. c #4C5663F89937",
"L. c #4DFB6BA19AFA",
"P. c #57756388955E",
"I. c #559C723C9D8E",
"U. c #66356B7C824C",
"Y. c #675D73D084B6",
"T. c #684A7C4A8767",
"R. c #726B755B8446",
"E. c #73897D828EEB",
"W. c #7B9C7F4F898E",
"Q. c #706E6EBA9480",
"!. c #69727D8C9786",
"~. c #62B67AFF9C67",
"^. c #698279099B67",
"/. c #55E06AD7A605",
"(. c #672487FC83C0",
"). c #7E4385B98B30",
"_. c #6D6682F99D5A",
"`. c #724883B396FE",
"'. c #7C828A72980F",
"]. c #7426878E9D03",
"[. c #8643895C882F",
"{. c #8AE793D6943E",
"}. c #8B6C985E9D9E",
"|. c #94B492509644",
" X c #96279DD998B5",
".X c #A3A28F638784",
"XX c #AB54A7048B1A",
"oX c #B82BA36480F9",
"OX c #BB2AAF838E78",
"+X c #A127A7819D04",
"@X c #A5A5AA2A9BE9",
"#X c #B4E1A3E09E24",
"$X c #B023B1299AC7",
"%X c #C4C8B67A85AE",
"&X c #C9A8B41A8581",
"*X c #C26AB6FF8AC8",
"=X c #C5F0B90E89D7",
"-X c #DFBAC0328A48",
";X c #C98BB746974E",
":X c #C362BC3FAA3A",
">X c #D7C3C8248F6E",
",X c #E449CD1D868E",
"<X c #E6CAC6228963",
"1X c #FFC7DAB48F07",
"2X c #D6CAC659A206",
"3X c #E079CC85A750",
"4X c #F7AEDFD2AD5D",
"5X c #F2A1DF87B7DF",
"6X c #FFFFE352A272",
"7X c #F649E0DAA891",
"8X c #F75BE63CBAED",
"9X c #A1F0AD43C43D",
"0X c #B0FFBEC3D5FF",
"qX c #D72BD20ECB35",
"wX c #EEB9E7D5D436",
"eX c #E2A5D71BE0A1",
"rX c #EA65E4BCE135",
"tX c #ED85EA45EABA",
"yX c #F56EEEAAE3EB",
"uX c #FFFFFC1CEF3A",
"iX c gray100",
"pX c None",
/* pixels */
"pXpXpXpXpXpXpXpXpXpXpXpXpXpXpXpXpXpXpXpXpXpXR.t D.pXpXpXpXpXpXpX",
"pXpXpXpXpXpXpXpXpXpXpXpXpXpXpXpXpXpXpXpXpXW.:.' N N.pXpXpXpXpXpX",
"pXpXpXpXpXpXpXpXpXpXpXpXpXpXpXpXpXpXpXpXpX1.O.' x : pXpXpXpXpXpX",
"pXpXpXpXpXpXpXpXpXpXpXpXpXpXpXpXpXpXpXpXpX8.O.' x : pXpXpXpXpXpX",
"pXpXpXpXpXpXpXpXpXpXpXpXpXpXpXpXpXpXpXpXP.*. .V z : pXpXpXpXpXpX",
"pXpXpXpXpXpXpXpXpXpXpXpXpXpXA.3 2 Z.pXpXpXb l d s * pXpXpXpXpXpX",
"pXpXpXpXpXpXpXpXpXpXpXpXpX(.5.4.o.G 1 pXpXv k a i = pXpXpXpXpXpX",
"pXpXpXpXpXpXpXpXpXpXpXpXJ.2.a.3.H O % - M.c j p f pXpXpXpXpXpXpX",
"pXpXpXpXpXpXpXpXpXpXpXpX< F D & o .   @ C.B V l # pXpXpXpXpXpXpX",
"pXpXpXpXpXpXpXpXpXpXpXpX$ X / J K 6., + K.OXi.;.t pXpXpXpXpXpXpX",
"pXpXpXpXpXpXpXpXpXpXpXpX+ T.wX1X6XyX9XpX/.:X2X;XE.pXpXpXpXpXpXpX",
"pXpXpXpXpXpXpXpXpXpXpXpXpX0XtX.XrX#Xq pXpXOX&XoXQ.pXpXpXpXpXpXpX",
"pXpXpXpXpXpXpXpXpXpXpXpXpXpXqX>.<X-XZ pXpX=...n B.pXpXpXpXpXpXpX",
"pXpXpXpXpXpXpXpXpXpXpXpXpXpX,.v.5X4X:.pXpX=...N pXpXpXpXpXpXpXpX",
"pXpXpXpXpXpXpXpXpXpXpXpXpXpXQ.eXiXuX9.pXpX&.{ m pXpXpXpXpXpXpXpX",
"pXpXpXpXpXpXpXpXpXpXpXpXpXpX^.3X8X7X7.pXpX&.' 5 pXpXpXpXpXpXpXpX",
"pXpXpXpXpXpXpXpXpXpXpXpXpXpX~.u.E R [ pXpX%.' 4 pXpXpXpXpXpXpXpX",
"pXpXpXpXpXpXpXpXpXpXpXpXpXpX!.x.~ Q ] pXpX%.` 9 pXpXpXpXpXpXpXpX",
"pXpXpXpXpXpXpXpXpXpXpXpXpXpX+Xl.^ Q } pXpX%.` N.pXpXpXpXpXpXpXpX",
"pXpXpXpXpXpXpXpXpXpXpXpX_.$Xb.s.! T y pXpX@.( B.pXpXpXpXpXpXpXpX",
"pXpXpXpXpXpXpXpXpXpX~.@X,Xj.^ ! T _ pXpX$.u Z pXpXpXpXpXpXpXpXpX",
"pXpXpXpXpXpXpXpXpX}.>Xl.s.~ E L $.pXpX&.q.[.|.pXpXpXpXpXpXpXpXpX",
"pXpXpXpXpXpXpXL.@Xm.d.~ E L ) 0 pXpXY.w.+._ S pXpXpXpXpXpXpXpXpX",
"pXpXpXpXpXpXpX@Xn.s.! I _ 0 pXpXpXpXG.w.B g > E.pXpXpXpXpXpXpXpX",
"pXpXpXpXpXpX].c.s.! U y pXpXpXpXpXpXpXu 6 g M t.-.pXpXpXpXpXpXpX",
"pXpXpXpXpXpX Xj.^ ~ _ pXpXpXpXpXpXpXpXpX; h 6 r.r.r pXpXpXpXpXpX",
"pXpXpXpXpXpX{.g.^ ~ X.pXpXpXpXpXpXpXpXpXU.C ).f.Q 8 pXpXpXpXpXpX",
"pXpXpXpXpXpX!.y.^ ^ e.<.`.I.pXpXpXpXI.~.'.XXk.~ 0.F.pXpXpXpXpXpX",
"pXpXpXpXpXpXpX#.~ ^ ^ s.f.p.%X*X*X=X>Xz.h.s.! U y pXpXpXpXpXpXpX",
"pXpXpXpXpXpXpXS.@.W ~ ^ ^ ^ s.s.s.s.^ ~ ! R [ r pXpXpXpXpXpXpXpX",
"pXpXpXpXpXpXpXpXpXr | 0.Y W E E E E T P { A H.pXpXpXpXpXpXpXpXpX",
"pXpXpXpXpXpXpXpXpXpXpXH.e r 7 8 8 y w F.V.C.pXpXpXpXpXpXpXpXpXpX"
};
