/* XPM */
static char *wpa_gui[] = {
/* columns rows colors chars-per-pixel */
"32 32 60 1 ",
"  c black",
". c #060606060606",
"X c gray3",
"o c #191919191919",
"O c gray12",
"+ c #222222222222",
"@ c #252525252525",
"# c #282828282828",
"$ c #2F2F2F2F2F2F",
"% c gray19",
"& c #353535353535",
"* c #3A3A3A3A3A3A",
"= c #3C3C3C3C3C3C",
"- c #414141414141",
"; c #444444444444",
": c #484848484848",
"> c #4C4C4C4C4C4C",
", c gray32",
"< c #565656565656",
"1 c gray35",
"2 c #5D5D5D5D5D5D",
"3 c #626262626262",
"4 c #656565656565",
"5 c DimGray",
"6 c #6C6C6C6C6C6C",
"7 c #727272727272",
"8 c #747474747474",
"9 c gray47",
"0 c gray50",
"q c gray51",
"w c gray53",
"e c gray54",
"r c #8D8D8D8D8D8D",
"t c #939393939393",
"y c #959595959595",
"u c #9A9A9A9A9A9A",
"i c gray62",
"p c gray63",
"a c #A5A5A5A5A5A5",
"s c gray66",
"d c #ACACACACACAC",
"f c #B2B2B2B2B2B2",
"g c gray71",
"h c #B9B9B9B9B9B9",
"j c gray74",
"k c #C1C1C1C1C1C1",
"l c #C6C6C6C6C6C6",
"z c #D0D0D0D0D0D0",
"x c #D7D7D7D7D7D7",
"c c #DADADADADADA",
"v c #DFDFDFDFDFDF",
"b c #E1E1E1E1E1E1",
"n c #E4E4E4E4E4E4",
"m c gray92",
"M c #EEEEEEEEEEEE",
"N c gray94",
"B c gray96",
"V c #F9F9F9F9F9F9",
"C c gray100",
"Z c None",
/* pixels */
"ZZZZ*=-;>,<1224455688900q073ZZZZ",
"ZZZ&*:,,:=$@#####$$###$*;1384ZZZ",
"ZZ%*>;-&$%=-:,1441>:-=%$#&;>41ZZ",
"Z$$;;143688whznBVnzje08763,-:3;Z",
"Z$=-132560jVCCCCCCCCV007653>=>:Z",
"Z$==2234uBCCCCCCCCCCCCBu5431$-;Z",
"Z@-&<13tVCCCmgprrahmCCCCy431#%;Z",
"Z@&$,<rVCCMp77888888pMCCVr1<%+-Z",
"Z@$%>2BCCm8450skksq558mCCV4,&+=Z",
"Z@+%:sCCm624jCCCCCCk526mCCd:&+*Z",
"Z@+&,BCCr<2zCCCCCCCCz2<eCCB,&+&Z",
"Z#+&yCCv:>dCCCxapxCCCd,>vCCu*+%Z",
"Z$+$gCCt-<BCCa>>>>aCCB,;rCCh&+$Z",
"Z#+@zCC5=9CCb;:ip:;vCC0=5CCx@+$Z",
"Z$+ONCC;&tCCs=qCCq*sCCy&:CCM++@Z",
"Z$++VCC&$eCCg%2VV2%fCCe%&CCV++@Z",
"Z$+OxCC1@2CCN%#=*@%MCC2@1CCc+++Z",
"Z$++dCCq@#bCCl%##&lCCb#@qCCf+OOZ",
"Z%++rCCz@@7CCCy=-yCCC8@@zCCe++OZ",
"Z%++*VCC6##rCCt<2pCCy##5CCV-++OZ",
"Z&++@iCCb*@%20<506e9=%&vCCp+++OZ",
"Z&++@%NCCc=&-,36963,;;xCCB&+++OZ",
"Z&+++@8CCCv;;,35652,,bCCC8@+++OZ",
"Z&O++++7CCC0;>13442>uCCV6@++++OZ",
"Z*$+O++@6Mm<-:<111<>5CV4@@++++OZ",
"Z&*+++++@#&&=:>,<,>:=-=@@@+++O+Z",
"Z+-%O++++@#%*-:::>:-*%#@++++O+oZ",
"Z *;$+++@@#$&=--;;=*&$@@++++#+ Z",
"ZZX=>*#+++@+@@#$$##@@+@@+#%&@.ZZ",
"ZZZ @;,123456778800wwq986,*o ZZZ",
"ZZZZ                        ZZZZ",
"ZZZZZZZZZZZZZZZZZZZZZZZZZZZZZZZZ"
};
