/* XPM */
static char *xchm[] = {
/* columns rows colors chars-per-pixel */
"32 32 203 2 ",
"   c #7171727275F6",
".  c #777779797E7E",
"X  c #070737378303",
"o  c #06C7387885C5",
"O  c #06DC3CBD8BB6",
"+  c #09093E3E8C8C",
"@  c #08083F3F9212",
"#  c #0BA5420F8D40",
"$  c #121243438D8D",
"%  c #0A4A450594B4",
"&  c #0CCD49099595",
"*  c #090946C79C1C",
"=  c #0B0B4B4B9C3C",
"-  c #1D1D4C4C9494",
";  c #12124D4D9C9C",
":  c #0E0E51D29E9E",
">  c #129250509D1D",
",  c #1C9C52D29D1D",
"<  c #212152529898",
"1  c #282855559C9C",
"2  c #2B2B59599DF3",
"3  c #0AE04D4DA3F9",
"4  c #0AB54DA3A8FE",
"5  c #0C8D52D2A4A4",
"6  c #0B225298ABDA",
"7  c #14BF56ACA2A2",
"8  c #16165600A8A8",
"9  c #15155D07ABAB",
"0  c #1D1D5F5FAAAA",
"q  c #0A515555B34F",
"w  c #0B0B5858B6B6",
"e  c #0B0B5959B8B8",
"r  c #1A9A5E5EB2B2",
"t  c #17176161A7A7",
"y  c #16D760E1AB2B",
"u  c #1CC76610ADAD",
"i  c #1C1C6868AEAE",
"p  c #16166363B433",
"a  c #1BC669BFB50A",
"s  c #1B9C6363B939",
"d  c #1B1B6868BDBD",
"f  c #23236060ABAB",
"g  c #21216C6CAFAF",
"h  c #21216F6FB5B5",
"j  c #24246D6DBDBD",
"k  c #3C3C6D6DB1B1",
"l  c #23A47171B636",
"z  c #297F7620BB65",
"x  c #2F2F7D7DBFBF",
"c  c #3B3B7474B4B4",
"v  c #3E3E7E7EBEBE",
"b  c #7D7D7D7D8686",
"n  c #40406A6AA9A9",
"m  c #4A4A7272AFAF",
"M  c #4E4E7575B0B0",
"N  c #44447A7AB9B9",
"B  c #5C5C7F7FB7B7",
"V  c #23236D6DC1C1",
"C  c #27277070C3C3",
"Z  c #2B2B7AFACCCC",
"A  c #31317A7AC3C3",
"S  c #36367DFECB4B",
"D  c #5B5B8080B7B7",
"F  c #32328080C6C6",
"G  c #3C3C8989C4C4",
"H  c #32328282D2D2",
"J  c #3D3D8787D1D1",
"K  c #3C3C8C8CD8D8",
"L  c #42428B8BD5D5",
"P  c #4B4B9191D6D6",
"I  c #43439292DBDB",
"U  c #4BCC9413D8D8",
"Y  c #4DCE9B9BDDDD",
"T  c #6C399764C28F",
"R  c #69699898CACA",
"E  c #72729B9BCACA",
"W  c #7F7F9E9ECCCC",
"Q  c #69699D9DD2D2",
"!  c #4BCC9E1EE3E3",
"~  c #50509E9EE161",
"^  c #5414A3A3E666",
"/  c #5B5BA626E5E5",
"(  c #5A5AA8A8E1E1",
")  c #5858A7A7E8E8",
"_  c #56D7A9A9EB6B",
"`  c #5DB3AD57EA3F",
"'  c #5F5FB1B1ECEC",
"]  c #66E7AB2BE4E4",
"[  c #6A6AAAAAE3E3",
"{  c #6363AEAEEBEB",
"}  c #7474AE2EE463",
"|  c #6700B24BEE87",
" . c #6E18B308EAEA",
".. c #72F3B6B6EC6C",
"X. c #7777BABAECEC",
"o. c #7B7BBD12EC96",
"O. c #6BECB6B6F272",
"+. c #731DB9E4F29C",
"@. c #7CFDC141F574",
"#. c #828284848D8D",
"$. c #830385059191",
"%. c #8C8C9292A5A5",
"&. c #8D8D9292A9A9",
"*. c #90909696ABAB",
"=. c #93939898B2B2",
"-. c #9999A0A0BEBE",
";. c #A1A1A4A4B6B6",
":. c #80809E9ECACA",
">. c #9C46A34DC217",
",. c #8383A4A4D1D1",
"<. c #8B8BA5A5D1D1",
"1. c #8686ACACD7D7",
"2. c #9393AEAED5D5",
"3. c #8B8BB1B1D8D8",
"4. c #9E9EB5B5D7D7",
"5. c #9898B4B4DADA",
"6. c #A363AB2BCC8C",
"7. c #AFAFB5B5CCCC",
"8. c #B3B3B7B7C5C5",
"9. c #B6B6B9B9CCCC",
"0. c #AAAAB0B0D4D4",
"q. c #A0A0B7B7DBDB",
"w. c #AE2EB636DCBC",
"e. c #B4B4B9B9D7D7",
"r. c #BABABDBDD4D4",
"t. c #B0B0B7B7DDDD",
"y. c #B333BB1ADEBE",
"u. c #B9B9BFBFDFDF",
"i. c #8484BEBEED2C",
"p. c #8181BFBFF1F1",
"a. c #B60BBDF6E0FD",
"s. c #B9B9BFBFE1E1",
"d. c #BDBDC36DDF34",
"f. c #8181C1C1EEEE",
"g. c #9E9EC4C4E564",
"h. c #9797C7C7EEEE",
"j. c #8358C36DF4C9",
"k. c #8E8ECACAF3F3",
"l. c #8D8DCBCBF8F8",
"z. c #9797CD22F6A0",
"x. c #9C09CF86F519",
"c. c #9D9DD3D3F6F6",
"v. c #9696D1D1F8F8",
"b. c #9E9ED6D6FAFA",
"n. c #AAAAC5C5E2E2",
"m. c #BBD5C2F5E349",
"M. c #B131CBCBE564",
"N. c #BB10CB75E73C",
"B. c #B7B7D4D4EAEA",
"V. c #B9B9D6D6EBEB",
"C. c #A1A1CFCFF3F3",
"Z. c #A4A4D4B4F635",
"A. c #A9A9D5D5F6F6",
"S. c #AAAAD9D9F7F7",
"D. c #A5FBD72CFA4F",
"F. c #ABABD781F9F9",
"G. c #A2A2D9D9F9F9",
"H. c #AA54DC31FB50",
"J. c #B409D57FF29C",
"K. c #BCBCD5D5F0F0",
"L. c #B7B7DCDCF7F7",
"P. c #B333DCDCFA7A",
"I. c #B8B8DFDFF9F9",
"U. c #BC04E173FAB1",
"Y. c #C2C2C747DBDB",
"T. c #C201C787E565",
"R. c #C4A7CB03E4E4",
"E. c #CD22CDCDE63B",
"W. c #C46ECDCDEABF",
"Q. c #C908CF8FEB6B",
"!. c #CD4DD151E6E6",
"~. c #C4F7D16AEC1E",
"^. c #CCE6D4D4EDC6",
"/. c #D1D1D6D6EBEB",
"(. c #D668DB48EEC9",
"). c #D9D9DDDDEFEF",
"_. c #CF79D72CF0F0",
"`. c #C1C1DFDFF5F5",
"'. c #CBCBDDDDF4F4",
"]. c #D43ADBA8F168",
"[. c #DA59DF09F21C",
"{. c #C646E3E3F7F7",
"}. c #CECEE5E5F7F7",
"|. c #C2E7E577FB43",
" X c #CCCCE7E7FBFB",
".X c #CD77EA3FFBFB",
"XX c #D4D4E463F473",
"oX c #DCDCE28CF39D",
"OX c #D7D7EDEDFCFC",
"+X c #D9D9ED97FBA5",
"@X c #DFDFF1F1FCFC",
"#X c #E2AFE719F5F5",
"$X c #E62EE9E9F6D1",
"%X c #EB95EDC2F777",
"&X c #EBEBEEEEF9F9",
"*X c #ECECF0F0F7F7",
"=X c #E3E3F171FBBB",
"-X c #ECECF2B9FAC1",
";X c #F0F0F1F1F7F7",
":X c #F3ACF5E7FB97",
">X c #F6F6FA24FD27",
",X c #FEC2FEDEFF5E",
"<X c None",
/* pixels */
"<X<X<X<X<X<X<X<X<X<X<X<X<X<X<X<X<X<X<X<X<X<X<X<X<X<X<X<X<X<X<X<X",
"<X<X<X<X<X<X<X<X<X<X<X<X<XR.u.u.s.d.E.<X<X<X<X<X<X<X<X<X<X<X<X<X",
"<X<X<X<X<X<X<X<X<X<Xm.a./.oX%X*X%X$X).T.w.E.<X<X<X<X<X<X<X<X<X<X",
"<X<X<X<X<X<X<X<Xm.T.%X,X,X,X>X,X,X,X>X>X>X).y.!.<X<X<X<X<X<X<X<X",
"<X<X<X<X<X<X<Xy.#X,X>X,X:X@XOX.X}.+X@X:X>X>X;XQ.R.<X<X<X<X<X<X<X",
"<X<X<X<X<X!.m.:X,X,X-XU.H.H.G.D.c.Z.Z.S.{.-X:X:X(.w.<X<X<X<X<X<X",
"<X<X<X<X<Xd.>X>X>X|.G.b.P.|..X X.X|.P.c.k.x.}.-X;X[.d.<X<X<X<X<X",
"<X<X<X<Xt.;X>X:XH.v.G.U.U.U.U.U.U.I.I.L.A.f.f.J.&X&X^.Y.<X<X<X<X",
"<X<X<XR.[.,X>XD.l.D.F.F.F.F.U.|.|.|.A.Z.x.C.o...J.%X$Xm.<X<X<X<X",
"<X<X<Xm.>X>XP.j.z.x.z.z.z.z.=X,X,X,X,X+XC.i.i.] / '.%X[.e.<X<X<X",
"<X<XR.oX>X=X@.j.l.j.j.p.p.p.+X,X,X,X,X,X,Xh.[ [ Y } $X$Xm.<X<X<X",
"<X<Xt.>X>Xc.+.p.+.+.+.+.....C.Z.Z.{.>X,X,X$XU U U K K.#X^.7.<X<X",
"<X<XT.>X:X+.O.O.| | | | | { ` ^ ^ ~ i.,X,X,XS S J H } #X).0.<X<X",
"<X<X^.:XXX_ ) ~ ~ ~ ( ` ' ` ) _ ! !  .,X,X,Xj C Z Z L oXoXw.<X<X",
"<XE.(.:XJ.I F h z x G P ( o.o.X...i.`.,X,X,Xs s s d V oXoXy.<X<X",
"<XR.).-Xg.C g u g z G `.,X,X,X,X,X,X,X,X,X1.8 7 > 5 r [.oXa.<X<X",
"<XR.(.-X5.g y t i l g.,X,X,X,X,X,X,X,X-XE : & : & : 8 (.XXy.<X<X",
"<X<X^.&Xn.t y y i l V.,X,XM.T T T T n # # # & & = : f (.[.w.<X<X",
"<X<Xm.%XXX0 9 y a a B.,X,XT + # # # # # % = = 3 : = c XX_.6.<X<X",
"<X<Xw.$X#XN 7 p a a h v 8 % @ % % & = = = 3 3 3 = % ,.(.T.*.<X<X",
"<X<XY.(.$X5.; 9 p j -X,X-Xc * = 3 3 5 6 5 6 6 6 % 7 ^.].a.#.<X<X",
"<X<X<Xa.#X[.k > w A ,X,X,XR 3 4 6 6 q 6 6 q 6 = + W _.~.-.<X<X<X",
"<X<X<XT.^.#XN., & 6 Q M.3.8 4 4 w w w w q q * O m ^._.a.$.<X<X<X",
"<X<X<X<Xt.[.XX2.$ # = 4 4 4 4 q w w w w q * O 2 ~._.T.&.<X<X<X<X",
"<X<X<X<XY.a.[.[.4.- o + * 4 q q w e q 3 + o M Q._.Q.9.. <X<X<X<X",
"<X<X<X<X<Xr.a.].].N.B $ X X @ % @ o o o 1 <.~._.T.w.D <X<X<X<X<X",
"<X<X<X<X<X<X9.t./.].^.N.:.n 2 < 1 2 B q.Q._./.m.=.b <X<X<X<X<X<X",
"<X<X<X<X<X<X<X8.6.m.^.]._./.Q.N.~.Q.~._._.N.y.%.  <X<X<X<X<X<X<X",
"<X<X<X<X<X<X<X<X<X;.6.a.N.Q.W._._.Q.W.s.e.=.b <X<X<X<X<X<X<X<X<X",
"<X<X<X<X<X<X<X<X<X<X<X<X=.>.>.w.>.>.=.$.  <X<X<X<X<X<X<X<X<X<X<X",
"<X<X<X<X<X<X<X<X<X<X<X<X<X<X<X<X<X<X<X<X<X<X<X<X<X<X<X<X<X<X<X<X",
"<X<X<X<X<X<X<X<X<X<X<X<X<X<X<X<X<X<X<X<X<X<X<X<X<X<X<X<X<X<X<X<X"
};
