/* XPM */
static char *xv[] = {
/* columns rows colors chars-per-pixel */
"32 32 50 1 ",
"  c #525210101010",
". c #535315151313",
"X c #54541A1A1717",
"o c #55551F1F1A1A",
"O c #535324241D1D",
"+ c #565625251E1E",
"@ c #58582A2A2222",
"# c #59592F2F2525",
"$ c #585833332727",
"% c #5D5D30302828",
"& c #595934342828",
"* c #5B5B39392C2C",
"= c #5B5B3D3D2E2E",
"- c #5C5C3E3E2F2F",
"; c #6B6B35352828",
": c #5D5D43433333",
"> c #5E5E49493636",
", c #5F5F4E4E3A3A",
"< c #606053533E3E",
"1 c #626259594141",
"2 c #63635E5E4444",
"3 c #76766F6F4F4F",
"4 c #BDBD31312A2A",
"5 c #B5B539393030",
"6 c #C7C71E1E1E1E",
"7 c #CBCB2A2A2626",
"8 c #C6C634342D2D",
"9 c #CDCD36362E2E",
"0 c #C0C03D3D3333",
"q c #CDCD3D3D3636",
"w c #BDBD46463A3A",
"e c #CECE42423737",
"r c #CDCD4B4B3E3E",
"t c #D0D050503F3F",
"y c #D1D151514040",
"u c #D4D45C5C4949",
"i c #D6D664645151",
"p c #D6D66A6A5151",
"a c #D0D072725555",
"s c #D8D877775858",
"d c #DBDB84846262",
"f c #DBDB8F8F6A6A",
"g c #DDDD90906A6A",
"h c #E0E09F9F7373",
"j c #E2E2A9A97B7B",
"k c #E4E4B8B88585",
"l c #E7E7C4C48C8C",
"z c #EAEAD1D19595",
"x c #EBEBDFDF9E9E",
"c c None",
/* pixels */
"cccccccccccccccccccccccccccccccc",
"cccccccccccccccccccccccccccccccc",
"cccccccccccccccccccccccccccccccc",
"cccccccccccccccccccccccccccccccc",
"cccccccccccccccccccccccccccccccc",
"cccccccccccccccccccccccccccccccc",
"cccccccxxccccccccxxccxxxccccxccc",
"ccccccxxx2cccccxxx22xxxx2ccxxxcc",
"ccccccxxx2ccccxxxx2xxxxx2cxxxx2c",
"ccccccxxx2cccxxxx2xxxxx22cxxx22c",
"cccccczzz2cczzzz2zzzzz22czzzz2cc",
"cccccclll1cllll11c1lll1cllll11cc",
"cccccckkk3kkkk<<cckkk<<kkkkkkkkc",
"ccccccjjjjjjj,,cccjjj,cjjjjjjj,,",
"cccccchhhhhh>>ccchhh>>chhhhhh>>c",
"ccccccggggg::cccgggf:cccggg:::cc",
"cccccddddd--cccdddd=-ccddd--cccc",
"ccccsssss**cccssssa*cccss**ccccc",
"cccpppppp&cccppppp$&ccppp&cccccc",
"ccuuuuuuu#ccuuuuui#cccuu##cccccc",
"cyytrwtyy@cyyy@yyy%ccyyu@ccccccc",
"eee05Oeeeeeee++eeee;eee+#ccccccc",
"7984oo999999ooc99q9999oocccccccc",
"777XXc77777XXccc77777XXccccccccc",
"666.ccc666..ccccc666..cccccccccc",
"c666cccc   ccccccc   ccccccccccc",
"cc   ccccccccccccccccccccccccccc",
"cccccccccccccccccccccccccccccccc",
"cccccccccccccccccccccccccccccccc",
"cccccccccccccccccccccccccccccccc",
"cccccccccccccccccccccccccccccccc",
"cccccccccccccccccccccccccccccccc"
};
