/* XPM */
static char *zaz[] = {
/* columns rows colors chars-per-pixel */
"32 32 113 2 ",
"   c #002A010C02D7",
".  c #006201FA0B41",
"X  c #02DA09C30BA8",
"o  c #1C851D1205A0",
"O  c #1015137D0A51",
"+  c #14FE18080AE7",
"@  c #0046016714B5",
"#  c #04530BDB13EF",
"$  c #0016007E1A60",
"%  c #0C45120C185D",
"&  c #114714FC1AEF",
"*  c #28E3273A0235",
"=  c #2BCD29F1027F",
"-  c #2A8B2C2F0AD3",
";  c #3A053E8C142D",
":  c #0004001424B0",
">  c #002300BA2D59",
",  c #0D201B152A65",
"<  c #17C71BFD210D",
"1  c #001C00943386",
"2  c #0041013C3D6E",
"3  c #09681C2630C7",
"4  c #23DC24E02637",
"5  c #2235259C291F",
"6  c #2ABD2C912EA0",
"7  c #29EC2CD7302D",
"8  c #4A80472C0477",
"9  c #4B174B930CFE",
"0  c #5F885B9A080E",
"q  c #618D5D7A08D3",
"w  c #6774634F0A79",
"e  c #6A8166470D5E",
"r  c #6C4C68560F48",
"t  c #71896C9807F6",
"y  c #754C728D0EC1",
"u  c #633B62F0102B",
"i  c #76D5728D15C0",
"p  c #7682726417EC",
"a  c #5DB95AD022D3",
"s  c #754D725B3755",
"d  c #001500754370",
"f  c #003700ED4BD4",
"g  c #0023009253B7",
"h  c #00C801A85BA2",
"j  c #00C4011E6323",
"k  c #00B401666BEE",
"l  c #00F0012773D8",
"z  c #0136014F7AA3",
"x  c #0A6E0A6E7BB5",
"c  c #39BE44214F45",
"v  c #45504567459C",
"b  c #436B452449DA",
"n  c #47E44FA25893",
"m  c #46E94FDE596E",
"M  c #53DA54275498",
"N  c #524458655EEF",
"B  c #599F5992596D",
"V  c #5AF75F2963C1",
"C  c #5A7D63446CEC",
"Z  c #637F6354631F",
"A  c #697D6B116CBE",
"S  c #69716C98700E",
"D  c #6B5B70A476B5",
"F  c #7564766E7789",
"G  c #725F75557810",
"H  c #885482DA131A",
"J  c #8DF688EC1672",
"K  c #9A0094971ACE",
"L  c #A0089AB6278E",
"P  c #A64BA0E92CCF",
"I  c #A8C1A38B2F2B",
"U  c #AC9BA7B83594",
"Y  c #AE57A99B37A2",
"T  c #B7B9B21F3CFE",
"R  c #83B280A04396",
"E  c #BB0CB601429E",
"W  c #C058BC3D57E2",
"Q  c #C6D4C2F85C75",
"!  c #CF94CC3F78F3",
"~  c #01C801C883C9",
"^  c #09820982838D",
"/  c #019501948AF2",
"(  c #0A060A068C4A",
")  c #0FFE0FFE8C7D",
"_  c #047504759327",
"`  c #0D720D729242",
"'  c #0C1C0C1C99AD",
"]  c #131013109E54",
"[  c #19A319A39D35",
"{  c #17761776A049",
"}  c #22AD22ADA5E5",
"|  c #24B624B6AC0B",
" . c #7FA68286860C",
".. c #7F3B85C88DB0",
"X. c #804580A281EF",
"o. c #8DA08E078E83",
"O. c #8F0292AE97E9",
"+. c #9016907E9116",
"@. c #969397E69AF9",
"#. c #96D1981C9AEF",
"$. c #9F359F139EF1",
"%. c #A292A323A3A4",
"&. c #AA28AA82AB28",
"*. c #B590B59DB5AA",
"=. c #BB4CBB44BB36",
"-. c #E297DFC988A2",
";. c #E5ADE35C9CD4",
":. c #C5FBC5FBC5FB",
">. c #D516D4E8D4B4",
",. c #DA29D9EBD9A3",
"<. c #F26AF25EF250",
"1. c #FCA2FC9EFC9A",
"2. c None",
/* pixels */
"2.2.2.2.2.2.2.2.2.2.2.2.2.2.2.2.2.2.2.2.2.2.2.2.2.2.2.2.2.2.2.2.",
"2.2.2.2.2.2.2.2.2.2.2.2.2.h j h g g d 1 2.2.2.2.2.2.2.2.2.2.2.2.",
"2.2.2.2.2.2.2.2.2.2.2.h k k k l k j h d 1 2.2.2.2.2.2.2.2.2.2.2.",
"2.2.2.2.2.2.2.2.2.2.j l z ~ z z l l j g d 1 $ 2.2.2.2.2.2.2.2.2.",
"2.2.2.2.2.2.2.2.2.k z ~ / / z ~ ~ l z j f d : . 2.2.2.2.2.2.2.2.",
"2.2.2.2.2.2.2.2.k z z / _ _ ^ ^ / z z k g d > @ # 2.2.2.2.2.2.2.",
"2.2.2.2.2.2.2.2.l ~ ~ ~ / ' ) ] ( z z j g d 1 @ . 2.2.2.2.2.2.2.",
"2.2.2.2.2.2.2.2.z / / _ _ { ` ( x z k h h h 1 @ . 2.2.2.2.2.2.2.",
"2.2.2.2.2.2.2.f x / / _ ' ( } } ^ k j h g f > $   @ 2.2.2.2.2.2.",
"2.2.2.2.2.2.2.2 l / / ( ' [ | | ^ j g g f 2 : .   # 2.2.2.2.2.2.",
"2.2.2.2.2.2.2.f j ^ z / ^ ( [ ) l h g g 2 2 $ .   @ 2.2.2.2.2.2.",
"2.2.2.2.2.2.2.2 g l z z z l k l k j k f > > @ .   # 2.2.2.2.2.2.",
"2.2.2.2.2.2.2.> d g z ) l k j j g g g 1 : $ $ .   X 2.2.2.2.2.2.",
"2.2.2.2.2.2.2.2.2 f h k x j f d > d 2 2 1 : :     2.2.2.2.2.2.2.",
"2.2.2.2.2.2.2.2.> : 1 g h j f d 1 1 1 > @ @     X 2.2.2.2.2.2.2.",
"2.2.2.2.2.2.2.2.2.$ $ 1 d d d 2 1 : $ @       . 2.2.2.2.2.2.2.2.",
"2.2.2.2.2.m S C 2.2.@ $ : 1 > 1 > $ .         2.2.C D n 2.2.2.2.",
"2.2.2.2.2.A ,.>.G 2.2.. . @ @ $ @         . 2.2.G >.,.A 2.2.2.2.",
"2.2.2.2.2.M =.1.=.N 2.2.#                 2.2.N =.1.=.M 5 2.2.2.",
"2.2.2.2.2.7 Z :.<.+.c 2.2.2.2.X   X 2.2.2.2.c o.<.:.Z 7 2.2.2.2.",
"2.2.2.2.2.2.6 Z :.>.A 2.2.2.2.2.2.2.2.2.2.2.A >.:.Z 7 , 2.2.2.2.",
"2.2.2.2.2.2.2.4 M *.*.C 2.2.2.2.2.2.2.2.2.C *.=.B 5 3 2.2.2.2.2.",
"2.2.2.2.2.2.2.2.< b $.&.V 2.2.2.2.2.2.2.V %.$.v < 2.2.2.2.2.2.2.",
"2.2.2.2.2.2.2.2.2.: c R &.X.2.2.2.2.2. .%.F 6 % 2.2.2.2.2.2.2.2.",
"2.2.2.2.2.2.2.2.2.2.2.& b X.#.O...O.@.X.b & 2.2.2.2.2.2.2.2.2.2.",
"2.2.2.2.2.2.2.2.2.2.2.2.; ; a s R s a 9 ; 2.2.2.2.2.2.2.2.2.2.2.",
"2.2.2.2.2.2.2.2.2.2.w y H K I Y P U P K J y u 2.2.2.2.2.2.2.2.2.",
"2.2.2.2.2.2.2.2.2.9 t H L Q -.;.! ! W E T J t 9 2.2.2.2.2.2.2.2.",
"2.2.2.2.2.2.2.2.2.- 8 q r r i p e w w r w 0 8 - 2.2.2.2.2.2.2.2.",
"2.2.2.2.2.2.2.2.2.2.O o * = * = * * = * * o + 2.2.2.2.2.2.2.2.2.",
"2.2.2.2.2.2.2.2.2.2.2.2.2.# % X # # # # 2.2.2.2.2.2.2.2.2.2.2.2.",
"2.2.2.2.2.2.2.2.2.2.2.2.2.2.2.2.2.2.2.2.2.2.2.2.2.2.2.2.2.2.2.2."
};
