/* XPM */
static char *xpm__usr_share_pixmaps_python3_1[] = {
/* columns rows colors chars-per-pixel */
"32 32 249 2 ",
"   c #4B4B88880303",
".  c #4D4D8A8A0404",
"X  c #4E4E8C8C0404",
"o  c #50508E8E0606",
"O  c #525294940707",
"+  c #58589E9E0505",
"@  c #575798980D0D",
"#  c #585898980F0F",
"$  c #5D5DA7A70707",
"%  c #5E5EA7A70606",
"&  c #5F5FABAB0707",
"*  c #5C00B7E0009E",
"=  c #6161ABAB0606",
"-  c #6161ACAC0606",
";  c #61E4ACDD0C7C",
":  c #6464B2B20606",
">  c #6363B7B70404",
",  c #6363BABA0101",
"<  c #6565BFBF0000",
"1  c #6868BBBB0707",
"2  c #6262B1B10909",
"3  c #6363B1B10F0F",
"4  c #6565B4B40D0D",
"5  c #6868BCBC0808",
"6  c #6868BCBC0909",
"7  c #6868BDBD0B0B",
"8  c #6A6ABEBE0A0A",
"9  c #6868BBBB0E0E",
"0  c #6868BABA0F0F",
"q  c #6609AD191124",
"w  c #6565B2B21111",
"e  c #6565B5B51010",
"r  c #6767B7B71515",
"t  c #6969BCBC1010",
"y  c #6969BCBC1212",
"u  c #6A6AB9B91717",
"i  c #6D00BDBD142B",
"p  c #6B6BB2B21818",
"a  c #6A6AC6C60000",
"s  c #6D6DC4C40303",
"d  c #6B6BC1C10707",
"f  c #6C6CC1C10606",
"g  c #6F6FC7C70606",
"h  c #6F6FC7C70707",
"j  c #6B6BC8C80000",
"k  c #6D6DC8C80000",
"l  c #6F6FC9C90202",
"z  c #6B6BC3C30909",
"x  c #6E6EC2C20B0B",
"c  c #6E6EC6C60808",
"v  c #6969C0C00F0F",
"b  c #6FFFC9C40234",
"n  c #7070C9C90404",
"m  c #7070CACA0404",
"M  c #7100CACC043C",
"N  c #7171CACA0707",
"B  c #7200CAC30732",
"V  c #7300CACC073C",
"C  c #7272CBCB0707",
"Z  c #7272CACA0808",
"A  c #72FECAC4083E",
"S  c #7272CBCB0808",
"D  c #7373CBCB0808",
"F  c #7272CBCB0909",
"G  c #7373CBCB0909",
"H  c #7373CACA0B0B",
"J  c #7400CBC80937",
"K  c #7575CBCB0B0B",
"L  c #7575CBCB0E0E",
"P  c #7676CBCB0F0F",
"I  c #7575CCCC0C0C",
"U  c #7575CCCC0D0D",
"Y  c #7777CCCC1111",
"T  c #7C7CCECE1818",
"R  c #84E8AF1211DD",
"E  c #8A50AC0A153D",
"W  c #89FCB88B1441",
"Q  c #993CBC3F234B",
"!  c #9A63AA273572",
"~  c #B6C3AF8C387C",
"^  c #C09BAE0F3263",
"/  c #C396AA7D3F21",
"(  c #CE44BC243D64",
")  c #F056B7C72C48",
"_  c #F7F7B0A722AE",
"`  c #FFFFB66023CE",
"'  c #FFFFBABA2727",
"]  c #FFCEBD5B2B06",
"[  c #F8F8BC992D13",
"{  c #F858BFDB31FB",
"}  c #FDA7BEBE3DE8",
"|  c #8383CFCF2525",
" . c #8383CFCF2929",
".. c #87E8CD062EC7",
"X. c #8787D0D02C2C",
"o. c #8900D2C12E2E",
"O. c #8AD6CC4D30EA",
"+. c #8787C8C83F3F",
"@. c #8B8BD0D03535",
"#. c #8C8CD0D03636",
"$. c #8D8DD4D43737",
"%. c #8F8FD3D33E3E",
"&. c #FFFFC1EC2E59",
"*. c #FE5AC47F3337",
"=. c #FF5AC5453364",
"-. c #FFFFC94936B7",
";. c #F414C70938BD",
":. c #FA58CB443A57",
">. c #F946C9A33DA7",
",. c #FC38CB9E3CE5",
"<. c #FFE2CD333C09",
"1. c #FFFFD0D03F3F",
"2. c #9973B8AE5F3B",
"3. c #BBFCB6014745",
"4. c #B631BE2E4851",
"5. c #BBB5BC844D92",
"6. c #B820BCC55010",
"7. c #CBB0B32A4EA0",
"8. c #DA76B67841B5",
"9. c #EB3ABA4B50D5",
"0. c #8A8ACBCB4141",
"q. c #92FFD6C44033",
"w. c #9797D6D64B4B",
"e. c #9AD8D0734F68",
"r. c #9A9AD9D94F4F",
"t. c #9A9AD7D75151",
"y. c #9EC1D2E456BB",
"u. c #9E9EDBDB5555",
"i. c #B81EC1065390",
"p. c #B423C58B576C",
"a. c #B429C7A4598A",
"s. c #B0DFCA7D5C2E",
"d. c #DAE8C63B5316",
"f. c #F03ECFC947F9",
"g. c #F47EC4BE4095",
"h. c #FAFAC2C24444",
"j. c #F3C8CCFA4498",
"k. c #FAFAC4C44A4A",
"l. c #F368CF3347CD",
"z. c #FAC7D32D4268",
"x. c #F950D124452B",
"c. c #FC5DD347448F",
"v. c #FFF9D51343F9",
"b. c #F8F2D5B94A0E",
"n. c #FDFDD4FF4BCC",
"m. c #FFF9DBC14C25",
"M. c #FDFDCD7759AF",
"N. c #FFB6DF7151BF",
"B. c #FFFFE363544B",
"V. c #FFD4E6FB59EF",
"C. c #FFFFEB195D8C",
"Z. c #FBBBD9D96363",
"A. c #FAFAD6D66A6A",
"S. c #F7F7CFCF7979",
"D. c #FFE4EDD2607B",
"F. c #FDFDEBEB6969",
"G. c #F7F7E4E47C7C",
"H. c #FDFDEDED7D27",
"J. c #37376AA4952C",
"K. c #3BBC6DEE9696",
"L. c #36436DA89CB6",
"P. c #36366F6FA0A0",
"I. c #37377365A59E",
"U. c #3ABB74F5A666",
"Y. c #3737768AAB5C",
"T. c #38387777ABAB",
"R. c #37377929AF16",
"E. c #3CBD7979AC2C",
"W. c #37377A4AB171",
"Q. c #384D7C59B54D",
"!. c #38387F29B9F2",
"~. c #43437979A7A7",
"^. c #4CCD7BFCA2A2",
"/. c #43437AFBA9A9",
"(. c #4A4A7F7FACAC",
"). c #41417E7EB207",
"_. c #3E3E8181B7B7",
"`. c #38C581EDBDC5",
"'. c #56568181A3A3",
"]. c #5D5D8585A7A7",
"[. c #41418181B5B5",
"{. c #4AF583D9B308",
"}. c #45458686BC3C",
"|. c #4B4B8909BC3C",
" X c #5F5F8D8DB4B4",
".X c #53FE8E8EBE68",
"XX c #5F5F9191BABA",
"oX c #6B6B8E8EA8A8",
"OX c #62629090B6B6",
"+X c #63639696BFBF",
"@X c #69699696BCBC",
"#X c #38E384DAC217",
"$X c #43C48989C1C1",
"%X c #4A4A8B8BC0C0",
"&X c #56569413C646",
"*X c #66669D9DC8C8",
"=X c #70709F9FC5C5",
"-X c #7A7AA0A0C0C0",
";X c #74B4A3E3CACA",
":X c #7979A7A7CDCD",
">X c #8B8BA4A4B5B5",
",X c #8282A234BC4E",
"<X c #9191AAAABCBC",
"1X c #BFFFE6BC902A",
"2X c #F6F6DBDB8D8D",
"3X c #F5F5D7D79595",
"4X c #F5F5DFDF9D9D",
"5X c #C1C1E7E79494",
"6X c #C4C4E8E89797",
"7X c #F2F2E2E28787",
"8X c #EFEFE5E59898",
"9X c #F8F8EA3F9640",
"0X c #F574E1619F1F",
"qX c #F8F8EEEE9B9B",
"wX c #C1C1C5C5AEAE",
"eX c #D0D0CFCFA2A2",
"rX c #DEDED9D9A8A8",
"tX c #F4F4DEDEA8A8",
"yX c #CACAE9E9A7A7",
"uX c #CECEEAEAADAD",
"iX c #D0D0EDEDADAD",
"pX c #F6F6E4E4A3A3",
"aX c #F8F8E7E7A1A1",
"sX c #F5F5EC41B5B5",
"dX c #F5F5EEEEB8B8",
"fX c #8282A6A6C3C3",
"gX c #8585AAAACACA",
"hX c #8D8DB0B0CECE",
"jX c #9D9DB6B6C6C6",
"kX c #9494B2B2CACA",
"lX c #8E8EB4B4D2D2",
"zX c #9E1EBA3AD1D1",
"xX c #9494B9B9DBDB",
"cX c #AB55C1C1D57F",
"vX c #A727C747E1E1",
"bX c #C3C3CBCBC2C2",
"nX c #DCDCF1F1C3C3",
"mX c #E5E5F3F3D5D5",
"MX c #EBEBF7F7DEDE",
"NX c #D6D6E4E4F0F0",
"BX c #EFFDF8BBE530",
"VX c #F3F3FAFAEBEB",
"CX c #F5F5FAFAEDED",
"ZX c #E1E1E9E9F1F1",
"AX c #F9F9FCFCF4F4",
"SX c #F9F9FCFCF6F6",
"DX c #F777F9F9FD7D",
"FX c #FBFBFDFDF8F8",
"GX c None",
/* pixels */
"GXGXGXGXGXGXGXGXGXGXGXhX+X}.[.).).).{.OXkXGXGXGXGXGXGXGXGXGXGXGX",
"GXGXGXGXGXGXGXGXGX;X_.#X!.!.Q.Q.W.R.Y.Y.Y.(.GXGXGXGXGXGXGXGXGXGX",
"GXGXGXGXGXGXGXGX=X`.&XxX;X_.Q.W.R.R.Y.U.I.I.U.GXGXGXGXGXGXGXGXGX",
"GXGXGXGXGXGXGXGX}.$XvXDXZX|.W.R.R.R.Y.I.I.Y.U.^.GXGXGXGXGXGXGXGX",
"GXGXGXGXGXGXGXGX`.$XvXDXNX|.R.R.Y.Y.I.I.I.L.L.L.GXGXGXGXGXGXGXGX",
"GXGXGXGXGXGXGXGX`.`.%X:X.XW.R.R.R.I.I.I.P.L.L.L.GXGXGXGXGXGXGXGX",
"GXGXGXGXGXGXGXGX!.!.Q.Q.W.R.R.R.I.I.I.P.L.L.L.L.GXGXGXGXGXGXGXGX",
"GXGXGXGXGXGXGXGXGXGXGXGXGXGXGX(./.I.I.L.L.L.L.J.GXGXGXGXGXGXGXGX",
"GXGXGX;X_.#X`.`.!.Q.W.W.R.R.R.U.U.I.L.L.L.J.J.'.dXD.C.V.C.GXGXGX",
"GXGX&X`.#X`.`.!.Q.Q.W.R.R.R.I.I.U.L.L.L.J.J.J.].dXC.V.B.B.N.GXGX",
"GX*X#X#X#X!.!.!.Q.W.R.R.Y.Y.I.I.I.L.L.L.J.J.J.].sXB.B.B.m.m.Z.GX",
"lX#X#X`.!.!.Q.Q.W.R.R.R.Y.I.I.I.L.L.I.J.J.J.J.].sXB.B.m.m.m.n.4X",
":X#X#X!.#XQ.Q.Q.W.R.Y.Y.U.I.I.L.L.L.L.J.J.J.J.oXaXB.m.m.v.v.v.2X",
".X`.#X!.!.Q.Q.Q.R.R.Y.U.I.I.P.L.L.L.J.J.J.J.K.bXZ.m.m.v.v.v.v.M.",
"_.`.`.`.Q.Q.Q.R.R.W.Y.U.I.I.L.L.J.J.J.J.J.^.<XpXm.m.v.v.v.<.<.<.",
"`.`.!.Q.Q.Q.R.R.R.T. X=XfX,X,XfX,X,X,X-X>XwX0Xm.m.v.v.<.<.<.-.=.",
"!.`.`.Q.Q.W.R.R.E.jXeX8XqXqXqXqXqX9X9X9X7XD.n.m.v.v.1.<.<.=.=.=.",
"_.!.Q.Q.W.W.W.R.zX7XF.D.D.D.C.C.V.V.B.N.B.m.x.x.j.>.>.-.=.=.=.=.",
".XQ.Q.W.R.R.R.@XrXD.D.D.C.D.C.V.V.B.N.N.b.d.6.a.s.p.6.8.*.&.&.h.",
"gXQ.W.W.R.Y.R.zXG.D.D.D.D.C.V.B.B.N.m.f.5.y.X.T U T | e.3.) ] S.",
"zX!.W.T.R.Y.U.cXH.D.D.D.C.V.B.B.B.m.b.4.#.U n D D k q.u.@.~ [ tX",
"GXXXW.T.R.Y.I.cXH.D.D.C.V.B.B.B.m.m.( ..K B D D l o.CX1Xa ..7.GX",
"GXGX{.T.Y.U.U.cXH.C.V.V.B.B.B.m.v.z.Q L B D D D n 6XSXa D L p GX",
"GXGXGXOX/.~./.GXC.C.V.B.N.N.m.m.v.l.W D K B D l $.VXr.l D D : GX",
"GXGXGXGXGXGXGXGXB.V.B.B.m.m.v.n.n.GX= D D n n D iXnXY B D D = GX",
"GXGXGXGXGXGXGXGXB.B.m.m.m.m.v.v.<.;.R s  .5Xw.%.FXt.h h h c % GX",
"GXGXGXGXGXGXGXGXB.N.m.m.m.v.<.<.<.:.E 1 < uXAXMXyXx d f d 7 + GX",
"GXGXGXGXGXGXGXGXm.m.m.v.v.v.<.<.-.=.~ ; 7 * mXBX0., 6 7 v & GXGX",
"GXGXGXGXGXGXGXGXZ.m.v.v.v.v.-.-.=.=.;.2.4 0 i +.> 9 y y 2 . GXGX",
"GXGXGXGXGXGXGXGXGXn.v.<.-.-.=.*.=.&.] 9.! q w e u r ; &   GXGXGX",
"GXGXGXGXGXGXGXGXGXGXA.v.-.*.*.&.] ] ' ` _ / o # @ O X GXGXGXGXGX",
"GXGXGXGXGXGXGXGXGXGXGX4XS.k.-.] ' ] } S.3XGXGXGXGXGXGXGXGXGXGXGX"
};
