/* XPM */
static char *xpm__usr_share_pixmaps_xbarrel_m[] = {
/* columns rows colors chars-per-pixel */
"32 32 145 2 ",
"   c black",
".  c #01D9034F000E",
"X  c #57DF65C047A2",
"o  c #60CA63725DC7",
"O  c #604560456045",
"+  c #62DD63C361AB",
"@  c gray39",
"#  c #641664C2631B",
"$  c #FFFF68686868",
"%  c #4B4B88880303",
"&  c #4D4D8A8A0404",
"*  c #4E4E8C8C0404",
"=  c #525294940707",
"-  c #58589E9E0505",
";  c #575798980D0D",
":  c #5ED4964B1CB9",
">  c #5D5DA7A70707",
",  c #5E5EA7A70606",
"<  c #5F5FABAB0707",
"1  c #5BCFB7CE00D0",
"2  c #6161ACAC0606",
"3  c #611EAC380C23",
"4  c #6464B2B20606",
"5  c #6363B7B70404",
"6  c #6363BABA0101",
"7  c #6565BFBF0000",
"8  c #6868BBBB0707",
"9  c #6262B1B10909",
"0  c #6363B1B10F0F",
"q  c #6565B4B40D0D",
"w  c #6868BCBC0808",
"e  c #6868BCBC0909",
"r  c #6868BDBD0B0B",
"t  c #6A6ABEBE0A0A",
"y  c #6868BBBB0E0E",
"u  c #6868BABA0F0F",
"i  c #64EFAD7A148D",
"p  c #6565B2B21111",
"a  c #6565B5B51010",
"s  c #6767B7B71515",
"d  c #6969BCBC1010",
"f  c #6969BCBC1212",
"g  c #6A6AB9B91717",
"h  c #6CCFBDCE14CF",
"j  c #6B6BB2B21818",
"k  c #5699805624C7",
"l  c #5B348AD324E2",
"z  c #7443B1BB28AB",
"x  c #7EAEB9A436DF",
"c  c #6A6AC6C60000",
"v  c #6D6DC4C40303",
"b  c #6B6BC1C10707",
"n  c #6C6CC1C10606",
"m  c #6F6FC7C70606",
"M  c #6F6FC7C70707",
"N  c #6B6BC8C80000",
"B  c #6D6DC8C80000",
"V  c #6F6FC9C90202",
"C  c #6B6BC3C30909",
"Z  c #6E6EC2C20B0B",
"A  c #6E6EC6C60808",
"S  c #6969C0C00F0F",
"D  c #7070C9C90404",
"F  c #709DCAB10402",
"G  c #7171CACA0707",
"H  c #7272CBCB0707",
"J  c #7194CA940795",
"K  c #7283CABB07F6",
"L  c #7272CBCB0808",
"P  c #7373CBCB0808",
"I  c #7272CBCB0909",
"U  c #7373CBCB0909",
"Y  c #7394CB940995",
"T  c #7373CACA0B0B",
"R  c #7575CBCB0B0B",
"E  c #7575CBCB0E0E",
"W  c #7676CBCB0F0F",
"Q  c #7575CCCC0C0C",
"!  c #7575CCCC0D0D",
"~  c #7777CCCC1111",
"^  c #7C7CCECE1818",
"/  c #7C7CA6A64646",
"(  c #7BA6ADAF4292",
")  c #A8A8A8A80000",
"_  c #A491AB343B0A",
"`  c #C9C998980000",
"'  c #8383CFCF2525",
"]  c #8383CFCF2929",
"[  c #8787D0D02C2C",
"{  c #8863D2622E63",
"}  c #84F5CB4130FE",
"|  c #8787CCCC3131",
" . c #8787C8C83F3F",
".. c #8B8BD0D03535",
"X. c #8C8CD0D03636",
"o. c #8D8DD4D43737",
"O. c #8F8FD3D33E3E",
"+. c #899EBA414F64",
"@. c #8585A9A95757",
"#. c #852AA7FD5CA3",
"$. c #84CFA9845B70",
"%. c #8F8FB5B55E5E",
"&. c #834D8F1F75A8",
"*. c #8BB29FAE719B",
"=. c #8A68A95361EA",
"-. c #9AF9BD566C9E",
";. c #8A8ACBCB4141",
":. c #9292D6D64040",
">. c #9797D6D64B4B",
",. c #9A9AD9D94F4F",
"<. c #9797D0D05050",
"1. c #9A9AD7D75151",
"2. c #9D0ED0FE549A",
"3. c #9E9EDBDB5555",
"4. c #A70DC5F87E8F",
"5. c #8B098E7086E1",
"6. c #8FC892518C96",
"7. c #908090809080",
"8. c #93FF93FF9406",
"9. c #92949490904C",
"0. c gray58",
"q. c #9F6DB0178D20",
"w. c #A068B8718237",
"e. c #B7D0BCFDB057",
"r. c #BFBFE6E69090",
"t. c #C1C1E7E79494",
"y. c #C4C4E8E89797",
"u. c #C16AC396BF65",
"i. c #CACAE9E9A7A7",
"p. c #CECEEAEAADAD",
"a. c #D0D0EDEDADAD",
"s. c #C28CC3C0C169",
"d. c #C85BC907C7C1",
"f. c #C921C921C921",
"g. c #CECECECECECE",
"h. c #DCDCF1F1C3C3",
"j. c #E5E5F3F3D5D5",
"k. c #EBEBF7F7DEDE",
"l. c #EFCEF8CEE5CE",
"z. c #F3F3FAFAEBEB",
"x. c #F5F5FAFAEDED",
"c. c #F9F9FCFCF4F4",
"v. c #F9F9FCFCF6F6",
"b. c #FBFBFDFDF8F8",
"n. c None",
/* pixels */
"n.n.n.n.n.n.n.n.                              n.n.n.n.n.n.n.n.n.",
"n.n.n.n.n.n.n.n.n.n.n.    n.      n.    n.n.n.n.n.n.n.n.n.n.n.n.",
"n.n.n.n.n.n.n.n.n.n.n.    n.      n.    n.n.n.n.n.n.n.n.n.n.n.n.",
"n.n.n.n.n.n.n.n.n.n.n.    n.      n.    n.n.n.n.n.n.n.n.n.n.n.n.",
"n.n.n.n.n.n.n.@ @ @ @ @ @ @ @ @ @ @ @ @ @ @ @ @ n.n.n.n.n.n.n.n.",
"n.n.n.n.n.n.@ g.g.g.g.g.g.0.      0.g.g.g.g.g.g.@ n.n.n.n.n.n.n.",
"n.n.n.n.n.n.@ g.g.g.g.g.g.0.g.  g.0.g.g.g.g.g.g.@ n.n.n.n.n.n.n.",
"n.n.n.n.n.n.@ g.g.g.g.g.g.0.      0.g.g.g.g.g.g.@ n.n.n.n.n.n.n.",
"n.n.n.n.n.@ g.g.g.g.g.g.g.0.g.  g.0.g.g.g.g.g.g.g.@ n.n.n.n.n.n.",
"n.n.n.n.n.@ @ @ @ @ @ @ @ @ @ @ @ @ @ @ @ @ @ @ @ @ n.n.n.n.n.n.",
"n.n.n.n.n.@ 0.g.$ g.0.g.g.0.g.) g.0.g.g.0.g.` g.0.@ n.n.n.n.n.n.",
"n.n.n.n.n.@ 0.$ $ $ 0.g.g.0.) ) ) 0.g.g.0.` ` ` 0.@ n.n.n.n.n.n.",
"n.n.n.n.n.@ 0.g.$ g.0.g.g.0.g.) g.0.g.g.0.g.` g.0.@ n.n.n.n.n.n.",
"n.n.n.n.n.@ 0.0.0.0.0.0.0.0.0.0.0.0.0.0.0.0.0.0.0.@ n.n.n.n.n.n.",
"n.n.n.n.n.@ 0.g.$ g.0.g.g.0.g.) g.0.g.g.0.g.` g.0.@ n.n.n.n.n.n.",
"n.n.n.n.n.@ 0.$ $ $ 0.g.g.0.) ) ) 0.g.g.0.` ` ` 0.@ n.n.n.n.n.n.",
"n.n.n.n.n.@ 0.g.$ g.0.g.g.0.g.) g.0.g.g.8.g.` g.8.@ n.n.n.n.n.n.",
"n.n.n.n.n.n.@ @ @ @ @ @ @ @ @ @ @ @ @ @ @ @ @ @ @ n.n.n.n.n.n.n.",
"n.n.n.n.n.@ 0.g.$ g.0.g.g.0.g.) g.0.g.g.7.e._ 4.-.=.%.n.n.n.n.n.",
"n.n.n.n.n.@ 0.$ $ $ 0.g.g.0.) ) ) 0.g.s.*.2.[ ^ ! ^ ' <.@.n.n.n.",
"n.n.n.n.n.@ 0.g.$ g.0.g.g.0.g.) g.0.f.w.X.! m P P V :.3.../ n.n.",
"n.n.n.n.n.@ 0.0.0.0.0.0.0.0.0.0.0.0.&.} R P P P V { x.r.N | n.n.",
"n.n.n.n.n.@ 0.g.$ g.0.g.g.0.g.) g.9.+.E J P P P D y.v.c P ! j n.",
"n.n.n.n.n.@ 0.$ $ $ 0.g.g.0.) ) ) 6.x P P P P V ..z.,.V P H 4 n.",
"n.n.n.n.n.@ 0.g.$ g.0.g.g.0.g.) g.5.z P J m V P a.h.~ P P P 2 n.",
"n.n.n.n.n.@ @ @ @ @ @ @ @ @ @ @ @ o : v ] y.>.O.b.,.m m A A , n.",
"n.n.n.n.n.@ g.g.g.g.g.g.g.0.      9.( 8 7 p.c.k.i.Z C n C r - n.",
"n.n.n.n.n.n.@ g.g.g.g.g.g.0.      8.q.3 r 1 j.l.;.6 e r r < n.n.",
"n.n.n.n.n.n.@ g.g.g.g.g.g.0.      0.d.$.q y h  .5 y f f 9 % n.n.",
"n.n.n.n.n.n.@ g.g.g.g.g.g.0.      0.g.u.$.i p a g s p < % n.n.n.",
"n.n.n.n.n.n.n.@ @ @ @ @ @ @ @ @ @ @ @ @ @ X k l ; = * n.n.n.n.n.",
"n.n.n.n.n.n.n.n.                              n.n.n.n.n.n.n.n.n."
};
