/* XPM */
static char *xpm__usr_share_icons_sun_java5[] = {
/* columns rows colors chars-per-pixel */
"32 32 201 2 ",
"   c #43EF70A54738",
".  c #4007592A7CAA",
"X  c #D1D121212424",
"o  c #D4D42F2F3131",
"O  c #D7D73D3D3E3E",
"+  c #D9D94A4A4A4A",
"@  c #DCDC59595757",
"#  c #DDDD59595959",
"$  c #DFDF66666464",
"%  c #E2E274747171",
"&  c #4B4B88880303",
"*  c #4D4D8A8A0404",
"=  c #4E4E8C8C0404",
"-  c #50508E8E0606",
";  c #525294940707",
":  c #58589E9E0505",
">  c #575798980D0D",
",  c #585898980F0F",
"<  c #5D5DA7A70707",
"1  c #5E5EA7A70606",
"2  c #5F5FABAB0707",
"3  c #5BCDB7D100DF",
"4  c #6161ACAC0606",
"5  c #61E4ACFA0CB4",
"6  c #6464B2B20606",
"7  c #6363B7B70404",
"8  c #63A6BAAE01D4",
"9  c #6565BFBF0000",
"0  c #6868BBBB0707",
"q  c #6262B1B10909",
"w  c #6363B1B10F0F",
"e  c #6565B4B40D0D",
"r  c #6868BCBC0808",
"t  c #6868BCBC0909",
"y  c #6868BDBD0B0B",
"u  c #6A6ABEBE0A0A",
"i  c #6868BBBB0E0E",
"p  c #6868BABA0F0F",
"a  c #63AFAC70147B",
"s  c #6565B2B21111",
"d  c #6565B5B51010",
"f  c #6767B7B71515",
"g  c #6969BCBC1010",
"h  c #6969BCBC1212",
"j  c #6A6AB9B91717",
"k  c #6C34BD46149F",
"l  c #6B6BB2B21818",
"z  c #626BA25023D1",
"x  c #725BAB493810",
"c  c #6A6AC6C60000",
"v  c #6D6DC4C40303",
"b  c #6B6BC1C10707",
"n  c #6C6CC1C10606",
"m  c #6F6FC7C70606",
"M  c #6F6FC7C70707",
"N  c #6B6BC8C80000",
"B  c #6D6DC8C80000",
"V  c #6F6FC9C90202",
"C  c #6B6BC3C30909",
"Z  c #6E6EC2C20B0B",
"A  c #6E6EC6C60808",
"S  c #6969C0C00F0F",
"D  c #7070C9C90404",
"F  c #7070CACA0404",
"G  c #7100CAFF04F9",
"H  c #7171CACA0707",
"J  c #7272CACA0707",
"K  c #7272CBCB0707",
"L  c #725FCAD30806",
"P  c #7272CBCB0808",
"I  c #7373CBCB0808",
"U  c #72B3CAB908D6",
"Y  c #7272CBCB0909",
"T  c #7373CBCB0909",
"R  c #73F3CBF309F6",
"E  c #7373CACA0B0B",
"W  c #7575CBCB0B0B",
"Q  c #7575CBCB0E0E",
"!  c #7676CBCB0F0F",
"~  c #7575CCCC0C0C",
"^  c #7575CCCC0D0D",
"/  c #7777CCCC1111",
"(  c #7C7CCECE1818",
")  c #588F81725082",
"_  c #7C7CA6A64646",
"`  c #6E998DDE758C",
"'  c #7DD3A1D471B6",
"]  c #8383CFCF2525",
"[  c #8383CFCF2929",
"{  c #8787D0D02C2C",
"}  c #8833D2462E9F",
"|  c #8300C9C4318B",
" . c #8787CCCC3131",
".. c #8787C8C83F3F",
"X. c #8B8BD0D03535",
"o. c #8C8CD0D03636",
"O. c #8D8DD4D43737",
"+. c #8F8FD3D33E3E",
"@. c #8A50BC0C4D57",
"#. c #8585A9A95757",
"$. c #8D20BEB85617",
"%. c #E5E582827E7E",
"&. c #8AD6C5CB410B",
"*. c #8A8ACBCB4141",
"=. c #9240D65240A3",
"-. c #9797D6D64B4B",
";. c #9A9AD9D94F4F",
":. c #9A9AD7D75151",
">. c #9ADED24B5592",
",. c #9E9EDBDB5555",
"<. c #9EC1D43D5C61",
"1. c #ABC2CE887E39",
"2. c #33BB48698FF9",
"3. c #343447479E9E",
"4. c #372E4A049B98",
"5. c #49905B869C17",
"6. c #41415353A2A2",
"7. c #4B6C5C8FA2F4",
"8. c #4E6C5F1DA1C6",
"9. c #4D4D5E5EA8A8",
"0. c #5A5A6A6AADAD",
"q. c #70DA7ED9AD25",
"w. c #67677575B2B2",
"e. c #67677575B5B5",
"r. c #74748080B7B7",
"t. c #81818B8BBDBD",
"y. c #81818C8CBCBC",
"u. c #E8E88F8F8989",
"i. c #EBEB9D9D9A9A",
"p. c #EDEDABABA2A2",
"a. c #EDEDACACA6A6",
"s. c #F0F0B9B9B1B1",
"d. c #F0F0B9B9B6B6",
"f. c #AB15C4028EAC",
"g. c #B42BD3178989",
"h. c #BBB8CFB49E0A",
"j. c #B820D0829480",
"k. c #C000E6FF90F8",
"l. c #C1C1E7E79494",
"z. c #C4C4E8E89797",
"x. c #C09BD098A581",
"c. c #C66BD44CB083",
"v. c #F3F3C7C7BDBD",
"b. c #CACAE9E9A7A7",
"n. c #CECEEAEAADAD",
"m. c #D0D0EDEDADAD",
"M. c #89AA936EC057",
"N. c #8D07977BC2D9",
"B. c #8D8D9797C2C2",
"V. c #8D8D9797C5C5",
"C. c #9999A3A3C7C7",
"Z. c #9999A2A2CBCB",
"A. c #A441ADFDC7E9",
"S. c #A6A6AEAECDCD",
"D. c #B3B3B9B9D3D3",
"F. c #B2B2B9B9D4D4",
"G. c #BA7CC057D2E4",
"H. c #BC1CC28FD308",
"J. c #BFBFC4C4D6D6",
"K. c #BFBFC5C5D8D8",
"L. c #DAECE018CDB8",
"P. c #CA98CF22DD28",
"I. c #CCCCD1D1DADA",
"U. c #CCCCD1D1DDDD",
"Y. c #D8D8DBDBDFDF",
"T. c #F6F6D5D5CBCB",
"R. c #F6F6D5D5CDCD",
"E. c #F6F6D5D5D3D3",
"W. c #DAECE062CE01",
"Q. c #DCDCF1F1C3C3",
"!. c #F9F9E3E3D7D7",
"~. c #F9F9E3E3DADA",
"^. c #E5E5F3F3D5D5",
"/. c #EBEBF7F7DEDE",
"(. c #CCCCD0D0E0E0",
"). c #D9D9DCDCE3E3",
"_. c #D9D9DCDCE7E7",
"`. c #E6E6E7E7E7E7",
"'. c #E5E5E7E7E9E9",
"]. c #E6E6E8E8EAEA",
"[. c #F9F9E3E3E1E1",
"{. c #F044F178E7AB",
"}. c #EF98F8A1E5CB",
"|. c #F54EF6E4E5C6",
" X c #FCFCF0F0E1E1",
".X c #FCFCF0F0E7E7",
"XX c #F2F2F3F3ECEC",
"oX c #F3F3FAFAEBEB",
"OX c #F5F5FAFAEDED",
"+X c #FA74FB7FEB83",
"@X c #FFFFFEFEEEEE",
"#X c #F7F7F7F7F413",
"$X c #F2F2F3F3F4F4",
"%X c #FEFEFDFEF205",
"&X c #FFFFFEFEF2F2",
"*X c #F9F9FCFCF4F4",
"=X c #F9F9FCFCF6F6",
"-X c #FFFFFFFFF7F7",
";X c #FBFBFDFDF8F8",
":X c #FFFFFFFFFBFB",
">X c None",
/* pixels */
">X>X>X>X>X>X>X>X>X>X>X>X>X>X>X>X>X>X>X>X>X>X>X>X>X>X>X>X>X>X>X>X",
">X>X>X>X>X>X>X>X>X>X>X>X>X>X>X>X>X[.i.>X>X>X>X>X>X>X>X>X>X>X>X>X",
">X>X>X>X>X>X>X>X>X>X>X>X>X>X>X>X>X>X# >X>X>X>X>X>X>X>X>X>X>X>X>X",
">X>X>X>X>X>X>X>X>X>X>X>X>X>X>X>X>Xd.@ >X>X>X>X>X>X>X>X>X>X>X>X>X",
">X>X>X>X>X>X>X>X>X>X>X>X>X>X>X>X-X@ % >X>X>X>X>X>X>X>X>X>X>X>X>X",
">X>X>X>X>X>X>X>X>X>X>X>X>X>X-X-Xi.X ~.>X>X>X>X>X>X>X>X>X>X>X>X>X",
">X>X>X>X>X>X>X>X>X>X>X>X>X-X-X%.X u.-X-X>X[.>X>X>X>X>X>X>X>X>X>X",
">X>X>X>X>X>X>X>X>X>X>X>X-X.X$ X % &X~.%.% E.>X>X>X>X>X>X>X>X>X>X",
">X>X>X>X>X>X>X>X>X>X>X-XR.+ X %. X%.o i.:X>X>X>X>X>X>X>X>X>X>X>X",
">X>X>X>X>X>X>X>X>X>X>X~.o X p. X+ o R.-X>X>X>X>X>X>X>X>X>X>X>X>X",
">X>X>X>X>X>X>X>X>X>X-X@ X u.@X% X R.-X>X>X>X>X>X>X>X>X>X>X>X>X>X",
">X>X>X>X>X>X>X>X>X>X-XX o @X@XX O &X&X>X>X>X>X>X>X>X>X>X>X>X>X>X",
">X>X>X>X>X>X>X>X>X>X>X+ + @X@XX X T.-X>X>X>X>X>X>X>X>X>X>X>X>X>X",
">X>X>X>X>X>X>X>X>X>X-Xp.X !.&X@ X + .X>X>X>X>X>X>X>X>X>X>X>X>X>X",
">X>X>X>X>X>X>X>X>X>X>X-X% $ &Xv.X X a.-X>X>X>X>X>X>X>X>X>X>X>X>X",
">X>X>X>X>X>X>X>X>X>X>X>X.X+ s.&Xu.X i.-X-X>X>X>X>X>X>X>X>X>X>X>X",
">X>X>X>X>X>X>X>X>X$XU.'.-X.X% .Xs.o .X-X>X_.Z.e.V.(.-X>X>X>X>X>X",
">X>X>X>X>X>X$XZ.9.t.K.@X&X-X&X.X% T.&X-X'.K.P.H.8.4.N.:X>X>X>X>X",
">X>X>X>X>X>Xe.3.6.V.C.C.C.C.C.C.t.w.0.6.M.L.j.g.1.' ` L.>X>X>X>X",
">X>X>X>X>X>X>XY.U.Z.C.C.C.Z.Z.C.J.U.'.{.h.<.{ ( ^ ( ] >.#.>X>X>X",
">X>X>X>X>X>X>X-X).9.U.&X@X&X@X&X&X`.G.f.o.^ M I I B =.,.X._ >X>X",
">X>X>X>X>X>X>X-XD.3.3.6.w.w.w.w.3.3.. | W I I I V } OXk.N  .>X>X",
">X>X>X>X>X>X>X-X-XU.N.w.w.w.w.w.y.A.$.Q H I I I M z.=Xc I ^ l >X",
">X>X>X>X>X>X>X-X-X'.C.@X@X@X@X&X@X|.&.I I I I V O.oX;.V I H 6 >X",
">X>X>X>X>X>X-X-X&Xw.3.9.w.w.w.w.6.2.z I Y M V I m.Q./ H I I 4 >X",
">X>X>X>X>X-X_.I.I.).r.3.3.3.3.3.3.q.x v [ k.-.+.;X;.M M M A 1 >X",
">X>X>X>XF.9.r.J.XX&X@X@XI.I.I.Y.&X+X@.0 c n.*X/.b.Z b n b u : >X",
">X>X>X>X3.3.9.N.J.).@X&X&X@X@X@X@X%Xx.5 i 3 ^.}.*.8 t u S 2 >X>X",
">X>X>X>XZ.9.3.3.3.3.3.3.0.w.w.w.w.w.7.  e i k &.7 i h h q * >X>X",
">X>X>X>X:X:X).S.e.0.3.3.3.3.3.3.3.3.3.5.) a s d j f w < & >X>X>X",
">X>X>X>X>X>X>X-X-X-X-X&X&X-X-X-X-X-X-X-X#Xc.- , > ; = >X>X>X>X>X",
">X>X>X>X>X>X>X>X>X>X>X>X>X>X>X>X>X>X>X>X>X>X>X>X>X>X>X>X>X>X>X>X"
};
