/* XPM */
static char *xpm__usr_share_pixmaps_klash[] = {
/* columns rows colors chars-per-pixel */
"32 32 243 2 ",
"   c #15D62CED4202",
".  c #19192F2F4545",
"X  c #1A1A3030459B",
"o  c #1D9D33B44989",
"O  c #20CB368C4BF6",
"+  c #244939824EE1",
"@  c #26A73BBB5111",
"#  c #299E3E3E5353",
"$  c #2E2E42425757",
"%  c #2E9542A95858",
"&  c #329D46065B1B",
"*  c #367F49925DCB",
"=  c #38384B4B5E5E",
"-  c #3A3A4D2261E2",
";  c #3EE9511165FB",
":  c #404052A86767",
">  c #442955DC6A41",
",  c #461358586DD4",
"<  c #4B535C7C6AF5",
"1  c #49F45B866D6D",
"2  c #4B495D106CEE",
"3  c #414159597171",
"4  c #4CA75D8A71CC",
"5  c #4E745F3B70DC",
"6  c #4DF75F067120",
"7  c #4F935F6172C9",
"8  c #521164AA66D4",
"9  c #4E4E60607575",
"0  c #444462627A7A",
"q  c #484861617979",
"w  c #51D262127606",
"e  c #5E9C6F6170FA",
"r  c #569C664F7A7A",
"t  c #565668687E7E",
"y  c #5AF16A887E23",
"u  c #5B7AB7860095",
"i  c #61E4ACFE0AEF",
"p  c #6131A9BB0CE3",
"a  c #6029AB730BA2",
"s  c #6363B7B70404",
"d  c #6400BB000201",
"f  c #6565BFBF0000",
"g  c #6868BBBB0707",
"h  c #6262B1B10909",
"j  c #6363B1B10F0F",
"k  c #6565B4B40D0D",
"l  c #6868BCBC0808",
"z  c #6868BCBC0909",
"x  c #6868BDBD0B0B",
"c  c #6B00BF000B01",
"v  c #6868BBBB0E0E",
"b  c #6868BABA0F0F",
"n  c #6617AEA215B5",
"m  c #6565B2B21111",
"M  c #6565B5B51010",
"N  c #6767B7B71515",
"B  c #6A00BD001101",
"V  c #6969BCBC1212",
"C  c #6A6AB9B91717",
"Z  c #6D00BE001501",
"A  c #6959A96B23D1",
"S  c #6CB0A7613295",
"D  c #6E7CA41C3E61",
"F  c #7912AD463DA4",
"G  c #7CC0BB0D3128",
"H  c #71F3B7533C69",
"J  c #6A6AC6C60000",
"K  c #6D6DC4C40303",
"L  c #6B6BC1C10707",
"P  c #6C6CC1C10606",
"I  c #6F6FC7C70606",
"U  c #6F6FC7C70707",
"Y  c #6B6BC8C80000",
"T  c #6D6DC8C80000",
"R  c #6F6FC9C90202",
"E  c #6B6BC3C30909",
"W  c #6E6EC2C20B0B",
"Q  c #6E6EC6C60808",
"!  c #6969C0C00F0F",
"~  c #7000C9FF0301",
"^  c #7070C9C90404",
"/  c #7067CA9B0443",
"(  c #716BCA9F0746",
")  c #7272CBCB0707",
"_  c #7269CAD40806",
"`  c #7272CBCB0808",
"'  c #7373CBCB0808",
"]  c #7284CAA308BC",
"[  c #7272CBCB0909",
"{  c #7370CBB50928",
"}  c #7373CACA0B0B",
"|  c #7575CBCB0B0B",
" . c #7575CBCB0E0E",
".. c #7676CBCB0F0F",
"X. c #7575CCCC0C0C",
"o. c #7575CCCC0D0D",
"O. c #7777CCCC1111",
"+. c #7C7CCECE1818",
"@. c #7F46B0614777",
"#. c #7D80BEB65F02",
"$. c #6FDF8BEF67BC",
"%. c #776B95E66561",
"&. c #79499788659E",
"*. c #8383CFCF2525",
"=. c #8383CFCF2929",
"-. c #8787D0D02C2C",
";. c #885ED26C2E81",
":. c #8582CD3D33F0",
">. c #8AD6CE3436DE",
",. c #8787C8C83F3F",
"<. c #8B8BD0D03535",
"1. c #8C8CD0D03636",
"2. c #8D8DD4D43737",
"3. c #8F8FD3D33E3E",
"4. c #864DBD7A43C8",
"5. c #83BCB35B4D6B",
"6. c #88D7B2945705",
"7. c #8AF8BC0650CE",
"8. c #8A2FB3EC585E",
"9. c #8458A7C465C2",
"0. c #84C9A88666BC",
"q. c #8D5CB3096663",
"w. c #9848BBD36DC0",
"e. c #993EBC117024",
"r. c #9973BE287014",
"t. c #9A63BD3571DB",
"y. c #8AD6C5CB43C8",
"u. c #8A8ACBCB4141",
"i. c #9249D65A406D",
"p. c #9797D6D64B4B",
"a. c #9A9AD9D94F4F",
"s. c #94F9CCF55120",
"d. c #996FCF7B5891",
"f. c #9A9AD7D75151",
"g. c #9E9EDBDB5555",
"h. c #9A9DCB4061C2",
"j. c #5E5E6D6D8080",
"k. c #555571718989",
"l. c #5D5D77778E8E",
"z. c #5E5E7F7F9999",
"x. c #61216F4F8343",
"c. c #650F73DA83FB",
"v. c #652574B488C8",
"b. c #699C77108B24",
"n. c #6D3A7B488CF3",
"m. c #653E7F0492C2",
"M. c #70F17EFF9111",
"N. c #6AEA80809494",
"B. c #636382829C1C",
"V. c #6A6A84DA9C9C",
"C. c #753582C293D3",
"Z. c #7A7A8731943E",
"A. c #79F689C79613",
"S. c #78F986469A1A",
"D. c #7D7D8B8B9E9E",
"F. c #68688989A4A4",
"G. c #71719292ABAB",
"H. c #73F49797B3B3",
"J. c #7E55A0DCB761",
"K. c #7F7FA121BCBC",
"L. c #7CD2A4A4C217",
"P. c #824F9A32819D",
"I. c #81A88E259D24",
"U. c #81818E8E9F1F",
"Y. c #842694069E01",
"T. c #8D92BC01950D",
"R. c #858591C4A2A2",
"E. c #8A1C9603A436",
"W. c #8D8D9898A3A3",
"Q. c #8A8A9696A8A8",
"!. c #8CFA9ABFAE1B",
"~. c #91919D9DAEAE",
"^. c #82D89D47B660",
"/. c #8484A3A3BBBB",
"(. c #966FA596B265",
"). c #922BA3D6B61C",
"_. c #9A9AA650B70C",
"`. c #9292A2A2B8B8",
"'. c #9A9AA6A6B9B9",
"]. c #A005ADB4BAE4",
"[. c #9C63A9A9BD4B",
"{. c #A3A3ACACB535",
"}. c #A3A3AE58BDBD",
"|. c #A1FFADFFC006",
" X c #B6C3CE3E9893",
".X c #C000E6FF9100",
"XX c #BC46D042A2BD",
"oX c #C1C1E7E79494",
"OX c #C4C4E8E89797",
"+X c #C10CD0DDAEF8",
"@X c #C620D44CB54B",
"#X c #C66BD44CB62E",
"$X c #CACAE9E9A7A7",
"%X c #CECEEAEAADAD",
"&X c #D0D0EDEDADAD",
"*X c #8585AEAECCCC",
"=X c #8989B1B1CFCF",
"-X c #8C8CB5B5D453",
";X c #8F8FB9B9D7D7",
":X c #9393BE3EDDDD",
">X c #A2A2AEAEC0C0",
",X c #A516B194C38A",
"<X c #B598BCD9C435",
"1X c #9150C18FC09F",
"2X c #9696C3F6E44A",
"3X c #9B45C56FE53A",
"4X c #9B45CB20EC41",
"5X c #9F9FD151F373",
"6X c #A0A0CFCFF0F0",
"7X c #A121D2D2F473",
"8X c #A407D6C5F8F1",
"9X c #A44ED6D6F94E",
"0X c #A7A7DB85FE53",
"qX c #A8A8DCD5FFF8",
"wX c #CF31DA68C18D",
"eX c #CD4DD1D1D6D6",
"rX c #DCDCF1F1C3C3",
"tX c #E5E5F3F3D5D5",
"yX c #EBEBF7F7DEDE",
"uX c #DB23DE70E24F",
"iX c #DFDFE2E2E5E5",
"pX c #EC58EFD7E830",
"aX c #EFFFF8FFE5FF",
"sX c #EEF1F11CECEC",
"dX c #EFEAF23CED12",
"fX c #EFD7F1F7EDED",
"gX c #F056F178EF21",
"hX c #F3F3FAFAEBEB",
"jX c #F5F5FAFAEDED",
"kX c #F507F774F21B",
"lX c #F54EF7E5F229",
"zX c #F66EF864F417",
"xX c #F7B4F82AF6F6",
"cX c gray97",
"vX c #FA74FC70F817",
"bX c #F9F9FCFCF4F4",
"nX c #F9F9FCFCF6F6",
"mX c #F8F8F8F8F8F8",
"MX c #FAD1FC47F906",
"NX c #FADDFCD1F8A8",
"BX c #FBFBFDFDF8F8",
"VX c #FEFEFEFEFEFE",
"CX c gray100",
/* pixels */
"CXCXCXCXCXCXCXCXCXCXCXCXCXCXCXCXCXCXCXCXCXCXCXCXCXCXCXCXCXCXCXCX",
"CXCXCXCXCXCXCXCXCXCXCXCXCXCXCXCXCXCXCXCXCXCXCXCXCXCXCXCXCXCXCXCX",
"CXCXCXCXCXCXCXCXCXCXCXCXCXCXCXCXCXCXCXCXCXCXCXCXCXCXCXCXCXCXCXCX",
"CXCXCXCXCXCXCXCXCXCXCXCXCXCXCXCXCXCXCXCXCXCXCXCXCXCXCXCXCXCXCXCX",
"CXCXCXCXCXCXCXCXCXCXCXCXCXw y C.Z.y y CXCXCXCXCXCXCXCXCXCXCXCXCX",
"CXCXCXCXCXCXCXCXCXCXCX1 y R.eXuXiXeX{.U.y CXCXCXCXCXCXCXCXCXCXCX",
"CXCXCXCXCXCXCXCXCX  = y eXeXiXuXiXiXuXeXW.w $ CXCXCXCXCXCXCXCXCX",
"CXCXCXCXCXCXCXCX    = {.<X<X<X<X<X<X<X<X{.y     CXCXCXCXCXCXCXCX",
"CXCXCXCXCXCXCX. . . 1 W.).qXqXqX_.W.W.W.W.C.o X   CXCXCXCXCXCXCX",
"CXCXCXCXCXCXo o o o = c./.qXqX7XN.c.c.c.y w + o X X CXCXCXCXCXCX",
"CXCXCXCXCXCXO + + + + ; G.qXqX2X1 > 1 1 V.K.0 + + O CXCXCXCXCXCX",
"CXCXCXCXCX+ @ # # # # # -XqXqXL.& $ & L.qXqX5X# $ + O CXCXCXCXCX",
"CXCXCXCXCX# % % $ $ % % 2XqXqXz.$ 3 2XqXqXqX:X% $ $ @ CXCXCXCXCX",
"CXCXCXCX# & & & * & & q 9XqX0XB.3 4XqXqXqX*X> & * & $ $ CXCXCXCX",
"CXCXCXCX$ - - - - - - k.qXqX0XF.7XqXqX0XH.: ; = = = = $ CXCXCXCX",
"CXCXCXCX* - ; ; ; ; ; H.qXqXqXqXqXqX7XB.: : : : : : ; & CXCXCXCX",
"CXCXCXCX- > > , > > > *XqXqXqXqXqX:Xl.1 , , 1 , > > > : CXCXCXCX",
"CXCXCXCX; , 4 4 4 6 6 4XqXqXqXqXqX=Xw 1 9 9 6 6 < 6 2 : CXCXCXCX",
"CXCXCXCX: 6 4 9 7 7 t qXqXqX;XqXqXqXK.w 9 e &.0.q.9.%.8 mXCXCXCX",
"CXCXCXCX> 9 r r r r V.qXqX0XN.2XqX0X0Xm.$.d.-.+.X.+.*.s.XXgXCXCX",
"CXCXCXCXCX4 y y j.j./.0XqX2Xy v.5X0X8XT.1.o.U U ' T i.g.<. XmXCX",
"CXCXCXCXCX9 j.x.j.j.-X0XqX2Xx.x.G.0X1X:.| ( ' ' T ;.jX.XY >.wXCX",
"CXCXCXCXCXCXr v.v.b.5X0XqX^.b.b.n.J.#. .' ' ' ' ( OXmXJ ' o.h.NX",
"CXCXCXCXCXCXr c.n.M.3X0XqX^.S.S.Z.A.H ' ' ' ' R 2.hXa.( ' ( y.lX",
"CXCXCXCXCXCXCXt n.D.!.`.`.!.!.!.!.Y.A ' ' ( T ' &XrXO.' ' ' G pX",
"CXCXCXCXCXCXCXCXv.S.~._.[.'.[.[.|.(.S U =.oXp.3.BXa.U ' U E 4.lX",
"CXCXCXCXCXCXCXCXCXn.D._.>X,X,X,X|.}.D s f %XmXyX$XW L P E l 7.mX",
"CXCXCXCXCXCXCXCXCXCXCXQ.Q._.|.,X,X|.P.a x u tXaXu.d l l ! i +XCX",
"CXCXCXCXCXCXCXCXCXCXCXCXCXU.U.E.Q.R.I.e.k b Z u.s v B B h w.xXCX",
"CXCXCXCXCXCXCXCXCXCXCXCXCXCXCXCXCXCXCXdXt.n m M N N j p e.gXCXCX",
"CXCXCXCXCXCXCXCXCXCXCXCXCXCXCXCXCXCXCXCXxX@X8.5.F 5.6.@XxXCXCXCX",
"CXCXCXCXCXCXCXCXCXCXCXCXCXCXCXCXCXCXCXCXCXCXBXlXdXlXmXCXCXCXCXCX"
};
