/* XPM */
static char *xpm__usr_share_pixmaps_amsynth[] = {
/* columns rows colors chars-per-pixel */
"32 31 216 2 ",
"   c #551D79C836C9",
".  c #57DF7DAA38F7",
"X  c #53CD66BD534B",
"o  c #56A367D55770",
"O  c #5399625A59CE",
"+  c #4BC6519F6500",
"@  c #4CC551B4686D",
"#  c #4EF054026B60",
"$  c #517456196DBE",
"%  c #52A257C96D2F",
"&  c #5350581F6D70",
"*  c #53C758C76F75",
"=  c #546B59F16CD6",
"-  c #53F558746E59",
";  c #58965ECF6E89",
":  c #56545AF37176",
">  c #5AB55F6C72BB",
",  c #59B85E367414",
"<  c #5E5966D66B11",
"1  c #5D7A62A9738E",
"2  c #5D4161AA76EE",
"3  c #5F5E638877A8",
"4  c #5EF9639278DE",
"5  c #67AC78A969F2",
"6  c #620F66577B09",
"7  c #65DD6A867E8B",
"8  c #68BF6C1F7ED4",
"9  c #5F799E921890",
"0  c #5F179B4D1F10",
"q  c #5DEEA69D0A63",
"w  c #5F7CAAAB08F6",
"e  c #5B96B79B00B6",
"r  c #6007AB350B7D",
"t  c #6363B7B70404",
"y  c #6375BA7A0196",
"u  c #6565BFBF0000",
"i  c #6868BBBB0707",
"p  c #6262B1B10909",
"a  c #6363B1B10F0F",
"s  c #6565B4B40D0D",
"d  c #6868BCBC0808",
"f  c #6868BCBC0909",
"g  c #6868BDBD0B0B",
"h  c #6A84BE8A0AAB",
"j  c #6868BBBB0E0E",
"k  c #6868BABA0F0F",
"l  c #6404ACBA147E",
"z  c #6565B2B21111",
"x  c #6565B5B51010",
"c  c #6767B7B71515",
"v  c #699CBCA310C7",
"b  c #6969BCBC1212",
"n  c #6A6AB9B91717",
"m  c #6CA2BDA814C3",
"M  c #584F8A8226C1",
"N  c #573F82602D63",
"B  c #5A588CCA2800",
"V  c #5D3895822137",
"C  c #5BCD90D92512",
"Z  c #59FA851A2FE7",
"A  c #600890AC2F76",
"S  c #6016935D2E03",
"D  c #65839DEA2882",
"F  c #625F949E328C",
"G  c #6A7BA87D21D1",
"H  c #6FF2AB992C6A",
"J  c #6A6AC6C60000",
"K  c #6D6DC4C40303",
"L  c #6B6BC1C10707",
"P  c #6C6CC1C10606",
"I  c #6F6FC7C70606",
"U  c #6F6FC7C70707",
"Y  c #6B6BC8C80000",
"T  c #6D6DC8C80000",
"R  c #6F6FC9C90202",
"E  c #6FE5C9E502EA",
"W  c #6B6BC3C30909",
"Q  c #6E6EC2C20B0B",
"!  c #6E6EC6C60808",
"~  c #6969C0C00F0F",
"^  c #7070C9C90404",
"/  c #7061CA900439",
"(  c #7164CA840752",
")  c #726DCA710786",
"_  c #7272CBCB0707",
"`  c #726FCAB9081B",
"'  c #7272CBCB0808",
"]  c #7373CBCB0808",
"[  c #7272CBCB0909",
"{  c #736BCBAE0922",
"}  c #7373CACA0B0B",
"|  c #7575CBCB0B0B",
" . c #7575CBCB0E0E",
".. c #7676CBCB0F0F",
"X. c #7575CCCC0C0C",
"o. c #7575CCCC0D0D",
"O. c #7777CCCC1111",
"+. c #7C7CCECE1818",
"@. c #68148DB04E88",
"#. c #72D298A24FBB",
"$. c #684D820756B7",
"%. c #70378A275D18",
"&. c #779EA93D42C7",
"*. c #716287606314",
"=. c #738589796576",
"-. c #7927933662A1",
";. c #76028AED7AA0",
":. c #8383CFCF2525",
">. c #8383CFCF2929",
",. c #8787D0D02C2C",
"<. c #8872D2752E8A",
"1. c #8392C9FC304A",
"2. c #85F9C97B32CA",
"3. c #8787C8C83F3F",
"4. c #8B8BD0D03535",
"5. c #8C8CD0D03636",
"6. c #8D8DD4D43737",
"7. c #8F8FD3D33E3E",
"8. c #859FA5C864AD",
"9. c #8CC5B02B6437",
"0. c #9A9BBA197656",
"q. c #8A8ACBCB4141",
"w. c #92F4D6F340F6",
"e. c #9797D6D64B4B",
"r. c #9A9AD9D94F4F",
"t. c #9947CEE8580B",
"y. c #9A9AD7D75151",
"u. c #99DCD15154FC",
"i. c #9E9EDBDB5555",
"p. c #667E6BDC8234",
"a. c #69746DAC819C",
"s. c #6A366E4A80FA",
"d. c #67CD6E8E891B",
"f. c #6DA771DC8527",
"g. c #6DC873B68C44",
"h. c #7139774785B2",
"j. c #70B374928728",
"k. c #7252767E89D5",
"l. c #760C79FD8C3E",
"z. c #799B7CE78EAB",
"x. c #6DCD757F91A9",
"c. c #755C7B7395B8",
"v. c #79C67E2E93FF",
"b. c #7AD0807D8BD7",
"n. c #7EDF82BB93DC",
"m. c #7D9F83449D81",
"M. c #7DF784BAA270",
"N. c #846392608296",
"B. c #8284864E9719",
"V. c #865B89A39A70",
"C. c #8A5E8D3E9D6B",
"Z. c #8E4B90A49FE1",
"A. c #8F1F91D89FF7",
"S. c #86F58BE7A2F5",
"D. c #894B8E4FA56D",
"F. c #89E78FBDABDC",
"G. c #8D9591BAA487",
"H. c #8B6191D7AE1D",
"J. c #932995F6A47B",
"K. c #9623993DA719",
"L. c #9C2E9EEEAC3C",
"P. c #8BDC92F4B242",
"I. c #916797B5B360",
"U. c #95249AD7B4AE",
"Y. c #95BA9B73B55D",
"T. c #949D9BB7BC3F",
"R. c #9D2BA05DADD7",
"E. c #9DD1A44BBC13",
"W. c #A023A249AFF8",
"Q. c #A3F0A692B2E8",
"!. c #A79FAC3CB097",
"~. c #A8ADAB36B708",
"^. c #AC4FAEADBA12",
"/. c #B2DAB4E5BF92",
"(. c #B774CFDA981A",
"). c #BFE5E6E590E9",
"_. c #C1C1E7E79494",
"`. c #C4C4E8E89797",
"'. c #CACAE9E9A7A7",
"]. c #CECEEAEAADAD",
"[. c #D0D0EDEDADAD",
"{. c #97399F08C192",
"}. c #B7F7B9FDC387",
"|. c #BA0CBC19C6B6",
" X c #BF51C195C79B",
".X c #C406CA2AC0A2",
"XX c #C310C4BFCCCD",
"oX c #C834CA09D1A2",
"OX c #CBACCD30D46C",
"+X c #CF0AD068D751",
"@X c #D074D18BD842",
"#X c #D36AD4AFDAD2",
"$X c #D862D993DEDF",
"%X c #DCDCF1F1C3C3",
"&X c #E5E5F3F3D5D5",
"*X c #EBEBF7F7DEDE",
"=X c #DC36DD4BE24F",
"-X c #DFEAE0DEE53B",
";X c #E1ADE277E667",
":X c #EAA9EE18E6BB",
">X c #E523E5E4E986",
",X c #EC6DECF8EF6F",
"<X c #EF7CF882E59C",
"1X c #F3F3FAFAEBEB",
"2X c #F5F5FAFAEDED",
"3X c #EEA4EF32F1E7",
"4X c #F38CF61DF097",
"5X c #F3B3F409F595",
"6X c #F900FAFCF6FA",
"7X c #F9F9FCFCF4F4",
"8X c #F9F9FCFCF6F6",
"9X c #F85FF89BF99C",
"0X c #FA86FB3FF9EA",
"qX c #FBFBFDFDF8F8",
"wX c #FE23FE2CFE64",
"eX c None",
/* pixels */
", 6 7 7 7 7 7 a.7 6 , $ $ $ $ $ $ # $ # $ # $ * 2 7 7 7 7 7 7 eX",
": 2 6 7 7 a.7 7 7 7 6 * $ * $ $ $ # # # # # # $ , 6 7 7 7 8 8 eX",
"$ , 4 7 7 a.7 a.7 7 6 , * $ $ $ # # # $ # # # # * 2 7 7 7 7 7 eX",
"$ * 2 6 7 7 7 7 7 8 6 6 : $ $ * $ # # # # $ # # $ , 6 7 7 7 a.eX",
"# $ : 2 7 7 7 7 7 7 7 6 2 z./.Q.W.|.B.* # $ # # # 6 }.^.a.6 7 eX",
"# $ * 2 6 7 7 8 7 7 7 f.Q.,XwX=X+XwX5X^., # $ # # a.3X;Xf., 2 7 ",
"# # $ : 4 7 7 8 7 7 j.XX9XwXwX$XOXwX9XwXoXa.# $ # p.,X;Xa.: 2 a.",
"# # $ $ 2 4 7 7 7 l.OXwX>X^.5X-XOXwX^.#XwX$Xa.# # 7 ,X;Xf., 4 8 ",
"# # $ $ * 2 4 7 j.oXwX-XB.n.5X$XOXwXV.6 oXwX#Xp.# 7 ,X;X8 7 a.a.",
"# # # # $ 2 4 a.}.wX>XB.6 n.5X=X+XwXV.# 7 OXwXXX, 7 ,X;X6 2 a.f.",
"# $ # # $ * 2 K.9X3XZ.6 7 n.5X-X+XwXV.$ # a.=XwXQ.8 ,X;X6 : 6 6 ",
"# # # # # $ a.-XwXQ.6 a.7 n.5X-X+XwXV.# $ # n.3X,XG.,X-X2 * 2 eX",
"# # # # # $ ~.wX+Xf.7 7 7 n.5X-X@XwXV.# $ $ $ ^.wX=X5X;X2 $ : eX",
"# # # $ # 7 >X5XB.4 7 a.7 n.5X-X@XwXV.# $ $ # p.;XwXwX;X2 # * eX",
"$ # # # # R.wXXX2 4 7 7 7 n.5X-X@XwXC.# # $ $ # Q.wXwX;X2 # $ eX",
"# # # # 2 +X9XV.* 2 6 7 7 n.5X-X#XwXD.$ $ $ $ # f.3XwX-X2 # # eX",
"# # # # k.5X-X2 $ : 6 7 7 n.5X-X#XwXJ.* $ $ * % =  X6X-X2 # # eX",
"# # # # K.wX/.# $ $ 2 6 6 B.5X-X#XwXJ., - < -.8.9.0.(..X3 # $ eX",
"# # # # /.wXG.# # $ : 6 6 n.5X-X@XwXJ.1 *.t.,.+.| +.:.u.=.+ # eX",
"# # # * OXwXn.# # $ * , 6 n.5X-X#XwXZ.%.4. .( ` _ R w.i.4.$.@ eX",
"$ # # : $X5Xk.# # $ $ * 2 n.5X-X#XwXN.1.| ( ] ` R ,.2X_.Y 2.O eX",
"* $ # : $X3Xf.# # # $ * , z.5X-X#X6X&. .` ] ] ` ( `.7XJ ` ..F eX",
": * $ : -X3X8 # $ * $ $ * l.5X-X#X4XH ] ` ` ( E 6.1Xr.E ] _ 0 eX",
": * * 2 $X3Xf.2 * 2 # $ * j.5X-X#X:XG ] ] ( R ` [.%XO.` ` ` 9 eX",
"6 : 2 2 G.J.4 6 , 4 * : , d.Q.L.L.!.D U >._.e.7.7Xy.( U U W V eX",
"a.4 6 4 , 4 d.6 , 4 : : 4 4 f.v.f.j.S f u ].7X*X'.Q P W W d B eX",
"7 6 7 6 p.I.T.a.c.M.M.g.x.P.F.Y.F.U.;.w d e &X<Xq.y d d ~ w X eX",
"6 7 7 6 M.{.{.H.P.p.D.H.P.I.{.T.Q.G.E.#.s v m 3.t v v v p . 1 eX",
"6 7 p.6 x.f.6 g.x.2 g.d.x.x.d.k.m.H.S.b.@.l z x n c a q   ; : eX",
"6 p., : : 4 2 # : : 2 * : : $ , 6 a.a.k.a.5 Z A C M N o * : 2 eX",
"eXeXeXeXeXeXeXeXeXeXeXeXeXeXeXeXeXeXeXeXeXeXeXeXeXeXeXeXeXeXeXeX"
};
