/* XPM */
static char *xpm__usr_share_pixmaps_apvlv_apvlv[] = {
/* columns rows colors chars-per-pixel */
"32 32 229 2 ",
"   c #68684A4A1D1D",
".  c #787853531D1D",
"X  c #595947472929",
"o  c #595949492F2F",
"O  c #54544D4D3C3C",
"+  c #6B6B4E4E2424",
"@  c #717158582F2F",
"#  c #6F6F58583333",
"$  c #6B6B58583939",
"%  c #727258583030",
"&  c #74745F5F3D3D",
"*  c #7D7D63B93939",
"=  c #59595B5B5757",
"-  c #5CB25E085AB0",
";  c #68685F5F4A4A",
":  c #5E5E60605C5C",
">  c #6E8E64A44EAE",
",  c #616164646060",
"<  c #8B8B6B6B3A3A",
"1  c #949471713B3B",
"2  c #A1A172722C2C",
"3  c #A6A67A7A3838",
"4  c #87876F6F4848",
"5  c #898973734444",
"6  c #8CE273C94AF5",
"7  c #A2A27D7D4444",
"8  c #4B4B88880303",
"9  c #4D4D8A8A0404",
"0  c #4E4E8C8C0404",
"q  c #50508E8E0606",
"w  c #525294940707",
"e  c #58589E9E0505",
"r  c #575798980D0D",
"t  c #585898980F0F",
"y  c #5E5EA7A70606",
"u  c #5F5FABAB0707",
"i  c #5D59A5EC08FF",
"p  c #5BF4B7F400F3",
"a  c #6161ACAC0606",
"s  c #61B2ACCE0CB2",
"d  c #6464B2B20606",
"f  c #6363B7B70404",
"g  c #63F1BAF101F1",
"h  c #6565BFBF0000",
"j  c #6868BBBB0707",
"k  c #6262B1B10909",
"l  c #6363B1B10F0F",
"z  c #6565B4B40D0D",
"x  c #6868BCBC0808",
"c  c #6868BCBC0909",
"v  c #6868BDBD0B0B",
"b  c #6A89BE8A0A87",
"n  c #6868BBBB0E0E",
"m  c #6868BABA0F0F",
"M  c #634DABE312D8",
"N  c #6565B2B21111",
"B  c #6565B5B51010",
"V  c #6767B7B71515",
"C  c #6A00BCFF1100",
"Z  c #6969BCBC1212",
"A  c #6A6AB9B91717",
"S  c #6D00BDFF1500",
"D  c #6B6BB2B21818",
"F  c #67358AE53D61",
"G  c #7AF6B62B3312",
"H  c #7CA4BA1F310D",
"J  c #6A6AC6C60000",
"K  c #6D6DC4C40303",
"L  c #6B6BC1C10707",
"P  c #6C6CC1C10606",
"I  c #6F6FC7C70606",
"U  c #6F6FC7C70707",
"Y  c #6B6BC8C80000",
"T  c #6D6DC8C80000",
"R  c #6F6FC9C90202",
"E  c #6F8DC98D028C",
"W  c #6B6BC3C30909",
"Q  c #6E6EC2C20B0B",
"!  c #6E6EC6C60808",
"~  c #6969C0C00F0F",
"^  c #7070C9C90404",
"/  c #7070CACA0404",
"(  c #70F1CAF104F1",
")  c #7171CACA0707",
"_  c #7272CBCB0707",
"`  c #71BECABE07BE",
"'  c #7287CAD10804",
"]  c #7272CBCB0808",
"[  c #7373CBCB0808",
"{  c #72C0CAC008C0",
"}  c #7272CBCB0909",
"|  c #7373CBCB0909",
" . c #73C4CBC409C4",
".. c #7373CACA0B0B",
"X. c #7575CBCB0B0B",
"o. c #7575CBCB0E0E",
"O. c #7676CBCB0F0F",
"+. c #7575CCCC0C0C",
"@. c #7575CCCC0D0D",
"#. c #7777CCCC1111",
"$. c #7C7CCECE1818",
"%. c #7C7CA6A64646",
"&. c #B5B584843D3D",
"*. c #B9B988883E3E",
"=. c #81E1B9783F7E",
"-. c #DADA98983636",
";. c #E4E4A6A63F3F",
":. c #FCFCAFAF3E3E",
">. c #FCFCB4B43F3F",
",. c #8383CFCF2525",
"<. c #8383CFCF2929",
"1. c #8787D0D02C2C",
"2. c #88F0D2F02EEF",
"3. c #8787CCCC3131",
"4. c #8618CC67321A",
"5. c #8787C8C83F3F",
"6. c #8B8BD0D03535",
"7. c #8C8CD0D03636",
"8. c #8D8DD4D43737",
"9. c #8F8FD3D33E3E",
"0. c #9A9A86865454",
"q. c #AC8785604848",
"w. c #A2A291915D5D",
"e. c #869AB8C94D2D",
"r. c #8585A9A95757",
"t. c #8125852C7C56",
"y. c #9931BDEA6FD2",
"u. c #CB31952E4477",
"i. c #CFCF9E9E4444",
"p. c #D0D09D9D4545",
"a. c #E9E9A5A54040",
"s. c #EDEDB5B54545",
"d. c #FCFCBCBC4242",
"f. c #8A8ACBCB4141",
"g. c #92FFD6FF4100",
"h. c #9797D6D64B4B",
"j. c #9A9AD9D94F4F",
"k. c #9742CEB7522C",
"l. c #954AC6165AB2",
"z. c #9A9AD7D75151",
"x. c #9E9EDBDB5555",
"c. c #9CAFD22E5A88",
"v. c #AD14CFA57E5A",
"b. c #F1F1C2C25151",
"n. c #FDFDD6D66464",
"m. c #F8F8DBDB7575",
"M. c #895C8B5E8659",
"N. c #8CF38DF48B9C",
"B. c #8C01934E8291",
"V. c #8E8E90D08B8B",
"C. c #916C94018E45",
"Z. c #9414964091E7",
"A. c #969699199313",
"S. c #996E9C1C9616",
"D. c #9C9C9F1F9919",
"F. c #9F1FA1A19B5B",
"G. c #A109B54E8660",
"H. c #A16FADF5938E",
"J. c #A24CA4799E73",
"K. c #A50BA727A13A",
"L. c #A649A934A2E8",
"P. c #A9E9AC2CA666",
"I. c #ACACADADA8A8",
"U. c #B2B2B4B4AEAE",
"Y. c #B4B4B737B232",
"T. c #B711B8ADB4BC",
"R. c #B7B7B8B8B6B6",
"E. c #B895BC11B511",
"W. c #B8B8B9B9B750",
"Q. c #BDFABE75BD18",
"!. c #AF33CE628639",
"~. c #B167CA259004",
"^. c #AFB0C7F390CD",
"/. c #B7E7D04D9876",
"(. c #BF8EE690908B",
"). c #B836C937A521",
"_. c #BFBFC0C0BF69",
"`. c #C1C1E7E79494",
"'. c #C4C4E8E89797",
"]. c #FAFAE3E38888",
"[. c #FDFDEEEE9797",
"{. c #C0B1C199BEF7",
"}. c #CACAE9E9A7A7",
"|. c #CECEEAEAADAD",
" X c #D0D0EDEDADAD",
".X c #FEFEF7F7BABA",
"XX c #FFFFF8F8BEBE",
"oX c #C44FC4F3C308",
"OX c #C747C9C9C545",
"+X c #CACACDCDC7C7",
"@X c #CDA0D381C4D9",
"#X c #CECED1D1CBCB",
"$X c #D3D3D5D5D0D0",
"%X c #D73DD9A6D406",
"&X c #DCDCDF5FD9D9",
"*X c #DCDCF1F1C3C3",
"=X c #DEF3E112DC1E",
"-X c #DF2AE22DDC54",
";X c #E112E4EDDBDC",
":X c #E1D9E450DF43",
">X c #E290E45FDFAD",
",X c #E4E0E61FDFE5",
"<X c #EA53E66BDD4E",
"1X c #EE6EEA6ADF5F",
"2X c #E5E5F3F3D5D5",
"3X c #EBEBF7F7DEDE",
"4X c #E4ABE6D5E222",
"5X c #E6DAE7CFE513",
"6X c #E73CE962E52D",
"7X c #E879EB9BE45E",
"8X c #EA7AEB17E64A",
"9X c #EC90EF00E8C4",
"0X c #ED5EEE5AEB8A",
"qX c #F0F0ECECE38D",
"wX c #EFECF8EDE5EB",
"eX c #EE66F0E7EAFA",
"rX c #EFEFF0F0EEA1",
"tX c #F14CF1CCEFB8",
"yX c #F3F3FAFAEBEB",
"uX c #F5F5FAFAEDED",
"iX c #F298F319F178",
"pX c #F38DF40EF264",
"aX c #F738F7EEF69E",
"sX c #F9F9FCFCF4F4",
"dX c #F9F9FCFCF6F6",
"fX c #FBBCFC76FAE1",
"gX c #FBFBFDFDF8F8",
"hX c #FF62FF6CFF62",
"jX c None",
/* pixels */
"jXjXjXjXjXjXjXjXjXjXjXjXjXjXjXjXjXjXjXjXjXjXjXjXjXjXjXjXjXjXjXjX",
"jXjXjXjXjXjXjXjXjXjXjXjXjXjXjXjXjXjXjXjXjXjXjXjXjXjXjXjXjXjXjXjX",
"jXjXjXjXjXL.L.L.L.L.K.K.L.L.L.L.L.L.L.L.L.jXjXjXjXjXjXjXjXjXjXjX",
"jXjXjXjXL.hXhXhXhXhXhXhXhXhXhXhXhXhXpX8XoXL.jXjXjXjXjXjXjXjXjXjX",
"jXjXjXjXL.hX8X8X0X6X6X4X4X:X:X:X-X-X-X-XpX-XP.L.jXjXjXjXjXjXjXjX",
"jXjXjXjXL.hX8X6X6X6X6X4X4X4X:X4X-X-X-X&X%XhX-XI.J.jXjXjXjXjXjXjX",
"jXjXjXjXK.hX6X6XZ.N.N.N.N.N.N.N.N.Z.&X&X#XhXpX%XI.J.jXjXjXjXjXjX",
"jXjXjXjXJ.hX6X6X6X6X6X4X4X4X:X:X:X-X-X-X#XpXhX6X%XK.jXjXjXjXjXjX",
"jXjXjXjXJ.hX6X6X4X6X4X4X:X:X:X:X:X-X-X-X$XOXQ.Y.OX#XF.jXjXjXjXjX",
"jXjXjXjXJ.hX4X4XQ.W.W.W.R.Q.4X:X:X:X-X-X%X+X{.Y.P.+XU.jXjXjXjXjX",
"jXjXjXjXF.hX4X4X4X4X4X4X4X:X4X:X:X:X-X:X-X-X&X%X+XoX%XF.jXjXjXjX",
"jXjXjXjXF.hX4X4X4X4X4X4X4X4X:X4X:X:X:X4X:X:X:X:X4X4XpXD.jXjXjXjX",
"jXjXjXjXD.hX4X4X, : : = : : - - : : : 4X4X4X4X:X4X4XhXS.jXjXjXjX",
"jXjXjXjXD.hX4X4X> > > ; O > ; > > > > 4XQ.W.W.Q.4X4XhXA.jXjXjXjX",
"jXjXjXjXD.hX4X4X6 6 6 6 6 o * 6 $ * 4 6X6X6X6X6X4X6XhXA.jXjXjXjX",
"jXjXjXjXS.hX4X4Xq.q.q.q.< @ q.q.# 7 q.8X{.W.W.{.6X6XhXZ.jXjXjXjX",
"jXjXjXjXD.hX6X6Xu.u.p.i.u.+ *.&.3 u.u.6X8X8X8X8X8X8XhXZ.jXjXjXjX",
"jXjXjXjXA.hX6X6X;.s.m.].b.;.  2 a.a.a.6XoXW.R._.:X,XfXZ.jXjXjXjX",
"jXjXjXjXA.hX6X6X>.n..XXX[.d.. -.:.:.d.0X6X@X~.!.v.!./.B.jXjXjXjX",
"jXjXjXjXA.hX8X8X1 5 w.w.0.* X @ < & 1 -XG.c.1.$. .$.,.k.r.jXjXjX",
"jXjXjXjXA.hX8X8X8X1X1X1X1X8X1XqX6X1X<X^.7.@.) ) ) R g.x.7.%.jXjX",
"jXjXjXjXZ.hX0X0X{.Q.Q.Q.Q.Q.Q.Q.Q.Q.H.4.X.' [ [ R 2.uX(.Y 4.jXjX",
"jXjXjXjXC.hX8X0X0X0X0XtXtXtXtXpXtX9Xl.@.'  .[ ' R '.dXJ ' @.D jX",
"jXjXjXjXC.hX0X0XoXQ.Q.Q.Q.Q.Q._.Q.W.G _ ' ' ' R 8.yXj.R X._ d jX",
"jXjXjXjXC.hX0X0X0XrX0XtXtXtXpXpXpX-XH ) ' ) E '  X*X#.' ' [ a jX",
"jXjXjXjXV.hX0X0XoXQ.Q.Q.Q.Q.Q.Q.OX7X=.P <.`.h.9.gXz.I I I ! y jX",
"jXjXjXjXV.hX0X0X0X0XrXtXtXpXtXtXpXeXe.c J |.dX3X}.Q L Q W x e jX",
"jXjXjXjXN.hX0X0X0XrX0XtXtXtXtXpXpXtX).s c p 2XwXf.g x x ~ u jXjX",
"jXjXjXjXV.pXhXhXhXhXhXhXhXhXhXhXhXhXaXy.z m S 5.f n Z Z k 9 jXjX",
"jXjXjXjX- M.M.N.M.M.M.M.M.M.M.M.M.M.M.t.F M N B A V l i 8 jXjXjX",
"jXjXjXjXjXjXjXjXjXjXjXjXjXjXjXjXjXjXjXjXjXjXq t r w 0 jXjXjXjXjX",
"jXjXjXjXjXjXjXjXjXjXjXjXjXjXjXjXjXjXjXjXjXjXjXjXjXjXjXjXjXjXjXjX"
};
