/* XPM */
static char *xpm__usr_share_pixmaps_subcommander[] = {
/* columns rows colors chars-per-pixel */
"32 32 138 2 ",
"   c #1A2E25EA1DE6",
".  c #080803032222",
"X  c #0D0D05053535",
"o  c #44F171732308",
"O  c #0F0F06064040",
"+  c #121207074B4B",
"@  c #131307074E4E",
"#  c #141408085555",
"$  c #151508085A5A",
"%  c #161608085C5C",
"&  c #181809096363",
"*  c #18BB0BF1623E",
"=  c #181809096666",
"-  c #181809096868",
";  c #1A1A0A0A6E6E",
":  c #1A5D09C36F4E",
">  c #1B1B0A0A7272",
",  c #36D7308D6B8E",
"<  c #556461BF6259",
"1  c #4B4B88880303",
"2  c #4D4D8A8A0404",
"3  c #4D4D8A8A0606",
"4  c #4E4E8C8C0404",
"5  c #4F4F8E8E0808",
"6  c #50508E8E0606",
"7  c #525294940707",
"8  c #58589F9F0707",
"9  c #575798980D0D",
"0  c #585898980F0F",
"q  c #5D5DA6A60606",
"w  c #5D5DA7A70707",
"e  c #5F5FABAB0707",
"r  c #5F5FABAB0909",
"t  c #5B5BB7B70000",
"y  c #6161ABAB0606",
"u  c #6161ACAC0606",
"i  c #6464B2B20505",
"p  c #6464B2B20606",
"a  c #6363B7B70404",
"s  c #6363BABA0101",
"d  c #6565BFBF0000",
"f  c #6868BBBB0707",
"g  c #6262B1B10909",
"h  c #6363B1B10F0F",
"j  c #6565B4B40D0D",
"k  c #6868BCBC0808",
"l  c #6868BCBC0909",
"z  c #6868BDBD0B0B",
"x  c #6A6ABEBE0A0A",
"c  c #6868BBBB0E0E",
"v  c #6868BABA0F0F",
"b  c #6262ACAC1010",
"n  c #6565B2B21111",
"m  c #6565B5B51010",
"M  c #6767B7B71515",
"N  c #6969B0B01414",
"B  c #6969BCBC1010",
"V  c #6969BCBC1212",
"C  c #6A6AB9B91717",
"Z  c #6C6CBDBD1414",
"A  c #6B6BB2B21818",
"S  c #4DC080B620CF",
"D  c #6A6AC6C60000",
"F  c #6D6DC4C40303",
"G  c #6B6BC1C10707",
"H  c #6C6CC1C10606",
"J  c #6F6FC7C70606",
"K  c #6F6FC7C70707",
"L  c #6B6BC8C80000",
"P  c #6D6DC8C80000",
"I  c #6F1AC9090273",
"U  c #6F6FC9C90202",
"Y  c #6B6BC3C30909",
"T  c #6E6EC2C20B0B",
"R  c #6E6EC6C60808",
"E  c #6969C0C00F0F",
"W  c #7045C9E9043C",
"Q  c #7070CACA0404",
"!  c #7113CA060756",
"~  c #7171CACA0707",
"^  c #7272CACA0707",
"/  c #7272CBCB0707",
"(  c #7272CACA0808",
")  c #7272CBCB0808",
"_  c #7373CBCB0808",
"`  c #731ACB080973",
"'  c #7272CBCB0909",
"]  c #7373CBCB0909",
"[  c #7373CACA0B0B",
"{  c #7575CBCB0B0B",
"}  c #7575CBCB0E0E",
"|  c #7676CBCB0F0F",
" . c #7575CCCC0C0C",
".. c #7575CCCC0D0D",
"X. c #7777CCCC1111",
"o. c #7C7CCECE1818",
"O. c #7B7BA6A64545",
"+. c #7C7CA6A64646",
"@. c #8383CFCF2525",
"#. c #8383CFCF2929",
"$. c #8484CCCC2E2E",
"%. c #8787D0D02C2C",
"&. c #881AD2082E73",
"*. c #8787CCCC3131",
"=. c #8787C8C83F3F",
"-. c #8B8BD0D03535",
";. c #8C8CD0D03636",
":. c #8D8DD4D43737",
">. c #8F8FD3D33E3E",
",. c #8585A9A95757",
"<. c #8F8FB5B55C5C",
"1. c #8F8FB5B55E5E",
"2. c #8A8ACBCB4141",
"3. c #9292D6D64040",
"4. c #9797D6D64B4B",
"5. c #9A9AD9D94F4F",
"6. c #9793CC855831",
"7. c #9797D0D05050",
"8. c #9A9AD7D75151",
"9. c #9E9EDBDB5555",
"0. c #9898C2C26161",
"q. c #9C9CC7C76262",
"w. c #BFBFE6E69090",
"e. c #C1C1E7E79494",
"r. c #C4C4E8E89797",
"t. c #CACAE9E9A7A7",
"y. c #CECEEAEAADAD",
"u. c #D0D0EDEDADAD",
"i. c #DCDCF1F1C3C3",
"p. c #E5E5F3F3D5D5",
"a. c #EBEBF7F7DEDE",
"s. c #EFEFF8F8E5E5",
"d. c #F3F3FAFAEBEB",
"f. c #F5F5FAFAEDED",
"g. c #F9F9FCFCF4F4",
"h. c #F9F9FCFCF6F6",
"j. c #FBFBFDFDF8F8",
"k. c None",
/* pixels */
"k.k.k.k.k.k.k.k.k.k.k.k.k.k.k.k.k.k.k.k.k.k.k.k.k.k.k.k.k.k.k.k.",
"k.k.k.k.k.k.k.k.k.k.k.k.k.k.k.k.k.k.k.k.k.k.k.k.k.k.k.k.k.k.k.k.",
"k.k.k.k.k.k.k.k.k.k.k.k.k.k.k.k.k.k.k.k.k.k.k.k.k.k.k.k.k.k.k.k.",
"k.k.k.k.k.k.k.k.k.k.k.k.k.k.k.k.k.k.k.k.k.k.k.k.k.k.k.k.k.k.k.k.",
"k.k.k.k.k.k.k.k.k.> > > > k.k.k.k.k.k.k.k.k.> > > > > k.k.k.k.k.",
"k.k.k.k.k.> > > > > > > > k.k.k.k.k.k.> > > > > > > > k.k.k.k.k.",
"k.k.k.k.> > > > > > ; - & k.k.k.k.> > > > > > ; - - = k.k.k.k.k.",
"k.k.k.k.> > > k.k.k.k.k.k.k.k.k.> > > > ; k.k.k.k.k.k.k.k.k.k.k.",
"k.k.k.k.> > k.k.k.k.k.k.k.k.k.$ > > > k.k.k.k.k.k.k.k.k.k.k.k.k.",
"k.k.k.k.> > > X k.k.k.k.k.k.k.> > > k.k.k.k.k.k.k.k.k.k.k.k.k.k.",
"k.k.k.k.k.> > > + k.k.k.k.k.k.> > k.k.k.k.k.k.k.k.k.k.k.k.k.k.k.",
"k.k.k.k.k.k.> > > ; k.k.k.k.k.> > k.k.k.k.k.k.k.k.k.k.k.k.k.k.k.",
"k.k.k.k.k.k.k.; > > ; k.k.k.k.> > + k.k.k.k.k.k.k.k.k.k.k.k.k.k.",
"k.k.k.k.k.k.k.k.- > > > k.k.k.> > - k.k.k.k.k.k.k.k.k.k.k.k.k.k.",
"k.k.k.k.k.k.k.k.k.% > > > k.k.k.> > O k.k.k.k.k.k.k.k.k.k.k.k.k.",
"k.k.k.k.k.k.k.k.k.k.@ > > > k.k.> > ; . k.k.k.k.k.k.k.k.k.k.k.k.",
"k.k.k.k.k.k.k.k.k.k.k.k.> > > k.k.> > - k.k.k.k.k.k.k.k.k.k.k.k.",
"k.k.k.k.k.k.k.k.k.k.k.k.k.> > > k.k.> > - k.k.k.k.k.k.k.k.k.k.k.",
"k.k.k.k.k.k.k.k.k.k.k.k.k.k.> > $ k.; > ; , <.0.q.0.<.k.k.k.k.k.",
"k.k.k.k.k.k.k.k.k.k.k.k.k.k.; > - k.k.* < 6.$.o...o.@.7.,.k.k.k.",
"k.k.k.k.k.k.k.k.k.k.k.k.k.k.> > > k.k.O.;...W _ ! U 3.9.-.+.k.k.",
"k.k.k.k.k.k.k.k.k.k.k.k.k.> > > & k.k.$.{ ! _ _ U &.f.w.L *.k.k.",
"k.k.k.k.k.k.k.k.k.k.k.> > > > > k.k.N } ! _ / _ U r.h.D ! X.A k.",
"k.k.k.k.k.k.k.k.> > > > > > > k.k.k.i _ { ! _ U :.d.5.U _ _ i k.",
"k.k.> > > > > > > > > > > k.k.k.k.k.y _ _ W K _ u.i.X._ _ _ y k.",
"> > > > > > > > > ; = k.k.k.k.k.k.k.q F #.w.4.>.j.8.K W R R S k.",
"k.> > > ; = # k.k.k.k.k.k.k.k.k.k.k.8 f d y.g.a.t.T G G Y x o k.",
"k.k.k.k.k.k.k.k.k.k.k.k.k.k.k.k.k.k.k.r c t p.s.2.s k x B e   k.",
"k.k.k.k.k.k.k.k.k.k.k.k.k.k.k.k.k.k.k.5 j V Z 2.a c V V g 2 k.k.",
"k.k.k.k.k.k.k.k.k.k.k.k.k.k.k.k.k.k.k.k.2 b n j C M h e 1 k.k.k.",
"k.k.k.k.k.k.k.k.k.k.k.k.k.k.k.k.k.k.k.k.k.k.6 0 9 7 4 k.k.k.k.k.",
"k.k.k.k.k.k.k.k.k.k.k.k.k.k.k.k.k.k.k.k.k.k.k.k.k.k.k.k.k.k.k.k."
};
