/* XPM */
static char *xpm__usr_share_pixmaps_freedroidrpg[] = {
/* columns rows colors chars-per-pixel */
"32 32 171 2 ",
"   c black",
".  c #02D604CA0091",
"X  c #035D05E6002A",
"o  c #047107D80049",
"O  c #1B9627690DF2",
"+  c #29FC222C0EA5",
"@  c #2B2B23230F0F",
"#  c #2A7624330F33",
"$  c #3B3B2F2F1717",
"%  c #232323232323",
"&  c #2F2F2F2F2F2F",
"*  c gray23",
"=  c #3F3C3F3C3F3D",
"-  c #434333331B1B",
";  c #4B4B3B3B1B1B",
":  c #57573F3F1F1F",
">  c #3E984F422C4B",
",  c #3EC6416E3BC3",
"<  c #47ED78900DB3",
"1  c #5F5F43432323",
"2  c #5F2646082634",
"3  c #44C35CCD2693",
"4  c #49465D422F2F",
"5  c #3FC041C43D73",
"6  c #52AE7763294F",
"7  c #4B4B4B4B4B4B",
"8  c gray34",
"9  c #649A65476400",
"0  c #676767676767",
"q  c #939343430F0F",
"w  c #ABAB6B6B1717",
"e  c #AA5F6C8518E9",
"r  c #A8FA6C751A66",
"t  c #9EBC760D2D38",
"y  c #CBCB7F7F4F4F",
"u  c #4B97868C03C8",
"i  c #4B4B88880303",
"p  c #4D4D8A8A0404",
"a  c #4D4D8A8A0606",
"s  c #4E4E8C8C0404",
"d  c #50948E0C04FC",
"f  c #50508E8E0606",
"g  c #525294940707",
"h  c #58589E9E0505",
"j  c #575798980D0D",
"k  c #585898980F0F",
"l  c #560A8D8213F0",
"z  c #50DD82E617C8",
"x  c #5D5DA7A70707",
"c  c #5E5EA7A70606",
"v  c #5F5FABAB0707",
"b  c #5EDEA9F809E3",
"n  c #5B5BB7B70000",
"m  c #6161ACAC0606",
"M  c #6464B2B20606",
"N  c #6363B7B70404",
"B  c #6363BABA0101",
"V  c #6565BFBF0000",
"C  c #6868BBBB0707",
"Z  c #6262B1B10909",
"A  c #6363B1B10F0F",
"S  c #6565B4B40D0D",
"D  c #6868BCBC0808",
"F  c #6868BCBC0909",
"G  c #6868BDBD0B0B",
"H  c #6A6ABEBE0A0A",
"J  c #6868BBBB0E0E",
"K  c #6868BABA0F0F",
"L  c #6262ACAC1010",
"P  c #6565B2B21111",
"I  c #6565B5B51010",
"U  c #6767B7B71515",
"Y  c #6969BCBC1010",
"T  c #6969BCBC1212",
"R  c #6A6AB9B91717",
"E  c #6C6CBDBD1414",
"W  c #6B6BB2B21818",
"Q  c #6A6AC6C60000",
"!  c #6D6DC4C40303",
"~  c #6B6BC1C10707",
"^  c #6C6CC1C10606",
"/  c #6F6FC7C70606",
"(  c #6F6FC7C70707",
")  c #6B6BC8C80000",
"_  c #6D6DC8C80000",
"`  c #6F6FC9C90202",
"'  c #6B6BC3C30909",
"]  c #6E6EC2C20B0B",
"[  c #6E6EC6C60808",
"{  c #6969C0C00F0F",
"}  c #7070C9C90404",
"|  c #708ECA9A040E",
" . c #7193CA42070F",
".. c #71FFC9FE0700",
"X. c #7171CACA0707",
"o. c #7272CBCB0707",
"O. c #725FCA420823",
"+. c #7272CACA0808",
"@. c #7272CBCB0808",
"#. c #7373CBCB0808",
"$. c #7393CB42090F",
"%. c #7272CBCB0909",
"&. c #7373CBCB0909",
"*. c #7373CACA0B0B",
"=. c #7575CBCB0B0B",
"-. c #7575CBCB0E0E",
";. c #7676CBCB0F0F",
":. c #7575CCCC0C0C",
">. c #7575CCCC0D0D",
",. c #7777CCCC1111",
"<. c #7C7CCECE1818",
"1. c #7C7CA6A64646",
"2. c #C7C793932323",
"3. c #8383CFCF2525",
"4. c #80E1C72D2CE9",
"5. c #8383CFCF2929",
"6. c #8787D0D02C2C",
"7. c #8888D2D22E2E",
"8. c #8787CCCC3131",
"9. c #8787C8C83F3F",
"0. c #8B8BD0D03535",
"q. c #8C8CD0D03636",
"w. c #8D8DD4D43737",
"e. c #8F8FD3D33E3E",
"r. c #E3E3C3C33333",
"t. c #99B39AE8435E",
"y. c #8585A9A95757",
"u. c #901FACC1557C",
"i. c #8F8FB5B55E5E",
"p. c #8B7AAA6562FC",
"a. c #DFDF8B8B5757",
"s. c #8A8ACBCB4141",
"d. c #9292D6D64040",
"f. c #9797D6D64B4B",
"g. c #9A9AD9D94F4F",
"h. c #9B5ACE515512",
"j. c #9797D0D05050",
"k. c #9A9AD7D75151",
"l. c #9E9EDBDB5555",
"z. c #9898C2C26161",
"x. c #F7F7DFDF6767",
"c. c #FFFFFFFF7F7F",
"v. c gray56",
"b. c #9B9B9B9B9B9B",
"n. c gray67",
"m. c #AC0CAE37AA07",
"M. c #B7B7B7B7B7B7",
"N. c #FFFFB3B38383",
"B. c #BFBFE6E69090",
"V. c #C1C1E7E79494",
"C. c #C4C4E8E89797",
"Z. c #FFFFFFFF9F9F",
"A. c #CACAE9E9A7A7",
"S. c #CECEEAEAADAD",
"D. c #D0D0EDEDADAD",
"F. c #C3C3C3C3C3C3",
"G. c LightGray",
"H. c #DCDCF1F1C3C3",
"J. c #FFFFE3E3D3D3",
"K. c #E5E5F3F3D5D5",
"L. c #EBEBF7F7DEDE",
"P. c #DBDBDBDBFFFF",
"I. c #F3F3DBDBFFFF",
"U. c #EFEFF8F8E5E5",
"Y. c #F3F3FAFAEBEB",
"T. c #F5F5FAFAEDED",
"R. c #F9F9FCFCF4F4",
"E. c #F9F9FCFCF6F6",
"W. c #FBFBFDFDF8F8",
"Q. c gray100",
"!. c None",
/* pixels */
"!.!.!.!.!.!.!.!.!.!.!.!.!.!.!.!.!.!.!.!.!.!.!.!.!.!.!.!.!.!.!.!.",
"!.!.!.!.!.!.!.!.!.!.!.!.!.Z.J.Q.Q.J.!.!.!.!.!.!.!.!.!.!.!.!.!.!.",
"!.!.!.!.!.!.!.!.!.!.!.!.Z.J.J.Q.Q.Q.Q.!.!.!.!.!.!.!.!.!.!.!.!.!.",
"!.!.!.!.!.!.!.!.!.!.!.y Z.Z.J.Q.Q.Q.Q.G.!.!.!.!.!.!.!.!.!.!.!.!.",
"!.!.!.!.!.!.!.!.!.!.!.y c.x.Z.J.Q.Q.J.b.!.!.!.!.!.!.!.!.!.!.!.!.",
"!.!.!.!.!.!.!.!.!.!.!.1 = 0 0 n.J.J.Z.x.!.!.!.!.!.!.!.!.!.!.!.!.",
"!.!.!.!.!.!.!.!.!.!.!.1 ; 1 1 @ 0 x.N.!.!.!.!.!.!.!.!.!.!.!.!.!.",
"!.!.!.!.!.!.!.!.!.!.!.!.@ 1 1 1 : - @ !.!.!.!.!.!.!.!.!.!.!.!.!.",
"!.!.!.!.!.!.!.!.!.!.!.  - y 0 1 @     !.!.!.!.!.!.!.!.!.!.!.!.!.",
"!.!.!.!.!.!.!.!.!.    $ : y y :   @ r.x.!.!.!.!.!.!.!.!.!.!.!.!.",
"!.!.!.!.!.!.!.!.!.  @ : 1 1 1 ; 1 x.Z.w !.!.!.!.!.!.!.!.!.!.!.!.",
"!.!.!.!.!.!.!.!.    ; : 1 1 w 2.c.J.b.  @ !.!.!.!.!.!.!.!.!.!.!.",
"!.!.!.!.!.!.!.!.  @ ; - $ 1 w 2.x.x.y % %   !.!.!.!.!.!.!.!.!.!.",
"!.!.!.!.!.!.!.    @ ;     7 8 8 w r.2.  %   !.!.!.!.!.!.!.!.!.!.",
"!.!.!.!.!.!.!.    @ -   & 7 8 0 1 2.w     @ 1 !.!.!.!.!.!.!.!.!.",
"!.!.!.!.!.!.!.    @ $ & 7 8 8 8 1 2.w @   : a.q $ !.!.!.!.!.!.!.",
"!.!.!.!.!.!.!.    $ ; = 7 7 8 7 w 2.w @   q y w q !.!.!.!.!.!.!.",
"!.!.!.!.!.!.!.    $ - * = 7 8 & 1 w w -   w e e 2 !.!.!.!.!.!.!.",
"!.!.!.!.!.!.!.    @ @ * = 7 =   1 2.w - @ t t.p.u.z.i.!.!.!.!.!.",
"!.!.!.!.!.!.!.!.  !.!.% * = %   - w q # 4 h.6.<.>.<.3.j.y.!.!.!.",
"!.!.!.!.!.!.!.!.    = % % %       @ @ 3 q.-./ #.#.` d.l.0.1.!.!.",
"!.!.!.!.!.!.!.!.    & * %           O 4.=. .#.#.` 7.T.B.) 8.!.!.",
"!.!.!.!.!.!.!.!.      = = %       X < -. .#.#.#./ C.E.Q #.>.W !.",
"!.!.!.!.!.!.!.!.& & % = = = &     X u #. .#.#.` w.Y.g.` #. .M !.",
"!.!.!.!.!.!.!.* 8 0 = = = = !.!.% o f  .%./ ( #.D.H.,.#.#.#.m !.",
"!.!.!.!.!.!.8 8 v.b.= = = = !.!.* , l ~ 5.B.f.e.E.k.( #.( ' c !.",
"!.!.!.!.!.!.7 0 v.b.8 8 8 7 !.* = 5 z F Q S.R.L.A.] ~ ^ ' D h !.",
"!.!.!.!.!.!.!.!.n.b.8 7 8 v.n.0 7 = > x F n K.U.s.B D D { v !.!.",
"!.!.!.!.!.!.!.!.M.!.!.!.M.P.Q.I.F.v.9 6 S K E s.N J T T Z p !.!.",
"!.!.!.!.!.!.!.!.F.!.!.7 b.G.P.I.Q.Q.I.m.p L P I R U A x i !.!.!.",
"!.!.!.!.!.!.!.!.M.!.!.!.!.v.G.P.P.P.G.!.!.!.f k j g s !.!.!.!.!.",
"!.!.!.!.!.!.!.!.!.!.!.!.!.!.!.!.7 = = !.!.!.!.!.!.!.!.!.!.!.!.!."
};
