/* XPM */
static char *xpm__usr_share_albumshaper_images_miscImages_as32[] = {
/* columns rows colors chars-per-pixel */
"32 32 256 2 ",
"   c #045524A733D5",
".  c #060629C33D70",
"X  c #068B28883A39",
"o  c #3E667DF91D07",
"O  c #36AC766026D9",
"+  c #30F56F94303F",
"@  c #2EE2745A3B65",
"#  c #07072C2C4040",
"$  c #08482DEE4202",
"%  c #070731314949",
"&  c #09C933E4499B",
"*  c #0BCC39195252",
"=  c #073D39895651",
"-  c #13603C09521F",
";  c #141436364A4A",
":  c #14414E5D4798",
">  c #0A0A40405D5D",
",  c #172E4D4E57F3",
"<  c #2FED7B0545F9",
"1  c #041B4211646E",
"2  c #0A8B46466868",
"3  c #056A49776EC6",
"4  c #09C14A4A6D6D",
"5  c #07F346ED6780",
"6  c #16D74C8D6A2A",
"7  c #1D1D51516D6D",
"8  c #05054C2472D5",
"9  c #07074F4F7878",
"0  c #09B44DF8731D",
"q  c #0C0C51517777",
"w  c #09AD533C7B92",
"e  c #060652527BFC",
"r  c #1616515171F2",
"t  c #181856567A7A",
"y  c #1B1774997A43",
"u  c #4BE57CDE5FB0",
"i  c #676774745F5F",
"p  c #707072725F5F",
"a  c #7A7A79FA62E3",
"s  c #76767E7E6666",
"d  c #737377777373",
"f  c #981853D439BA",
"g  c #A1A15F5F3F3F",
"h  c #8C8C5C5C4B4B",
"j  c #9D9D5F5F4D4D",
"k  c #9F9F77774A4A",
"l  c #9D9D7A7A5E5E",
"z  c #88886D6D4B4B",
"x  c #AFAF67674747",
"c  c #AEAE6A6A4141",
"v  c #A8686DEE5393",
"b  c #ADAD7DFE52D3",
"n  c #A2A27C7C5858",
"m  c #B4336CED4747",
"M  c #838374F56363",
"N  c #98987B7B6363",
"B  c #58589E9E0505",
"V  c #5E0EAA750A1C",
"C  c #5CD3A6B90809",
"Z  c #5B0BB77800B6",
"A  c #6161ACAC0606",
"S  c #644CBD1300C6",
"D  c #63B9B2B20C62",
"F  c #68AEBCAF0B50",
"G  c #6565B76105B0",
"H  c #6030AB05135F",
"J  c #6610B55F1212",
"K  c #6A38BC0E1395",
"L  c #6B6BB2B21818",
"P  c #44CA86632444",
"I  c #4904925E229A",
"U  c #415390B835F6",
"Y  c #6D81AF222A93",
"T  c #669FAD7D3327",
"R  c #6D6DC57C052A",
"E  c #6E5DC9650174",
"W  c #6C6CC3830ACB",
"Q  c #7121CAD0056B",
"!  c #7355CB6D0962",
"~  c #7C7CCECE1818",
"^  c #7777CCCC1111",
"/  c #328882AC4CB2",
"(  c #5D4BA5D849A7",
")  c #7C7CA6A64646",
"_  c #7DE7B27D6BE7",
"`  c #7155B2297D94",
"'  c #8383CFCF2727",
"]  c #87C9D1A72D74",
"[  c #8477CB99316C",
"{  c #8787C8C83F3F",
"}  c #8C8CD2273636",
"|  c #8F8FD3D33E3E",
" . c #8D8D9D9D4C4C",
".. c #95959C9C4E4E",
"X. c #9B1B8C8C58D9",
"o. c #8B8B9E9E5555",
"O. c #B1B187874E4E",
"+. c #ACAC98984D4D",
"@. c #ADAD84845D5D",
"#. c #B71687675C3C",
"$. c #B4B495955252",
"%. c #AFAFABAB5F5F",
"&. c #BBBBA1A15C5C",
"*. c #8101828268E9",
"=. c #989880806969",
"-. c #8B8B9D9D6060",
";. c #9D9D86867070",
":. c #919192927C7C",
">. c #A92987066464",
",. c #A6A68E8E7676",
"<. c #A2A293937979",
"1. c #CECE8A8A5757",
"2. c #C8C8A2A25454",
"3. c #D5D594946060",
"4. c #8A8ACBCB4141",
"5. c #96BFD7BD4923",
"6. c #94F8CE9F5657",
"7. c #9C9CD9D95353",
"8. c #04AF58AE8731",
"9. c #09E05A1684EB",
"0. c #07C25CB18BB7",
"q. c #0D0D60608E8E",
"w. c #141460608A8A",
"e. c #093466919A44",
"r. c #048568E99F9F",
"t. c #0AE569D99E0D",
"y. c #07E1652A9760",
"u. c #23B264D689FB",
"i. c #298E757898DD",
"p. c #0B1F6DEDA4B3",
"a. c #03036F6FACAC",
"s. c #06B16CC2A5D0",
"d. c #11676F19A2F8",
"f. c #05057171AE2E",
"g. c #0ABA723CABAB",
"h. c #09097070A7A7",
"j. c #1AF072F2A323",
"k. c #17177575A9FF",
"l. c #04447474B2B2",
"z. c #0C0C790BB590",
"x. c #0C597DB0BC08",
"c. c #0791798CB84A",
"v. c #13947AFAB3B3",
"b. c #23BD7643A4A4",
"n. c #29AA7777A323",
"m. c #2A2A7979A5A5",
"M. c #20207E7EB2B2",
"N. c #34347C7CA8A8",
"B. c #1B1B8484BFBF",
"V. c #2C2C8080ADAD",
"C. c #6079A59E8678",
"Z. c #6D6D9393B0B0",
"A. c #6790A10BB613",
"S. c #0C3082E8C48A",
"D. c #0C6286DCC9C9",
"F. c #0D0D891BCD84",
"G. c #055B8484CB20",
"H. c #11118A8ACECE",
"J. c #14948A8ACC4C",
"K. c #0C078C90D2E5",
"L. c #065C8F39DBDB",
"P. c #14148D8DD0D0",
"I. c #0C0C922BDC8F",
"U. c #19199494D7D7",
"Y. c #15159555DBDB",
"T. c #199A9696DB5B",
"R. c #1C9C9919DDDD",
"E. c #2E2E8D8DC1C1",
"W. c #21219797D8D8",
"Q. c #24A49AB4DC28",
"!. c #2AC49C9CDC75",
"~. c #2C2C9797D3D3",
"^. c #36369595CBCB",
"/. c #3636A2A2DE5E",
"(. c #3BE6A44EDD32",
"). c #06069898E7E7",
"_. c #05989918EAC5",
"`. c #0A0A9C02ED53",
"'. c #095F9595E2E2",
"]. c #15969C9CE6E6",
"[. c #1A679C1BE430",
"{. c #13889F13ECA6",
"}. c #18189E9EE9E9",
"|. c #22229E9EE3E3",
" X c #1630A0D3ED39",
".X c #1A97A342EE39",
"XX c #2525A6EFEEA5",
"oX c #2626A8A8EEEE",
"OX c #2B40A9E9EFC4",
"+X c #2A2AA1A1E4E4",
"@X c #3737A323E161",
"#X c #31B2A7A7ED6D",
"$X c #330EABF4EE5B",
"%X c #3F3FADADEDED",
"&X c #3A3AA6A6E3E3",
"*X c #3333AD2DF0F0",
"=X c #40409F9FD4D4",
"-X c #42A9A572DCA9",
";X c #68E9AA6AD696",
":X c #4A4AAEAEE6E6",
">X c #6F6FBABAECEC",
",X c #92928F8F8A8A",
"<X c #9D9D93939090",
"1X c #974194EA8AE0",
"2X c #ABAB93938080",
"3X c #A5249D1D8A0A",
"4X c #A0A09F9F9E9E",
"5X c #88D4B4E28F1E",
"6X c #80EDAF63942A",
"7X c #B838A8289212",
"8X c #9999A5A5AAAA",
"9X c #B0B0B3B3AFAF",
"0X c #AEAEAEAEB4B4",
"qX c #A5A5B0B0B3B3",
"wX c #C8C8B3B39A9A",
"eX c #9C9CC1F48181",
"rX c #AD42C88B9766",
"tX c #BF0AE66C90A4",
"yX c #A4F0C0E0BB09",
"uX c #C343E8689616",
"iX c #CCCCEA6AAAAA",
"pX c #D0D0EDEDADAD",
"aX c #9333B1CAC8F5",
"sX c #B8B8BBBBC0C0",
"dX c #A4ACC19ADC20",
"fX c #87B6C151EB4D",
"gX c #9999C6C6EBEB",
"hX c #AA68CC39EB03",
"jX c #A8A8C670E38D",
"kX c #B636CC0CE666",
"lX c #B6B6D2D2F0F0",
"zX c #CC4CD3D3DB5B",
"xX c #DCDCF1F1C3C3",
"cX c #E8E8F5F5DA5A",
"vX c #C7EDD995EF0B",
"bX c #C925DD43F871",
"nX c #D959E767ECEC",
"mX c #D9EFEAE8F2A4",
"MX c #D352E2E2FBD0",
"NX c #DCDCEEEEF9F9",
"BX c #D840EBCCFBCB",
"VX c #DF09F1C6FBFB",
"CX c #E868EBEBECEC",
"ZX c #E5E5E6E6E8E8",
"AX c #EFB6F8CDE5E9",
"SX c #F4F4FAFAECEC",
"DX c #E49FEECCF325",
"FX c #EAF6EF81F253",
"GX c #E1E1E9E9FFFF",
"HX c #E700F224F474",
"JX c #EAC5F1A8F418",
"KX c #E349F3F3FCFC",
"LX c #EA14F41EF9F9",
"PX c #EE6EF8F8FE7E",
"IX c #FAA4FD52F6F6",
"UX c None",
/* pixels */
"UXUX; - - - - - - - - - - * * * * * * * * % = * % UXUXUXUXUXUXUX",
"UX, u.i.n.n.m.n.b.b.b.j.b.j.j.j.j.d.d.d.d.d.p.y.0.= UXUXUXUXUXUX",
"UX7 m.^.-X-X-X-X-X(.(./.Q.Q.Q.!.!.!.!.Q.Q.W.W.D.p.4 UXUXUXUXUXUX",
"UX7 V.-XPXFXFXFXFXFXFXKX$XXX$XKXJXJXLXFXDXHXKXT.z.9 UXUXUXUXUXUX",
"UX7 n.=XDXb v j h v 3.ZX%XXXOXNX3X7XwX<.a a nX+Xx.9.UXUXUXUXUXUX",
"UXUXu.E.:XZXj x f f c 3.DX*X.X*XDX3X7X<.<.*.i nXU.r.5 UXUXUXUXUX",
"UXUXt M.:XFXv v x j m 1.LXOX.XoXFX1X:.*.a s i HXU.f.3 UXUXUXUXUX",
"UXUXr M.@XGXFXFXFXFXFXFXKXXX XoXKXHXHXHXJXLXHXNXU.l.3 UXUXUXUXUX",
"UXUXr M.!.$X$X*XOXOXOXOXoX X{.{..XXX.X.X.X X X XL.l.8 UXUXUXUXUX",
"UXUXr M.W.$X$X$XOXOXOXoXXX{.`.{..X.X.X X.X.X X{.L.l.e UXUXUXUXUX",
"UXUX6 d.~.BXPXJXJXFXFXDXmXOX X.XBXPXLXHXJXLXPXNX|.c.0.UXUXUXUXUX",
"UXUXUXw.B.&XJX#.#.#.N M M mX.X`.OXLX4X<X<X0XzXzXNXP.s.1 UXUXUXUX",
"UXUXUXq v.+XFXb @.b >.N ;.JX.X`..XHXZ.a ,X9XzXsXVXY.s.3 UXUXUXUX",
"UXUXUX0 v.Q.FXN N n >.,.2XJX X`..XDXd p ,X9XqX8XLXY.a.9 UXUXUXUX",
"UXUXUX4 k.Q.VXCXHXFXJXJXLXKX X`. XNXDXDXHXLXLXLXNXY.l.9 UXUXUXUX",
"UXUXUX2 t.H..XXX.X.X.X.X X X`._.`.{.{.{. X{.{.%X{.L.c.8.UXUXUXUX",
"UXUXUXUX8.B.I..X.X X X.X X X X`._._._._._.#XbXMXG.L.G.r.1 UXUXUX",
"UXUXUXUXe z.R.VXJXHXJXCXHXFXVX]._._._._.$XMXNXdXt.S.F.s.5 UXUXUX",
"UXUXUXUX3 l.R.HX-.o.X.k z X.HX X_._._.].bXA.rXeX_ ` C.i.1 UXUXUX",
"UXUXUXUX8 f.T.HX.. ...+.+.%.FX}.).).].hX6X6.] ~ ^ ~ ' 6.u UXUXUX",
"UXUXUXUX3 g.U.CX#.O.$.2.2.&.FX].'.'.fX5X} ! Q Q Q E 5.7.} ) UXUX",
"UXUXUXUX2 r.P.KXJXJXFXJXJXFXHX{.I.>XyX[ ! Q ! ! E ] AXtXE [ UXUX",
"UXUXUXUXUX9.x.T.[.[.[.[.[.[.[.T./.mX( ^ ! ! Q ! Q uXIXE Q ^ L UX",
"UXUXUXUXUXq f.H.I.I.I.I.I.@XgXhXMXvXT ! ! ! ! E } SX7.R ! Q G UX",
"UXUXUXUXUX4 h.H.I.I.I.K.I.gX;XjXLXaXY Q ! Q E Q pXxX^ ! ! ! A UX",
"UXUXUXUXUX4 p.D.K.K.K.H.H.S.f.vXaX2 I R ' uX5.5.IX7.R Q R R C UX",
"UXUXUXUXUX2 y.J.D.H.H.H.D.S.;XGXu.9.U F S iXSXcXiXW W R W F B UX",
"UXUXUXUXUX= q.g.S.D.S.S.S.S.lXkXe y.y V F Z cXAX4.S G F W A UXUX",
"UXUXUXUXUXUXq t.v.x.x.x.x.z.GXkX8 y.g./ G K K { Z K K K D + % UX",
"UXUXUXUXUXUX2 q.p.g.p.g.s.r.N.t 8 0.p.q.< H J J K J D C @ 5 % UX",
"UXUXUXUXUXUX* 2 w 9.w w w w 8 2 2 8 9 8 8 , O P P o O : 1 = # UX",
"UXUXUXUXUXUXUX. $ # # # # # . . . . X X .     X             UXUX"
};
