/* XPM */
static char *xpm__usr_share_scilab_icons_scilab[] = {
/* columns rows colors chars-per-pixel */
"32 32 182 2 ",
"   c black",
".  c #00BE01340000",
"X  c #00DA0186003F",
"o  c #027D04810030",
"O  c #02D604CA0091",
"+  c #034E05E70033",
"@  c #0364040D027B",
"#  c #047107D80049",
"$  c #116C1F980097",
"%  c #11B71F98017A",
"&  c #333300000000",
"*  c #135F2330014B",
"=  c #13EF249901A2",
"-  c #1C7F27B60EDB",
";  c #333333330000",
":  c #243629621CBD",
">  c #243629AC1D07",
",  c gray20",
"<  c #666600000000",
"1  c #666633330000",
"2  c #639631CB31CB",
"3  c #666633333333",
"4  c #2E0852BD04A9",
"5  c #34835E4002B1",
"6  c #35DB5F98040A",
"7  c #3DAB6EB90381",
"8  c #3D046E1F0535",
"9  c #3E04700C04EF",
"0  c #46AA7E21048F",
"q  c #470E7E3B0489",
"w  c #417A71190B29",
"e  c #45DF7A130A71",
"r  c #47ED78900DB3",
"t  c #494C79EF1071",
"y  c #49D45DD0304B",
"u  c #5BC474263B0A",
"i  c #5BC474263C52",
"p  c #42597B605844",
"a  c #40E679CF5A0E",
"s  c #420B7AF35BC5",
"d  c gray40",
"f  c #66F767AD65F9",
"g  c #999900000000",
"h  c #999933330000",
"j  c #999933333333",
"k  c #CCCC00000000",
"l  c red",
"z  c #CCCC33333333",
"x  c #FFFF33333333",
"c  c #CCCC66663333",
"v  c #FFFF66663333",
"b  c #999966666666",
"n  c #CCCC66666666",
"m  c #FFFF66666666",
"M  c #4B97868C03C8",
"N  c #4B97868C0489",
"B  c #50948E0C04FC",
"V  c #50948EE104FC",
"C  c #5C5FA61E0BAE",
"Z  c #5DE0A8FA08E5",
"A  c #5EAEAA950A21",
"S  c #5AFFB6FF0000",
"D  c #6363B7B70404",
"F  c #62FFB9FF0100",
"G  c #6565BFBF0000",
"H  c #6868BBBB0707",
"J  c #6262B1B10909",
"K  c #6363B1B10F0F",
"L  c #6565B4B40D0D",
"P  c #6868BCBC0808",
"I  c #6868BCBC0909",
"U  c #6868BDBD0B0B",
"Y  c #69FFBDFF0A00",
"T  c #6868BBBB0E0E",
"R  c #6868BABA0F0F",
"E  c #6146AB051481",
"W  c #6565B2B21111",
"Q  c #6565B5B51010",
"!  c #6767B7B71515",
"~  c #68FFBBFF1000",
"^  c #6969BCBC1212",
"/  c #6A6AB9B91717",
"(  c #6BFFBCFF1400",
")  c #6A6AC6C60000",
"_  c #6D6DC4C40303",
"`  c #6B6BC1C10707",
"'  c #6C6CC1C10606",
"]  c #6F6FC7C70606",
"[  c #6F6FC7C70707",
"{  c #6B6BC8C80000",
"}  c #6D6DC8C80000",
"|  c #6EFFC8FE0200",
" . c #6F6FC9C90202",
".. c #6B6BC3C30909",
"X. c #6E6EC2C20B0B",
"o. c #6E6EC6C60808",
"O. c #6969C0C00F0F",
"+. c #7038C9E40402",
"@. c #7070CACA0404",
"#. c #70FFC9FE0700",
"$. c #71FFC9FE0700",
"%. c #7171CACA0707",
"&. c #7272CBCB0707",
"*. c #71FFC9FE0800",
"=. c #7272CACA0808",
"-. c #7272CBCB0808",
";. c #7373CBCB0808",
":. c #72FFCAFE0900",
">. c #7272CBCB0909",
",. c #7373CBCB0909",
"<. c #7373CACA0B0B",
"1. c #7575CBCB0B0B",
"2. c #7575CBCB0E0E",
"3. c #7676CBCB0F0F",
"4. c #7575CCCC0C0C",
"5. c #7575CCCC0D0D",
"6. c #7777CCCC1111",
"7. c #7C7CCECE1818",
"8. c #6FE78ED34769",
"9. c #7CAC9F0A4E52",
"0. c #8383CFCF2525",
"q. c #8383CFCF2929",
"w. c #8787D0D02C2C",
"e. c #8900D2FF2F01",
"r. c #87E8CB643121",
"t. c #8536C9FC3577",
"y. c #8787C8C83F3F",
"u. c #8B8BD0D03535",
"i. c #8C8CD0D03636",
"p. c #8D8DD4D43737",
"a. c #8F8FD3D33E3E",
"s. c #AA8B92A07929",
"d. c #B634A0DD6AA3",
"f. c #BBB8A1ED73DA",
"g. c #8A8ACBCB4141",
"h. c #92D6CA434DCB",
"j. c #9300D6FF4100",
"k. c #9797D6D64B4B",
"l. c #9A9AD9D94F4F",
"z. c #96B9CC35549A",
"x. c #9A9AD7D75151",
"c. c #9E9EDBDB5555",
"v. c #316762F5BD8A",
"b. c #31806336BE57",
"n. c #31FF62B7BF8C",
"m. c #33336666CCCC",
"M. c #5C028A2D81E3",
"N. c #33339999CCCC",
"B. c #8F9593148B6D",
"V. c #912593778E4D",
"C. c #944096AD9155",
"Z. c #9487971E9163",
"A. c #94DA96CF9283",
"S. c #9744994094E8",
"D. c #973A98B09570",
"F. c #97AD99A19579",
"G. c #98FF98FF98FF",
"H. c gray60",
"J. c #C898987796CF",
"K. c #CCCC99999999",
"L. c #F044924C8FF6",
"P. c #F8F895629562",
"I. c #FFFF99999999",
"U. c #BF99E6989099",
"Y. c #C1C1E7E79494",
"T. c #C4C4E8E89797",
"R. c #CACAE9E9A7A7",
"E. c #CECEEAEAADAD",
"W. c #D0D0EDEDADAD",
"Q. c #F3CEC551C339",
"!. c #FFFFCCCCCCCC",
"~. c #DCDCF1F1C3C3",
"^. c #E5E5F3F3D5D5",
"/. c #EBEBF7F7DEDE",
"(. c #CCCCCCCCFFFF",
"). c #EEFEF7FEE4FE",
"_. c #F3F3FAFAEBEB",
"`. c #F5F5FAFAEDED",
"'. c #F9F9FCFCF4F4",
"]. c #F9F9FCFCF6F6",
"[. c #FBFBFDFDF8F8",
"{. c gray100",
/* pixels */
"                                                              {.",
"  (.(.(.(.(.(.(.(.(.(.(.(.(.(.(.(.(.(.(.(.(.(.(.(.(.(.(.(.(.  {.",
"  (.N.N.N.N.N.N.N.N.N.N.N.N.N.N.N.N.N.N.N.N.N.N.N.N.N.N.N.m.  H.",
"  (.N.                                                    m.  H.",
"  (.N.                                  & j &             m.  H.",
"  (.N.                                j v v c             m.  H.",
"  (.N.                                3 v v v             m.  H.",
"  (.N.                                  j j 3             m.  H.",
"  (.N.                    & &                             m.  H.",
"  (.N.                  h x x <             3 3           m.  H.",
"  (.N.                  x x x z           b I.I.b         m.  H.",
"  (.N.                  z x x h           n I.I.n         m.  H.",
"  (.N.                  & h h             3 b n ;         m.  H.",
"  (.N.                        & 3 3                       m.  H.",
"  (.N.    & < &               n m m 3           d ,       m.  H.",
"  (.N.  < l l l &           & m m m c         K.!.!.&     m.  H.",
"  (.N.  k l l l <             c m m ,         !.!.!.,     m.  H.",
"  (.N.  g l l l <               ; &         + d Q.J.+     m.  H.",
"  (.N.  & k l k   & 1 &           , b n 2 : u 8.9.8.i >   m.  H.",
"  (.N.          & x x x <         b I.L.f.z.w.7.5.7.0.h.y m.  H.",
"  (.N.          1 x x x j         b P.d.i.2.] #.;.| j.c.u.M.  H.",
"  (.N.          1 x x x j         , s.r.1.#.;.;.| e.`.U.) t.- H.",
"  (.N.            j x z &         + r 2.#.;.;.;.#.T.].) ;.5.t F.",
"  (.N.                            + M ;.;.;.;.| p._.l.| ;.#.M Z.",
"  (.N.                            + B ;.#.| | ;.W.~.6.;.;.;.B B.",
"  (.N.                            + 0 | q.Y.x.a.].x.] ] ] o.0 C.",
"  (.N.                            + 9 H ) E.]./.R.X.` ' ..I 7 F.",
"  (.N.                              * C I S ^.).g.F P Y O.A * G.",
"  (.N.                                4 L ~ / y.D T ~ ^ J p   H.",
"  (.m.m.m.m.m.m.m.m.m.m.m.m.m.m.m.m.m.b.s E W Q / ! K C a b.  H.",
"                                          % 6 w e 7 5 $       H.",
"{.{.H.H.H.H.H.H.H.H.H.H.H.H.H.H.H.H.H.H.H.H.D.Z.V.Z.F.H.H.H.H.H."
};
