/* XPM */
static char *xpm__usr_share_pixmaps_patchage[] = {
/* columns rows colors chars-per-pixel */
"32 32 179 2 ",
"   c black",
".  c #00BE01340000",
"X  c #00DA0186003F",
"o  c #01D9034F000E",
"O  c #024704530018",
"+  c #02FE05500026",
"@  c #0257038B0134",
"#  c #02D604CA0091",
"$  c #035D05E6002A",
"%  c #036B040D0274",
"&  c #047107D80049",
"*  c #116C1F980097",
"=  c #11B71F98017A",
"-  c #13EF249901A2",
";  c #1B9627690DF2",
":  c #243629621CBD",
">  c #1F1F2A2A3C3C",
",  c #20A22D503A78",
"<  c #2AD04DA301B6",
"1  c #2BF54EC7036D",
"2  c #2CDD50680255",
"3  c #2E0852BD04A9",
"4  c #34835E4002B1",
"5  c #35DB5F98040A",
"6  c #3D046E1F0535",
"7  c #3E04700C04EF",
"8  c #46AA7E21048F",
"9  c #417A71190B29",
"0  c #45DF7A130A71",
"q  c #47ED78900DB3",
"w  c #47117B7415B1",
"e  c #44C35CCD2693",
"r  c #49465D422F2F",
"t  c #5BC474263B0A",
"y  c #3DBC57F7793D",
"u  c #3F2359727E69",
"i  c #515A68BA7C53",
"p  c #4B97868C03C8",
"a  c #5B7D9E1F1C06",
"s  c #5B2BA3B506DD",
"d  c #5DE0A8FA08E5",
"f  c #5AFFB6FF0000",
"g  c #6004AB620998",
"h  c #6363B7B70404",
"j  c #6388BA9901AB",
"k  c #6565BFBF0000",
"l  c #6868BBBB0707",
"z  c #6262B1B10909",
"x  c #6363B1B10F0F",
"c  c #6565B4B40D0D",
"v  c #6868BCBC0808",
"b  c #6868BCBC0909",
"n  c #6868BDBD0B0B",
"m  c #6A88BE990AAB",
"M  c #6868BBBB0E0E",
"N  c #6868BABA0F0F",
"B  c #6011A89C0FAF",
"V  c #6565B2B21111",
"C  c #6565B5B51010",
"Z  c #6767B7B71515",
"A  c #68FFBBFF1000",
"S  c #6969BCBC1212",
"D  c #6A6AB9B91717",
"F  c #6BFFBCFF1400",
"G  c #5B379C602586",
"H  c #68C9A42E2EB3",
"J  c #6745A91227CD",
"K  c #6A6AC6C60000",
"L  c #6D6DC4C40303",
"P  c #6B6BC1C10707",
"I  c #6C6CC1C10606",
"U  c #6F6FC7C70606",
"Y  c #6F6FC7C70707",
"T  c #6B6BC8C80000",
"R  c #6D6DC8C80000",
"E  c #6F6FC9C90202",
"W  c #6F3FC9570286",
"Q  c #6B6BC3C30909",
"!  c #6E6EC2C20B0B",
"~  c #6E6EC6C60808",
"^  c #6969C0C00F0F",
"/  c #7070C9C90404",
"(  c #7070CACA0404",
")  c #7083CA9C04CB",
"_  c #7158CA910747",
"`  c #7272CBCB0707",
"'  c #71FFC9FE0800",
"]  c #7183CA9C07CB",
"[  c #7275CAC207FE",
"{  c #7272CBCB0808",
"}  c #7373CBCB0808",
"|  c #7272CBCB0909",
" . c #7373CBCB0909",
".. c #7388CB9909AB",
"X. c #7373CACA0B0B",
"o. c #7575CBCB0B0B",
"O. c #7575CBCB0E0E",
"+. c #7676CBCB0F0F",
"@. c #7575CCCC0C0C",
"#. c #7575CCCC0D0D",
"$. c #7777CCCC1111",
"%. c #7C7CCECE1818",
"&. c #7E8DB2B24FE6",
"*. c #661A854F6BFC",
"=. c #729594066C7E",
"-. c #6FFF8B657513",
";. c #8383CFCF2525",
":. c #80E1C72D2CE9",
">. c #8383CFCF2929",
",. c #8787D0D02C2C",
"<. c #883ED2572E86",
"1. c #8AD6CE3436DE",
"2. c #8787C8C83F3F",
"3. c #8B8BD0D03535",
"4. c #8C8CD0D03636",
"5. c #8D8DD4D43737",
"6. c #8F8FD3D33E3E",
"7. c #80C5A6616B04",
"8. c #8992B10E698C",
"9. c #944FB7C874EC",
"0. c #8A8ACBCB4141",
"q. c #923ED6574086",
"w. c #9797D6D64B4B",
"e. c #9A9AD9D94F4F",
"r. c #94D1CD0851FB",
"t. c #9A9AD7D75151",
"y. c #9E9EDBDB5555",
"u. c #9AD9D11F5AEE",
"i. c #3D8355EB81DB",
"p. c #3F3F58588585",
"a. c #416A598A8142",
"s. c #41B45A4883AD",
"d. c #40DF59F8845D",
"f. c #45525CC186BC",
"g. c #47475F5F8A8A",
"h. c #515168689090",
"j. c #56566C6C9494",
"k. c #606075759A9A",
"l. c #7F4E95088F18",
"z. c #72728585A6A6",
"x. c #79798A8AAAAA",
"c. c #7D7D8E8EADAD",
"v. c #7F06994DBE27",
"b. c #7FE7984FC43F",
"n. c #841F96ADA176",
"m. c #877E9877A707",
"M. c #87FF98FFA9FF",
"N. c #88889999AAAA",
"B. c #8A8A9999B5B5",
"V. c #8D8D9C9CB7B7",
"C. c #8F8F9D9DB8B8",
"Z. c #B6C3CE3E9893",
"A. c #BF3EE6579085",
"S. c #C1C1E7E79494",
"D. c #C4C4E8E89797",
"F. c #CACAE9E9A7A7",
"G. c #CECEEAEAADAD",
"H. c #D0D0EDEDADAD",
"J. c #83839C9CC9C9",
"K. c #A7A7B2B2C7C7",
"L. c #C0C0C8C8D7D7",
"P. c #DCDCF1F1C3C3",
"I. c #E5E5F3F3D5D5",
"U. c #EBEBF7F7DEDE",
"Y. c #D9D9DEDEE7E7",
"T. c #DCDCE0E0E9E9",
"R. c #E5E5E9E9EFEF",
"E. c #EF87F898E5AA",
"W. c #F056F178EF21",
"Q. c #F3F3FAFAEBEB",
"!. c #F5F5FAFAEDED",
"~. c #F0F0F2F2F5F5",
"^. c #F40EF6FBF4C5",
"/. c #F9F9FCFCF4F4",
"(. c #F9F9FCFCF6F6",
"). c #F8F8F9F9FBFB",
"_. c #FBFBFDFDF8F8",
"`. c #FBFBFCFCFDFD",
"'. c gray100",
/* pixels */
"> > > > > > > J.J.J.J.J.                      N.p.p.p.p.p.p.p.p.",
"> > > > > > > > > > > J.J.J.J.J.              N.p.p.p.p.p.p.p.p.",
"> > > > > > > > > > > N.        J.J.J.J.J.    N.p.p.p.p.p.'.K.).",
"> > > > > > > > > > > N.                  J.J.J.p.p.p.p.p.'.C.g.",
"> > > > > > > > > > > N.                    J.N.p.p.p.p.p.'.g.p.",
"> > > > > > > > > > > N.                  J.  N.p.p.p.p.p.'.V.g.",
"> > > > > > > > > > > N.                J.    N.p.p.p.p.p.'.K.).",
"> > > > > > > > > > > N.              J.      N.p.p.p.p.p.'.p.p.",
"> > > > > > > > > > > N.            J.J.      N.p.p.p.p.p.'.p.p.",
"N.N.N.N.N.N.N.N.N.N.N.N.          J.J.        N.p.p.p.p.p.p.p.p.",
"p.p.p.p.p.p.p.p.p.p.p.N.        J.J.          N.N.N.N.N.N.N.N.N.",
"p.p.p.p.p.p.p.p.p.p.p.N.      J.J.            N.> > > > > > > > ",
"p.p.p.p.p.p.p.p.p.p.p.N.      J.              N.N.N.N.N.N.N.N.N.",
"'.'.'.p.p.p.p.p.p.p.p.N.    J.                N.p.p.p.p.p.p.p.p.",
"J.J.'.p.p.p.p.p.p.p.p.N.  J.                  N.p.p.p.p.p.p.p.p.",
"p.p.J.J.J.J.J.p.p.p.p.N.J.                    N.p.p.p.p.p.p.p.p.",
"p.p.'.p.p.p.p.J.J.J.J.J.                      N.d.p.p.p.p.p.p.p.",
"p.p.'.p.p.p.p.p.p.p.p.J.J.J.J.J.            @ m.a.d.d.p.p.p.p.p.",
"p.p.'.p.p.p.p.p.p.p.p.N.        J.J.J.J.b.: t 9.8.7.=.i i.'.K.).",
"'.'.'.'.'.p.p.p.p.p.p.N.              @ r u.,.%.#.%.;.r.*.W.C.g.",
"p.p.p.p.p.p.p.p.p.p.p.N.              e 4.#.` ` ` W q.y.3.Z.f.p.",
"p.p.p.p.p.p.p.p.p.p.p.N.            ; :.o.{ ....W <.!.A.T 1.l.g.",
"N.N.N.N.N.N.N.N.N.N.N.N.          @ q #.` ..{ ` W D.(.K { +.&.^.",
"> > > > > > > > > > > N.          @ p } { { { W 4.Q.e.W { ` G u ",
"> > > > > > > > > > > N.          $ J { { / W { H.P.$.{ { { a y ",
"N.N.N.N.N.N.N.N.N.N.N.N.          v.8 W >.S.w.6._.t.U { U ~ H n.",
"p.p.p.p.p.p.p.p.p.p.p.N.        J.@ 6 b k G./.U.F.! Q I Q b w , ",
"p.p.p.p.p.p.p.p.p.p.p.N.      J.    - d n f I.E.0.j v v A g -.M.",
"c.T.`.T.z.p.p.p.p.p.p.N.    J.        3 c N D 0.h N A A z 2     ",
"L.k.g.B.~.p.p.p.p.p.p.N.  J.          @ < B V c D Z x s < @     ",
"p.p.p.j.R.p.p.p.p.p.p.N.J.                - 5 9 0 6 4 -         ",
"p.p.h.Y.x.p.p.p.p.p.p.J.                    @ @ @ @ @           "
};
