/* XPM */
static char *xpm__usr_share_pixmaps_xtriangles_m[] = {
/* columns rows colors chars-per-pixel */
"32 32 151 2 ",
"   c black",
".  c #02D604CA0091",
"X  c #035D05E6002A",
"o  c #11B71F98017A",
"O  c #1B9627690DF2",
"+  c #7FF83E992240",
"@  c #2BF54EC7036D",
"#  c #46AA7E21048F",
"$  c #55407EFD236F",
"%  c #55B078822C96",
"&  c #56917A1C2C09",
"*  c #579365C046BF",
"=  c #5E4960695C5F",
"-  c #694179EB56F4",
";  c #604560456045",
":  c gray39",
">  c #77077A6E72DF",
",  c #771679427511",
"<  c #77E7791B76C5",
"1  c #79EB7C3D7713",
"2  c #7A867A867A86",
"3  c #7AE17B8D7A47",
"4  c #7B057B057B05",
"5  c #7CB57D2B7BF7",
"6  c #7CEF7EE57A98",
"7  c #7DDE7EAB7CC6",
"8  c #7E7E7E7E7E7E",
"9  c #80E13A952326",
"0  c #82D93ED92332",
"q  c #83FF3C002407",
"w  c #84843C3C2424",
"e  c #844C3EA2259A",
"r  c #82CB54603689",
"t  c #50948E0C04FC",
"y  c #58589E9E0505",
"u  c #56BD87D91EEF",
"i  c #59C08DF41E51",
"p  c #64259F1A1C55",
"a  c #5E5EA7A70606",
"s  c #5D81A60C0933",
"d  c #5DE0A8FA08E5",
"f  c #5B63B7620064",
"g  c #6161ACAC0606",
"h  c #5FE4AAFE08EF",
"j  c #6464B2B20606",
"k  c #6363B7B70404",
"l  c #6363BA620164",
"z  c #6565BFBF0000",
"x  c #6868BBBB0707",
"c  c #6262B1B10909",
"v  c #6363B1B10F0F",
"b  c #6565B4B40D0D",
"n  c #6868BCBC0808",
"m  c #6868BCBC0909",
"M  c #6868BDBD0B0B",
"N  c #6A63BE620A64",
"B  c #6868BBBB0E0E",
"V  c #6868BABA0F0F",
"C  c #6268AAF31206",
"Z  c #6565B2B21111",
"A  c #6565B5B51010",
"S  c #6767B7B71515",
"D  c #6963BC621064",
"F  c #6969BCBC1212",
"G  c #6A6AB9B91717",
"H  c #6C63BD621464",
"J  c #6B6BB2B21818",
"K  c #5699805624C7",
"L  c #5B348AD324E2",
"P  c #63B795BF2AA2",
"I  c #677F98222D45",
"U  c #631B87D139BD",
"Y  c #6A6AC6C60000",
"T  c #6D6DC4C40303",
"R  c #6B6BC1C10707",
"E  c #6C6CC1C10606",
"W  c #6F6FC7C70606",
"Q  c #6F6FC7C70707",
"!  c #6B6BC8C80000",
"~  c #6D6DC8C80000",
"^  c #6F73C9B70222",
"/  c #6B6BC3C30909",
"(  c #6E6EC2C20B0B",
")  c #6E6EC6C60808",
"_  c #6969C0C00F0F",
"`  c #7070C9C90404",
"'  c #7077CAA40442",
"]  c #70FFC9FE0700",
"[  c #7171CACA0707",
"{  c #7263CA620764",
"}  c #7272CBCB0707",
"|  c #7270CAB90817",
" . c #7272CBCB0808",
".. c #7373CBCB0808",
"X. c #72FFCAFE0900",
"o. c #7272CBCB0909",
"O. c #7373CBCB0909",
"+. c #7373CACA0B0B",
"@. c #7575CBCB0B0B",
"#. c #7575CBCB0E0E",
"$. c #7676CBCB0F0F",
"%. c #7575CCCC0C0C",
"&. c #7575CCCC0D0D",
"*. c #7777CCCC1111",
"=. c #7C7CCECE1818",
"-. c #7CD194DB5EA1",
";. c #7C7CA6A64646",
":. c #7ED280487D07",
">. c #8383CFCF2525",
",. c #80E1C72D2CE9",
"<. c #8383CFCF2929",
"1. c #8787D0D02C2C",
"2. c #87FFD1FE2E00",
"3. c #8787CCCC3131",
"4. c #8787C8C83F3F",
"5. c #8B8BD0D03535",
"6. c #8C8CD0D03636",
"7. c #8D8DD4D43737",
"8. c #8F8FD3D33E3E",
"9. c #8B9389E24814",
"0. c #933D9EE3510C",
"q. c #8585A9A95757",
"w. c #8F8FB5B55E5E",
"e. c #81D395CE67BC",
"r. c #922BB11769AE",
"t. c #9678B8D5681D",
"y. c #8A8ACBCB4141",
"u. c #9280D67F4081",
"i. c #9797D6D64B4B",
"p. c #9A9AD9D94F4F",
"a. c #9AB1D02D5891",
"s. c #9797D0D05050",
"d. c #9A9AD7D75151",
"f. c #9E9EDBDB5555",
"g. c #808080808080",
"h. c #BFBFE6E69090",
"j. c #C1C1E7E79494",
"k. c #C4C4E8E89797",
"l. c #CACAE9E9A7A7",
"z. c #CECEEAEAADAD",
"x. c #D0D0EDEDADAD",
"c. c #DCDCF1F1C3C3",
"v. c #E5E5F3F3D5D5",
"b. c #EBEBF7F7DEDE",
"n. c #EF62F862E562",
"m. c #F3F3FAFAEBEB",
"M. c #F5F5FAFAEDED",
"N. c #F9F9FCFCF4F4",
"B. c #F9F9FCFCF6F6",
"V. c #FBFBFDFDF8F8",
"C. c None",
/* pixels */
"C.C.C.C.C.C.C.C.C.C.C.C.C.C.C.C.C.C.C.C.C.C.C.C.C.C.C.C.C.C.C.C.",
"C.C.C.C.C.C.C.C.C.C.C.C.C.C.C.g.g.C.C.C.C.C.C.C.C.C.C.C.C.C.C.C.",
"C.C.C.C.C.C.C.C.C.C.C.C.C.C.g.8 8 g.C.C.C.C.C.C.C.C.C.C.C.C.C.C.",
"C.C.C.C.C.C.C.C.C.C.C.C.C.C.g.8 8 g.C.C.C.C.C.C.C.C.C.C.C.C.C.C.",
"C.C.C.C.C.C.C.C.C.C.C.C.C.g.8 8 8 8 g.C.C.C.C.C.C.C.C.C.C.C.C.C.",
"C.C.C.C.C.C.C.C.C.C.C.C.C.g.8 8 w 8 g.C.C.C.C.C.C.C.C.C.C.C.C.C.",
"C.C.C.C.C.C.C.C.C.C.C.C.g.8 8 8 w 8 8 g.C.C.C.C.C.C.C.C.C.C.C.C.",
"C.C.C.C.C.C.C.C.C.C.C.C.g.8 8 8 w 8 8 g.C.C.C.C.C.C.C.C.C.C.C.C.",
"C.C.C.C.C.C.C.C.C.C.C.g.8 8 8 8 w 8 8 8 g.C.C.C.C.C.C.C.C.C.C.C.",
"C.C.C.C.C.C.C.C.C.C.C.g.8 8 8 8 w 8 8 8 g.C.C.C.C.C.C.C.C.C.C.C.",
"C.C.C.C.C.C.C.C.C.C.g.8 8 8 8 8 8 8 8 8 8 g.C.C.C.C.C.C.C.C.C.C.",
"C.C.C.C.C.C.C.C.C.C.g.                    g.C.C.C.C.C.C.C.C.C.C.",
"C.C.C.C.C.C.C.C.C.g.8   8 8 8 8 8 8 8 8   8 g.C.C.C.C.C.C.C.C.C.",
"C.C.C.C.C.C.C.C.C.g.8   8 8 8 w w 8 8 8   8 g.C.C.C.C.C.C.C.C.C.",
"C.C.C.C.C.C.C.C.g.8 8 8   8 8 8 w 8 8   8 8 8 g.C.C.C.C.C.C.C.C.",
"C.C.C.C.C.C.C.C.g.8 w w   8 8 w w 8 8   8 8 w g.C.C.C.C.C.C.C.C.",
"C.C.C.C.C.C.C.g.8 8 8 w 8   8 8 w 8   8 g.w w 8 g.C.C.C.C.C.C.C.",
"C.C.C.C.C.C.C.g.8 8 8 w 8   8 w w 8   8 9 g.e g.8 C.C.C.C.C.C.C.",
"C.C.C.C.C.C.g.8 8 8 w 8 8 8   8 8   8 8 9 r 9.0.t.r.w.C.C.C.C.C.",
"C.C.C.C.C.C.g.8 8 8 w w 8 8   8 8   8 < -.a.1.=.#.=.>.s.q.C.C.C.",
"C.C.C.C.C.g.8 8 8 8 8 8 8 8 8     8 4 -.6.#.W ..] ^ u.f.5.;.C.C.",
"C.C.C.C.C.g.                        O ,.@.] ....^ 1.M.j.! 3.C.C.",
"C.C.C.C.g.8   8 8 8 8 8 8 8   8 8 X I #.] ......^ k.B.Y ] $.J C.",
"C.C.C.C.g.8   8 8 8 w 8 8 8   8 8 X p ........^ 7.m.p.^ O.] j C.",
"C.C.C.g.8 8 8   8 w 8 8 8   8 8 8 > t ..] ] ~ ..x.c.*.} ] } g C.",
"C.C.C.g.8 w w   8 w w 8 8   8 w q 0 # T <.j.i.8.V.d.] ( ] ( a C.",
"C.C.g.8 8 w 8 8   w 8 w     8 8 8 0 P n z z.N.b.l.( R R ( n s C.",
"C.C.g.8 8 8 w 8   8 w 8   8 8 8 8 q - d n f v.n.y.l n R _ d C.C.",
"C.g.8 8 8 8 w 8 8   8   8 8 8 8 q 8 4 U Z S G 4.k B F F c & 5 C.",
"C.g.8 8 8 w w 8 8   8   8 8 8 8 q 8 8 < @ p Z S G S v s & = g.C.",
"g.8 8 8 8 8 8 8 8 8   8 8 8 8 8 8 8 8 8 2 o K L i u $ * ; : : g.",
"g.g.g.g.g.g.g.g.g.g.g.g.g.g.g.g.g.g.g.:.g.e.:.6 1 6 :.g.g.g.g.g."
};
