/* XPM */
static char *xpm__usr_share_pixmaps_tworld[] = {
/* columns rows colors chars-per-pixel */
"32 32 216 2 ",
"   c #00C00154000A",
".  c #171714140000",
"X  c #1C4114CC0000",
"o  c #11B71F98017A",
"O  c #1D1D1A1A1717",
"+  c #222215150000",
"@  c #21CC1A7001AC",
"#  c #2BAC1E9E0000",
"$  c #2C6C199A0A4A",
"%  c #37371A1A1111",
"&  c #3A3A1C9C1212",
"*  c #1C1C33331111",
"=  c #32DD25250000",
"-  c #3B5A2CA40121",
";  c #353529290D0D",
":  c #3484391608C1",
">  c #2DAE25251111",
",  c #3C3C22CD1EC9",
"<  c #3A3A2EAF1D9E",
"1  c #2BAC3BBC1C1C",
"2  c #3BE630DB1C1C",
"3  c #38382E2E2626",
"4  c #3F3F36362424",
"5  c #3B3B30B12929",
"6  c #3F3F38383636",
"7  c #46571C361C1C",
"8  c #49341CB21CB2",
"9  c #42422D2D0000",
"0  c #404026260909",
"q  c #4BAF38110015",
"w  c #48DA35290882",
"e  c #53FE3CE70303",
"r  c #444424241D1D",
"t  c #4B4B20201F1F",
"y  c #484831311414",
"u  c #4A4A39391616",
"i  c #4C4C37371E1E",
"p  c #4A4A3C3C1D1D",
"a  c #55553D3D1818",
"s  c #66663F3F0505",
"d  c #4A4A1F1F2626",
"f  c #45451E1E2A2A",
"g  c #474720A120A1",
"h  c #4AD7237E22F1",
"j  c #4D8927E62632",
"k  c #464626262B2B",
"l  c #4A4A2AAB2AAB",
"z  c #52852370233D",
"x  c #58D926262626",
"c  c #52522E2E2929",
"v  c #5CB22C822B2B",
"b  c #414137372727",
"n  c #4B4B3BBC2323",
"m  c #424235352D2D",
"M  c #44843A3A2BEC",
"N  c #49F43BE62CD7",
"B  c #5C5C3C3C2727",
"V  c #42C32DAE3535",
"C  c #43C333B43333",
"Z  c #4CF73DE83232",
"A  c #4C4C37373939",
"S  c #515138383333",
"D  c #51513A3A3A3A",
"F  c #64642B6B2B6B",
"G  c #6C6C2EAF2EAF",
"H  c #696939392121",
"J  c #6AEA35353535",
"K  c #757533663366",
"L  c #78CE34DF34DF",
"P  c #7C7C3BBC3BBC",
"I  c #1C84463F1C58",
"U  c #1D5D49A91D5D",
"Y  c #23954BA12306",
"T  c #343445452323",
"R  c #22D152A322D1",
"E  c #2950568B261E",
"W  c #26665A5A2666",
"Q  c #28185AD325F5",
"!  c #282855552828",
"~  c #346C5C332664",
"^  c #31315E5E3131",
"/  c #38935B9C3103",
"(  c #2AAB63232AAB",
")  c #2D2D68682D2D",
"_  c #450747CF0764",
"`  c #5D9443D70159",
"'  c #484849491111",
"]  c #666643430F0F",
"[  c #6B1542ED0B61",
"{  c #737345C60303",
"}  c #76F749CA0D8E",
"|  c #78784A4A0808",
" . c #6D6D56560505",
".. c #727253530000",
"X. c #787858580000",
"o. c #757557570D0D",
"O. c #7C7C5B5B0A0A",
"+. c #696942421010",
"@. c #61614A4A1C1C",
"#. c #717147471010",
"$. c #4D6A697C04A9",
"%. c #4FE87D090543",
"&. c #4D96428B2B06",
"*. c #5ADA444425A6",
"=. c #545444EF2E84",
"-. c #5BDC44C52C2C",
";. c #525248482D2D",
":. c #59594B4B2F2F",
">. c #4E4E47473333",
",. c #444444443C3C",
"<. c #48484B4B3C3C",
"1. c #549D431E3358",
"2. c #585841413030",
"3. c #565649CA3232",
"4. c #5B5B49493535",
"5. c #59DA46C73A3A",
"6. c #56565F5F3333",
"7. c #676754542B2B",
"8. c #74745B5B2727",
"9. c #7C7C5E5E2424",
"0. c #7D7D42423C3C",
"q. c #6A6A57573E3E",
"w. c #51C67D713396",
"e. c #56077CB83BE2",
"r. c #595933334242",
"t. c #5C5C3A3A4242",
"y. c #5F5F4F4F4141",
"u. c #757549494646",
"i. c #767649494949",
"p. c #6E6E58584646",
"a. c #6C6C50504A4A",
"s. c #6C6C59594949",
"d. c #55556C6C5555",
"f. c #7E7E68685656",
"g. c #86863B3B3B3B",
"h. c #8A8A3C3C3C3C",
"j. c #848461610B0B",
"k. c #848464641414",
"l. c #898966E71A1A",
"z. c #888841413636",
"x. c #8B8B6E6E2B2B",
"c. c #810149494949",
"v. c #961643C442C3",
"b. c #9B9B44C544C5",
"n. c #A32347474747",
"m. c #A6FC499F499F",
"M. c #8C8C71715959",
"N. c #979776765E5E",
"B. c #9A9A77776666",
"V. c #929279796363",
"C. c #92927F7F7070",
"Z. c #4D0D8A8A0444",
"A. c #52C98BA4056D",
"S. c #525294940707",
"D. c #58589E9E0505",
"F. c #551898AC0C0B",
"G. c #582F98580B7F",
"H. c #51418FF61707",
"J. c #5DDEA7A70687",
"K. c #5F5FABAB0707",
"L. c #5ED1A9A908E9",
"P. c #5B0FB70B0000",
"I. c #6161ACAC0606",
"U. c #63E4B5340505",
"Y. c #6464BD3D0081",
"T. c #6868BBBB0707",
"R. c #63B9B2B20C62",
"E. c #68BEBCBC0B36",
"W. c #6262ACAC1010",
"Q. c #6610B55F1212",
"!. c #6A6ABC3C1353",
"~. c #6B6BB2B21818",
"^. c #6D6DC57C052A",
"/. c #6E6EC9730157",
"(. c #6C6CC3830ACB",
"). c #7146CAB905E9",
"_. c #7396CB8C098D",
"`. c #7777CCCC1111",
"'. c #7C7CCECE1818",
"]. c #7C7CA6A64646",
"[. c #8383CFCF2525",
"{. c #8299CC812B71",
"}. c #8787D0D02C2C",
"|. c #8859D2452E3A",
" X c #8787CCCC3131",
".X c #8787C8C83F3F",
"XX c #8C8CD2273636",
"oX c #8F8FD3D33E3E",
"OX c #85969DD05510",
"+X c #8C07A59754AB",
"@X c #8585A9A95757",
"#X c #8F8FB5B55D5D",
"$X c #ABAB90906C6C",
"%X c #8A8ACBCB4141",
"&X c #9292D6D64040",
"*X c #9797D6D64B4B",
"=X c #9A9AD9D94F4F",
"-X c #9814CE9A55F4",
";X c #9797D0D05050",
":X c #9A9AD7D75151",
">X c #9E9EDBDB5555",
",X c #9898C2C26161",
"<X c #BFBFE6E69090",
"1X c #C1C1E7E79494",
"2X c #C4C4E8E89797",
"3X c #CACAE9E9A7A7",
"4X c #CECEEAEAADAD",
"5X c #D0D0EDEDADAD",
"6X c #DCDCF1F1C3C3",
"7X c #E5E5F3F3D5D5",
"8X c #EBEBF7F7DEDE",
"9X c #EFEFF8F8E5E5",
"0X c #F4F4FAFAECEC",
"qX c #F9F9FCFCF5F5",
"wX c #FBFBFDFDF8F8",
"eX c None",
/* pixels */
"eXeXeXeXeXeXeXeXeXeXeXeXeXeXeXeXeXeXeXeXeXeXeXeXeXeXeXeXeXeXeXeX",
"eXeXeXeXeXeXeXeXeXeXeXeXeXeXeXeXeXeXeXeXeXeXeXeXeXeXeXeXeXeXeXeX",
"eXeXeXeXeXeXeXeXeXeXeXeX} | [ +.] [ { +.eXeXeXeXeXeXeXeXeXeXeXeX",
"eXeXeXeXeXeXeXeXeXeXeX} | *.*.B &.n a [ a eXeXeXeXeXeXeXeXeXeXeX",
"eXeXeXeXeXeXeXeXeXeXeX#.=.>.4.2.&.S M b y eXeXeXeXeXeXeXeXeXeXeX",
"eXeXeXeXeXeXeXeXeXeXeX-.&.3.3.5.=.1.N b < eXeXeXeXeXeXeXeXeXeXeX",
"eXeXeXeXeXeXeXeXeXeX0.=.=.4.>.5.5.&.m 5 3 c eXeXeXeXeXeXeXeXeXeX",
"eXeXeXeXeXeXeXeXm.n.v.B ;.1.1.1.4.n M 5 , z L P eXeXeXeXeXeXeXeX",
"eXeXeXeXeXeXeXm.m.n.z.i N ;.&.:.&.&.b < $ & F L J eXeXeXeXeXeXeX",
"eXeXeXeXeXeXeXb.b.v.H w b p.q.;.n N M , X $ x G v eXeXeXeXeXeXeX",
"eXeXeXeXeXeXc.L K K w 9 f r.a.D Z A V k @ + 8 z 8 eXeXeXeXeXeXeX",
"eXeXeXeXeXeXc.G 8 z - 0 d r.t.S V 6 V f $ X 7 7 7 D eXeXeXeXeXeX",
"eXeXeXeXeXeXi.v 8 r # & z F F z x z 8 7 % X 3 7 7 l eXeXeXeXeXeX",
"eXeXeXeXeXeXP z g C X % z x g 8 z g 7 7 % X V 7 7 l eXeXeXeXeXeX",
"eXeXeXeXeXeXh.K h C X $ 8 7 7 7 8 7 7 7 $ X C g 7 7 eXeXeXeXeXeX",
"eXeXeXeXeXeXg.K c <.* > 7 7 7 7 t 7 7 7 > * ,.g 7 7 eXeXeXeXeXeX",
"eXeXeXeXeXeXK F h eXR ( T t 7 8 8 8 r 1 I I eX7 7 h eXeXeXeXeXeX",
"eXeXeXeXeXeXJ g h eXQ ) Q 1 < b r 2 1 I I I eXh t h eXeXeXeXeXeX",
"eXeXeXeXeXeXu.v eXeXQ ( R I I I I I I I I / #X,X+XOX#XeXeXeXeXeX",
"eXeXeXeXeXeXB.B.eXeX^ ( R I I Y Y U U I e.-X}.'.`.'.[.;X@XeXeXeX",
"eXeXeXeXeXeXV.M.f.eXd.W R I I Y ! ! R w.XX_.).)._./.&X>XXX].eXeX",
"eXeXeXeXeXeXC.s.eXeXeX! U I I I R Q ~ {._.)._._./.|.0X<X/. XeXeX",
"eXeXeXeXeXeXeXy.eXeXeX) R U I I U Q H.`._._._._./.2XqX/._._.~.eX",
"eXeXeXeXeXeXeXeXeXeXeX6.R I I I I ! F.)._.).)./.XX0X=X/._._.U.eX",
"eXeXeXeXeXeXeXeXeXeXeX9. .' : . @ : S._._././._.5X6X`.)._._.I.eX",
"eXeXeXeXeXeXeXeXeXeXeXj.l.o.q . @ - A./.}.1X*XoXwX:X^.).).^.J.eX",
"eXeXeXeXeXeXeXeXeXeXeXk.$Xx.` - = w %.T.Y.5XqX8X3X(.E.^.(.E.D.eX",
"eXeXeXeXeXeXeXeXeXeXeXk.l.O.[ ; u ` _ L.E.P.7X9X%XY.E.E.(.I.eXeX",
"eXeXeXeXeXeXeXeXeXeXeX8.X...e 2 eX` q $.Q.Q.!..XU.E.!.!.R.Z.eXeX",
"eXeXeXeXeXeXeXeXeXeXeXeX7.@.n eXeXp q - Z.W.Q.Q.!.Q.R.J.Z.eXeXeX",
"eXeXeXeXeXeXeXeXeXeXeXeXeXeXeXeXeXeXO eX  o S.G.F.F.Z.eXeXeXeXeX",
"eXeXeXeXeXeXeXeXeXeXeXeXeXeXeXeXeXeXeXeX    eXeX  eXeXeXeXeXeXeX"
};
