/* XPM */
static char *xpm__usr_share_pixmaps_gv_icon[] = {
/* columns rows colors chars-per-pixel */
"32 32 168 2 ",
"   c #000400040004",
".  c #03F403F403F4",
"X  c #09A409A409A4",
"o  c #0C710C710C71",
"O  c #112511251125",
"+  c #153D153D153D",
"@  c #1B041B041B04",
"#  c #1BC71BC71BC7",
"$  c #13F1249C01A5",
"%  c #2445301816A1",
"&  c #20C220C220C2",
"*  c #283B283B283B",
"=  c #2CF22EF62AA5",
"-  c #2BD52BD52BD5",
";  c #2FBB2FBB2FBB",
":  c #3A0D3A0D3A0D",
">  c #479347934793",
",  c #48E248E248E2",
"<  c #56E356E356E3",
"1  c #58CD58CD58CD",
"2  c #5F0F5F0F5F0F",
"3  c #68ED68ED68ED",
"4  c #722E722E722E",
"5  c #4B4B88880303",
"6  c #4D4D8A8A0404",
"7  c #4D4D8A8A0606",
"8  c #4E4E8C8C0404",
"9  c #4F4F8E8E0808",
"0  c #50508E8E0606",
"q  c #525294940707",
"w  c #58589E9E0505",
"e  c #575798980D0D",
"r  c #585898980F0F",
"t  c #51E983F118D4",
"y  c #5D5DA7A70707",
"u  c #5E5EA7A70606",
"i  c #5F5FABAB0707",
"p  c #5DE0A8FA08E5",
"a  c #5B5BB7B70000",
"s  c #6161ACAC0606",
"d  c #6464B2B20606",
"f  c #6363B7B70404",
"g  c #6363BABA0101",
"h  c #6565BFBF0000",
"j  c #6868BBBB0707",
"k  c #6262B1B10909",
"l  c #6363B1B10F0F",
"z  c #6565B4B40D0D",
"x  c #6868BCBC0808",
"c  c #6868BCBC0909",
"v  c #6868BDBD0B0B",
"b  c #6A6ABEBE0A0A",
"n  c #6868BBBB0E0E",
"m  c #6868BABA0F0F",
"M  c #6262ACAC1010",
"N  c #6565B2B21111",
"B  c #6565B5B51010",
"V  c #6767B7B71515",
"C  c #6969BCBC1010",
"Z  c #6969BCBC1212",
"A  c #6A6AB9B91717",
"S  c #6C6CBDBD1414",
"D  c #6B6BB2B21818",
"F  c #642294C529E8",
"G  c #6F54AA492785",
"H  c #7557B2D029C0",
"J  c #6A6AC6C60000",
"K  c #6D6DC4C40303",
"L  c #6B6BC1C10707",
"P  c #6C6CC1C10606",
"I  c #6F6FC7C70606",
"U  c #6F6FC7C70707",
"Y  c #6B6BC8C80000",
"T  c #6D6DC8C80000",
"R  c #6F6FC9C90202",
"E  c #6B6BC3C30909",
"W  c #6E6EC2C20B0B",
"Q  c #6E6EC6C60808",
"!  c #6969C0C00F0F",
"~  c #7070C9C90404",
"^  c #7070CACA0404",
"/  c #7171CACA0707",
"(  c #7272CACA0707",
")  c #7272CBCB0707",
"_  c #7272CACA0808",
"`  c #7272CBCB0808",
"'  c #7373CBCB0808",
"]  c #7272CBCB0909",
"[  c #7373CBCB0909",
"{  c #7373CACA0B0B",
"}  c #7575CBCB0B0B",
"|  c #7575CBCB0E0E",
" . c #7676CBCB0F0F",
".. c #7575CCCC0C0C",
"X. c #7575CCCC0D0D",
"o. c #7777CCCC1111",
"O. c #7C7CCECE1818",
"+. c #7B7BA6A64545",
"@. c #7C7CA6A64646",
"#. c #8383CFCF2525",
"$. c #8383CFCF2929",
"%. c #8484CCCC2E2E",
"&. c #8787D0D02C2C",
"*. c #8888D2D22E2E",
"=. c #8787CCCC3131",
"-. c #8787C8C83F3F",
";. c #8B8BD0D03535",
":. c #8C8CD0D03636",
">. c #8D8DD4D43737",
",. c #8F8FD3D33E3E",
"<. c #84E8BC5F42CD",
"1. c #8484A8A85555",
"2. c #8585A9A95757",
"3. c #8F8FB5B55C5C",
"4. c #8F8FB5B55E5E",
"5. c #8A8ACBCB4141",
"6. c #9292D6D64040",
"7. c #9797D6D64B4B",
"8. c #9A9AD9D94F4F",
"9. c #9797D0D05050",
"0. c #9A9AD7D75151",
"q. c #9B9BD2D25757",
"w. c #9E9EDBDB5555",
"e. c #9898C2C26161",
"r. c #9C9CC7C76262",
"t. c #834F834F834F",
"y. c #86CB86CB86CB",
"u. c #884188418841",
"i. c #90A890A890A8",
"p. c #97BB97BB97BB",
"a. c #98C998C998C9",
"s. c #9F169F169F16",
"d. c #A180A180A180",
"f. c #ADF6ADF6ADF6",
"g. c #B5B0B5B0B5B0",
"h. c #BFBFE6E69090",
"j. c #C1C1E7E79494",
"k. c #C4C4E8E89797",
"l. c #CACAE9E9A7A7",
"z. c #CECEEAEAADAD",
"x. c #D0D0EDEDADAD",
"c. c #C7B2C7B2C7B2",
"v. c #CAD2CAD2CAD2",
"b. c #CCFBCCFBCCFB",
"n. c #D512D512D512",
"m. c #D708D9B0D405",
"M. c #D8CCD8CCD8CC",
"N. c #DFC4DFC4DFC4",
"B. c #DCDCF1F1C3C3",
"V. c #E5E5F3F3D5D5",
"C. c #EBEBF7F7DEDE",
"Z. c #E105E105E105",
"A. c #EC58EFBFE830",
"S. c #E9C6E9C6E9C6",
"D. c #EC5EEE52EA1A",
"F. c #ED3FED3FED3F",
"G. c #EFEFF8F8E5E5",
"H. c #F3F3FAFAEBEB",
"J. c #F5F5FAFAEDED",
"K. c #F119F119F119",
"L. c #F54EF7D7F21B",
"P. c #F849F849F849",
"I. c #F9F9FCFCF4F4",
"U. c #F9F9FCFCF6F6",
"Y. c #FBA4FBA4FBA4",
"T. c #FBFBFDFDF8F8",
"R. c gray100",
"E. c None",
/* pixels */
"E.E.E.E.E.E.E.E.E.E.E.E.E.E.E.E.E.E.E.E.E.E.E.E.E.E.E.E.E.E.E.E.",
"E.E.E.E.E.E.E.E.E.E.E.E.E.E.E.E.E.E.E.E.E.E.E.E.E.E.E.E.E.E.E.E.",
"E.E.E.E.E.E.E.E.E.E.E.E.E.E.E.E.E.E.E.E.E.E.E.E.E.E.E.E.E.E.E.E.",
"E.E.E.E.E.E.E.E.E.E.E.E.E.E.E.E.E.E.E.E.E.E.E.E.E.E.E.E.E.E.E.E.",
"E.E.E.E.E.E.E.E.E.E.E.E.E.E.E.E.E.E.E.E.E.E.E.E.E.E.E.E.E.E.E.E.",
"E.E.E.E.E.E.E.E.E.E.E.E.E.E.E.E.E.E.E.E.E.E.E.E.E.E.E.E.E.E.E.E.",
"E.E.E.E.E.E.E.E.E.E.E.E.E.O y.p.3 + E.E.E.E.E.E.E.E.E.E.E.E.E.E.",
"E.E.E.E.E.E.E.E.E.E.E.E.# d.R.R.Y.c.: E.E.E.E.E.E.E.E.E.E.E.E.E.",
"E.E.E.E.E.E.E.E.E.E.E.E.: R.R.R.R.R.M.> E.E.E.E.E.E.E.E.E.E.E.E.",
"E.E.E.E.E.E.E.E.E.E.E.E.: Y.R.R.R.R.b.- E.E.E.E.E.E.E.E.E.E.E.E.",
"E.E.E.E.E.E.E.E.E.E.E.E.O f.R.R.R.v.- E.E.E.E.E.E.E.E.E.E.E.E.E.",
"E.E.E.E.E.E.o > . E.E.E.  , F.R.R.< E.E.E.E.E.E.E.E.E.E.E.E.E.E.",
"E.E.E.E.E.  + n., E.E.E.E.* Z.R.R.1 E.E.E.O i.s.# E.E.E.E.E.E.E.",
"E.E.E.E.E.  X i.g.2 + # > v.R.R.R.< E.E.o p.K.t.- E.E.E.E.E.E.E.",
"E.E.E.E.E.E.E.X y.c.n.n.N.R.R.R.R.b.1 < a.S.2   E.E.E.E.E.E.E.E.",
"E.E.E.E.E.E.E.E.  * b.R.R.R.R.R.R.R.R.R.F.2   E.E.E.E.E.E.E.E.E.",
"E.E.E.E.E.E.E.E.E.  * v.R.R.R.R.R.R.R.F.1   E.E.E.E.E.E.E.E.E.E.",
"E.E.E.E.E.E.E.E.E.E.  3 P.R.R.R.R.R.R.g.. E.E.E.E.E.E.E.E.E.E.E.",
"E.E.E.E.E.E.E.E.E.E.  o b.R.R.R.R.R.b.- E.E.3.e.r.e.3.E.E.E.E.E.",
"E.E.E.E.E.E.E.E.E.E.E.. f.R.R.R.R.Y.4 E.1.q.%.O.X.O.#.9.2.E.E.E.",
"E.E.E.E.E.E.E.E.E.E.E.  & c.R.R.R.M.@ +.:.X.~ ' ' R 6.w.;.@.E.E.",
"E.E.E.E.E.E.E.E.E.E.E.E.  3 Y.R.R.n.% %.} / ' ' R *.J.h.Y =.E.E.",
"E.E.E.E.E.E.E.E.E.E.E.E.E.. y.R.R.D.F | / ' / ' ~ k.U.J ' X.D E.",
"E.E.E.E.E.E.E.E.E.E.E.E.E.  ; Z.R.L.G ' } / ' R >.H.8.R ` ` d E.",
"E.E.E.E.E.E.E.E.E.E.E.E.E.E.  i.R.A.H ' / / R ' x.B.o.' ' ' i E.",
"E.E.E.E.E.E.E.E.E.E.E.E.E.E.  # u.m.<.K $.j.7.,.T.0.U ~ U Q u E.",
"E.E.E.E.E.E.E.E.E.E.E.E.E.E.E.    = t j h z.I.C.l.W L L E v w E.",
"E.E.E.E.E.E.E.E.E.E.E.E.E.E.E.E.E.  $ p v a V.G.5.g x v v i E.E.",
"E.E.E.E.E.E.E.E.E.E.E.E.E.E.E.E.E.E.E.9 z C S -.f n Z Z k 5 E.E.",
"E.E.E.E.E.E.E.E.E.E.E.E.E.E.E.E.E.E.E.E.5 M N V A V l p 5 E.E.E.",
"E.E.E.E.E.E.E.E.E.E.E.E.E.E.E.E.E.E.E.E.E.E.0 r e q 0 E.E.E.E.E.",
"E.E.E.E.E.E.E.E.E.E.E.E.E.E.E.E.E.E.E.E.E.E.E.E.E.E.E.E.E.E.E.E."
};
