/* XPM */
static char *adanaxisgpl32x32[] = {
/* columns rows colors chars-per-pixel */
"32 32 244 2 ",
"   c #272727273838",
".  c #2B742BE33C85",
"X  c #303031313F3F",
"o  c #342734F84513",
"O  c #3C3C3D3D4545",
"+  c #351836A84910",
"@  c #3725388C4AB8",
"#  c #3AE03C034C17",
"$  c #3CFD3E3E5111",
"%  c #3EBF40C14F4F",
"&  c #3EBF40C15353",
"*  c #42B3440654D2",
"=  c #4646484854FF",
"-  c #4C4C4C4C5656",
";  c #448D46465A35",
":  c #474748DB5BC9",
">  c #4AA04C285BDE",
",  c #4B9F51CC52C4",
"<  c #4DA350505D5D",
"1  c #525254945D9D",
"2  c #5F5F5E5E5E5E",
"3  c #68B17D92552F",
"4  c #4D004DE76248",
"5  c #4E4E50D16161",
"6  c #546E55556518",
"7  c #575759596767",
"8  c #5A5A59F364CB",
"9  c #54CB55B86A7E",
"0  c #570158AE6CC2",
"q  c #5AFE5C4E6C71",
"w  c #5C875D3273F4",
"e  c #585857577979",
"r  c #63635F5F6E6E",
"t  c #5DC960A46B6C",
"y  c #5F5F60607070",
"u  c #606060606666",
"i  c #63FD62FC6E07",
"p  c #67906E696A5D",
"a  c #61ED637A7373",
"s  c #666668687474",
"d  c #6C6C6E6E7575",
"f  c #656565DA7A91",
"g  c #6AAA6B2B7D1D",
"h  c #72726AEA71F2",
"j  c #71716E6E7E7E",
"k  c #6F6F70707D7D",
"l  c #7D7D73737777",
"z  c #727273337C3C",
"x  c #78F978787C7C",
"c  c #85857B7B7777",
"v  c #87877B7B7F7F",
"b  c #4CF78A8A03AE",
"n  c #50508E8E0606",
"m  c #525294940707",
"M  c #58589E9E0505",
"N  c #575798980D0D",
"B  c #585898980F0F",
"V  c #5DDEA7A70687",
"C  c #5F5FABAB0707",
"Z  c #5BADB7AD00CB",
"A  c #6161ACAC0606",
"S  c #611CAC360C72",
"D  c #63E4B5340505",
"F  c #6475BD2100CB",
"G  c #6868BBBB0707",
"H  c #63B9B2B20C62",
"J  c #68BEBCBC0B36",
"K  c #634BABCC1380",
"L  c #6610B55F1212",
"P  c #6A6FBC2C1372",
"I  c #6B6BB2B21818",
"U  c #6B539C473590",
"Y  c #6832A3182460",
"T  c #6B6DA89C2147",
"R  c #7071A7DE3273",
"E  c #6D6DC57C052A",
"W  c #6E68C95F0166",
"Q  c #6C6CC3830ACB",
"!  c #7152CA9E0623",
"~  c #7398CB8B0997",
"^  c #7777CCCC1111",
"/  c #7C7CCECE1818",
"(  c #6712893D495D",
")  c #6776809D51BA",
"_  c #6CD681F15BD4",
"`  c #728D8B4A59D6",
"'  c #7A7D9F325C7E",
"]  c #7FE2B1DF4B34",
"[  c #7DD0970B6247",
"{  c #7B9789847227",
"}  c #8383CFCF2525",
"|  c #8345CC9A2C60",
" . c #8787D0D02C2C",
".. c #889BD29A2EB5",
"X. c #85B0C91B3251",
"o. c #8787C8C83F3F",
"O. c #8C8CD2273636",
"+. c #8F8FD3D33E3E",
"@. c #82A4A2195E14",
"#. c #889FAB345DD2",
"$. c #8C8C81817E7E",
"%. c #8C59AB6768C6",
"&. c #8A8ACBCB4141",
"*. c #928CD68B40A4",
"=. c #9797D6D64B4B",
"-. c #9A9AD9D94F4F",
";. c #9480CBFA5016",
":. c #9A92D00C5901",
">. c #9A9AD7D75151",
",. c #9E9EDBDB5555",
"<. c #650F64BA8282",
"1. c #686867678282",
"2. c #6DB66D488383",
"3. c #6E186D6D8D37",
"4. c #73C9738B83F1",
"5. c #7C3C76768383",
"6. c #78F9797984C4",
"7. c #7528745A8A3D",
"8. c #767678788888",
"9. c #7A9A7A7A8C5C",
"0. c #767675759090",
"q. c #7CB77BA393BB",
"w. c #7E7E7CFD9B9B",
"e. c #7E7E7D7DA0A0",
"r. c #7DFE7D7DA8A8",
"t. c #83837BFC8080",
"y. c #85857EFF8C8C",
"u. c #80807F7F9696",
"i. c #7E7E81818585",
"p. c #7E1D80C18E3F",
"a. c #878781818787",
"s. c #838382D88EE4",
"d. c #88DE852F8A8A",
"f. c #89898C8C8F8F",
"g. c #929287878484",
"h. c #989889898383",
"j. c #949486868B8B",
"k. c #9E9E8B8B8D8D",
"l. c #83D383B994DC",
"z. c #8A0A86069313",
"x. c #8BD78AE895C1",
"c. c #854584A49B7B",
"v. c #8A8A86869BF1",
"b. c #8BBE8B7A9C24",
"n. c #91D18C0B95D5",
"m. c #93938D0D9B1B",
"M. c #99998C8C9B9B",
"N. c #929294949797",
"B. c #9A9A94949494",
"V. c #93FA92F99E37",
"C. c #9C1C90909E9E",
"Z. c #ABAB9C9C9F9F",
"A. c #B2B29B9B9B1B",
"S. c #A52EB5D99EBB",
"D. c #86868585A7A7",
"F. c #89098787A222",
"G. c #8C9B8C34A3D6",
"H. c #85858686ADAD",
"J. c #8D8D8C8CACAC",
"K. c #8FC8919BA24A",
"L. c #8F8F9090ADAD",
"P. c #93E99382A370",
"I. c #9A9A9090A5A5",
"U. c #9B9B99EFA3F9",
"Y. c #949493D3AB8B",
"T. c #9C4696ECAC01",
"R. c #9BB89A7DAB8E",
"E. c #942993FEB39E",
"W. c #98989494B1B1",
"Q. c #9B6C9AC9B46E",
"!. c #95959797B9B9",
"~. c #A1A19D9DA4A4",
"^. c #A6A69999A8A8",
"/. c #ADAD9E9EADAD",
"(. c #A0A09F1FB2B2",
"). c #A0A09E9EBBBB",
"_. c #9F9FA0A0BFBF",
"`. c #A6A6A0A0A2A2",
"'. c #A464A464AB2B",
"]. c #B3B3A323AAAA",
"[. c #A3CEA338B449",
"{. c #A8FEA7A7B409",
"}. c #ABDEABDEB380",
"|. c #A436A3ECBB72",
" X c #AC56A6A6BB65",
".X c #ABD6ABABBCBC",
"XX c #B7B7A4A4B0B0",
"oX c #B131AC2CB534",
"OX c #BD67ABABB50A",
"+X c #B0B0A3A3B9B9",
"@X c #B6B6A9A9BDBD",
"#X c #B3F3B272BCBC",
"$X c #C2C2AEAEB3B3",
"%X c #BF64E664907A",
"&X c #C1C1E7E79494",
"*X c #C4C4E8E89797",
"=X c #CACAE9E9A7A7",
"-X c #CECEEAEAADAD",
";X c #D0D0EDEDADAD",
":X c #A537A512C20A",
">X c #AAAAA7A7C2C2",
",X c #AC01ABE4C56F",
"<X c #AD3FADD2CA5C",
"1X c #B2B2AE2EC3C3",
"2X c #B3B3B2B2C2C2",
"3X c #B8B8B3B3C6C6",
"4X c #B7B7BB51C79A",
"5X c #BAFAB9F9C484",
"6X c #B4E7B4C2CBC9",
"7X c #B963B60BCB20",
"8X c #BD7DBBFBCF4F",
"9X c #B636B636D151",
"0X c #BD12BCD9D2EF",
"qX c #C0C0B6B6C8C8",
"wX c #C343BF3FD252",
"eX c #BFBFC0C0D3D3",
"rX c #CECECBCBCECE",
"tX c #C343C282D595",
"yX c #C9C9C7C7D6D6",
"uX c #CCCCCBCBD554",
"iX c #C35CC3C3DA73",
"pX c #C8C8C7C7DBDB",
"aX c #CD22CC76DF34",
"sX c #D1D1CECED6D6",
"dX c #D1D1D0D0D8D8",
"fX c #DCDCF1F1C3C3",
"gX c #E5E5F3F3D5D5",
"hX c #EBEBF7F7DEDE",
"jX c #CE34CE67E27B",
"kX c #D3E3D3A9E396",
"lX c #DADAD9D9E3E3",
"zX c #D757D757E8E8",
"xX c #DCB7DC92EB79",
"cX c #E1E1DEDEE4E4",
"vX c #E0E0DFDFEEEE",
"bX c #E439E3E3EC96",
"nX c #EF7BF87AE593",
"mX c #F4F4FAFAECEC",
"MX c #EF6FEEEEF373",
"NX c #F272F1F1F4F4",
"BX c #F9F9FCFCF5F5",
"VX c #F6F6F6F6F8F8",
"CX c #FBFBFCA6FB50",
"ZX c None",
/* pixels */
"ZXZXZXZXZXZXZXZXZXZXZXZXZXZXZXZXZXZXZXZXZXZXZXZXZXZXZXZXZXZXZXZX",
"ZXZXZXZXZXZXZXZXZXZXZXZXiX<XE.T.).<X:X1XZXZXZXZXZXZXZXZXZXZXZXZX",
"ZXZXZXZXZXZXZXZXZX9X<X>X XT.v.M.C.T.T.Q.W.@XG.ZXZXZXZXZXZXZXZXZX",
"ZXZXZXZXZXZXZXZX3XwXqXOXOX].u.j M.^.Z.M.v.u.u.0.ZXZXZXZXZXZXZXZX",
"ZXZXZXZXZXZX1X+XXX$XZ.A.A.k.v x 4.n.5.r > 9 4 e 2.u.ZXZXZXZXZXZX",
"ZXZXZXZXZX,X@X/.$X].j.v c h 7 z d.l h > 4 9 4 4 4.q.8.ZXZXZXZXZX",
"ZXZXZXZX7X1X^.M.5.i 8 8 8 5.l.l.n.y.r * ; ; 4 4 7.Y.1.f.ZXZXZXZX",
"ZXZXZXZX+XI.5.4.j 9.z 8.4.l.N.N.z.9 # # > ; 9 f 9 9.1.s ZXZXZXZX",
"ZXZXZX!.w.7.c.P.T.P.{.i f.#Xx.C.s.a 9.j v.m.V.3XG.f 9 9 d ZXZXZX",
"ZXZX!.u.q.q.G..XP.b.R.f.U.uX{.#X6.4.}.v.x.q < q.v.u.f w i ZXZXZX",
"ZXZX:XE.<.w 7.R.5X{.[..X}.`.5X#XP.9.s.a + @ * ; < q c.f 7 z ZXZX",
"ZXZXE.w.2.9 1.y k b.m.U.tX'.#XV.x.l.l.z + * # $ 7 7 2.G.7 x ZXZX",
"ZX0XD.F.9.w 7.g 4.'.x.V.sXcXU.g ; 6 x z z * # # : 7 > G.9.< ZXZX",
"ZX:Xe.c.[.c.2.4 i d.d.n.oX~.i 7 6 - 1 ; q ; ; o & & > g y 6 x.ZX",
"ZXr.3.D.[.g 9 0 9.a.c g.t.2 u 1 # * O . . o ; $ # @ & * ; 9 f.ZX",
"ZXr.3.1.7.c.f 7.[.x.$.h.B.x 1 q % o X . o # ; 4 > $ o 0 ; > 6.ZX",
"ZXr.e w f 0 ; $ o ; ~.Z.`.d.7 w % O .   . . o a f y + & & 5 i.ZX",
"ZXH.<.<.3.7..XP.4.7 9.}.rX}.6.d 1 * # . o o + % t 7 + + : 5 N.ZX",
"ZX_.!..Xf 0 b.1Xc.< > 6.[.lXNXMXMX5X8.= > p [ @.#.%.` , ; < }.ZX",
"ZXZX!.8X3.7.U.v.f + q 6.9.p.dXMXCXCX.Xi 3 :. ./ ~ / } ;._ - ZXZX",
"ZXZX<XkX6.4.6.P.x.* 8 7.3XP.'.VXVXdXl.3 O.~ W ! ~ W *.,.O.` ZXZX",
"ZXZXE.7X_.q.p.b.5X'.q b.dXbXVXbX.XU.{ X.~ ! ~ ~ W  .mX%XW X.ZXZX",
"ZXZXE.:X0X<XG.P.b.uX(.7XyXdXwX[.U.p.U ~ ~ ~ ! ~ W *XBXW ~ ~ I ZX",
"ZXZXZX<X6X3Xc. XY.lX7X3Xb.7X3X|.Y.K.Y ~ ~ ~ ~ W O.mX>.W ~ ~ D ZX",
"ZXZXZXZXE.E.Y.8X[. XtX0X[.wX2XR.[.x.T ~ ~ E W ~ ;XfX^ ~ ~ ~ A ZX",
"ZXZXZXZX<XL.c.Q.!.q.[.0XjXkX|.tXkX4XR W } &X=.+.CX>.! E E E V ZX",
"ZXZXZXZXZX0X,X|.iXwXzXzXaXjXbXvXxXkX] D E -XBXhX=XQ Q E Q J M ZX",
"ZXZXZXZXZXZX7X:X9XjXjXkXpXzXbXxXvXxXS.S J Z gXnX&.F G J Q A ZXZX",
"ZXZXZXZXZXZXZXZX).E.9XiX0XjXkXkXaXeX9X' L J P &.D J P P S b ZXZX",
"ZXZXZXZXZXZXZXZXZXE.<X<X<X6X0X9X<X,X:XG.( K L L P L H V b ZXZXZX",
"ZXZXZXZXZXZXZXZXZXZXZXZX0X6X!.E.E.L.Q..XZXZXn B B m b ZXZXZXZXZX",
"ZXZXZXZXZXZXZXZXZXZXZXZXZXZXZXZXZXZXZXZXZXZXZXZXZXZXZXZXZXZXZXZX"
};
