/* XPM */
static char *alc[] = {
/* columns rows colors chars-per-pixel */
"32 32 151 2 ",
"   c black",
".  c gray20",
"X  c gray40",
"o  c #4E4E8C8C0404",
"O  c #58589E9E0505",
"+  c #5E5EA7A70606",
"@  c #5BCDB7CC00CE",
"#  c #6161ACAC0606",
"$  c #61E4AC300A21",
"%  c #6131A8870BAE",
"&  c #61E4ACFE0CE9",
"*  c #6464B2B20606",
"=  c #6363B7B70404",
"-  c #6399BA99019A",
";  c #6565BFBF0000",
":  c #6868BBBB0707",
">  c #6262B1B10909",
",  c #6363B1B10F0F",
"<  c #6565B4B40D0D",
"1  c #6868BCBC0808",
"2  c #6868BCBC0909",
"3  c #6868BDBD0B0B",
"4  c #6B00BECC0ACE",
"5  c #6868BBBB0E0E",
"6  c #6868BABA0F0F",
"7  c #64E3AD6E1481",
"8  c #6565B2B21111",
"9  c #6565B5B51010",
"0  c #6767B7B71515",
"q  c #69CDBCCC10CD",
"w  c #6969BCBC1212",
"e  c #6A6AB9B91717",
"r  c #6D00BDCC14CD",
"t  c #6B6BB2B21818",
"y  c #64C595E12CF7",
"u  c #649798CB2929",
"i  c #6874923136A3",
"p  c #693C98DB32EA",
"a  c #7CC0BA383128",
"s  c #6A6AC6C60000",
"d  c #6D6DC4C40303",
"f  c #6B6BC1C10707",
"g  c #6C6CC1C10606",
"h  c #6F6FC7C70606",
"j  c #6F6FC7C70707",
"k  c #6B6BC8C80000",
"l  c #6D6DC8C80000",
"z  c #6F6FC9C90202",
"x  c #6B6BC3C30909",
"c  c #6E6EC2C20B0B",
"v  c #6E6EC6C60808",
"b  c #6969C0C00F0F",
"n  c #7070C9C90404",
"m  c #7070CACA0404",
"M  c #7100CACC04CE",
"N  c #7171CACA0707",
"B  c #7272CBCB0707",
"V  c #71CDCACC07CE",
"C  c #7272CACA0808",
"Z  c #7300CACC07CE",
"A  c #7272CBCB0808",
"S  c #7373CBCB0808",
"D  c #7300CAFF0901",
"F  c #7272CBCB0909",
"G  c #7373CBCB0909",
"H  c #73CDCBCC09CE",
"J  c #7373CACA0B0B",
"K  c #7575CBCB0B0B",
"L  c #7575CBCB0E0E",
"P  c #7676CBCB0F0F",
"I  c #7575CCCC0C0C",
"U  c #7575CCCC0D0D",
"Y  c #7777CCCC1111",
"T  c #7C7CCECE1818",
"R  c #7C7CA6A64646",
"E  c #8383CFCF2525",
"W  c #8383CFCF2929",
"Q  c #8787D0D02C2C",
"!  c #8899D2992E9A",
"~  c #8787CCCC3131",
"^  c #87E8CCCC3289",
"/  c #8787C8C83F3F",
"(  c #8B8BD0D03535",
")  c #8C8CD0D03636",
"_  c #8D8DD4D43737",
"`  c #8F8FD3D33E3E",
"'  c #84E8BC5F42CD",
"]  c #8585A9A95757",
"[  c #9848A6575844",
"{  c #993EA5FB5A0E",
"}  c #9A63A71F5BC5",
"|  c #9973A8AC5A98",
" . c #8A50BC58513B",
".. c #8F8FB5B55E5E",
"X. c #932EAB917274",
"o. c #98DDB7C8705F",
"O. c #8AD6C5CB4307",
"+. c #8A8ACBCB4141",
"@. c #9292D6D64040",
"#. c #9797D6D64B4B",
"$. c #9A9AD9D94F4F",
"%. c #993EC9E15F04",
"&. c #9797D0D05050",
"*. c #9A9AD7D75151",
"=. c #9E9EDBDB5555",
"-. c #9D26D2A25B06",
";. c #9898C2C26161",
":. c #9C9CC7C76262",
">. c #FFFF66669999",
",. c #91D797038A5E",
"<. c #9118924C8FF6",
"1. c #98CC996F97D5",
"2. c gray60",
"3. c #9E4FAE218C3B",
"4. c #9F84B78E8154",
"5. c #A4D4B8D08ABD",
"6. c #A1FCB0289127",
"7. c #A247B028920A",
"8. c #FFFF99999999",
"9. c #CE48B65D9CE7",
"0. c #BFBFE6E69090",
"q. c #C1C1E7E79494",
"w. c #C4C4E8E89797",
"e. c #C09BD145AE4E",
"r. c #EFD7C261BE57",
"t. c #CACAE9E9A7A7",
"y. c #CECEEAEAADAD",
"u. c #D0D0EDEDADAD",
"i. c #C65EC6EFC5B2",
"p. c #C6E8C6E8C6E8",
"a. c gray80",
"s. c #F7F7C65FC65F",
"d. c #FEFECBFECC05",
"f. c #FFFFCCCCCCCC",
"g. c #DCDCF1F1C3C3",
"h. c #E5E5F3F3D5D5",
"j. c #EBEBF7F7DEDE",
"k. c #EC58EFBFE830",
"l. c #EFFFF8CCE5CC",
"z. c #EEF1F11CECEC",
"x. c #F3F3FAFAEBEB",
"c. c #F5F5FAFAEDED",
"v. c #F42FF6D8F12C",
"b. c #F54EF7D7F21B",
"n. c #FA74FC78F827",
"m. c #F9F9FCFCF4F4",
"M. c #F9F9FCFCF6F6",
"N. c #FACDFCC1F888",
"B. c #FBFBFDFDF8F8",
"V. c gray100",
"C. c None",
/* pixels */
"C.C.C.C.C.C.C.C.C.C.C.C.C.C.C.C.C.C.C.C.C.C.C.C.C.C.C.C.C.C.C.C.",
"C.C.C.C.C.C.C.C.C.C.C.C.C.C.C.C.C.C.C.C.C.C.C.C.C.C.C.C.C.C.C.C.",
"C.C.C.C.C.C.C.C.C.C.C.C.C.C.C.C.C.C.2.2.2.2.2.2.C.C.C.C.C.C.C.C.",
"C.C.C.C.C.C.C.C.C.C.C.C.C.C.C.2.2.2.X X X X X X X C.C.C.C.C.C.C.",
"C.C.C.C.C.C.C.C.C.C.C.C.C.2.X X X X . . . . . . C.C.C.C.C.C.C.C.",
"C.C.C.C.C.C.C.C.C.C.C.C.X X . . . . 2.2.2.2.2.2.2.C.C.C.C.C.C.C.",
"C.C.C.C.C.C.C.2.2.2.2.2.. . 2.2.2.2.a.a.a.a.a.a.a.2.2.C.C.C.C.C.",
"C.C.C.C.2.2.2.2.a.a.a.a.2.2.a.a.a.a.V.V.V.V.V.V.V.V.a.2.C.C.C.C.",
"C.C.C.2.2.a.a.a.a.V.f.a.a.a.V.V.V.V.V.V.V.V.V.a.a.a.2.C.C.C.C.C.",
"C.C.2.2.a.f.a.    a.f.2.2.2.2.2.2.a.a.a.a.a.a.2.2.2.C.C.C.C.C.C.",
"C.>.8.a.V.a.X     . a.2.2.C.C.C.C.2.2.2.2.2.2.C.C.C.C.C.C.C.C.C.",
"C.>.8.2.2.2.a.f.V.V.f.a.2.2.C.C.C.C.C.C.C.C.C.C.C.C.C.C.C.C.C.C.",
"C.>.2.f.f.f.2.a.f.V.f.a.2.2.C.C.C.C.C.C.C.C.C.C.C.C.C.C.C.C.C.C.",
"C.2.a.V.V.a.2.a.f.f.a.2.a.2.2.C.C.C.C.C.C.C.C.C.C.C.C.C.C.C.C.C.",
"C.C.2.a.a.2.a.f.f.a.2.2.a.a.2.2.C.C.C.C.C.C.C.C.C.C.C.C.C.C.C.C.",
"C.C.C.2.2.a.a.a.a.a.2.a.f.f.a.2.2.2.C.C.C.C.C.C.C.C.C.C.C.C.C.C.",
"C.C.C.C.C.2.2.2.2.2.a.f.V.V.f.a.2.2.2.2.2.C.C.C.C.C.C.C.C.C.C.C.",
"C.C.C.C.C.C.2.2.a.a.f.V.V.V.V.f.a.a.2.2.2.2.2.C.C.C.C.C.C.C.C.C.",
"C.C.C.C.C.2.2.a.f.f.V.V.V.V.V.V.f.f.a.a.p.,.X.o.:.;...C.C.C.C.C.",
"C.C.C.C.2.2.a.f.V.V.V.V.V.V.V.f.f.2.2.<.5.-.Q T U T E &.] C.C.C.",
"C.C.C.C.2.2.a.f.V.V.V.V.V.V.f.2.2.a.p.4.) U j N B z @.=.( R C.C.",
"C.C.C.C.2.2.a.f.V.V.V.V.V.f.2.a.a.f.9.^ K S S S z ! c.0.k ^ C.C.",
"C.C.C.C.2.2.a.f.V.V.V.V.f.2.a.f.f.N.%.L S S S S j w.M.s S L t C.",
"C.C.C.C.C.2.2.a.f.V.V.V.f.2.a.f.V.b.O.S S S S z _ x.$.z S B * C.",
"C.C.C.C.C.. 2.2.a.f.V.V.f.2.a.f.V.k.a S S j z S u.g.Y B B S # C.",
"C.C.C.C.C.. 2.2.a.f.V.V.f.2.a.f.V.v.' z W q.#.` M.*.j j j v + C.",
"C.C.C.C.C.. . 2.a.f.f.f.f.a.2.a.d.n. .1 ; y.M.j.t.c f g x 4 O C.",
"C.C.C.C.C.. . 2.a.f.2.2.2.a.2.a.a.d.e.% 3 @ h.l.+.- 1 4 3 $ 3.C.",
"C.C.C.C.. . 2.2.a.2.2.a.2.2.2.2.2.a.p.[ < 5 r +.= 5 w w > [ p.C.",
"C.C.C.. . 2.a.V.a.2.a.V.V.V.V.V.V.V.V.z.} 7 8 9 e 0 , % { r.a.C.",
"C.C.C.. . 2.a.V.2.2.a.2.f.f.f.f.f.f.f.f.s.6.i p u y o 6.p.a.C.C.",
"C.C.C.C.C.C.C.C.C.C.C.C.C.C.C.C.C.C.C.C.C.C.C.C.C.C.C.C.C.C.C.C."
};
