/* XPM */
static char *amsn[] = {
/* columns rows colors chars-per-pixel */
"32 32 242 2 ",
"   c gray22",
".  c #4D4D39BA1494",
"X  c #414134342A2A",
"o  c #54543C3C2828",
"O  c #44443C3C3434",
"+  c #30314C6E10A8",
"@  c #353551511616",
"#  c #555541411818",
"$  c #5B5B45451A1A",
"%  c #6F6F52521C1C",
"&  c #70F153D41E9E",
"*  c #49EE7D9F0D6D",
"=  c #47656E681AB0",
"-  c #467372E0150B",
";  c #464642423D3D",
":  c #4C4C42423C3C",
">  c #6E6E51512626",
",  c #6D6D59592C2C",
"<  c #7B7B5E5E2626",
"1  c #707059592A2A",
"2  c #67674E4E3434",
"3  c #676756563535",
"4  c #6B6B5A5A3131",
"5  c #54547B25297F",
"6  c #7F7F63632A2A",
"7  c #777764643D3D",
"8  c #7A7A68683A3A",
"9  c #449A449A449A",
"0  c #4A8A49CA48C9",
"q  c #525251FC51FC",
"w  c #5BCD5BB15BB1",
"e  c #63635B5B5353",
"r  c #676765655050",
"t  c #7A7A6C6C5050",
"y  c #41415B5B6D6D",
"u  c #53536D6D7E7E",
"i  c #62B862B862B8",
"p  c #6C166C166BC1",
"a  c #828251512E2E",
"s  c #848468682E2E",
"d  c #86866B6B3030",
"f  c #83D96C6C3B91",
"g  c #8E8E70703E3E",
"h  c #94EA7A7A3D93",
"j  c #858575754747",
"k  c #888875754141",
"l  c #8C0C75754ACA",
"z  c #858574F55353",
"x  c #8B8B78785555",
"c  c #92927D2754FF",
"v  c #A1A179794343",
"b  c #A9A974744949",
"n  c #AE1F7FA253BB",
"m  c #A6A67E7E5858",
"M  c #4CF78A8A045A",
"N  c #4F4F8E8E0808",
"B  c #50508E8E0606",
"V  c #525294940707",
"C  c #575798980D0D",
"Z  c #59DE9AAB0E53",
"A  c #565F8EA91539",
"S  c #585895381125",
"D  c #5D5DA7A70707",
"F  c #5D23A2280A8A",
"G  c #5F94AB4C08F0",
"H  c #5B81B7AB0053",
"J  c #6363B7B70404",
"K  c #6476BD3900AB",
"L  c #6868BBBB0707",
"P  c #63B9B2B20C62",
"I  c #68C0BCB80B41",
"U  c #6262ACAC1010",
"Y  c #6357A0AB1DB1",
"T  c #69BFABBA1A8A",
"R  c #6610B55F1212",
"E  c #6A67BC251365",
"W  c #7076B4591ED0",
"Q  c #59D382D52CE9",
"!  c #5E5E84DA31DC",
"~  c #61C989B934B3",
"^  c #64E58C0C39BA",
"/  c #696992923C3C",
"(  c #746AB00D2E11",
")  c #6D6DC57C052A",
"_  c #6E74C9700169",
"`  c #6C6CC3830ACB",
"'  c #7134CAC405AE",
"]  c #7384CB820972",
"[  c #7777CCCC1111",
"{  c #7C7CCECE1818",
"}  c #79429F884545",
"|  c #7302994947EF",
" . c #7C7CA6A64646",
".. c #7D05A25D4D4D",
"X. c #7C25A2CE5109",
"o. c #8383CFCF2525",
"O. c #83F6CDC82C39",
"+. c #8787D0D02C2C",
"@. c #887DD2A22E53",
"#. c #855AC9A13064",
"$. c #8787C8C83F3F",
"%. c #8C8CD2273636",
"&. c #8F8FD3D33E3E",
"*. c #9E9E85854B4B",
"=. c #9B9B84845151",
"-. c #964081D75A5A",
";. c #989884035C5C",
":. c #A4238A8A4D4D",
">. c #A69A8BBA5247",
",. c #A8A88F8F5151",
"<. c #B3B38D8D5353",
"1. c #BABA8F8F5959",
"2. c #A8A890905B5B",
"3. c #83EDA9C05741",
"4. c #8F8FB5B55E5E",
"5. c #9955BAAD5D0F",
"6. c #A0A08C8C6262",
"7. c #B4B48A8A6363",
"8. c #ACAC98986C6C",
"9. c #BFBF98986464",
"0. c #B0B09C9C6F6F",
"q. c #ACAC99997070",
"w. c #A8A892927A7A",
"e. c #BABA97977373",
"r. c #845DA52C6014",
"t. c #87B8AAFD6078",
"y. c #BABAA7A77B7B",
"u. c #B5E2B54C71C2",
"i. c #B36ABB3370C3",
"p. c #CACA8B8B5D5D",
"a. c #CBCB97976A6A",
"s. c #D1D197976A6A",
"d. c #D8D89F9F6F6F",
"f. c #C9C99B9B7171",
"g. c #CACAA0A06F6F",
"h. c #CECEA6A67575",
"j. c #CA71AC827D78",
"k. c #D453A8A875F6",
"l. c #D3D3A6A67BFC",
"z. c #D9D9A4A47979",
"x. c #DDDDACAC7C7C",
"c. c #8A8ACBCB4141",
"v. c #9264D68B4039",
"b. c #9797D6D64B4B",
"n. c #9A9AD9D94F4F",
"m. c #9797D0D05050",
"M. c #9A9AD7D75151",
"N. c #9E9EDBDB5555",
"B. c #9E89D2915953",
"V. c #B24BC4E66F91",
"C. c #4D4D6C6C8282",
"Z. c #59DA73738484",
"A. c #5D5D79798D8D",
"S. c #565678789191",
"D. c #63638888A1A1",
"F. c #64648C8CA8A8",
"G. c #6C6C9797B6B6",
"H. c #7C7C9C9CB1B1",
"J. c #72B29E1EBC7C",
"K. c #7A7A9F9FB8B8",
"L. c #76F7A222C0C0",
"P. c #7BFCA565C2C2",
"I. c #9D9D94948989",
"U. c #8080A1A1B7B7",
"Y. c #8303A626BEBE",
"T. c #8E8EADADBEBE",
"R. c #9B9BA9A9B3B3",
"E. c #CECEABAB8403",
"W. c #CECEB2B29393",
"Q. c #D5D5BCBC9F9F",
"!. c #D8D8BABA9898",
"~. c #E2CFB4D585FB",
"^. c #E8E8B7B78787",
"/. c #E5E5B6368B8B",
"(. c #E8E8B7B78A8A",
"). c #E448B94F8AB8",
"_. c #EAB7BAFA8C4C",
"`. c #ED6DBF3F91D1",
"'. c #E7E7BEBE9B9B",
"]. c #BF73E696904B",
"[. c #EDCCC15193DB",
"{. c #EE98C3C398EE",
"}. c #F2F2C4EF94EA",
"|. c #F8F8CACA9696",
" X c #F19BC6F19B45",
".X c #F3F3C9C99C77",
"XX c #F9F9CE4E9BDB",
"oX c #C1C1E7E79494",
"OX c #C4C4E8E89797",
"+X c #DADAC3C3AAAA",
"@X c #E666CACAA929",
"#X c #F3F3CD77A516",
"$X c #F8F8CFCFA1A1",
"%X c #F449CF24A953",
"&X c #FABAD1D1A423",
"*X c #F5F5D299ACC9",
"=X c #E0E0C9C9B2B2",
"-X c #EAEACFCFB9B9",
";X c #EDEDD2D2B2B2",
":X c #F736D716B3F3",
">X c #F777D8D8B737",
",X c #F8F8D8D8B6B6",
"<X c #CACAE9E9A7A7",
"1X c #CECEEAEAADAD",
"2X c #D0D0EDEDADAD",
"3X c #8484A7A7C1C1",
"4X c #8505AB2BC6C6",
"5X c #8787ADADC8C8",
"6X c #8B35AFAFC9C9",
"7X c #8F0FB333CBCB",
"8X c #9422B5EECDEA",
"9X c #9B9BB6B6C949",
"0X c #9CF2BC11D227",
"qX c #A2A2BABACC4C",
"wX c #A1E1BF7FD433",
"eX c #AB2BC0C0CECE",
"rX c #A5A5C201D656",
"tX c #A8A8C443D7D7",
"yX c #AC45C62CD972",
"uX c #AEAEC8C8DADA",
"iX c #B535C747D353",
"pX c #B3F9CB9CDC67",
"aX c #B9B9CE4EDCDC",
"sX c #BE3ED353E1E1",
"dX c #D8D8DADADDDD",
"fX c #ECECD8D8C6C6",
"gX c #FA7ADFDFC3C3",
"hX c #DCDCF1F1C3C3",
"jX c #FBFBE4E4CACA",
"kX c #E5E5F3F3D5D5",
"lX c #EBEBF7F7DEDE",
"zX c #C217D5D5E3E3",
"xX c #C6C6D8D8E5E5",
"cX c #CBCBDBDBE7E7",
"vX c #D4D4DFDFE7E7",
"bX c #EF87F8B5E556",
"nX c #F4F4FAFAECEC",
"mX c #EEEEEFEFF0F0",
"MX c #F52DF52DF511",
"NX c #F9F9FCFCF5F5",
"BX c #FD52FE53FC7B",
"VX c None",
/* pixels */
"VXVXVXVXVXVXVXVXVXVXVXVXVXVXVXVXVXVXVXVXVXVXVXVXVXVXVXVXVXVXVXVX",
"VXVXVXVXVXVXVXVXVXVXVXVXVXVXVXVXVXVXVXVXVXVXVXVXVXVXVXVXVXVXVXVX",
"VXVXVXVXVXVXVXVXVXVXVXVXVXVXVXVXVXVXVXVXVXVXVXVXVXVXVXVXVXVXVXVX",
"VXVXVXVXVXVXVXz ;.;.c x z t VXVXVXVXVXVXVXVXVXVXVXVXVXVXVXVXVXVX",
"VXVXVXVXVXVXq.0.6.;.-.c c l l 3 VXVXVXVXVXVXVXVXVXVXVXVXVXVXVXVX",
"VXVXVXVXVXj y.8.2.c k , & % % . VXVXVXVXVXVXVXVXVXVXVXVXVXVXVXVX",
"VXVXVXVXVX:.2.=.f % g E.;X@X> VXVXVXVXVXVXVXVXVXVXVXVXVXVXVXVXVX",
"VXVXVXVXVX,.h d h.).*X:X*XgXe.VXVXVXVXVX0 q w q   VXVXVXVXVXVXVX",
"VXVXVXVX8 >.g h }..X#Xz.z.'.l.VXVXVXw p p i i i i 0 VXVXVXVXVXVX",
"VXVXVXVXk :.1.g.[.}.#X*X>X>X{.VXVX9 w e w w i i w q VXVXVXVXVXVX",
"VXVXVXVXf *.v ^.[.[..X#X*X%Xz.VXVX2 @X=X+XQ.W.w.0 9 ; VXVXVXVXVX",
"VXVXVXVX4 v s :.[._.[..X$X%X~.VXVX7.gXjXgX,X*X.Xe 9 : VXVXVXVXVX",
"VXVXVXVXVXh 6 > ~._._.[..X{.k.# VXa.(.p.s.%X%X#Xz 0 O VXVXVXVXVX",
"VXVXVXVXVX1 < % k._._.(._.}.<.$ VX{.:XgX>X*X#X`.E.f.X VXVXVXVXVX",
"VXVXVXVXVXVXr 7 9.|._.(._.x.h . VXd.%X:X*X#X X_._.7.VXVXVXVXVXVX",
"VXVXVXVXy J.L.K.!.XXXX|.I.O , VXVX~.%X%X#X X`.'.~.a VXVXVXVXVXVX",
"VXVXVXS.P.4X6X7XR. X&X&XT.6XZ.VXVXl..X X X_._.^.b VXVXVXVXVXVXVX",
"VXVXF.4X7X8X0XrXwXdX-XfX9XrX8XVXVXm {.`._.(.(.[.n VXVXVXVXVXVXVX",
"VXC.P.0X0XrXyXuXpXaXBXMXeXyXrXA.VXVX^._.~.j.i.V.5...4.VXVXVXVXVX",
"VXG.8XwXtXuXaXsXzXaXBXMXiXpXuXU.VXVXo >.u.B.+.{ ] { o.m.3.VXVXVX",
"VXJ.0XwXyXpXaXsXxXcXvXMXiXaXpX8XVXVXQ  .%.] ' ' ' _ v.N.%. .VXVX",
"VXL.8X0XwXtXpXaXsXzXaXMXqXuXrX3XVX/ | #.] ] ] ] _ @.nX]._ #.VXVX",
"C.L.6X8X0XwXtXuXuXaXqXmX9XqXU.VX@ X.( ] ] ] ] ' ' OXNX) ' [ A VX",
"VXJ.P.6X7X8X0X0XwXwX0XqXU.u VXVX5 t.W ] ] ] ] _ %.nXn._ ] ' F VX",
"VXVXS.D.G.K.Y.Y.H.D.Z.VXVXVXVXVX^ r.T ' ] ' _ ] 2XhX[ ] ] ] F VX",
"VXVXVXVXVXVXVXVXVXVXVXVXVXVXVXVX! 3.T _ o.oXb.&.BXn.' ) ) ` Z VX",
"VXVXVXVXVXVXVXVXVXVXVXVXVXVXVXVXVX~ Y L K 1XNXlX<X` ` ) ` L S + ",
"VXVXVXVXVXVXVXVXVXVXVXVXVXVXVXVXVXVX= G E H kXbXc.K L L ` G - VX",
"VXVXVXVXVXVXVXVXVXVXVXVXVXVXVXVXVXVXVXN R I E $.K E E E P * VXVX",
"VXVXVXVXVXVXVXVXVXVXVXVXVXVXVXVXVXVXVXVXM U R R E R P D M VXVXVX",
"VXVXVXVXVXVXVXVXVXVXVXVXVXVXVXVXVXVXVXVXVXVXB S C V M VXVXVXVXVX",
"VXVXVXVXVXVXVXVXVXVXVXVXVXVXVXVXVXVXVXVXVXVXVXVXVXVXVXVXVXVXVXVX"
};
