/* XPM */
static char *aqemu_32x32[] = {
/* columns rows colors chars-per-pixel */
"32 32 213 2 ",
"   c #06F91483283A",
".  c #081416F42D39",
"X  c #09451A623415",
"o  c #0A501DD73AA4",
"O  c #32DF61E128C3",
"+  c #0C15224F436C",
"@  c #0D8A260E4AAA",
"#  c #0E7728204E82",
"$  c #0FDA28D64A2C",
"%  c #0F2629D851CA",
"&  c #10082C48568D",
"*  c #10D12E7C5AD4",
"=  c #1172302F5E48",
"-  c #12AE32D66327",
";  c #147D38316DCA",
":  c #15A73B2F73BC",
">  c #17233EA579F2",
",  c #3D5E7BC1543C",
"<  c #175E40657DE5",
"1  c #19EA41FE7C82",
"2  c #36A55C0E7F42",
"3  c #49E46A06411E",
"4  c #5374782963DA",
"5  c #4CF78A8A03AE",
"6  c #50508E8E0606",
"7  c #525294940707",
"8  c #58589E9E0505",
"9  c #575798980D0D",
"0  c #585898980F0F",
"q  c #5DDEA7A70687",
"w  c #5F5FABAB0707",
"e  c #5E85AAA80C20",
"r  c #5B20B75800AE",
"t  c #6161ACAC0606",
"y  c #63E4B5340505",
"u  c #6464BD3D0081",
"i  c #6868BBBB0707",
"p  c #63B9B2B20C62",
"a  c #68BEBCBC0B36",
"s  c #603BA91710A2",
"d  c #6610B55F1212",
"f  c #6A53BC171363",
"g  c #6B6BB2B21818",
"h  c #5B2D9E6433F6",
"j  c #68F0AE872C3B",
"k  c #699AAFAA3791",
"l  c #6D6DC57C052A",
"z  c #6E5EC9590166",
"x  c #6C6CC3830ACB",
"c  c #710BCAA705B1",
"v  c #7375CB7B0977",
"b  c #7777CCCC1111",
"n  c #7C7CCECE1818",
"m  c #4F9694054472",
"M  c #6548A4354DFD",
"N  c #65CA8F9471E5",
"B  c #8383CFCF2525",
"V  c #8383CFCF2929",
"C  c #8787D0D02C2C",
"Z  c #881ED2552EAA",
"A  c #83EEC7863083",
"S  c #837BCAF03218",
"D  c #8787C8C83F3F",
"F  c #8C8CD2273636",
"G  c #8F8FD3D33E3E",
"H  c #80BEAC6B74C2",
"J  c #894AB5CF7D0A",
"K  c #8A8ACBCB4141",
"L  c #921CD64E409B",
"P  c #9797D6D64B4B",
"I  c #9A9AD9D94F4F",
"U  c #93A5CC7A521C",
"Y  c #9912D0215A8A",
"T  c #9A9AD7D75151",
"R  c #9E9EDBDB5555",
"E  c #97A1C3A37B41",
"W  c #198844B58559",
"Q  c #19D3469889A2",
"!  c #1B47494A8E25",
"~  c #1BF44C289462",
"^  c #1CD04F169B3C",
"/  c #1D5D50B59E3A",
"(  c #24D853A29589",
")  c #2A1B5690917B",
"_  c #24CA560A9D16",
"`  c #2C075C7A9EE5",
"'  c #3644729690ED",
"]  c #1E785378A318",
"[  c #1F535675A98D",
"{  c #1FDA5736AA8B",
"}  c #20EA5932ADBB",
"|  c #2B0B5F79AAE4",
" . c #22B15CC3B3DD",
".. c #23445F97BA61",
"X. c #2A936014AC9E",
"o. c #3F276EFBAA0E",
"O. c #2A356203B499",
"+. c #248D61C0BDA3",
"@. c #29F7648EBB9A",
"#. c #329F6BA0BBDF",
"$. c #3EB9726BB3D4",
"%. c #3C7172CDBCEA",
"&. c #423B71DAAA88",
"*. c #3FC26F82B253",
"=. c #437E75C9B45F",
"-. c #4601795CB4FF",
";. c #4C997D2FB471",
":. c #4AC77D03BD53",
">. c #50C17EDDB666",
",. c #24E264A8C4C3",
"<. c #27BF6529C053",
"1. c #2B1B6915C46E",
"2. c #25E06700C93B",
"3. c #26E66914CCBC",
"4. c #29BB6B68CD47",
"5. c #31886DD6C63D",
"6. c #31346FC3CD9C",
"7. c #3D477423C499",
"8. c #34F37150CB12",
"9. c #3BB97522CB41",
"0. c #26FA6AA6D0A8",
"q. c #2A446DCFD291",
"w. c #2E8971DCD63E",
"e. c #32E673A0D471",
"r. c #393D773AD400",
"t. c #3AF678B2D51A",
"y. c #3C077B2DD9D8",
"u. c #412576D5C3A2",
"i. c #43F978F9C55F",
"p. c #4C627E22C29C",
"a. c #40207758C878",
"s. c #434B7B78CE4F",
"d. c #48897D40CB34",
"f. c #42807CC6D496",
"g. c #40FE7E59DAAA",
"h. c #6DA39BC7828F",
"j. c #75E59F9189A5",
"k. c #7774A32B810F",
"l. c #5EF98B89A38C",
"z. c #4CF781FFBF58",
"x. c #53218093B711",
"c. c #5A0B85AEB7ED",
"v. c #54A184ACBD9C",
"b. c #62E58BEEB6C1",
"n. c #61BB8F9ABEF7",
"m. c #65D393B8BE7D",
"M. c #68E0925BBA5B",
"N. c #4E37809BC3B0",
"B. c #545F84B0C2F5",
"V. c #558E8A1AC163",
"C. c #5C8A8BB7C47B",
"Z. c #53B68489CD71",
"A. c #58E887CECCB4",
"S. c #5C688965CA62",
"D. c #5F359231C91C",
"F. c #488F8198D79D",
"G. c #459F81B6DC5B",
"H. c #4B5B84D6DB81",
"J. c #4F55882FDD34",
"K. c #550488E4D69A",
"L. c #50D98935DDBA",
"P. c #5B208DE5DA95",
"I. c #5D1E9126DF2C",
"U. c #63688F74C600",
"Y. c #60A28B86C8B6",
"T. c #620B9333C6D3",
"R. c #6A8D952FC4D3",
"E. c #63849374CB8A",
"W. c #68BD96ADCA25",
"Q. c #671D9B04CCC5",
"!. c #6C419BE8CC9C",
"~. c #708D9A4BC684",
"^. c #72649ECBCC31",
"/. c #63DB92B5D958",
"(. c #74C0A200CE8B",
"). c #78A2A4C0CF32",
"_. c #6EFDA37FD31A",
"`. c #7354A422D256",
"'. c #797CA66DD19E",
"]. c #74A2A880D6E2",
"[. c #751FAC2CDB02",
"{. c #7C42AE56DA0B",
"}. c #7CDAB166DDF8",
"|. c #641F9615E15C",
" X c #68219934E344",
".X c #BF18E6439085",
"XX c #C1C1E7E79494",
"oX c #C4C4E8E89797",
"OX c #CACAE9E9A7A7",
"+X c #CECEEAEAADAD",
"@X c #D0D0EDEDADAD",
"#X c #8889B41FCE49",
"$X c #816FAD48D433",
"%X c #8245B00ED9A4",
"&X c #8548B07AD7F7",
"*X c #8432B37BDC58",
"=X c #899FB6DCDE15",
"-X c #8C4DB925DFA3",
";X c #8438B778E1D2",
":X c #8628B930E367",
">X c #8D2DBC3FE376",
",X c #91D1BE2DE368",
"<X c #9346C10AE726",
"1X c #982DC43DE7BA",
"2X c #9692C3B5E927",
"3X c #DCDCF1F1C3C3",
"4X c #E5E5F3F3D5D5",
"5X c #EBEBF7F7DEDE",
"6X c #EF13F836E56C",
"7X c #F4F4FAFAECEC",
"8X c #F9F9FCFCF5F5",
"9X c #FBFBFDFDF8F8",
"0X c None",
/* pixels */
"0X0X0X0X0X0X0X0X0X0X0X0X0X0Xo + + 0X0X0X0X0X0X0X0X0X0X0X0X0X0X0X",
"0X0X0X0X0X0X0X0X0X0X0X@ - 1 Q ~ W 1 - # o 0X0X0X0X0X0X0X0X0X0X0X",
"0X0X0X0X0X0X0X0Xo # > X.a.f.G.g.H.f.a.O.1 # o 0X0X0X0X0X0X0X0X0X",
"0X0X0X0X0X0X0X+ > +.y.g.f.f.d.d.f.f.f.g.r.@.> + 0X0X0X0X0X0X0X0X",
"0X0X0X0X0XX * ] q.e.8.i.:.E.W.^.W.S.i.7.r.e.q.] * . 0X0X0X0X0X0X",
"0X0X0X0XX =  .0.2.u.T.&X,X,X,X,X,X,X>X^.:.5.q.q...- . 0X0X0X0X0X",
"0X0X0X0X% [ ,.<.:.%X,X$XW.B.p.p.:.S.`.-X>XE.#.,.2.} *   0X0X0X0X",
"0X0X0X+ ~ +.O.B.>X-Xc.*.s.f.H.F.H.d.i.:.(.>X`.#.,.+.~ + 0X0X0X0X",
"0X0Xo - [  .=.=X2X<X(.C.p.d.F.J.J.H.G.f.%.T.=XQ.O...} ; X 0X0X0X",
"0X0X+ ~ [ | _.<X<X<X<X<X%XR.p.d.F.F.G.G.t.%.!.:X:.} } ~ @ 0X0X0X",
"0X0X- ] / >.>Xn.&X=Xb.(.,X1X&X!.B.i.f.g.y.e.%.}.`.| { ] - X 0X0X",
"0X+ > ] _ Q.}.| C.,XR.&.v.).,X1X=X!.B.u.9.e.1.D.*X$.{ ] < + 0X0X",
"0X& Q ^ ` {.C.+.%.*X*X:.9.i.B.(.>X,X>X'.V.u.@.$.*Xv.] _ Q # 0X0X",
"0X= Q ~ &.}.:.,.1.T.<X!.7.G.f.7.;.-X<X,X>X*XE.;.{.Q._ / ! * 0X0X",
"+ - Q ~ ;.}.$.2.4.%.*X=Xp.f.y.u.Q.>X`.Y.'.:X>X;X:X]._ ^ Q - o 0X",
"# - W ! ;.}.$.3.w.5.T.<X!.7.i.!.-X!.i.8.7.N.Q.}.:X_._ ~ Q -   0X",
"@ = < Q o.[.-.2.w.e.:.*X%X;.!.>X(.i.f.g.y.e.1.=.{.Q.( ! 1 =   0X",
"0X= ; < ) ].V.+.w.r.a.!.,X*X,X(.p.G.H.G.g.t.4.-.$Xc.~ Q : * X 0X",
"0X= : W ~ E.].#.w.g.f.p.:X,X(.p.J.J.J.F.9.;.h.J E H N 2 > * 0X0X",
"0X* : W ! x.[.p.6.g.L.d.'.,X~.Z.I.I.K.>.j.Y C n v n B U 4 $ 0X0X",
"0X& ; W ~ ` Q.].:.s.L.K.U.,X&XY.|.|.A.k.F v z v z z L T F 3 0X0X",
"0X0X- < ~ / =.[.!.:.d.P.C.%X,XR./. Xl.S v v v v z F 7X.Xz A 0X0X",
"0X0X% : Q ] { z.}.].U.S.B.~.1X$XY.E.M b v v c v c oX8Xz c b g 0X",
"0X0X0X- 1 ~ {  .p.].;X'.R.M.,X,XR.M.k v v v v z F 7XI z v v y 0X",
"0X0X0X0X; W /  .+.%.T.{.>X,X1X2X,X#Xj c v l z v @X3Xb v v v t 0X",
"0X0X0X0X# : Q ] +.,.1.i.C.Q.^.(.^.m.h l V XXP G 9XT c l l x q 0X",
"0X0X0X0X0X# : ~ [ +.4.w.r.s.s.d.d.s.m i l OX8X5XOXx x l x a 8 0X",
"0X0X0X0X0X0X% : ~ { +.4.e.y.y.g.y.y.' e a r 4X6XK u i a x t 0X0X",
"0X0X0X0X0X0X0X0X; ! { +.,.q.w.e.w.q.2., d a f K y a f f p 5 0X0X",
"0X0X0X0X0X0X0X0X0X0X; Q ] +.,.,.,...] 1 O s d d f d p q 5 0X0X0X",
"0X0X0X0X0X0X0X0X0X0X0X0X0X0X< & # * X 0X0X0X6 0 0 7 5 0X0X0X0X0X",
"0X0X0X0X0X0X0X0X0X0X0X0X0X0X0X0X0X0X0X0X0X0X0X0X0X0X0X0X0X0X0X0X"
};
