/* XPM */
static char *aqualung[] = {
/* columns rows colors chars-per-pixel */
"32 32 254 2 ",
"   c #000000000101",
".  c #040409090D0D",
"X  c #0E0E0E0E0E0E",
"o  c #0B0B0D0D1010",
"O  c #0C0C13131919",
"+  c #151514141414",
"@  c #1D051B631885",
"#  c #040419192B2B",
"$  c #15151E1E2525",
"%  c #11931D4A2902",
"&  c #1A1A23232B2B",
"*  c #010126263C3C",
"=  c #0D0D26263A3A",
"-  c #19CD28AF35DB",
";  c #131328283C3C",
":  c #2DAF2FA32A82",
">  c #30302E2E2E2E",
",  c #24242F2F3A3A",
"<  c #272731313737",
"1  c #27143B4C3B8D",
"2  c #353534343434",
"3  c #383839393737",
"4  c #0B0B2E2E4A4A",
"5  c #10E32EED4C30",
"6  c #0E0E31314C4C",
"7  c #171737375E5E",
"8  c #131339395C5C",
"9  c #2F2F3D3D4646",
"0  c #1C1C3E3E6565",
"q  c #323241414D4D",
"w  c #393948485757",
"e  c #3D3D4D4D5B5B",
"r  c #3D3D51515E5E",
"t  c #3FB97AC244B1",
"y  c #1D1D43436969",
"u  c #04044C4C7A7A",
"i  c #3E3E5B5B7777",
"p  c #363658587A7A",
"a  c #3E3E61617E7E",
"s  c #444445454444",
"d  c #484849494747",
"f  c #46464A4A4D4D",
"g  c #4A4A4B4B4A4A",
"h  c #4D4D4F4F5252",
"j  c #4E8A512F5291",
"k  c #404050505E5E",
"l  c #535354545353",
"z  c #575758585757",
"x  c #555557575858",
"c  c #565659595C5C",
"v  c #59595B5B5A5A",
"b  c #66C772B15923",
"n  c #636364646363",
"m  c #656567676868",
"M  c #6A6A6B6B6A6A",
"N  c #6B25715363F6",
"B  c #6E6E71717474",
"V  c #73D974D673D9",
"C  c #777779797777",
"Z  c #4D0D8A8A0444",
"A  c #50508E8E0606",
"S  c #525294940707",
"D  c #58589E9E0505",
"F  c #556D93350951",
"G  c #575798980D0D",
"H  c #585898980F0F",
"J  c #4E5191F51622",
"K  c #577E91F50FF2",
"L  c #5DDEA7A70687",
"P  c #5F5FABAB0707",
"I  c #5F1EAB0E0BE7",
"U  c #5B36B76E00AB",
"Y  c #6363B7B70404",
"T  c #6464BD3D0081",
"R  c #6868BBBB0707",
"E  c #63B9B2B20C62",
"W  c #68BEBCBC0B36",
"Q  c #6262ACAC1010",
"!  c #6610B55F1212",
"~  c #6A6ABC3C1353",
"^  c #4D419A7232B1",
"/  c #4FAB95263D2F",
"(  c #60E591DA280A",
")  c #5463A1F82612",
"_  c #6D6DC57C052A",
"`  c #6E65C95C0160",
"'  c #6C6CC3830ACB",
"]  c #7128CABC05BC",
"[  c #7371CB74096D",
"{  c #7777CCCC1111",
"}  c #7C7CCECE1818",
"|  c #607981EA500B",
" . c #76918F515720",
".. c #7CEE954C5F30",
"X. c #77669BF15847",
"o. c #6639A4E34530",
"O. c #76549E59604F",
"+. c #8383CFCF2525",
"@. c #8383CFCF2929",
"#. c #87C7D16E2D1F",
"$. c #85EDCB4C32ED",
"%. c #8787C8C83F3F",
"&. c #8C8CD2273636",
"*. c #8F8FD3D33E3E",
"=. c #8474AFD3674C",
"-. c #8FD8A4B97734",
";. c #8A8ACBCB4141",
":. c #91FFD5FE4001",
">. c #9797D6D64B4B",
",. c #9A9AD9D94F4F",
"<. c #952ACCA05020",
"1. c #9A9AD7D75151",
"2. c #9E9EDBDB5555",
"3. c #9BA3D12F5993",
"4. c #06065C5C8E8E",
"5. c #3E3E62628383",
"6. c #313168688A8A",
"7. c #18185959A7A7",
"8. c #15155D5DACAC",
"9. c #1C1C5D5DAAAA",
"0. c #0C0C6C6CA9A9",
"q. c #1E1E7373AEAE",
"w. c #0D0D6F6FB1B1",
"e. c #18186666B1B1",
"r. c #11116E6EB0B0",
"t. c #18186A6AB6B6",
"y. c #19196E6EB8B8",
"u. c #07077777B3B3",
"i. c #0D0D7474B3B3",
"p. c #0C0C7878B4B4",
"a. c #12127272B2B2",
"s. c #1CC27382B2D0",
"d. c #10107878B6B6",
"f. c #1D1D7C7CBBBB",
"g. c #23236363AEAE",
"h. c #23A3689DAF44",
"j. c #33AC6E3BA2C2",
"k. c #235C76CBAFCD",
"l. c #2F0274E8ACD8",
"z. c #21216767B1B1",
"x. c #2B2B6767B1B1",
"c. c #21216D6DB6B6",
"v. c #2A2A6B6BB3B3",
"b. c #31316E6EB5B5",
"n. c #23237272B3B3",
"m. c #2E2E7575B6B6",
"M. c #21D37AFDB36D",
"N. c #25257373BBBB",
"B. c #2C2C7474BABA",
"V. c #24247A7ABDBD",
"C. c #2D467E0EBAE4",
"Z. c #34347272B7B7",
"A. c #37377A7AB7B7",
"S. c #33337575BABA",
"D. c #38387575BABA",
"F. c #34347B7BBDBD",
"G. c #3CBC7D33BC84",
"H. c #434362628282",
"J. c #4E4E6B6B8383",
"K. c #434373739E9E",
"L. c #535373739191",
"P. c #74747F7F8989",
"I. c #4F4F7F7FA7A7",
"U. c #1D1D7979C1C1",
"Y. c #22227A7AC1C1",
"T. c #2C2C7D7DC0C0",
"R. c #3D3D7E7EC0C0",
"E. c #4B75815E85AD",
"W. c #737382829292",
"Q. c #59598686A6A6",
"!. c #5F5F8B8BAEAE",
"~. c #74748E8EACAC",
"^. c #1B1B8585C0C0",
"/. c #2E2E8080C3C3",
"(. c #26268A8AC2C2",
"). c #2B2B8C8CC3C3",
"_. c #32328282C3C3",
"`. c #3B3B8383C4C4",
"'. c #3D3D8989C3C3",
"]. c #33339292C6C6",
"[. c #41418484C4C4",
"{. c #48248643C365",
"}. c #4E4E8C8CC3C3",
"|. c #44448B8BC8C8",
" X c #4B4B8C8CC9C9",
".X c #52528E8ECBCB",
"XX c #4D4D9090CDCD",
"oX c #46469898CECE",
"OX c #5F5F9494C1C1",
"+X c #55559191CCCC",
"@X c #59599393CDCD",
"#X c #56569595D0D0",
"$X c #59599696D0D0",
"%X c #56569898D1D1",
"&X c #5E5E9D9DD4D4",
"*X c #63639E9ED5D5",
"=X c #5A5AA1A1D6D6",
"-X c #7B7BA3A3CDCD",
";X c #6464A1A1D6D6",
":X c #6E6EA2A2D1D1",
">X c #6C6CA8A8D5D5",
",X c #6666A3A3D9D9",
"<X c #6B6BA7A7DADA",
"1X c #6C6CA9A9DDDD",
"2X c #7171ACACDEDE",
"3X c #7474B2B2E2E2",
"4X c #7C7CB7B7E5E5",
"5X c #7E7EBCBCE8E8",
"6X c #818183838282",
"7X c #8B858D8F8AEB",
"8X c #933894379338",
"9X c #9C9C9E9E9E9E",
"0X c #9EFFB36D85CE",
"qX c #9EA0C0029158",
"wX c #9999A3A3AEAE",
"eX c #8F36B390AE6B",
"rX c #ABABACACADAD",
"tX c #BC04BF16BDAE",
"yX c #BF43E6449043",
"uX c #C1C1E7E79494",
"iX c #C4C4E8E89797",
"pX c #CACAE9E9A7A7",
"aX c #CECEEAEAADAD",
"sX c #D0D0EDEDADAD",
"dX c #9E9EBCBCDCDC",
"fX c #8383BCBCE7E7",
"gX c #8181BDBDE9E9",
"hX c #BFBFC0C0C1C1",
"jX c #A7A7C1C1DEDE",
"kX c #8989C1C1EAEA",
"lX c #8E8EC8C8EFEF",
"zX c #9C9CC4C4E3E3",
"xX c #9C9CCECEF1F1",
"cX c #A5A5C8C8E5E5",
"vX c #A5A5D3D3F3F3",
"bX c #BDBDDEDEF4F4",
"nX c #C7C7C9C9CACA",
"mX c #DCDCF1F1C3C3",
"MX c #E5E5F3F3D5D5",
"NX c #EBEBF7F7DEDE",
"BX c #CB9EDC0EEC84",
"VX c #CACADFDFF0F0",
"CX c #C3C3E3E3F7F7",
"ZX c #D0D0E2E2F1F1",
"AX c #D2D2E9E9F7F7",
"SX c #D4D4EBEBFAFA",
"DX c #DDDDF0F0F8F8",
"FX c #EFEFF8F8E5E5",
"GX c #F4F4FAFAECEC",
"HX c #E3E3F3F3FAFA",
"JX c #EEEEF9F9FAFA",
"KX c #F9F9FCFCF5F5",
"LX c #FBFBFDFDF8F8",
"PX c None",
/* pixels */
"PXPXPXPXPXPXPXPXPXPXPXPXPXPXPXPXPXPXPXPXPXPXPXPXPXPXPXPXPXPXPXPX",
"PXPXPXPXPXPXPXPXPXPXPXPXPXPXu.PXPXPXPXPXPXPXPXPXPXPXPXPXPXPXPXPX",
"PXPXPXPXPXPXPXPXPXPXPXPXPXPXd.d.PXPXPXPXPXPXPXPXPXPXPXPXPXPXPXPX",
"PXPXPXPXPXPXPXPXPXPXPXPXPX# q.q.*       PXPXPXPXPXPXPXPXPXPXPXPX",
"PXPXPXPXPXPXPXPXPXPX    PX4.F.G.i.PXPXPX    PXPXPXPXPXPXPXPXPXPX",
"PXPXPXPXPXPXPXPX  PXPXPXPXd.[.D.n.PXPXPXPXPXPX  PXPXPXPXPXPXPXPX",
"PXPXPXPXPXPXPX  PXPXPXPXPXf.{.F.S.r.PXPXPXPXPXPX  PXPXPXPXPXPXPX",
"PXPXPXPXPXPX  PXPXPXPXPX^.|. XR.Z.m.w.PXPXPXPXPXPX  PXPXPXPXPXPX",
"PXPXPXPXPX  PXPXPXPXPXPX(.&X#X[.Z.b.n.PXPXPXPXPXPXPX  PXPXPXPXPX",
"PXPXPXPX  PXPXPXPXPXPX(.&X,X&X XR.x.b.a.PXPXPXPXPXPXPX  PXPXPXPX",
"PXPXPXPX  PXPXPXPXPXPXoX<X1X,X%X`.v.x.Z.a.PXPXPXPXPXPX  PXPXPXPX",
"PXPXPX  PXPXPXPXPXPX].1X3X3X1X&X|.B.z.x.m.i.PXPXPXPXPXPX  PXPXPX",
"PXPXPX  PXPXPXPXPX).<XfXkX4X1X,XXXT.z.g.b.n.PXPXPXPXPXPX  PXPXPX",
"PXPXPXPXPXPXPXPX).=XfXVXxX5X1X;X+X`.c.9.g.D.d.PXPXPXPXPXPXPXPXPX",
"PXPX  PXPXPXPXPXoX4XAXDXvXgX3X,X$X[.N.e.9.v.G.i.PXPXPXPXPXPXPXPX",
"PXPX  PXPXPXPX).2XbXJXHXvX5X1X,X$X|.T.e.9.g.S.V.PXPXPXPXPX  PXPX",
"PXPX  PXPXPX(.&XfXHXJXDXxX5X1X,X$X XT.t.8.9.v.R.i.PXPXPXPX  PXPX",
"PXPX  n c c 6.<XfXCXAXbXlX4X1X*X$X X/.y.8.7.h.G.M.PXj z M   PXPX",
"PXPXs 6Xm f q OXQ.J.e 9 < & O .   . O $ % 1 | X.=.X. .N 8Xz + PX",
"PXl 6XrXv o o O & B 9XnXnXrXf i J.f rXtX0X3.#.} { } +.<.-.7Xn PX",
"X V 7X8Xx     a wXBXBXBXVXZXP.H.L.P.BXqX&.[ ] ] [ ` :.2.&...B 3 ",
"+ M M 8Xl     5.W.jXdXdXzXcXk K.I.e eX$.{ ] [ [ ` #.GXyX` $.b 3 ",
"+ l v C h     5., ~.-X:X>X!.- }.#X- o.{ ] [ ] [ ` iXKX` ] { ( : ",
"X > g v g     p +Xw - ; = 6 m. X Xl.J ] ] [ ] ] &.GX,.` ] ] K @ ",
"PX@ 3 g s     j.@X@X@X+X+X.X X[._.k.) [ [ ` ` [ sXmX{ [ [ [ F PX",
"PXPX2 g 2     p.'.+X.X X X[.`._.Y.s.^ ` @.uX>.*.LX1._ _ _ ] L PX",
"PXPXPXg 3     PXu._. X`._.T.Y.U.Y.C./ R T aXKXNXpX' ' _ ' W D PX",
"PXPXPXPXPXPXPXPXPXPXi.f./.Y.V.Y.F.{.E.I W U MXFX;.T R W ' P PXPX",
"PXPXPXPXPXPXPXPXPXPXPXu 0.a.n.m.A.D.j.t ! ~ ~ %.Y W ~ ~ E Z PXPX",
"PXPXPXPXPXPXPXPXPXPXPXPXPX4 8 y y 0 7 5 Z Q ! ! ~ ! E L Z PXPXPX",
"PXPXPXPXPXPXPXPXPXPXPXPXPXPXPXPXPXPXPXPXPXPXA H H S Z PXPXPXPXPX",
"PXPXPXPXPXPXPXPXPXPXPXPXPXPXPXPXPXPXPXPXPXPXPXPXPXPXPXPXPXPXPXPX"
};
