/* XPM */
static char *atanks_icon[] = {
/* columns rows colors chars-per-pixel */
"32 32 216 2 ",
"   c #020205050101",
".  c #0E0E14140909",
"X  c #07073D3D0000",
"o  c #212125250000",
"O  c #226E28DD003C",
"+  c #323233330404",
"@  c #337536610475",
"#  c #342E35D8066A",
"$  c #272714142626",
"%  c #2A2A2F2F2727",
"&  c #222224242B2B",
"*  c #474738380F0F",
"=  c #46BA3B080E66",
"-  c #4B4B31312727",
";  c #094C3FD20030",
":  c #18AC4DE701A2",
">  c #00DA59A8003F",
",  c #00005B490001",
"<  c #32B641560DF2",
"1  c #232355550E0E",
"2  c #3BDB43E51CBD",
"3  c #3AAE5E5E160C",
"4  c #000072720000",
"5  c #21216C6C0808",
"6  c #29294F4F2E2E",
"7  c #0ABD6D5A29FC",
"8  c #0B0B70702B2B",
"9  c #30306F6F2323",
"0  c #505052521818",
"q  c #5186541D19E3",
"w  c #51EB548A1B5A",
"e  c #513653F71BFC",
"r  c #4B6B4ACD2706",
"t  c #4F4F4C4C2A2A",
"y  c #666650503333",
"u  c #4E4E6E6E2424",
"i  c #68686A6A2D2D",
"p  c #5B5B30306161",
"a  c #585839396161",
"s  c #742F3C89742F",
"d  c #77773E3E7777",
"f  c #38384A4A4949",
"g  c #2C2C71714141",
"h  c #4A4A4B4B4949",
"j  c #61A36A6C4B2E",
"k  c #64646D6D4D4D",
"l  c #7E7E41416767",
"z  c #7A6655F662F2",
"x  c #69696D6D7070",
"c  c #7B7B60607C7C",
"v  c #BEBE14143838",
"b  c #878739397D7D",
"n  c #853345087562",
"m  c #868642427878",
"M  c #9A9A42427A7A",
"N  c #878766666767",
"B  c #880D7FF26815",
"V  c #000091910303",
"C  c #2E31844E05DF",
"Z  c #2F2F8A8A0505",
"A  c #2E088FD205ED",
"S  c #1C16A52C17EE",
"D  c #1A1AADAD1A1A",
"F  c #3D3DADAD0707",
"G  c #23238D8D2828",
"H  c #4EC586301AC6",
"J  c #50AC916A0FC9",
"K  c #5D7BA72E0AE7",
"L  c #5DFCA9F008E5",
"P  c #5F57AB6A0984",
"I  c #5DBEABAB0B65",
"U  c #5B19B7AD001A",
"Y  c #6363B7B70404",
"T  c #6362BA9301AC",
"R  c #6565BFBF0000",
"E  c #6868BBBB0707",
"W  c #6262B1B10909",
"Q  c #6363B1B10F0F",
"!  c #6565B4B40D0D",
"~  c #6868BCBC0808",
"^  c #6868BCBC0909",
"/  c #6868BDBD0B0B",
"(  c #6A62BE930AAC",
")  c #6868BBBB0E0E",
"_  c #6868BABA0F0F",
"`  c #6464A19516E1",
"'  c #648EA9151102",
"]  c #6565B2B21111",
"[  c #6565B5B51010",
"{  c #6767B7B71515",
"}  c #69BFBC131038",
"|  c #6969BCBC1212",
" . c #6A6AB9B91717",
".. c #6CAABDA814AD",
"X. c #598C97972CC6",
"o. c #58158DBA32C6",
"O. c #5A1E8E2E3625",
"+. c #54EB8EDD3B3E",
"@. c #58588F8F3939",
"#. c #567A945131A4",
"$. c #5AF1974B3798",
"%. c #5B609B483757",
"&. c #564490353C97",
"*. c #720899A52644",
"=. c #67B8818D3C52",
"-. c #6DE0869F3C7D",
";. c #74078EFB36B5",
":. c #4C4CABAB2525",
">. c #5F5CA2B12EF3",
",. c #618DA857229B",
"<. c #734CA440254C",
"1. c #6464A3A33333",
"2. c #6A6AC6C60000",
"3. c #6D6DC4C40303",
"4. c #6B6BC1C10707",
"5. c #6C6CC1C10606",
"6. c #6F6FC7C70606",
"7. c #6F6FC7C70707",
"8. c #6B6BC8C80000",
"9. c #6D6DC8C80000",
"0. c #6F6FC9C90202",
"q. c #6F88C9420287",
"w. c #6B6BC3C30909",
"e. c #6E6EC2C20B0B",
"r. c #6E6EC6C60808",
"t. c #6969C0C00F0F",
"y. c #7070C9C90404",
"u. c #706CCA9A0419",
"i. c #7188CA420787",
"p. c #7161CA8E0710",
"a. c #7250CA510718",
"s. c #7272CBCB0707",
"d. c #726CCAB6080B",
"f. c #7272CBCB0808",
"g. c #7373CBCB0808",
"h. c #7272CBCB0909",
"j. c #7378CBBA091A",
"k. c #7373CACA0B0B",
"l. c #7575CBCB0B0B",
"z. c #7575CBCB0E0E",
"x. c #7676CBCB0F0F",
"c. c #7575CCCC0C0C",
"v. c #7575CCCC0D0D",
"b. c #7777CCCC1111",
"n. c #7C7CCECE1818",
"m. c #4F4F8F8F4E4E",
"M. c #55418D4B4BC4",
"N. c #56268E554A5D",
"B. c #561E874F75C2",
"V. c #56DE87C379C5",
"C. c #572A87C37AA7",
"Z. c #6C6CDBDB5353",
"A. c #4242E0E04444",
"S. c #8383CFCF2525",
"D. c #81CAC8322CE9",
"F. c #8383CFCF2929",
"G. c #8787D0D02C2C",
"H. c #889AD2412E7B",
"J. c #8814C94C3397",
"K. c #8787C8C83F3F",
"L. c #8B8BD0D03535",
"P. c #8C8CD0D03636",
"I. c #8D8DD4D43737",
"U. c #8F8FD3D33E3E",
"Y. c #878A89284B3C",
"T. c #8552A4C64DD6",
"R. c #850DA32B52A8",
"E. c #8CD9AE9956EB",
"W. c #8F65805F6D55",
"Q. c #8A8ACBCB4141",
"!. c #929BD64C4089",
"~. c #9797D6D64B4B",
"^. c #9A9AD9D94F4F",
"/. c #97AFCC5751A3",
"(. c #984CCDD054BA",
"). c #9A9AD7D75151",
"_. c #9E9EDBDB5555",
"`. c #9191E4E46A6A",
"'. c #7D7D62629B9B",
"]. c #888843438686",
"[. c #93084B638019",
"{. c #966D4F028142",
"}. c #9B9B4D4D8888",
"|. c #96964F4F9292",
" X c #A7A750508888",
".X c #ACAC53539999",
"XX c #B6B65F5F9B9B",
"oX c #8FB0624785A3",
"OX c #88886868B0B0",
"+X c #5D908D9F9BCB",
"@X c #5D5A8D329F8D",
"#X c #5E0B8DE49F07",
"$X c #5FA88F92A59C",
"%X c #5F4C8EF2A648",
"&X c #5D5D9B9BA5A5",
"*X c #601190FCA269",
"=X c #603C9112A3BB",
"-X c #618792D5A703",
";X c #61C9936BA669",
":X c #61FF92FFAAFF",
">X c #62629393ABAB",
",X c #BF76E63D9077",
"<X c #C1C1E7E79494",
"1X c #C4C4E8E89797",
"2X c #CACAE9E9A7A7",
"3X c #CECEEAEAADAD",
"4X c #D0D0EDEDADAD",
"5X c #DCDCF1F1C3C3",
"6X c #E5E5F3F3D5D5",
"7X c #EBEBF7F7DEDE",
"8X c #EF61F892E5AB",
"9X c #F3F3FAFAEBEB",
"0X c #F5F5FAFAEDED",
"qX c #F9F9FCFCF4F4",
"wX c #F9F9FCFCF6F6",
"eX c #FBFBFDFDF8F8",
/* pixels */
"p p l  X}.}.M  X X.XXX.X.XXX X X}. Xb M  XM }.}.M M M m m m ].d ",
"p p p  X X X X X X}.XXXX.X.X.X.X}. X}. X}.}.M M }.M M m }.m m ].",
"p p p d .X X XXXXX XXX|..X|..X.X}..X}.6 t m ].m M M M M M |.|.].",
"p a a p XX XXXXXXXXX.X.X.X}.|.}.}. X X@.4     M M m m M M }.}.}.",
"p p a a m }.XX XXX|.XX|..X X}.|.}.}. XZ V 5 .   m m M m M M M }.",
"p p p p p }.XX}..XXX X X X|.}.'.}. X X5 :.F 5 5   l b m m }.m }.",
"a p p p a |.XX|. X.XXXXX.X X.XXXXX.Xm.F 1.F F F 5 h b m m m }.|.",
"p p p p p a .X}.c |.}.'..X|.|.|.|..XZ :.:.1.:.Z m d m c m m }.d ",
"p p a p p a d }.XX'..X}.XXXX.XOX}.G Z 1.:.:.@.b m d d M m m m ].",
"a p p p p p a  X}.XXXX}.|.}..X}.|.@.:.F :.Z m.m m m d M M c d m ",
">Xp p a p a p  XXXXX'.}.}.XX}.}. XF 1.F F N b m m d m }.}.m m m ",
">X>Xa p p p p d XXXXXX'.XX}.XXM m.F Z F ].c }.}.M m M m OXm d l ",
">X>Xp p a p a a .XXX.XOX.X|. XM M :.m.M m m m m m M d m m d d m ",
">X>X>Xp p p p p OX.XXXXX|.h 6 9 D M }.}.}.}.}.}.}.d }.m d c m b ",
">X>X>X>Xa a p p a .XXX1 8 9 u @.Z 0 % k M }.}..X}.}.}.m d m d d ",
">X>X>X>X>X'.a p p OXf G G 8 9 5 V 5 @.1 - }.|.}.}.XX|.|.c ].d d ",
"&X>X>X>X>X>X>Xp a % 1.Z.Z.A.Z.`.`.`.`.`.D t t 6 t 1 }.|.|.d d d ",
">X>X>X>X>X>X>X>Xk 1 V Z.A.A.Z.`.Z.Z.1.A.D o q q e Y.# |.}.}.m m ",
">X>X>X>X>X>X>X&Xo * D D :.A.D D D D V Z 7 2 -.R.E.T.=.oXs c d m ",
">X>X>X>X>X>X>X+ i o k G Z V 4 4 D V G C o.(.G.n.v.n.S./.W.[.m M ",
">X>X>X>X>X>X>Xt i +   g 1.G 8 G 9 G j O.P.v.6.p.g.q.!._.L.W.s n ",
">X>X>X>X>X>X+ 0 0 0 0 .   o X . . o < D.c.p.g.g.q.G.0X,X8.J.z n ",
">X>X>X>X>Xo 0 t 0 0 0 0 0 + 0 o * @ <.v.p.g.g.g.6.1XwX2.7.z.;.n ",
">X>X>X>X* 0 N y u t y y i y * 0 y * ` g.g.g.g.q.I.9X^.6.g.g.*.[.",
">X>X>X>X, 6 4 9 , 4 x g 4 4 & '.1 S I g.g.6.q.g.4X5Xv.g.g.s.,.+X",
">X>X>X>X>X6 $ 5 X Z m.X x & 4 h 4 O J 3.F.<X~.U.eX^.6.6.7.e.>.*X",
">X>X>X>X>X>X>X>X5 % p 4 X X V c , X H E 2.3XwX7X2Xe.4.4.w.~ %.;X",
">X>X>X>X>X>X>X>X&X>X>Xm.5 , a d V , : K ^ U 6X8XQ.T ~ t.t.P B.:X",
">X>X>X>Xv v v v v v v v v v v v 4 Z , A ! _ ..K.T } } | W N.$X:X",
">X>X>X>Xv v v v v v v v v v v v v v x r 3 ' ] [  .{ Q K N.@X:X&X",
">X>X>X>X>X>X>X>X>X>X>X>X>X&X>X>X&X&X>X>X%XC.&.$.X.#.+.V.$X>X>X>X",
">X>X>X>X>X>X>X>X>X>X>X>X>X>X>X>X>X>X>X>X>X>X-X*X@X*X:X>X>X>X>X>X"
};
