/* XPM */
static char *biniax2[] = {
/* columns rows colors chars-per-pixel */
"32 32 139 2 ",
"   c #7EF504810030",
".  c #808000000000",
"X  c #FBFE4DFF0407",
"o  c #FCFC4E4E0404",
"O  c #4B4B88880303",
"+  c #4D4D8A8A0606",
"@  c #4E4E8C8C0404",
"#  c #4F4F8E8E0808",
"$  c #50508E8E0606",
"%  c #525294940707",
"&  c #58589E9E0505",
"*  c #58589F9F0707",
"=  c #575798980D0D",
"-  c #585898980F0F",
";  c #5D5DA6A60606",
":  c #5D5DA7A70707",
">  c #5E5EA7A70606",
",  c #5F5FABAB0909",
"<  c #5BFDB7A20004",
"1  c #6161ABAB0606",
"2  c #6161ACAC0606",
"3  c #61E0AC100913",
"4  c #6464B2B20505",
"5  c #6464B2B20606",
"6  c #6363B7B70404",
"7  c #63FDBAA20104",
"8  c #6565BFBF0000",
"9  c #6868BBBB0707",
"0  c #6262B1B10909",
"q  c #6363B1B10F0F",
"w  c #6565B4B40D0D",
"e  c #6868BCBC0808",
"r  c #6868BCBC0909",
"t  c #6868BDBD0B0B",
"y  c #6AFDBEA20A04",
"u  c #6868BBBB0E0E",
"i  c #6868BABA0F0F",
"p  c #6262ACAC1010",
"a  c #6565B2B21111",
"s  c #6565B5B51010",
"d  c #6767B7B71515",
"f  c #6969B0B01414",
"g  c #69FFBCC4108A",
"h  c #6969BCBC1212",
"j  c #6A6AB9B91717",
"k  c #6CFFBDC4148A",
"l  c #6B6BB2B21818",
"z  c #6A6AC6C60000",
"x  c #6D6DC4C40303",
"c  c #6B6BC1C10707",
"v  c #6C6CC1C10606",
"b  c #6F6FC7C70606",
"n  c #6F6FC7C70707",
"m  c #6B6BC8C80000",
"M  c #6D6DC8C80000",
"N  c #6F6FC9C90202",
"B  c #6B6BC3C30909",
"V  c #6E6EC2C20B0B",
"C  c #6E6EC6C60808",
"Z  c #6969C0C00F0F",
"A  c #7000C9810204",
"S  c #7070C9C90404",
"D  c #7070CACA0404",
"F  c #70FDCAA20404",
"G  c #7171CACA0707",
"H  c #71FDCAA20704",
"J  c #7272CBCB0707",
"K  c #7272CACA0808",
"L  c #72FFCAC4078A",
"P  c #7272CBCB0808",
"I  c #7373CBCB0808",
"U  c #7272CBCB0909",
"Y  c #7373CBCB0909",
"T  c #7373CACA0B0B",
"R  c #73FFCBC4098A",
"E  c #7575CBCB0B0B",
"W  c #7575CBCB0E0E",
"Q  c #7676CBCB0F0F",
"!  c #7575CCCC0C0C",
"~  c #7575CCCC0D0D",
"^  c #7777CCCC1111",
"/  c #7C7CCECE1818",
"(  c #97DDA2F93C0B",
")  c #B4DEA4DE285A",
"_  c #BA5FA5F730FB",
"`  c #BAEDA6853217",
"'  c #B70AAED33C7D",
"]  c #DAEC86881F9B",
"[  c #FFFF82820404",
"{  c #ED779AB204F0",
"}  c #F60A9E2B03E8",
"|  c #F975A238065C",
" . c #FCFCA2A20404",
".. c #DAEC86D21FE5",
"X. c #8383CFCF2525",
"o. c #8383CFCF2929",
"O. c #87D3CBA42D06",
"+. c #8787D0D02C2C",
"@. c #8888D2D22E2E",
"#. c #8ACFCC94339E",
"$. c #8787C8C83F3F",
"%. c #8B8BD0D03535",
"&. c #8C8CD0D03636",
"*. c #8D8DD4D43737",
"=. c #8F8FD3D33E3E",
"-. c #8F8FB5B55E5E",
";. c #BFEDA9515E67",
":. c #B651B3FF6414",
">. c #8A8ACBCB4141",
",. c #9ADECE5B4DEB",
"<. c #9292D6D64040",
"1. c #9797D6D64B4B",
"2. c #9A9AD9D94F4F",
"3. c #9A9AD7D75151",
"4. c #9EA9D14F54BA",
"5. c #9E9EDBDB5555",
"6. c #9898C2C26161",
"7. c #9C9CC7C76262",
"8. c #B3E6C34B6C16",
"9. c #EF67BA6B8108",
"0. c #F7FEBF5D85C2",
"q. c #C000E6819003",
"w. c #F861C19A8775",
"e. c #FEFEC4C48989",
"r. c #C1C1E7E79494",
"t. c #C4C4E8E89797",
"y. c #CACAE9E9A7A7",
"u. c #CECEEAEAADAD",
"i. c #D0D0EDEDADAD",
"p. c #DCDCF1F1C3C3",
"a. c #E5E5F3F3D5D5",
"s. c #EBEBF7F7DEDE",
"d. c #EFFCF8A1E502",
"f. c #F3F3FAFAEBEB",
"g. c #F5F5FAFAEDED",
"h. c #F9F9FCFCF4F4",
"j. c #F9F9FCFCF6F6",
"k. c #FBFBFDFDF8F8",
"l. c None",
/* pixels */
"l.l.l.l.l.l.l.l.l.l.l.l.l.l.l.l.l.l.l.l.l.l.l.l.l.l.l.l.l.l.l.l.",
"l.l.l.l.l.l.l.l.l.l.l.l.l.l.l.l.l.l.l.l.l.l.l.l.l.l.l.l.l.l.l.l.",
"l.l.l.l.l.l.l.l.l.l.l.l.l.l.l.l.l.l.l.l.l.l.l.l.l.l.l.l.l.l.l.l.",
"l.l.l.l.l.l.l.l.l.l.l.l.l.l.l.. l.l.l.l.l.l.l.l.l.l.l.l.l.l.l.l.",
"l.l.[ [ [ [ [ [ [ [ [ [ l.l.. o . l.l.l.l.l.l.l.l.l.l.l.l.l.l.l.",
"l.l.[  . . . . . . . .e.l.. o o o e.l.l.l.l.l.l.l.l.l.l.l.l.l.l.",
"l.l.[  .e.e.e.e.e.e.e.e.l.l.e.o e.l.l.l.l.l.l.l.l.l.l.l.l.l.l.l.",
"l.l.[  .e.l.l.l.l.l.l.l.l.l.l.e.l.l.l.l.l.l.l.l.l.l.l.l.l.l.l.l.",
"l.l.[  .e.l.l.l.l.l.l.l.l.l.l.l.l.l.l.l.l.l.l.l.l.l.l.l.l.l.l.l.",
"l.l.[  .e.l.l.l.l.l.l.l.l.l.l.l.l.l.l.l.l.l.l.l.l.l.l.l.l.l.l.l.",
"l.l.[  .e.l.l.l.[ [ [ [ l.l.l.l.l.l.l.l.l.[ [ [ l.l.l.[ [ [ l.l.",
"l.l.[  .e.l.l.l.[  . . . .l.l.l.l.l.l.l.l.[  .e.l.l.l.[  .e.l.l.",
"l.l.[  .e.l.l.l.[  . . . .[ l.l.l.l.l.l.l.[  .e.l.l.l.[  .e.l.l.",
"l.l.[  .e.l.l.l.[  .e. . . . .l.l.l.l.l.l.[  .e.l.l.l.[  .e.l.l.",
"l.l.[  .e.l.l.l.[  .e.l.e. . .[ l.l.l.l.l.[  .e.l.l.l.[  .e.l.l.",
"l.l.[  .e.l.l.l.[  .e.l.l. . . . .l.l.l.l.[  .e.l.l.l.[  .e.l.l.",
"l.l.[  .e.l.l.l.[  .e.l.l.l.e. . .[ l.l.l.[  .e.l.l.l.[  .e.l.l.",
"l.l.[  .e.l.l.l.[  .e.l.l.l.l. . . . .l.l.[ | w.l.l.l.[  .e.l.l.",
"l.l.[  .e.l.l.l.[  .e.l.l.l.l.l.e. . .[ l...' 8.7.6.-...} e.l.l.",
"l.l.[  .e.l.l.l.[  .e.l.l.l.l.l.l. . .{ _ 4.+./ ~ / X.,._ 9.l.l.",
"l.l.[  .e.l.l.l.[  .e.l.l.l.l.l.l.l.0.) &.~ H n I N <.5.&.:.l.l.",
"l.l.[  .e.l.l.l.[  .e.l.l.l.l.l.l.l.l.O.E H I I M @.g.q.m #.l.l.",
"l.l.e.e.e.l.l.l.e.e.e.l.l.l.l.l.l.l.f W I I I I S t.j.z I W l l.",
"l.l.l.l.l.l.l.l.l.l.l.l.l.l.l.l.l.l.4 I I I I M *.f.2.N I I 4 l.",
"l.l.l.l.l.l.l.l.l.l.l.l.l.l.l.l.l.l.1 H I b M I i.p.^ H I I 1 l.",
"l.l.l.l.l.l.l.l.l.l.l.l.l.l.l.l.. l.> x o.r.1.=.k.3.n n n C > l.",
"l.l.l.l.l.l.l.l.l.l.l.l.l.l.l.. o   & y 8 u.h.s.y.V c c c y & l.",
"l.l.l.l.l.l.l.l.l.l.l.l.l.l.. o o X ;., u < a.d.>.7 r y Z 3 l.l.",
"l.l.l.l.l.l.l.l.l.l.l.l.l.l.l.e.o e.l.# w u k >.6 u h h 0 ( l.l.",
"l.l.l.l.l.l.l.l.l.l.l.l.l.l.l.l.e.l.l.l.+ p a s j d q : O l.l.l.",
"l.l.l.l.l.l.l.l.l.l.l.l.l.l.l.l.l.l.l.l.l.l.$ - = % @ l.l.l.l.l.",
"l.l.l.l.l.l.l.l.l.l.l.l.l.l.l.l.l.l.l.l.l.l.l.l.l.l.l.l.l.l.l.l."
};
