/* XPM */
static char *blockattack32[] = {
/* columns rows colors chars-per-pixel */
"32 32 235 2 ",
"   c #0B0B2C2C1818",
".  c #464605050505",
"X  c #4A4A06060606",
"o  c #595907070707",
"O  c #5C5C08080808",
"+  c #646408080808",
"@  c #707024241010",
"#  c #66663E3E1010",
"$  c #350D57DF2F2A",
"%  c #361358E53384",
"&  c #5F5F5F5F1414",
"*  c #666640401010",
"=  c #737347471313",
"-  c #646464641515",
";  c #46FD79062E39",
":  c #121212125858",
">  c #158817B35DD7",
",  c #14142B2B4A4A",
"<  c #15002C9949FB",
"1  c #283F38E95F14",
"2  c #309C3C6E6EA6",
"3  c #3B175FCC41BE",
"4  c #524071015231",
"5  c #5AE26EDE70EC",
"6  c #51AA69B47DC5",
"7  c #8F8F0C0C0C0C",
"8  c #90900B0B0B0B",
"9  c #92920C0C0C0C",
"0  c #94940C0C0C0C",
"q  c #9E9E0E0E0E0E",
"w  c #A0A00E0E0E0E",
"e  c #A6A60F0F0F0F",
"r  c #AAAA0F0F0F0F",
"t  c #AEAE10101010",
"y  c #B2B210101010",
"u  c #B6B610101010",
"i  c #BABA11111111",
"p  c #BDBD12121212",
"a  c #C0C012121212",
"s  c #C9C913131313",
"d  c #D4D415151515",
"f  c #DADA16161616",
"g  c #E3E317171717",
"h  c #E7E718181818",
"j  c #EDED18181818",
"k  c #F2F219191919",
"l  c #F4F41A1A1A1A",
"z  c #FAFA1A1A1A1A",
"x  c #FCFC1B1B1B1B",
"c  c #9C9C45452626",
"v  c #9E9E62624545",
"b  c #AFAF6F6F6969",
"n  c #A1A17A7A6262",
"m  c #C6C660606060",
"M  c #C8C878787878",
"N  c #1C5081DB1C50",
"B  c #1D1D85851D1D",
"V  c #1F1F8C8C1F1F",
"C  c #1F1F90901F1F",
"Z  c #1E1E9D9D1E1E",
"A  c #1E1EA4A41E1E",
"S  c #1E1EACAC1E1E",
"D  c #1D1DB6B61D1D",
"F  c #23AF89DB227D",
"G  c #28288E8E2929",
"H  c #20B59D561FBE",
"J  c #2B2B92922B2B",
"K  c #2E9291C42D94",
"L  c #2F2F94942F2F",
"P  c #38FE88AE3185",
"I  c #2216A2FD2118",
"U  c #3636A0A03636",
"Y  c #4D4D8A8A0404",
"T  c #4E4E8C8C0404",
"R  c #50508E8E0606",
"E  c #525294940707",
"W  c #58589E9E0505",
"Q  c #575798980D0D",
"!  c #585898980F0F",
"~  c #55C6933E1CE4",
"^  c #5E5EA7A70606",
"/  c #5F5FABAB0707",
"(  c #5BAAA434093F",
")  c #5E55A96F0BFB",
"_  c #5B1AB71A0101",
"`  c #6161ACAC0606",
"'  c #6464B2B20606",
"]  c #6363B7B70404",
"[  c #631ABA1A0201",
"{  c #6565BFBF0000",
"}  c #6868BBBB0707",
"|  c #6262B1B10909",
" . c #6363B1B10F0F",
".. c #6565B4B40D0D",
"X. c #6868BCBC0808",
"o. c #6868BCBC0909",
"O. c #6868BDBD0B0B",
"+. c #6A1BBE1B0AD0",
"@. c #6868BBBB0E0E",
"#. c #6868BABA0F0F",
"$. c #6090A91B1212",
"%. c #6565B2B21111",
"&. c #6565B5B51010",
"*. c #6767B7B71515",
"=. c #691DBC1D109E",
"-. c #6969BCBC1212",
";. c #6A6AB9B91717",
":. c #6C1DBD1D149E",
">. c #6B6BB2B21818",
",. c #4DFC8574263E",
"<. c #53078DFD2602",
"1. c #517E822139B5",
"2. c #1C1CCACA1C1C",
"3. c #1C1CDADA1C1C",
"4. c #1C1CE4E41C1C",
"5. c #1B1BECEC1B1B",
"6. c #1B1BF3F31B1B",
"7. c #1B1BFCFC1B1B",
"8. c #1B1BFEFE1B1B",
"9. c #6A6AC6C60000",
"0. c #6D6DC4C40303",
"q. c #6B6BC1C10707",
"w. c #6C6CC1C10606",
"e. c #6F6FC7C70606",
"r. c #6F6FC7C70707",
"t. c #6B6BC8C80000",
"y. c #6D6DC8C80000",
"u. c #6F6FC9C90202",
"i. c #6F1BC91B02D7",
"p. c #6B6BC3C30909",
"a. c #6E6EC2C20B0B",
"s. c #6E6EC6C60808",
"d. c #6969C0C00F0F",
"f. c #7070C9C90404",
"g. c #701ACA1A04FA",
"h. c #7070CACA0404",
"j. c #7171CACA0707",
"k. c #7272CBCB0707",
"l. c #7120CA2007C9",
"z. c #721ACA1A0801",
"x. c #721ACA1A0901",
"c. c #7272CACA0808",
"v. c #7272CBCB0808",
"b. c #7373CBCB0808",
"n. c #7272CBCB0909",
"m. c #7373CBCB0909",
"M. c #731ACB1A0A01",
"N. c #7373CACA0B0B",
"B. c #7575CBCB0B0B",
"V. c #7575CBCB0E0E",
"C. c #7676CBCB0F0F",
"Z. c #7575CCCC0C0C",
"A. c #7575CCCC0D0D",
"S. c #7777CCCC1111",
"D. c #7C7CCECE1818",
"F. c #6645A452458B",
"G. c #7C7CA6A64646",
"H. c #77AAB26D4F2D",
"J. c #7A7AACAC5555",
"K. c #7A9CB4D65263",
"L. c #7A7AB2B25555",
"P. c #77A7A2266B0B",
"I. c #6F6FBDBD6F6F",
"U. c #7474D2D24C4C",
"Y. c #5F5FE4E44D4D",
"T. c #8D8D8D8D1F1F",
"R. c #919191911F1F",
"E. c #949494941E1E",
"W. c #9C9C9C9C1E1E",
"Q. c #A0A0A0A01E1E",
"!. c #A5A5A5A51E1E",
"~. c #A8A8A8A81E1E",
"^. c #B2B2B2B21E1E",
"/. c #B4B4B4B41E1E",
"(. c #BBBBBBBB1E1E",
"). c #8E8E8E8E2121",
"_. c #959595952C2C",
"`. c #8383CFCF2525",
"'. c #8383CFCF2929",
"]. c #8787D0D02C2C",
"[. c #881AD21A2F01",
"{. c #81A6C7F232A5",
"}. c #8787CCCC3131",
"|. c #8787C8C83F3F",
" X c #8B8BD0D03535",
".X c #8C8CD0D03636",
"XX c #8D8DD4D43737",
"oX c #8F8FD3D33E3E",
"OX c #C2C2C2C21E1E",
"+X c #CECECECE1E1E",
"@X c #D0D0D0D01E1E",
"#X c #D5D5D5D51E1E",
"$X c #D8D8D8D81E1E",
"%X c #DCDCDCDC1E1E",
"&X c #E5E5E5E51E1E",
"*X c #F2F2F2F21F1F",
"=X c #F6F6F6F61F1F",
"-X c #FEFEFEFE1F1F",
";X c #829CBA445442",
":X c #8484B5B55F5F",
">X c #A4A4A4A44949",
",X c #A0A095956262",
"<X c #A2A2A1A16B6B",
"1X c #8A8ACBCB4141",
"2X c #921AD61A40F9",
"3X c #9797D6D64B4B",
"4X c #9A9AD9D94F4F",
"5X c #93C7CB55523C",
"6X c #975BCD98570E",
"7X c #9A9AD7D75151",
"8X c #9E9EDBDB5555",
"9X c #1DE81E9485E6",
"0X c #1D4A1D4A86BC",
"qX c #469B4C118938",
"wX c #53F753F7A6F5",
"eX c #96CAD5F795F0",
"rX c #9797D7D79797",
"tX c #BF1BE61A90D6",
"yX c #A1A1DBDBA1A1",
"uX c #CBCBCBCB8989",
"iX c #C1C1E7E79494",
"pX c #C4C4E8E89797",
"aX c #CACAE9E9A7A7",
"sX c #CECEEAEAADAD",
"dX c #D0D0EDEDADAD",
"fX c #DCDCF1F1C3C3",
"gX c #E5E5F3F3D5D5",
"hX c #EBEBF7F7DEDE",
"jX c #EF19F819E5FF",
"kX c #F3F3FAFAEBEB",
"lX c #F5F5FAFAEDED",
"zX c #F9F9FCFCF4F4",
"xX c #F9F9FCFCF6F6",
"cX c #FBFBFDFDF8F8",
"vX c None",
/* pixels */
"vXvXvXvXvXvXvXvXvXvXvXvXvXvXvXvXvXvXvXvXvXvXvXvXvXvXvXvXvXvXvXvX",
"vXvXvXvXvXvXvXvXvXvXvXvXvXvXvXvXvXvXvXvXvXvXvXvXvXvXvXvXvXvXvXvX",
"vXvX- _._._._._._._._._._.>XvXvXvXvXvXvXvXvXvXvXvXvXvXvXvXvXvXvX",
"vXvX- T.).T.).).T.).).T.).).uXvXvXvXvXvXvXvXvXvXvXvXvXvXvXvXvXvX",
"vXvX- T.).T.T.T./.T.T.T.T.T.:XU U U U U U U U U U I.vXvXvXvXvXvX",
"vXvX- T.T.T.T.Q.&XT.T.T.T.R.J.V G G V V V V C V G L yXvXvXvXvXvX",
"vXvX- T.T.T.T.OX-XW.T.T.T.T.J.V V V S V V V V V V J rXvXvXvXvXvX",
"vXvX- R.(.$X$X*X-X&X$X$X~.T.J.V C S 6.Z C V C V V J rXvXvXvXvXvX",
"vXvX- T.T.@X-X-X-X-X=X^.T.T.J.V V 4.8.2.V V V V C J rXvXvXvXvXvX",
"vXvX- T.T.T.+X-X-X-X~.T.T.T.J.V S 8.8.8.Z V V V V J rXvXvXvXvXvX",
"vXvX- T.T.T.%X-X=X-X/.T.T.T.J.C 4.8.8.8.2.V V V V J rXvXvXvXvXvX",
"vXvX- T.T.E.*X(.E.$X#XT.T.).J.D 8.8.8.8.6.A V V V J rXvXvXvXvXvX",
"vXvX- T.T.Q.!.T.T.T./.R.T.R.L.5.8.8.8.8.8.3.V V C J rXvXvXvXvXvX",
"vXvX& ).T.T.).).T.T.).).T.T.U.8.8.8.7.8.8.8.A V C J rXvXvXvXvXvX",
"vX+ @ # * * * * * * * * * = c v Y.7.7.7.8.8.3.V C J rXvXvXvXvXvX",
"vX+ 9 9 9 7 7 9 9 7 9 7 7 7 7 8 <X7.7.7.8.8.8.S V J rXvXvXvXvXvX",
"vX+ 9 7 7 8 q i s s r 0 9 7 8 8 ,X8.8.8.8.8.8.3.G G rXvXvXvXvXvX",
"vX+ 7 7 9 i k x x x x j e 7 9 8 n A Z Z Z A H I F K rXvXvXvXvXvX",
"vX+ 9 9 p z x x x x x x l e 9 7 n B B B N P F.H.;XK.P.qXwXvXvXvX",
"vX+ 9 w l x x x x x x x x g 9 8 b   , , 4 6X].D.A.D.`.5X5 vXvXvX",
"vX+ 0 a x x x x x x x x x x e 8 M vX0X6 .XA.r.b.b.y.2X8X XG.vXvX",
"vX+ 9 d x x x x x x x x x x u 8 M vX2 {.B.b.b.b.i.[.lXtXt.}.vXvX",
"vX+ 9 d x x x x x x x x x x y 8 M vX1.V.b.b.b.b.r.pXxX9.b.V.>.vX",
"vX+ 9 i x x x x x x x x x z w 8 M vX<.b.b.b.s.i.XXkX4Xi.b.k.' vX",
"vX+ 7 9 k x x x x x x x x f 8 8 M vX~ b.N.i.y.b.dXfXS.b.b.b./ vX",
"vX+ 9 9 t z x x x x x x j w 7 7 M vX,.y.'.iX3XoXcX4Xs.i.i.s.^ vX",
"vX+ 0 9 9 t h x x x x d q 9 7 7 M vX; } { sXzXhXaXa.q.q.p.+.W vX",
"vX+ 0 9 7 0 0 w y y q 7 9 7 7 9 M vX1 ) @._ gXjX1X[ X.+.-./ vXvX",
"vXo 7 9 7 7 9 7 9 7 7 9 9 7 9 9 m vX0X3 ..@.:.1X] @.-.-.| T vXvX",
"vXvX. X X X X X X X X X X X X O vXvX: > $ $.%.&.;.*. .( % vXvXvX",
"vXvXvXvXvXvXvXvXvXvXvXvXvXvXvXvXvXvXvXvXvXvXR ! Q E T vXvXvXvXvX",
"vXvXvXvXvXvXvXvXvXvXvXvXvXvXvXvXvXvXvXvXvXvXvXvXvXvXvXvXvXvXvXvX"
};
