/* XPM */
static char *blogtk[] = {
/* columns rows colors chars-per-pixel */
"32 29 225 2 ",
"   c black",
".  c #040402020101",
"X  c #02D604CA0091",
"o  c #033F05E8003C",
"O  c #035D040D0282",
"+  c #060604040202",
"@  c #090906060303",
"#  c #0C0C07070404",
"$  c #0E0E08080404",
"%  c #12120B0B0505",
"&  c #15150C0C0606",
"*  c #19190E0E0707",
"=  c #1A1A0F0F0808",
"-  c #11B71F98017A",
";  c #1D1D10100808",
":  c #1E4E14720C18",
">  c #222214140B0B",
",  c #242415150B0B",
"<  c #2D2D1A1A0D0D",
"1  c #32321D1D0F0F",
"2  c #35351F1F1010",
"3  c #1B9627690DF2",
"4  c #3A3A22221212",
"5  c #3C4A2302127A",
"6  c #3E3E24241313",
"7  c #404025251313",
"8  c #414126261414",
"9  c #444427271515",
"0  c #43A728DD15BB",
"q  c #464628281616",
"w  c #4C4C2C2C1717",
"e  c #525230301919",
"r  c #565632321B1B",
"t  c #5B5B35351C1C",
"y  c #5C5C36361C1C",
"u  c #606037371D1D",
"i  c #616138381E1E",
"p  c #64643A3A1E1E",
"a  c #69693D3D2020",
"s  c #6D6D3E3E2121",
"d  c #35DB5F98040A",
"f  c #6E6E40402222",
"g  c #727242422323",
"h  c #777745452424",
"j  c #7A7A47472626",
"k  c #7F7F49492727",
"l  c #7FEE4C762716",
"z  c #81814A4A2828",
"x  c #87874E4E2929",
"c  c #89894F4F2A2A",
"v  c #8D8D51512B2B",
"b  c #909053532C2C",
"n  c #959556562E2E",
"m  c #999959592F2F",
"M  c #9C9C5A5A2F2F",
"N  c #9A9A59593030",
"B  c #9D9D5B5B3030",
"V  c #A0A05D5D3131",
"C  c #A5A55F5F3232",
"Z  c #A7A761613333",
"A  c #A8A861613333",
"S  c #ABAB63633434",
"D  c #B5B569693737",
"F  c #BBBB6C6C3939",
"G  c #BDBD6D6D3A3A",
"H  c #C3C371713B3B",
"J  c #C3C371713C3C",
"K  c #C4C471713C3C",
"L  c #C9C974743D3D",
"P  c #CECE77773F3F",
"I  c #CFCF78783F3F",
"U  c #D2D279794040",
"Y  c #D5D57B7B4141",
"T  c #D5D57C7C4141",
"R  c #D7C67CF9416A",
"E  c #D16D7CD943EF",
"W  c #DADA7E7E4343",
"Q  c #DCDC7F7F4343",
"!  c #4B4B88880303",
"~  c #4D4D8A8A0404",
"^  c #4E4E8C8C0404",
"/  c #50948E0C04FC",
"(  c #525294940707",
")  c #58589E9E0505",
"_  c #575798980D0D",
"`  c #585898980F0F",
"'  c #679D912B0E91",
"]  c #5D5DA7A70707",
"[  c #5E5EA7A70606",
"{  c #5F5FABAB0707",
"}  c #5BF9B78F004D",
"|  c #6161ACAC0606",
" . c #61B0AB2E0A0F",
".. c #6464B2B20505",
"X. c #6464B2B20606",
"o. c #6363B7B70404",
"O. c #6363BABA0101",
"+. c #6565BFBF0000",
"@. c #6868BBBB0707",
"#. c #6262B1B10909",
"$. c #6363B1B10F0F",
"%. c #6565B4B40D0D",
"&. c #6868BCBC0808",
"*. c #6868BCBC0909",
"=. c #6868BDBD0B0B",
"-. c #6A6ABEBE0A0A",
";. c #6868BBBB0E0E",
":. c #6868BABA0F0F",
">. c #63AFAAB610CB",
",. c #6565B2B21111",
"<. c #6565B5B51010",
"1. c #6767B7B71515",
"2. c #6969B0B01414",
"3. c #6969BCBC1010",
"4. c #6969BCBC1212",
"5. c #6A6AB9B91717",
"6. c #6C90BD53142C",
"7. c #6B6BB2B21818",
"8. c #6A6AC6C60000",
"9. c #6D6DC4C40303",
"0. c #6B6BC1C10707",
"q. c #6C6CC1C10606",
"w. c #6F6FC7C70606",
"e. c #6F6FC7C70707",
"r. c #6B6BC8C80000",
"t. c #6D6DC8C80000",
"y. c #6F6FC9C90202",
"u. c #6B6BC3C30909",
"i. c #6E6EC2C20B0B",
"p. c #6E6EC6C60808",
"a. c #6969C0C00F0F",
"s. c #7070C9C90404",
"d. c #7070CACA0404",
"f. c #7100CA9A0453",
"g. c #717ACA460726",
"h. c #7171CACA0707",
"j. c #7272CACA0707",
"k. c #7272CBCB0707",
"l. c #71FFC9FE0800",
"z. c #7272CACA0808",
"x. c #7272CBCB0808",
"c. c #7373CBCB0808",
"v. c #735CCB35091C",
"b. c #7272CBCB0909",
"n. c #7373CBCB0909",
"m. c #7373CACA0B0B",
"M. c #7575CBCB0B0B",
"N. c #7575CBCB0E0E",
"B. c #7676CBCB0F0F",
"V. c #7575CCCC0C0C",
"C. c #7575CCCC0D0D",
"Z. c #7777CCCC1111",
"A. c #7C7CCECE1818",
"S. c #6FE78ED34769",
"D. c #7C7CA6A64646",
"F. c #8A039C081C45",
"G. c #93F98DB623D5",
"H. c #967D8C4523E8",
"J. c #84D3822B3A26",
"K. c #BA8384C0346B",
"L. c #8383CFCF2525",
"P. c #82CFC8472D85",
"I. c #8383CFCF2929",
"U. c #8787D0D02C2C",
"Y. c #8888D2D22E2E",
"T. c #8787CCCC3131",
"R. c #8787C8C83F3F",
"E. c #8B8BD0D03535",
"W. c #8C8CD0D03636",
"Q. c #8D8DD4D43737",
"!. c #8F8FD3D33E3E",
"~. c #B8219D70514B",
"^. c #8585A9A95757",
"/. c #9A27B0085754",
"(. c #8F8FB5B55E5E",
"). c #B36AA6DB55D7",
"_. c #B42BB6B65C8F",
"`. c #DDDD80804343",
"'. c #D5E88FD95332",
"]. c #E0E082824444",
"[. c #E3E384844646",
"{. c #E6E685854646",
"}. c #E9E987874747",
"|. c #E9E987874848",
" X c #EBEB88884848",
".X c #EB39891C47EA",
"XX c #EFEF8A8A4949",
"oX c #EEB88BC34AB4",
"OX c #EEF18EA04966",
"+X c #F1F18B8B4A4A",
"@X c #F2F28C8C4A4A",
"#X c #F6F68E8E4B4B",
"$X c #F2A38EE64D1A",
"%X c #F7F78F8F4C4C",
"&X c #F8F88F8F4C4C",
"*X c #F7F790904C4C",
"=X c #F8F890904C4C",
"-X c #FDFE92FF4E06",
";X c #FEFE93934E4E",
":X c #FFFF95954F4F",
">X c #FFFF97975050",
",X c #8A8ACBCB4141",
"<X c #9292D6D64040",
"1X c #9797D6D64B4B",
"2X c #9A9AD9D94F4F",
"3X c #9797D0D05050",
"4X c #9A9AD7D75151",
"5X c #9E58D09E56EE",
"6X c #9E9EDBDB5555",
"7X c #BFBFE6E69090",
"8X c #C1C1E7E79494",
"9X c #C4C4E8E89797",
"0X c #CACAE9E9A7A7",
"qX c #CECEEAEAADAD",
"wX c #D0D0EDEDADAD",
"eX c #DCDCF1F1C3C3",
"rX c #E5E5F3F3D5D5",
"tX c #EBEBF7F7DEDE",
"yX c #EF13F80AE504",
"uX c #F3F3FAFAEBEB",
"iX c #F5F5FAFAEDED",
"pX c #F9F9FCFCF4F4",
"aX c #F9F9FCFCF6F6",
"sX c #FBFBFDFDF8F8",
"dX c None",
/* pixels */
"dXdXdXdXdXdXdXdXdXdXdXdXdXdXdXdXdXdXdXdXdXdXdX    dXdXdXdXdXdXdX",
"dXdXdXdXdXdXdXdXdXdXdXdXdX    dXdXdXdXdXdXdXdX@ & .         dXdX",
"dXdXdXdXdXdXdXdXdX      + $ $       dXdXdXdXdXr +XK V a 9 > #   ",
"dXdXdXdXdX      # w x A P [.{.J v ;   dXdXdX  m >X=X:X;X#X=Xt   ",
"dXdXdXdX. y j Z W #X:X:X=X#X#X=X>XJ % dXdXdX# Y &X@X+X+X;XF % dX",
"dXdXdXdX& XX>X;X%X#X@X@X@X@X@X@X#X%X4 dXdXdX2 +X#X@X+X%X{.>   dX",
"dXdXdXdX>  X#X@X@X@X@X@X@X@X@X@X#X+X1 dXdX  e &X@X@X@X>Xc   dXdX",
"dXdXdXdX<  X#X@X@X@X@X#X#X@X@X@X#X|., dXdX  f :X@X@X=X`.;   dXdX",
"dXdXdXdX6 +X#X@X@X@X=X@XXX+X@X+X;XT @ dXdX  V ;X@X@X:Xz   dXdXdX",
"dXdXdX  w #X#X+X@X@Xh 2 6 [.#X#X=Xa   dX  * ].#X+X#X#X4   dXdXdX",
"dXdXdX  i ;X@X+X=XL     a *X@X:Xn   dXdX  p ;X@X@X;XG . dXdXdXdX",
"dXdXdX  f :X@X+X:XB   7 XX#X:XH %   dXdX  C :X@X#X=Xr   dXdXdXdX",
"dXdXdX  x :X@X#X:Xa 6 {.&X=XI ;   dXdX  % `.%X+X=XU $ dXdXdXdXdX",
"dXdXdX  C ;X@X@X+XK XX=X=XT ;   dXdXdX  q #X#X+X:Xk   dXdXdXdXdX",
"dXdXdX+ P =X@X@X@X=X#X@X&XL b i   dXdX  N :XXX$XE : O dXdXdXdXdX",
"dXdX  ; }.#X@X@X@X@X@X@X+X&X:X:Xs     % T '.)._./.S.(.dXdXdXdXdX",
"dXdX  4 +X#X@X@X#X:X:X=X&X#X@X=XG     0 ~.5XU.A.C.A.L.3X^.dXdXdX",
"dXdX  r &X@X@X#X}.M f y S =X@X=XL @   J.W.N.d.c.c.r.<X6XW.D.dXdX",
"dXdX  k :X@X@X;XV       s =X+X:XA   3 P.m.e.c.c.y.U.iX7Xr.T.dXdX",
"dXdX  Z :X@X@X;Xp   > v {.=X#X#X8 O 2.N.c.c.c.c.s.9XaX8.d.Z.7.dX",
"dXdX+ P &X@X#X+Xi k {.:X#X@X:Xc   dX..k.c.c.c.y.Q.uX2Xy.c.c.#.dX",
"dX  = }.#X@X+X+XXX=X#X@X+X;XG %   dX/ k.c.d.s.c.wXeXZ.c.c.c.| dX",
"dX  6 @X#X+X@X@X#X@X@X@X;X`.>     O ' 9.I.8X1X!.aX4Xe.e.e.p.[ dX",
"dX  i ;X@X@X@X@X@X@X=X:X{.e       l F.@.+.qXpXtX0Xi.0.q.u.*.) dX",
"dX  n >X+X+X+X+X*X:XT g ;   dX  f ;XK. .=.} rXyX,XO.@.*.a.{ dXdX",
"dX. H ;X#X%X;X:X@Xv *   dXdXdX  D :X XG.%.;.6.R...;.4.4.#.^ dXdX",
"  & Q +XXXT S j 1     dXdXdXdX  j :X:XOXH.>.,.<.5.1.<.] ! dXdXdX",
"dX@ < < > @       dXdXdXdXdXdX  . y N z 6 - d ` _ ( ^ dXdXdXdXdX",
"dXdX      dXdXdXdXdXdXdXdXdXdXdX          dXdXdXdXdXdXdXdXdXdXdX"
};
