/* XPM */
static char *boa_constructor[] = {
/* columns rows colors chars-per-pixel */
"32 32 171 2 ",
"   c black",
".  c #03160583002A",
"X  c #02E604DA00B1",
"o  c #035D05ED0031",
"O  c #036B040D0274",
"+  c #047107F00049",
"@  c #11B71F98017A",
"#  c #3DAB6EB90381",
"$  c #47ED78900DB3",
"%  c #494C79EF1071",
"&  c #7F7F7F7F0000",
"*  c #5BC474263B0A",
"=  c #3E04700C513B",
"-  c #2E0852BD7014",
";  c #46AA7E2142CD",
":  c #470E7E3B43C8",
">  c #6A357A075821",
",  c #79747BC6769D",
"<  c #7C757E6B7A1E",
"1  c #7C3C7C3C7C3C",
"2  c #7E557FCB7C8B",
"3  c gray50",
"4  c red",
"5  c #4B97868C03C8",
"6  c #5DE0A8FA06EB",
"7  c #5F5FA7EA0B11",
"8  c #5DE0A8FA0CE9",
"9  c #5AFFB6FF0101",
"0  c #6363B7B70404",
"q  c #62FFB9FF0100",
"w  c #6565BFBF0000",
"e  c #6868BBBB0707",
"r  c #6262B1B10909",
"t  c #6363B1B10F0F",
"y  c #6565B4B40D0D",
"u  c #6868BCBC0808",
"i  c #6868BCBC0909",
"p  c #6868BDBD0B0B",
"a  c #69FFBF000B01",
"s  c #6868BBBB0E0E",
"d  c #6868BABA0F0F",
"f  c #6011AEA215B5",
"g  c #6565B2B21111",
"h  c #6565B5B51010",
"j  c #6767B7B71515",
"k  c #69B3BCB210B3",
"l  c #6969BCBC1212",
"z  c #6A6AB9B91717",
"x  c #6BFFBCFF1501",
"c  c #5E258F412657",
"v  c #5EAD886A2CDC",
"b  c #5F7993AD240A",
"n  c #50948E0C3128",
"m  c #50948EE13128",
"M  c #600589C32E34",
"N  c #629C923A2C4A",
"B  c #6A6AC6C60000",
"V  c #6D6DC4C40303",
"C  c #6B6BC1C10707",
"Z  c #6C6CC1C10606",
"A  c #6F6FC7C70606",
"S  c #6F6FC7C70707",
"D  c #6B6BC8C80000",
"F  c #6D6DC8C80000",
"G  c #6F6FC9C90202",
"H  c #6B6BC3C30909",
"J  c #6E6EC2C20B0B",
"K  c #6E6EC6C60808",
"L  c #6969C0C00F0F",
"P  c #7000C9FF0301",
"I  c #7070C9C90404",
"U  c #7070CACA0404",
"Y  c #70CDCACC04CE",
"T  c #7171CACA0707",
"R  c #7272CBCB0707",
"E  c #71C0CABF07C1",
"W  c #727DCAC607FA",
"Q  c #7272CBCB0808",
"!  c #7373CBCB0808",
"~  c #72CDCACC08CE",
"^  c #7272CBCB0909",
"/  c #7373CBCB0909",
"(  c #73CDCBCC09CE",
")  c #7373CACA0B0B",
"_  c #7575CBCB0B0B",
"`  c #7575CBCB0E0E",
"'  c #7676CBCB0F0F",
"]  c #7575CCCC0C0C",
"[  c #7575CCCC0D0D",
"{  c #7777CCCC1111",
"}  c #7C7CCECE1818",
"|  c #2BF5BD3571DB",
" . c #4B97868C43C8",
".. c #77D99B644D50",
"X. c #77E69AB84ECC",
"o. c #75D8810F6834",
"O. c #7DD88C046D03",
"+. c #8383CFCF2525",
"@. c #80E1C72D2CE9",
"#. c #8383CFCF2929",
"$. c #8787D0D02C2C",
"%. c #88CDD2CC2ECD",
"&. c #88B6CC1534BF",
"*. c #8787C8C83F3F",
"=. c #8B8BD0D03535",
"-. c #8C8CD0D03636",
";. c #8D8DD4D43737",
":. c #8F8FD3D33E3E",
">. c yellow",
",. c #9F8EBE797710",
"<. c #8A8ACBCB4141",
"1. c #92CCD6CC40CD",
"2. c #9797D6D64B4B",
"3. c #9A9AD9D94F4F",
"4. c #96B9CC35549A",
"5. c #9A9AD7D75151",
"6. c #9ADED24B55D3",
"7. c #9E9EDBDB5555",
"8. c #A11DC37A72C3",
"9. c #A684C56F7E06",
"0. c #13EF2499AE4E",
"q. c #44C35CCD9804",
"w. c #49465D42A1A1",
"e. c #1B962769C0A4",
"r. c #24362962D373",
"t. c #047107D8E830",
"y. c #0257038BEF21",
"u. c #033F05E8F12C",
"i. c #00DA0186F735",
"p. c #027D0481F827",
"a. c #00000000F8F8",
"s. c #02D604CAF888",
"d. c #00000000FF05",
"f. c blue",
"g. c #0205F11CECEC",
"h. c cyan",
"j. c #800080008000",
"k. c #94EC9562942D",
"l. c #9744994094E8",
"z. c gray60",
"x. c #A013B78E81E3",
"c. c #A5A7BE0A8635",
"v. c #A562B95E8BDA",
"b. c #A87EA9A0A749",
"n. c #ADCAADCAADCA",
"m. c #AFB8B061AEBA",
"M. c #B2B2B2B2B2B2",
"N. c #C000E6FF9100",
"B. c #C1C1E7E79494",
"V. c #C4C4E8E89797",
"C. c #C041C261BE57",
"Z. c #CACAE9E9A7A7",
"A. c #CECEEAEAADAD",
"S. c #D0D0EDEDADAD",
"D. c #C46BC551C339",
"F. c #C88CC941C78E",
"G. c #CA89CB3AC9AF",
"H. c gray80",
"J. c #DCDCF1F1C3C3",
"K. c #DAECE062D3BD",
"L. c #E5E5F3F3D5D5",
"P. c #EBEBF7F7DEDE",
"I. c gray90",
"U. c #EEFEF7FEE5FF",
"Y. c #F3F3FAFAEBEB",
"T. c #F5F5FAFAEDED",
"R. c #F9F9FCFCF4F4",
"E. c #F9F9FCFCF6F6",
"W. c #FBFBFDFDF8F8",
"Q. c gray100",
"!. c None",
/* pixels */
"Q.Q.Q.Q.Q.Q.Q.    !.      Q.Q.Q.Q.Q.Q.Q.Q.Q.Q.Q.Q.Q.Q.Q.Q.Q.Q.Q.",
"Q.Q.Q.Q.Q.Q.  f.f.  f.f.f.  Q.Q.Q.Q.Q.Q.Q.Q.Q.Q.Q.Q.Q.Q.Q.Q.I.z.",
"Q.Q.H.M.H.              f.f.  M.H.M.H.M.H.M.H.H.H.M.H.M.H.M.z.j.",
"Q.Q.M.H.M.  & >.  & >.&   f.  H.M.H.M.H.M.H.M.M.M.H.M.H.M.M.j.j.",
"Q.Q.M.H.z.  >.  & >.    & f.  j.z.j.z.j.j.j.j.j.j.z.z.Q.H.H.j.j.",
"Q.Q.H.M.j.  >.  & >.    & f.  H.M.M.M.H.M.M.H.M.M.M.M.Q.M.H.j.j.",
"Q.Q.M.H.z.  & >.  & >.&   f.    H.H.M.M.H.H.M.H.M.H.M.Q.M.H.j.j.",
"Q.Q.H.M.        f.      f.f.f.        H.H.M.H.M.H.M.H.Q.H.M.j.j.",
"Q.Q.    f.f.f.f.f.f.f.f.f.f.f.  f.f.f.    M.M.H.M.H.M.Q.H.M.z.j.",
"Q.  f.f.f.f.f.f.f.f.f.f.f.f.f.h.  f.f.f.f.  H.H.M.H.H.Q.M.H.j.j.",
"  f.f.f.f.f.f.f.f.f.f.f.h.f.h.h.h.  f.f.f.f.  M.H.M.H.Q.M.H.j.j.",
"  f.  f.f.  f.f.f.f.h.f.h.h.h.h.h.  f.f.f.f.  H.M.H.M.Q.H.M.j.j.",
"  f.f.f.f.f.f.f.h.f.h.h.    h.h.h.  f.f.f.f.f.  H.M.H.Q.M.H.j.j.",
"  h.h.f.h.f.h.f.h.h.h.    h.f.h.  h.f.f.f.f.f.  M.H.M.Q.H.M.j.j.",
"  h.h.h.h.h.h.h.h.      f.h.h.  h.h.h.f.f.f.f.  H.M.M.Q.H.M.z.j.",
"Q.  h.f.h.f.h.f.      h.f.h.    f.f.h.f.f.f.f.  M.H.H.Q.M.M.j.j.",
"Q.Q.      4 4       f.h.h.  H.  h.h.h.f.f.f.f.  M.H.M.Q.H.M.z.j.",
"Q.Q.    4 4     f.h.h.h.  H.M.  f.h.f.f.f.f.o F.D.n.G.Q.M.H.j.j.",
"Q.Q.  4 4 h.f.h.h.h.    M.H.  h.h.f.f.f.a.r.* 9.8.,.c.K.n.H.j.j.",
"Q.Q.4 4 h.h.h.h.    M.H.  f.f.h.f.f.f.y.w.4.$.} [ } +.6.v.b.j.j.",
"Q.4 4           H.H.M.  h.h.h.f.f.f.a.q.-.[ A ! ! F 1.7.=.x.1 j.",
"4 Q.4 H.z.M.H.M.M.  f.f.h.h.f.f.f.f.e.@._ ! ) ! F %.T.N.D &.o.  ",
"Q.Q.4 M.j.M.H.    h.h.h.f.f.f.f.f.s.$ ` ! ! ! ! Y V.E.B ! ` % o ",
"Q.Q.M.H.z.M.  f.f.f.h.f.f.f.f.f.f.o 5 ! ! ! ! F ;.Y.3.A ! !  .o ",
"Q.Q.H.M.z.M.  h.h.h.f.f.f.f.f.f.  t.n Y / Y F _ S.J.{ ! ! ! m + ",
"Q.Q.M.H.j.  h.h.h.h.f.f.f.f.f.  f.u.; Z #.B.2.:.W.5.A ! A H : o ",
"Q.Q.H.M.z.  f.f.f.h.f.f.f.f.f.f.f.p.= i B A.E.P.Z.J C Z H i # l.",
"Q.Q.M.H.j.  h.h.h.h.f.f.f.f.f.f.f.f.0.8 i 9 L.U.<.q i i L 6 > 1 ",
"Q.Q.H.M.M.  h.h.h.h.h.f.f.f.f.f.h.f.i.- y s x *.0 d z z r ..k.1 ",
"Q.Q.H.M.M.H.  f.f.f.h.h.h.h.h.    h.h.g.| f g h z j t 8 X.D.j.j.",
"Q.Q.j.j.j.j.j.  h.h.h.f.h.    j.j.        @ M N b c M O.1 j.j.j.",
"Q.j.j.j.j.j.j.z.          z.j.j.j.j.j.z.j.j.1 1 , 1 O.j.j.j.j.j."
};
