/* XPM */
static char *boincmgr_32[] = {
/* columns rows colors chars-per-pixel */
"32 32 233 2 ",
"   c #340B6367296B",
".  c #38616A0E2EEF",
"X  c #419B7B911D78",
"o  c #07071D1D4646",
"O  c #0C0C222244C5",
"+  c #0A3A253B4D91",
"@  c #0C6628934B57",
"#  c #10EA269F45F9",
"$  c #109025A64BCC",
"%  c #132429144E19",
"&  c #060626265151",
"*  c #0C0C26A75252",
"=  c #0D0D2946541B",
"-  c #0B0B27275858",
";  c #0C0C2B815A5A",
":  c #13602BC5537A",
">  c #12522E2E5ADB",
",  c #0DD5314E5ED0",
"<  c #141430305656",
"1  c #19B330FE54BB",
"2  c #156632765C0B",
"3  c #199333E55BF6",
"4  c #20203A3A5757",
"5  c #0D0D34F56565",
"6  c #0C8D35B66CED",
"7  c #0D0D3B3B6A6A",
"8  c #142B34C062EE",
"9  c #19C435356060",
"0  c #157C3A6D64FE",
"q  c #1C31397963B9",
"w  c #101035B669EA",
"e  c #14473BA26C39",
"r  c #1B713D206A4D",
"t  c #19193D3D7474",
"y  c #22223CBD65E6",
"u  c #21213EA56A37",
"i  c #1EC448D34913",
"p  c #2CCF48B95D83",
"a  c #159642426EEF",
"s  c #1BC641696CD2",
"d  c #146A42ED74CA",
"f  c #1B6443B171DF",
"g  c #171748487676",
"h  c #1A1A48487575",
"j  c #191944447ABA",
"k  c #29AA44C56464",
"l  c #29EA43436969",
"z  c #323247476464",
"x  c #33334D4D6363",
"c  c #313148486E6E",
"v  c #3E4E590D6C6C",
"b  c #224744D77272",
"n  c #2C2C49497575",
"m  c #29294B4B7979",
"M  c #31314D4D7272",
"N  c #2B2B52527C7C",
"B  c #3EBF585872F2",
"V  c #46465F5F7878",
"C  c #4DCE8B8B0505",
"Z  c #4F4F8E8E0808",
"A  c #50508E8E0606",
"S  c #525294940707",
"D  c #58589E9E0505",
"F  c #575798980D0D",
"G  c #585898980F0F",
"H  c #5E5EA7A70606",
"J  c #5BD0A54D098B",
"K  c #5E4EAA1109D5",
"L  c #5B5BB7B70000",
"P  c #6161ACAC0606",
"I  c #63E4B5340505",
"U  c #6436BCEE00A3",
"Y  c #6868BBBB0707",
"T  c #63B9B2B20C62",
"R  c #68B0BCA40B42",
"E  c #6262ACAC1010",
"W  c #6610B55F1212",
"Q  c #6A53BC171364",
"!  c #6B6BB2B21818",
"~  c #4EFF8EDE2063",
"^  c #76DCB5B72C7B",
"/  c #6D6DC57C052A",
"(  c #6E6EC9730157",
")  c #6C6CC3830ACB",
"_  c #7133CAD305B0",
"`  c #737DCB7E0977",
"'  c #7777CCCC1111",
"]  c #7C7CCECE1818",
"[  c #601C80775522",
"{  c #76C19BE35E02",
"}  c #7C7CA6A64646",
"|  c #B317B0A93E27",
" . c #E5E59D9D0000",
".. c #EBEBA7A70707",
"X. c #EEEEAA2A0485",
"o. c #E666A222098A",
"O. c #F1F1AE2E0586",
"+. c #F0F0ACAC0D0D",
"@. c #F426B218066D",
"#. c #F557B4B40BD1",
"$. c #F8F8B7B70D0D",
"%. c #EDEDA6A61313",
"&. c #EE3BA9E2157B",
"*. c #F0F0A4A41212",
"=. c #F3F3B55F1010",
"-. c #F9F9BCE7146A",
";. c #F6F6BBBB1E1E",
":. c #F5F5ACAC2626",
">. c #F0F0B2B22727",
",. c #F6F6BC1123CE",
"<. c #EFEFBABA3A3A",
"1. c #F8F8BD3D3535",
"2. c #8383CFCF2525",
"3. c #8383CFCF2929",
"4. c #8787D0D02C2C",
"5. c #8888D2D22E2E",
"6. c #87ADCD803291",
"7. c #8787C8C83F3F",
"8. c #8C8CD2273636",
"9. c #8F8FD3D33E3E",
"0. c #FBFBC0C01B1B",
"q. c #F7F7C0C02727",
"w. c #FAFAC41929D4",
"e. c #F7F7C3C33232",
"r. c #FCFCCACA3636",
"t. c #F9A3C419398F",
"y. c #FC7CCC4C3E3E",
"u. c #8585A9A95757",
"i. c #B894AE7E4361",
"p. c #C960B0C24982",
"a. c #EBEBBCBC4D4D",
"s. c #D531B51B623E",
"d. c #8A13C5C14305",
"f. c #8A8ACBCB4141",
"g. c #9292D6D64040",
"h. c #9797D6D64B4B",
"j. c #9A9AD9D94F4F",
"k. c #9378CC225130",
"l. c #9844C9D45F02",
"z. c #9A9AD7D75151",
"x. c #9E9EDBDB5555",
"c. c #9EA9D43C5CA1",
"v. c #FDFDCFCF4444",
"b. c #ED9FCA20557E",
"n. c #F7F7C7C75151",
"m. c #F510CC8C5109",
"M. c #FBFBCECE5454",
"N. c #FD27D5AA5AB0",
"B. c #FC7CD5546464",
"V. c #FDFDDADA6B6B",
"C. c #FDBDDE9E71F2",
"Z. c #FDFDDFDF7D7D",
"A. c #171749498484",
"S. c #22924DCD83A9",
"D. c #242450508686",
"F. c #2A2A52528383",
"G. c #25A653D48C0C",
"H. c #2C2C55558B8B",
"J. c #323254548282",
"K. c #37375E5E8888",
"L. c #3A6D5C298ABD",
"P. c #24E55ADB94B4",
"I. c #3E3E67679090",
"U. c #499F626283D9",
"Y. c #484865E68C8C",
"T. c #434365659393",
"R. c #4B4B6E6E9F9F",
"E. c #484870709797",
"W. c #4F4F71719F9F",
"Q. c #595975759595",
"!. c #59597C7C9E9E",
"~. c #606077779494",
"^. c #60607E7E9E9E",
"/. c #67677F7FA1A1",
"(. c #676780809D9D",
"). c #75758787A4A4",
"_. c #74748888A4A4",
"`. c #69EA8C0CBA3A",
"'. c #79799292B7B7",
"]. c #75759292B9B9",
"[. c #85859292A8A8",
"{. c #8A8A9898ABAB",
"}. c #9C9CA4A4ABAB",
"|. c #8B8BA1A1B8B8",
" X c #9090A2A2B7B7",
".X c #9919A5A5B737",
"XX c #9696A5A5B8B8",
"oX c #9999A5A5B8B8",
"OX c #AAAFCF8E818D",
"+X c #B359D30C8BAB",
"@X c #B703D0749763",
"#X c #BFBFE6E69090",
"$X c #C1C1E7E79494",
"%X c #C4C4E8E89797",
"&X c #FEFEE4E48484",
"*X c #FEFEE5E58C0C",
"=X c #FDFDE1E19393",
"-X c #FEFEEA3F9C9C",
";X c #CACAE9E9A7A7",
":X c #CECEEAEAADAD",
">X c #D0D0EDEDADAD",
",X c #FF3EEC2BA625",
"<X c #FF7FEBEBAAAA",
"1X c #FEFEEE6EB5B5",
"2X c #FFFFF0F0BABA",
"3X c #8282A4A4D2D2",
"4X c #A3A3B2B2C1C1",
"5X c #AEAEBDBDCDCD",
"6X c #A3A3B9B9D4D4",
"7X c #A3A3BCBCDCDC",
"8X c #BFC6D165E2D0",
"9X c #BCBCD5D5F5F5",
"0X c #DCDCF1F1C3C3",
"qX c #FFFFF2F2C6C6",
"wX c #E5E5F3F3D5D5",
"eX c #EBEBF7F7DEDE",
"rX c #FFFFF5F5D0D0",
"tX c #C36DD6D6EE43",
"yX c #C7C7D9D9EEEE",
"uX c #D2D2DFDFEEEE",
"iX c #CFCFE0E0F2F2",
"pX c #E1E3EB16E764",
"aX c #EFEFF8F8E5E5",
"sX c #FFFFF9F9E48E",
"dX c #F4F4FAFAECEC",
"fX c #FFFFFBFBEFEF",
"gX c #E1A1EDEDFB3A",
"hX c #F4ADF7D4F203",
"jX c #F666F9E5F850",
"kX c #F9F9FCFCF5F5",
"lX c #F4CAFB07FE75",
"zX c #FCDFFFCBFFD9",
"xX c None",
/* pixels */
"xXxX!.xXxXxXxXxXxXxXxXxXxXxXxXxXxXxXxXxXxXxXxXxXxXxXxXxXxXg xXxX",
"xXI.g I.xXxXxXxXxXxXxXxXxXxXxXxXxXxXxXxXxXxXxXxXxXxXxXxX|.h g xX",
"P.g g h K.xXxXxXxXxXxXxXxXxXxXxXxXxXxXxXxXxXxXxXxXxXxX X0 e 0 g ",
"xXP.g g f N xXxXxXxXxXxXxXxXxXxXxXxXxXxXxXxXxXxXxXxXXX8 9 9 G.xX",
"xXxXP.f s s b xXxXxXxXxX[.Y.c y 9 9 y l U.xXxXxXxXoX2 9 2 D.xXxX",
"xXxXxXP.s s r b xXxX{.L.b ; > 2 2 > 2 > xXxXxXxXoX2 2 1 d xXxXxX",
"xXxXxXxXP.r r 3 y y > > 5 3 r b b 0 4 xXlXxXxXoX9 9 1 w xXxXxXxX",
"xXxXxXxXxXD.q y 3 5 8 0 ].zXlXzXzXyXgXlXlXhX}.9 q q 6 xXxXxXxXxX",
"xXxXxXxXxXxXj 8 8 , m zXzXzXzXzXzXzXzXzXzX`.9 9 y 8 xXxXxXxXxXxX",
"xXxXxXxXxXxXtXA., J.zXzXzXzXzXzXzXzXzXzXzX9XT.0 3 q /.xXxXxXxXxX",
"xXxXxXxXxXxXxXiXL.zXzXzXzX1X=XC.B.M.V.zXzXzXtXL.2 r q xXxXxXxXxX",
"xXxXxXxXl xXlXzXzXzXzXzX<XsXzXfXrX-XV.t.zXzXzX3Xn q r /.xXxXxXxX",
"xXxXxXxX: = zXlXzXzXzX*XqXsXsXrX2X-X&XN.t.zXzXzXW.H.S.u xXxXxXxX",
"xXxXxXxX+ = q gXzXzXZ.,XqX2X<X,X,X-X*XV.w.n.zXzX6XY.n 9 xXxXxXxX",
"xXxXxX'.= : M tXzXzXN.*X,X*X*X*XZ.N.y.w.+.>.zXzXzXz l 2 xXxXxXxX",
"xXxXxX_.2 s Q.zXzXzX1.N.N.v.r.w.0.-.$.#.O.%.zXzXzX1 * O xXxXxXxX",
"xXxXxX[.u s U.zXzXzX,.#.-.-.-.-.-.#.@.@.O.*.zXzXzX1 $ o xXxXxXxX",
"xXxXxX).: % < zXzXzX .X.#.$.#.#.@.@.@.$.+.:.kXjX8X# % + xXxXxXxX",
"xXxXxX'.% % & 4XzXzXa. .@.@.@.@.#.#.q.e.&.s.@X+XOX{ [ p xXxXxXxX",
"xXxXxXxX3 % - k zXzXzXo...=.,.;.e.y.C.b.i.c.5.] ' ] 2.k.u.xXxXxX",
"xXxXxXxXL.+ + + 5XzXzXzXo.,.t.N.B.C.m.| 8.' _ _ ` ( 9.x.8.} xXxX",
"xXxXxXxXxX> + + 3 zXzXzXzX<.#.=.=.$.p.6.` _ ` ` ( 5.dX#X( 6.xXxX",
"xXxXxXxXxXL.& = = l zXzXzXzXzXzXzXjXl.' _ ` _ _ _ %XkX( _ ' ! xX",
"xXxXxXxXxXxX< + + - x zXzXzXzXzXzXhXd.` ` ` ` ( 8.dXj.( ` ` I xX",
"xXxXxXxXxXU.: % : e 6XzXlXzXgXuXlXpX^ ` ` ( ( ` >X0X' ` ` ` P xX",
"xXxXxXxX~.2 > : w 7XxXlXxX2 k B V v ~ / 3.%Xh.9.kXz./ ` / / P xX",
"xXxXxX(., , : 0 xXxXxXxX+ = + + + @ X Y U :XkXeX;X) Y / ) Y D xX",
"xXxX^.5 5 5 0 xXxXxXxXR.t > = * + + i K Y L wXaXf.U Y R ) K xXxX",
"xX!.7 a 5 b xXxXxXxXxXxXxXxXxXxXxXxXxXZ T Q Q f.I Q R Q T . s xX",
"E.a a r D.xXxXxXxXxXxXxXxXxXxXxXxXxXxXxXC E W T Q W W J   2 a s ",
"xXP.d P.xXxXxXxXxXxXxXxXxXxXxXxXxXxXxXxXxXxXA G F S C xXS.2 < xX",
"xXxXP.xXxXxXxXxXxXxXxXxXxXxXxXxXxXxXxXxXxXxXxXxXxXxXxXxXxXF.xXxX"
};
