/* XPM */
static char *bouncy[] = {
/* columns rows colors chars-per-pixel */
"32 32 207 2 ",
"   c black",
".  c #060606060606",
"X  c gray4",
"o  c #0E0E0E0E0E0E",
"O  c #111111111111",
"+  c #151515151515",
"@  c #184F184F184F",
"#  c #191919191919",
"$  c #1BF81CA41B5E",
"%  c #1C161C161C18",
"&  c #1F72301C0D25",
"*  c #213221322132",
"=  c #222222222222",
"-  c #252525252525",
";  c gray17",
":  c #2D2D2D2D2D2D",
">  c #319B3F7B215D",
",  c gray20",
"<  c #351F374A331A",
"1  c #373737373737",
"2  c #393939393939",
"3  c #3F3F3F3F3F3F",
"4  c #480C71C9163A",
"5  c #4FC57F641974",
"6  c #58937D492F35",
"7  c #58FE7BD13077",
"8  c gray26",
"9  c #464646464646",
"0  c gray29",
"q  c #4E4E4E4E4E4E",
"w  c #515151515151",
"e  c #565656565656",
"r  c #5A5A5A5A5A5A",
"t  c gray36",
"y  c gray39",
"u  c #656565656565",
"i  c #686868686868",
"p  c gray43",
"a  c gray45",
"s  c #777777777777",
"d  c gray48",
"f  c gray49",
"g  c #4B4B88880303",
"h  c #4D4D8A8A0404",
"j  c #4E4E8C8C0404",
"k  c #525294940707",
"l  c #58589E9E0505",
"z  c #54BB88EF194C",
"x  c #5D5DA7A70707",
"c  c #5E5EA7A70606",
"v  c #5F5FABAB0707",
"b  c #5F9BAAB50AA0",
"n  c #5BEFB7EE00F0",
"m  c #6161ACAC0606",
"M  c #6464B2B20606",
"N  c #6363B7B70404",
"B  c #631BBA1B011C",
"V  c #6565BFBF0000",
"C  c #6868BBBB0707",
"Z  c #6262B1B10909",
"A  c #6363B1B10F0F",
"S  c #6565B4B40D0D",
"D  c #6868BCBC0808",
"F  c #6868BCBC0909",
"G  c #6868BDBD0B0B",
"H  c #6A6ABEBE0A0A",
"J  c #6868BBBB0E0E",
"K  c #6868BABA0F0F",
"L  c #63EBAC761389",
"P  c #6565B2B21111",
"I  c #6565B5B51010",
"U  c #6767B7B71515",
"Y  c #6969BCBC1010",
"T  c #6969BCBC1212",
"R  c #6A6AB9B91717",
"E  c #6CE9BDE814EA",
"W  c #6B6BB2B21818",
"Q  c #78C4B63C2D2C",
"!  c #717AA3833865",
"~  c #7C5DB3D43A42",
"^  c #6A6AC6C60000",
"/  c #6D6DC4C40303",
"(  c #6B6BC1C10707",
")  c #6C6CC1C10606",
"_  c #6F6FC7C70606",
"`  c #6F6FC7C70707",
"'  c #6B6BC8C80000",
"]  c #6D6DC8C80000",
"[  c #6F6FC9C90202",
"{  c #6B6BC3C30909",
"}  c #6E6EC2C20B0B",
"|  c #6E6EC6C60808",
" . c #6969C0C00F0F",
".. c #7070C9C90404",
"X. c #706ACA960434",
"o. c #7171CACA0707",
"O. c #7272CBCB0707",
"+. c #71D0CACF07D1",
"@. c #7272CACA0808",
"#. c #72FECAFD07FF",
"$. c #7272CBCB0808",
"%. c #7373CBCB0808",
"&. c #72E9CAE808EA",
"*. c #7324CB240925",
"=. c #7272CBCB0909",
"-. c #7373CBCB0909",
";. c #7373CACA0B0B",
":. c #7575CBCB0B0B",
">. c #7575CBCB0E0E",
",. c #7676CBCB0F0F",
"<. c #7575CCCC0C0C",
"1. c #7575CCCC0D0D",
"2. c #7777CCCC1111",
"3. c #7C7CCECE1818",
"4. c #7C7CA6A64646",
"5. c #8383CFCF2525",
"6. c #8383CFCF2929",
"7. c #8787D0D02C2C",
"8. c #8888D2D22E2E",
"9. c #8787CCCC3131",
"0. c #87DACE2633E2",
"q. c #8787C8C83F3F",
"w. c #8B8BD0D03535",
"e. c #8C8CD0D03636",
"r. c #8D8DD4D43737",
"t. c #8F8FD3D33E3E",
"y. c #8585A9A95757",
"u. c #8007940365F0",
"i. c #8A57C54C4288",
"p. c #8A8ACBCB4141",
"a. c #9221D6214022",
"s. c #9797D6D64B4B",
"d. c #9A9AD9D94F4F",
"f. c #952ACC985020",
"g. c #989BC93E5E61",
"h. c #9A9AD7D75151",
"j. c #9E9EDBDB5555",
"k. c #9C0CD18759EC",
"l. c #AC2BCE887DD1",
"z. c #808080808080",
"x. c #848484848484",
"c. c #88B289E78790",
"v. c gray54",
"b. c #8D8D8D8D8D8D",
"n. c #909090909090",
"m. c gray59",
"M. c #989898989898",
"N. c gray62",
"B. c #A213A213A213",
"V. c gray64",
"C. c gray65",
"Z. c #A97CAEA8A203",
"A. c #A9A9A9A9A9A9",
"S. c #ACACACACACAC",
"D. c #B08DB291AE40",
"F. c #B4F2BA68ADC3",
"G. c gray70",
"H. c #B4B4B4B4B4B4",
"J. c gray73",
"K. c gray74",
"L. c #ACACCB98842E",
"P. c #AE03CCEE8585",
"I. c #AAB9C31C89FF",
"U. c #AEA4C6AE9074",
"Y. c #AFCBC82E905A",
"T. c #BFBFE6E69090",
"R. c #C1C1E7E79494",
"E. c #C4C4E8E89797",
"W. c #CCE1D8B4BF3D",
"Q. c #CACAE9E9A7A7",
"!. c #CECEEAEAADAD",
"~. c #D0D0EDEDADAD",
"^. c #C3C3C3C3C3C3",
"/. c gray78",
"(. c #CACACACACACA",
"). c gray81",
"_. c LightGray",
"`. c #D5D5D5D5D5D5",
"'. c #D76DDAD4D345",
"]. c #D9BBDC63D6B8",
"[. c #DADADADADADA",
"{. c #DC93DD79DB61",
"}. c gainsboro",
"|. c #DCDCF1F1C3C3",
" X c #E5E5F3F3D5D5",
".X c #EBEBF7F7DEDE",
"XX c gray89",
"oX c #E3FAE49CE303",
"OX c #E6E6E6E6E6E6",
"+X c gray91",
"@X c #EEEEEEEEEEEE",
"#X c #EFFDF8FDE5FD",
"$X c #F0BAF16FEFBC",
"%X c #F368F5F1F036",
"&X c #F3F3FAFAEBEB",
"*X c #F5F5FAFAEDED",
"=X c gray94",
"-X c #F6F8F6F8F6F8",
";X c #F773F823F698",
":X c #F778F821F67A",
">X c #F8DBFACFF696",
",X c #F9F9FCFCF4F4",
"<X c #F9F9FCFCF6F6",
"1X c gray98",
"2X c #FBFBFDFDF8F8",
"3X c #FDFDFDFDFDFD",
"4X c None",
/* pixels */
"4X4X4X4X4X4X4X4X4X4X4X4X4X4X4X4X4X4X4X4X4Xb.e e 4X4X4X4X4X4X4X4X",
"4X4X4X4X4X4X4X4X4X4X4X4X4X4X4X4X4X4X4X4Xb.w z.z.3 4X4X4X4X4X4X4X",
"4X4X4X4X4X4X4X4X4X4X4X4X4X4X4X4X4X4X4Xb., /.XXOXC.0 4X4X4X4X4X4X",
"4X4X4X4X4X4X4X4X4X4X4X4X4X4X4X4X4X4X4X, v.^.XXOX[.z.- 4X4X4X4X4X",
"4X4X4X4X4X4X4X4X4X4X4X4X4X4X4X4X4X4X% i G.G.^.XXOX`.: 4X4X4X4X4X",
"4X4X4X4X4X4X4X4X4X4X4X4X4X4X4X4X4X4XX s G.G.G.).OXOX9 4X4X4X4X4X",
"4X4X4X4X4X4X4X4X4X4X4X4X4X4X4X4X4X4X+ x.S.G.G.G.[.OX9 4X4X4X4X4X",
"4X4X4X4X4X4X4X4X4X4X4X4X4X4X4X4X4X4Xo p G.i 3 8 z.H.# 4X4X4X4X4X",
"4X4X4X4X4X4X4X4X4X4X4X4X4X4X4X4X4X4X3 3 u 3 N.A.9 : 1 4X4X4X4X4X",
"4X4X4X4X4X4X4X4X4X4X4X4X4X4X4X4X4X4X4X= y C.G.S.x.1 : 4X4X4X4X4X",
"4X4X4X4X4X4X4X4X4X4X4X4X4X4X4X4X4X4X0 8 S.G.G.G.H.a o 2 4X4X4X4X",
"4X4X4X4X4X4X4X4X4X4X4X4X4X4X4X4X4X4X1 f G.G.G.G.G.G.w v.- 4X4X4X",
"4X4X4X4X4X4X4X4X4X4X4X4X4X% : : - , . f G.G.G.G.G.G.w OXr 4X4X4X",
"4X4X4X4X4X4X4X4X4X4X4X4X: a S./._.u % u G.S.S.G.G.G.2 @XA.# 4X4X",
"4X4X4X4X4X4X4X4X4X4X4Xq A.K.}.OX+X8 e   G.G.G.G.G.S.e -X[.: 4X4X",
"4X4X4X4X4X4X4X4X4X4X2 V.H.}.OX=X1X2 d 2 S.G.S.G.G.y G.3X@X1 4X4X",
"4X4X4X4X4X4X4X4X4X; z.G.(.OX@X3X1Xs i V.e G.(.XXz.b.1X3X).; 4X4X",
"4X4X4X4X4X4X4X4X4X, M.G.`.OX-X3X3X^.s m.b.G.XX$X{.-X;X-Xv.- 4X4X",
"4X4X4X4X4X4X4X4X+ q C.H.OXOX3X3X3X3X+Xx.V.Z.I.L.l.L.Y.F.= 4X4X4X",
"4X4X4X4X4X4X4X%   s A.H.OXXX3X3X3X3XOXc.u.k.7.3.1.3.5.f.y.4X4X4X",
"4X4X4X4X4X4X- n.t a C.G.}.XX-X3X3X3X-XU.e.1._ o.%.[ a.j.w.4.4X4X",
"4X4X4X4X4Xf e }.n.r N.G._.OX@X3X3X3XW.0.:.%.;.%.[ 7.*XT.' 9.4X4X",
"4X4X4X4X4Xo z.XX(.2 v.G.J.OXOX=X3X>Xg.>.%.%.%.%._ E.<X^ %.1.W 4X",
"4X4X4X4X4X4Xo /.+X0 s C.G.`.OXOX-X%Xi.%.%.%.%.] r.&Xd.[ %.O.M 4X",
"4X4X4X4X4X4X4Xo m.y 1 z.S.H._.OXOX'.Q o.%.o.[ %.~.|.2.o.%.%.m 4X",
"4X4X4X4X4X4X4X4XX ; X e v.G.G.J.`.].~ ` 6.R.s.t.2Xd.` ` ` | c 4X",
"4X4X4X4X4X4X4X4X4Xw G._.p a m.A.G.D.! C V !.>X.XQ.} ( ( ( H l 4X",
"4X4X4X4X4X4X4X4Xu ).OX-X=Xz.8 , 2 % & b F n  X#Xp.B F H  .v 4X4X",
"4X4X4X4X4X4X4XO b.K.}.XX+X@X=X=Xe 4X$ 6 S J E q.N J T T Z h 4X4X",
"4X4X4X4X4X4X4X4Xw n.S././.^.^.f 1 4X4X< 7 L P I R U A x g 4X4X4X",
"4X4X4X4X4X4X4X4X4X# : , , 3 O = 4X4X4X4X# > 4 5 z k j 4X4X4X4X4X",
"4X4X4X4X4X4X4X4X4X4X4X4X4X4X4X4X4X4X4X4X4X4X4X4X4X4X4X4X4X4X4X4X"
};
