/* XPM */
static char *chatzilla[] = {
/* columns rows colors chars-per-pixel */
"32 32 250 2 ",
"   c #00B900B60061",
".  c #090907070404",
"X  c #047107D80049",
"o  c #0F8F0F8F0F8F",
"O  c #171715150606",
"+  c #10D812F80EEE",
"@  c #000008081818",
"#  c #080810101818",
"$  c #101E102B1011",
"%  c #111118181B1B",
"&  c #1CE82AEF0C60",
"*  c #272725250101",
"=  c #101018182121",
"-  c #101018182929",
";  c #181821212929",
":  c #23232D2D3737",
">  c #762A2DBF002A",
",  c #78172FD7176F",
"<  c #7B7B39391818",
"1  c #339B57260912",
"2  c #3A7A643708A9",
"3  c #3E04700C04EF",
"4  c #434340400000",
"5  c #4D4D49490000",
"6  c #51514E4E0000",
"7  c #484849491515",
"8  c #402843E51D75",
"9  c #60A95BC70000",
"0  c #720E5E2815F3",
"q  c #436773C50C58",
"w  c #49167D4A0DA7",
"e  c #73736E6E0000",
"r  c #7DCE6ED311B7",
"t  c #7D397A5613D3",
"y  c #7B7B42422121",
"u  c #4C7063EB2E40",
"i  c #5C9E712521C2",
"p  c #212131314242",
"a  c #292939394A4A",
"s  c #323244445555",
"d  c #313142425A5A",
"f  c #39394A4A5A5A",
"g  c #34344C4C6565",
"h  c #3A904CA26464",
"j  c #3A0751EB6B04",
"k  c #42424A4A5252",
"l  c #47475A5A6363",
"z  c #42425A5A6B6B",
"x  c #42425A5A7373",
"c  c #45455C5C7A7A",
"v  c #4A4A63637373",
"b  c #4A4A63637B7B",
"n  c #525263637373",
"m  c #525263637B7B",
"M  c #52526B6B7B7B",
"N  c #5A5A6B6B7B7B",
"B  c #8AFF54FF1E07",
"V  c #B19F48F11EA9",
"C  c #91915D5D2020",
"Z  c #BDBD4A4A2121",
"A  c #BDBD52522121",
"S  c #BDBD5A5A2929",
"D  c #90906D6D2626",
"F  c #8F8F79792828",
"G  c #810873CE3B11",
"H  c #B6EC625F2415",
"J  c #BCBC64642525",
"K  c #BCBC6B6B2525",
"L  c #BDBD63632929",
"P  c #BCBC6E6E2828",
"I  c #CECE73732929",
"U  c #50948E0C04FC",
"Y  c #58589E9E0505",
"T  c #700C976A03C8",
"R  c #5E38A61206BA",
"E  c #5E21A93A072B",
"W  c #5BC2B75E0024",
"Q  c #6161ACAC0606",
"!  c #602DAA40095E",
"~  c #63E4B5340505",
"^  c #64B3BD110094",
"/  c #6868BBBB0707",
"(  c #63B9B2B20C62",
")  c #68D2BCA80B39",
"_  c #6488AA2B1077",
"`  c #6610B55F1212",
"'  c #6AAFBC09135C",
"]  c #6B6BB2B21818",
"[  c #6D6DC57C052A",
"{  c #6E82C963015D",
"}  c #6C6CC3830ACB",
"|  c #7187CAC305E6",
" . c #7396CB880989",
".. c #7777CCCC1111",
"X. c #7C7CCECE1818",
"o. c #6FE78ED34769",
"O. c #8E8E87870000",
"+. c #95958D8D0000",
"@. c #9A9A93930000",
"#. c #817DB5C8048F",
"$. c #989BBDC30DB3",
"%. c #AEAEA5A50101",
"&. c #B0B0A7A70000",
"*. c #B4B4ACAC0000",
"=. c #BDBDB5B50707",
"-. c #B9B99D9D3535",
";. c #C1C182822E2E",
":. c #C2C28D8D3131",
">. c #CB2986D23DFC",
",. c #DEDE87873434",
"<. c #C2C298983434",
"1. c #E8E887873333",
"2. c #E8E88C8C3535",
"3. c #F7F795953535",
"4. c #CECEB3B33535",
"5. c #E9E9A5A53B3B",
"6. c #F63EA5663AAF",
"7. c #F3F3AD023C3C",
"8. c #8383CFCF2525",
"9. c #85B5CEE92B09",
"0. c #87C3D1672D16",
"q. c #843FC79E3048",
"w. c #8787C8C83F3F",
"e. c #8C8CD2273636",
"r. c #8F8FD3D33E3E",
"t. c #B634CE3E2693",
"y. c #BBB8CC1D2F2F",
"u. c #B53ACBCD3B0A",
"i. c #CFCFC5C50000",
"p. c #D1D1C7C70101",
"a. c #D4D4C9C90000",
"s. c #D9D9CECE0000",
"d. c #CE48D5330DF2",
"f. c #DC4AD32E00D0",
"g. c #E376CB290091",
"h. c #E3E3D7D70000",
"j. c #E4D0DA1B011E",
"k. c #EBEBDFDF0101",
"l. c #EDEDE3E30000",
"z. c #F01AEAED009A",
"x. c #F51CEE87009D",
"c. c #F9F9ECEC0000",
"v. c #FFFFF52D0000",
"b. c #FE86FD630000",
"n. c #B53AAFE95154",
"m. c #FFFFBBBB4242",
"M. c #8A8ACBCB4141",
"N. c #9A2CCE5B4F3E",
"B. c #92FED69A4036",
"V. c #9797D6D64B4B",
"C. c #9A9AD9D94F4F",
"Z. c #9CAED5E952F5",
"A. c #9E9EDBDB5555",
"S. c #AFE2CD774769",
"D. c #A94DCA074E52",
"F. c #ECECC6C64545",
"G. c #F2F2C4C44343",
"H. c #FBFBCDCD4646",
"J. c #4AE863DA84D3",
"K. c #4A4A6B6B8484",
"L. c #4A4A6B6B8C8C",
"P. c #52526F6F8787",
"I. c #5A5A6B6B8484",
"U. c #521B6B908C1E",
"Y. c #5A5A73738484",
"T. c #525273738C8C",
"R. c #525273739491",
"E. c #5A5A73739494",
"W. c #52527B7B9494",
"Q. c #5A5A7B7B9494",
"!. c #5A5A7B7B9C9C",
"~. c #636373738C8C",
"^. c #63637B7B9C9C",
"/. c #676784849C9C",
"(. c #737384849494",
"). c #5A5A8484A5A5",
"_. c #63638484A5A5",
"`. c #6B6B8484A5A5",
"'. c #6B6B8C8CA5A5",
"]. c #63638484ADAD",
"[. c #63638C8CADAD",
"{. c #6B6B8C8CADAD",
"}. c #73738C8CA5A5",
"|. c #73738C8CADAD",
" X c #7B7B9494ADAD",
".X c #63638C8CB5B5",
"XX c #6B6B8C8CB5B5",
"oX c #6B6B9494B5B5",
"OX c #6B6B9494BDBD",
"+X c #73739494B5B5",
"@X c #73739494BDBD",
"#X c #73739C9CBDBD",
"$X c #73739C9CC6C6",
"%X c #7B7B9C9CC6C6",
"&X c #7B7BA5A5C6C6",
"*X c #7373A5A5CECE",
"=X c #7B7BA5A5CECE",
"-X c #7B7BADADD6D6",
";X c #84849494A5A5",
":X c #84849494B5B5",
">X c #84849C9CB5B5",
",X c #8C8C9C9CB5B5",
"<X c #84849C9CBDBD",
"1X c #9494ADADBDBD",
"2X c #BFEAE67B902D",
"3X c #C1C1E7E79494",
"4X c #C4C4E8E89797",
"5X c #CACAE9E9A7A7",
"6X c #CECEEAEAADAD",
"7X c #D0D0EDEDADAD",
"8X c #8484A5A5C6C6",
"9X c #8C8CA5A5C6C6",
"0X c #8484A5A5CECE",
"qX c #9C9CADADC6C6",
"wX c #9C9CB5B5C6C6",
"eX c #9C9CB5B5CECE",
"rX c #8484ADADD6D6",
"tX c #8C8CADADD6D6",
"yX c #8484B5B5D6D6",
"uX c #8C8CB5B5D6D6",
"iX c #8C8CBDBDD6D6",
"pX c #9494B5B5D6D6",
"aX c #A5A5B5B5C6C6",
"sX c #ADADBDBDCECE",
"dX c #A5A5BDBDD6D6",
"fX c #9494C6C6D6D6",
"gX c #B5B5C6C6CECE",
"hX c #A5A5C6C6D6D6",
"jX c #B5B5C6C6D6D6",
"kX c #BDBDCECEDEDE",
"lX c #9C9CC6C6F7F7",
"zX c #A9A9CACAE7E7",
"xX c #BDBDE7E7E7E7",
"cX c gray76",
"vX c #C6C6CECEDEDE",
"bX c #CECED6D6DEDE",
"nX c #DCDCF1F1C3C3",
"mX c #E5E5F3F3D5D5",
"MX c #EBEBF7F7DEDE",
"NX c #CECED6D6E7E7",
"BX c #D6D6DEDEE7E7",
"VX c #DADAEBEBF7F7",
"CX c #E7E7EFEFEFEF",
"ZX c #EFFFF86CE529",
"AX c #F4F4FAFAECEC",
"SX c #EFEFEFEFF7F7",
"DX c #EFEFF7F7F7F7",
"FX c #F9F9FCFCF5F5",
"GX c #FFF0FFF8FFE5",
"HX c None",
/* pixels */
"HXdX_.R.U.U.U.R.R.R.R.R.R.R.R.R.R.R.R.R.R.R.R.R.E.!.!.!.E.b N HX",
"zXxX{.b v v n M I.I.I.I.I.I.I.I.I.I.I.I.I.I.I.I.~./.:X9X|.b a k ",
"tXzXaXGXGXGXGXGXGXGXGXGXGXGXGXGXGXGXGXGXGXGXGXGXGXGXGXGXGX(.p d ",
"#XQ.GXVXiXrX*X$X$X$X$X$X$X$X$X$X$X$X#X#X#X#X#X@XoX].!.K.GXpXJ.: ",
"oXY.GXhXfX-X$XOXoXoXoXoXoXoXoXoXoXoXoXoXoXoXXX.X_.W.K.x GX).j % ",
"+XM GXfXuXBXVXDXeXBXDXkXwXCXDXsX].].].]._._.).!.R.J.x GXXXR.p   ",
"@Xm GXiX-XBXDXDXaXBXDXDXgXBXDXDX!.!.!.!.!.R.T.K.b x GXOX_.h # HX",
"%Xm GXuX=X8XDXDX/.'.DXSX!.!.DXCX!.R.R.R.T.L.J.x z GXOXoXx =   HX",
"&Xm GXyX=XeXDXjXR.,XDXvXR.qXDXsXR.R.R.U.L.J.x z GXOXoXx ;   HXHX",
"0Xm GXyX=XjXDX>XR.aXDXaXR.gXDX1XR.R.U.L.J.x z GXOXoXx ;   o HXHX",
"0Xm GXyX*XNXDX}.R.vXDX>XR.bXDX XR.U.L.J.x z GXOXoXx ;   y $ HXHX",
"0Xm GXyX*XCXDX^.R.CXDX`.R.CXDX^.U.L.J.x z GXOXoXx ; . ,.y $ HXHX",
"0Xm GXyX*X.X!.R.R.R.R.R.R.R.R.U.K.c       OXoXx ; . 7.,.y $ HXHX",
"0Xm GXyX*X.X!.R.R.R.R.R.R.R.J.    i.s.f.=.  l ; . G.7.2.< $ HXHX",
"0Xm GXyX*X.X!.R.R.R.R.R.R.P.  %.k.j.x.x.h.j.  7 F.G.m.2.< $ HXHX",
"0Xm GXyX*X.X!.R.R.R.R.R.h   c.O.5 5 b.b.v.k.f.  4.H.m.2.< $ HXHX",
"0Xm GXyX*X.X!.R.R.R.R.j   l.a.v.v.v.O.v.+.@.c.f.  m.m.,.< $ HXHX",
"0Xm GXyX*X.X!.R.R.R.U.g   h.&.6 6 *.v.v.O 6 x.j.f.. 6.1.< $ HXHX",
"0Xm GXyX*X.X!.R.R.U.j   p.z.b.l.*.e b.v.9 8 u.S.D.o.n.>., $ HXHX",
"0Xm GXyX*X.X!.R.U.L.h   s.b.b.b.b.b.b.z.y.Z.0.X...X.8.N.G $ HXHX",
"0Xm GXyX*X.X!.T.L.J.s   k.=.x.b.b.b.v.t.e. .| | | { B.A.e.u HXHX",
"0Xm GXyX*X.X!.U.J.x s cX  v.4 *.s.b.d.9. .| | ..{ 0.AX2X{ q.HXHX",
"0Xm GXyX$X[.R.J.x z cXK.  %.h.  e g.$...|  . .| | 4XFX[ | ..] HX",
"0XN GXyX$X_.L.c z GXOXP.:   f.l.  > T  . .| | | e.AXC.| | | ~ HX",
"0XI.GXrXOX!.J.x GXOXoXs % *   s.j.X U | | { [ | 7XnX..| |  .Q HX",
"0X~.GX=X[.T.x GXOXoXx ; . F 4.  s.h.#.[ 9.4XV.r.FXC.| | | } R HX",
"0X}.GXOX!.b GXOXoXx ; . -.-.F D   X 3 / ^ 6XFXMX5X} ) [ } ) Y HX",
"+X<XGX_.K.GXOXoXx ; O G.G.<.:.;.C B 0 ! ) W mXZXM.^ ) ) } E HXHX",
"+XpXGXGXGXOXXXx ; . 5.5.6.6.3.P K J H t ` ) ' M.~ ) ) ' ( 1 HXHX",
"[.lX;XXXXXR.j -   I I L L L S A A A Z V r _ ` ` ' ] ( R i + HXHX",
"f U.g J.j a =   $ $ $ $ $ $ $ $ $ $ o o % & 2 q w 3 2 & o HXHXHX",
"HXf - @ ; # HXHXHXHXHXHXHXHXHXHXHXHXHXHXHXHXHXHXHXHXHXHXHXHXHXHX"
};
