/* XPM */
static char *cssed[] = {
/* columns rows colors chars-per-pixel */
"32 32 256 2 ",
"   c #012600A2006E",
".  c #0BFB02AF0214",
"X  c #0D0D0B0B0B0B",
"o  c #124103780378",
"O  c #1B1B03030303",
"+  c #17170E0E0E0E",
"@  c #131312BD12BD",
"#  c #1F1F15151515",
"$  c #222203590359",
"%  c #2C5F046B046B",
"&  c #2A2A098A098A",
"*  c #397900C100C1",
"=  c #3CBB0BE20BE2",
"-  c #32DD01AC01AC",
";  c #3C3C16961696",
":  c #1C4227A50E2F",
">  c #377C2C0C0915",
",  c #383822222222",
"<  c #323221212121",
"1  c #343433333333",
"2  c #3E3E39393939",
"3  c #454504040404",
"4  c #535302020202",
"5  c #5D5D0F0F0F0F",
"6  c #57AD07410745",
"7  c #444412121212",
"8  c #43431B1B1B1B",
"9  c #505015151515",
"0  c #585815151515",
"q  c #6D6D00810081",
"w  c #651C0827063E",
"e  c #75F600810081",
"r  c #78780A0A0A0A",
"t  c #74F50C8D0C8D",
"y  c #6C6C16161616",
"u  c #7C191A671A67",
"i  c #782315401540",
"p  c #5C5C25252525",
"a  c #52A829D429D4",
"s  c #59593F3F3F3F",
"d  c #7B7B2E2E2E2E",
"f  c #64E534343434",
"g  c #737338383838",
"h  c #483B78AC0DCF",
"j  c #6AF67AFE08A6",
"k  c #45785CF32701",
"l  c #51B65F16314A",
"z  c #525248484848",
"x  c #565656565656",
"c  c #61614B4B4B4B",
"v  c #7A7A48484848",
"b  c #77F846464646",
"n  c #6CED5E5E5E5E",
"m  c #747451515151",
"M  c #676767676767",
"N  c #6C6C67676767",
"B  c #737368686868",
"V  c #79FA6CED6CED",
"C  c #727262626262",
"Z  c #7C7C7A7A7A7A",
"A  c #848F032D02CA",
"S  c #8BC204040404",
"D  c #854D08ED0544",
"F  c #81A109CB07B3",
"G  c #8C250BA50BA5",
"H  c #8ACF0C6404D5",
"J  c #945405050505",
"K  c #9D4704040404",
"L  c #934B0B6F0ADE",
"P  c #9C1C0B0B0B0B",
"I  c #830312121212",
"U  c #8D8D14941494",
"Y  c #838319B319B3",
"T  c #8D8D1E1E1E1E",
"R  c #979716161616",
"E  c #9B73139C1288",
"W  c #96961CBC1CBC",
"Q  c #A7510C620C62",
"!  c #A26213D413D4",
"~  c #A8DC184C184C",
"^  c #B1B111111111",
"/  c #B1ED1B561AF0",
"(  c #B9391E9E1E9E",
")  c #888826A726A7",
"_  c #949426262626",
"`  c #83833B3B3B3B",
"'  c #9B9B33B433B4",
"]  c #98933D4E30A9",
"[  c #979735B635B6",
"{  c #A6A628282828",
"}  c #ACAC28282828",
"|  c #A3A324242424",
" . c #B5B520202020",
".. c #BC112BD62BD6",
"X. c #BABA25D025D0",
"o. c #A3773C4D2FA8",
"O. c #ADAD3A3A3A3A",
"+. c #B7B735353535",
"@. c #BEF134343434",
"#. c #BD8A3AD43AD4",
"$. c #C1C13BE63BE6",
"%. c #8E3075993DC5",
"&. c #9821789E3F81",
"*. c #88884D4D4D4D",
"=. c #87875D5D5D5D",
"-. c #96965F5F5F5F",
";. c #AAAA47F247F2",
":. c #B3B34F4F4F4F",
">. c #BABA4B4B4B4B",
",. c #B8B85B5B5B5B",
"<. c #898967676767",
"1. c #8B0B6F6F6F6F",
"2. c #9F9F6F6F6F6F",
"3. c #88DE77CD77CD",
"4. c #989871717171",
"5. c #959574747474",
"6. c #A3A368686868",
"7. c #BEBE6F6F6F6F",
"8. c #B83862626262",
"9. c #A3A378787878",
"0. c #A8A87D7D7D7D",
"q. c #C4C443AA43AA",
"w. c #C61B4ACB4ACB",
"e. c #C90852925292",
"r. c #CBF05BEE5BEE",
"t. c #C4C454545454",
"y. c #C44363E463E4",
"u. c #CD0C64E564E5",
"i. c #D16A6CD36CD3",
"p. c #C8C87A7A7A7A",
"a. c #C2C272727272",
"s. c #D3A074A774A7",
"d. c #D56E7B147B14",
"f. c #4D0D8A8A0444",
"g. c #4F4F8E8E0808",
"h. c #50508E8E0606",
"j. c #59CA86BC03F7",
"k. c #58589E9E0505",
"l. c #575798980D0D",
"z. c #585898980F0F",
"x. c #525294940707",
"c. c #68B18EBD05AD",
"v. c #5DDEA7A70687",
"b. c #5F5FABAB0707",
"n. c #5E0FA90208ED",
"m. c #5B00B6FF0000",
"M. c #6161ACAC0606",
"N. c #63E4B5340505",
"B. c #6464BD3D0081",
"V. c #6868BBBB0707",
"C. c #63B9B2B20C62",
"Z. c #68BEBCBC0B36",
"A. c #6262ACAC1010",
"S. c #6610B55F1212",
"D. c #6A6ABC3C1353",
"F. c #6B6BB2B21818",
"G. c #6D6DC57C052A",
"H. c #6E6EC9730157",
"J. c #6C6CC3830ACB",
"K. c #713FCA7F05E5",
"L. c #7398CB7E0989",
"P. c #7777CCCC1111",
"I. c #7C7CCECE1818",
"U. c #80E8C72F2CEC",
"Y. c #8383CFCF2929",
"T. c #8383CFCF2525",
"R. c #8787D0D02C2C",
"E. c #88A3D21A2E1B",
"W. c #8787CCCC3131",
"Q. c #8787C8C83F3F",
"!. c #8C8CD2273636",
"~. c #8F8FD3D33E3E",
"^. c #94388FA6483D",
"/. c #97B89F7B4EC4",
"(. c #8A8ACBCB4141",
"). c #96C8CB1A4EA2",
"_. c #929BD61C401D",
"`. c #9797D6D64B4B",
"'. c #9A9AD9D94F4F",
"]. c #9A30CC8554EA",
"[. c #9A9AD7D75151",
"{. c #9E9EDBDB5555",
"}. c #8B35832D832D",
"|. c #8E8E8B8B8B8B",
" X c #989889898989",
".X c #969681818181",
"XX c #9F9F9B9B9B9B",
"oX c #ADAD8C8C8C8C",
"OX c #BCBC84848484",
"+X c #BEBE88888888",
"@X c #A4239B1B9B1B",
"#X c #B3B398189818",
"$X c #ACACAAAAAAAA",
"%X c #B4B4A54FA54F",
"&X c #BA3AA9A9A9A9",
"*X c #BDBDB3B3B3B3",
"=X c #CDCD85048504",
"-X c #C5448C8C8C8C",
";X c #CBCB8A8A8A8A",
":X c #D7D782828282",
">X c #D92E85858585",
",X c #DB1A8C4C8C4C",
"<X c #CBCB97979797",
"1X c #C5C595959595",
"2X c #D6D693939393",
"3X c #DD5D95159515",
"4X c #DE449A9A9A9A",
"5X c #D4D49E9E9E9E",
"6X c #E0E09E9E9E9E",
"7X c #C6C6AAAAAAAA",
"8X c #DE88A24CA24C",
"9X c #D0D0A8A8A8A8",
"0X c #C2C2B2B2B2B2",
"qX c #DADABB3BBB3B",
"wX c #DFDFB534B534",
"eX c #E2E2A706A706",
"rX c #E3E3AB6BAB6B",
"tX c #E5BAB333B333",
"yX c #E8E8B7B7B7B7",
"uX c #E9A0BBBBBBBB",
"iX c #E161BE3EBE3E",
"pX c #BF0AE6009001",
"aX c #C1C1E7E79494",
"sX c #C4C4E8E89797",
"dX c #CCCCEA6AAAAA",
"fX c #D0D0EDEDADAD",
"gX c #CCCCC4C4C4C4",
"hX c #D252C5C5C5C5",
"jX c #DEDEC8C8C8C8",
"kX c #DB5BC443C443",
"lX c #D554D1D1D1D1",
"zX c #DBDBD959D959",
"xX c #E5E5C6C6C6C6",
"cX c #EC52C52BC52B",
"vX c #EEEECBA6CBA6",
"bX c #E262D554D554",
"nX c #EC96D27CD27C",
"mX c #E5A5DCDCDCDC",
"MX c #EC96DC86DC86",
"NX c #F29CD600D600",
"BX c #F49EDE33DE33",
"VX c #DCDCF1F1C3C3",
"CX c #EBEBF7F7DEDE",
"ZX c #E5E5F3F3D5D5",
"AX c #ECB9E618E618",
"SX c #ED1FEAEAEAEA",
"DX c #F5F5E423E423",
"FX c #F58EED53ED53",
"GX c #F95FEC85EC85",
"HX c #EFEFF8F8E5E5",
"JX c #F4F4FAFAECEC",
"KX c #F575F2F2F2F2",
"LX c #FA93F325F325",
"PX c #F9F9FCFCF5F5",
"IX c #FCFAFB75FAF5",
"UX c None",
/* pixels */
"UXUXUXUXUXUXUXUXUXUXUXUXUXUXUXUXUXUXUXUXUXUXUXUXUXUXUXUXUXUXUXUX",
"UXUXUXUXUXUXUXUXUXUXUXUXUXUXUXUXUXUXUXUXUXUXUXUXUXUXUXUXUXUXUXUX",
"UXUXUXUXUXUXUXUXUXUXUXUXUXUXUXUXUXUXUXUXUXUXUXUXUXUXUXUXUXUXUXUX",
"UXUXUXUXUXUXUXUXUXUXUXUXUXUXUXUXUXUXUXUXUXUXUXUXUXUXUXUXUXUXUXUX",
"UXUXUXUXUXUXUXUXUXUXUXUXUXUXUXb v b f p p UXUXUXUXUXUXUXUXUXUXUX",
"UXUXUXUXUXUXUXUXUXUXUXc 1.5.0.-X=Xa.f , d ' ) 9 UXUXUXUXUXUXUXUX",
"UXUXUXUXUXUXUXUXUXC #X@X}.3.#X8X6X:X7.;.;.} } | Y = UXUXUXUXUXUX",
"UXUXUXUXUXUXUXB %XMXzX*X0XqXuXtX3X=Xa.,.;.' Y Y U I 7 UXUXUXUXUX",
"UXUXUXUXUXUX}.gXmXFXDXDXNXvXqX9X<X;Xp.y.t.w.} E G G r m n UXUXUX",
"UXUXUXUXUX@XzXzXlXSXGXFXMXkXqXyX8X4X>Xi.r.w.+.E L S S T 3.1   UX",
"UXUXUXUX@XSXSXSXSXLXFXMXbXvXvXuXrX4X>Xi.r.w.#.~ r 4 w J ` 2     ",
"UXUXUX}.SXIXIXIXIXKXAXAXDXNXvXuXrX4X>Xi.t.w.$.W %   $ q U 2     ",
"UXUXz bXLXIXIXIXKXSXGXGXBXnXiXtXeX3X:Xi.e.w.$.u o   o 4 L <     ",
"UXUX%XFXLXIXIXSXFXLXGXDXnX@XZ V -X,Xd.u.w.$.@.Y o   o 4 P &   UX",
"UXn &XlXLXLXSXFXLXGXDXBXjXZ M x 4.>Xs.r.w.$...E 3 o * e ! &   UX",
"UXV @X$XmXmXmXFXFXDXDXNXxX XN n OXd.i.e.q.@...! A q e A ! O   UX",
"UX3.|.@XhXhXBXBXBXBXNXvXcXrX5X2X:Xs.r.w.@... .P S e A S W .   UX",
"UXoX@X%X0XxXNXNXNXvXvXuXtXeX6X,Xs.u.>.+.@.X./ L F F D E i     UX",
"UX1XwX7X%XcXvXvXcXcXtXrXeX6X,Xd.8.g 8 7 u o.&.^./.^.%.] =     UX",
"UXOXtX5.9XuXyXyXyXrXeX6X6X:Xd.u.a +     l ].R.I.L.I.T.).l   UXUX",
"UX6.+X1.eXeXeXeX6X6X3X,X:Xs.u.:.+     k !.L.H.K.L.H.~.{.!.k UXUX",
"UX*.=.2.2X2X9.n <.p.:Xs.i.r.e.O..   : U.L.L.L.L.H.E.JXpXH.W.UXUX",
"UXa , 8.d.-.s 1 1 c y.r.w.q.$...9 o h L.L.L.K.L.H.sXPXH.K.P.F.UX",
"UXUX. >.:.a X @ + # [ $.$...( ( ! w j.L.L.L.L.H.!.JX'.H.L.L.N.UX",
"UXUX. [ >.0       o { ....( / ^ Q H c.L.L.K.H.L.fXVXP.L.L.L.M.UX",
"UXUXUX; ) _ & . o 5 / / ~ Q K J S D j G.Y.aX`.~.IX[.G.K.G.J.b.UX",
"UXUXUXUXUXy Y i I P P J J J S J K E j V.B.dXPXCXdXJ.G.J.J.V.k.UX",
"UXUXUXUXUXUXUXw r S K K K P P G t 6 > n.Z.m.ZXHXQ.B.V.V.J.M.UXUX",
"UXUXUXUXUXUXUXUXUXUX* * - % $ O o     x.C.D.D.(.N.Z.D.D.C.f.UXUX",
"UXUXUXUXUXUXUXUXUXUXUXUXUXUXUXUXUXUXUXUXg.A.S.C.D.S.C.v.f.UXUXUX",
"UXUXUXUXUXUXUXUXUXUXUXUXUXUXUXUXUXUXUXUXUXUXg.z.z.x.f.UXUXUXUXUX",
"UXUXUXUXUXUXUXUXUXUXUXUXUXUXUXUXUXUXUXUXUXUXUXUXUXUXUXUXUXUXUXUX"
};
