/* XPM */
static char *ctsim[] = {
/* columns rows colors chars-per-pixel */
"32 32 165 2 ",
"   c #6BB77997017A",
".  c #78D67A0A0134",
"X  c #7BFF7BFF0000",
"o  c #7F7F7F7F0000",
"O  c gray50",
"+  c #757E80B50EDB",
"@  c #5C00B8000000",
"#  c #6B16A60C03C8",
"$  c #61E4ACFE08E5",
"%  c #61E4ACFE0AEF",
"&  c #6131A9BB0CE3",
"*  c #6363B7B70404",
"=  c #6400BB000100",
"-  c #6565BFBF0000",
";  c #6868BBBB0707",
":  c #6262B1B10909",
">  c #6363B1B10F0F",
",  c #6565B4B40D0D",
"<  c #6868BCBC0808",
"1  c #6868BCBC0909",
"2  c #6868BDBD0B0B",
"3  c #6AE6BEE50AE7",
"4  c #6868BBBB0E0E",
"5  c #6868BABA0F0F",
"6  c #7CC0BA3804FC",
"7  c #6617AEA20FAF",
"8  c #6565B2B21111",
"9  c #6565B5B51010",
"0  c #6767B7B71515",
"q  c #69CDBCCC10CD",
"w  c #6969BCBC1212",
"e  c #6A6AB9B91717",
"r  c #6D00BE001400",
"t  c #6874923136A3",
"y  c #7912AD463DA4",
"u  c #7CC0BB0D3128",
"i  c #6A6AC6C60000",
"p  c #6D6DC4C40303",
"a  c #6B6BC1C10707",
"s  c #6C6CC1C10606",
"d  c #6F6FC7C70606",
"f  c #6F6FC7C70707",
"g  c #6B6BC8C80000",
"h  c #6D6DC8C80000",
"j  c #6F6FC9C90202",
"k  c #6B6BC3C30909",
"l  c #6E6EC2C20B0B",
"z  c #6E6EC6C60808",
"x  c #6969C0C00F0F",
"c  c #7000C9FF0200",
"v  c #7070C9C90404",
"b  c #7078CAA40402",
"n  c #7171CACA0707",
"m  c #7200CAFF0700",
"M  c #7300CAFF0700",
"N  c #7272CBCB0707",
"B  c #7272CACA0808",
"V  c #7300CAFF0800",
"C  c #7272CBCB0808",
"Z  c #7373CBCB0808",
"A  c #7272CBCB0909",
"S  c #7373CBCB0909",
"D  c #7373CACA0B0B",
"F  c #7400CBFF0900",
"G  c #7575CBCB0B0B",
"H  c #7575CBCB0E0E",
"J  c #7676CBCB0F0F",
"K  c #7575CCCC0C0C",
"L  c #7575CCCC0D0D",
"P  c #7777CCCC1111",
"I  c #7C7CCECE1818",
"U  c #7CFBAC9A46AA",
"Y  c #7F46B0614777",
"T  c #84E8BC5F048F",
"R  c #8A50BC5804EF",
"E  c #9A63BD35036D",
"W  c #9973BE2804A9",
"Q  c #8463BF583D55",
"!  c #993EC9E10DB3",
"~  c #8383CFCF2525",
"^  c #8383CFCF2929",
"/  c #87E8CE342CE9",
"(  c #8787D0D02C2C",
")  c #8900D2FF2E00",
"_  c #8AD6CE342FD7",
"`  c #8787C8C83F3F",
"'  c #8B8BD0D03535",
"]  c #8C8CD0D03636",
"[  c #8D8DD4D43737",
"{  c #8F8FD3D33E3E",
"}  c #B634CE3E2693",
"|  c #B6C3CE3E2722",
" . c #BBB8CFB42F2F",
".. c #BC46D042304B",
"X. c #B820D0823B0A",
"o. c #B820D0823C52",
"O. c #C09BD14501A2",
"+. c #CE48DA1B0DF2",
"@. c #DAECE0181CBD",
"#. c #DAECE0621D07",
"$. c #EC58EFBF0049",
"%. c #EEF1F11C0000",
"&. c #F056F1780134",
"*. c #F42FF6D8003C",
"=. c #F54EF7D7002A",
"-. c #F7F7F7F70000",
";. c #F3CEF4B305AF",
":. c #F7D0F87C003F",
">. c #F8F8F8F80000",
",. c #FA74FC780030",
"<. c #FACDFCC10091",
"1. c #FC5CFD05027B",
"2. c #FEFEFEFE0007",
"3. c yellow",
"4. c #F95CFA0B046B",
"5. c #864DBD7A43C8",
"6. c #88D7B2945705",
"7. c #8AF8BC0650CE",
"8. c #8A5ABAFD517E",
"9. c #9848BBD36DC0",
"0. c #993EBC117024",
"q. c #8A8ACBCB4141",
"w. c #9300D6FF3FFF",
"e. c #9797D6D64B4B",
"r. c #9ADED24B4DCB",
"t. c #9A9AD9D94F4F",
"y. c #9A9AD7D75151",
"u. c #9EC1D43D549A",
"i. c #9E9EDBDB5555",
"p. c #B42BD3174769",
"a. c #B0E0D33E4E52",
"s. c gray60",
"d. c #B2B2B2B2B2B2",
"f. c #C000E6FF8FFF",
"g. c #C1C1E7E79494",
"h. c #C4C4E8E89797",
"j. c #C10CD0DDAEF8",
"k. c #C620D44CB54B",
"l. c #CACAE9E9A7A7",
"z. c #CECEEAEAADAD",
"x. c #D0D0EDEDADAD",
"c. c gray80",
"v. c #DCDCF1F1C3C3",
"b. c #E5E5F3F3D5D5",
"n. c #EBEBF7F7DEDE",
"m. c gray90",
"M. c #EC58EFD7E830",
"N. c #EFFFF8FFE4FE",
"B. c #EFEAF23CED12",
"V. c #EFD7F1F7EDED",
"C. c #F3F3FAFAEBEB",
"Z. c #F5F5FAFAEDED",
"A. c #F507F774F21B",
"S. c #F54EF7E5F229",
"D. c #F66EF864F417",
"F. c #F7B4F82AF6F6",
"G. c gray97",
"H. c #FA74FC70F817",
"J. c #F9F9FCFCF4F4",
"K. c #F9F9FCFCF6F6",
"L. c #FAD1FC47F906",
"P. c #FADDFCD1F8A8",
"I. c #FBFBFDFDF8F8",
"U. c #FEFEFEFEFEFE",
"Y. c gray100",
/* pixels */
"Y.Y.Y.Y.Y.Y.Y.Y.Y.Y.Y.m.m.c.c.m.c.c.m.m.m.m.Y.Y.Y.Y.Y.Y.Y.Y.Y.Y.",
"Y.Y.Y.Y.Y.Y.Y.Y.m.m.m.m.Y.Y.Y.Y.Y.Y.Y.m.m.m.m.m.Y.Y.Y.Y.Y.Y.Y.Y.",
"Y.Y.Y.Y.Y.Y.Y.m.m.m.Y.Y.Y.Y.Y.Y.Y.Y.Y.Y.Y.Y.Y.m.c.m.Y.Y.Y.Y.Y.Y.",
"Y.Y.Y.Y.Y.m.m.m.Y.Y.Y.Y.Y.Y.Y.Y.Y.Y.Y.Y.Y.Y.Y.Y.Y.m.m.Y.Y.Y.Y.Y.",
"Y.Y.Y.Y.Y.Y.Y.Y.Y.m.Y.Y.Y.Y.Y.Y.Y.Y.Y.Y.Y.Y.Y.Y.Y.Y.m.m.Y.Y.Y.Y.",
"Y.Y.Y.Y.d.3.m.Y.Y.Y.Y.Y.Y.Y.Y.Y.Y.Y.Y.Y.Y.Y.Y.Y.Y.Y.Y.m.m.Y.Y.Y.",
"Y.Y.m.m.m.3.3.3.3.c.m.m.m.Y.Y.Y.Y.Y.Y.m.Y.Y.Y.Y.Y.Y.Y.Y.m.m.Y.Y.",
"Y.Y.m.Y.m.3.3.3.3.3.3.3.3.3.c.c.m.Y.Y.Y.Y.Y.Y.Y.Y.Y.Y.Y.Y.m.Y.Y.",
"Y.m.m.Y.Y.3.3.3.3.3.3.3.3.o 3.3.3.3.3.c.m.Y.Y.m.Y.Y.Y.Y.Y.m.m.Y.",
"Y.m.m.Y.m.m.3.3.3.3.3.3.3.3.3.3.3.3.3.3.3.3.3.d.c.m.Y.Y.Y.Y.m.Y.",
"m.m.Y.Y.Y.Y.3.3.3.3.3.3.3.3.3.o o 3.3.3.3.3.3.3.3.3.3.3.3.c.m.m.",
"m.m.Y.Y.Y.Y.3.3.3.3.3.3.3.3.o 3.3.o o 3.3.3.3.3.3.3.3.3.3.3.3.c.",
"m.m.Y.Y.Y.Y.c.3.o 3.3.3.o o 3.3.3.3.3.o 3.3.3.3.3.3.3.3.3.3.3.d.",
"m.Y.Y.Y.Y.Y.Y.3.3.3.3.3.3.3.o 3.3.o 3.3.3.3.3.o 3.3.3.3.3.3.3.s.",
"m.Y.Y.Y.Y.Y.Y.3.3.3.3.3.o 3.o 3.3.o 3.o 3.3.3.3.3.3.3.3.3.3.3.o ",
"c.Y.Y.Y.Y.Y.Y.c.o 3.3.3.3.3.3.o o 3.3.3.o 3.3.3.3.3.3.3.3.3.3.3.",
"c.Y.Y.Y.Y.Y.Y.m.3.3.3.3.o 3.3.o o 3.3.3.3.3.3.3.3.3.3.3.3.o 3.o ",
"m.Y.Y.Y.Y.Y.Y.m.O 3.3.3.o 3.3.3.3.o 3.o o 3.<.4.;.4.<.3.3.3.3.o ",
"m.Y.Y.Y.Y.Y.Y.Y.c.3.3.3.3.3.3.3.3.3.3.o >.#.X.p.a.p.o.#.>.3.3.s.",
"m.m.Y.Y.Y.Y.Y.Y.m.3.3.3.3.o 3.o o 3.3..  .u.( I L I ~ r...&.3.d.",
"m.m.Y.Y.Y.Y.Y.Y.Y.3.3.3.3.o 3.3.3.3.o } ' H c n Z j w.i.] | :.d.",
"Y.m.Y.Y.Y.Y.Y.Y.Y.c.3.3.3.3.3.o 3.o +./ D n D F j ) Z.f.g _ + m.",
"Y.m.m.Y.Y.Y.Y.Y.Y.m.3.3.o 3.3.3.3.<.! H n D M Z v h.K.i Z H 8.P.",
"Y.m.m.Y.Y.Y.Y.Y.Y.m.3.3.3.3.3.3.3.=.# Z D n n c ] C.t.j Z Z Q S.",
"Y.Y.m.m.Y.Y.Y.Y.Y.Y.c.3.3.3.3.3.3.$.6 n Z c c D x.v.P n Z Z u M.",
"Y.Y.Y.m.Y.Y.Y.Y.Y.Y.m.3.3.3.3.3.3.=.T p ^ g.e.{ P.t.f f f z 5.S.",
"Y.Y.Y.m.m.m.Y.Y.Y.Y.Y.3.3.3.3.3.3.>.R ; - z.K.n.l.l k a k < 8.H.",
"Y.Y.Y.Y.m.m.Y.Y.Y.Y.Y.3.3.3.3.3.3.3.O.$ q @ b.N.q.= < 3 q % j.Y.",
"Y.Y.Y.Y.Y.Y.m.m.Y.Y.Y.m.3.3.3.3.3.3.:.W , 4 r ` * 4 w w : 9.F.Y.",
"Y.Y.Y.Y.Y.Y.Y.m.m.m.Y.Y.3.3.3.3.3.3.3.&.E 7 8 9 e 0 > & 9.B.Y.Y.",
"Y.Y.Y.Y.Y.Y.Y.Y.m.m.m.m.c.3.3.3.3.3.3.3.=.  t U y Y 6.k.G.Y.Y.Y.",
"Y.Y.Y.Y.Y.Y.Y.Y.Y.Y.m.m.c.s.o O 3.o s.d.c.m.K.F.B.S.L.Y.Y.Y.Y.Y."
};
