/* XPM */
static char *djvulibre_djview3[] = {
/* columns rows colors chars-per-pixel */
"32 32 256 2 ",
"   c #72B47E2313E7",
".  c #3A3A3D3D5D5D",
"X  c #23233F3F6E6E",
"o  c #3D3D32326262",
"O  c #3C893D837DF3",
"+  c #414138385E5E",
"@  c #57572F2F6464",
"#  c #59592D2D6262",
"$  c #47C831B269EA",
"%  c #545432326C6C",
"&  c #4E4E37377474",
"*  c #44443C3C7D7D",
"=  c #498939FA7979",
"-  c #565636367474",
";  c #69692C2C6060",
":  c #78782F2F6A6A",
">  c #636331316C6C",
",  c #68683B3B7E7E",
"<  c #707034347474",
"1  c #363643435A5A",
"2  c #2D2D46466E6E",
"3  c #272742427070",
"4  c #747443435858",
"5  c #72724E4E5D5D",
"6  c #79794A4A5F5F",
"7  c #7F7F47475E5E",
"8  c #6D6D54545E5E",
"9  c #6A6A66665C5C",
"0  c #686851516666",
"q  c #6A6A5A5A6060",
"w  c #787858586767",
"e  c gray43",
"r  c #797963636C6C",
"t  c #644F7A896AA3",
"y  c #777777777777",
"u  c #7B7B7A7A7B7B",
"i  c #7E7E75757979",
"p  c #B27F7A222AE9",
"a  c #84842A2A5959",
"s  c #91912B2B5858",
"d  c #898936B756D7",
"f  c #939334345E5E",
"g  c #98982E2E6565",
"h  c #8C8C3E3E6262",
"j  c #94943A3A6464",
"k  c #878731317373",
"l  c #A7A731316969",
"z  c #A2A22F2F7070",
"x  c #858544445F5F",
"c  c #88884A4A6666",
"v  c #878741416161",
"b  c #8E41533B64AE",
"n  c #818161616E6E",
"m  c #8C8C65657575",
"M  c #949467677A7A",
"N  c #828276767B7B",
"B  c #4DCE8B8B0505",
"V  c #4F4F8E8E0808",
"C  c #50508E8E0606",
"Z  c #569699590A8B",
"A  c #756F9CBD0B7B",
"S  c #5D5DA7270687",
"D  c #5F5FABAB0909",
"F  c #5B5BB7B70000",
"G  c #6191AC80078D",
"H  c #63E4B5340505",
"J  c #6464BD3D0081",
"K  c #63B9B2B20C62",
"L  c #68D6BCC00B47",
"P  c #6868BBBB0707",
"I  c #660AA6B7176E",
"U  c #6610B55F1212",
"Y  c #6A6ABC3C1353",
"T  c #6B6BB2B21818",
"R  c #7FDA96C13768",
"E  c #6F8DAA8327BE",
"W  c #6D6DC57C052A",
"Q  c #6E81C96A0158",
"!  c #6C6CC3830ACB",
"~  c #711CCACA0562",
"^  c #736DCB750960",
"/  c #7C7CCECE1818",
"(  c #7777CCCC1111",
")  c #7C7CA6A64646",
"_  c #7E7E86867777",
"`  c #80F799290689",
"'  c #920D81DC33B1",
"]  c #8383CFCF2727",
"[  c #8835D1B02D1C",
"{  c #8771CD3A324A",
"}  c #8787C8C83F3F",
"|  c #8C8CD2273636",
" . c #8F8FD3D33E3E",
".. c #809A82307C75",
"X. c #8E1CA67F6EAA",
"o. c #C5C5A7A77E7E",
"O. c #8A8ACBCB4141",
"+. c #96E9D7BE490D",
"@. c #9552C7D454DF",
"#. c #9C71D71955B9",
"$. c #A863C74F7FE6",
"%. c #6A6A3F3F8080",
"&. c #3C3C57579B9B",
"*. c #565646468585",
"=. c #4C4C5D5D9F9F",
"-. c #5C5C71719292",
";. c #47475D5DA0A0",
":. c #73736969A4A4",
">. c #868655558B8B",
",. c #92925D5D8686",
"<. c #801F6A0F8F10",
"1. c #82827F7F8080",
"2. c #8A8A7A7A8282",
"3. c #81816D6DA4A4",
"4. c #7E7E9393BABA",
"5. c #7C7CB3B3DEDE",
"6. c #7E7EB6B6E3E3",
"7. c #848483838383",
"8. c #8B4F8BA78AE2",
"9. c #97B38BB38B7A",
"0. c #848484849C9C",
"q. c #9B9B8A8A9191",
"w. c #979791119413",
"e. c #999CAD9886B3",
"r. c #9D40B5768254",
"t. c #8C988C98A119",
"y. c #8D6C9178A6A4",
"u. c #95959595AAAA",
"i. c #9E9E9E9EAFAF",
"p. c #8A8A9898BABA",
"a. c #9E9E9E9EB2B2",
"s. c #9A9AA2A2B8B8",
"d. c #A5A5A3A3A4A4",
"f. c #A812A926AA11",
"g. c #B15AABB3AE09",
"h. c #A623A775B907",
"j. c #A9A9B0B0BFBF",
"k. c #B4B4B1B1B3B3",
"l. c #B862B862BD12",
"z. c #B139D02588BB",
"x. c #AEA0D0FD8046",
"c. c #BFA5E640906F",
"v. c #AFAFD5D5A0A0",
"b. c #BABADDDDB0B0",
"n. c #B6B6E5E5AFAF",
"m. c #C343E8689616",
"M. c #C044CC17B2A0",
"N. c #CCCCEA6AAAAA",
"B. c #D0D0EDEDADAD",
"V. c #C2C2E3E3BABA",
"C. c #8F8FA2A2C3C3",
"Z. c #9090A3A3C4C4",
"A. c #9F9FA8A8C0C0",
"S. c #8686BABADEDE",
"D. c #8E8EBFBFDDDD",
"F. c #AFAFB939CBCB",
"G. c #B9B9B9B9C5C5",
"H. c #B534B7B7C6C6",
"J. c #8707BF3FE9E9",
"K. c #9A9ACACADADA",
"L. c #9A9AD8D8DADA",
"P. c #ACACC2C2D6D6",
"I. c #A3A3CACADADA",
"U. c #BABAC7C7D9D9",
"Y. c #AFAFDEDEDDDD",
"T. c #A8A8D0D0DCDC",
"R. c #B8B8D2D2DDDD",
"E. c #A5A5E161DCDC",
"W. c #B8B8E3E3DADA",
"Q. c #BBBBF1F1DCDC",
"!. c #9595C6C6E1E1",
"~. c #9E9ECBCBE4E4",
"^. c #9C35CBCBECEC",
"/. c #9393C8C8E7E7",
"(. c #8989C3C3F348",
"). c #9393C5C5F3F3",
"_. c #9696CDCDF5F5",
"`. c #9B9BCECEF3F3",
"'. c #9696D0D0F6F6",
"]. c #9C9CD0D0F5F5",
"[. c #9A9AD2D2F8F8",
"{. c #9A9AD6D6E5E5",
"}. c #A9A9C7C7E4E4",
"|. c #A0A0CECEE1E1",
" X c #A2A2C8C8EFEF",
".X c #B4B4CCCCEBEB",
"XX c #AAAAD6D6E3E3",
"oX c #A5A5D6D6ECEC",
"OX c #ACACD9D9ECEC",
"+X c #B5B5DEDEEDED",
"@X c #B761DB30E439",
"#X c #A8A8CCCCF4F4",
"$X c #A1A1D3D3F3F3",
"%X c #AEAEDBDBF3F3",
"&X c #A3A3D8D8F9F9",
"*X c #ACACDEDEF9F9",
"=X c #A524D757F5F5",
"-X c #B3B3DEDEF2F2",
";X c #B5B5E9E9E2E2",
":X c #BEBEF5F5E5E5",
">X c #AEAEE0E0FAFA",
",X c #B7B7E4E4F5F5",
"<X c #BABAE3E3F2F2",
"1X c #B4B4E3E3F9F9",
"2X c #BABAE7E7FBFB",
"3X c #BCBCE9E9FAFA",
"4X c #C5C5C5C5C5C5",
"5X c #CDA1CDD9CD4C",
"6X c #CACADCDCCFCF",
"7X c #CACAD2D2DEDE",
"8X c LightGray",
"9X c #D3D3D4D4DBDB",
"0X c #DDDDDDDDDDDD",
"qX c #D1D1DADAD5D5",
"wX c #C7C7C7C7D3D3",
"eX c #C8C8E1E1C1C1",
"rX c #DCDCF1F1C3C3",
"tX c #C2C2F6F6D4D4",
"yX c #CACAF3F3D9D9",
"uX c #C5C5F5F5D8D8",
"iX c #E8E8F5F5DA5A",
"pX c #C949D757EDED",
"aX c #D6D6D9D9E2E2",
"sX c #D1D1DCDCEAEA",
"dX c #DEDEDEDEE0E0",
"fX c #C9C9DDDDF1F1",
"gX c #CBCBE6E6EBEB",
"hX c #C7C7EAEAEEEE",
"jX c #CBCBEEEEEEEE",
"kX c #D9D9E237EBEB",
"lX c #CBCBEDEDF5F5",
"zX c #C4C4EEEEFAFA",
"xX c #CA1FEAEAF64B",
"cX c #D0D0EEEEF7F7",
"vX c #CECEF5F5FBFB",
"bX c #CDCDF1F1F1F1",
"nX c #D3D3F8F8FBFB",
"mX c #DEDEFBFBFBFB",
"MX c #D57FF4F4F6A0",
"NX c #C3C3F8F8E7E7",
"BX c #E2E2E2E2E4E4",
"VX c #E939E9FDE824",
"CX c #E7E7E6E6E9E9",
"ZX c #EC04EC0AEBFB",
"AX c #E75AE94EE515",
"SX c #EFEFF8F8E5E5",
"DX c #F4F4FAFAECEC",
"FX c #ECECEDEDF1F1",
"GX c #E2E2FAFAFBFB",
"HX c #ECECFCFCFCFC",
"JX c #E58FF247F49E",
"KX c #F4F4F4F4F4F4",
"LX c #F9F9FCFCF5F5",
"PX c #F2F2FCFCFCFC",
"IX c #FEF6FEFBFEEF",
"UX c None",
/* pixels */
"UXUXUXUXUXo + . 1 UXUXUXUXUXUXUXUXUXUXUXUXUXUXUXUXUXUXUXUXUXUXUX",
"UXUXUXUXa k.KXKXKXKXKXIXKX8Xf.0 9 ..7.7.e UXUXUXUXUXUXUXUXUXUXUX",
"UXUXUX$ d IXIXIXIXIXIXIXIXIXIXKXeXV.IXIXIXZX5Xd.2.4 UXUXUXUXUXUX",
"UXUXUX@ m IXIXIXIXIXIXIXIXIXIXZXb.V.IXIXIXIXIXIXIXIXu 4 # UXUXUX",
"UXUXUX; w.IXIXIXIXIXIXIXIXIXPXdXv.n.IXIXIXIXIXIXIXIX7.q # UXUXUX",
"UXUXUXa g.IXIXIXIXIXIXFXZXkXfXsXqX6XKXIXIXIXIXIXIXIX7.q # UXUXUX",
"UXUXUXs 8XIXIXIXIXKXkX#X)._.].`. X%XsXBXIXIXIXIXIXIXu 8 @ UXUXUX",
"UXUXUXs KXIXIXIXZXpX)._.[.&X&X$X{.oX>XfX9XIXIXIXIXIXu 8 % UXUXUX",
"UXUX% x IXIXIXKXpX(.[.&X*X*X1X=XL.L.2X2XgX9XIXIXIXIXy 8 % UXUXUX",
"UXUX> M IXIXIXaX).'.&X>X1X3X1X,XE.E.zXzXzX7XFXIXIXIXy 5 % UXUXUX",
"UXUX: w.IXU.4..X(._.$X3XOX<X!.+X;X;XOXXXvXlXwXIXIXKXu 5 % UXUXUX",
"UXUXg k.IXC.p. X(._.^.,X-XlXD.|.:X;XK.@XXXnXH.-.IXKXu 6 & UXUXUX",
"UXUXg 5XPXZ.A.).[.&XJ.<X~.<X+X|.NXY.T.xXI.nXF.3 IXZXu 6 & UXUXUX",
"UX* f 0XKXZ.A.).`.].5.^.S.<XvXY.:XY.gXMXI.MXH.3 KXCX7.x = UXUXUX",
"UX- c BXKXC.p.^.J.6./.-X!.lXMXhXQ.W.GXHXR.gXy.2 KXBX7.x = UXUXUX",
"UX< m BXKXCXG.}.].].^.S.~.vXbXmXuXyXHXPXHXJXa.0XKX0X7.v * UXUXUX",
"UXk 2.CXKXKXBXF.].*X-XOXxXnXjXGXtXyXPXPXPXaXG.KXKX0X..h = UXUXUX",
"UXz 8.ZXKXKXKXG.}.*X1X3XvXnXjXmXtXtXPXPXFXu.CXFXVX5X8.j * UXUXUX",
"UXl d.ZXZXZXZXZXh.oX1X3XvXvXjXmXtXyXHXJXa.f.$.z.x.$.X.b O UXUXUX",
"= j k.ZXZXZXZXZX0Xs.P.,XzXvXjXGXGXJXkXy.e.@.] / ( / ] @.t UXUXUX",
", c l.ZXZXZXZXZXZXZXj.s.P.@XxXsXU.j.t.r.| ( Q ^ ^ Q  .#.| ) UXUX",
", w 4XZXCXCXZXZXZXZXZXBX4Xa.0.u.j.9XM.{ ^ ~ ^ ^ Q [ DXc.Q { UXUX",
", 0 N o.u 7.7.N w.d.l.8XCXZX4XCXCXAX@.( ^ ^ ^ ^ ~ m.LXQ ~ ( T UX",
"UX*.*.*.>.>.,.,.M M m n r N 7.u u ..E ^ ^ ^ ~ Q | DX#.Q ^ ^ H UX",
"UXUXUXUXUXUXUXUXUXUXUX&.=.&.=.:.3.<.I ^ ^ ~ Q ^ B.rX( ~ ^ ^ G UX",
"UXUXUXUXUXUXUXUXUXUXUXUXUXUXUXUXUXUXS Q ] m.+. .LX#.W W ~ W A UX",
"UXUXUXUXUXUXUXUXUXUXUXUXUXUXUXUXUXUXZ P J B.LXiXN.! ! ! W P ` p ",
"UXUXUXUXUXUXUXUXUXUXUXUXUXUXUXUXUXUXUXD L F iXSX .J P P Y G ' 9.",
"UXUXUXUXUXUXUXUXUXUXUXUXUXUXUXUXUXUXUXV U U Y } H Y Y Y K R g.UX",
"UXUXUXUXUXUXUXUXUXUXUXUXUXUXUXUXUXUXUXUXB U U K Y U U D A 2.0.UX",
"UXUXUXUXUXUXUXUXUXUXUXUXUXUXUXUXUXUXUXUXUXUXV Z Z V V UXUXUXUXUX",
"UXUXUXUXUXUXUXUXUXUXUXUXUXUXUXUXUXUXUXUXUXUXUXUXUXUXUXUXUXUXUXUX"
};
