/* XPM */
static char *dvd95[] = {
/* columns rows colors chars-per-pixel */
"32 32 256 2 ",
"   c #0D3D29D0295A",
".  c #130A2D672902",
"X  c #14E235922E67",
"o  c #322F4AB43AD5",
"O  c #294147FF2B60",
"+  c #686864643939",
"@  c #1AD44AD34A42",
"#  c #170041E44118",
"$  c #1BB552855285",
"%  c #1F1F5B9B5B9B",
"&  c #21215DB35DB3",
"*  c #378472334F38",
"=  c #38BB719855F0",
"-  c #1F1F60606060",
";  c #25A46572655F",
":  c #282865656565",
">  c #28A966666AEA",
",  c #272768686868",
"<  c #2AFF6AF86A85",
"1  c #393968686767",
"2  c #31456E2D6D93",
"3  c #376572926CF7",
"4  c #34C1730C7306",
"5  c #392776BF7676",
"6  c #3C377A467A39",
"7  c #3CD57AFC769E",
"8  c #424254544949",
"9  c #494958584A4A",
"0  c #44445ADB4444",
"q  c #4C4C50505757",
"w  c #48F359095939",
"e  c #4B4B4B4B5656",
"r  c #515166664B4B",
"t  c #51D2626257D8",
"y  c #464669695A5A",
"u  c #616169694A4A",
"i  c #53535B5B6565",
"p  c #47476E6E6363",
"a  c #565662626565",
"s  c #49417861661C",
"d  c #42427E5E7E5E",
"f  c #4CF78A8A03AE",
"g  c #4E128F860D0E",
"h  c #55D898700A99",
"j  c #4BC185001A75",
"k  c #5DDEA7A70687",
"l  c #5F0AAB3A08DD",
"z  c #5B34B7720073",
"x  c #6161ACAC0606",
"c  c #645ABD2400C5",
"v  c #63B9B2B20C62",
"b  c #68BEBCBC0B36",
"n  c #6565B76105B0",
"m  c #614FAB511264",
"M  c #6610B55F1212",
"N  c #6A5BBC28136A",
"B  c #4F0C9370283D",
"V  c #537D9A1A2087",
"C  c #437181B634FC",
"Z  c #473C857E29EE",
"A  c #6303869E3942",
"S  c #6695A8AD3F2F",
"D  c #6D6DC57C052A",
"F  c #6E76C9720177",
"G  c #6C6CC3830ACB",
"H  c #716CCAD305A6",
"J  c #7368CB760964",
"K  c #7C7CCECE1818",
"L  c #7777CCCC1111",
"P  c #2E2E94947373",
"I  c #56A88B4F5831",
"U  c #57579A9A5E5E",
"Y  c #679E893A497F",
"T  c #7BFC9B1B4F4F",
"R  c #7EFF96965454",
"E  c #731D9943521F",
"W  c #787889895656",
"Q  c #6D6DA9A94E4E",
"!  c #7AFBAAAA4B4B",
"~  c #6969B9B94B4B",
"^  c #7474B9B94949",
"/  c #7F8AA923586C",
"(  c #689BBA5358BF",
")  c #434382826E6E",
"_  c #505081817171",
"`  c #52D293936767",
"'  c #67678C8C6E6E",
"]  c #69E499D161FD",
"[  c #7D7D98987373",
"{  c #7DF8AD806616",
"}  c #6666B8B86A6A",
"|  c #6BECBBBB6EEF",
" . c #7474BEBE6F6F",
".. c #68E9B6B67D3D",
"X. c #6F6FC3C34A4A",
"o. c #7912C7604C19",
"O. c #6E6EC4C45757",
"+. c #7979C8485C5C",
"@. c #ABAB90901010",
"#. c #BABA9B9B0C0C",
"$. c #848485853838",
"%. c #921289893F3F",
"&. c #AAAA88882F2F",
"*. c #B9B991912323",
"=. c #DDDD9E9E0E0E",
"-. c #DEDEAAAA0000",
";. c #E0E0B8B80707",
":. c #FCFCB3330182",
">. c #FFFFB6B61010",
",. c #F6F6A9A90303",
"<. c #CDCDBABA3A3A",
"1. c #D8D8A5A53939",
"2. c #FFFFBEBE2121",
"3. c #83CFCD812C00",
"4. c #8383CFCF2525",
"5. c #87DCD19F2D4D",
"6. c #862FC96138F2",
"7. c #8C8CD2273636",
"8. c #8F8FD3D33E3E",
"9. c #EDEDC4C41313",
"0. c #F7F7C3C31F1F",
"q. c #D8D8C1C13030",
"w. c #F3F3C1C12B2B",
"e. c #FB7BD2522A2A",
"r. c #9D9D8D8D4848",
"t. c #89DF99EF4CF7",
"y. c #84039D9D4DCE",
"u. c #941396964F4F",
"i. c #9E1E95144C4C",
"p. c #83838C0C58D9",
"a. c #8ABD8E5B5AF4",
"s. c #85858F8F5555",
"d. c #92928E8E5959",
"f. c #852292BA54A3",
"g. c #8A73931E5555",
"h. c #86A698F951F2",
"j. c #861F92C558BF",
"k. c #8B52927558E7",
"l. c #9515949454D5",
"z. c #A24C923C4BA1",
"x. c #B4B49A9A4848",
"c. c #BDBD9B1B43C4",
"v. c #8B8BA5A542C2",
"b. c #9696A1A14E4E",
"n. c #8A8AB1B14A4A",
"m. c #BEBEAAAA4646",
"M. c #83038C8C60E1",
"N. c #8888ACAC6B6B",
"B. c #8E8EAFAF7373",
"V. c #9B1BBCBC7A7A",
"C. c #AAAABEBE6C6C",
"Z. c #A423B3B37CFD",
"A. c #B939B6B67EFF",
"S. c #CFCFACAC4141",
"D. c #CA4AB90E471D",
"F. c #D1D1BCBC4343",
"G. c #C7C7BDBD6B6B",
"H. c #C0C0BBBB7373",
"J. c #8787CDCD4646",
"K. c #9191CBCB4A4A",
"L. c #96CCD7B64904",
"P. c #8484CDCD5353",
"I. c #9404CD7650FE",
"U. c #9C6CD73354E2",
"Y. c #B838C5C55A5A",
"T. c #B409CE785A04",
"R. c #BCBCD0D05757",
"E. c #A949C5856B6B",
"W. c #B5B5CBCB6060",
"Q. c #C5C5CECE4848",
"!. c #C71CD37D4BA1",
"~. c #CBCBD3D34AA0",
"^. c #D2D2D2D24545",
"/. c #C0C0D3D35454",
"(. c #D191C9094E8F",
"). c #EEEED1D15959",
"_. c #C5C5C5C57C7C",
"`. c #EC6CDBDB6A6A",
"'. c #E6E6D0D07E7E",
"]. c #EB6BE5647F7F",
"[. c #F0F0E6E67D7D",
"{. c #3B3B7D7D9494",
"}. c #3E3E98988888",
"|. c #3B3B89899090",
" X c #292983838888",
".X c #45E8820181C8",
"XX c #4AE7853F8325",
"oX c #4E8E89498949",
"OX c #52D38C3F8C59",
"+X c #575791918B8B",
"@X c #4C4C8B8B9E1E",
"#X c #5C3193289328",
"$X c #5B5B9F9F9E9E",
"%X c #61E297979797",
"&X c #6AF89DEC9D98",
"*X c #671A9A33962F",
"=X c #53D4A2228C0C",
"-X c #5F5FA6A69696",
";X c #5C29A90F98CC",
":X c #5EDFB40993BE",
">X c #5C5CB2B29898",
",X c #6AEBA6E68B8B",
"<X c #6363ADAD8888",
"1X c #6C6CADAD8E63",
"2X c #7923A95385DB",
"3X c #76F7AE2E8909",
"4X c #6464B6B68585",
"5X c #6D6DB9B98181",
"6X c #6431B6E98C8C",
"7X c #7575B1B18C8C",
"8X c #6464AB18944B",
"9X c #6363ADAD9ADA",
"0X c #7474A4A49D9D",
"qX c #6161B5B59191",
"wX c #5A5A9D03A4D7",
"eX c #56AC9393A97E",
"rX c #59599413A828",
"tX c #57579616A5A5",
"yX c #5CC3A2D5A23B",
"uX c #5F5FA8A8A1A1",
"iX c #6DEEA0A0A0A0",
"pX c #74CAA54FA54F",
"aX c #7878A7A7A7A7",
"sX c #7C7CAA6AAA6A",
"dX c #8383A9A98383",
"fX c #9999AFAF8686",
"gX c #9313ACAC8282",
"hX c #8181B2328707",
"jX c #8585B3338989",
"kX c #8C8CB3B38383",
"lX c #97EDB5B5842E",
"zX c #ADADB6B68181",
"xX c #8585B106B106",
"cX c #8A8AB4F4B4F4",
"vX c #A7A7C6C69A9A",
"bX c #BF44E6819081",
"nX c #C8C8CECE9090",
"mX c #E4E4DDDD8D8D",
"MX c #C343E8689616",
"NX c #ECECE7E78A0A",
"BX c #E6E6E3E39C9C",
"VX c #D52AD92EA6FC",
"CX c #C7C7D4D4A6A6",
"ZX c #CCCCEA6AAAAA",
"AX c #D0D0EDEDADAD",
"SX c #E6E6E3E3A2A2",
"DX c #9D9DC1C1C1C1",
"FX c #A471C65FC65F",
"GX c #ACACCBCBCBCB",
"HX c #B1B1CECECECE",
"JX c #DCDCF1F1C3C3",
"KX c #E8E8F5F5DA5A",
"LX c #EF1AF851E551",
"PX c #F4F4FAFAECEC",
"IX c #FAA4FD52F6F6",
"UX c None",
/* pixels */
"UXUXUXUXUXUXUXUXUXUXUXUXUXUXUXUXUXUXUXUXUXUXUXUXUXUXUXUXUXUXUXUX",
"UXUXUXUXUXUXUXUXUXUXUXUXUXUXUXUXUXUXUXUXUXUXUXUXUXUXUXUXUXUXUXUX",
"UXUXUXUXUXUXUXUXUXUXUXUXUXUXUXUXyX$X-X8X,X2XdXgXUXUXUXUXUXUXUXUX",
"UXUXUXUXUXUXUXUXUXUXUXUXUX,X-X$XtXwX;X8X<X3XkXlXC.Y.UXUXUXUXUXUX",
"UXUXUXUXUXUXUXUXUXUXUX2X1X<X$XeXeXeXwX9X1X3XjXzXE./.~.UXUXUXUXUX",
"UXUXUXUXUXUXUXUXUXUXgXdX1X+X|.@XeXeXyX9X1XhXjXE.Y.!.^.S.UXUXUXUX",
"UXUXUXUXUXUXUXUXUXZ.fXdX..P  X{.eXeXuX8X7XjXlXW./.~.F.c.z.UXUXUX",
"UXUXUXUXUXUXUXA.A.A.fXN.K.+X}.@XeXwX9X1XjXlXE.R.~.F.c.z.u.UXUXUX",
"UXUXUXUXUXUXUXH.zXzXZ.Y./.O.}.wXrXyX8X3XkXE.T.Q.F.x.i.u.y.UXUXUX",
"UXUXUXUXUXUX(.G.F.nXVXVXvX` 8XwXwX9X1X2XV.T.!.D.x.i.t.h.f.UXUXUX",
"UXUXUXUXUX(.q.<.mXSXVXVXB.U ,X+X_ s ` N.T.Q.m.i.g.h.f.f.f.g.UXUX",
"UXUXUXUXw.e.e.`.NXNXBXVXv.Y y w t a w 9 t.W s 4 3 5 _ ' f.f.UXUX",
"UXUXUXUX>.2.0.`.NX[.].<.$.w i e 1 9 9 1 > - ; 2 2 5 ) OX*X[ UXUX",
"UXUXUXz.=.:.1._.'.).9.@.i q UXUXUX.X4 < % - - < 4 {.oX#XpXaXUXUX",
"UXUXUXd.r.&.$.%.*.:.,.+ i UXUXUXOXXX5 & # $ ; 2 7 .X+X&XsX#X4 UX",
"UXUXa.k.d.l.l.r.-.;.#.r w UXUX#X#X.XoXd $ - > 4 6 oX&XpX#X5 < UX",
"UXUXp.j.k.k.h.j.f.f.t w 8 UXiX#X%XpXiX2 > > < 5 .X%XiX%X4 < < ; ",
"UXUXM.a.k.a.k.j.f.s.w q 0 0XpXcXFXFXsX: : @ # @ _ iX.X4 : ; , , ",
"UXUXa.k.d.k.j.j.f.g.u q p sXcXFXHXGX%X@   o Y E / { ] 3 : ; , , ",
"UXp.j.k.k.k.f.f.t.b.v.8 5 &X#XcXDXxX&   Y U.3.K L K 4.I.I ; ; ; ",
"UXp.p.j.j.h.y.v.n.K.K.I , > , > +XoX. A 7.L H H H F 8.U.7.I & UX",
"UXUXf.k.R T ! o.J.P.N.) < < < < {.$ O 3.J H J J F 5.PXbXF 6.= UX",
"UXUXf.T ! ^ o.o.+. .5X< ; ; > ; & X j L H J J J H MXIXF H L Q UX",
"UXUXT Q ^ o.o.+. .5X4X< , > ; ; : X g J J J H F 7.PXU.F J H n UX",
"UXUXUX~ X.X.O.| 5X6X>X; ; ; > 2 5 3 h H J H F J AXJXL H H J k UX",
"UXUXUX~ O.} | 4X6XqX;X< ; , 4 d OXXXV D 4.MXL.J.IXU.H D J D k UX",
"UXUXUXUX( } ..6XqX:X>X2 < 4 ) oX.Xd B b c AXIXKXZXG D D D b h UX",
"UXUXUXUXUX..4X6X>X>X>X) 4 ) .X.Xd 5 * l b z KXLXJ.c b b G x UXUX",
"UXUXUXUXUXUX6XqX:X:X:X=X6 6 6 6 5 5 2 C v b N 6.n N N N v f UXUX",
"UXUXUXUXUXUXUXUXUXUX9X8XXX5 6 6 5 5 4 1 C m M M N M v k f UXUXUX",
"UXUXUXUXUXUXUXUXUXUXUXUXUXUX5 5 5 4 4 4 4 = Z h h h f UXUXUXUXUX",
"UXUXUXUXUXUXUXUXUXUXUXUXUXUXUXUXUX4 4 UXUXUXUXUXUXUXUXUXUXUXUXUX"
};
