/* XPM */
static char *enemylines3[] = {
/* columns rows colors chars-per-pixel */
"32 32 256 2 ",
"   c #139A131A1671",
".  c #14CE140D19E2",
"X  c #183D163B1DB0",
"o  c #19F319BE1E4D",
"O  c #171714BF20CB",
"+  c #195F16E821C5",
"@  c #1B741A152433",
"#  c #1DC31B9F29FA",
"$  c #196F1C723A3A",
"%  c #20EE1D502C5F",
"&  c #22A31E1E3272",
"*  c #24241B1B3838",
"=  c #23E1210D2A5B",
"-  c #242421212222",
";  c #2F9739B22860",
":  c #28D326D132DD",
">  c #2E2E2AAB3F3F",
",  c #278B25FD3601",
"<  c #21AC3B073B2F",
"1  c #34F736A1392D",
"2  c #44A477350E1D",
"3  c #4E8465A3329E",
"4  c #531B66BA3BE1",
"5  c #2A2A1E1E4343",
"6  c #2AD51A704AA0",
"7  c #191922A346C7",
"8  c #272724244343",
"9  c #2B8126D14399",
"0  c #33332A2A4B4B",
"q  c #3F3F3E3E4A4A",
"w  c #303027275454",
"e  c #39392A2A5E5E",
"r  c #3A3A34345555",
"t  c #329911DF6C39",
"y  c #37371C726AC0",
"u  c #3B6E1AC96D4E",
"i  c #38381A706767",
"p  c #30300E0E7676",
"a  c #3F3F0F0F7B7B",
"s  c #33B30C8D7AFB",
"d  c #3D3D141475F6",
"f  c #3C9F1D94715D",
"g  c #391912F37ABA",
"h  c #16162C2C7C7C",
"j  c #343424246610",
"k  c #325722226CDA",
"l  c #3B3B26266B6B",
"z  c #3F3F37376868",
"x  c #3CE735E063B9",
"c  c #33DE25257255",
"v  c #3A7A206071F2",
"b  c #323228E973F4",
"n  c #404017176F6F",
"m  c #409618C36F6F",
"M  c #40C1161672F2",
"N  c #43361B2873A6",
"B  c #444416167878",
"V  c #43831A9B7A7A",
"C  c #41C239BA6BAB",
"Z  c #41C220207373",
"A  c #494927277B7B",
"S  c #454529AA7B7B",
"D  c #48F33EE97C26",
"F  c #46063CDD7636",
"G  c #2D2D50505D5D",
"H  c #3F18795E5166",
"J  c #2E2E4A4A62E2",
"K  c #36364B4B6161",
"L  c #2CBA6BDB6D8D",
"P  c #45C6434357D8",
"I  c #452C46C351C3",
"U  c #575754545F5F",
"Y  c #62D97B0D4326",
"T  c #52D34F4F6969",
"R  c #464657576E6E",
"E  c #474D40E773A4",
"W  c #545450507575",
"Q  c #59CC584F7BE2",
"!  c #61615F5F6F6F",
"~  c #6DD37FBE6E6B",
"^  c #61CE7D4E720A",
"/  c #696968687878",
"(  c #4F3085790F7F",
")  c #52598CEA0D91",
"_  c #554C93530B4B",
"`  c #51FD821E1C0E",
"'  c #5CA4A7900B38",
"]  c #5B97B796009D",
"[  c #603BAB6A0B52",
"{  c #6445BCFA00C3",
"}  c #63B9B2B20C62",
"|  c #68ACBCA80B5F",
" . c #65E6B9B90586",
".. c #639FAC28135B",
"X. c #6610B55F1212",
"o. c #6A5FBC1813B9",
"O. c #524099B62F7B",
"+. c #494C88043BB6",
"@. c #587C98E736A0",
"#. c #69A199523AF7",
"$. c #6D6DC57C052A",
"%. c #6E5FC955015A",
"&. c #6C6CC3830ACB",
"*. c #7100CA7D05CC",
"=. c #7381CB76097D",
"-. c #7C7CCECE1818",
";. c #7777CCCC1111",
":. c #502795B749BF",
">. c #6AB9963543A0",
",. c #752393EC4D68",
"<. c #773295B15129",
"1. c #77EE897E695C",
"2. c #72B3808377AA",
"3. c #8383CFCF2727",
"4. c #87D2D1752D2B",
"5. c #852CC8B435EE",
"6. c #8C8CD2273636",
"7. c #8F8FD3D33E3E",
"8. c #8240A44B55C7",
"9. c #8A8ACBCB4141",
"0. c #93B1CB124EF1",
"q. c #96D1D7A24902",
"w. c #9C9CD9D95353",
"e. c #980CCD6F5669",
"r. c #33B413138080",
"t. c #3D3D14148080",
"y. c #0E8F2D2D8888",
"u. c #141431318787",
"i. c #31312F2F8585",
"p. c #28D13E6890E2",
"a. c #48C92B2B8484",
"s. c #414122228A8A",
"d. c #565635B68585",
"f. c #5A5A39398808",
"g. c #55003A908C8C",
"h. c #4A4A23239090",
"j. c #56562F2F9B9B",
"k. c #539337B89ADA",
"l. c #63633F3F9090",
"z. c #5B5B3535A2A2",
"x. c #606039BAA626",
"c. c #29D44DA39AF0",
"v. c #292950509D9D",
"b. c #12E54F6EB2FA",
"n. c #4E4E43438585",
"m. c #545449498C0C",
"M. c #4D4D5C5C8383",
"N. c #56D744449494",
"B. c #56564A4A94BF",
"V. c #59F34D1A9562",
"C. c #57014AA09898",
"Z. c #5AC44DD49CC5",
"A. c #5D5D45459A9A",
"S. c #5D7150DA9E4F",
"D. c #602B49B7A01F",
"F. c #666642C29313",
"G. c #606054D59B9B",
"H. c #64BA5AB099EF",
"J. c #777774748080",
"K. c #707067679999",
"L. c #72726C6C9B9B",
"P. c #5CA94EDBA221",
"I. c #5E265110A36A",
"U. c #45454C4CB2B2",
"Y. c #62E24BCCA4A4",
"T. c #6CED4DCEA1A1",
"R. c #613F5390A684",
"E. c #64A45959A524",
"W. c #68685D5DA6A6",
"Q. c #6294546DAB0A",
"!. c #66665A5AAB55",
"~. c #6B2B5E9EABEB",
"^. c #64315623B17E",
"/. c #6D3A6194AD13",
"(. c #6C6C61E2A5A5",
"). c #75356AAAAD2D",
"_. c #721C6610B207",
"`. c #79796E18B35D",
"'. c #75F66A6AB433",
"]. c #4E4E6C6CADAD",
"[. c #0D0D4141D4D4",
"{. c #1D1D4A4ADFDF",
"}. c #36B74C4CCB4B",
"|. c #3A3A6363D0D0",
" X c #051D43E3EC95",
".X c #09094343EFEF",
"XX c #0D0D4343E3E3",
"oX c #1C1C4B0BE868",
"OX c #1C1C5151E9E9",
"+X c #037243AFF418",
"@X c #09B14382F5FB",
"#X c #021643C4FCB7",
"$X c #45456969DFDF",
"%X c #4FF4758ADAC2",
"&X c #6C6C7373CECE",
"*X c #83837B7BB7B7",
"=X c #81817676B8B8",
"-X c #84C47A3ABACF",
";X c #4A7D96FD8F15",
":X c #59599E9E9C9C",
">X c #72728A8A8181",
",X c #7373A1A1A222",
"<X c #8C8C8A0A9C9C",
"1X c #91918F8F9C9C",
"2X c #85389B969D88",
"3X c #989897979696",
"4X c #959996459913",
"5X c #8D4D8303BF7F",
"6X c #964095EBA2F8",
"7X c #A17AA36EA780",
"8X c #A8FEA751BB10",
"9X c #A6A6A6A6BDBD",
"0X c #B023B213BF86",
"qX c #BF1AE6189024",
"wX c #C343E8689616",
"eX c #CCCCEA6AAAAA",
"rX c #D0D0EDEDADAD",
"tX c #92128888C2C2",
"yX c #9F1F9898CACA",
"uX c #9CDD95C0C670",
"iX c #A4A49C9CCC4C",
"pX c #BE3EBCBCC8C8",
"aX c #B635B635C8C8",
"sX c #ACD1A512D3D3",
"dX c #ADF3AB0BD432",
"fX c #B535AE2EDB5B",
"gX c #B308AD02D37D",
"hX c #BABAB35DDC31",
"jX c #8F8FAAAAF1F1",
"kX c #C0C0BABADBDB",
"lX c #C282BC7CE221",
"zX c #CBCBCBCBD4D4",
"xX c #DCDCF1F1C3C3",
"cX c #E8E8F5F5DA5A",
"vX c #CB8BC7C7E464",
"bX c #D858D5D5EBEB",
"nX c #D5D5D3D3E3E3",
"mX c #C0C0CDCDF3F3",
"MX c #C5C5D1D1F2F2",
"NX c #DCDCDCDCF3F3",
"BX c #E1E1DEDEF4F4",
"VX c #E48EE439ED97",
"CX c #E1E1E8E8EDED",
"ZX c #EFA6F8A5E5DC",
"AX c #F4F4FAFAECEC",
"SX c #E54FE4A4F509",
"DX c #EC96EC41F49E",
"FX c #E552E42CFC20",
"GX c #E969E767F979",
"HX c #E4E4E9E9F9F9",
"JX c #ECF6EC9AFC58",
"KX c #F0F0EFEFFCFC",
"LX c #EE6EF0F0FCFC",
"PX c #F9F9FCFCF5F5",
"IX c #F3A6F3C0FD56",
"UX c #FBFBFDFDF8F8",
/* pixels */
"x.j.r.J J J G K d B V V N N N N F.d.m N f A Z N v v c c c c c b ",
"z.h.g c.v.v.v.i.a n B B N N N N F.f.m N Z f.Z f u v f f c c c b ",
"j.x.t.Y.S.T.V B d d n m N N m N F.d.m A g.f.u u v u k j j c c b ",
"k.r.s s a s a g d d n n N N m m u m m v u u u i 6 8 0 * w k c c ",
"!.t.s p t t a v u a.d d n u u u u u u y y u u 6 @   @ @ x i.j k ",
"^.k.s.p t t t * 8 Q.R.Y.A.g.a.A u u u u y y t 6 . . . # C k.k k ",
"Z.Q.Q.Y.Z.N.B.X , Q.P.Q.R.Q.Q.R.R.I.N.g.l S j 5       @ D D j j ",
"I.Q.Z.Z.n.C.C.+ & V.Z.I.Z.P.Z.Z.Y.I.I.S.w I.e # .   X % n.C # % ",
"Q.I.I./.V.G.H.8 & m.G.E.I.R.R.E.~.~.~.).m.'.W : + X # # B.T q q ",
"iXuXgXlXgXgXhX9X=X5X-X5X-X-X-X=X`._./.E.H.I.R.9 @ @ @ # L.8XaXpX",
"/.!.!.Q.Q.Q.R.Q.Q.R.R.!.I.Q.I.Q.R.P.P.S.I.S.).9 X X @ @ @ + X # ",
"Q.P.Q.Q.Q.Q.S.I.Q.R.Z.R.Z.I.Z.S.S.P.E.*XdXvXsX:   . @ @ @     @ ",
"Q.Z.B.Q.Q.I.Z.Z.Q.Z.Z.I.Z.R.Z.Q.tXkXBXlX5XR.S.+   . O @       . ",
"Q.Z.Z.P.I.Z.S.I.R.Z.I.Q.I.Q.Q.F = P /.P.I.P.(.@ . . # # .   . . ",
"Q.P.Z.P.^.P.P.R.R.R.Q.Q.Q.Q.I.z . # P.I.P.yXnX@ X # @ + @ . O # ",
"Q.P.Z.Q.I.S.I.Q.Q.Q.I.Q.P.I.P.U - , P.).vXIXGXnXpX1X/ : @ . % # ",
"R.Q.=XsXbXlX5XW.Q.Q.Z.Y.S.Y.(.>XJ.P yXJXKX<X/ 6XzXDXBX> @ X @ @ ",
"Q.tXIXIXIXJXJXNXgX).V.R.W.dXFXCXJXHXIXJXhXr @ o : : W =     @ @ ",
"Q.=XIXKXGXIXIXIXJXHXhXG.<XVXIXJXKXJXKXsXQ.I Y ,.8.<.1.1     X @ ",
"`.fXFXFXJXIXIXIXHXyX!.C.+ % ! 8XDXJXyXI.~ e.4.-.=.-.3.0.4 . . @ ",
"JXIXJXJXIXIXGXsX~.^.Q.C.  o % o 1 K.P.~ 6.=.*.*.=.%.7.w.6.3 X % ",
"IXIXJXFXFXsX/.Q.Q.P.!.Z.@ X @   O W Q 5.=.=.=.=.%.4.AXqX%.5.; @ ",
"IXJXFXdX/.I.Q.I.S.S.P.U.y.7 & . O F >.=.=.=.*.*.*.wXPX%.*.;.` : ",
"JXfX_.Q.Q.Q.Q.Z.N.C.Z.}..XXXu.$ # F @.*.=.=.=.%.6.AXw.%.=.*.) - ",
").^.Q.Q.Q.Q.Q.C.C.C.Z.}.+X+X@X[.h c.O.*.=.*.*.=.rXxX;.=.=.=._ o ",
"Q.Q.^.Q.^.Q.Z.Z.B.Z.P.&XoX.X+X X X X+.$.4.qXq.7.UXw.$.$.$.*.( @ ",
"R.Z.Z.P.R.R.B.P.C.S.uXHXmX$X X@X+X+X+.| { eXPXcXeX&.&.$.$. .2 @ ",
"Z.Z.Z.Z.Z.R.B.R.P.iXSXJXHXHXjXOX+X@X^ [ | ] cXZX7.]  .| &.[ < % ",
"Z.B.Z.Z.P.Q.C.G.fXNXSXDXKXJXFXMXoX|.4X:.} o.o.5.{ o.o.X.} L  X[.",
"Z.Z.Z.Z.Q.Q.E.fXFXSXDXVXDXKXNXsXoX].4X;X,.X.X.X.X.X.} ' L  X#X#X",
"Z.Z.Z.I.Q.Q.K.vXFXSXVXbXDXHXlX!.{.M.3X:X2X1.#.>.#.#.H b.+X#X#X#X",
"Z.Z.Z.R.Q.Q.F U vXVXDXDXIXSX'.Q.{.R 3X,X,X3X7X0XdXdX%X#X#X#X#X#X"
};
