/* XPM */
static char *etw[] = {
/* columns rows colors chars-per-pixel */
"32 32 193 2 ",
"   c black",
".  c #020209090000",
"X  c #040413130000",
"o  c #05051C1C0000",
"O  c #131313131313",
"+  c gray11",
"@  c #0A3F25D3000D",
"#  c #0A1F2AFC0018",
"$  c #0E6C35AB0004",
"%  c #0B0B39390000",
"&  c #1717205C1230",
"*  c #19192F2F1313",
"=  c gray15",
"-  c #2A2A39392626",
";  c #30302F2F3030",
":  c #3A3A39393A3A",
">  c #0C0C42420000",
",  c #104355220000",
"<  c #1BA354FB004C",
"1  c #142F5D3F0003",
"2  c #232342421C1C",
"3  c #202055551313",
"4  c #21165E3E130F",
"5  c #171664470000",
"6  c #191963630000",
"7  c #1B1B6C6C0000",
"8  c #1F1F74740000",
"9  c #25C26CBF014B",
"0  c #320565BB036D",
"q  c #38266D2102B1",
"w  c #21A376CE0000",
"e  c #229A7C220000",
"r  c #34C678F101B6",
"t  c #383D7DE70255",
"y  c #3E7472720A53",
"u  c #3BEE7A560CAA",
"i  c #252566661313",
"p  c #36786B051B5E",
"a  c #2C2C75751313",
"s  c #2E2E70701C1C",
"d  c #2F2F55552626",
"f  c #31315E5E2626",
"g  c #3D3D4C4C3A3A",
"h  c #39FC56C13248",
"j  c #3F3F55553A3A",
"k  c #336C68B725E6",
"l  c #3A3A77772626",
"z  c #3A3A68683030",
"x  c #3C3C71713030",
"c  c #45E67E620ACD",
"v  c #49B35BD4380B",
"b  c #434368683A3A",
"n  c #444471713A3A",
"m  c #434342424343",
"M  c #4C4C4C4C4C4C",
"N  c #4F4F55554D4D",
"B  c #555555555555",
"V  c #5F5F5E5E5F5F",
"C  c #4A4A68684343",
"Z  c #525268684D4D",
"A  c #51EC7678478B",
"S  c #561E7B324D0D",
"D  c #6237779B5D5A",
"F  c #626268686060",
"G  c #696968686969",
"H  c #727271717272",
"J  c #75757B7B7373",
"K  c #262683830000",
"L  c #2AA386590049",
"P  c #2A728B1D000D",
"I  c #372083830EDB",
"U  c #2C2C90900000",
"Y  c #31519A9A0010",
"T  c #41B180D50535",
"R  c #43BB8AEA0381",
"E  c #4F7C9CBD0489",
"W  c #4DFC90AE0932",
"Q  c #414196961C1C",
"!  c #44449E9E1C1C",
"~  c #525C91DC1649",
"^  c #53C5A17604C3",
"/  c #5B49A45E06DD",
"(  c #5E3DAA8D06EB",
")  c #5EF2AAC109CF",
"_  c #5B20B7540013",
"`  c #5424A1281071",
"'  c #6363B7B70404",
"]  c #6438BD000080",
"[  c #6868BBBB0707",
"{  c #63B9B2B20C62",
"}  c #68AEBCA70B34",
"|  c #618EAA9E110E",
" . c #67CAA5421C32",
".. c #6610B55F1212",
"X. c #6A5ABC0E136C",
"o. c #494982823939",
"O. c #5656A7A73030",
"+. c #767FB0B62EB0",
"@. c #6D6DC57C052A",
"#. c #6E5FC9620156",
"$. c #6C6CC3830ACB",
"%. c #7118CAB705A1",
"&. c #7373CB740965",
"*. c #7777CCCC1111",
"=. c #7C7CCECE1818",
"-. c #5F5F84845656",
";. c #636395955555",
":. c #67679D9D5555",
">. c #6363A9A94343",
",. c #7F18AEC644DE",
"<. c #6D6DB2B24C4C",
"1. c #7676BCBC5555",
"2. c #676784846060",
"3. c #70708E8E6969",
"4. c #797997977272",
"5. c #7E7EA8A87171",
"6. c #8383CFCF2525",
"7. c #8383CFCF2929",
"8. c #8787D0D02C2C",
"9. c #88C9D2C62EC9",
"0. c #85D4CB88318C",
"q. c #8787C8C83F3F",
"w. c #8C8CD2273636",
"e. c #8F8FD3D33E3E",
"r. c #82C194A37A1C",
"t. c #9572BC1C65DD",
"y. c #91B9A86E7389",
"u. c #96EBA98E7CD4",
"i. c #8585B8B87171",
"p. c #9E37BC5575BA",
"a. c #9A6DB1B979B2",
"s. c #8A8ACBCB4141",
"d. c #92DBD6D940DB",
"f. c #9797D6D64B4B",
"g. c #9A9AD9D94F4F",
"h. c #9A4FD4A05325",
"j. c #9E9EDBDB5555",
"k. c #9C2CD18F5A0C",
"l. c #A0E5C16B77DE",
"z. c #868686868686",
"x. c #8E8E8E8E8E8E",
"c. c #8A8A97978787",
"v. c #94D19E8A872D",
"b. c #9F9F9F9F9F9F",
"n. c #8B8BA1A18686",
"m. c #9393A1A19090",
"M. c #9C9CA1A19A9A",
"N. c #9D9DB3B39898",
"B. c #A64DBD56881D",
"V. c #A0F8A2D29B28",
"C. c #A4F7A3A9A385",
"Z. c #A5A5AAAAA3A3",
"A. c #A8E9A5FBA8E9",
"S. c #AD53AAA5AD46",
"D. c #A5A5B3B3A2A2",
"F. c #AD11B118A5E1",
"G. c #B6B6B3B3B6B6",
"H. c #B7B7BDBDB5B5",
"J. c #BFBFBDBDBFBF",
"K. c #9C9CC3C38E8E",
"L. c #A3A3D2D28E8E",
"P. c #AFB5C3B1962C",
"I. c #A5FBC0579D31",
"U. c #B4DDCD40956C",
"Y. c #BFE4E6E390E5",
"T. c #AFAFC6C6AAAA",
"R. c #B4B4CC4CAB2B",
"E. c #B7B7D6D6AAAA",
"W. c #B8B8C6C6B4B4",
"Q. c #C1C1E7E79494",
"!. c #C4C4E8E89797",
"~. c #C343D453BDBD",
"^. c #CACAE9E9A7A7",
"/. c #CECEEAEAADAD",
"(. c #D0D0EDEDADAD",
"). c #C65DC61FC62A",
"_. c #C8C8C6C6C8C8",
"`. c #CDD0CE03CC9C",
"'. c #D1D1D0D0D1D1",
"]. c #DB21DA3ADB21",
"[. c #DCDCF1F1C3C3",
"{. c #D6D6E1E1D0D0",
"}. c #DFDFEAEADADA",
"|. c #E5E5F3F3D5D5",
" X c #EBEBF7F7DEDE",
".X c #E41FE3E3E41F",
"XX c #EFEFEEEEEFEF",
"oX c #EF51F867E54C",
"OX c #F4F4FAFAECEC",
"+X c #F6C8F6D1F6BC",
"@X c #F9F9FCFCF5F5",
"#X c #FFFAFFFCFFF6",
"$X c None",
/* pixels */
"$X$X$X$X$X$X$X$X$X$X$X$X$X$X$X$X$X$X$X$X$X$X$X$X$X$X$X$X$X$X$X$X",
"$X$X$X$X$X$X$X$X$X$X$X$X$X$X$X$X$X$X$X$X$X$X$X$X$X$X$X$X$X$X$X$X",
"$X$X$X$X$X$X$X$X$X$X#X+X#XB       $X$X$X$X$X$X$X$X$X$X$X$X$X$XY ",
"$X$X$X$X$X$X$XXX+X#X#X#X#Xx.+         $X$X$X$X$X$X$X$X$X$X$X$XY ",
"$X$X$X$X$X$X#X#X#X#X#X#X#X#X+Xm       ; z.$X$X$X$X$X$X$X$X$X$XY ",
"$X$X$X$X$Xb..X#X#X#X#X#X#X#X#X+X; ; ).#X#X#X$X$X$X$X$X$X$X$X$XY ",
"$X$X$X$X    S.#X#X#X#X#X#X#X#X#XXX#X#X#X#X#X#X$X$X$X$X$X$X$X$XY ",
"$X$X$X      S.#X#X#X#X#X#X#X#X#X+X#X#X#X#X#X#X#X$X$X$X$X$X$X$XY ",
"$X$X$X      S.#X#X#X#X#X#X#X#X#X#X#X#X#X#X#X#X#XR.$X$X$X$X$X$XU ",
"5 5 X       S.#X#X#X#X#X#X#X#X+X#X#X#X#X#X#X#X#X~.5 7 P 7 1 e P ",
"K o.      + +X#X#X#X#X#X#X#X#X'..X#X#X#X#X#X#X#X#Xa 8 7 1 e 7 U ",
"K :.B   ; .X#X#X#X#X#X#X#X].V   m #X#X#X#X#X#X#X#X;.7 7 8 7 5 P ",
"7 L.).B +X#X#X#X#X.X#X].V         B #X#X#X#X#X#X#X2 7 7 , 1 8 P ",
"8 E.+X#X#X#X#X#X#X+XC.O             x.#X#X#X#X#X.Xo 5 7 8 5 8 Y ",
"5 T.+X#X#X#X#X#X#X#XB                 S.#X#X#X#XS.o 1 5 8 1 i.O.",
"K R.#X#X#X#X#X#X#X#XB                 : .XXX#X#Xx.o 1 5 K.W.#X1.",
"7 :.#X#X#X#X#X#X#X#XB                 H _.'.+X#XB # :.{.XXXXXX1.",
"5 o.#X#X#X#X#X#X#X#XB               M G.S.S.S.).h r.+X+X+XXX].>.",
", 1 + '.#X#X#X#X#X+XS.            + J.S.A.V.a.p.t.l.U.F.].)..X>.",
"5 1 o O .X#X#X#X#X'.G.G.B       ; S.S.C.u.k.8.=.&.=.6.h.P.`.+X<.",
"5 8 , . ; XXXX].G.S.S.S._.S.m G J.S.S.y.w.&.%.%.%.#.d.j.w.B.I.! ",
"1 , 7 5 O J S.S.S.S.S.S.S.S.S.S.S.S.v.0.&.&.&.&.#.8.OXY.#.0.I K ",
"8 7 , 7 < 3 S.S.S.S.S.S.S.S.S.S.S.A.,.&.&.&.&.&.%.!.@X@.%.*.` Y ",
"5 w 7 e 6 , i M.S.S.S.S.S.S.S.S.S.A.+.&.&.%.%.#.w.OXg.#.&.%.^ P ",
"7 1 e e , P ].-.S.S.S.S.S.S.S.S.S.V. .&.&.%.#.&.(.[.*.&.&.&.^ L ",
"5 1 1 5 , -.'.c.z F S.S.S.J M O X & W #.7.Q.f.e.@Xg.%.%.@.$.^ L ",
"7 7 7 5 s N.n.D.2.C @ * - o = $ Z k ~ [ ] /.@X X^.$.$.@.$.[ R P ",
"5 8 Q ~..XXX).m.c.4.-.c.k , 2., 4 4 p ) } _ |.oXs.' [ } } ( 9 P ",
"K 5.XX.X#X.X'.4.3.-.4.S 3.4 S 2.S S S u ..} X.q.' X.} X.{ t 5 P ",
"}.+X].XXXX#X.XH.3.4.2.2.2.S S b k M.b A 0 | ....X...../ r w 8 Y ",
"XX'..X.X.X+X.XJ.b.n.3.4.S k Z.2.S n d N D v y c c T q < e 5 5 Y ",
"].XX].'..X'.].'._._.x l S l $ f * g : j > $ @ @ 1 @ $ % 1 7 8 Y "
};
