/* XPM */
static char *euler_32[] = {
/* columns rows colors chars-per-pixel */
"32 32 237 2 ",
"   c #000015960000",
".  c #003323560033",
"X  c #00002EAF0000",
"o  c #09092D2D0909",
"O  c #000034850000",
"+  c #0257345B0134",
"@  c #000039B40000",
"#  c #00003B550000",
"$  c #0C0C3A3A0C0C",
"%  c #012E41E800A6",
"&  c #013743C400AB",
"*  c #0403466D0137",
"=  c #0A0A40400303",
"-  c #006A4BE2005B",
";  c #0E0E47470E0E",
":  c #0C0C48480C0C",
">  c #022253930161",
",  c #000058580000",
"<  c #0B8C5BDC0B8C",
"1  c #1BE05C610E31",
"2  c #141454541414",
"3  c #121259DA1212",
"4  c #14FE5B701407",
"5  c #1A1A54541A1A",
"6  c #251459C01D37",
"7  c #191969691919",
"8  c #272745452727",
"9  c #22224A4A2222",
"0  c #2A2A5E5E2A2A",
"q  c #303045453030",
"w  c #30304B4B3030",
"e  c #2D2D60602D2D",
"r  c #2A2A6B6B2A2A",
"t  c #343470703434",
"y  c #3BBC7B7B3BBC",
"u  c #44F27E6D26BB",
"i  c #494677C82F2F",
"p  c #401670293CE3",
"a  c #43437C7C4141",
"s  c #58586A6A5858",
"d  c #55557B7B5555",
"f  c #59597C7C5959",
"g  c #61617A7A5D5D",
"h  c #65657A7A6565",
"j  c #3A3A92923A3A",
"k  c #4B4B88880303",
"l  c #4D4D8A8A0404",
"z  c #4D4D8A8A0606",
"x  c #4E4E8C8C0404",
"c  c #4F4F8E8E0808",
"v  c #48508E170DEA",
"b  c #525294940707",
"n  c #58589E9E0505",
"m  c #58589F9F0707",
"M  c #52099B620A3A",
"N  c #5D5DA6A60606",
"B  c #5D5DA7A70707",
"V  c #5E5EA7A70606",
"C  c #5F5FABAB0707",
"Z  c #5F5FABAB0909",
"A  c #5B5BB7B70000",
"S  c #6161ABAB0606",
"D  c #6161ACAC0606",
"F  c #6464B2B20606",
"G  c #6363B7B70404",
"H  c #63CFBAB101B2",
"J  c #6565BFBF0000",
"K  c #6868BBBB0707",
"L  c #6262B1B10909",
"P  c #6363B1B10F0F",
"I  c #6565B4B40D0D",
"U  c #6868BCBC0808",
"Y  c #6868BCBC0909",
"T  c #6868BDBD0B0B",
"R  c #6A6ABEBE0A0A",
"E  c #6868BBBB0E0E",
"W  c #6868BABA0F0F",
"Q  c #6262ACAC1010",
"!  c #6565B2B21111",
"~  c #6565B5B51010",
"^  c #6767B7B71515",
"/  c #6969BCBC1010",
"(  c #6969BCBC1212",
")  c #6A6AB9B91717",
"_  c #6CCDBDAC14AD",
"`  c #6B6BB2B21818",
"'  c #74C79B3B354B",
"]  c #75B1A7B83816",
"[  c #6A6AC6C60000",
"{  c #6D6DC4C40303",
"}  c #6B6BC1C10707",
"|  c #6C6CC1C10606",
" . c #6F6FC7C70606",
".. c #6F6FC7C70707",
"X. c #6B6BC8C80000",
"o. c #6D6DC8C80000",
"O. c #6F6FC9C90202",
"+. c #6FD6C9BB02BC",
"@. c #6B6BC3C30909",
"#. c #6E6EC2C20B0B",
"$. c #6E6EC6C60808",
"%. c #6969C0C00F0F",
"&. c #7038CA060403",
"*. c #7070CACA0404",
"=. c #7100CA420701",
"-. c #7171CACA0707",
";. c #7200CA4B0700",
":. c #7272CBCB0707",
">. c #7200CA420801",
",. c #71E2CACD07CE",
"<. c #7272CACA0808",
"1. c #7272CBCB0808",
"2. c #7373CBCB0808",
"3. c #7315CB330900",
"4. c #7272CBCB0909",
"5. c #7373CBCB0909",
"6. c #7373CACA0B0B",
"7. c #7575CBCB0B0B",
"8. c #7575CBCB0E0E",
"9. c #7676CBCB0F0F",
"0. c #7575CCCC0C0C",
"q. c #7575CCCC0D0D",
"w. c #7777CCCC1111",
"e. c #7C7CCECE1818",
"r. c #4E4E87874E4E",
"t. c #535383835353",
"y. c #5D5D86865D5D",
"u. c #5C5C94945C5C",
"i. c #7C719D7741E1",
"p. c #7C7CA6A64646",
"a. c #75D8A0B3551E",
"s. c #6B6B8F8F6B6B",
"d. c #747484846666",
"f. c #60B6933D60B6",
"g. c #6C6C99996C6C",
"h. c #74F59D9D73F4",
"j. c #7A7A90907A7A",
"k. c #6969ADAD6969",
"l. c #7272A3A37272",
"z. c #7B7BA4A47B7B",
"x. c #7F7FADAD7F7F",
"c. c #8383CFCF2525",
"v. c #8383CFCF2929",
"b. c #80E9C9092CEE",
"n. c #8787D0D02C2C",
"m. c #888CD2AD2E8B",
"M. c #8787CCCC3131",
"N. c #8787C8C83F3F",
"B. c #8B8BD0D03535",
"V. c #8C8CD0D03636",
"C. c #8D8DD4D43737",
"Z. c #8F8FD3D33E3E",
"A. c #8585A9A95757",
"S. c #8F8FB5B55E5E",
"D. c #898989897272",
"F. c #92929B9B7E7E",
"G. c #9F8EBB437081",
"H. c #8A8ACBCB4141",
"J. c #92F1D6E540E6",
"K. c #9797D6D64B4B",
"L. c #9A9AD9D94F4F",
"P. c #970ACE3954B2",
"I. c #9797D0D05050",
"U. c #9A9AD7D75151",
"Y. c #9E9EDBDB5555",
"T. c #9898C2C26161",
"R. c #9C9CC7C76262",
"E. c #83838C8C8383",
"W. c #818195958181",
"Q. c #85949C4A8496",
"!. c #86869D9D8686",
"~. c #8E8E9B9B8E8E",
"^. c #B4B484848484",
"/. c #A1A199999999",
"(. c #BFFE9B9E985E",
"). c #8585A1A18585",
"_. c #8D8DA4A48D8D",
"`. c #8C8CADAD8A8A",
"'. c #9494A4A48585",
"]. c #8606B5B58606",
"[. c #8181BBBB8181",
"{. c #9797AEAE9797",
"}. c #A9A9A2A29D9D",
"|. c #B2B2A6A69A1A",
" X c #ACACA1A1A1A1",
".X c #BEBEAEAEA7A7",
"XX c #A4A4BBBBA4A4",
"oX c #C3839C9C9C9C",
"OX c #C633A2C7A2C7",
"+X c #C95BA65DA65D",
"@X c #C544ADADAAAA",
"#X c #CD4CAC7DAC7D",
"$X c #CE9BB218B117",
"%X c #C6C6BEBEB3B3",
"&X c #D20DB459B459",
"*X c #D645BBD1BBBB",
"=X c #D389BEFDBABD",
"-X c #D8D8BF8CBF8C",
";X c #9D9DD6D69D9D",
":X c #BFD6E6BB90BB",
">X c #B0B0CC4CB0B0",
",X c #BABAC747BABA",
"<X c #BFBFCECEBFBF",
"1X c #C1C1E7E79494",
"2X c #C4C4E8E89797",
"3X c #D402C290C039",
"4X c #CACAE9E9A7A7",
"5X c #CECEEAEAADAD",
"6X c #D0D0EDEDADAD",
"7X c #DB5BC3C3C3C3",
"8X c #D6D6CECEC8C8",
"9X c #DEDECA3BCA1F",
"0X c #D5D5DADAD4D4",
"qX c #D92EDADAD227",
"wX c #E184CD87CD87",
"eX c #E4E4D393D393",
"rX c #E7E7D918D918",
"tX c #EA06DBBEDBBE",
"yX c #DCDCF1F1C3C3",
"uX c #D6D6E666D6D6",
"iX c #DBDBE8E8DBDB",
"pX c #E5E5F3F3D5D5",
"aX c #EBEBF7F7DEDE",
"sX c #EF19E439E439",
"dX c #E8E8EFEFE8E8",
"fX c #F0F0E5E5E5E5",
"gX c #F31DEA6AEA6A",
"hX c #EFE9F8DBE5DB",
"jX c #F3F3FAFAEBEB",
"kX c #F5F5FAFAEDED",
"lX c #F777F272F272",
"zX c #F8F8F3F3F3F3",
"xX c #F9F9FCFCF4F4",
"cX c #F9F9FCFCF6F6",
"vX c #FD7DFBFBFBFB",
"bX c #FBFBFDFDF8F8",
"nX c None",
/* pixels */
"nXnXnXnXnXtXeXwX7X#X#X#X^.#X*X@X.X&XOX&X&XOX&X#XOX*X7X7XwX*X*XeX",
"#X-X&X#X#X$X-X7X7X#X#X#X^.&X8X X/.zXvXnXnXnXnXnXnXnXgX7X7X$X-X$X",
"+XnXnXnXnXnXnXnXnXnXnXnX|.nXeX}.@X*X*X#X#X#X#X$XOX+XwXgXnXnXrXwX",
"$XnXnXnXnXnXnXnXnXnXnXnX#XdX].F.nXnXnXnXnXnXnXnX#XnXnXnXnXnX7XgX",
"+XnXnXnXnXnXnXnXnXnXnXnX*X[.j z.nXnXnXnXnXnXnXnX#XnXnXnXnXnX#XnX",
"#XnXnXnXnXnXnXnXnXnXnXnX*X;Xk.].nXnXnXnXnXnXnXnX#XnXnXnXnXnX$XnX",
"*XlXnXnXnXnXnXnXnXnXnXnXOXnXnXW.s ,XnXnXnXnXnXnXOXnXnXnXnXnX+XnX",
"eXtXnXnXnXnXnXnXnXnXnXnXoXnXnX_.O o h nXnXnXnXnX&XnXnXnXnXnX&XnX",
"fX-XnXnXnXnXnXnXnXnXnXnXOXnXnX_.O . . f nXnXnXnX+XnXnXnXnXnX+XnX",
"nX#XnXnXnXnXnXnXnXnXnXnX*XnXnX~.. . . e nXnXnXnX#XnXnXnXnXzXwXnX",
"nX#XnXnXnXnXnXnXnXnXnXnX*XnXnXE.    8 ,XnXnXnXnX#XnXnXnXnXeXeXnX",
"nX#XnXnXnXnXnXnXnXnXnXnX.X0X~.q w j.nXnXnXnXnXzX-XnXnXnXnX*XsXnX",
"nX#XnXnXnXnXnXnXnXnX{.).d.g r t s.g.nXnXnXnXnXgXwXnXnXnXnX#XtXnX",
"nX#XnXnXnXnXnXnXnXnXnXnX@XqX>Xa & ; 9 d XXdXnXeXeXnXnXnXnX#XnXnX",
"nX*XnXnXnXnXnXnXnXnXnXnX7XgXnX).& & # O $ y.<XwXsXnXnXnXnX#XnXnX",
"nXeXtXnXnXnXnXnXnXnXnXnXeXgXnX`.& # O O O = f.%XgXnXnXnXnX+XnXnX",
"nXsX*XnXnXnXnXnXnXnXnXnX8XqXiX!.O O O & # + : D.nXnXnXnXnX-XnXnX",
"nXeX#XnXnXnXnXnXuXl.f.f.r.a r.0 X O # # # + 4 Q.nXnXnXnXnXeXnXnX",
"nXnX#XnXnXnXnXl.7 < > - - - & O O O O # & 6 a.G.R.T.S.nXnXrXnXnX",
"nXnX+XnXnXnX]., > > - - O O X O O O # O i P.n.e.0.e.c.I.A.3XnXnX",
"nXnX&XnXnXnXx.< , , - - & O O O & O # u V.9.=.=.3.o.J.Y.B.p.nXnX",
"nXnX*XnXnXnXnX'.u.y 7 3 2 2 5 2 - > 1 b.5.=.5.5.o.m.kX:XX.M.nXnX",
"nXnXeXnXnX*X*XnXnXnXnXnXnXnXnXh.& * v 9.=.5.5.=.=.2XxX[ 3.0.` nX",
"nXnXeX7X*X9XnXnXnXnXnXnXnXnXnX>Xt.p M 5.5.=.2.O.C.jXL.=.5.=.F nX",
"nXnX7X#XeXnXnXnXnXnXnXnXnXnXnXnXnXnXS =.3.=.o.3.6XyXw.=.3.5.D nX",
"nXnXnX-X*XeXnXnXnXnXnXnXnXnXnXnXnXnXV ..v.1XK.Z.xXU..... .$.V nX",
"nXnXnXnXnXnXnX9X#XtXnXnXnXnXnXnXnXnXm K J 5XxXaX4X#.} | @.R n nX",
"nXnXnXnXnXnXnXnXnX7X*XrXnXnXnXnXnXnXnXZ T A pXhXH.H R R / S nXnX",
"nXnXnXnXnXnXnXnXnXnXnX7XwXwXnXnXnXnXnXc I W _ H.G / ( ( L l nXnX",
"nXnXnXnXnXnXnXnXnXnXnXnXnXnXnXwX*XrXnXnXl Q ! ~ ) ^ P B k nXnXnX",
"nXnXnXnXnXnXnXnXnXnXnXnXnXnXnXnXnX7X7XwXnXnXi.' ] b x nXnXnXnXnX",
"nXnXnXnXnXnXnXnXnXnXnXnXnXnXnXnXnXnXnXnXnXwX(.=XnXnXnXnXnXnXnXnX"
};
