/* XPM */
static char *ffanvil32[] = {
/* columns rows colors chars-per-pixel */
"32 32 182 2 ",
"   c #0C0A0C0A0C0A",
".  c #0D890EBD0C67",
"X  c #0F140FC40E39",
"o  c #10EA11930FEC",
"O  c #120812EE10D6",
"+  c gray7",
"@  c #161616161616",
"#  c gray10",
"$  c gray11",
"%  c #1E421EF81D44",
"&  c #283334061A8F",
"*  c #2E573F021C0B",
"=  c #211F211F2120",
"-  c #272727272727",
";  c #28192AC12516",
":  c #286A2A6E261D",
">  c gray17",
",  c #2C2C2C2C2C2C",
"<  c #2E602F032D69",
"1  c #2CCF31FC2556",
"2  c gray20",
"3  c #346D36613229",
"4  c gray21",
"5  c #38473BAE341F",
"6  c #393939393939",
"7  c #3C4A3ED33918",
"8  c #3C3C3C3C3C3C",
"9  c #47E379EC0ECE",
"0  c #4A1A62242BE9",
"q  c #4EA962A53492",
"w  c #601C787F3F62",
"e  c gray26",
"r  c gray28",
"t  c gray29",
"y  c gray31",
"u  c #535353535353",
"i  c #565656565656",
"p  c #585858585858",
"a  c #5D5D5D5D5D5D",
"s  c #606060606060",
"d  c #63A2644F6308",
"f  c gray40",
"g  c #727272727272",
"h  c #7E7E7E7E7E7E",
"j  c #4B4B88880303",
"k  c #4D4D8A8A0404",
"l  c #4D4D8A8A0606",
"z  c #4E4E8C8C0404",
"x  c #4EB8862F0C9D",
"c  c #50508E8E0606",
"v  c #525294940707",
"b  c #58589E9E0505",
"n  c #59EE97670E57",
"m  c #575798980D0D",
"M  c #585898980F0F",
"N  c #5A78956E12A9",
"B  c #5D5DA7A70707",
"V  c #5E5EA7A70606",
"C  c #5F5FABAB0707",
"Z  c #5E65A97F096A",
"A  c #5B2BB72A002B",
"S  c #6161ACAC0606",
"D  c #6464B2B20606",
"F  c #6363B7B70404",
"G  c #6363BABA0101",
"H  c #6565BFBF0000",
"J  c #6868BBBB0707",
"K  c #6262B1B10909",
"L  c #6363B1B10F0F",
"P  c #6565B4B40D0D",
"I  c #6868BCBC0808",
"U  c #6868BCBC0909",
"Y  c #6868BDBD0B0B",
"T  c #6A6ABEBE0A0A",
"R  c #6868BBBB0E0E",
"E  c #6868BABA0F0F",
"W  c #6262ACAC1010",
"Q  c #6565B2B21111",
"!  c #6565B5B51010",
"~  c #6767B7B71515",
"^  c #6969BCBC1010",
"/  c #6969BCBC1212",
"(  c #6A6AB9B91717",
")  c #6C6CBDBD1414",
"_  c #6B6BB2B21818",
"`  c #5A1B8ABD1FE1",
"'  c #6A6AC6C60000",
"]  c #6D6DC4C40303",
"[  c #6B6BC1C10707",
"{  c #6C6CC1C10606",
"}  c #6F6FC7C70606",
"|  c #6F6FC7C70707",
" . c #6B6BC8C80000",
".. c #6D6DC8C80000",
"X. c #6F6FC9C90202",
"o. c #6B6BC3C30909",
"O. c #6E6EC2C20B0B",
"+. c #6E6EC6C60808",
"@. c #6969C0C00F0F",
"#. c #7053C9FF041D",
"$. c #7070CACA0404",
"%. c #7136CA350736",
"&. c #7239CA380739",
"*. c #7171CACA0707",
"=. c #7272CBCB0707",
"-. c #7239CA380839",
";. c #7272CACA0808",
":. c #7272CBCB0808",
">. c #7373CBCB0808",
",. c #7272CBCB0909",
"<. c #7373CBCB0909",
"1. c #73C6CBC509C6",
"2. c #7373CACA0B0B",
"3. c #7575CBCB0B0B",
"4. c #7575CBCB0E0E",
"5. c #7676CBCB0F0F",
"6. c #7575CCCC0C0C",
"7. c #7575CCCC0D0D",
"8. c #7777CCCC1111",
"9. c #7C7CCECE1818",
"0. c #6A458EFA40E6",
"q. c #731D92094AA0",
"w. c #776696514EE8",
"e. c #7C7CA6A64646",
"r. c #7F21A17F50C7",
"t. c #8383CFCF2525",
"y. c #81A6C7F22DAF",
"u. c #8383CFCF2929",
"i. c #8787D0D02C2C",
"p. c #8888D2D22E2E",
"a. c #8787CCCC3131",
"s. c #8787C8C83F3F",
"d. c #8B8BD0D03535",
"f. c #8C8CD0D03636",
"g. c #8D8DD4D43737",
"h. c #8F8FD3D33E3E",
"j. c #8585A9A95757",
"k. c #8967A1C969F5",
"l. c #8A8ACBCB4141",
"z. c #9292D6D64040",
"x. c #9797D6D64B4B",
"c. c #9A9AD9D94F4F",
"v. c #971ACC9654FA",
"b. c #9797D0D05050",
"n. c #9A9AD7D75151",
"m. c #9E9EDBDB5555",
"M. c gray51",
"N. c #868686868686",
"B. c #8B8B8B8B8B8B",
"V. c gray56",
"C. c #979797979797",
"Z. c #9B9B9B9B9B9B",
"A. c #9F9F9F9F9F9F",
"S. c #A5A5A5A5A5A5",
"D. c gray67",
"F. c #ACACACACACAC",
"G. c gray70",
"H. c #B6B6B6B6B6B6",
"J. c #BBBBBBBBBBBB",
"K. c #BFBFE6E69090",
"L. c #C1C1E7E79494",
"P. c #C4C4E8E89797",
"I. c #CACAE9E9A7A7",
"U. c #CECEEAEAADAD",
"Y. c #D0D0EDEDADAD",
"T. c #C5C5C5C5C5C5",
"R. c gray79",
"E. c gray81",
"W. c LightGray",
"Q. c gray83",
"!. c #D8D8D8D8D8D8",
"~. c #DCDCF1F1C3C3",
"^. c #E5E5F3F3D5D5",
"/. c #EBEBF7F7DEDE",
"(. c #EFC5F8C5E5C5",
"). c #F3F3FAFAEBEB",
"_. c #F5F5FAFAEDED",
"`. c #F9F9FCFCF4F4",
"'. c #F9F9FCFCF6F6",
"]. c #FBFBFDFDF8F8",
"[. c gray100",
"{. c None",
/* pixels */
"{.{.{.{.{.{.{.{.{.{.{.{.{.{.{.{.{.{.{.{.{.{.{.{.{.{.{.{.{.{.{.{.",
"{.{.{.{.{.{.{.{.{.{.{.{.{.{.{.{.{.{.{.{.{.{.{.{.{.{.{.{.{.{.{.{.",
"{.{.{.{.{.{.{.{.{.{.{.{.{.{.{.{.{.{.{.{.{.{.{.{.{.{.{.{.{.{.{.{.",
"{.{.{.{.{.{.h   y {.{.{.{.{.{.{.{.{.{.{.{.{.{.{.{.{.{.{.{.{.{.{.",
"{.{.{.{.{.h       y {.{.{.{.{.{.{.{.{.{.{.{.{.{.{.{.{.{.{.{.{.{.",
"{.{.{.{.{.          y {.{.{.{.{.{.{.{.{.{.{.{.{.{.{.{.{.{.{.{.{.",
"{.{.{.{.{.y           y {.{.{.{.{.{.{.{.{.{.{.{.{.{.{.{.{.{.{.{.",
"{.{.{.{.h               {.{.{.{.{.{.{.{.{.{.{.{.{.{.{.{.{.{.{.{.",
"{.{.h                 h {.{.{.{.{.{.{.{.{.{.{.{.{.{.{.{.{.{.{.{.",
"h           {.{.y   h {.{.{.{.{.{.{.{.{.{.{.{.{.{.{.{.{.{.{.{.{.",
"      y {.{.{.{.{.{.{.{.{.{.{.{.{.{.{.{.{.{.{.{.{.{.{.{.{.{.{.{.",
"  y {.{.{.{.{.{.{.{.{.{.{.{.{.{.{.{.{.Q.D.A.G.W.{.{.{.{.{.{.{.{.",
"{.{.{.{.{.{.{.{.{.{.{.{.{.{.{.!.D.h i i u u u u i M.J.{.{.{.{.{.",
"{.{.{.{.{.{.{.{.{.{.{.{.h B.u [.[.u [.[.u u u u u u u p V.E.{.{.",
"{.{.{.{.{.{.{.{.{.H.h i u u [.u u [.u u [.i u u u u u u u u s {.",
"{.{.{.{.{.{.R.N.i u u [.[.[.[.[.[.[.[.u u u u u u u u y 8 - + J.",
"{.{.{.{.F.f u u u u u u [.i u [.u p i u u u u u t 4 =       t {.",
"{.{.S.a i u u u u u u [.u i [.u s u u u u e < $ O + X . r D.{.{.",
"Z.r e r y y u u u [.[.[.[.[.[.[.[.6 > $   1 w q.r.w.k.{.{.{.{.{.",
"a @         + + @ @ # @ @ +             q v.i.9.4.9.t.b.j.{.{.{.",
"{.{.F.s #                             0 f.4.$.*.*.X.z.m.d.e.{.{.",
"{.{.{.{.{.H.f $                     & y.3.*.>.3.X.p._.K. .a.{.{.",
"{.{.{.{.{.{.{.{.N.@ @ + + + # = - 3 ` 4.*.;.>.;.$.P.'.' ;.4._ {.",
"{.{.{.{.{.{.{.f = - = - = 2 6 6 6 7 N >.>.;.;.X.g.).c.X.>.=.D {.",
"{.{.{.{.{.{.g > - = - = > 6 8 8 6 5 n ;.;.X.} ;.Y.~.8.;.;.;.S {.",
"{.{.{.{.{.{.4 @ $ = = - 4 6 6 < > ; x ] u.L.x.h.].n.} } } +.V {.",
"{.{.{.{.{.{.f # # # = > 4 > - = = ; 9 I H U.`./.I.O.[ [ o.T b {.",
"{.{.{.{.{.{.{.A.= # @ - - = = - - = * Z Y A ^.(.l.G I T @.C {.{.",
"{.{.{.{.{.{.{.{.{.g $ = = - = - < t d 0.P E ) l.F R / / K k {.{.",
"{.{.{.{.{.{.{.{.{.{.{.C.F.T.{.{.{.{.{.{.k W Q ! ( ~ L B j {.{.{.",
"{.{.{.{.{.{.{.{.{.{.{.{.{.{.{.{.{.{.{.{.{.{.c M m v z {.{.{.{.{.",
"{.{.{.{.{.{.{.{.{.{.{.{.{.{.{.{.{.{.{.{.{.{.{.{.{.{.{.{.{.{.{.{."
};
