/* XPM */
static char *foff[] = {
/* columns rows colors chars-per-pixel */
"32 32 256 2 ",
"   c #1D1D1F1F1F1F",
".  c #331538E915F3",
"X  c #1D1D20202020",
"o  c #25252B2B2B2B",
"O  c #222223E423E4",
"+  c #32B32B6B2B6B",
"@  c #3A3A2E2E2E2E",
"#  c #2E2E30303030",
"$  c #31B233333333",
"%  c #3B3B37373737",
"&  c #343439393939",
"*  c #3A903CE73CE7",
"=  c #7C7C00810081",
"-  c #51513B3B3A3A",
";  c #74432D582908",
":  c #7B7B24242424",
">  c #6A6A3E3E3E3E",
",  c #787836363636",
"<  c #6F3773A30886",
"1  c #42A146234627",
"2  c #474749494949",
"3  c #4C4C4CF74CF7",
"4  c #5E5E4B4B4B4B",
"5  c #4BCC56565656",
"6  c #48C958D958D9",
"7  c gray35",
"8  c #666648484848",
"9  c #6E6E4B4B4B4B",
"0  c #656544444444",
"q  c #7B7B4B4B4B4B",
"w  c #6A6A52D352D3",
"e  c #7D7D5A5A5A5A",
"r  c #565668686868",
"t  c #595969696969",
"y  c #52D363636363",
"u  c #6F6F63636363",
"i  c #656568686868",
"p  c #69EA6B6B6B6B",
"a  c #7C7C63636363",
"s  c #650F721C721C",
"d  c #6E6E71717171",
"f  c #6D6D7A7A7A7A",
"g  c #71F27BFC7BFC",
"h  c #7D7D7DFE7DFE",
"j  c #743474347434",
"k  c #852502A30283",
"l  c #8CAF07D6057F",
"z  c #82820C0C0C0C",
"x  c #8B0B09090909",
"c  c #8B8B04370437",
"v  c #9C1C02420242",
"b  c #94C70AD80AD8",
"n  c #9C650B300B30",
"m  c #94C7049E049E",
"M  c #868616161616",
"N  c #8D8D16161616",
"B  c #838319191919",
"V  c #8E8E19191919",
"C  c #943E12BD12BD",
"Z  c #9A1A11111111",
"A  c #9C1C1E1E1E1E",
"S  c #A5FB02AD02AD",
"D  c #A9A906060606",
"F  c #A8D20B7B03EC",
"G  c #A5160C0C0C0C",
"H  c #ABD60B0B0B0B",
"J  c #B57504040404",
"K  c #BD3D05C605C6",
"L  c #B5B50AB50AB5",
"P  c #B8D80B180842",
"I  c #A30914AE14AE",
"U  c #A2E219591959",
"Y  c #AB1118321832",
"T  c #B58212E012E0",
"R  c #BB3A123D123D",
"E  c #B4B4196F196F",
"W  c #BC3C1A1A1A1A",
"Q  c #87872C2C2C2C",
"!  c #943E22CD22CD",
"~  c #9F9F24242424",
"^  c #94132B6B2B6B",
"/  c #9C1C29292929",
"(  c #8E0E32B332B3",
")  c #8C8C3F3F3F3F",
"_  c #9D1D31B231B2",
"`  c #969639393939",
"'  c #9A433C893C89",
"]  c #A4FA23232323",
"[  c #AD57247A247A",
"{  c #A5A529292929",
"}  c #AD2D2C2C2C2C",
"|  c #B5B522222222",
" . c #BBBB22222222",
".. c #AAAA3B3B3B3B",
"X. c #C40309CA09CA",
"o. c #C36D045A045A",
"O. c #8AA061C22C17",
"+. c #878742424242",
"@. c #8C8C4A094A09",
"#. c #9AF043EE43EE",
"$. c #92924B4B4B4B",
"%. c #88885B5B5B5B",
"&. c #838352525252",
"*. c #94945DDE5DDE",
"=. c #A3A341414141",
"-. c #ADAD43434343",
";. c #A4A452525252",
":. c #A9A956565656",
">. c #A7275A5A5A5A",
",. c #B2325E5E5E5E",
"<. c #8E2762C962C9",
"1. c #8B436B6E6B6E",
"2. c #96D665A565A5",
"3. c #91917D7D7D7D",
"4. c #999978787878",
"5. c #939374747474",
"6. c #A8A865656565",
"7. c #A2A26A6A6A6A",
"8. c #A8FE6C6C6C6C",
"9. c #BABA6D6D6D6D",
"0. c #A7A772727272",
"q. c #AA2A79797979",
"w. c #ABAB73737373",
"e. c #C0C053535353",
"r. c #747480C40732",
"t. c #6BB0969F0D8F",
"y. c #5E99A973095E",
"u. c #5B44B7360037",
"i. c #6188AB5B0BE7",
"p. c #6363B7B70404",
"a. c #649CBD4900EB",
"s. c #6868BBBB0707",
"d. c #63B9B2B20C62",
"f. c #68D7BCC70B5F",
"g. c #6615AEA015B3",
"h. c #6610B55F1212",
"j. c #6AA6BC4E13BC",
"k. c #78FCAD343D92",
"l. c #7CACBAFD3118",
"z. c #6D6DC57C052A",
"x. c #6E78C9540158",
"c. c #6C6CC3830ACB",
"v. c #713DCAB205B0",
"b. c #738BCB89097E",
"n. c #7777CCCC1111",
"m. c #7C7CCECE1818",
"M. c #746199824B6E",
"N. c #7F29B04A4760",
"B. c #7DC7839976F3",
"V. c #8383CFCF2525",
"C. c #8383CFCF2929",
"Z. c #8787D0D02C2C",
"A. c #88FFD2FF2F00",
"S. c #885DC7402FEA",
"D. c #87E5CE3133EE",
"F. c #84A2C2523F8E",
"G. c #8787C8C83F3F",
"H. c #8C8CD2273636",
"J. c #8F8FD3D33E3E",
"K. c #8631BD6443B2",
"L. c #839FB3444D54",
"P. c #88B2B27656E7",
"I. c #8AD6BBEA50B3",
"U. c #8A0AB3CE5840",
"Y. c #891D891E7043",
"T. c #A1589FC97245",
"R. c #9819BBAD6D99",
"E. c #99A0BC7C70D9",
"W. c #8A8ACBCB4141",
"Q. c #8ABAC5B543B2",
"!. c #92F1D6E940EA",
"~. c #9797D6D64B4B",
"^. c #9A9AD9D94F4F",
"/. c #8F88C23E58C0",
"(. c #95ECCD6150E9",
"). c #991BC9C45EE7",
"_. c #9A9AD7D75151",
"`. c #9E9EDBDB5555",
"'. c #9EBED43A5C9F",
"]. c #767682828282",
"[. c #7E7E86868686",
"{. c #7A7A8D0D8D0D",
"}. c #820281818181",
"|. c #8C8C87878787",
" X c #83D98C8C8C8C",
".X c #9C1C83038303",
"XX c #9EA58B0C8550",
"oX c #8A0A91919191",
"OX c #88889C9C9C9C",
"+X c #945495149514",
"@X c #9B9B95959595",
"#X c #9D479D9D9D9D",
"$X c #A5A584848484",
"%X c #A44E8CE28CE2",
"&X c #AEAE89898989",
"*X c #AC0183D983D9",
"=X c #B35D82D882D8",
"-X c #ADAD9C9C9C9C",
";X c #B0B099999999",
":X c #BCBC9D9D9D9D",
">X c #9C1CA3A3A3A3",
",X c #A0A0A0A0A0A0",
"<X c #AC2CAD2DAD2D",
"1X c #B7B7A3A3A3A3",
"2X c #B4F4AC2BAC2B",
"3X c #B5F5B5F5B5F5",
"4X c #B534BBBBBBBB",
"5X c #BC11B77EB77E",
"6X c #C343ABABABAB",
"7X c #C545B2B2B2B2",
"8X c #CECEBCBCBCBC",
"9X c #B0CAD32B8273",
"0X c #B40DD2FE8B95",
"qX c #B602CE1697DC",
"wX c #B7F7D0629745",
"eX c #B7F7D062988D",
"rX c #BFA8E6649065",
"tX c #BB86CF8BA178",
"yX c #C1C1E7E79494",
"uX c #C4C4E8E89797",
"iX c #C0C0D09FAEBA",
"pX c #C5F7D40CB57D",
"aX c #CACAE9E9A7A7",
"sX c #CECEEAEAADAD",
"dX c #D0D0EDEDADAD",
"fX c #C545C545C545",
"gX c #CFCFC5C5C5C5",
"hX c #C51ACC21CC21",
"jX c #CBCBCD22CD22",
"kX c #D20ACED7CD91",
"lX c #DFDFCDCDCDCD",
"zX c #CDFAD9DBC064",
"xX c #D27CD3D3D3D3",
"cX c #D8D8D4D4D4D4",
"vX c #DA9CDFD7D332",
"bX c #DD43DD76DD76",
"nX c #E0E0D5D5D5D5",
"mX c #E463DCDCDCDC",
"MX c #DCDCF1F1C3C3",
"NX c #E5E5F3F3D5D5",
"BX c #EBEBF7F7DEDE",
"VX c #DD1CE3A3E3A3",
"CX c #E411E474E430",
"ZX c #EAEAE5E5E5E5",
"AX c #EBF2EF84E7DD",
"SX c #E7E7E8E8E8E8",
"DX c #EDC2ECC1ECC1",
"FX c #F0F0E9E9E9E9",
"GX c #EF43F835E536",
"HX c #EF56F15DED6F",
"JX c #F4F4FAFAECEC",
"KX c #ED53F18AF18A",
"LX c #F487F601F479",
"PX c #F9CFFBC4F776",
"IX c #F53DF9B0F9B0",
"UX c #FF7CFF95FF8D",
/* pixels */
"UXUXUXUXUXUXUXUXUXUXUXUXUXUXUXUXUXUXUXUXUXUXUXUXUXUXUXUXUXUXUXUX",
"UXUXUXUXUXUXUXUXUXUXUXUXUXUXUXUXUXUXUXUXUXUXUXUXUXUXUXUXUXUXUXUX",
"UXUXUXUXUXUXUXUXUXUXUXUXUXUXUXUXUXUXUXUXUXUXUXUXUXUXUXUXUXUXUXUX",
"UXUXUXUXUXUXUXUXUXUXIXDXUXUXUXUXUXUXUXUXUXUXUXUXUXUXUXUXUXUXUXUX",
"UXUXUXUXUXUXUXLXlX=X..4.UXUXUXUXUXUXLXfX7.7.%XIXUXUXUXUXUXUXUXUX",
"UXUXUXUXUXUXcXe.W P K , UXUXUXUXUXUXSXr T K :.IXUXUXUXUXUXUXUXUX",
"UXUXUXUXUX4X..X.X.R A q UXUXUXUXUXUXbX6 W o.;.IXUXUXUXUXUXUXUXUX",
"UXUXUXUXjX-.X.X.^ - h CXUXUXUXUXUXUXbX6 E K ;.IXUXUXUXUXUXUXUXUX",
"UXUXUXIXu E L ^ OXLXUXUXUXUXUXUXDX1XbXy  .J >.DXgX6XDXUXUXUXUXUX",
"UXUXUX8X8 T G ;XUXUXUXUXUXUXIX7X| H oXt | L >. X,.H ..fXUXUXUXUX",
"UXLXDX|.<.G I 8XFXZXDXUXUXKX:XT G H +.r [ D $.{.Y H H A 5XUXUXUX",
"CX>XU ] ] G G { { ] w.IXKX2XY G I > @Xs [ D @.& + @.S G ~ xXUXUX",
"fX Xv n v n n n v v 7.UX2X} n Z 1.hXCXs { v 6.VXp o e n v @.IXUX",
"fX+X*.<.*.C b #.<.2..X3X$XC b 1.DXUXbXf { v 7.UXIX@XO ) b v 2XUX",
"cX3 2 * + ! b <.* 3 DX[.9.m ^ SXUXUXbXg / x 8.IXUXUXj s C z #.IX",
"UXIXIXDX* Q z ( VXUXbX4Xc k w.IXUXUXcX]./ k 8.UXUXUXmXo =Xx ^ ZX",
"UXUXUXUXi %.= = hXUXjX-X= = 5XUXUXUXbXg +.: &XUXUXUXLX3 5.z B mX",
"UXUXUXUX#XoXk x *XUX3X.X= k hXUXUXUXDXj p d ZXPXKXPXPXd a N M cX",
"UXUXUXUXjX5 =.x ` IX<X3.k k 3XUXUXUXUXUXPXvXwX0X9X0XwXB.1.C V nX",
"UXUXUXUXDX$ q.b ! ZX3X Xm v q.UXUXUXUXHXtX'.Z.m.n.m.V.(.T.l ! mX",
"UXUXUXUXUX7 w Z n 8XxX5 ..n _ DXUXUXIXqXH.b.v.v.v.x.!.`.D.O.' KX",
"UXUXUXUXUX@X@ U n $XKX$ <.G n %XUXUXzXD.b.b.b.b.x.A.JXrXx.S.Y.UX",
"UXUXUXUXUXxX+ ] H %.UXj + ] H I 1XPX).b.b.b.b.b.v.uXPXx.v.n./.PX",
"UXUXUXUXUXDX% ] L &.UXZX# w J H U XXQ.v.b.b.b.x.H.JX^.x.b.v.Q.LX",
"UXUXUXUXUXSX4 E L <.UXUX3XX 9 H J F t.b.b.v.x.b.dXMXn.b.b.b.l.AX",
"UXUXUXUXUX}.0 R T 7XUXUXUX,X  - [ P < x.C.yX~.J.PX_.z.z.z.b.K.LX",
"UXUXUXUXUXoX  Q #.DXUXUXUXUX4X% o ; < s.a.sXPXBXaXc.c.z.z.s.I.PX",
"UXUXUXUXUXUX+X1 cXUXUXUXUXUXUXDX>X1 . y.f.u.NXGXW.a.s.f.f.i.iXUX",
"UXUXUXUXUXUXUXZXUXUXUXUXUXUXUXUXUXIXkXM.h.f.j.W.p.j.j.j.d.R.LXUX",
"UXUXUXUXUXUXUXUXUXUXUXUXUXUXUXUXUXUXPXHXE.g.h.h.j.h.d.i.E.HXUXUX",
"UXUXUXUXUXUXUXUXUXUXUXUXUXUXUXUXUXUXUXUXLXpXU.L.k.N.U.pXLXUXUXUX",
"UXUXUXUXUXUXUXUXUXUXUXUXUXUXUXUXUXUXUXUXUXUXPXLXHXLXPXUXUXUXUXUX"
};
