/* XPM */
static char *freedoom[] = {
/* columns rows colors chars-per-pixel */
"30 32 256 2 ",
"   c #0525057405C2",
".  c #099D06C403EC",
"X  c #0B0B08880566",
"o  c #06FB080308F1",
"O  c #0D170B2108C6",
"+  c #14860F310903",
"@  c #185F102D073D",
"#  c #14F410100BBC",
"$  c #1C0013B50AF3",
"%  c #1BE31ACE17F9",
"&  c #22CC0F180746",
"*  c #2C7A0F3708AD",
"=  c #254F1AA90E65",
"-  c #2ACE1CC80EB5",
";  c #38FB13F30BD6",
":  c #3CBB19F40888",
">  c #2C071EC6103B",
",  c #2F91204B0F52",
"<  c #2CAC207512F9",
"1  c #38CB25AB1353",
"2  c #3EBF2CC719C5",
"3  c #3C232B48157F",
"4  c #460D105B05D9",
"5  c #3FE8125709B7",
"6  c #4B391CED107A",
"7  c #581539E7051B",
"8  c #4B0C28E816A6",
"9  c #430B2E6F1A11",
"0  c #4A5C33781A8E",
"q  c #54283A981EA5",
"w  c #7A5A39131001",
"e  c #5B5C2DBF29E8",
"r  c #4E6735B32259",
"t  c #4FE43AAB2258",
"y  c #5B433CD62169",
"u  c #43493F6C3A7A",
"i  c #623D27A3246B",
"p  c #68B72DB229A4",
"a  c #65553AF6209A",
"s  c #743C581518EE",
"d  c #5E1942BA2369",
"f  c #5D13457D2DC4",
"g  c #544941E43D0E",
"h  c #6426450B24F1",
"j  c #695546BA265C",
"k  c #6B034915272D",
"l  c #6A5845B928D0",
"z  c #62B8490C2CBA",
"x  c #6CCC497D28C1",
"c  c #74064D1C2AD0",
"v  c #78154FAF2B77",
"b  c #7C6047F128B7",
"n  c #7C6E51E42E09",
"m  c #63EF4A053303",
"M  c #68894E5F31FA",
"N  c #774A51393579",
"B  c #7A8952F53243",
"V  c #741B546D3A0D",
"C  c #3C5F3F0540D2",
"Z  c #495846AB43F0",
"A  c #463647C748CD",
"S  c #474D484E484E",
"D  c #4D0F4BB74A9F",
"F  c #455446394421",
"G  c #54DB4C274AD2",
"H  c #4DF94F685053",
"J  c #54DC54FF5478",
"K  c #5903552151AD",
"L  c #56FB582D5841",
"P  c #5ADD5B465B67",
"I  c #69A353324325",
"U  c #76425B10498E",
"Y  c #7BD050505050",
"T  c #7DF16A2A5BD9",
"R  c #6463642C6408",
"E  c #70236AD86765",
"W  c #73FF73DA73C4",
"Q  c #7C1A7C1A7C1A",
"!  c #850B3E873E87",
"~  c #922A36783401",
"^  c #956F6A0A1B14",
"/  c #86DC75721A7C",
"(  c #811654132F64",
")  c #8C6857E62E7B",
"_  c #9B6742C238D3",
"`  c #834556013171",
"'  c #868A587C32F5",
"]  c #8AEF5ADC3486",
"[  c #84365BE13B14",
"{  c #8D785E8839E3",
"}  c #9C62578D3491",
"|  c #923F5E8F365B",
" . c #A34A43A73C75",
".. c #9395783C2CE1",
"X. c #95AD61FD3A87",
"o. c #9A90648E3BB3",
"O. c #AA3A78102045",
"+. c #A1FC64C3321D",
"@. c #A0FD692C3DFB",
"#. c #8A3D50AD50AD",
"$. c #A1C941F5425F",
"%. c #ACC645D945D9",
"&. c #A4FA4D0E4476",
"*. c #A3BE4E374B29",
"=. c #ADF84B794A03",
"-. c #B2C04D184CE1",
";. c #BAD74DA04DA0",
":. c #A531513C4AC6",
">. c #AF0C53424D09",
",. c #A98455235208",
"<. c #B5A851DB5156",
"1. c #BAC354A954AB",
"2. c #BE9C5A275A30",
"3. c #884763074A46",
"4. c #9EF46AF94307",
"5. c #900D704954C3",
"6. c #9E0F72DA5124",
"7. c #92FF70BA588A",
"8. c #A41A6AC8404C",
"9. c #ABA26E8042C6",
"0. c #AE1970C644EE",
"q. c #B208737B476E",
"w. c #B906768949D1",
"e. c #B5FC78BB4D95",
"r. c #BC6B79D74C19",
"t. c #B3D1766D4C5D",
"y. c #A9FD769252EF",
"u. c #A9327B865CA3",
"i. c #B45C7B665325",
"p. c #BD1A7F555507",
"a. c #89467CB1721D",
"s. c #82FA7D5D78C8",
"d. c #C8824EE34EE3",
"f. c #C3D554275453",
"g. c #CEFC5B755B79",
"h. c #D9AC5640556A",
"j. c #D4345D705B5E",
"k. c #DACD5E805E38",
"l. c #C27C7D1F4E7C",
"z. c #C52A7EF4508C",
"x. c #D7A862466246",
"c. c #DC736E646E64",
"v. c #DEF47B017B01",
"b. c #EF96635D6144",
"n. c #E51E69DF69DE",
"m. c #EED16CE06CE6",
"M. c #F81163E963E9",
"N. c #F8A5666A666A",
"B. c #E4DD74DC74DC",
"V. c #4CF78A8A03AE",
"C. c #4F4F8E8E0808",
"Z. c #50508E8E0606",
"A. c #525294940707",
"S. c #58589F1F0606",
"D. c #575798980D0D",
"F. c #585898980F0F",
"G. c #5DB3A751065C",
"H. c #5F5FABAB0707",
"J. c #5BDAB79A0098",
"K. c #6161AC2C0606",
"L. c #6137AAA50A87",
"P. c #640EB45E0505",
"I. c #64A0BD0E00B0",
"U. c #6868BBBB0707",
"Y. c #63B9B2B20C62",
"T. c #68CEBCA90B41",
"R. c #64ADAA9711AB",
"E. c #6610B55F1212",
"W. c #6969B0B01414",
"Q. c #6A70BC1D135E",
"!. c #6B6BB2B21818",
"~. c #6D6DC57C052A",
"^. c #6E79C95F0163",
"/. c #6C6CC3830ACB",
"(. c #7151CACA05E6",
"). c #7396CB910989",
"_. c #7777CCCC1111",
"`. c #7C7CCECE1818",
"'. c #7BFCA6A645C6",
"]. c #B9E0A8DE0CF7",
"[. c #B81CA9962BDA",
"{. c #8383CFCF2525",
"}. c #8403CE4E2BAC",
"|. c #8787D0D02C2C",
" X c #8854D24B2E4B",
".X c #8787CCCC3131",
"XX c #8787C8C83F3F",
"oX c #8C8CD2273636",
"OX c #8F8FD3D33E3E",
"+X c #D55BC4B029E3",
"@X c #987A8D2C42D1",
"#X c #9A638F1856F3",
"$X c #83319BD45314",
"%X c #A40883115188",
"&X c #B8AF80B65547",
"*X c #B56681655F40",
"=X c #BC4B80CE582C",
"-X c #8505A9295656",
";X c #8822A7295FC9",
":X c #8F8FB5B55C5C",
">X c #ABBB8C3D6041",
",X c #A1DD83E36B02",
"<X c #B01A88756996",
"1X c #BED2832A60A8",
"2X c #B98D89E76694",
"3X c #BE798D9A6960",
"4X c #AB268F6F7646",
"5X c #8E69B1056051",
"6X c #C85181EB4F53",
"7X c #C4F88086527A",
"8X c #CB66840F54F1",
"9X c #CD758A005BEE",
"0X c #D14A878257FF",
"qX c #D3F08B155B6C",
"wX c #D8A88DCB5DFB",
"eX c #DC9B901D5FCE",
"rX c #C17F8A09633F",
"tX c #D74D8E116289",
"yX c #CC7B912267BA",
"uX c #CCF593246F45",
"iX c #DC2192816307",
"pX c #C69C99427826",
"aX c #D85796607507",
"sX c #E5FF98516784",
"dX c #E5249A716AB9",
"fX c #E9DB9E166D6D",
"gX c #E1839D6B722B",
"hX c #DF2BA5967F41",
"jX c #E7BDA0E7739A",
"kX c #ED4DA1B6712D",
"lX c #F58EAC517B7C",
"zX c #8A8ACBCB4141",
"xX c #92A4D64A4043",
"cX c #9797D6D64B4B",
"vX c #9A9AD9D94F4F",
"bX c #9871CCAE5034",
"nX c #9B1BD5545454",
"mX c #9E9EDBDB5555",
"MX c #937C937C937C",
"NX c #E0A0AF608B54",
"BX c #BFB5E6509051",
"VX c #C1C1E7E79494",
"CX c #C4C4E8E89797",
"ZX c #EAE2C493AA94",
"AX c #FC7AC76EAACF",
"SX c #CACAE9E9A7A7",
"DX c #CECEEAEAADAD",
"FX c #D0D0EDEDADAD",
"GX c #DCDCF1F1C3C3",
"HX c #EBEBF7F7DEDE",
"JX c #E5E5F3F3D5D5",
"KX c #EFCAF85BE556",
"LX c #F4F4FAFAECEC",
"PX c #F9F9FCFCF5F5",
"IX c #FBFBFDFDF8F8",
"UX c None",
/* pixels */
"UXUXUXUXUXUXUXUXUXUXUXUXUXUXMXUXUXUXUXUXUXUXUXUXUXUXUXUXUXUX",
"UXUXUXUXUXUXUXUXUXUXUXUXUXUXQ UXUXUXUXUXUXUXUXUXUXUXUXUXUXUX",
"UXUXUXUXUXUXUXUXUXUXUXUXUXUXW D UXUXUXUXUXUXUXUXUXUXUXUXUXUX",
"UXUXUXUXUXUXUXUXUXW UXUXi.,Xs.a.i.+.UX,XUXUXUXQ UXUXUXUXUXUX",
"UXUXUXUXUXUXUXUX7.R y.6XjXjX2XpXhX9X0X=XqXUXUXW UXUXUXUXUXUX",
"UXUXUXUXUXE p.wX3.G *XlXkX0Xl.9XkXtXfXfXqX8XU H UXUXUXUXUXUX",
"UXUXUXUXT u.9.' m D uXdX7Xr.w.e.dX0.w.eXsX0XU S I UXUXUXUXUX",
"UXUXUXUX4.` k 4.i.3.t.0.o.8X7Xr.tXX.) @.r.0XU C V 0.UXUXUXUX",
"UXUXUX] h 0 o.wX6X0.o.) X.eXfXiXiX@.b ] X.9.U f f ' UXUXUXUX",
"UXUXB y 1 x 7Xl.o.] n ( 8XsXiXiXeX&Xn n B ' X.{ V M h UXUXUX",
"UXv a 1 0 ] @.o.' n ] uXAXNX=XyX8XiX1X[ v n n ] o.m 9 2 UXUX",
"UXh 0 q h n ) n | q.gXAXZX4X5.,X<X&XaX3X{ x k ' X.v 9 - @ UX",
"# 9 d h h j j n r.z.9XrXc a %X>X,X6.@.i.0.] c ' ] c y , > UX",
"  1 n x d h d ` 8.| X.n : s ^ O.] B ' B ( | o.X.] n d = < = ",
". $ x n h d h x n c j 0 : ].[.+Xw 6 h v v v ] ' ` c q $ $ $ ",
"X + h ] d d h h c c d q 5 7 @X/ 4 8 h c ] x x h c c 3 $ , $ ",
"X $ N [ d y 0 f m x k h y ; & * 8 y 2 r [ z d t l l < - 1 UX",
"UX*.,.p =.i % S J K Z # + O X O # $ o   u J F g *.e o UXUXUX",
"UXUX2.$.-.~ UXD R R UXUXUXo X UXUXUXUXUX:X;X:X$X#XUXUXUXUXUX",
"UXUX2.1.-.UXUXJ R J UXUXUXUXUXUXUXUX-XnX}.`._.`.{.bX-XUXUXUX",
"UXUXUX1.-.UXUXP R UXUXUXUXUXUXUXUX'.oX_.^.(.).^.OXmXoX'.UXUX",
"UXUXUX=.=.UXUXL R UXUXUXUXUX-.UXUX}.).(.).).^. XLXBX^..XUXUX",
"UXUXUX-.<.2.! L R UXUXUXUXUX-.-.W._.(.).(.).^.CXPX^.(._.!.UX",
"UXUXUX-.-.f.=.K L UXUXUX<.%.%.>.P.).).).).^.oXLXvX^.).).P.UX",
"UXUXUX-.UX2.<.Y S UXUX*.2.UX%.*.K.).).^.^.).FXGX_.).).).H.UX",
"UXUXUXf.B.UX;.2.#.UXUX1.UXh. .&.G.^.}.VXcXOXIXnX~.~.(.~.G.UX",
"UXUXUX<.v.c.x.n.m.,.:.1.UXUXb &.S.U.I.DXIXHXSX/./.~./.T.S.UX",
"UXUXUXUXUXUX=.g.k.j.<.<.UXUXUX_ } L.T.J.JXKXzXI.U.T.T.H.UXUX",
"UXUXUXUXUXUXUXUXUXUX-.UXUXUXUXUXUXC.Y.Q.Q.XXP.Q.T.Q.Y.V.UXUX",
"UXUXUXUXUXUXUXUXUXUXUXUXUXUXUXUXUXb...R.E.E.Q.E.Y.G.V.UXUXUX",
"UXUXUXUXUXUXUXUXUXUXUXUXUXUXUXUXN.b.d.UXZ.F.F.A.V.UXUXUXUXUX",
"UXUXUXUXUXUXUXUXUXUXUXUXUXUXUXM.j.UXUXUXUXUXUXUXUXUXUXUXUXUX"
};
