/* XPM */
static char *freealchemist[] = {
/* columns rows colors chars-per-pixel */
"32 32 233 2 ",
"   c #58D94A4A36B7",
".  c #5B5B4D4D3838",
"X  c #5D5D50503C3C",
"o  c #30AA74F7456E",
"O  c #353557577474",
"+  c #4A4A50505151",
"@  c #64E556D74242",
"#  c #68E95ADB45C6",
"$  c #6C6C5E5E4A4A",
"%  c #737365655050",
"&  c #6E6E74747474",
"*  c #828274745E5E",
"=  c #8B8B7D7D6464",
"-  c #4D0D8A8A0444",
";  c #50508E8E0606",
":  c #525294940707",
">  c #58589E9E0505",
",  c #575798980D0D",
"<  c #585898980F0F",
"1  c #5DDEA7A70687",
"2  c #5F5FABAB0707",
"3  c #5B0AB754009E",
"4  c #49D6B3171913",
"5  c #4ED0BC5D18A0",
"6  c #52D4B3A2138B",
"7  c #6161ACAC0606",
"8  c #5FE8ABF80CD9",
"9  c #63E4B5340505",
"0  c #6464BD3D0081",
"q  c #6868BBBB0707",
"w  c #63B9B2B20C62",
"e  c #68BEBCBC0B36",
"r  c #6262ACAC1010",
"t  c #6610B55F1212",
"y  c #6A6ABC3C1353",
"u  c #6B6BB2B21818",
"i  c #4C13BDC12880",
"p  c #3939E4E43D3D",
"a  c #6D6DC57C052A",
"s  c #6E6EC9730157",
"d  c #6C6CC3830ACB",
"f  c #712CCACE0609",
"g  c #738FCB8E099B",
"h  c #7777CCCC1111",
"j  c #7C7CCECE1818",
"k  c #7D3DF7EA1A41",
"l  c #4040E6E63939",
"z  c #6464F0F02727",
"x  c #6868F0F02E2E",
"c  c #7272F2F23131",
"v  c #4B61A0B84973",
"b  c #7C7CA6A64646",
"n  c #76FFA8ED73EB",
"m  c #65D1BA6A7002",
"M  c #1043CD2A4CB8",
"N  c #0F88D2EB4FA6",
"B  c #0F7AD7C7524B",
"V  c #0D0DD9D35460",
"C  c #0E8FD7575A5A",
"Z  c #0FB2D3C34FE8",
"A  c #1292DADA5757",
"S  c #2E82C13A4E11",
"D  c #2727DEDE4C4C",
"F  c #2626DEDE5656",
"G  c #1414CFCF6D6D",
"H  c #1192D3D36464",
"J  c #1212D0D06C6C",
"K  c #1494CD4D75F6",
"L  c #15C0CA1F7E28",
"P  c #3232DFDF6868",
"I  c #480AC92B6742",
"U  c #7307C4746230",
"Y  c #4646E3E37373",
"T  c #4E4EE5E57575",
"R  c #5151E5E57979",
"E  c #8383CFCF2525",
"W  c #8260CE7C2C32",
"Q  c #8787D0D02C2C",
"!  c #880AD2542E9D",
"~  c #8787CCCC3131",
"^  c #8787C8C83F3F",
"/  c #8C8CD2273636",
"(  c #8F8FD3D33E3E",
")  c #8585F7F72727",
"_  c #8787F7F72C2C",
"`  c #8F8FF8F83B3B",
"'  c #8585A9A95757",
"]  c #8F8FB5B55E5E",
"[  c #929284846B6B",
"{  c #A6A696967575",
"}  c #B0F0A0E07DBD",
"|  c #8A8ACBCB4141",
" . c #9292D6D64040",
".. c #9797D6D64B4B",
"X. c #9A9AD9D94F4F",
"o. c #97C2D20253D0",
"O. c #9A9AD7D75151",
"+. c #9E9EDBDB5555",
"@. c #88B0F0AC435E",
"#. c #9393F8F84242",
"$. c #9D1DF9F95454",
"%. c #A2A2F9F95CDD",
"&. c #86C2C8F86CAB",
"*. c #939AC2A97E39",
"=. c #9F17ECCE6060",
"-. c #A6A6F9F96363",
";. c #A8A8FAFA6666",
":. c #A7A7F9F96868",
">. c #ABABFAFA6CED",
",. c #00E74D1A9663",
"<. c #03034F4F9919",
"1. c #0D0D53539696",
"2. c #064651919A5A",
"3. c #0B1655DF9D29",
"4. c #06065454A0A0",
"5. c #09095858A6A6",
"6. c #13135BF5A23B",
"7. c #1A9A61E2A6E6",
"8. c #1E1E6464A929",
"9. c #0E8F62E3B433",
"0. c #10106565B7B7",
"q. c #14146B6BBFBF",
"w. c #21A26767AB6B",
"e. c #23A46969ACAC",
"r. c #2A2A6E6EB0B0",
"t. c #2D2D7171B333",
"y. c #342D759AB494",
"u. c #3ABB7CFDBCBC",
"i. c #47477F7FB3B3",
"p. c #17177070C6C6",
"a. c #1B1B7171C6C6",
"s. c #1A1A7474CCCC",
"d. c #20A17CFDD959",
"f. c #1E33BCC797E3",
"g. c #2424BDBDA4A4",
"h. c #2323B4B4B7B7",
"j. c #7CEAB9118840",
"k. c #56F89A6CAA3E",
"l. c #41418080BEBE",
"z. c #1717C7C78383",
"x. c #1717C8C88181",
"c. c #196FC4C48D37",
"v. c #1BDCC2C292D2",
"b. c #5F5FE7E78181",
"n. c #6868E9E98686",
"m. c #6B6BE8E88B8B",
"M. c #7A7AE1E1B4B4",
"N. c #2727ADADC9C9",
"B. c #2828ABABCFCF",
"V. c #2CEAA71AD652",
"C. c #2AABA7A7D9D9",
"Z. c #2F2F9F9FEEEE",
"A. c #339D9BC3F533",
"S. c #31319696FBFB",
"D. c #33789A44FEDC",
"F. c #3C3C9E55FFFF",
"G. c #2CD7A34DE5E5",
"H. c #43438484C3C3",
"J. c #4CCD8A8AC6C6",
"K. c #4F4F8C8CC8C8",
"L. c #50D18D8DC8C8",
"P. c #57579616D353",
"I. c #5B5B9999D6D6",
"U. c #5C069C46DB30",
"Y. c #6D6D9C9CC1C1",
"T. c #67679C9CCACA",
"R. c #61619B9BD2D2",
"E. c #6F68A4CCD645",
"W. c #6F6FA7A7DEDE",
"Q. c #44449A9AEDED",
"!. c #44449D9DF6F6",
"~. c #5E5EA7A7EFEF",
"^. c #4235A181FECC",
"/. c #4B94A5A5FFB6",
"(. c #5151A7A7FFFF",
"). c #54C2A9F2FF47",
"_. c #5AC8ABF4FC8E",
"`. c #6464A4A4E2E2",
"'. c #69A9A6A6E2E2",
"]. c #6BECA9A9E666",
"[. c #6DEEAD2DEB6B",
"{. c #6363AEAEF9F9",
"}. c #6CEDB2B2F6F6",
"|. c #62FCB14AFF31",
" X c #6C16B4B4FD52",
".X c #7272B3F3F474",
"XX c #7171B6B6FB7B",
"oX c #731DB963FEFE",
"OX c #78CEBBBBFE53",
"+X c #B3B3A44E8383",
"@X c #B5B5A7A78E8E",
"#X c #BABAABAB8D8D",
"$X c #BBBBAE589393",
"%X c #BDBDB0B09696",
"&X c #C2C2B5B59999",
"*X c #C646B9399F1F",
"=X c #9116EB1B9AA7",
"-X c #952EF1BE9F05",
";X c #BBBBFBA58CE2",
":X c #BFBFE6E69090",
">X c #A6A6F4F49999",
",X c #B2B2F7F79393",
"<X c #BABAFA7A9111",
"1X c #8C8CE4E4BFBF",
"2X c #BFBFF9F9A1A1",
"3X c #B6B6F7F7ACAC",
"4X c #C1C1E7E79494",
"5X c #C4C4E8E89797",
"6X c #CACAE9E9A7A7",
"7X c #CECEEAEAADAD",
"8X c #D0D0EDEDADAD",
"9X c #8181B0B0DBDB",
"0X c #8181BEBEFBFB",
"qX c #A3A3EDEDC7C7",
"wX c #ACACE7E7DCDC",
"eX c #9494D4D4EBEB",
"rX c #8585C2C2FEFE",
"tX c #9932CCFFFECB",
"yX c #A3F9D328FDA7",
"uX c #B6B6DB30FFFF",
"iX c #BC3CDE5EFFFF",
"pX c #DCDCF1F1C3C3",
"aX c #C4C4F2F2DCDC",
"sX c #E5E5F3F3D5D5",
"dX c #EBEBF7F7DEDE",
"fX c #D0D0F575E6E6",
"gX c #CACAE5E5FFFF",
"hX c #D5B0EC34FE46",
"jX c #EFEFF8F8E5E5",
"kX c #F4F4FAFAECEC",
"lX c #F9F9FCFCF5F5",
"zX c #FBFBFDFDF8F8",
"xX c None",
/* pixels */
"xXxXxXxXxXxXxXxXxXxXxXxXxXxXxXxXxXxXxXxXxXxXxXxXxXxXxXxXxXxXxXxX",
"xXxXxXxXxXxXxXxXxXxXxXxXxXxXxXxXxXxXxXxXxXxXxXxXxXxXxXxXxXxXxXxX",
"xXxXxXxXxXxXxXxXxXxXxXxXxXxXxXxXxXxXxXxX@ % $ X xXxXxXxXxXxXxXxX",
"xXxXxXxXxXxXxXxXxXxXxXxXxXxXxXxXxXxXxX  = $X@X{ #   xXxXxXxXxXxX",
"xXxXxXxXxXxXxXxXxXxXxXxXxXxXxXxXxXxX1.+ { +X&X*X%X* xXxXxXxXxXxX",
"xXxXxXxXxXxXxXxXxXxXxXxXxXxXxXxXxX0.I.& } } +X%X*X$X@ xXxXxXxXxX",
"xXxXxXxXxXxXxXxXxXxXxXxXxXxXxXxXxXq.0X9X{ +X} } +X#X# xXxXxXxXxX",
"xXxXxXxXxXxXxXxXxXxXxXxXxXxXxXxXxX4.!. XY.+X} } +X[ . xXxXxXxXxX",
"xXxXxXxXxXxXxXxXxXxXxXxXxXxXxXxXxX5.D.F.S.Q.Y.T.i.O xXxXxXxXxXxX",
"xXxXxXxXxXxXxXxXxXxXxXxX<.7.w.w.2.s.F.OX/.D.D.D.S.9.xXxXxXxXxXxX",
"xXxXxXxXxXxXxXxXxXxXt.P..XoX XU.a.S._.OXD.D.d.<.,.,.xXxXxXxXxXxX",
"xXxXxXxXxXxXxXxX2.L..X).).|.{.~._.F.rX).S.D.9.xXxXxXxXxXxXxXxXxX",
"xXxXxXxXxXxXxX2.'.|.^. XyXuXuXuXyXtX).D.D.d.6.xXxXxXxXxXxXxXxXxX",
"xXxXxXxXxXxX2.K.|.F.OXtXgXhXhXhXuXtX{.D.S.p.`.w.xXxXxXxXxXxXxXxX",
"xXxXxXxXxXxXt..XD./.tXiXhXhXhXhXyXtX(.D.D.S./.].<.xXxXxXxXxXxXxX",
"xXxXxXxXxX,.U.(.D.(.eXwXfXfXaXqX1XM.v.h.A.D.D.XXw.xXxXxXxXxXxXxX",
"xXxXxXxXxX3.OXD.Z.g.m.-X>X,X<X;X>._ z l G N.S.^.R.,.xXxXxXxXxXxX",
"xXxXxXxXxXy.|.D.c.D x #.-.;.%.#.) ) k k p C C.A.E.3.xXxXxXxXxXxX",
"xXxXxXxXxXl.).C.F c k k k k k k k k k k @.I m j.*.n ] xXxXxXxXxX",
"xXxXxXxXxXJ./.N.T <X` k k k k k k k _ =.&.o.! j h j E o.' xXxXxX",
"xXxXxXxXxXu._.N.A R 3X<X%.$.$.:.;X2X=XU / h f f f s  .+./ b xXxX",
"xXxXxXxXxX8.oXG.V V P b.-X-X-X-Xn.Y S W g f g g s ! kX:Xs ~ xXxX",
"xXxXxXxXxX,.[.^.z.V V V V V V V V B i g f g g f f 5XlXa f h u xX",
"xXxXxXxXxXxXH.).B.H V V V V V V V Z 5 g g f f f / kXX.s g f 9 xX",
"xXxXxXxXxXxX6.'.F.B.J V V V V V V M 6 f g s s g 8XpXh f g g 7 xX",
"xXxXxXxXxXxXxXe.}.F.B.K V V V V V N 4 a E 4X..( zXX.f f a a 1 xX",
"xXxXxXxXxXxXxXxXr.'./.D.h.c.L x.L f.v q a 7XlXdX6Xd q a d e > xX",
"xXxXxXxXxXxXxXxXxX7.P.}.^.D.Z.Z.Z.^.k.8 e 3 sXjX| 0 e q y 7 xXxX",
"xXxXxXxXxXxXxXxXxXxX,.7.K.'.'.'.W.T.y.o t t y ^ 9 e y y 9 - xXxX",
"xXxXxXxXxXxXxXxXxXxXxXxX,.3.6.6.2.,.xXxX; r t t y t w 1 - xXxXxX",
"xXxXxXxXxXxXxXxXxXxXxXxXxXxXxXxXxXxXxXxXxXxX; < < : - xXxXxXxXxX",
"xXxXxXxXxXxXxXxXxXxXxXxXxXxXxXxXxXxXxXxXxXxXxXxXxXxXxXxXxXxXxXxX"
};
