/* XPM */
static char *gadmin_bind[] = {
/* columns rows colors chars-per-pixel */
"32 28 212 2 ",
"   c #000005050101",
".  c #000009090202",
"X  c #00000DED02FC",
"o  c #000012120404",
"O  c #000017170505",
"+  c #000018180505",
"@  c #00001D1D0707",
"#  c #000024240909",
"$  c #000028280B0B",
"%  c #02692E770D56",
"&  c #000033330F0F",
"*  c #000034340F0F",
"=  c #000033331010",
"-  c #00003A3A1111",
";  c #0ACF3F511AA8",
":  c #000040401313",
">  c #000045451616",
",  c #000049491717",
"<  c #00004A4A1818",
"1  c #00004E4E1A1A",
"2  c #000050501B1B",
"3  c #000054541B1B",
"4  c #00005D5D1F1F",
"5  c #000066662222",
"6  c #000069692424",
"7  c #00006C6C2525",
"8  c #00006F6F2D2D",
"9  c #000072722727",
"0  c #000074742929",
"q  c #00007A7A2B2B",
"w  c #00007D7D2B2B",
"e  c #00007E7E2C2C",
"r  c #455260CE2806",
"t  c #25256C6C4747",
"y  c #000085852F2F",
"u  c #00008E8E3232",
"i  c #000091913434",
"p  c #000095953535",
"a  c #000099993737",
"s  c #00009A9A3838",
"d  c #00009E9E3939",
"f  c #11B79F26303F",
"g  c #2E089E902077",
"h  c #0000A3A33B3B",
"j  c #0000A7A73D3D",
"k  c #0205AB6E3D52",
"l  c #0000AAAA3E3E",
"z  c #0000ADAD3F3F",
"x  c #0281B0A43F54",
"c  c #4B4B88880303",
"v  c #4D4D8A8A0404",
"b  c #4D4D8A8A0606",
"n  c #4E4E8C8C0404",
"m  c #50508E8E0606",
"M  c #50949448068B",
"N  c #525294940707",
"B  c #58589E9E0505",
"V  c #58589F9F0707",
"C  c #575798980D0D",
"Z  c #417A9FDE1C4F",
"A  c #5D5DA6A60606",
"S  c #5D5DA7A70707",
"D  c #5E5EA7A70606",
"F  c #5F5FABAB0707",
"G  c #5F5FABAB0909",
"H  c #5B5BB7B70000",
"J  c #6161ACAC0606",
"K  c #6464B2B20606",
"L  c #6363B7B70404",
"P  c #6363BABA0101",
"I  c #6565BFBF0000",
"U  c #6868BBBB0707",
"Y  c #6262B1B10909",
"T  c #6363B1B10F0F",
"R  c #6565B4B40D0D",
"E  c #6868BCBC0808",
"W  c #6868BCBC0909",
"Q  c #6868BDBD0B0B",
"!  c #6A6ABEBE0A0A",
"~  c #6868BBBB0E0E",
"^  c #6868BABA0F0F",
"/  c #6011ACDC113E",
"(  c #6565B2B21111",
")  c #6565B5B51010",
"_  c #6767B7B71515",
"`  c #6969B0B01414",
"'  c #6969BCBC1010",
"]  c #6969BCBC1212",
"[  c #6A6AB9B91717",
"{  c #6BFFBDB41442",
"}  c #6B6BB2B21818",
"|  c #616ABB602AB8",
" . c #6A6AC6C60000",
".. c #6D6DC4C40303",
"X. c #6B6BC1C10707",
"o. c #6C6CC1C10606",
"O. c #6F6FC7C70606",
"+. c #6F6FC7C70707",
"@. c #6B6BC8C80000",
"#. c #6D6DC8C80000",
"$. c #6F6FC9C90202",
"%. c #6B6BC3C30909",
"&. c #6E6EC2C20B0B",
"*. c #6E6EC6C60808",
"=. c #6969C0C00F0F",
"-. c #7070C9C90404",
";. c #7054CACC0444",
":. c #7155CAC8072A",
">. c #7220CAC60772",
",. c #7272CBCB0707",
"<. c #725FCAC60812",
"1. c #7272CBCB0808",
"2. c #7373CBCB0808",
"3. c #7272CBCB0909",
"4. c #7356CBC50917",
"5. c #7373CACA0B0B",
"6. c #7575CBCB0B0B",
"7. c #7575CBCB0E0E",
"8. c #7676CBCB0F0F",
"9. c #7575CCCC0C0C",
"0. c #7575CCCC0D0D",
"q. c #7777CCCC1111",
"w. c #7C7CCECE1818",
"e. c #0000A6A64141",
"r. c #0000AFB14047",
"t. c #0000AEAE4545",
"y. c #01D9B30D407E",
"u. c #0000B3B34242",
"i. c #0000B4B44242",
"p. c #0000B0B04444",
"a. c #0000B6B64646",
"s. c #0000B6B64848",
"d. c #0000B8B84C4C",
"f. c #0000BABA5656",
"g. c #0808BBBB5656",
"h. c #0F0FB0B05959",
"j. c #0000BEBE5F5F",
"k. c #0E0EBDBD5B5B",
"l. c #2436A9EE4C51",
"z. c #0000B8B86060",
"x. c #0000BFBF6262",
"c. c #0000BEBE6D6D",
"v. c #49D4AA1C4C1F",
"b. c #5BC4B61255AD",
"n. c #7B7BA6A64545",
"m. c #0000C3C36C6C",
"M. c #1414C2C26666",
"N. c #1212C4C46D6D",
"B. c #1C1CC3C36A6A",
"V. c #1CBFC36A6BF4",
"C. c #1A1AC4C46C6C",
"Z. c #0101CBCB7F7F",
"A. c #2121C6C67171",
"S. c #2323C7C77575",
"D. c #8383CFCF2525",
"F. c #8383CFCF2929",
"G. c #8484CCCC2E2E",
"H. c #8787D0D02C2C",
"J. c #87FFD2B42E42",
"K. c #8787CCCC3131",
"L. c #8787C8C83F3F",
"P. c #8B8BD0D03535",
"I. c #8C8CD0D03636",
"U. c #8D8DD4D43737",
"Y. c #8F8FD3D33E3E",
"T. c #8484A8A85555",
"R. c #8F8FB5B55C5C",
"E. c #8A8ACBCB4141",
"W. c #91FFD6B44042",
"Q. c #9797D6D64B4B",
"!. c #9A9AD9D94F4F",
"~. c #92D6CFEE4FDF",
"^. c #9A9AD7D75151",
"/. c #9B9BD2D25757",
"(. c #9E9EDBDB5555",
"). c #8109C74F6E7F",
"_. c #9898C2C26161",
"`. c #9C9CC7C76262",
"'. c #0000CACA8282",
"]. c #0303CDCD8383",
"[. c #1A1ACDCD8484",
"{. c #1616D0D08C8C",
"}. c #0000D2D29191",
"|. c #2E2ECDCD8383",
" X c #3232CDCD8383",
".X c #3535CDCD8383",
"XX c #3131C8C88A8A",
"oX c #2626D8D89F9F",
"OX c #3D3DD3D39292",
"+X c #4646D3D39191",
"@X c #4B4BD4D49595",
"#X c #4040D7D79C9C",
"$X c #6565DCDCA9A9",
"%X c #6969DEDEADAD",
"&X c #6E6EE0E0B2B2",
"*X c #7171E0E0B4B4",
"=X c #BEFFE657901C",
"-X c #C1C1E7E79494",
";X c #C4C4E8E89797",
":X c #CACAE9E9A7A7",
">X c #CECEEAEAADAD",
",X c #D0D0EDEDADAD",
"<X c #DCDCF1F1C3C3",
"1X c #E5E5F3F3D5D5",
"2X c #EBEBF7F7DEDE",
"3X c #EFEFF8F8E5E5",
"4X c #F3F3FAFAEBEB",
"5X c #F5F5FAFAEDED",
"6X c #F9F9FCFCF4F4",
"7X c #F9F9FCFCF6F6",
"8X c #FBFBFDFDF8F8",
"9X c None",
/* pixels */
"9X9X9X9X9X9X9X&X@X X X X|. X X|.S..X X X X XS.Z.'.9X9X9X9X9X9X9X",
"9X9X9X9X9X$XB.a.i.i.i.i.i.i.i.i.a.s.a.z i.i.a.a.s.j.z.9X9X9X9X9X",
"9X9X9X9X.Xa.i.i.i.i.i.i.i.i.i.i.z z i.z u.u.i.i.a.i.s.p.9X9X9X9X",
"9X9X9XS.u.i.i.i.r.d s s a s d a h a h h d s j u.u.i.i.a.s 9X9X9X",
"9X9X|.i.i.i.l 6 $ O O O O O O + O + + + O O @ 3 d u.i.u.p.0 9X9X",
"9X#Xs.i.i.h - . 9X9X9X9X9X9X9X9X9X9X9X9X9X9X9X9X- d i.u.a.s 9X9X",
"9XN.i.i.r.:   9X9X9X9X9X9X9X9X9X9X9X9X9X9X9X9X9X9X4 u.u.i.r.1 9X",
"}.s.i.i.e X 9X9X9X9X9X9X9X9X9X9X9X9X9X9X9X9X9X9X9X9Xd i.i.i.6 9X",
"Z.i.i.i.< 9X9X9X9X9X9X9X9X9X9X9X9X9X9X9X9X9X9X9X9X9Xe.a.i.i.e 9X",
"x.i.i.u.& 9X9X9X9X9XoXC.M.M.M.M.M.M.M.h.$ 9X9X9X9X9X9Xa.i.i.w 9X",
"j.i.i.u.* 9X9X9X9X9X].i.i.i.i.i.i.i.i.d + 9X9X9X9X9X9Xf.i.u.w 9X",
"f.i.i.u.2 9X9X9X9X9Xm.u.z u.u.u.i.i.i.u o 9X9X9X9X9X9Xd.i.u.q 9X",
"t.i.i.i.y 9X9X9X9X9X= $ $ $ $ 8 a.i.i.9 9X9X9X9X9X9X{.i.i.i.3 9X",
"9Xi.i.i.r.6 9X9X9X9X9X9X9X9X9XXXu.i.i.> 9X9X9X9X9X9XV.i.i.z $ 9X",
"9Xh u.u.u.p.9X9X9X9X9X9X9X9X*Xg.u.u.p O 9X9XR._.`.).b.l.r.w X 9X",
"9Xq r.u.i.i.f.c.9X9X9X9X9X%Xk.i.i.u., 9XT./.H.w.9.w.D.~.v.% 9X9X",
"9X9X0 u.i.i.a.a.m.[.OX+XA.a.i.i.i.9 X n.I.5.-.2.2.@.W.(.P.r 9X9X",
"9X9X9X7 r.i.i.i.u.i.i.i.i.i.i.i.q O 9XG.5.:.5.5.$.H.5X=X@.K.9X9X",
"9X9X9X9X2 a i.i.i.i.u.u.i.i.j 4 O 9X` 7.2.2.2.2.-.;X6X@.2.9.} 9X",
"9X9X9X9X9X@ 2 y j z u.z i 5 # . 9X9X| 2.2.:.2.$.U.4X!.-.2.5.K 9X",
"9X9X9X9X9X9X9Xo @ # # @ O   9X9Xt ; M 2.2.-.$.5.,X<Xq.2.2.2.J 9X",
"9X9X9X9X9X9X9X9X9X9X9X9X9X9X9X9X9X9XA ..F.-XQ.Y.8X^.O.:.*.*.A 9X",
"9X9X9X9X9X9X9X9X9X9X9X9X9X9X9X9X9X9XV U I >X6X2X:X&.o.o.%.W V 9X",
"9X9X9X9X9X9X9X9X9X9X9X9X9X9X9X9X9X9X9XG Q H 1X3XE.P W W =.F 9X9X",
"9X9X9X9X9X9X9X9Xi.i.9Xi.i.i.9Xi.9Xi.9Xg R ^ { L.L ^ ' ' Y v 9X9X",
"9X9X9X9X9X9X9Xi.9X9X9Xi.i.i.9Xi.9Xi.i.l v / ( ) [ _ ( A c 9X9X9X",
"9X9X9X9X9X9X9Xi.9X9Xi.i.9X9Xi.i.9Xi.i.i.9Xf m Z C M n 9X9X9X9X9X",
"9X9X9X9X9X9X9X9Xi.i.9X9Xi.i.9Xi.9Xi.9Xi.9Xi.x u.9X9X9X9X9X9X9X9X"
};
