/* XPM */
static char *gausssum[] = {
/* columns rows colors chars-per-pixel */
"32 32 256 2 ",
"   c #0106010B0002",
".  c #0C0C03030202",
"X  c #0D860B48020A",
"o  c #0B0B09090909",
"O  c #131303030000",
"+  c #151509090505",
"@  c #19190E0E0B0B",
"#  c #16970B0B0889",
"$  c #0F88104C0220",
"%  c #13391217019C",
"&  c #171716161414",
"*  c #1C1C1B1B1B1B",
"=  c #222219190909",
"-  c #26261B1B1A1A",
";  c #30301F1F1C1C",
":  c #1CBC2C0C02FD",
">  c #1F1F20201F1F",
",  c #2C512846020E",
"<  c #33332D2D0202",
"1  c #373733330505",
"2  c #3B3B39390606",
"3  c #2B362E05125C",
"4  c #303021211F1F",
"5  c #3C3C34341515",
"6  c #232323232222",
"7  c #2C2C22222121",
"8  c #2A2A28282626",
"9  c #2A0F2A2029F4",
"0  c #33332D2D2C2C",
"q  c #34F929142610",
"w  c #323231312727",
"e  c #363634343535",
"r  c #3E3E38383636",
"t  c #3DBE38383838",
"y  c #464638380404",
"u  c #424234343131",
"i  c #45743CB13B24",
"p  c #50503E3E3E3E",
"a  c #2E74532904A9",
"s  c #3E50705904EF",
"d  c #3E8F62191406",
"f  c #464644440707",
"g  c #4F4F4F4F0707",
"h  c #52524E4E0909",
"j  c #4F4F51510707",
"k  c #545454540707",
"l  c #585857570707",
"z  c #575758580707",
"x  c #5B5B5B5B0707",
"c  c #535353530909",
"v  c #5B5B56560B0B",
"b  c #5D5D5C5C0808",
"n  c #57D84ACB1818",
"m  c #5C5C59591919",
"M  c #63635E5E0707",
"N  c #60605F5F0909",
"B  c #68685C5C0505",
"V  c #79CF5B5B0B0B",
"C  c #676751511919",
"Z  c #78784B4B1B1B",
"A  c #5F5C6068084D",
"S  c #46E87E60048F",
"D  c #4F5B7AE41071",
"F  c #626262620707",
"G  c #6B6B6B6B0707",
"H  c #657E64990983",
"J  c #6976658B0B7B",
"K  c #6C6C6B6B0909",
"L  c #6F6F70700C0C",
"P  c #797979790B0B",
"I  c #704870480ABD",
"U  c #6B6B6A6A1313",
"Y  c #686862621818",
"T  c #76766AC01111",
"R  c #565649492121",
"E  c #565652522323",
"W  c #48C940C13ABB",
"Q  c #75755B5B2B2B",
"!  c #4FFF605C28EA",
"~  c #69596A4926D2",
"^  c #70706D6D2B2B",
"/  c #7A7A73732F2F",
"(  c #707066663939",
")  c #464644444343",
"_  c #4A4A44444343",
"`  c #484846464848",
"'  c #4E4E4A4A4949",
"]  c #58584A4A4747",
"[  c #54544C4C4C4C",
"{  c #5D5D51514E4E",
"}  c #5E5E51514242",
"|  c #53534E4E5252",
" . c #555551515252",
".. c #5B5B53535353",
"X. c #5D5D5A5A5A5A",
"o. c #5F5F59595757",
"O. c #656556565353",
"+. c #64645B5B5B5B",
"@. c #6B6B5E5E5C5C",
"#. c #6D6D59595050",
"$. c #787872724D4D",
"%. c #6C6C63635E5E",
"&. c #6F6F61615454",
"*. c #79FA6AEA5151",
"=. c #6C6C5F5F6060",
"-. c #6D6D62626161",
";. c #6D6D6B6B6767",
":. c #737366666464",
">. c #757569696666",
",. c #74746A6A6A6A",
"<. c #7A7A6D6D6B6B",
"1. c #7C7C73736E6E",
"2. c #767671717171",
"3. c #7C7C7C7C7474",
"4. c #7C7C77777878",
"5. c #7D7D73737272",
"6. c #868659590606",
"7. c #979758580202",
"8. c #898968680707",
"9. c #838376762020",
"0. c #921266E735B6",
"q. c #808070704444",
"w. c #949473735252",
"e. c #81817E7E6666",
"r. c #828273737272",
"t. c #858578787575",
"y. c #888879797373",
"u. c #8B8B7B7B7A7A",
"i. c #84847E7E7D7D",
"p. c #4CF78A8A045A",
"a. c #4E91874B0508",
"s. c #50508E8E0606",
"d. c #55DC96550B33",
"f. c #62129F5E068B",
"g. c #5DA1A85307F6",
"h. c #5B00B7000000",
"j. c #6197ACAD0A9E",
"k. c #64A9BD5500F7",
"l. c #63B9B2B20C62",
"z. c #68D3BCC20B5B",
"x. c #65E6B9B90586",
"c. c #6262ACAC1010",
"v. c #6610B55F1212",
"b. c #6A3FBBE81355",
"n. c #7D2B932C3907",
"m. c #776BAC9D332A",
"M. c #6D6DC57C052A",
"N. c #6E62C9540156",
"B. c #6C6CC3830ACB",
"V. c #7148CA9105E7",
"C. c #7397CB88098A",
"Z. c #7C7CCECE1818",
"A. c #7777CCCC1111",
"S. c #7AC089CC5BD4",
"D. c #8C8C87870C0C",
"F. c #890987060C0C",
"G. c #999997970E0E",
"H. c #9D9D9B9B0E0E",
"J. c #974897E31019",
"K. c #A5A5A1A10E0E",
"L. c #AEAEABAB0F0F",
"P. c #A9A9A7A70F0F",
"I. c #B5B5A2A20C0C",
"U. c #BABABABA0F0F",
"Y. c #A2A2A1A11010",
"T. c #A9A9A7A71292",
"R. c #B6B6B3B31010",
"E. c #898986862828",
"W. c #86289DC02D3F",
"Q. c #8FC6C500101C",
"!. c #BC10C5C81E10",
"~. c #8486CDCB2B42",
"^. c #8383CFCF2525",
"/. c #87FFD1932D1A",
"(. c #85EEC805378B",
"). c #8C8CD2273636",
"_. c #8F8FD3D33E3E",
"`. c #C9C9C6C61212",
"'. c #C43FC1511193",
"]. c #D2D2CDCD1111",
"[. c #CF5AD1E317E3",
"{. c #D8D8D5D51313",
"}. c #D6D6D3D31313",
"|. c #E1E1DEDE1515",
" X c #EB1DE74D15E3",
".X c #F651F4FB1A04",
"XX c #8C8C86865757",
"oX c #8BE1A8A8498E",
"OX c #95B7A84E5EBB",
"+X c #8AAABB6A5033",
"@X c #9054B27D502A",
"#X c #8B8B82827F7F",
"$X c #823C80927991",
"%X c #9C9C93937575",
"&X c #8A8ACBCB4141",
"*X c #96DED7A448E0",
"=X c #97DECE165274",
"-X c #9C9CD9D95353",
";X c #85857F7F8080",
":X c #91917E7E8080",
">X c #8BB085CE83A8",
",X c #959588888787",
"<X c #9D9D8E8E8C8C",
"1X c #94948D8D8D8D",
"2X c #9A9A923C8CE2",
"3X c #9A9A92929393",
"4X c #9E9E97979999",
"5X c #9FA1999097E4",
"6X c #A3A395959595",
"7X c #A7A79B9B9797",
"8X c #A5A59C9C9C9C",
"9X c #AAAA9B9B9999",
"0X c #B7DEAC5487EA",
"qX c #A9A9A3A39E9E",
"wX c #B5B5ABAB9797",
"eX c #A7A79F9FA1A1",
"rX c #AEAEA9A9AAAA",
"tX c #ABABA5A5A6A6",
"yX c #B8B8A8A8A7A7",
"uX c #B0B0A7A7A8A8",
"iX c #B2B2ABABACAC",
"pX c #BABAB4B4AFAF",
"aX c #B7B7B2B2B2B2",
"sX c #BCBCB4B4B5B5",
"dX c #C6C6B6B69C9C",
"fX c #C3C3BBBBBCBC",
"gX c #CACABDBDBDBD",
"hX c #C242B736B534",
"jX c #BF20E6088FFF",
"kX c #B41BC33EA158",
"lX c #CCCCC5C59F9F",
"zX c #C343E8689616",
"xX c #C9C9C1C1BDBD",
"cX c #CCCCEA6AAAAA",
"vX c #D0D0EDEDADAD",
"bX c #CBCBC8C8C8C8",
"nX c #D5D5C7C7C5C5",
"mX c #D7D7CDCDCCCC",
"MX c #DBDBCDCDCCCC",
"NX c #CD4FD20DC568",
"BX c #DCDCD3D3D4D4",
"VX c #D5D5D1D1D1D1",
"CX c #E3E3D1D1D4D4",
"ZX c #E4E4D9D9DADA",
"AX c #DCDCF1F1C3C3",
"SX c #E8E8F5F5DA5A",
"DX c #EA75E5F1E6F2",
"FX c #E9E9E83DE8E8",
"GX c #F2F2EEEEEEEE",
"HX c #EF33F824E522",
"JX c #F4AAF7B4EE02",
"KX c #FAFAF7F7F6F6",
"LX c #F9CFFC27F605",
"PX c #FE90FDFDFD45",
"IX c #F2F2F2F2F1F1",
"UX c None",
/* pixels */
"UXUXUXUXUXUXUXUXUXUXUXUXUXUXUXUXUXUXUXUXUXUXUXUXUXUXUXUXUXUXUXUX",
"UXUXUXUXUXUXUXUXUXUXUXUXUXUXUXUXUXUXUXUXUXUXUXUXUXUXUXUXUXUXUXUX",
"UXUXUXUXUXUXUXUXUXUXUXUXUXUXUXUXUXUXUXUXUXUXUXUXUXUXUXUXUXUXUXUX",
"      o o         o       o         o                 o o       ",
"X.| 6 ` X.9 t X.i e [ t i [ _ i i ` ..' u W _ _ ..i 0 i | ` i _ ",
"2.4X| e i.>X' X.i.,.| @.1.,.=.:.<.:.@.<.t.:.:.:.:.:.r.<.+.+.-.r.",
"` 4X3X` ` 1X>X[ _ >X6X-.[ <.q.Z 0.w.y.>.=.>.r.<.:.>.<.<.r.r.1.{ ",
"e #XiX,.0 ..eXeX+.r ;.7Xr.R V 6.7.7.0.#.r.:Xt.r.1.r.,.-.@.<.u.>X",
"6 ;.aXrX| 7 ..iXiX;Xi %.$.g M D.I.8.6.Q O.O.:.<.r.<.r.<X<X<X@.{ ",
"* ` rXbX8X_ q =.8XsX+.5 f g x K. XF.V V $.,X:X:X<X9X9XO.u u ] 9X",
"9 t 2.sXeX+.u q 6XCXwXm k k x G. XH.G B 9.0XfX:Xu q ; :.MXnXgXhX",
"& 7 ;XBXGXBX<.7 u } ~ c z k x F.{.P.I B J C y %.gXgXyXyXu.y.,X6X",
"| e ,.,XfX8Xi ; = y z c b x A I U.`.P F M J v ( dXnXZXZX{ + # # ",
"o   . ` fXDXmX%Xm v c z H H A G L.{.G.F H H U U V R u p O.<X>X<.",
"0 - -.BXKXKXdX/ U z c H G H x H P. XR.G x J N J T h + O 0 VXPXPX",
"uX) ` 5.3X7X^ J v c z K K G x H K. X`.P l J M N U U $.@.| uXGXGX",
"r X   . = h J b j z F L G A A A H. X|.D.F x G A H P lXLXIXaXi ) ",
"  .   X 2 c z x z z G F G x x A G.|.|.H.H x H H m U 0XPXPXDXi + ",
"@ . # 1 g g z b z F x x G A z G J.].{.K.L ~ n.oX@XoXOXNXIXPX4.# ",
"rX>XE c z c c F z z z A F A A L H.`.`.J.n.=X/.Z.A.Z.^.=XS.$X4.' ",
"PXlXY j g c c c z c c v A F G F.L.}.'.W.).A.N.V.C.N._.-X).! 4 uX",
"fXW , < 1 2 f f c v x b A G F.Y.}..X!.~.C.V.C.C.N./.JXjXN.~.3 r.",
"0 X   O O O O ; &.*.*.( ^ E.K.`..X.XQ.C.C.C.V.C.V.zXLXN.M.A.D q ",
".   . . O . + ] t.r.r.1.3.e.XXE.T.[.Q.V.C.C.C.N.).JX-XN.C.C.a.X ",
"  o o . O O i u.>Xu.y.t.3.3.3.w $ , f.V.C.N.N.V.vXAXA.C.V.C.d.% ",
"  . O o . 4 3XyXqX7X<X1X#X#X;.& X $ S N.~.zX*X*XLX-XN.M.V.B.m.6X",
"@.) - o @ >XCXmXnXxXsXpXiXqX%.$   $ s x.M.cXLXSXcXB.z.M.M.z.+XLX",
"FXbXtX4.+.fXZXCXMXbXbXxXhXrX) $ X   : g.z.h.SXHX_.k.z.z.z.j.kXDX",
"9 9 9 8 * > 9 8 6 6 6 6 6 * o         a v.v.b.(.x.b.z.b.l.d 9 9 ",
"UXUXUXUXUXUXUXUXUXUXUXUXUXUXUXUXUXUXUXUXs.c.v.v.b.v.l.g.p.UXUXUX",
"UXUXUXUXUXUXUXUXUXUXUXUXUXUXUXUXUXUXUXUXUXUXs.d.d.d.p.UXUXUXUXUX",
"UXUXUXUXUXUXUXUXUXUXUXUXUXUXUXUXUXUXUXUXUXUXUXUXUXUXUXUXUXUXUXUX"
};
