/* XPM */
static char *gl_117[] = {
/* columns rows colors chars-per-pixel */
"32 32 211 2 ",
"   c #285429891937",
".  c #2E882F911B78",
"X  c #2C132C941BDB",
"o  c #2F91317D1B91",
"O  c #2F33311D1CD7",
"+  c #30F932C61918",
"@  c #34F236DD1B28",
"#  c #31E533C31DE2",
"$  c #341E35591E49",
"%  c #38663AD91E63",
"&  c #39683BC01CFC",
"*  c #39D53AED1FFA",
"=  c #3D8D3F84230B",
"-  c #3E6B41291BCD",
";  c #3EDE42AF1F64",
":  c #3D8A61151302",
">  c #3F5843032215",
",  c #3F63413F260F",
"<  c #409443571ECA",
"1  c #436946121EAF",
"2  c #412043F0207A",
"3  c #417A42AE251C",
"4  c #435344902628",
"5  c #458F47FD22A7",
"6  c #47984A1E2719",
"7  c #49A94C8122F1",
"8  c #48714A682442",
"9  c #4C604F462781",
"0  c #42C34433291A",
"q  c #4AF34D75291C",
"w  c #4CD44F7E29C0",
"e  c #4E714FA72E73",
"r  c #4CF850192248",
"t  c #4D9D51C3244C",
"y  c #52EA574E24B8",
"u  c #58E75CD425ED",
"i  c #523F552528A2",
"p  c #547E576529EE",
"a  c #520A53F52C82",
"s  c #5777593A2CD3",
"d  c #582C5C9A2A54",
"f  c #5C735F392F87",
"g  c #54EB58432FF4",
"h  c #58A45A1E30B8",
"j  c #5ACE5DA432AD",
"k  c #5B6B5E27349D",
"l  c #59C85BE73B12",
"z  c #5C4A60942849",
"x  c #5E7363F22EF6",
"c  c #5EA6611A31C1",
"v  c #60BA646F2B86",
"b  c #649269112B42",
"n  c #651B690F2F3A",
"m  c #6D04711D2E2A",
"M  c #63CD674932D8",
"N  c #620D64AB3677",
"B  c #661069D93037",
"V  c #67A56A293740",
"C  c #696A6C54323D",
"Z  c #69B66C0C3469",
"A  c #6C7D6EA33A74",
"S  c #6BD371333314",
"D  c #6C76713B31A2",
"F  c #6D05721035C8",
"G  c #72197690342F",
"H  c #75597B083147",
"J  c #752379CC34A3",
"K  c #79637F443511",
"L  c #7B1C7FCD38A9",
"P  c #2D2B2B7D4866",
"I  c #358432AB524C",
"U  c #56C157BD47E9",
"Y  c #5D4164104386",
"T  c #5E8D60915162",
"R  c #6084625B56A3",
"E  c #4F814B8A766C",
"W  c #4B4B88880303",
"Q  c #4D4D8A8A0606",
"!  c #4E4E8C8C0404",
"~  c #4F4F8E8E0808",
"^  c #50508E8E0606",
"/  c #525294940707",
"(  c #58589E9E0505",
")  c #58589F9F0707",
"_  c #575798980D0D",
"`  c #585898980F0F",
"'  c #5D5DA6A60606",
"]  c #5D5DA7A70707",
"[  c #5E5EA7A70606",
"{  c #5F5FABAB0707",
"}  c #5F5FABAB0909",
"|  c #5B5BB7B70000",
" . c #6161ABAB0606",
".. c #6161ACAC0606",
"X. c #6464B2B20505",
"o. c #6464B2B20606",
"O. c #6363B7B70404",
"+. c #6363BABA0101",
"@. c #6565BFBF0000",
"#. c #6868BBBB0707",
"$. c #6262B1B10909",
"%. c #6363B1B10F0F",
"&. c #6565B4B40D0D",
"*. c #6868BCBC0808",
"=. c #6868BCBC0909",
"-. c #6868BDBD0B0B",
";. c #6A27BE260A28",
":. c #6868BBBB0E0E",
">. c #6868BABA0F0F",
",. c #6262ACAC1010",
"<. c #6565B2B21111",
"1. c #6565B5B51010",
"2. c #6767B7B71515",
"3. c #6969B0B01414",
"4. c #6969BCBC1010",
"5. c #6969BCBC1212",
"6. c #6A6AB9B91717",
"7. c #6C6CBDBD1414",
"8. c #6B6BB2B21818",
"9. c #7B288281348D",
"0. c #7F38854C33F7",
"q. c #7D4783493950",
"w. c #6A6AC6C60000",
"e. c #6D6DC4C40303",
"r. c #6B6BC1C10707",
"t. c #6C6CC1C10606",
"y. c #6F6FC7C70606",
"u. c #6F6FC7C70707",
"i. c #6B6BC8C80000",
"p. c #6D6DC8C80000",
"a. c #6F6FC9C90202",
"s. c #6B6BC3C30909",
"d. c #6E6EC2C20B0B",
"f. c #6E6EC6C60808",
"g. c #6969C0C00F0F",
"h. c #7070C9C90404",
"j. c #7073CAA20421",
"k. c #7171CACA0707",
"l. c #7272CACA0707",
"z. c #7272CBCB0707",
"x. c #7272CACA0808",
"c. c #7272CBCB0808",
"v. c #7373CBCB0808",
"b. c #7272CBCB0909",
"n. c #7371CBB30916",
"m. c #7373CACA0B0B",
"M. c #7575CBCB0B0B",
"N. c #7575CBCB0E0E",
"B. c #7676CBCB0F0F",
"V. c #7575CCCC0C0C",
"C. c #7575CCCC0D0D",
"Z. c #7777CCCC1111",
"A. c #7C7CCECE1818",
"S. c #6B9F80CB41D9",
"D. c #7B7BA6A64545",
"F. c #7C7CA6A64646",
"G. c #6B99815E6DA4",
"H. c #763491FB747E",
"J. c #88688FF83543",
"K. c #80C985953B84",
"L. c #82A088A13865",
"P. c #849B8A403985",
"I. c #836D88C23F1C",
"U. c #8B6492813B34",
"Y. c #8C6F940A3AD0",
"T. c #8D7995C13A08",
"R. c #92B49A463A96",
"E. c #93949BC53CF9",
"W. c #965B9EE83BCE",
"Q. c #8383CFCF2525",
"!. c #8383CFCF2929",
"~. c #8484CCCC2E2E",
"^. c #8787D0D02C2C",
"/. c #8834D2332E45",
"(. c #8787CCCC3131",
"). c #8787C8C83F3F",
"_. c #8B8BD0D03535",
"`. c #8C8CD0D03636",
"'. c #8D8DD4D43737",
"]. c #8F8FD3D33E3E",
"[. c #8585A9A95757",
"{. c #8F8FB5B55E5E",
"}. c #8169A15A6E64",
"|. c #8A8ACBCB4141",
" X c #9292D6D64040",
".X c #9797D6D64B4B",
"XX c #9A9AD9D94F4F",
"oX c #9A88D0335644",
"OX c #9797D0D05050",
"+X c #9A9AD7D75151",
"@X c #9E9EDBDB5555",
"#X c #9898C2C26161",
"$X c #1C0511B3A2A6",
"%X c #1D081198AFBB",
"&X c #1C690F22B707",
"*X c #BFBFE6E69090",
"=X c #C1C1E7E79494",
"-X c #C4C4E8E89797",
";X c #CACAE9E9A7A7",
":X c #CECEEAEAADAD",
">X c #D0D0EDEDADAD",
",X c #DCDCF1F1C3C3",
"<X c #E5E5F3F3D5D5",
"1X c #EBEBF7F7DEDE",
"2X c #EFEFF8F8E5E5",
"3X c #F3F3FAFAEBEB",
"4X c #F5F5FAFAEDED",
"5X c #F9F9FCFCF4F4",
"6X c #F9F9FCFCF6F6",
"7X c #FBFBFDFDF8F8",
"8X c None",
/* pixels */
"8X8X8X8X8X8X8X8X8X8X8X8X8X8X8X8X8X8X8X8X8X8X8X8X8X8X8X8X8X8X8X8X",
"8X8X8X8X8X8X8X8X8X8X8X8X8X8X8X8X8X8X8X8X8X8X8X8X8X8X8X8X8X8X8X8X",
"8X8X8X8X8X8X8X8X8X8X8X8X8X8Xx 8X8X8X8X8X8X8X8X8X8X8X8X8X8X8X8X8X",
"8X8X8X8X8X8X8X8X8X8X8X8X8X8XM w 8X8X8X8X8X8X8X8X8X8X8X8X8X8X8X8X",
"8X8X8X8X8X8X8X8X8X8X8X8X8X8XB 8 8X8X8X8X8X8X8X8X8X8X8X8X8X8X8X8X",
"8X8X8X8X8X8X8X8X8X8X8X8XU N B 4 8X8X8X8X8X8X8X8X8X8X8X8X8X8X8X8X",
"8X8X8X8X8X8X8X8X8X8X8Xl A Z v w 2 8X8X8X8X8X8X8X8X8X8X8X8X8X8X8X",
"8Xg s p 9 6 , 0 e c F A k c N d i s t 1 1 8X8X8X8X8X8X8X8X8X8X8X",
"8Xq 7 r 5 = 4 i a s G L.q.q.R J s h p 8 % @ 8X8X8X8X8X8X8X8X8X8X",
"8X8Xo & 1 & 4 z v h Z J q.I.U.P.n f j y 2 , 8X8X8X8X8X8X8X8X8X8X",
"8X8X8X  . # > y y a M H Z A K.Y.K.C d y 9 2 * $ 8X8X8X8X8X8X8X8X",
"8X8X8X+ @ o O $ % 4 i m H Z q.Y.R.P.k y y 8 2 < 8X8X8X8X8X8X8X8X",
"8X8X8X8X- - @   X 7 u p B V q.Y.E.W.9.w w 9 9 8X8X8X8X8X8X8X8X8X",
"8X8X8X8X8X8X8X8X  > u i a N 0.T K.T.E.H d d r 8X8X8X8X8X8X8X8X8X",
"8X8X8X8X8X8X8X8X8X8X7 d j S K q.q.K.K.F v b t 8X8X8X8X8X8X8X8X8X",
"8X8X8X8X8X8X8X8X8X8X8X8X8X8Xv J K.L k p H T P 8X8X8X8X8X8X8X8X8X",
"8X8X8X8X8X8X8X8X8X8X8X8X8X8X8X8Xb v g D J.E &X8X8X8X8X8X8X8X8X8X",
"8X8X8X8X8X8X8X8X8X8X8X8X8X8X8X8X8X8Xw D z I %X$X8X8X8X8X8X8X8X8X",
"8X8X8X8X8X8X8X8X8X8X8X8X8X8X8X8X8X8X8X2 3 Y G.H.}.#X{.8X8X8X8X8X",
"8X8X8X8X8X8X8X8X8X8X8X8X8X8X8X8X8X8X8X- S.oX^.A.B.A.Q.OX[.8X8X8X",
"8X8X8X8X8X8X8X8X8X8X8X8X8X8X8X8X8X8X8XD.`.B.k.k.k.a. X@X_.F.8X8X",
"8X8X8X8X8X8X8X8X8X8X8X8X8X8X8X8X8X8X8X~.M.k.n.n.a./.4X*Xi.(.8X8X",
"8X8X8X8X8X8X8X8X8X8X8X8X8X8X8X8X8X8X3.B.k.n.n.c.a.-X6Xw.k.B.8.8X",
"8X8X8X8X8X8X8X8X8X8X8X8X8X8X8X8X8X8Xo.n.v.k.k.a.'.3XXXa.n.v.o.8X",
"8X8X8X8X8X8X8X8X8X8X8X8X8X8X8X8X8X8X .c.c.k.a.c.>X,XZ.k.c.c. .8X",
"8X8X8X8X8X8X8X8X8X8X8X8X8X8X8X8X8X8X[ e.!.=X.X].7X+Xu.u.k.f.[ 8X",
"8X8X8X8X8X8X8X8X8X8X8X8X8X8X8X8X8X8X( *.@.:X6X1X;Xd.r.r.s.;.( 8X",
"8X8X8X8X8X8X8X8X8X8X8X8X8X8X8X8X8X8X8X} ;.| <X2X|.+.*.;.4.{ 8X8X",
"8X8X8X8X8X8X8X8X8X8X8X8X8X8X8X8X8X8X8X~ &.>.7.).O.:.5.5.$.: 8X8X",
"8X8X8X8X8X8X8X8X8X8X8X8X8X8X8X8X8X8X8X8XQ ,.<.1.6.2.%.{ W 8X8X8X",
"8X8X8X8X8X8X8X8X8X8X8X8X8X8X8X8X8X8X8X8X8X8X^ ` _ / ! 8X8X8X8X8X",
"8X8X8X8X8X8X8X8X8X8X8X8X8X8X8X8X8X8X8X8X8X8X8X8X8X8X8X8X8X8X8X8X"
};
