/* XPM */
static char *gmdb2[] = {
/* columns rows colors chars-per-pixel */
"32 32 201 2 ",
"   c #676767674B4B",
".  c #5E5E5F5F7070",
"X  c #6C6C6C6C64E5",
"o  c #666666666A6A",
"O  c #757575756767",
"+  c #797979796B6B",
"@  c #6BEC6BEC73F4",
"#  c #7D7D7D7D751F",
"$  c #717171717C7C",
"%  c #4D0D8A8A0444",
"&  c #4F4F8E8E0808",
"*  c #50508E8E0606",
"=  c #525294940707",
"-  c #58589F1F0606",
";  c #575798980D0D",
":  c #585898980F0F",
">  c #5DB3A751065C",
",  c #5F5FABAB0707",
"<  c #5F5FABAB0909",
"1  c #5B5BB7B70000",
"2  c #6161AC2C0606",
"3  c #640EB45E0505",
"4  c #6464BD3D0081",
"5  c #6868BBBB0707",
"6  c #63B9B2B20C62",
"7  c #68BEBCBC0B36",
"8  c #6262ACAC1010",
"9  c #6610B55F1212",
"0  c #6969B0B01414",
"q  c #6A6ABC3C1353",
"w  c #6B6BB2B21818",
"e  c #6D6DC57C052A",
"r  c #6E6EC9730157",
"t  c #6C6CC3830ACB",
"y  c #7151CACA05E6",
"u  c #7396CB910989",
"i  c #7777CCCC1111",
"p  c #7C7CCECE1818",
"a  c #7BFCA6A645C6",
"s  c #8383CFCF2525",
"d  c #8403CE4E2BAC",
"f  c #8787D0D02C2C",
"g  c #8888D2D22E2E",
"h  c #8787CCCC3131",
"j  c #8787C8C83F3F",
"k  c #8C8CD2273636",
"l  c #8F8FD3D33E3E",
"z  c #DFDFDCDC1D1D",
"x  c #FFFFFFA90707",
"c  c #FFDAFE5F0C31",
"v  c #E8E8E5E51515",
"b  c #F7F7F4F41717",
"n  c #FAA4F7A11515",
"m  c #FF19FC39111A",
"M  c #F45AF1F11BE9",
"N  c #FFFFFDFD1F1F",
"B  c #CECECBCB2727",
"V  c #D9D9D7D72121",
"C  c #E1E1DFDF3B3B",
"Z  c #EAEAE8E82525",
"A  c #E5E5E3E32F2F",
"S  c #F1F1EEEE2121",
"D  c #F5F5F2F22727",
"F  c #F8F8F6F62222",
"G  c #FCFCF9F92A2A",
"H  c #E7E7E5E53434",
"J  c #E8E8E6E63030",
"K  c #EDEDEB6B30B1",
"L  c #ECECEAEA3D3D",
"P  c #F171EF6F3434",
"I  c #FAFAF8F83030",
"U  c #F4F4F2F23939",
"Y  c #848484845353",
"T  c #8C8C8B8B5757",
"R  c #888887875E5E",
"E  c #9C9C9A9A5151",
"W  c #8505A9295656",
"Q  c #8F8FB5B55D5D",
"!  c #ABABA9A94444",
"~  c #A3A3A3A34D4D",
"^  c #B1B1AFAF4949",
"/  c #BC3CBB3B4DCE",
"(  c #AEAEACAC5A5A",
")  c #999998986565",
"_  c #961695956C6C",
"`  c #9D9D9C9C6E6E",
"'  c #848484847D7D",
"]  c #9B9B9A9A7171",
"[  c #999999997F7F",
"{  c #ADADACAC6767",
"}  c #A323A2A26CED",
"|  c #AC01AB006C16",
" . c #B3B3B2B264BA",
".. c #B9B9B8B86363",
"X. c #A524A42376F7",
"o. c #AC01AB0073C9",
"O. c #A323A3237CFD",
"+. c #B0B0AFAF7F7F",
"@. c #B45EB45E7373",
"#. c #BC3CBB3B73F4",
"$. c #B35DB2B27D27",
"%. c #BCBCBC3C7BFC",
"&. c #C1C1BFBF6666",
"*. c #8A8ACBCB4141",
"=. c #9292D6D64040",
"-. c #9797D6D64B4B",
";. c #9A9AD9D94F4F",
":. c #9797D0D05050",
">. c #9B1BD5545454",
",. c #9E9EDBDB5555",
"<. c #99EFC46E61B7",
"1. c #CD4DCBCB46C7",
"2. c #CC4CCA4A4ACB",
"3. c #D3D3D2D24747",
"4. c #DDDDDBDB4646",
"5. c #D3D3D2D24F4F",
"6. c #C3C3C2425757",
"7. c #CF4FCD4D53D4",
"8. c #C532C3C35BC9",
"9. c #CCCCCB4B59DA",
"0. c #D0D0CECE5858",
"q. c #D8D8D7D753D4",
"w. c #D57FD3D35A5A",
"e. c #D8D8D6D65ADA",
"r. c #DDDDDBDB5A5A",
"t. c #E0E0DF5F4444",
"y. c #E8E8E6E64242",
"u. c #ECECEAEA4343",
"i. c #E666E4E44ACB",
"p. c #E8E8E6E64B4B",
"a. c #EEEEECEC4949",
"s. c #F3F3F1F14141",
"d. c #ECECE9E95050",
"f. c #C5C5C4C462E2",
"g. c #C91EC7C76363",
"h. c #CFCFCDCD6565",
"j. c #C3C3C2C26D6D",
"k. c #CCCCCBCB6E6E",
"l. c #D252D15165E6",
"z. c #DEDEDDDD6262",
"x. c #D453D3536BEC",
"c. c #DEDEDDDD6E6E",
"v. c #C42AC390710A",
"b. c #CCCCCB207676",
"n. c #C56FC46E7A24",
"m. c #CCCCCBCB7E7E",
"M. c #D5D5D3D37171",
"N. c #E0E0DEDE6E6E",
"B. c #797979798989",
"V. c #7E7E7E7E9191",
"C. c #818181818585",
"Z. c #818181818B8B",
"A. c #888888888888",
"S. c #939393138585",
"D. c #971797178B8B",
"F. c #9D1D9C9C8D0D",
"G. c #848484849313",
"H. c #93609393942D",
"J. c #909090909B9B",
"K. c #9B349B349D03",
"L. c #A7A7A6A68585",
"P. c #AFAFAEAE8484",
"I. c #A4A4A44E8CE2",
"U. c #AEAEAEAE8D8D",
"Y. c #B4B4B3B38484",
"T. c #B3B3B2B28F8F",
"R. c #BD67BD128AE0",
"E. c #A727A6A69413",
"W. c #A7A7A7A79999",
"Q. c #AEAEAEAE9898",
"!. c #B333B3339494",
"~. c #9D9D9D9DA3A3",
"^. c #A4A4A4D7A63F",
"/. c #A5A5A6A6AEAE",
"(. c #AACAAACAAB8B",
"). c #B5B5B5B5A1A1",
"_. c #BCBCBCBCADAD",
"`. c #A6A6A6A6B7B7",
"'. c #A2A2A2A2BFBF",
"]. c #B61CB61CB64F",
"[. c #BBBBBBBBB2B2",
"{. c #B7B7B7B7B8B8",
"}. c #BE3EBE3EBEBE",
"|. c #BFBFE6E69090",
" X c #C4C4C3C38D0D",
".X c #C6C6C5C59797",
"XX c #C1C1E7E79494",
"oX c #C4C4E8E89797",
"OX c #C2C2C2C2A7A7",
"+X c #C6C6C5C5ABAB",
"@X c #CACAE9E9A7A7",
"#X c #CECEEAEAADAD",
"$X c #D0D0EDEDADAD",
"%X c #DCDCF1F1C3C3",
"&X c #E5E5F3F3D5D5",
"*X c #EBEBF7F7DEDE",
"=X c #EFEFF8F8E5E5",
"-X c #F4F4FAFAECEC",
";X c #F9F9FCFCF5F5",
":X c #FBFBFDFDF8F8",
">X c None",
/* pixels */
">X>X>X>X>X>X>X>X>X>X>X>X>X>X>X>X>X>X>X>X>X>X>X>X>X>X>X>X>X>X>X>X",
">X>X>X>X>X>X>X>X>X>X>X>X>X>X>X>X>X>X>X>X>X>X>X>X>X>X>X>X>X>X>X>X",
">X>X>X>X>X>X>X>X>X>X>X>X>X>X>X>X>X>X>X>X>X>X>X>X>X>X>X>X>X>X>X>X",
">X>X>X>X>X>X>X>X>X>X>X>X>X>X>X>X>X>X>X>X>X>X>X>X>X>X>X>X>X X>X>X",
">X>X>X>X>X>X>X>X>X>X>X>X>X>X>X>X>X>X>X>X>X>X>X>X>X>X>Xb.U 7.o.# ",
">X>X>X>X>X>X>X>X>X>X>X>X>X>X>X>X>X>X>X>X>X>X>X>X>X).L n P.N.L.K.",
">X>X>X>X>X>X>X>X>X>X>X>X>X>X>X>X>X>X>X>X>X>X>X_.t.U 9.+XY.C.].(.",
">X>X>X>X>X>X>X>X>X>X>X>X>X>X>X>X>X>X>X>X>X>XM.m v.6.8.H.l.[.(.>X",
">X>X>X>X>X>X>X>X>X>X>X>X>X>X>X>X>X>X>X>Xm.u.4.1.f.E.L.}.F.].>X>X",
">X>X>X>X>X>X>X>X>X>X].(.>X>X>X>X>X>X(.M P  .4.H.+.y.+XA.>X>X>X>X",
">X>X>X>X>X>X>X>X^.D.Y _ J.>XW.>XOXw.b x.$.g.Z.D.| `.H.>X>X>X>X>X",
">X>X>X>X>X>X>XB.) v m n o.A %.9.F v.e.@.K.%.(.(.>X>X>X>X>X>X>X>X",
">X>X>X>X>XK.# B c m m m / N c P o.5.W...m .X^.>X>X>X>X>X>X>X>X>X",
">X>X>X>X$ ^ n.j.c m m c / M j.f.I.@.J K S.~.>X>X>X>X>X>X>X>X>X>X",
">X>X>Xo 0.8.K X.c c m m } /.@.~.i.c n n.].>X>X>X>X>X>X>X>X>X>X>X",
">X>X(._ &.4.>XR.c m c 8.G.E.x.c c w.+ J.>X>X>X>X>X>X>X>X>X>X>X>X",
">X>X# z 7.G.>XR.c m c L F.6.x i.(.].>X>X>X>X>X>X>X>X>X>X>X>X>X>X",
">X>X  I c D n.f.c m c c | | ..D.}.>X>X>X>X>X>X>X>X>X>X>X>X>X>X>X",
">X@ v.%.( N m n c m c n ! M Y.$.>X>X>X>X>X>XQ <.<.<.Q >X>X>X>X>X",
">XX #.z.>XU.F Z c m n c ! { d.[ >X>X>X>XW >.f p i p s :.W >X>X>X",
">XO.g.b.>Xb.8.R.c m c m ' n Q.>X>X>X>Xa k u y y y r =.,.k a >X>X",
"K.E m >X^.u.3..Xc m c t.T h.>X>X>X>X>Xh u u u u r g -X|.r h >X>X",
"^./ r.'.r.3.F ] c c P . p.[.>X>X>X>X0 u u u u u y oX;Xe u u w >X",
"~.2.o.I.s.2.v.T.G M X w.l.>X>X>X>X>X3 u u y y r k -X;.r u u 3 >X",
">X' H M $.C !.6.~ V.3.q.>X>X>X>X>X>X2 u u y r u $X%Xi u u u 2 >X",
">X].O S K.8. .o #.a.!.>X>X>X>X>X>X>X> e d XX-.l :X;.e e e y > >X",
">X>X{.} V R ` c.q.>X>X>X>X>X>X>X>X>X- 5 4 #X;X*X@Xt 5 t t 5 - >X",
">X>X>XH.~.C k.>X>X>X>X>X>X>X>X>X>X>X>X< 5 1 &X=X*.4 5 t 7 2 >X>X",
">X>X>X>X>X>X>X>X>X>X>X>X>X>X>X>X>X>X>X& 9 7 q j 3 q 7 q 6 % >X>X",
">X>X>X>X>X>X>X>X>X>X>X>X>X>X>X>X>X>X>X>X% 8 9 9 q 9 6 > % >X>X>X",
">X>X>X>X>X>X>X>X>X>X>X>X>X>X>X>X>X>X>X>X>X>X& : : = * >X>X>X>X>X",
">X>X>X>X>X>X>X>X>X>X>X>X>X>X>X>X>X>X>X>X>X>X>X>X>X>X>X>X>X>X>X>X"
};
