/* XPM */
static char *gnash[] = {
/* columns rows colors chars-per-pixel */
"32 32 229 2 ",
"   c #15D62CED4202",
".  c #19192F2F4545",
"X  c #1A1A3030459B",
"o  c #1D9D33B44989",
"O  c #20A136364BCC",
"+  c #244939824EE1",
"@  c #26A73BBB5111",
"#  c #297F3E215336",
"$  c #2D8341EC5757",
"%  c #2EA042B45858",
"&  c #330046605B8E",
"*  c #365049635DDE",
"=  c #38384B4B5E5E",
"-  c #31314B4B6262",
";  c #3A154D0461F4",
":  c #3F1451266626",
">  c #404052926767",
",  c #447756116A8C",
"<  c #43C458586E6E",
"1  c #4B735C546AC6",
"2  c #4A175B5B6D3A",
"3  c #4B6B5CE66CBC",
"4  c #43435A5A7171",
"5  c #4C6E5D7F71D8",
"6  c #4DC05EFB712C",
"7  c #4E3E5F3170E7",
"8  c #5211649B66D4",
"9  c #4B4B63637AFA",
"0  c #519761D675EA",
"q  c #565666527A8E",
"w  c #575768687D7D",
"e  c #5B4F6AD87E66",
"r  c #628C73E7764E",
"t  c #4B4B88880303",
"y  c #4D4D8A8A0404",
"u  c #4D4D8A8A0606",
"i  c #4E4E8C8C0404",
"p  c #4F4F8E8E0808",
"a  c #50508E8E0606",
"s  c #525294940707",
"d  c #58589E9E0505",
"f  c #575798980D0D",
"g  c #585898980F0F",
"h  c #5D5DA7A70707",
"j  c #5E5EA7A70606",
"k  c #5F5FABAB0707",
"l  c #5B78B785009A",
"z  c #6161ACAC0606",
"x  c #6029AB730BA2",
"c  c #6464B2B20606",
"v  c #6363B7B70404",
"b  c #6363BABA0101",
"n  c #6565BFBF0000",
"m  c #6868BBBB0707",
"M  c #6262B1B10909",
"N  c #6363B1B10F0F",
"B  c #6565B4B40D0D",
"V  c #6868BCBC0808",
"C  c #6868BCBC0909",
"Z  c #6868BDBD0B0B",
"A  c #6A6ABEBE0A0A",
"S  c #6868BBBB0E0E",
"D  c #6868BABA0F0F",
"F  c #6262ACAC1010",
"G  c #6565B2B21111",
"H  c #6565B5B51010",
"J  c #6767B7B71515",
"K  c #6969BCBC1010",
"L  c #6969BCBC1212",
"P  c #6A6AB9B91717",
"I  c #6C6CBDBD1414",
"U  c #6B6BB2B21818",
"Y  c #68EAA8AE22F4",
"T  c #6CB0A7613295",
"R  c #6D12ADFC30EB",
"E  c #6F37A4F93F36",
"W  c #6A6AC6C60000",
"Q  c #6D6DC4C40303",
"!  c #6B6BC1C10707",
"~  c #6C6CC1C10606",
"^  c #6F6FC7C70606",
"/  c #6F6FC7C70707",
"(  c #6B6BC8C80000",
")  c #6D6DC8C80000",
"_  c #6F6FC9C90202",
"`  c #6B6BC3C30909",
"'  c #6E6EC2C20B0B",
"]  c #6E6EC6C60808",
"[  c #6969C0C00F0F",
"{  c #7070C9C90404",
"}  c #7066CA9A0442",
"|  c #716BCAAB0730",
" . c #7272CBCB0707",
".. c #7270CABC07F4",
"X. c #7272CBCB0808",
"o. c #7373CBCB0808",
"O. c #7278CA85089A",
"+. c #7272CBCB0909",
"@. c #736FCBB40928",
"#. c #7373CACA0B0B",
"$. c #7575CBCB0B0B",
"%. c #7575CBCB0E0E",
"&. c #7676CBCB0F0F",
"*. c #7575CCCC0C0C",
"=. c #7575CCCC0D0D",
"-. c #7777CCCC1111",
";. c #7C7CCECE1818",
":. c #7C7CA6A64646",
">. c #7D10BDC35DDC",
",. c #775795E26565",
"<. c #793497736594",
"1. c #8383CFCF2525",
"2. c #8383CFCF2929",
"3. c #8787D0D02C2C",
"4. c #885ED26C2E81",
"5. c #8787CCCC3131",
"6. c #852ACCC3336A",
"7. c #8787C8C83F3F",
"8. c #8B8BD0D03535",
"9. c #8C8CD0D03636",
"0. c #8D8DD4D43737",
"q. c #8F8FD3D33E3E",
"w. c #8585A9A95757",
"e. c #85A9A8E966DB",
"r. c #8D50B2FD665E",
"t. c #8A8ACBCB4141",
"y. c #924CD65C4072",
"u. c #9797D6D64B4B",
"i. c #9A9AD9D94F4F",
"p. c #94FBCCF65123",
"a. c #996FCF6B5872",
"s. c #9A9AD7D75151",
"d. c #9E9EDBDB5555",
"f. c #4C4C6A6A8383",
"g. c #5E5E6D6D8080",
"h. c #5F5F74748B8B",
"j. c #611B6F40833D",
"k. c #6464730C8383",
"l. c #656575358949",
"z. c #696977778B35",
"x. c #676778788C8C",
"c. c #6C977AFB8C36",
"v. c #65657C7C9292",
"b. c #70F17EFF9111",
"n. c #666682829B9B",
"m. c #762083839393",
"M. c #7A7A8731943E",
"N. c #78B8860699D9",
"B. c #7F7F8C8C9E9E",
"V. c #66668989A5A5",
"C. c #72729393AFAF",
"Z. c #7BFC9696AD2D",
"A. c #7D7D9898ACAC",
"S. c #71719797B3B3",
"D. c #72F39919B636",
"F. c #78789A9AB5B5",
"G. c #77779E9EBBBB",
"H. c #7D7DA1A1BDBD",
"J. c #824F9A32819D",
"K. c #81A88E259D24",
"L. c #81818E8E9F1F",
"P. c #85DDA49E80DE",
"I. c #8DDEBC27950D",
"U. c #858591C4A2A2",
"Y. c #8A1C9603A436",
"T. c #8D8D9898A3A3",
"R. c #884F9B2BA6B5",
"E. c #8A8A9696A8A8",
"W. c #85859999AFAF",
"Q. c #91919D9DAEAE",
"!. c #9292A2A2AFAF",
"~. c #966FA596B265",
"^. c #9A9AA650B70C",
"/. c #9A9AA6A6B9B9",
"(. c #9C63A9A9BD4B",
"). c #A3A3ACACB535",
"_. c #A3A3AE58BDBD",
"`. c #A265B083BD98",
"'. c #BFBFE6E69090",
"]. c #C1C1E7E79494",
"[. c #C4C4E8E89797",
"{. c #CACAE9E9A7A7",
"}. c #CECEEAEAADAD",
"|. c #D0D0EDEDADAD",
" X c #8403ADADCB4B",
".X c #8BE1AEAECBCB",
"XX c #8787B0B0CFCF",
"oX c #8B0BB5B5D4D4",
"OX c #8F0FB8B8D7D7",
"+X c #8F8FBBBBDBDB",
"@X c #9B9BBCBCD7D7",
"#X c #9313BC7CDB9B",
"$X c #A2A2AEAEC0C0",
"%X c #A470B0E2C2CD",
"&X c #A516B194C38A",
"*X c #A8A8B2B2C2C2",
"=X c #B598BCD9C435",
"-X c #9150C194C0A4",
";X c #9898C1C1DEDE",
":X c #BDBDC443CA4A",
">X c #9595C1C1E1E1",
",X c #9919C646E5E5",
"<X c #9D9DC9C9E7E7",
"1X c #9B3DCB15EBCA",
"2X c #9C2ACB75ECCF",
"3X c #9F17D0D0EF21",
"4X c #9E9ECFCFF1F1",
"5X c #9F9FD0D0F272",
"6X c #A1A1C9C9E7E7",
"7X c #A4A4CFCFEFEF",
"8X c #A175D3C9EEAA",
"9X c #A208D29FF426",
"0X c #A407D6CCF8F8",
"qX c #A4FAD72CF94E",
"wX c #A633DAB8F888",
"eX c #A747D9D9FC5B",
"rX c #A8A8DCDCFFFF",
"tX c #CD4DD1D1D6D6",
"yX c #DCDCF1F1C3C3",
"uX c #E5E5F3F3D5D5",
"iX c #EBEBF7F7DEDE",
"pX c #DB23DE70E24F",
"aX c #EFEFF8F8E5E5",
"sX c #F3F3FAFAEBEB",
"dX c #F5F5FAFAEDED",
"fX c #F9F9FCFCF4F4",
"gX c #F9F9FCFCF6F6",
"hX c #FBFBFDFDF8F8",
"jX c None",
/* pixels */
"jXjXjXjXjXjXjXjXjXjXjXjXjXjXjXjXjXjXjXjXjXjXjXjXjXjXjXjXjXjXjXjX",
"jXjXjXjXjXjXjXjXjXjXjXjXjXjXjXjXjXjXjXjXjXjXjXjXjXjXjXjXjXjXjXjX",
"jXjXjXjXjXjXjXjXjXjXjXjXjXjXjXjXjXjXjXjXjXjXjXjXjXjXjXjXjXjXjXjX",
"jXjXjXjXjXjXjXjXjXjXjXjXjXjXjXjXjXjXjXjXjXjXjXjXjXjXjXjXjXjXjXjX",
"jXjXjXjXjXjXjXjXjXjXjXjXjX0 e m.M.m.e jXjXjXjXjXjXjXjXjXjXjXjXjX",
"jXjXjXjXjXjXjXjXjXjXjX5 k.Y.:XpXpXtX).L.z.jXjXjXjXjXjXjXjXjXjXjX",
"jXjXjXjXjXjXjXjXjXX = e :XpXpXpXpXpXpXtXT.0 $ jXjXjXjXjXjXjXjXjX",
"jXjXjXjXjXjXjXjX    = ^.=X:X:X:X=X=X:X_._.e X X jXjXjXjXjXjXjXjX",
"jXjXjXjXjXjXjX. . . 2 T.T.T.!.(.(.T.T.T.T.m.o . o jXjXjXjXjXjXjX",
"jXjXjXjXjXjXo o o O = k.z.;X9XrXrX<XA.A.4X,X- o o o jXjXjXjXjXjX",
"jXjXjXjXjXjXO + + + + , OXrXrXrXrXrXrX,XeXrX9 @ + o jXjXjXjXjXjX",
"jXjXjXjXjX+ @ # # # $  XrXrXrXS.9 V.4XrXrXrXf.$ $ + + jXjXjXjXjX",
"jXjXjXjXjX# $ % $ $ f.rXrXrXD.$ % % D.rXrX5X: % % % # jXjXjXjXjX",
"jXjXjXjX# & & & * & G.rXrX9X4 * * * n.rXrX2X; - & & % $ jXjXjXjX",
"jXjXjXjX$ * ; ; ; ; 2XrXrX+X; ; ; ; oXrXrXXX: ; ; ; = % jXjXjXjX",
"jXjXjXjX* : : : : : 2XeXrX+X: : : 9 4XrXrXC.> : : : : = jXjXjXjX",
"jXjXjXjX; , , , , , 2XrXrX2X5 , < XXrXrXrXn.< < , , , ; jXjXjXjX",
"jXjXjXjX; 2 5 5 5 3 F.rXrXrX>XH.oXrXrXrXrXq 5 7 1 7 3 > jXjXjXjX",
"jXjXjXjX, 5 0 0 0 5 h.5XrXrXeXrXrX4XrXrX1Xr ,.e.r.e.,.8 jXjXjXjX",
"jXjXjXjX, 5 q q q w q v.#XqXqX#Xn.;XrX3XP.a.3.;.*.;.1.p.w.jXjXjX",
"jXjXjXjXjX5 e e g.e e e e e e e h.eX0XI.9.*. . . ._ y.d.8.:.jXjX",
"jXjXjXjXjX0 g.j.g.v.Z.j.j.j.j.x.,XrX-X6.$. .$..._ 4.dX'.( 6.jXjX",
"jXjXjXjXjXjXq l.z.#XrX4X.X.X.XeXrXeX>.=. ......._ [.gXW ..*.U jX",
"jXjXjXjXjXjXq j.c.#XrXrXrXrXrXrXrX8XR  ......._ 0.sXi._ $.o.c jX",
"jXjXjXjXjXjXjXe x.W.@X7XeXeXeX6X#XR.Y  ...{ / ..|.yX-. .....z jX",
"jXjXjXjXjXjXjXjXl.N.Q./.(.(.(.(._.~.T / 2.'.u.q.hXs./ / / ] j jX",
"jXjXjXjXjXjXjXjXjXb.L.^._.%X$X&X%X_.E C n }.fXiX{.' ! ! ` A d jX",
"jXjXjXjXjXjXjXjXjXjXjXE.E.^._.*X*X%XJ.x Z l uXaXt.b V A K k jXjX",
"jXjXjXjXjXjXjXjXjXjXjXjXjXL.L.E.Y.U.L.i B L I t.v S L L M y jXjX",
"jXjXjXjXjXjXjXjXjXjXjXjXjXjXjXjXjXjXjXjXy F G B P J N k t jXjXjX",
"jXjXjXjXjXjXjXjXjXjXjXjXjXjXjXjXjXjXjXjXjXjXa g f s i jXjXjXjXjX",
"jXjXjXjXjXjXjXjXjXjXjXjXjXjXjXjXjXjXjXjXjXjXjXjXjXjXjXjXjXjXjXjX"
};
