/* XPM */
static char *gnome_terminal[] = {
/* columns rows colors chars-per-pixel */
"32 32 204 2 ",
"   c #1E1E1F1F1F1F",
".  c #1F9823321D87",
"X  c #2C2C2C2C2C2C",
"o  c #323232323232",
"O  c #353535353535",
"+  c #373737373737",
"@  c #34A4380B307C",
"#  c #35A6382F3274",
"$  c #37A738A137A7",
"%  c #373738383838",
"&  c #39393A3A3939",
"*  c gray23",
"=  c #3B413C753A1F",
"-  c gray24",
";  c #39B53FE2333D",
":  c #3FBE40733EC0",
">  c #4388500D35E3",
",  c #404C404C404C",
"<  c gray26",
"1  c #43D4447D42EB",
"2  c #4464452B434B",
"3  c #444444444444",
"4  c #484848484848",
"5  c #4C4C4C4C4C4C",
"6  c #538058AD4C07",
"7  c #535353535353",
"8  c #555555555555",
"9  c #5A5A5A5A5959",
"0  c #5D5D5D5D5C5C",
"q  c #5FE677F041B6",
"w  c #64A778A24A90",
"e  c #67D377A455BF",
"r  c #646464646464",
"t  c #6C6C6C6C6C6C",
"y  c #727272727272",
"u  c gray46",
"i  c gray48",
"p  c #7C7C7C7C7C7C",
"a  c #4B4B88880303",
"s  c #4D4D8A8A0606",
"d  c #4E4E8C8C0404",
"f  c #4DFC85B20C20",
"g  c #50508E8E0606",
"h  c #525294940707",
"j  c #593D96B50DA5",
"k  c #575798980D0D",
"l  c #585898980F0F",
"z  c #58BC93B110ED",
"x  c #5D5DA7A70707",
"c  c #5BCCB7CB00CD",
"v  c #6061AB7B096C",
"b  c #6102AC1C0C07",
"n  c #6363B7B70404",
"m  c #63C8BAC701C9",
"M  c #6565BFBF0000",
"N  c #6868BBBB0707",
"B  c #6262B1B10909",
"V  c #6363B1B10F0F",
"C  c #6565B4B40D0D",
"Z  c #6868BCBC0808",
"A  c #6868BCBC0909",
"S  c #6868BDBD0B0B",
"D  c #6ABDBEBC0ABD",
"F  c #6868BBBB0E0E",
"G  c #6868BABA0F0F",
"H  c #6262ACAC1010",
"J  c #67F6A6431C5F",
"K  c #6565B2B21111",
"L  c #6565B5B51010",
"P  c #6767B7B71515",
"I  c #697CBC7B107D",
"U  c #6969BCBC1212",
"Y  c #6A6AB9B91717",
"T  c #6C7ABD79147B",
"R  c #5E2781B1339E",
"E  c #68899FB72605",
"W  c #6561966F2B37",
"Q  c #624486F938E5",
"!  c #6D12A8082605",
"~  c #7459A4FC3B7E",
"^  c #75F7A8003C49",
"/  c #6A6AC6C60000",
"(  c #6D6DC4C40303",
")  c #6B6BC1C10707",
"_  c #6C6CC1C10606",
"`  c #6F6FC7C70606",
"'  c #6F6FC7C70707",
"]  c #6B6BC8C80000",
"[  c #6D6DC8C80000",
"{  c #6F2BC92B022C",
"}  c #6F6FC9C90202",
"|  c #6B6BC3C30909",
" . c #6E6EC2C20B0B",
".. c #6E6EC6C60808",
"X. c #6969C0C00F0F",
"o. c #7055CA01041F",
"O. c #7070CACA0404",
"+. c #7139CA390739",
"@. c #7171CACA0707",
"#. c #7272CBCB0707",
"$. c #7235CA340835",
"%. c #71C1CAC007C1",
"&. c #7287CAD00804",
"*. c #7272CBCB0808",
"=. c #7373CBCB0808",
"-. c #7335CB340935",
";. c #7272CBCB0909",
":. c #7373CBCB0909",
">. c #7373CACA0B0B",
",. c #7575CBCB0B0B",
"<. c #7575CBCB0E0E",
"1. c #7676CBCB0F0F",
"2. c #7575CCCC0C0C",
"3. c #7575CCCC0D0D",
"4. c #7777CCCC1111",
"5. c #7C7CCECE1818",
"6. c #73AB8C0E52F1",
"7. c #73AB8C0E543A",
"8. c #7B1986516D75",
"9. c #7FB880657F1E",
"0. c #8383CFCF2525",
"q. c #8383CFCF2929",
"w. c #8273C8C62E7C",
"e. c #8787D0D02C2C",
"r. c #8838D2392E39",
"t. c #89D1CD2F35D9",
"y. c #8787C8C83F3F",
"u. c #8B8BD0D03535",
"i. c #8C8CD0D03636",
"p. c #8D8DD4D43737",
"a. c #8F8FD3D33E3E",
"s. c #8192A07E5914",
"d. c #8929AB875ACF",
"f. c #8A8ACBCB4141",
"g. c #93C7CB3D4EC5",
"h. c #9234D6344035",
"j. c #9797D6D64B4B",
"k. c #9A9AD9D94F4F",
"l. c #9885CE085665",
"z. c #93D2C47558F5",
"x. c #9A9AD7D75151",
"c. c #9E9EDBDB5555",
"v. c #838383838383",
"b. c #878D878D878D",
"n. c #8B8B8B8B8B8B",
"m. c #8E8E8E8E8E8E",
"M. c #939393939393",
"N. c #979797979797",
"B. c #9B9B9B9B9B9B",
"V. c #9F9F9F9F9F9F",
"C. c #9AAFAB598863",
"Z. c #A324B720899B",
"A. c #A64DBDC8881D",
"S. c #A0A0A0A0A0A0",
"D. c #A7A7A7A7A6A6",
"F. c #AEAEAEAEADAD",
"G. c #B3B3B3B3B1B1",
"H. c #B6B6B6B6B5B5",
"J. c #B94DBB51B701",
"K. c #BBBBBBBBB9B9",
"L. c #BCBCBCBCBCBC",
"P. c #BF1DE61D901E",
"I. c #C1C1E7E79494",
"U. c #C4C4E8E89797",
"Y. c #CACAE9E9A7A7",
"T. c #CECEEAEAADAD",
"R. c #D0D0EDEDADAD",
"E. c #C0C0C0C0C0C0",
"W. c #C633C633C633",
"Q. c gray78",
"!. c #CAFECAFECB05",
"~. c #CBCBCBCBCBCB",
"^. c #CECECECECECE",
"/. c #D0D0D0D0CFCF",
"(. c #D27AD39DD057",
"). c #D3D3D3D3D1D1",
"_. c #D4D4D4D4D3D3",
"`. c gray83",
"'. c #DADADADADADA",
"]. c #DFDFDFDFDEDE",
"[. c #DCDCF1F1C3C3",
"{. c #E1E1E1E1DFDF",
"}. c #E5E5F3F3D5D5",
"|. c #EBEBF7F7DEDE",
" X c #E3E3E3E3E1E1",
".X c #E5E5E5E5E3E3",
"XX c #E6E6E6E6E5E5",
"oX c #EA45EC39E60E",
"OX c #E8E8E8E8E7E7",
"+X c #EBEBEBEBE9E9",
"@X c #ECECECECEAEA",
"#X c #EEEEEEEEECEC",
"$X c #EFC7F8C7E5C7",
"%X c #F3F3FAFAEBEB",
"&X c #F5F5FAFAEDED",
"*X c gray95",
"=X c #F4F4F4F4F3F3",
"-X c #F7F7F7F7F6F6",
";X c #F9F9FCFCF4F4",
":X c #F9F9FCFCF6F6",
">X c #FBFBFBFBFAFA",
",X c #FBFBFDFDF8F8",
"<X c #FDFDFDFDFCFC",
"1X c None",
/* pixels */
"1X1X1X1X1X1X1X1X1X1X1X1X1X1X1X1X1X1X1X1X1X1X1X1X1X1X1X1X1X1X1X1X",
"1X1X1X1X1X1X1X1X1X1X1X1X1X1X1X1X1X1X1X1X1X1X1X1X1X1X1X1X1X1X1X1X",
"1X1XS.V.B.B.B.B.B.B.B.B.B.B.B.B.B.B.B.B.B.B.B.B.B.B.B.B.V.S.1X1X",
"1XV.`.>X<X<X<X<X<X<X<X<X<X<X<X<X<X<X<X<X<X<X<X>X<X<X<X>X>X).V.1X",
"1XB.>X#X@X@X+X+XOX+XOXOXOXOXOXOXXXXXXXXXXX+XXXXXXXXXXX.XXX-XB.1X",
"1XN.>X+XG.&                                         % F. X>XB.1X",
"1XN.>XXX& < 8 8 8 8 8 8 8 8 8 8 8 8 8 8 8 8 8 8 8 8 < % {.-XN.1X",
"1XN.>XXX  7 7 7 7 7 7 8 8 8 8 8 8 8 8 8 8 8 8 8 8 8 8   ].-XN.1X",
"1XM.-X.X  7 5 5 8 7 7 7 7 7 7 8 7 7 8 8 7 7 7 7 7 7 7   '.-XN.1X",
"1XN.-X X  7 7 7 5 7 5 5 7 5 5 5 5 7 5 5 5 7 5 7 7 5 7   '.=XN.1X",
"1XM.-X].  3 8 5 5 5 7 5 5 7 5 7 5 5 5 7 5 7 7 5 5 5 7   '.*XM.1X",
"1XM.*X].X 5 3 5 5 7 4 5 5 5 5 5 5 5 5 5 5 4 5 5 5 5 4   `.#XM.1X",
"1XM.*X].  4 5 E.r 4 4 5 4 5 5 4 5 4 5 4 5 4 5 4 4 5 4   `.#XM.1X",
"1Xm.#X'.  4 4 #X#XD.8 3 4 4 4 4 4 4 4 4 4 4 4 4 4 4 4   `.#XM.1X",
"1Xm.#X'.  3 3 t K.@X Xm.4 3 4 3 3 4 4 3 4 3 3 4 4 3 3   ).+Xm.1X",
"1Xm.#X`.  3 3 3 < 0 D.+X_.u 3 3 3 3 3 3 3 3 3 3 3 3 3   /.XXm.1X",
"1Xn.+X).  < < < < < < 0 '.#X< < 3 < < < < < < 3 3 3 <   ^.XXn.1X",
"1Xn.+X`.  , < < < 9 D.XX`.y < - < < < < < - 1 : 1 3 1 . ^..Xn.1X",
"1Xn. X).  * & r H.@XXXn.< - < - - < - - , 6 7.s.d.s.7.; W. Xn.1X",
"1Xn.XX/.  , < +X@XV.3 - - < - - - - - = w l.e.5.3.5.0.g.Z.).n.1X",
"1Xn.].^.  * * L.9 & - & & - & * & & $ q i.3.` ` =.{ h.c.u.A.b.1X",
"1Xb.].~.  + & & & & & & & & & & & & > w.,.#.=.=.{ e.&XP.] t.8.1X",
"1Xb.'.~.  + + O & O O & & O & @X#XOXz.3.=.=.=.=.` U.:X/ =.1.~ 1X",
"1Xb.).Q.  O O O O O O O O O O O O # z =.=.=.=.{ p.%Xk.{ =.#.! 1X",
"1Xb.`.W.o X o o X O o o o o O o o @ j =.=.' { =.R.[.4.#.=.=.J 1X",
"1Xb.`.Q.B.o       X               . f ( q.I.j.a.,Xk.' ' ' ..E 1X",
"1Xp ^.L.E.L.K.!.L.L.E.K.E.L.E.K.L.J.^ A M T.;X|.Y. .) ) | D W 1X",
"1Xb.S.Q.^.~.~.~.Q.~.^.Q.~.Q.~.~.Q.!.C.b Z c }.$Xf.m Z D S v e 1X",
"1X1Xi v.i n.i v.v.i v.v.v.b.p v.v.v.9.Q C F T f.n F U U B R 1X1X",
"1X1X1X1X1X1X1X1X1X1X1X1X1X1X1X1X1X1X1X1Xs H K L Y P V x a 1X1X1X",
"1X1X1X1X1X1X1X1X1X1X1X1X1X1X1X1X1X1X1X1X1X1Xg l k h d 1X1X1X1X1X",
"1X1X1X1X1X1X1X1X1X1X1X1X1X1X1X1X1X1X1X1X1X1X1X1X1X1X1X1X1X1X1X1X"
};
