/* XPM */
static char *gnome_nettool[] = {
/* columns rows colors chars-per-pixel */
"32 32 256 2 ",
"   c #002000390003",
".  c #047107F00049",
"X  c #0B0B0B0B0B0B",
"o  c #11921F980109",
"O  c #130D130D130D",
"+  c #11111B1B1B1B",
"@  c #181818181818",
"#  c #135F2330014B",
"$  c #1BF129E10BF8",
"%  c #1B1B20201616",
"&  c #23232C2C1C1C",
"*  c #1F1F2C2C2D2D",
"=  c #1D1D2F2F3535",
"-  c #151529293B3B",
";  c #242425252525",
":  c #26262D2D2E2E",
">  c gray17",
",  c #262632322525",
"<  c #282834342020",
"1  c #2B2B34342B2B",
"2  c #222233333A3A",
"3  c #2B2B35353232",
"4  c #323232323232",
"5  c #3C3C3C3C3C3C",
"6  c #2B634E350291",
"7  c #2D725193037F",
"8  c #352F5EEC035E",
"9  c #3D586E6C045B",
"0  c #363644442A2A",
"q  c #3A3A4A4A2D2D",
"w  c #373740403030",
"e  c #3C3C46463434",
"r  c #3E7C4F1632C5",
"t  c #3B3B45453939",
"y  c #3F3F50503333",
"u  c #470E7E3B0489",
"i  c #417A71190B29",
"p  c #45DF7A130A71",
"a  c #494C79EF1071",
"s  c #45525CCD2722",
"d  c #42424D4D3939",
"f  c #404051513434",
"g  c #434353533C3C",
"h  c #484855553D3D",
"j  c #474758583A3A",
"k  c #494959593939",
"l  c #525B665738D2",
"z  c #1E1E3E3E5D5D",
"x  c #2B2B3B3B4343",
"c  c #22223C3C5454",
"v  c #39394C4C4E4E",
"b  c #232343436262",
"n  c #2C2C4E4E6D6D",
"m  c #35354E4E6363",
"M  c #363651516666",
"N  c #2D2D50507070",
"B  c #3C3C5B5B7878",
"V  c #333354547272",
"C  c #441844184418",
"Z  c #4B4B4B4B4B4B",
"A  c #52525A5A4949",
"S  c gray32",
"D  c gray36",
"F  c #505061614646",
"G  c #57576B6B4444",
"H  c #596E6DDD3FCA",
"J  c #525262624B4B",
"K  c #5F5F76764B4B",
"L  c #5B5B69695353",
"P  c #64417BD24A9E",
"I  c #65656F6F5B5B",
"U  c #616174745454",
"Y  c #656575755959",
"T  c #63637B7B5B5B",
"R  c #6C6C7C7C5D5D",
"E  c #48485C5C6C6C",
"W  c #5C5C6C6C7777",
"Q  c #646464646464",
"!  c gray42",
"~  c #606071716D6D",
"^  c #6C6C7B7B6F6F",
"/  c #616171717A7A",
"(  c #686876767A7A",
")  c #747474747474",
"_  c #74747E7E7171",
"`  c #7C697C847C4A",
"'  c #4B97868C0489",
"]  c #50948EE104FC",
"[  c #60839DFC14EC",
"{  c #5B2BA3B506DD",
"}  c #5DE0A8FA06EB",
"|  c #5E0CA9260911",
" . c #5AFFB6FF0000",
".. c #6363B7B70404",
"X. c #6432BCDF0080",
"o. c #6868BBBB0707",
"O. c #63B9B2B20C62",
"+. c #68ACBC9C0B34",
"@. c #6011A89C0FAF",
"#. c #6610B55F1212",
"$. c #6A34BBDD134A",
"%. c #631D95262A09",
"&. c #6A8BA2032871",
"*. c #700CAB02283D",
"=. c #6D6DC57C052A",
"-. c #6E71C968016C",
";. c #6C6CC3830ACB",
":. c #7113CAA405A1",
">. c #737DCB7B0970",
",. c #7777CCCC1111",
"<. c #7C7CCECE1818",
"1. c #6A6A83835757",
"2. c #6A6A83835959",
"3. c #72728C8C5B5B",
"4. c #797997975E5E",
"5. c #767687876565",
"6. c #78788E8E6565",
"7. c #76768B8B6A6A",
"8. c #737383836B6B",
"9. c #757592926262",
"0. c #7E7E9D9D6464",
"q. c #7B7B91916A6A",
"w. c #787888887171",
"e. c #7F7F92927171",
"r. c #8383CFCF2525",
"t. c #8383CFCF2929",
"y. c #8787D0D02C2C",
"u. c #88ACD2A82EA4",
"i. c #83CFC72D2FD7",
"p. c #8640CC8D3249",
"a. c #8787C8C83F3F",
"s. c #8C8CD2273636",
"d. c #8F8FD3D33E3E",
"f. c #838FB4324955",
"g. c #808093936E6E",
"h. c #82DA86407EB1",
"j. c #8256944D73DA",
"k. c #84849B9B7676",
"l. c #8AACA998622F",
"z. c #8383A0A06B6B",
"x. c #96DEB7836B73",
"c. c #8B8BA4A47777",
"v. c #9102A9647190",
"b. c #8A8ACBCB4141",
"n. c #926BD66A406B",
"m. c #9797D6D64B4B",
"M. c #9A9AD9D94F4F",
"N. c #9838CFA6532E",
"B. c #9A9AD7D75151",
"V. c #9E9EDBDB5555",
"C. c #9B1AD09658FA",
"Z. c #4D4D6B6B8585",
"A. c #4D4D6F6F8C8C",
"S. c #51516B6B8080",
"D. c #515172728E8E",
"F. c #626274748080",
"G. c #61617F7F9797",
"H. c #6D6D85859999",
"J. c #626282829C9C",
"K. c #7F7F8F8F9595",
"L. c #6B6B8989A0A0",
"P. c #7A7A9595ACAC",
"I. c #838383838383",
"U. c #85288DC5836E",
"Y. c #88888E8E8686",
"T. c #8B8B8B8B8B8B",
"R. c #94948F8F8787",
"E. c #8E8E92928B8B",
"W. c #96DB9B998CCE",
"Q. c #878792929696",
"!. c #939393939393",
"~. c #95B3985C92B0",
"^. c #9B7B9B869B6A",
"/. c #A1A198988C8C",
"(. c #B0B09E9E8787",
"). c #A1A19A9A9292",
"_. c #A0A09F9F9C9C",
"`. c #9494AFAF8888",
"'. c #9A9AADAD8A8A",
"]. c #9E04A08D9AD1",
"[. c #A265BAC781AA",
"{. c #A0A0B9B98D8D",
"}. c #A6B0A3DE9D21",
"|. c #B8B8AAAA9797",
" X c #A4A4BEBE9797",
".X c #A924B4F79B80",
"XX c #ABABBDBD9F9F",
"oX c #83839898AAAA",
"OX c #8686A2A2B7B7",
"+X c #8D8DA6A6B9B9",
"@X c #9191A6A6B5B5",
"#X c #9E9EABABB3B3",
"$X c #9393AAAABDBD",
"%X c #A391A39CA383",
"&X c #ACACA8A8A3A3",
"*X c gray67",
"=X c #B0B0ADADA9A9",
"-X c #B2B2B1B1AFAF",
";X c #A0A0AAAAB0B0",
":X c #B4B4B4B4B4B4",
">X c #B8B8B7B7B4B4",
",X c #BBBBBBBBBBBB",
"<X c #D5D5BCBC9C9C",
"1X c #D7D7BFBFA1A1",
"2X c #BF93E6929093",
"3X c #B6B6CACAA8A8",
"4X c #C1C1E7E79494",
"5X c #C4C4E8E89797",
"6X c #C074C268BE30",
"7X c #C0C0D4D4B3B3",
"8X c #CACAE9E9A7A7",
"9X c #CECEEAEAADAD",
"0X c #D0D0EDEDADAD",
"qX c #9494AEAEC2C2",
"wX c #9C9CB3B3C5C5",
"eX c #A3A3B7B7C6C6",
"rX c #A3A3BABACCCC",
"tX c #ACACBFBFCECE",
"yX c #B3B3C1C1CDCD",
"uX c #AEAEC3C3D3D3",
"iX c #B2B2C6C6D4D4",
"pX c #B5B5CCCCDBDB",
"aX c #BDBDCECEDADA",
"sX c #B7B7D0D0E1E1",
"dX c #BBBBD4D4E4E4",
"fX c #C3C3C3C3C3C3",
"gX c #CA13C99DC7BE",
"hX c #CB3ACB51CB1A",
"jX c #D0D0CFCFCBCB",
"kX c #C2C2CECED9D9",
"lX c #C2C2D2D2DDDD",
"zX c #C9C9D4D4DDDD",
"xX c #D2D2D2D2D2D2",
"cX c #D9D9D7D7D4D4",
"vX c #DCDCF1F1C3C3",
"bX c #EBEBF7F7DEDE",
"nX c #E5E5F3F3D5D5",
"mX c #C5C5D6D6E1E1",
"MX c #CBCBD7D7E1E1",
"NX c #C5C5D8D8E4E4",
"BX c #CDCDDBDBE6E6",
"VX c #C3C3DADAE8E8",
"CX c #CDCDDDDDE8E8",
"ZX c #D1D1DDDDE6E6",
"AX c #D5D5E0E0E7E7",
"SX c #D3D3E0E0E9E9",
"DX c #DBDBE5E5ECEC",
"FX c #DDDDE9E9F0F0",
"GX c #E2E2EAEAEFEF",
"HX c #EEFEF7FEE4FE",
"JX c #F4F4FAFAECEC",
"KX c #E3E3EBEBF1F1",
"LX c #EBEBF2F2F6F6",
"PX c #F9F9FCFCF5F5",
"IX c #FBFBFDFDF8F8",
"UX c None",
/* pixels */
"UXUXUXUXUXUXUXUX                                  UXUXUXUXUXUXUX",
"UXUX                                                        UXUX",
"  @             X   X X X X X X X X X X X X X           O       ",
"  @ ; Z S D D Q Q Q Q ! ! ) ) ` ` ` ` ) ) ) ! Q S Z Z 4 O       ",
"    ` T.D D Z Z D L S Q Q Q D Q ) ) ) ! Y.,X>X%X` T.T.T.        ",
"    T.Z & j k F F g 3 : * : 1 r j y f q % ^.%X!.(.R.! T.        ",
"    T.: T {. X`._ Q.zXDXDXkX#X( T 9.0.3.0 T.>X-X|.).D I.X       ",
"    !.> 2.3X3X^ #XZXZXSXNXmXBXMX( J z.4.q !.I.hXI.>X> ! X       ",
"  X %X4 q.3XQ.#XDXDXVXVXdXCXSXSXaX/ 7.z.e !.*X` ^.! 4 ) X       ",
"  X %X4 2.3XK.MXBXpXdXdXsXNXpXaXaXwX~ 6.q ^.!._.! S S ` O       ",
"  X %X4 q.w.@XuXuXpXsXFXCXCXAXuXrXwXF.8.q ^.jX%X%XI.%X^.O       ",
"  X *X5 7.L +XoXAXSXpXpXLXKXFXMXrXqXE _ q T.xX*X-X^.*X%XO       ",
"  O >X5 e.w.@XtXBXDXrXrXGXKXlXlXiXeX/ Y.d %XcXhX/.=X^.*XO       ",
"  O ,X5 k.U.H.qXuXGXuXqXMXMXwXaXDXoXW E.d _.fX:X7X).` %X@       ",
"  O fX5 T j.M D.wXSXBXP.kXkXJ.zX$XB = I w T.*XxX` <XS I.O       ",
"  O ,X5 2.XXv n L.wXeXD.yXyXA.OXL.c , R S ^.*X*X=X^.C I.@       ",
"  O fX5 3.'.U 2 Z.OXZ.n n n V G.m + j 5.d ^.%XI.D S S !.@       ",
"  O ,Xt K z.9.g x S.b b z z z c + < G 5.0 ^.gXjX}.^.%X*XO       ",
"  O ,X5 P z.c.c.Y t 2 - - - ; > A R c.'.r U.[.x.x.l.v.W.O       ",
"  X :X5 h 3.6.6.q.U k e 5 t h I 2.5.g.j.H C.y.<.>.<.r.N.l       ",
"  O ,X*XZ C C C S Z C C C Z C C Z Z C P s.>.-.:.:.-.n.V.s.s     ",
"  X >XhX! C I.T.Z ! *X,XhXhXhXhXhXhX.Xp.>.>.>.>.-.u.JX2X-.i.$   ",
"  X :XQ *X&XQ ` *XT.D ` ! _.tX1XfX6Xf.>.>.>.:.>.:.5XPX=.>.>.a   ",
"  X =Xx !.; ) T.; ` 5 S _.&XF.^.%X].*.>.>.>.>.-.s.JXM.:.>.>.' . ",
"    %XI.! T.Q Q I.` ) ) ) T.) ! ^.h.[ :.>.=.=.:.0XvX,.>.>.>.] . ",
"    _.:XI.Q Q Q S ! *X>XE.%X^.).*X~.&.=.t.4Xm.d.IXB.=.=.=.:.'   ",
"  X 5 ` T.T.I.` T.T.T.!.I.F.I.` ` ` %.o.=.9XPXbX8X;.;.=.;.o.9   ",
"  X         X O O @ @ O O X X X X X $ } +. .nXHXb.X.o.o.;.| #   ",
"                                      7 #.$.$.b...$.+.$.O.7     ",
"                                        7 @.#.#.$.#.O.{ 6       ",
"UXUX                                      o 8 9 p 9 8 #         ",
"UXUX                                          . .           UXUX"
};
