/* XPM */
static char *gnome_vumeter[] = {
/* columns rows colors chars-per-pixel */
"32 32 234 2 ",
"   c #7D7D7F7F0000",
".  c #8E8E01010000",
"X  c #8E0105070282",
"o  c #8F31070D0471",
"O  c #909001010000",
"+  c #91910A0A0000",
"@  c #8D9A111205AF",
"#  c #959515150000",
"$  c #901A0FA90465",
"%  c #97971A1A0000",
"&  c #98981F1F0000",
"*  c #9A9A24240000",
"=  c #94E62D880134",
"-  c #9D9D2D2D0000",
";  c #9E9E33330000",
":  c #F0F013130000",
">  c #F1F11A1A0000",
",  c #F1F123230000",
"<  c #F1F12A2A0000",
"1  c #F2F224240A0A",
"2  c #F2F233330000",
"3  c #F2F23D3D0000",
"4  c #F1F132320909",
"5  c #A3A341410000",
"6  c #A6A64B4B0000",
"7  c #A9A952520000",
"8  c #ACAC5B5B0000",
"9  c #AB595CE60274",
"0  c #97976F6F0000",
"q  c #99996D6D0000",
"w  c #8C8C76760000",
"e  c #85857B7B0000",
"r  c #A6A665650000",
"t  c #A9A963630000",
"y  c #A1A169690000",
"u  c #8F2B7E2A2722",
"i  c #F3F349490000",
"p  c #F2F240400909",
"a  c #F3F34E4E0909",
"s  c #ED415ACD08CA",
"d  c #F3F355550000",
"f  c #F3F35C5C0000",
"g  c #E60062B70134",
"h  c #EE3B6F4E0000",
"j  c #F4F466660000",
"k  c #F4F46C6C0909",
"l  c #EFEF7C7C0000",
"z  c #F4F472720000",
"x  c #F5F579790000",
"c  c #4E4E8C8C0404",
"v  c #50508E8E0606",
"b  c #4D4D92F70255",
"n  c #4D4D9333036D",
"m  c #499096FD0000",
"M  c #4E53935C04BE",
"N  c #4D4D9E9E0000",
"B  c #522891DD0000",
"V  c #525294940707",
"C  c #5B5B95950000",
"Z  c #565698980000",
"A  c #58589E9E0505",
"S  c #575798980D0D",
"D  c #585898980F0F",
"F  c #63638F8F0000",
"G  c #6B6B8A8A0000",
"H  c #727286860000",
"J  c #616191910000",
"K  c #5D1AA7830707",
"L  c #5E5EA7A70606",
"P  c #5F16AB7706EB",
"I  c #5BB6B7E3007C",
"U  c #6161ACAC0606",
"Y  c #6CB1A634091F",
"T  c #6008AC1C094A",
"R  c #6E35A95507BB",
"E  c #6D51AAAC0E80",
"W  c #7047AA4806B7",
"Q  c #7CB2AC7F0584",
"!  c #6464B2B20606",
"~  c #6363B7B70404",
"^  c #6394BABA0110",
"/  c #6565BFBF0000",
"(  c #6868BBBB0707",
")  c #6262B1B10909",
"_  c #6363B1B10F0F",
"`  c #6565B4B40D0D",
"'  c #6868BCBC0808",
"]  c #6868BCBC0909",
"[  c #6868BDBD0B0B",
"{  c #6A94BEBA0A10",
"}  c #6868BBBB0E0E",
"|  c #6868BABA0F0F",
" . c #61E3AC570FAF",
".. c #6565B2B21111",
"X. c #6565B5B51010",
"o. c #6767B7B71515",
"O. c #69B6BCE3107C",
"+. c #6969BCBC1212",
"@. c #6A6AB9B91717",
"#. c #6C4DBD9E1400",
"$. c #6B6BB2B21818",
"%. c #79DBB40C3B6C",
"&. c #6A6AC6C60000",
"*. c #6D6DC4C40303",
"=. c #6B6BC1C10707",
"-. c #6C6CC1C10606",
";. c #6F6FC7C70606",
":. c #6F6FC7C70707",
">. c #6B6BC8C80000",
",. c #6D6DC8C80000",
"<. c #6F6FC9C90202",
"1. c #6B6BC3C30909",
"2. c #6E6EC2C20B0B",
"3. c #6E6EC6C60808",
"4. c #6969C0C00F0F",
"5. c #6FF6C9780200",
"6. c #7070C9C90404",
"7. c #7077CAA40402",
"8. c #7171CACA0707",
"9. c #7265CAAB074A",
"0. c #7272CBCB0707",
"q. c #7271CAC80808",
"w. c #7272CBCB0808",
"e. c #7373CBCB0808",
"r. c #7272CBCB0909",
"t. c #7380CBC4090A",
"y. c #7373CACA0B0B",
"u. c #7575CBCB0B0B",
"i. c #7575CBCB0E0E",
"p. c #7676CBCB0F0F",
"a. c #7575CCCC0C0C",
"s. c #7575CCCC0D0D",
"d. c #7777CCCC1111",
"f. c #7979CDCD1414",
"g. c #7C7CCECE1818",
"h. c #B9F5849C100C",
"j. c #8CCFA5350EFA",
"k. c #9C9CB5B50E0E",
"l. c #9898B8B80F0F",
"z. c #9494BABA1010",
"x. c #ABABABAB0C0C",
"c. c #B7B7A3A30A0A",
"v. c #B8B8A2A20A0A",
"b. c #A2A2B1B10D0D",
"n. c #92759C5A3B0A",
"m. c #B14F8F842693",
"M. c #B6C88DBA3339",
"N. c #D5D58E8E0505",
"B. c #D8D88C8C0404",
"V. c #CBCB95950606",
"C. c #C6C699990707",
"Z. c #C1C19C9C0808",
"A. c #E2E285850303",
"S. c #EAEA80800101",
"D. c #8484C6C61313",
"F. c #8989C7C71919",
"G. c #8383CFCF2525",
"H. c #8383CFCF2929",
"J. c #8754CAB42CF1",
"K. c #8787D0D02C2C",
"L. c #88F4D2542E00",
"P. c #8862C9F52FD7",
"I. c #8787C8C83F3F",
"U. c #8B8BD0D03535",
"Y. c #8C8CD0D03636",
"T. c #8D8DD4D43737",
"R. c #8F8FD3D33E3E",
"E. c #9B019D474B6D",
"W. c #B5F3AF3074D3",
"Q. c #B995A9A974F6",
"!. c #B290BA75712C",
"~. c #D6A0A5577CC1",
"^. c #8A8ACBCB4141",
"/. c #9A6DCB964DCB",
"(. c #92F3D63C3FFF",
"). c #9797D6D64B4B",
"_. c #9A9AD9D94F4F",
"`. c #9A9AD7D75151",
"'. c #9E9EDBDB5555",
"]. c #9E99D1E8591B",
"[. c #AFA6C0686E42",
"{. c #AF2DE13E7E26",
"}. c #CC83C6D27BF7",
"|. c #CB8FD01B7DE7",
" X c #D6A09E778CCE",
".X c #F9F997979292",
"XX c #F31C9F25984F",
"oX c #F9F99F9F9C9C",
"OX c #F9F9A3A38B8B",
"+X c #F9F9AAAA8888",
"@X c #FAFAB5B58F8F",
"#X c #FAFABCBC8D8D",
"$X c #F9F9A6A69696",
"%X c #FAFAADAD9595",
"&X c #F9F9A3A39C9C",
"*X c #F9F9A9A99999",
"=X c #FAFAB3B39292",
"-X c #FAFAB8B89090",
";X c #B4B4E7E78282",
":X c #BBBBE3E38383",
">X c #BFFEE0FE8406",
",X c #BFF3E6548FFF",
"<X c #DBB0C9598133",
"1X c #C7E3D87D8185",
"2X c #C5C5DDDD8484",
"3X c #CBCBDADA8585",
"4X c #D4D4D6D68585",
"5X c #DBDBD1D18686",
"6X c #D1D1D8D88686",
"7X c #DCDCD2D28888",
"8X c #E75AC93785CA",
"9X c #E3E3CDCD8686",
"0X c #EBEBC9C98787",
"qX c #E4E4CECE8888",
"wX c #EBEBCACA8989",
"eX c #F1F1C4C48585",
"rX c #F3F3C6C68A8A",
"tX c #F9F9C2C28A8A",
"yX c #C0C0E1E18484",
"uX c #C1C1E7E79494",
"iX c #C4C4E8E89797",
"pX c #CACAE9E9A7A7",
"aX c #CECEEAEAADAD",
"sX c #D0D0EDEDADAD",
"dX c #DCDCF1F1C3C3",
"fX c #E5E5F3F3D5D5",
"gX c #EBEBF7F7DEDE",
"hX c #EF54F8A2E50A",
"jX c #F3F3FAFAEBEB",
"kX c #F5F5FAFAEDED",
"lX c #F9F9FCFCF4F4",
"zX c #F9F9FCFCF6F6",
"xX c #FBFBFDFDF8F8",
"cX c None",
/* pixels */
"cXcXcXcXcXcXcXcXcXcXcXcXcXcXcXcXcXcXcXcXcXcXcXcXcXcXcXcXcXcXcXcX",
"cXcXcXcXcXcXcXcXcXcXcXcXcXcXcXcXcXcXcXcXcXcXcXcXcXcXcXcXcXcXcXcX",
"cXcXcXcXcXcXcXcXcX+ . . . . . . cXcXcXcXcXcXcXcXcXcXcXcXcXcXcXcX",
"cXcXcXcXcXcXcXcXcX% &XoXoXoXoX. cXcXcXcXcXcXcXcXcXcXcXcXcXcXcXcX",
"cXcXcXcXcXcXcXcXcX* &X: : : oX+ cXcXcXcXcXcXcXcXcXcXcXcXcXcXcXcX",
"cXcXcXcXcXcXcXcXcX; &X> : : $X# cXcXcXcXcXcXcXcXcXcXcXcXcXcXcXcX",
"cXcXcXcXcXcXcXcXcX5 *X, , , $X* cXcXcXcXcXcXcXcXcXcXcXcXcXcXcXcX",
"cXcXcXcXcXcXcXcXcX7 *X< < < $X; cXcXcXcXcXcXcXcXcXcXcXcXcXcXcXcX",
"cXcXcXcXcXcXcXcXcX8 %X2 2 2 %X5 cXcXcXcXcXcXcXcXcXcXcXcXcXcXcXcX",
"cXcX+ . . . . . . r %Xp 3 3 %X6 cXcXcXcXcXcXcXcXcXcXcXcXcXcXcXcX",
"cXcX& &X&X&XoX&X. 0 =Xi i i %X8 cXcXcXcXcXcXcXcXcXcXcXcXcXcXcXcX",
"cXcX- &X: > : &X# w =Xd d d @Xt cXcXcXcXcXcXcXcXcXcXcXcXcXcXcXcX",
"cXcX5 *X, , , $X*   -Xf f f @X0 + . . . . . . cXcXcXcXcXcXcXcXcX",
"cXcX7 *X2 2 < *X; H -Xj j j #Xw & &X&X&X&X.X. cXcXcXcXcXcXcXcXcX",
"cXcXt %X3 3 3 %X6 F #Xz z z #X  ; *X> > 1 .X% cXcXcXcXcXcXcXcXcX",
"cXcX0 =Xi i i =X8 Z tXx x x tXH 6 *X< < 4 OX- cXcXcXcXcXcXcXcXcX",
"cXcXe =Xd d d @Xy N rXS.S.l rXF t %X3 3 3 OX5 cXcXcXcXcXcXcXcXcX",
"cXcXH #Xj j j #Xw N rXA.A.B.eXZ q %Xi i a +X9 @ @ o X . O . cXcX",
"cXcXJ #Xz z z #XH Z wXB.N.N.0XN e -Xd d s ~.n.E.[.!.W. XXX+ cXcX",
"cXcXN tXl l l tXG N qXV.V.V.0XN H -Xk g M.].K.g.d.g.G./.Q.= cXcX",
"cXcXN rXA.B.A.eXC N qXZ.Z.Z.9XN C tXh m.Y.s.;.e.e.>.(.'.Y.u cXcX",
"cXcXN wXN.N.N.0XN N 7Xc.v.v.5XN N rXh.J.u.9.e.e.<.L.kX,X>.P.cXcX",
"cXcXN qXC.C.C.qXN N 4Xx.x.x.4XN N 8Xj.i.9.e.e.e.9.iXzX&.e.p.$.cX",
"cXcXN 7Xv.v.v.5XN N 6Xb.b.b.3XN N <XQ e.e.e.e.<.Y.jX_.<.e.e.! cX",
"cXcXN 4Xx.x.x.4XN N 3Xk.l.l.3XN N }.W u.e.>.<.e.sXdXd.9.e.e.U cX",
"cXcXN 6Xk.k.k.3XN N yXF.D.z.2XN N |.Y >.H.iX).R.xX_.:.:.:.3.L cX",
"cXcXN yXz.D.D.3XN N yXD.D.D.2XN N 1XY ( / aXzXgXpX2.=.=.=.{ A cX",
"cXcXN :XD.D.D.:XN N :Xf.f.f.:XN N yXE T } I fXhX^.^ ] { 4.P cXcX",
"cXcXN ;X;X;X;X;XN N ;X;X;X;X;XN N ;X{.%.` } #.I.~ } +.+.) b cXcX",
"cXcXN N N N N N N N N N N N N N N N N m M  ...X.@.o._ L M B cXcX",
"cXcXcXcXcXcXcXcXcXcXcXcXcXcXcXcXcXcXcXcXcXcXv D S V c cXcXcXcXcX",
"cXcXcXcXcXcXcXcXcXcXcXcXcXcXcXcXcXcXcXcXcXcXcXcXcXcXcXcXcXcXcXcX"
};
