/* XPM */
static char *grafx2[] = {
/* columns rows colors chars-per-pixel */
"32 32 160 2 ",
"   c black",
".  c #01D9034F000E",
"X  c #027C04770026",
"o  c #030A056A0028",
"O  c #02E604DA00B1",
"+  c #035D05F40038",
"@  c #035D040D0282",
"#  c #047107F00049",
"$  c #11B71F98017A",
"%  c #13EF249901A2",
"&  c #1C7F27B60EDB",
"*  c #243629AC1D07",
"=  c #2BF54EC7036D",
"-  c #2E0852BD04A9",
";  c #45525CCD2722",
":  c #5ED75E402D06",
">  c #49D45DD0304B",
",  c #60305F982E5E",
"<  c #5E466E1F2678",
"1  c #5F927A132424",
"2  c #64786EB92A4E",
"3  c #66CD7E3B2448",
"4  c #6450700C2B3B",
"5  c #62BD71192C6B",
"6  c #6C201F985B4C",
"7  c #6A8C23305878",
"8  c #7958040A776E",
"9  c #7CB501347BF7",
"0  c #7C7800007C78",
"q  c #2CDD50686DC0",
"w  c #2AD04DA37024",
"e  c #46AA7E2142CD",
"r  c #47ED78905F04",
"t  c #494C79EF61C2",
"y  c #66C08EE11B28",
"u  c #5E31A3B509E3",
"i  c #5DE0A8FA0AEF",
"p  c #5AFFB6FF0101",
"a  c #5FE4A8FA0AE9",
"s  c #6363B7B70404",
"d  c #62FFB9FF0201",
"f  c #6565BFBF0000",
"g  c #6868BBBB0707",
"h  c #6262B1B10909",
"j  c #6363B1B10F0F",
"k  c #6565B4B40D0D",
"l  c #6868BCBC0808",
"z  c #6868BCBC0909",
"x  c #6868BDBD0B0B",
"c  c #69FFBDFF0B01",
"v  c #6868BBBB0E0E",
"b  c #6868BABA0F0F",
"n  c #6317A89C12B5",
"m  c #6565B2B21111",
"M  c #6565B5B51010",
"N  c #6767B7B71515",
"B  c #6980BBFF1081",
"V  c #6969BCBC1212",
"C  c #6A6AB9B91717",
"Z  c #6C80BCFF1481",
"A  c #50948E0C3128",
"S  c #6B56868C2448",
"D  c #6A6AC6C60000",
"F  c #6D6DC4C40303",
"G  c #6B6BC1C10707",
"H  c #6C6CC1C10606",
"J  c #6F6FC7C70606",
"K  c #6F6FC7C70707",
"L  c #6B6BC8C80000",
"P  c #6D6DC8C80000",
"I  c #6F6FC9C90202",
"U  c #6EFFC8FE0301",
"Y  c #6B6BC3C30909",
"T  c #6E6EC2C20B0B",
"R  c #6E6EC6C60808",
"E  c #6969C0C00F0F",
"W  c #7070C9C90404",
"Q  c #7070CACA0404",
"!  c #70FFCAFF0501",
"~  c #7179CAA50744",
"^  c #7272CBCB0707",
"/  c #70FFC9FE0801",
"(  c #71FFC9FE0901",
")  c #7272CACA0808",
"_  c #72FFCAFF0801",
"`  c #7272CBCB0808",
"'  c #7373CBCB0808",
"]  c #7272CBCB0909",
"[  c #7373CBCB0909",
"{  c #7373CACA0B0B",
"}  c #73FFCBFF0A01",
"|  c #7575CBCB0B0B",
" . c #7575CBCB0E0E",
".. c #7676CBCB0F0F",
"X. c #7575CCCC0C0C",
"o. c #7575CCCC0D0D",
"O. c #7777CCCC1111",
"+. c #7C7CCECE1818",
"@. c #056F808C7EE5",
"#. c #4B97868C4307",
"$. c #5BC4A2836AAF",
"%. c #8383CFCF2525",
"&. c #8383CFCF2929",
"*. c #8787D0D02C2C",
"=. c #87FFD1FE2F01",
"-. c #80E1C72D33F0",
";. c #83CFCAB4335E",
":. c #8787C8C83F3F",
">. c #8B8BD0D03535",
",. c #8C8CD0D03636",
"<. c #8D8DD4D43737",
"1. c #8F8FD3D33E3E",
"2. c #8A8ACBCB4141",
"3. c #91FFD5FE4100",
"4. c #9797D6D64B4B",
"5. c #9A9AD9D94F4F",
"6. c #92D6CE4B51D3",
"7. c #96B9CC355CA2",
"8. c #9A9AD7D75151",
"9. c #9E9EDBDB5555",
"0. c navy",
"q. c #44C35CCD9804",
"w. c #5BC474269766",
"e. c #49465D42A1A1",
"r. c #1B962769C0A4",
"t. c #24362962D373",
"y. c #047107D8E830",
"u. c #0257038BEF21",
"i. c #033F05E8F12C",
"p. c #035D05E6F21B",
"a. c #05630618F858",
"s. c #06E207C7F29B",
"d. c #00000000F8F8",
"f. c #02D604CAF888",
"g. c #036B040DFB6C",
"h. c blue",
"j. c #808000008080",
"k. c #000080808080",
"l. c #6FE78ED38BAD",
"z. c #7CAC9F0A8286",
"x. c cyan",
"c. c #808080808080",
"v. c #BEFFE5FE9100",
"b. c #C1C1E7E79494",
"n. c #C4C4E8E89797",
"m. c #CACAE9E9A7A7",
"M. c #CECEEAEAADAD",
"N. c #D0D0EDEDADAD",
"B. c #C0C0C0C0C0C0",
"V. c #DCDCF1F1C3C3",
"C. c #E5E5F3F3D5D5",
"Z. c #EBEBF7F7DEDE",
"A. c #EEFEF7FEE5FF",
"S. c #F3F3FAFAEBEB",
"D. c #F5F5FAFAEDED",
"F. c #F9F9FCFCF4F4",
"G. c #F9F9FCFCF6F6",
"H. c #FBFBFDFDF8F8",
"J. c #FEFEFFFFFFFF",
"K. c None",
/* pixels */
"                    K.K.K.K.K.K.K.K.K.K.K.K.                    ",
"  J.J.J.x.J.x.x.x.B.  K.K.K.K.K.K.K.K.K.K.  J.J.x.x.x.x.x.B.h.  ",
"  J.x.x.B.k.B.k.k.k.k.  K.K.K.K.K.K.K.K.  J.k.k.h.h.h.h.h.h.0.  ",
"  J.k.x.k.B.k.k.h.k.k.k.  K.K.K.K.K.K.  x.k.h.c.J.c.h.h.h.h.0.  ",
"  x.x.k.k.k.k.k.k.h.k.h.k.  K.K.K.K.  x.k.h.h.c.J.c.h.h.h.h.0.  ",
"  J.k.B.k.k.k.k.h.k.h.k.h.k.  K.K.  x.k.h.h.h.c.J.c.h.h.h.h.0.  ",
"  x.k.k.k.h.k.h.k.h.h.h.k.h.k.    x.k.h.c.c.c.c.J.c.c.c.c.h.0.  ",
"  x.k.k.h.k.h.k.h.h.h.k.h.h.h.k.B.k.h.c.J.J.J.J.J.J.J.J.J.h.0.  ",
"  B.k.h.k.h.k.h.h.h.h.h.h.h.h.h.h.h.c.J.c.c.c.c.J.c.c.c.c.h.0.  ",
"  h.k.k.h.k.h.h.h.h.h.h.h.h.h.h.h.c.J.c.h.h.h.c.J.c.h.h.h.h.0.  ",
"K.  0.k.k.h.k.h.k.h.h.h.h.h.h.h.c.J.c.h.c.c.h.c.J.c.h.h.h.0.  K.",
"K.K.  0.k.k.h.h.h.h.h.h.h.h.h.h.h.c.J.c.J.c.h.c.J.c.h.h.0.  K.K.",
"K.K.K.  0.k.h.h.h.h.h.h.h.h.h.c.c.h.c.J.c.h.h.h.h.h.h.0.  K.K.K.",
"K.K.K.K.  0.k.h.h.h.h.h.h.c.B.J.B.c.h.c.J.c.h.h.h.h.0.  K.K.K.K.",
"K.K.K.K.K.  0.h.h.h.h.h.h.B.c.h.c.J.c.h.c.J.h.h.h.0.  K.K.K.K.K.",
"K.K.K.K.K.K.  0.h.h.h.h.c.J.h.c.J.c.J.c.B.c.h.h.0.  K.K.K.K.K.K.",
"K.K.K.K.K.K.  B.h.h.h.h.c.B.c.J.c.h.c.J.c.h.h.h.k.  K.K.K.K.K.K.",
"K.K.K.K.K.  x.h.h.h.h.h.h.c.J.c.h.h.h.h.h.h.f.a.s.@.@ K.K.K.K.K.",
"K.K.K.K.  x.k.h.c.J.B.c.h.h.c.J.c.h.h.h.d.t.w.l.z.l.$.* K.K.K.K.",
"K.K.K.  x.k.h.c.J.c.c.B.h.h.h.c.J.h.h.u.e.7.*.+.o.+.%.6.> K.K.K.",
"K.K.  J.k.h.c.J.c.h.c.J.c.c.c.B.c.h.d.q.,.o.K ' ' P 3.9.>.; K.K.",
"K.  J.k.h.c.J.c.h.c.J.J.J.J.J.c.h.h.r.-.| ~ ' ' P =.D.v.L ;.& K.",
"  J.k.h.c.J.c.h.c.J.c.h.h.h.h.h.h.f.r  .' ' ' ' ~ n.F.D ' o.t O ",
"  J.h.c.J.c.h.h.h.c.J.c.h.h.h.h.h.p.#.' ' ' ' U <.S.5.K ' ^ S @ ",
"  x.h.J.c.h.c.J.c.h.c.J.h.h.h.h.h.y.A | ' J U / N.V.O.' ' ' y @ ",
"  J.h.J.h.h.J.c.J.c.h.h.h.h.j.    u.e F &.b.4.1.F.8.K / R R 3 O ",
"  x.h.B.c.h.h.h.c.J.h.j.h.j.  K.K.O 4 z f M.F.Z.m.T Y H Y l 2 O ",
"  x.h.c.J.c.h.c.J.c.j.h.j.  K.K.K.K.% i l p C.A.2.d l l E i 7   ",
"  x.h.h.c.B.J.J.c.j.h.j.  K.K.K.K.K.K.- k b C 2.s v V V h q 9   ",
"  B.h.h.h.h.j.h.j.h.j.  K.K.K.K.K.K.K.K.= n k M C N j u w 8 j.  ",
"  c.j.j.j.j.j.j.j.j.  K.K.K.K.K.K.K.K.K.K.% , 5 1 < : 6 9 j.j.  ",
"                    K.K.K.K.K.K.K.K.K.K.K.K.O O @   O           "
};
