/* XPM */
static char *gtkhash[] = {
/* columns rows colors chars-per-pixel */
"32 32 256 2 ",
"   c #061806D0091E",
".  c #0740038A03ED",
"X  c #1685083A09C1",
"o  c #0C4D16BF0C45",
"O  c #0AE60EC313AD",
"+  c #0ECE11C01C6E",
"@  c #0C10107E1753",
"#  c #29590D280D50",
"$  c #27C60D5E116A",
"%  c #233A146D13B2",
"&  c #1B1E229A1BB0",
"*  c #1BEC328F1B47",
"=  c #26A936D01C93",
"-  c #13E519D4271E",
";  c #17D81C1B3847",
":  c #31901EED2C7A",
">  c #165E2160262D",
",  c #1C4C221E3B2B",
"<  c #1A663314272E",
"1  c #35A9279D23F5",
"2  c #2BC338BA29C4",
"3  c #21E02B1D3C83",
"4  c #2B4E29C53B41",
"5  c #29502ACA2AD6",
"6  c #64051FC81C11",
"7  c #468424A029CB",
"8  c #56722F003229",
"9  c #78842A712CF5",
"0  c #67812D773503",
"q  c #6782317537B6",
"w  c #78F432EE3825",
"e  c #6905272C272A",
"r  c #1A79480D17C6",
"t  c #244541D61CB8",
"y  c #348648F02BE5",
"u  c #2D70557D2876",
"i  c #374D59542D80",
"p  c #335447553143",
"a  c #3CA666063442",
"s  c #2BCB7D482BCB",
"d  c #493F5EC1288A",
"f  c #676757992992",
"g  c #456274F035E1",
"h  c #599C720B3C70",
"j  c #5F517B6E3EC2",
"k  c #46846F4A31E4",
"l  c #26D42BB3495D",
"z  c #29732C6141F7",
"x  c #2B3337CF4874",
"c  c #3301385F50A0",
"v  c #339A3A026295",
"b  c #35E048555B75",
"n  c #3B3771BA5A5E",
"m  c #3D4146B47709",
"M  c #3B444A6C6542",
"N  c #458648244C79",
"B  c #4A1748CE48CB",
"V  c #4D8051D04D50",
"C  c #53C85171565A",
"Z  c #4A5A4BB7550D",
"A  c #60185BDA5D20",
"S  c #530262E550FD",
"D  c #4E187B3F43F8",
"F  c #448D5B796A48",
"G  c #42D84BFC7C77",
"H  c #4304515678F1",
"J  c #4B93662A75F5",
"K  c #7BA87A9E7B73",
"L  c #798278D874BD",
"P  c #67F66C2E6809",
"I  c #917631442F09",
"U  c #9108362D38BE",
"Y  c #AE6231A92DF9",
"T  c #B15136E03694",
"R  c #95A8535131C7",
"E  c #89E056F02B69",
"W  c #A71A55D33CE6",
"Q  c #87F43A484228",
"!  c #AE2C3B2840E4",
"~  c #9FD2492C503A",
"^  c #A50D43CE456E",
"/  c #B12554EB4CB6",
"(  c #A8D74B4A5133",
")  c #B34C4AD15618",
"_  c #BC4D42B743C0",
"`  c #9F7872F15F05",
"'  c #B8826C0A5812",
"]  c #B12A553E6194",
"[  c #BD1560917083",
"{  c #C2C0452D493E",
"}  c #C8BF4B995154",
"|  c #D8E6531C5C0A",
" . c #C8FF530A54D5",
".. c #D95A5AC864AF",
"X. c #C9F95B8C6BB4",
"o. c #E0C1580C62B3",
"O. c #D05A69926FEE",
"+. c #DACC6341698A",
"@. c #DAED6587750F",
"#. c #E5B2622C7137",
"$. c #EC736CBB7D07",
"%. c #F2DE6B257B1E",
"&. c #310F8B812CC6",
"*. c #38D6B8E03668",
"=. c #3A00A6C136BC",
"-. c #5E59A44511AF",
";. c #5D43B139052A",
":. c #6184AB570BE2",
">. c #63B9B2B20C62",
",. c #68D7BCC70B5F",
"<. c #654CBB8C0343",
"1. c #6610B55F1212",
"2. c #6AB4BC5C13CA",
"3. c #6467B4081CE2",
"4. c #660FAE9B15AD",
"5. c #5E479E0E2096",
"6. c #4645818F3743",
"7. c #565CA6C03846",
"8. c #46FDB0703AB1",
"9. c #726EB4443096",
"0. c #3E7EC67D3BA4",
"q. c #3F33C86F3B4A",
"w. c #6D6DC57C052A",
"e. c #6E63C95B015D",
"r. c #6C6CC3830ACB",
"t. c #7140CAA50604",
"y. c #7396CB900991",
"u. c #7C7CCECE1818",
"i. c #7777CCCC1111",
"p. c #4202C66E3DAC",
"a. c #420EC8B83E15",
"s. c #3EBABB6C40DC",
"d. c #55AE896047E7",
"f. c #5E50845F42A6",
"g. c #57089822460E",
"h. c #55D292E5472E",
"j. c #6C0E8D9E4679",
"k. c #615D8B6F500F",
"l. c #4CFCB14949C0",
"z. c #58E7B36247FD",
"x. c #624DAB514FB5",
"c. c #70FCA7CE4AF0",
"v. c #7EECB015471D",
"b. c #6664AB6856AC",
"n. c #6955B3FF559D",
"m. c #61C190026601",
"M. c #4FFAB5F96FD6",
"N. c #4D138ADB74EE",
"B. c #46CEC9E341C4",
"V. c #4975C83D467E",
"C. c #566FCF8949AA",
"Z. c #558BD35E4D73",
"A. c #5AC7CD6458A8",
"S. c #689BCB8B57A0",
"D. c #658AD78B57DA",
"F. c #6ECED5FD5833",
"G. c #6687CB8F649A",
"H. c #7ADCCA2B662C",
"J. c #79EFDD81631D",
"K. c #7790D6366429",
"L. c #7864D7FC762B",
"P. c #79E2E685661C",
"I. c #7DFFE40B69D8",
"U. c #79E8E7036391",
"Y. c #82AACCF4291A",
"T. c #87CDD1792D20",
"R. c #8843CA943A1F",
"E. c #8C8CD2273636",
"W. c #8F8FD3D33E3E",
"Q. c #902599BB55F7",
"!. c #A1F9863F5AD4",
"~. c #84ADB8204842",
"^. c #8990B5CE54F6",
"/. c #A93A92D46582",
"(. c #8DFAA4BE6FA4",
"). c #9830BB746E5E",
"_. c #99CDBCB57144",
"`. c #C4A086E5739D",
"'. c #8A85C8A74259",
"]. c #96D8D7C248F5",
"[. c #9AA1D6F85287",
"{. c #9756CD4F553E",
"}. c #8621E14E5D8C",
"|. c #9551CACE624A",
" X c #861ED32265A4",
".X c #AB4FDA416FEE",
"XX c #8E00E91D6927",
"oX c #495755248F5D",
"OX c #4C0058948BD3",
"+X c #4D8E585194EF",
"@X c #583373338BE9",
"#X c #580A709B9518",
"$X c #64A87B3C9C9A",
"%X c #5CBB6CC6B475",
"&X c #59EE6A21AA6F",
"*X c #648376E9B9D3",
"=X c #616B7CB8A832",
"-X c #6A637A49C903",
";X c #6A587BE4D128",
":X c #E91D6E8082A9",
">X c #F0837488875E",
",X c #5DAFAECB9D81",
"<X c #651AB3A99529",
"1X c #6E578F60B311",
"2X c #77C39BBFB550",
"3X c #7B02A73FB6A6",
"4X c #7193A2F3B2B9",
"5X c #6E9E862BD639",
"6X c #72FD83F4DB23",
"7X c #79E59798C9FB",
"8X c #79DDA7A0CD8F",
"9X c #7B228EEFEBB6",
"0X c #7CF3981BF6FC",
"qX c #7A8C9844EA41",
"wX c #97E798DA9582",
"eX c #9BC89AEC9C03",
"rX c #A59AA460A5D9",
"tX c #B7B5B816B73F",
"yX c #C10ABE40BA71",
"uX c #BF69E6A89060",
"iX c #C021D014AE0B",
"pX c #B997D2BBB78A",
"aX c #B654E9A3B478",
"sX c #A93CE5E2A7EF",
"dX c #C343E8689616",
"fX c #C551D37BB4C7",
"gX c #CCCCEA6AAAAA",
"hX c #D0D0EDEDADAD",
"jX c #82ECA633CA96",
"kX c #87FCB23FCE64",
"lX c #81BF9C38ECE3",
"zX c #821A997BFA3F",
"xX c #8416A687EC46",
"cX c #8B08B1CAF055",
"vX c #84DFA4D1F910",
"bX c #8970B3E9F685",
"nX c #C74BC56CC700",
"mX c #CC24CB8FCA99",
"MX c #CE3FD999C099",
"NX c #D8EDD768D82B",
"BX c #C501E9E4C405",
"VX c #D81AF2FAD79F",
"CX c #D8A6F0CECC70",
"ZX c #E1D1E271DF6E",
"AX c #E8E8F5F5DA5A",
"SX c #E3ACE05BE406",
"DX c #E79BE7EEE56C",
"FX c #ED6EED5FEBE1",
"GX c #F13EEFBBEF2C",
"HX c #EF47F1B9EDDE",
"JX c #E971F882E409",
"KX c #F395F673EE1B",
"LX c #EC95F0F8F21C",
"PX c #F55CF5F9F47F",
"IX c #F955FA75F7A9",
"UX c #FEA0FED5FE9A",
/* pixels */
"UXUXUXUXUXUXUXUXUXUXUXUXUXUXUXUXIXSXDXPXUXUXUXUXUXUXUXUXUXUXUXUX",
"UXUXUXUXUXUXUXUXUXUXUXUXUXUXFXyXL Z C eXDXUXUXUXUXUXUXUXUXUXUXUX",
"UXUXUXUXUXUXUXUXUXUXUXPXNXwXC z v +XoXl N eXSXUXUXUXUXUXUXUXUXUX",
"UXUXUXUXUXUXUXUXUXPXnXL c x oX-X0XzXzX6X+Xl N eXDXUXUXUXUXUXUXUX",
"UXUXUXUXUXUXUXFXtXP 4 v +X-X-X*X%X&X%X;X9X6X+Xl N eXDXUXUXUXUXUX",
"UXUXUXIXUXDXrXC l v *X&Xv l , , , ; ; ; v %X0X;XOXx m.pXGXUXUXUX",
"UXUXIXDXwXN l G ;X0X-X- + G &X-X6X6X-XG @ - %X0XqXM.*.s.P nXIXIX",
"UXUXmXN 3 OX6X0X0XlXm   v lXvXzXlXzXzXzXoX- m 9X,Xs.a.l.b 4 wXGX",
"UXIXK X , &X9XvXvXlXH   OXcXvXxX#Xm *XqX0X5X5X4Xl.q.s.N.M + > tX",
"UXLXA 0 Q : b *XlXbX=X@ c 7XcXbX@XO O v 7X0X8XM.0.0.s < u D 2 yX",
"UXPXC Q +./ 0 : M 1XkX#X3 3 J 1X$X-   3 8XbXM.B.q.s.g x.J.x.N NX",
"UXGXB Q ..o...( 0 : F 2X3XJ 4 3 > > M 7X8X<X0.0.B.D.J.I.P.d.V DX",
"UXGXB Q | | ......~ 8 : F jXkX3X1X8XjX$Xn *.0.B.D.I.P.P.P.g P GX",
"UXGXV w  .{ Q ) ..#.@.~ 7 & F 3XkX@Xx t =.q.0.C.P.n.h.g.J.i $XUX",
"UXHXB 9 } ^ # $ 0 ) @.%.+.C # & 2 u j.z.B.q.B.P.b.* t S.H.y rXIX",
"UXGXC 9 { T # . . % 0 ] $.>X) # i .X}.q.q.q.K.H.t & x.}.n.y nXIX",
"UXPXC e ! _ ! e . .   X q @.:X7 h XXa.p.q.F.}.i o d.I.I.b.2 DXUX",
"UXIXC 6 ! T ! ! $ . .   % X.>X7 g D.p.p.S.}.g o a  XI.I.h.N FXUX",
"UXZXS 6 T T W T $ . q Q w @.$.8 &.p.p.=.g.k.j Q.|.|. XH.a P PXUX",
"VXK.8.f Y T T Y X X ^ ..@.:X$.h *.p.*.r h {.Y.u.i.u.Y.{.j K UXUX",
"aX0.B.8.E Y Y I X X ( ..#.$.`.C.p.p.&.d E.i.e.y.t.e.].[.E.(.PXUX",
"AXL.0.0.7.E Y I X # ) o.#.O.c.a.q.C.g Y.y.t.y.y.e.T.KXuXw.R.fXUX",
"UXVXG.0.a.7.R I # # ) ..O.Q.B.q.a.J.5.y.y.y.y.y.t.dXIXe.t.i.|.UX",
"UXPXBXA.p.p.7.R U 9 { | !.z.q.*.S.J.-.t.y.t.t.e.E.KX].t.y.y.'.PX",
"UXUXUXBXG.a.0.7./ { } ' 7.0.8.&.n.K.-.y.t.t.t.y.hXCXi.y.y.y.9.FX",
"UXUXUXUXBXA.0.B.7./ } c.q.q.7.= b.J.3.<.Y.dX].W.IX].w.w.w.t.~.KX",
"UXUXUXUXIXBXA.0.B.g.j.B.q.z.` 1 n.U.3.,.w.gXPXAXhXw.w.w.w.,.^.IX",
"UXUXUXUXUXUXaXZ.q.0.*.q.q./.O.1 n.P.z.;.r.;.AXKXW.<.,.,.r.>.iXIX",
"UXUXUXUXUXUXIXaXZ.0.0.0.6.] [ 1 n.g.u k 1.2.2.R.<.,.2.2.>.).PXUX",
"UXUXUXUXUXUXUXIXsXV.q.G.P 7 8 % u 2 ` nX_.4.1.>.3.1.>.:.).HXUXUX",
"UXUXUXUXUXUXUXUXUXBXsXVXIXrXN & P mXIXUXPXfX^.~.v.v.^.fXPXUXUXUX",
"UXUXUXUXUXUXUXUXUXUXUXUXUXUXNXnXLXIXUXIXUXUXIXKXFXKXIXUXUXUXUXUX"
};
