/* XPM */
static char *gunroar[] = {
/* columns rows colors chars-per-pixel */
"32 32 223 2 ",
"   c #00C800C800E3",
".  c #032304450207",
"X  c #037B03BF0BC7",
"o  c #0BB00BB00C8C",
"O  c #058605861192",
"+  c #0A8109B31AD2",
"@  c #0B510C3919D7",
"#  c #0A1E08CE1BCD",
"$  c #135313531353",
"%  c #141414141B1B",
"&  c #1B7B1B7B1B7B",
"*  c #1D1D1FC51A1A",
"=  c #20FE30CF13AE",
"-  c #0B250BD925BF",
";  c #0DE70EE82D7A",
":  c #13690D0D2CD7",
">  c #0F0F10102F2F",
",  c #15D90EE633B3",
"<  c #15EF0EF533E7",
"1  c #0E0E10103232",
"2  c #119711493275",
"3  c #0FE613BF3006",
"4  c #138214A932B7",
"5  c #122911D83417",
"6  c #123D13693B10",
"7  c #1E892C30263F",
"8  c #232323232323",
"9  c #2AE52AE52AE5",
"0  c #2506320D37B1",
"q  c #2BCE32273315",
"w  c #336C336C336C",
"e  c #3A7C3DE33654",
"r  c #3BA93BA93BA9",
"t  c #311C541A0DFF",
"y  c #34465416181A",
"u  c #33CA567919E5",
"i  c #3A7D64E31493",
"p  c #3DA866DD1C68",
"a  c #3C0F62283079",
"s  c #444A733D132D",
"d  c #443474E41969",
"f  c #4633761F1A73",
"g  c #4B6D7F4E1A0D",
"h  c #45AB5D262787",
"j  c #4A2D5E2930B1",
"k  c #46FD799F210F",
"l  c #50447EAF20ED",
"z  c #15F816A04563",
"x  c #1A1A16964646",
"c  c #161618184747",
"v  c #17A21BAD43A4",
"b  c #16581669499C",
"n  c #181817174A4A",
"m  c #17641D464B42",
"M  c #1AE619544B9C",
"N  c #1CEB1D5C4A7B",
"B  c #1D551E3949F0",
"V  c #1D9B1EAA49FE",
"C  c #1D631DCD4BBC",
"Z  c #1BC51A264E0F",
"A  c #1CDB1CBD4BF9",
"S  c #1DCC1E2E4C4D",
"D  c #17171B1B5151",
"F  c #1A601AD55399",
"G  c #1D7A1E075BD0",
"H  c #1D991FA046FF",
"J  c #1E1720185E48",
"K  c #2B3A3C2A4691",
"L  c #1FA9239F5B98",
"P  c #1E2A1E6D6300",
"I  c #21311D3D6434",
"U  c #1DDA20A76580",
"Y  c #228922F06633",
"T  c #211A24F864F8",
"R  c #216E24BE6868",
"E  c #232325257373",
"W  c #253C27107E44",
"Q  c #292926267F7F",
"!  c #262628287D7D",
"~  c #436843684368",
"^  c #4A854D0F4753",
"/  c #4B4B4B4B4B4B",
"(  c #53E253E253E2",
")  c gray36",
"_  c #66EB72BE5947",
"`  c #6413660761CF",
"'  c #646464646464",
"]  c #6BEC6BEC6BEC",
"[  c #747474747474",
"{  c #7BFC7BFC7BFC",
"}  c #498180F9079C",
"|  c #56A4941C0B0C",
" . c #545C91750DF1",
".. c #4C7981ED115C",
"X. c #51028A3E115C",
"o. c #5C3E9733146F",
"O. c #5E09A91D075A",
"+. c #5B98A4210816",
"@. c #5E6BA9860A7F",
"#. c #5B15B70E0034",
"$. c #6363B7B70404",
"%. c #6315BA0E0134",
"&. c #6565BFBF0000",
"*. c #6868BBBB0707",
"=. c #6262B1B10909",
"-. c #6363B1B10F0F",
";. c #6565B4B40D0D",
":. c #6868BCBC0808",
">. c #6868BCBC0909",
",. c #6868BDBD0B0B",
"<. c #6A15BE0E0A34",
"1. c #6868BBBB0E0E",
"2. c #6868BABA0F0F",
"3. c #607FA90710E9",
"4. c #6565B2B21111",
"5. c #6565B5B51010",
"6. c #6767B7B71515",
"7. c #6911BC101034",
"8. c #6969BCBC1212",
"9. c #6A6AB9B91717",
"0. c #6C11BD101434",
"q. c #629293352858",
"w. c #6A6AC6C60000",
"e. c #6D6DC4C40303",
"r. c #6B6BC1C10707",
"t. c #6C6CC1C10606",
"y. c #6F6FC7C70606",
"u. c #6F6FC7C70707",
"i. c #6B6BC8C80000",
"p. c #6D6DC8C80000",
"a. c #6F1BC919024E",
"s. c #6F6FC9C90202",
"d. c #6B6BC3C30909",
"f. c #6E6EC2C20B0B",
"g. c #6E6EC6C60808",
"h. c #6969C0C00F0F",
"j. c #7056CA020420",
"k. c #7070CACA0404",
"l. c #7128CA240738",
"z. c #7233CA320734",
"x. c #7171CACA0707",
"c. c #7272CBCB0707",
"v. c #7203CA02080C",
"b. c #7272CACA0808",
"n. c #7272CBCB0808",
"m. c #7373CBCB0808",
"M. c #731BCB1A091C",
"N. c #7272CBCB0909",
"B. c #7373CBCB0909",
"V. c #7373CACA0B0B",
"C. c #7575CBCB0B0B",
"Z. c #7575CBCB0E0E",
"A. c #7676CBCB0F0F",
"S. c #7575CCCC0C0C",
"D. c #7575CCCC0D0D",
"F. c #7777CCCC1111",
"G. c #7C7CCECE1818",
"H. c #785E90685A2E",
"J. c #8383CFCF2525",
"K. c #8383CFCF2929",
"L. c #836AC9B62F73",
"P. c #8787D0D02C2C",
"I. c #8812D20B2E2D",
"U. c #8469C7963144",
"Y. c #8787C8C83F3F",
"T. c #8B8BD0D03535",
"R. c #8C8CD0D03636",
"E. c #8D8DD4D43737",
"W. c #8F8FD3D33E3E",
"Q. c #80B494AF669D",
"!. c #8A8ACBCB4141",
"~. c #92F1CA614E2A",
"^. c #9200D5FF4000",
"/. c #9797D6D64B4B",
"(. c #9A9AD9D94F4F",
"). c #9A1CCF9857FC",
"_. c #9A9AD7D75151",
"`. c #9E9EDBDB5555",
"'. c #2BC52E618181",
"]. c #2E2E2F2F9696",
"[. c #81DB81DB81DB",
"{. c #84F7862B83D5",
"}. c gray52",
"|. c gray55",
" X c #93BE93BE93BE",
".X c #9D369D369D36",
"XX c #A2A2A2A2A2A2",
"oX c gray67",
"OX c #B54EB54EB54E",
"+X c #BF96BF96BF96",
"@X c #B0D2D3308278",
"#X c #B419D3048B9B",
"$X c #B807D06A974D",
"%X c #B807D06A9895",
"&X c #BF15E60D9033",
"*X c #C1C1E7E79494",
"=X c #C4C4E8E89797",
"-X c #CACAE9E9A7A7",
";X c #CECEEAEAADAD",
":X c #D0D0EDEDADAD",
">X c #C242C242C242",
",X c #CC65CC65CC65",
"<X c gray83",
"1X c #DABBDFE7D342",
"2X c #DABBE031D38C",
"3X c #DEFEDEFEDEFE",
"4X c #DCDCF1F1C3C3",
"5X c #E5E5F3F3D5D5",
"6X c #EBEBF7F7DEDE",
"7X c #E363E363E363",
"8X c #EC41EC41EC41",
"9X c #EF10F810E532",
"0X c #F3F3FAFAEBEB",
"qX c #F5F5FAFAEDED",
"wX c #F38EF474F25B",
"eX c #F534F534F534",
"rX c #F91AF9C9F81C",
"tX c #F9F9FCFCF4F4",
"yX c #F9F9FCFCF6F6",
"uX c #F8B5F8B5F8B5",
"iX c #FBFBFDFDF8F8",
"pX c #FC19FCC2FB30",
"aX c #FFBAFFBAFFBA",
/* pixels */
"z z ; ; ; ; b b b b I I I I I '.Q Q #   & aX      6 Y '.'.'.'.'.",
"z z ; ; ; ; b b b b I I I I P Q Q Q     |.aXaX X  5 Z R Y R R R ",
"z z ; ; ; ; b b b b I I I P I '.Q #   $ aXaXaX9   - < F D Z F F ",
"z z ; ; ; ; b b b b b z b b b P P     |.aXaXoX    X   X X - 6 D ",
"G G c c b z P P G P I P P I P P X   & aXaXaXw     $ & o     X 6 ",
"G G c c b z P P I P G I G G G D o & .XaXaXOXo { +X,X<X,XXX)   X ",
"G G z c c c G I I P G I I F n $ & w aXaXaX) OX8XaXaX8XaXeX3X&   ",
": < > 1 : ; n b b n b b 6 6 $ 9 r OXaXaX+XoXaXaXoXw 9 r  X8X8 X ",
"1 > > > 1 > b b b b z 6 $ & w ~ ( aXaXaX[ eXaX<X%       $ ~ $ o ",
"> > c c c c P U P D c $ 8 w / ( ,XaXaX,X' aXaX[           X   X ",
"> 1 c c c c P G F o & 9 ~ ( ) [ aXaXaX( }.aXaX(   |.3X3X3X3X9 X ",
"> 1 c c b b F z $ 8 w / ( ' { 3XaXaX<X  { aXaX'   .XaXaXaXeXw o ",
"- z Z z 6 ; o & 9 r / ) [ {  XaXaXaX)   / aXaXXX  & 9 }.aXeXw o ",
"          o & w ~ ( ' [ }..XeXaXaX3X    X 7XaXeX]     ] aXeXw   ",
"w w w r / ) ] }. XXXOX>X<X7XaXaXaX]       / 8XaXeX7X+X<XaXaXw   ",
"aXaXaXaXaXaXaXaXaXaXaXaXaXaXaXaX8X        X r +XaXaXaXaX8XoX$   ",
"aXaXaXaXaXaXaXaXaXaXaXaXaXaXaX  aXaXaXaXaXaXaXaXaXaXaXaXaXaXaX  ",
"+X+X+X+X+X+X+X+X+X+X+X+X+X+XaXaXaXaXaXaXaXaXpXuXwXuXpXaXaXaXaX  ",
"                            ,XaXaXaXaXaXuX1X$X#X@X#X$X1XuXeXeX  ",
"O # - - - - - - - - # #   / aXaXaXoX.X{.Q.).P.G.D.G.J.~.j .     ",
"b n U U U U U U U U z X   >XaXaXaX X[.H.R.D.j.m.m.p.^.`.T.h     ",
"P U ! ! ! ! ! ! ! ! -   r aXaXaX|.}._ L.C.l.m.m.s.I.qX&Xi.U.q Z ",
"P U ! ! ! ! ! ! ! E X   OXaXaXaX[ ` q.Z.l.m.l.m.j.=XyXw.m.D.l S ",
"W ! ].].].].! ! ! c   w aXaXaX] ' ^ o.m.C.l.m.s.E.0X(.s.m.l.X.V ",
"P P W W W W P P P X   oXaXaX7X) ~ e | c.m.j.s.m.:X4XF.m.m.m. .B ",
"P P '.W W W U U 1   9 aXaXaX) ~ 9 * } r.K.*X/.W.pX_.y.y.y.g...V ",
"P P '.W '.'.U U X   .XaXaX<Xw 8 & J k :.&.;XuX6X-Xf.r.r.d.:.s V ",
"P P W W E '.U 1 X 8 aXaXaX( 8 o J J K @.:.#.5X9X!.%.:.,.7.O.= , ",
"P P '.'.'.'.P O    XaXaX+X& o D J U T a ;.7.0.!.$.1.8.8.=.t + : ",
"P P P U P P - X $ aXaXaXr   $ Z S Z Z m u @.4.5.9.6.-.+.y @ + , ",
"P P P P P P O   |.aXaXoX    J Z Z Z D Z 5 7 i d g d p 0 M 5 , x ",
"P P U P P P O X eXaXaXw   # T D Z Z D Z 5 5 4 3 v N S n Z 5 5 Z "
};
