/* XPM */
static char *idle[] = {
/* columns rows colors chars-per-pixel */
"32 32 220 2 ",
"   c #7C7C7C7C3737",
".  c #2E2E53536E6E",
"X  c #3A3A59596767",
"o  c #27274F4F7171",
"O  c #28284F4F7272",
"+  c #2A2A51517474",
"@  c #2D2D55557979",
"#  c #303055557777",
"$  c #313157577B7B",
"%  c #35355B5B7E7E",
"&  c #494960605C5C",
"*  c #525265655555",
"=  c #4D0D8A8A0444",
"-  c #4F4F8E8E0808",
";  c #50508E8E0606",
":  c #525294940707",
">  c #58589E9E0505",
",  c #575798980D0D",
"<  c #585898980F0F",
"1  c #5DDEA7A70687",
"2  c #5F5FABAB0707",
"3  c #5B5BB7B70000",
"4  c #6161ACAC0606",
"5  c #60D2AB6208E9",
"6  c #63E4B5340505",
"7  c #6464BD3D0081",
"8  c #6868BBBB0707",
"9  c #63B9B2B20C62",
"0  c #68BEBCBC0B36",
"q  c #7AD8B4810B0C",
"w  c #6262ACAC1010",
"e  c #6610B55F1212",
"r  c #6A6ABC3C1353",
"t  c #6B6BB2B21818",
"y  c #6D6DC57C052A",
"u  c #6E6EC9730157",
"i  c #6C6CC3830ACB",
"p  c #717DCACB05F0",
"a  c #739CCB91098B",
"s  c #7777CCCC1111",
"d  c #7C7CCECE1818",
"f  c #7C7CA6A64646",
"g  c #974C90430250",
"h  c #BBBB99990101",
"j  c #B7B79A9A0D0D",
"k  c #ADAD94941414",
"l  c #A5A592921919",
"z  c #B5B59A9A1111",
"x  c #81FAB3D40A2C",
"c  c #87DCBD5C0A7A",
"v  c #8539B0FA1133",
"b  c #95BCBF5B18DD",
"n  c #9C67A4DE2777",
"m  c #BC1DAC14305F",
"M  c #C1F69F1A013F",
"N  c #C5C5A2A20202",
"B  c #C8C8A5A50303",
"V  c #C7C7A6A60B0B",
"C  c #C9C9A6A60C0C",
"Z  c #CACAA9A90B0B",
"A  c #C9C9A9A91414",
"S  c #C6C6A7A71818",
"D  c #DADABDBD1B1B",
"F  c #CACAAFAF2E2E",
"G  c #D3D3B6B62424",
"H  c #8383CFCF2525",
"J  c #8595CE9F2BF6",
"K  c #8787D0D02C2C",
"L  c #8888D2D22E2E",
"P  c #8787CCCC3131",
"I  c #8787C8C83F3F",
"U  c #8C8CD2273636",
"Y  c #8F8FD3D33E3E",
"T  c #E16ECFEA1533",
"R  c #E8D9D5C615F8",
"E  c #E9EBD79419C8",
"W  c #F3F3DCDC1717",
"Q  c #F3F3DDDD1B1B",
"!  c #D479CA9A3740",
"~  c #E6E6CECE2B2B",
"^  c #F01ADCAA229A",
"/  c #EE23DAF62A52",
"(  c #F480DF282449",
")  c #F240DE522A93",
"_  c #EFEFDADA3232",
"`  c #E8E8D1D13939",
"'  c #F2F2DDDD3333",
"]  c #F6F6E1E12525",
"[  c #F6F6E1E12B2B",
"{  c #F8F8E3E32F2F",
"}  c #F6F6E2E23333",
"|  c #F8F8E4E43232",
" . c #F5F5E1E13D3D",
".. c #F8F8E5E53D3D",
"X. c #8585A9A95757",
"o. c #BDBDB4B47272",
"O. c #C1C1B8B87373",
"+. c #8A8ACBCB4141",
"@. c #9922CF754DE3",
"#. c #92C8D6A54003",
"$. c #9797D6D64B4B",
"%. c #9A9AD9D94F4F",
"&. c #9C86D5955420",
"*. c #9E9EDBDB5555",
"=. c #B4DDC5A54A9D",
"-. c #AE6BCC4853D9",
";. c #B481C5A5526A",
":. c #B907C5615555",
">. c #B1C2CB0F521E",
",. c #C746C5C841CD",
"<. c #E9BCDB134F95",
"1. c #F3F3DFDF4A4A",
"2. c #E0E0C9C95555",
"3. c #F6F6E3E34343",
"4. c #F9F9E6E64444",
"5. c #F8F8E7E74D4D",
"6. c #F8F8E7E75454",
"7. c #F9F9E8E85555",
"8. c #F9F9E9E95B5B",
"9. c #D9D9C7C77171",
"0. c #FAFAEAEA6363",
"q. c #FAFAEBEB6B6B",
"w. c #FBFBEDED7474",
"e. c #FBFBEEEE7B7B",
"r. c #36365F5F8585",
"t. c #38385D5D8181",
"y. c #3C3C62628383",
"u. c #3B3B62628B8B",
"i. c #35356666A5A5",
"p. c #37376868A7A7",
"a. c #3C3C6D6DACAC",
"s. c #3F3F7070AFAF",
"d. c #4E4E6F6F8F8F",
"f. c #44446A6A9393",
"g. c #505073739696",
"h. c #4D4D7474A4A4",
"j. c #45457373AFAF",
"k. c #4E4E7777A9A9",
"l. c #52527979A6A6",
"z. c #42427373B2B2",
"x. c #4B4B7979B6B6",
"c. c #4E4E7C7CB8B8",
"v. c #52527D7DB4B4",
"b. c #51517E7EBABA",
"n. c #57578181B6B6",
"m. c #5C5C8383B6B6",
"M. c #55558282BCBC",
"N. c #5C5C8686BDBD",
"B. c #67678787A8A8",
"V. c #6E6E8B8BAAAA",
"C. c #61618787B9B9",
"Z. c #64648B8BBCBC",
"A. c #6A6A8E8EBCBC",
"S. c #75759595B8B8",
"D. c #5D5D8989C1C1",
"F. c #64648D8DC3C3",
"G. c #67679191C7C7",
"H. c #6A6A9292C6C6",
"J. c #6D6D9595CACA",
"K. c #73739696C3C3",
"L. c #75759898C5C5",
"P. c #7C7C9D9DC6C6",
"I. c #73739A9ACCCC",
"U. c #7A7A9F9FCFCF",
"Y. c #7E7EA1A1CECE",
"T. c #7B7BA1A1D1D1",
"R. c #BFBFE6E69090",
"E. c #ECECDFDF9898",
"W. c #C1C1E7E79494",
"Q. c #C4C4E8E89797",
"!. c #F2F2E3E38484",
"~. c #FBFBEFEF8484",
"^. c #F3F3E6E68E8E",
"/. c #FCFCF0F08787",
"(. c #F5F5E9E99292",
"). c #FAFAEEEE9292",
"_. c #F9F9EEEE9B9B",
"`. c #FCFCF1F19393",
"'. c #FCFCF2F29A9A",
"]. c #CACAE9E9A7A7",
"[. c #CECEEAEAADAD",
"{. c #D0D0EDEDADAD",
"}. c #F6F6EBEBA5A5",
"|. c #FBFBF2F2A4A4",
" X c #FCFCF2F2AAAA",
".X c #FCFCF4F4B2B2",
"XX c #FEFEF7F7BEBE",
"oX c #80809F9FC2C2",
"OX c #8484A4A4CCCC",
"+X c #8A8AA7A7CBCB",
"@X c #8C8CA9A9CECE",
"#X c #9090ABABCBCB",
"$X c #8787AAAAD6D6",
"%X c #8B8BABABD5D5",
"&X c #8989ACACD8D8",
"*X c #9292AEAED3D3",
"=X c #9595B1B1D4D4",
"-X c #9A9AB4B4D4D4",
";X c #9393B1B1D8D8",
":X c #9A9AB7B7DBDB",
">X c #9E9EB9B9DCDC",
",X c #A3A3BBBBDBDB",
"<X c #A2A2BDBDE0E0",
"1X c #A5A5C0C0DFDF",
"2X c #ABABC2C2DFDF",
"3X c #B6B6C9C9E1E1",
"4X c #DCDCF1F1C3C3",
"5X c #FEFEF9F9CBCB",
"6X c #E5E5F3F3D5D5",
"7X c #EBEBF7F7DEDE",
"8X c #FDFDF9F9D1D1",
"9X c #FEFEFBFBDCDC",
"0X c #C4C4D5D5EBEB",
"qX c #CBCBDADAEEEE",
"wX c #D1D1DEDEF0F0",
"eX c #EFEFF8F8E5E5",
"rX c #F4F4FAFAECEC",
"tX c #F9F9FCFCF5F5",
"yX c #FDFDFEFEFB7B",
"uX c None",
/* pixels */
"uXuXuXuXuXuXuXuXuXuXuXuXuXuXuXuXuXuXuXuXuXuXuXuXuXuXuXuXuXuXuXuX",
"uXuXuXuXuXuXuXuXuXuXuXuXuX+ + + + + + uXuXuXuXuXuXuXuXuXuXuXuXuX",
"uXuXuXuXuXuXuXuXuXuXuX% V.#X,X1X>X%XoXg.o uXuXuXuXuXuXuXuXuXuXuX",
"uXuXuXuXuXuXuXuXuXuXd.3XwX<X&X%X$X&X&X:X@Xf.+ uXuXuXuXuXuXuXuXuX",
"uXuXuXuXuXuXuXuXuX+ -XqXyX0XT.T.U.I.J.J.T.@X+ uXuXuXuXuXuXuXuXuX",
"uXuXuXuXuXuXuXuXuX+ 2X;XqX%XI.I.J.J.J.G.F.$X# uXuXuXuXuXuXuXuXuX",
"uXuXuXuXuXuXuXuXuX+ ,XI.I.I.J.J.H.F.F.D.D.Y.t.uXuXuXuXuXuXuXuXuX",
"uXuXuXuXuXuXuXuXuX+ ,X,X>X:X;X*X%XJ.D.D.D.J.% uXuXuXuXuXuXuXuXuX",
"uXuXuXuXuX+ + O O o + @ @ @ @ $ P.F.M.b.b.F.t.k V N B uXuXuXuXuX",
"uXuXuXuX@ S.=X>X-X*X@XOXOXP.P.K.Y.M.c.x.x.F.t.O.9X9X}.A uXuXuXuX",
"uXuXuXo B.=XI.F.F.D.N.M.M.c.c.c.c.z.z.z.z.F.@ o.8XXX5X2.uXuXuXuX",
"uXuXuX+ +XL.D.b.x.x.z.z.z.z.z.z.s.j.z.a.v.v.O 9.XX X X!.Z uXuXuX",
"uXuXuX+ =XN.x.z.s.s.z.z.z.a.j.a.a.a.a.z.m.u.& E. X`.`._.B uXuXuX",
"uXuXuXt.OXz.z.z.s.s.x.m.Z.Z.Z.Z.C.Z.C.n.u.. F  X/.e.w.).V uXuXuX",
"uXuXuXy.K.z.s.a.s.v.H.h.u.$ @ @ @ + + o * S (./.w.0.8.w.C uXuXuX",
"uXuXuX+ L.a.a.a.z.Z.$ X   z z z j j j V 2.).~.0.8.5.| 7.V uXuXuX",
"uXuXuX+ A.j.p.p.n.f.* G ^..X.X X|.|.'.'.~.q.5...{ ] ] 1.N uXuXuX",
"uXuXuXO l.v.p.p.m.% l )..X'.`.~.e.0.4.} [ ] ( ) / / ) ` B uXuXuX",
"uXuXuXuXr.C.p.i.m.@ j '.~.e.q.0...| [ [ / ! =.>.>.>.;.m uXuXuXuX",
"uXuXuXuXO k.C.m.m.+ j '.q.0.4.0.8.7.7.<.:.&.K d a d H @.X.uXuXuX",
"uXuXuXuXuXO + @ @ + j ~.6.| [ 8.B B M n U a p p p u #.*.U f uXuX",
"uXuXuXuXuXuXuXuXuXuXN w.[ ] [ 7.1.3.,.P a a a a u L rXR.u P uXuX",
"uXuXuXuXuXuXuXuXuXuXN 8.] ] Q ) ( ^ b a a a p p p Q.tXy a a t uX",
"uXuXuXuXuXuXuXuXuXuXM 5.{ ] Q Q Q E c a a a a u U rX%.u a a 6 uX",
"uXuXuXuXuXuXuXuXuXuXN  .} Q W Q W T q a a u u a {.4Xs a a a 4 uX",
"uXuXuXuXuXuXuXuXuXuXh D 3.[ ( Q Q R x y J Q.$.Y yX%.y a y y 1 uX",
"uXuXuXuXuXuXuXuXuXuXuXh V ~ _ } ' / v 8 7 [.tX7X].i 8 y i 8 > uX",
"uXuXuXuXuXuXuXuXuXuXuXuXuXh M N N N g 2 0 3 6XeX+.7 8 8 i 2 uXuX",
"uXuXuXuXuXuXuXuXuXuXuXuXuXuXuXuXuXuXuX- 9 r r +.7 r r r 9 = uXuX",
"uXuXuXuXuXuXuXuXuXuXuXuXuXuXuXuXuXuXuXuX= w e 9 r e 9 1 = uXuXuX",
"uXuXuXuXuXuXuXuXuXuXuXuXuXuXuXuXuXuXuXuXuXuX- < < : = uXuXuXuXuX",
"uXuXuXuXuXuXuXuXuXuXuXuXuXuXuXuXuXuXuXuXuXuXuXuXuXuXuXuXuXuXuXuX"
};
