/* XPM */
static char *imview[] = {
/* columns rows colors chars-per-pixel */
"32 32 256 2 ",
"   c #01DE01E50207",
".  c #080805050404",
"X  c #0BA00ACF09DA",
"o  c #0A0A0B0B0404",
"O  c #10100D0D0B0B",
"+  c #121214140D0D",
"@  c #181811110A0A",
"#  c #141419190C0C",
"$  c #11110F0F1515",
"%  c #131313131313",
"&  c #1A151C16110F",
"*  c #181813131818",
"=  c #1B1B19191919",
"-  c #20201B1B0D0D",
";  c #2E2E11111010",
":  c #20201E1E1111",
">  c #202018181818",
",  c #363615151B1B",
"<  c #196F24241369",
"1  c #1B1B29291313",
"2  c #292926261717",
"3  c #24242A2A1414",
"4  c #29D4297F12E8",
"5  c #31312C2C1414",
"6  c #262637371616",
"7  c #2B2B36361616",
"8  c #2D2D39391919",
"9  c #373738381616",
"0  c #31E43D6C1A8A",
"q  c #282828280B0B",
"w  c #18181C1C2222",
"e  c #25251B1B2020",
"r  c #1A1A24242B2B",
"t  c #34342C2C2A2A",
"y  c #393937373737",
"u  c gray20",
"i  c #2CFA2A5D299A",
"p  c #434334341717",
"a  c #5D5D32321717",
"s  c #4A4A15152929",
"d  c #494937372828",
"f  c #444435352222",
"g  c #4D4D30303535",
"h  c #6D6D2C2C3636",
"j  c #2E2E46461818",
"k  c #333342421B1B",
"l  c #383848481A1A",
"z  c #3B3B57571818",
"x  c #3E507059053B",
"c  c #38387C7C1515",
"v  c #35354D4D2020",
"b  c #3A3A59592121",
"n  c #337A564C291F",
"m  c #545448480F0F",
"M  c #46464A4A1A1A",
"N  c #56564C4C1A1A",
"B  c #474755551A1A",
"V  c #575757571B1B",
"C  c #616150501818",
"Z  c #7B4E43071C68",
"A  c #474774741616",
"S  c #4F4F70701818",
"D  c #565665651515",
"F  c #545445452E2E",
"G  c #4864572D2501",
"H  c #59594A4A3C3C",
"J  c #6A6A56563A3A",
"K  c #777759593636",
"L  c #565667672323",
"P  c #4B4B72722828",
"I  c #565674742727",
"U  c #57A575AE37E6",
"Y  c #464665652525",
"T  c #67677C7C2B2B",
"R  c #138B14A3711A",
"E  c #57573C3C4444",
"W  c #585837375454",
"Q  c #626237374545",
"!  c #6A6A34346868",
"~  c #3CD860F757DF",
"^  c #46BD473246B6",
"/  c #58D94B4B5555",
"(  c #55AD52E05273",
")  c #5A855AE55A0E",
"_  c #575746464848",
"`  c #767645455252",
"'  c #64645D5D5C5C",
"]  c #777754545959",
"[  c #6C6C4F4F4ACB",
"{  c #4D207F5B4230",
"}  c #516A73985011",
"|  c #63027B655D48",
" . c #5615573F78DF",
".. c #4DA8513368C3",
"X. c #6B306B306B30",
"o. c #797979797A7A",
"O. c #73C174227375",
"+. c #73C969136A6A",
"@. c #5FE260B07142",
"#. c #858530301010",
"$. c #959532322626",
"%. c #A39745C71D63",
"&. c #828257572E2E",
"*. c #8C8C68683B3B",
"=. c #CCCC4D4D1D1D",
"-. c #8C8C3A3A5454",
";. c #B9B935355858",
":. c #8B8B57575858",
">. c #A7A74C4C5D5D",
",. c #84846D6D4848",
"<. c #949475754949",
"1. c #8C8C74745555",
"2. c #96087A095503",
"3. c #A7A77B7B4949",
"4. c #ADAD7E7E4A4A",
"5. c #868652526565",
"6. c #A7A748487474",
"7. c #8A8A63636666",
"8. c #98B169AB648E",
"9. c #949475757878",
"0. c #8E3876206AC0",
"q. c #A9A96F6F6C6C",
"w. c #B9B96C6C7878",
"e. c #CCCC4D4D5D5D",
"r. c #C0C054546F6F",
"t. c #C3C378787E7E",
"y. c #65818EF61289",
"u. c #5DA5A74609C5",
"i. c #5B5AB759005B",
"p. c #68C9BCBD0B58",
"a. c #648CB7AB0713",
"s. c #6610B55F1212",
"d. c #6A6FBC0F1391",
"f. c #61A9AB720E4D",
"g. c #5E4D89782C71",
"h. c #52A887A529E5",
"j. c #66808FA9322B",
"k. c #66788154261A",
"l. c #7C93BA0C30FC",
"z. c #6D6DC57C052A",
"x. c #6E66C95B0167",
"c. c #6C6CC3830ACB",
"v. c #7125CAB505C3",
"b. c #7371CB6F0964",
"n. c #7AD0CE2315C0",
"m. c #702B8F1747AE",
"M. c #66FF82F54BA1",
"N. c #7524B169493A",
"B. c #8383CFCF2727",
"V. c #8800D19D2D62",
"C. c #8655CA0737D2",
"Z. c #8C8CD2273636",
"A. c #8F8FD3D33E3E",
"S. c #B8B883834C4C",
"D. c #ABAB83835858",
"F. c #B8B887875555",
"G. c #84A9BC21428F",
"H. c #9D9D82826262",
"J. c #828281817B7B",
"K. c #B3B38E8E6B6B",
"L. c #BCBC92926C6C",
"P. c #BABA94947474",
"I. c #A7FD87876A95",
"U. c #9C67B2A97A35",
"Y. c #CACA90905757",
"T. c #C44389894E4E",
"R. c #C8C894946767",
"E. c #C5C598987676",
"W. c #D4D49F9F7272",
"Q. c #8A90C8AC4204",
"!. c #96C7D79C4917",
"~. c #9664CAEE5779",
"^. c #9C9CD9D95353",
"/. c #A1BAC3E372C3",
"(. c #15C519489D06",
"). c #2F2F2B2B9090",
"_. c #287A350C93F4",
"`. c #08080C0CA2A2",
"'. c #15151717A8A8",
"]. c #0CAD1324B474",
"[. c #15FD1AEBB35E",
"{. c #25252525A9A9",
"}. c #432F31669808",
"|. c #549446D79033",
" X c #668B52B58884",
".X c #72725D5D8888",
"XX c #5A6F6F5182E0",
"oX c #6C6C65659292",
"OX c #54544E4EB3B3",
"+X c #52344D11AD9B",
"@X c #6F6F6A6AA2A2",
"#X c #62626969B7B7",
"$X c #0F0F1717C2C2",
"%X c #94945C5C8484",
"&X c #A8A87F7F8A8A",
"*X c #8B8B76769696",
"=X c #CBCB7E7E8F8F",
"-X c #7E7E84848383",
";X c #89898A8A8989",
":X c #828284848282",
">X c #969693938A8A",
",X c #98988D8D9B9B",
"<X c #979790908F0F",
"1X c #ACAC99998E8E",
"2X c #AAAA8D8D9696",
"3X c #A3A39B9B9696",
"4X c #B8B89A9A9A9A",
"5X c #B60B95C088DE",
"6X c #9F9FA3A39E9E",
"7X c #8727A95C930B",
"8X c #A650A68E9AA8",
"9X c #B7B7A8A89898",
"0X c #B1B1A2A29D9D",
"qX c #ABAB9A9ABBBB",
"wX c #A7A7AAAAA4A4",
"eX c #AAAAAAAAA9A9",
"rX c #BBBBA7A7A7A7",
"tX c #ADADB0B0A9A9",
"yX c #B52CB543B26B",
"uX c #BABABBBBBBBB",
"iX c #B3B3B3B3ABAB",
"pX c #D6D683838F8F",
"aX c #C3C39D9D8686",
"sX c #C6C695959999",
"dX c #C6C6A4A49696",
"fX c #C1C19C9CA2A2",
"gX c #C8C8A4A4AAAA",
"hX c #D1D1A7A7A4A4",
"jX c #D0D0B4B4B3B3",
"kX c #C8C8B9B9B6B6",
"lX c #AACCC9B8824F",
"zX c #BF24E62690B8",
"xX c #C343E8689616",
"cX c #C9ADCD94BE56",
"vX c #CCCCEA6AAAAA",
"bX c #D0D0EDEDADAD",
"nX c #ADADB1B1CFCF",
"mX c #CFCFB7B7C7C7",
"MX c #AAAAC5C5D6D6",
"NX c #9D1AC7EDE981",
"BX c #B6FFDBFEE5FE",
"VX c #C8C8C8C8C6C6",
"CX c #D0D0C2C2C1C1",
"ZX c #D1D1D2D2CDCD",
"AX c #DC0EDBA8DA73",
"SX c #F348C8C8C91E",
"DX c #DEDEE1E1DEDE",
"FX c #DCDCF1F1C3C3",
"GX c #E0E0E1E1DCDC",
"HX c #E8E8F5F5DA5A",
"JX c #E9E9E8E8E7E7",
"KX c #F4F4FAFAECEC",
"LX c #F3A8F3C9F37C",
"PX c #FEEFFEF9FEE0",
"IX c #F9F9FCFCF5F5",
"UX c #EF93F874E577",
/* pixels */
"            t K K <.<.2.<.,.1.+.s , @ O . X X % 3X@X5.7.>.-XpXe.",
"        X J K *.2.I.H.<.4.1.gX%Xh , e * * + $ <Xq.6.7.7.>.gXrX3X",
"i   ' @ I.0.8XH.<.H O   2 <XmX9.$ w > , , kX9.6.r.;.J.0X9.1XuXtX",
")   X.1.9XK.8XI.H   ^ O.% O 1Xq.$ e s -.hXJXrX>X:X9.3XtXyX<X9X>X",
"  O ,.H.S.D.D.5XX ^ PXPXVX  ] 2X! Q W ;XrXmXVXZXCX0X4XtX1X:.` 4X",
"  J H.<.3.D.D.5X  O.PXPXLX  E 2Xs * * W q.t.7.g u 4XpX-.s ' ' w.",
"d I.S.3.S.D.dXaXi * ZXLX+.  0.9X@ w w ' kX6.:.h t q.pX&XQ h Q ' ",
"D.P.S.S.F.D.L.L.1.X       H gX4XQ Q ] ] %XfXsX<X) wXrX2X;XX.X.-X",
"P.K.Y.Y.E.dXE.5X5XD.] F 2XmXjXsXCX,X*XO.<XsXyXDXVX8X&X_ ZXtXZXeX",
"L.F.F.L.aXaXL.9._ 3   . +.5X0.y     g y Q 4XJXVXu   X i mX8XrXuX",
"D.S.3.E.hXJ       y O.u   .   = X.X.. ; hXSXhXX = O.)   / >Xw.;X",
"D.*.I.hXdX. ^ uXLXPXPX^   ^ VXPXPXPX,X  0.kXuX  yXPXPX( E sX` rX",
"D.S.hXjXR.X u <XJXPXPX$   t X.:XJXPXJX  X.VXeX  ;XPXPXo._ GX^ _ ",
"Y.L.W.R.Y.&.@   eXPXAX  d = $   o.PXPX= g tXtX% X.PXPX^ _ JX5.] ",
"Y.R.Y.S.R.S.K   AXPXeX  E.SXSXd y PXPXu e <XsX> y PXJX. ( 8X>.5.",
"p f p f d p - @ PXPXO.  F H ( > $ PXPX^ > DX4X. ) PXo.  / uXgXgX",
"+ + + $ % % . y PXPX^   # # # X   PXPX' . ,XE   VXJX$ r qXnXqX|.",
"+ % + < 6 < . X.PXPX+ O 5 5 5 +   DXPXo.   .  ( LX)   R '.`.`.`.",
"< < < < < %   <XPXAX  # 3 3 3 < . MXPX>X  y U lX/.m.| _.[.].`.'.",
"< # < # < #   ZXPXeX  3 7 2 < #   eXPX6XY ~.V.n.b.n.B.~.XX'.[.].",
"< < n 6 6 # . LXPXo.  6 3 3 6 3   ;XPXU.Z.b.b.v.b.x.A.^.Z.@.].].",
"v j 6 & < o t PXPX^ o 0 l l l 7   O.cXC.b.b.b.b.x.V.KXzXx.C._.$X",
"1 3 v 0 3   ) PXPX% q l 6 3 V m . ) ~.b.b.b.b.b.v.xXIXx.v.b.{ ].",
"= < G L 6   o.PXPX%         2 y.o ^ Q.v.b.v.v.x.Z.KX^.v.b.x.h. X",
"4 v I j 8   X.PXPXDXeXuXLX  q S o ^ l.v.b.z.z.b.bXFXn.v.b.z.y.%.",
"7 7 A 6 0 # % VXPXJXuXX.=   M D   O.G.z.B.xX!.A.IX^.z.z.z.b.f.iX",
"8 b c k z 7 .           ; p B V     x p.z.vXIXHXvXb.z.z.z.p.N.NX",
"9 b A 0 M B S 7 5 4 m #.=.a 5 C q < 0 u.p.i.HXUXQ.i.p.p.p.f.7XBX",
"k B B M I L A L L B y.B N 9 k N C > +X} s.p.d.C.a.p.d.d.f.m.@.nX",
"k z j I g.B z I j.I D p 4 G M 9 - * '.(.~ s.s.s.d.s.f.u.n R OX@X",
"Y P T Y v b P g.N 4 : : : : 4 2 > * '.'.}.Z k.j.g.h.U .. XoXoX#X",
"8 j 0 8 b l B 0 4 : : : & : & 5 9 * {.).$.5.}.|.8.2.7..X@X#XOXOX"
};
