/* XPM */
static char *jaaa[] = {
/* columns rows colors chars-per-pixel */
"32 32 235 2 ",
"   c #000900090009",
".  c gray14",
"X  c #262630303434",
"o  c #2BAC35B639BA",
"O  c #2EAF38B93CBD",
"+  c #343434343434",
"@  c #33DE3DE841EC",
"#  c #3B3B41414444",
"$  c gray28",
"%  c #43C44DCE51D2",
"&  c #46C750D154D5",
"*  c #4B4B53D45757",
"=  c #4C8C55D659DA",
"-  c #4F4F59595D5D",
";  c #515157575A5A",
":  c #52B95A5A5DC4",
">  c #5A5A5A5A5A5A",
",  c #54D55CDD6060",
"<  c #67676D6D7070",
"1  c red",
"2  c #5BADB7AD00FF",
"3  c #613CAC420A0C",
"4  c #60BCA9470CDC",
"5  c #6098ABB20CE1",
"6  c #6363B7B70404",
"7  c #639DBA9D01FE",
"8  c #6565BFBF0000",
"9  c #6868BBBB0707",
"0  c #6262B1B10909",
"q  c #6363B1B10F0F",
"w  c #6565B4B40D0D",
"e  c #6868BCBC0808",
"r  c #6868BCBC0909",
"t  c #6868BDBD0B0B",
"y  c #6A9DBE9D0AFE",
"u  c #6868BBBB0E0E",
"i  c #6868BABA0F0F",
"p  c #65A3AE2E15AE",
"a  c #6565B2B21111",
"s  c #6565B5B51010",
"d  c #6767B7B71515",
"f  c #69D4BCD410FF",
"g  c #6969BCBC1212",
"h  c #6A6AB9B91717",
"j  c #6CCCBDCB1500",
"k  c #663BB3151940",
"l  c #721AA5C23460",
"z  c #79B0ABA73B96",
"x  c #79B0AA0F3F11",
"c  c #7D9EB40E33A9",
"v  c #7AB6B82E3110",
"b  c #6A6AC6C60000",
"n  c #6D6DC4C40303",
"m  c #6B6BC1C10707",
"M  c #6C6CC1C10606",
"N  c #6F6FC7C70606",
"B  c #6F6FC7C70707",
"V  c #6B6BC8C80000",
"C  c #6D6DC8C80000",
"Z  c #6F6FC9C90202",
"A  c #6B6BC3C30909",
"S  c #6E6EC2C20B0B",
"D  c #6E6EC6C60808",
"F  c #6969C0C00F0F",
"G  c #6FFFC9FE0300",
"H  c #7070C9C90404",
"J  c #7070CACA0404",
"K  c #70FFCAFE0500",
"L  c #7171CACA0707",
"P  c #7272CBCB0707",
"I  c #719DCA9D07FE",
"U  c #725FCAD10805",
"Y  c #72FFCAFE0800",
"T  c #7272CBCB0808",
"R  c #7373CBCB0808",
"E  c #729DCA9D08FE",
"W  c #7272CBCB0909",
"Q  c #7373CBCB0909",
"!  c #7373CACA0B0B",
"~  c #73FFCBFE0A00",
"^  c #7575CBCB0B0B",
"/  c #7575CBCB0E0E",
"(  c #7676CBCB0F0F",
")  c #7575CCCC0C0C",
"_  c #7575CCCC0D0D",
"`  c #7777CCCC1111",
"'  c #7C7CCECE1818",
"]  c #6CFD9F065059",
"[  c #6CFCA4744215",
"{  c #7E26AD094504",
"}  c #7125D2736795",
"|  c #7E7EE2E27777",
" . c #81C8BBC036F8",
".. c #8383CFCF2525",
"X. c #8383CFCF2929",
"o. c #8787D0D02C2C",
"O. c #88FED2FE2EFF",
"+. c #87DDCE2933E7",
"@. c #89E7CD2A3582",
"#. c #8787C8C83F3F",
"$. c #8B8BD0D03535",
"%. c #8C8CD0D03636",
"&. c #8D8DD4D43737",
"*. c #8F8FD3D33E3E",
"=. c #C8C8C7C73030",
"-. c #E7E7E5E53C3C",
";. c #81BDAAA34C8D",
":. c #8329A4F5529C",
">. c #8EF9BE565148",
",. c #8A7FAF346FBE",
"<. c #940CB6DE6AF2",
"1. c #99BEBC8B7144",
"2. c #9D68B638796F",
"3. c #8A77C56A42B0",
"4. c #8A8ACBCB4141",
"5. c #92FED6FE40FF",
"6. c #9797D6D64B4B",
"7. c #9A9AD9D94F4F",
"8. c #98C5C9645E95",
"9. c #9A9AD7D75151",
"0. c #9AD2D23F55C8",
"q. c #9E9EDBDB5555",
"w. c #9BABD1275C8A",
"e. c #E2E2E0E04343",
"r. c gray56",
"t. c #959595959595",
"y. c #99DCA6E98127",
"u. c #A5A5A3A39B9B",
"i. c #AA2AA4A49E9E",
"p. c #AA7DB73E93FD",
"a. c #A823BC0199FA",
"s. c #9D50ADFBADDE",
"d. c #ADADA7A7A1A1",
"f. c #B2B2ACACA666",
"g. c #B6DDC02EA137",
"h. c #BBBBB636AE6E",
"j. c #BA29B87EAF29",
"k. c #BA76B900AE92",
"l. c #BF69BC66B45E",
"z. c #C217BD12B55F",
"x. c #C0DBBFF2B7D2",
"c. c #C4C4BFBFBA3A",
"v. c #A005CEBC92F6",
"b. c #B092D2ED823F",
"n. c #B3C5D2AD8B50",
"m. c #B58BCD8F9769",
"M. c #B796CFF496E8",
"N. c #B454C09F9D56",
"B. c #B796CFF49830",
"V. c #BFFEE6FE90FF",
"C. c #BB0DCF04A105",
"Z. c #BB9BCF92A221",
"A. c #BDBDC3C3B0B0",
"S. c #C1C1E7E79494",
"D. c #C4C4E8E89797",
"F. c #C77DC3EEB7B9",
"G. c #C424C2ACBB84",
"H. c #C803C3F8BA11",
"J. c #C63DC228BC77",
"K. c #CAF5C545BCF5",
"L. c #CCDAC8B6BE91",
"P. c #CDA8C980BF51",
"I. c #D09DCE03B4D1",
"U. c #CD3DD907BFB0",
"Y. c #DCDCD9D9BEBE",
"T. c #CACAE9E9A7A7",
"R. c #CECEEAEAADAD",
"E. c #D0D0EDEDADAD",
"W. c #94B499E1D157",
"Q. c #97979A3FEE64",
"!. c #9406960AF6DB",
"~. c #96409640FEA8",
"^. c #9D9D9D9DFD0A",
"/. c #AD50AD50FE2C",
"(. c #B2D7B2D7FEFE",
"). c #BE3EBE3EFFFF",
"_. c #C7C7C4C4C0C0",
"`. c #C8D6C5C5C1A6",
"'. c #CC67CA9CC5E1",
"]. c #D3A8CDCDC4EF",
"[. c #D62BD126C771",
"{. c #DDDDD9D9C141",
"}. c #D72CD227C91E",
"|. c #D615D3EBCA46",
" X c #D635D392CB18",
".X c #DB5AD757CC21",
"XX c #DBB0DA7BC95D",
"oX c #DE08DA2FCE78",
"OX c #D8D8D6D6D0D0",
"+X c #DD25DA6CD1AC",
"@X c #D9DBDF49D2C4",
"#X c #DF24DCF7D5E0",
"$X c #E1C1DE1DD3B3",
"%X c #E3E3DFDFD9D9",
"&X c #FF54DEDEDEDE",
"*X c #DCDCF1F1C3C3",
"=X c #E4E4E0E0D4D4",
"-X c #E65EE41FDCCD",
";X c #EA6AE791DF89",
":X c #E5E5F3F3D5D5",
">X c #EBEBF7F7DEDE",
",X c #D6D6D4D4E4E4",
"<X c #DDDDDBDBE6E6",
"1X c #DD17DF3AEBD4",
"2X c #C390C390FD63",
"3X c #CAE1CAE1FE60",
"4X c #CBADCBADFF59",
"5X c #D433D433FE5D",
"6X c #DC5CDC5CFF31",
"7X c #E1A4E50BE7B4",
"8X c #E7E7E5E5E4E4",
"9X c #EEEEEC52E607",
"0X c #E9E9E9E9E9E9",
"qX c #EEE1F00AEDDD",
"wX c #FED3E363E3F8",
"eX c #FE90EBD9EBD9",
"rX c #EFACF8ACE5FD",
"tX c #F3F3FAFAEBEB",
"yX c #F5F5FAFAEDED",
"uX c #E534E5D8F611",
"iX c #E54BE54BFE7E",
"pX c #ECB5ECACFED0",
"aX c #F26CF347F158",
"sX c #F3F3F3F3F3F3",
"dX c #F3E5F662F0D1",
"fX c #F784F779F7A5",
"gX c #FE64F359F359",
"hX c #F7F0F894F711",
"jX c #F95BFB43F736",
"kX c #F9F9FCFCF4F4",
"lX c #F9F9FCFCF6F6",
"zX c #F42FF42FFF77",
"xX c #FAE8FB86FA20",
"cX c #FBFBFDFDF8F8",
"vX c #FE81FE75FEA2",
/* pixels */
"< , ; - = - * * * & % % : , : : : = = ; # @ @ O O O o o X X X # ",
"l.l.].'.'.'.'.'.'.'.'.'.].'.'.'.'.'.'.'.'.'.'.'.'.'.'.'.'.u.l.A.",
"=X9X&XeXwXwX&XwXeXwXeXgXvXvXvXvX  vXvXvXvX  vXvXvXvXvXvXvX| _.'.",
"=X9XwXgXwXwX&XeXeXwXvXvXvXvXvXvX  vXvXvXvX  vXvXvXvXvXvXvXA.K..X",
"$X9XwXgXwXeXwXwXeXgXvXvXvXvXvXvX  vXvXvXvX  vX          vXP.h.].",
"oX%XeXgXeXgXeXeXeXvXvXvXvXvXvXvX            vXvXvXvXr.> gXJ.f.J.",
"=X9XvXvXvXvXvXvXvXvXvXvXvXvXvXvX  vXvXvXvX  vXvXvXt.$ sXvXz.i.z.",
"=X9XvXvXvXvXvXvXvXvXvXvXvXvXvXvX  vXvXvXvX  vXvXt.+ sXvXvXK.[.oX",
"=X9XvXvXvX1 1 1 vXvXvXvXvXvXvXvX  vXvXvXvX  vXd.. 0XvXvXvX].h.[.",
"oX-XvXvXvX1 ^.1 vXvXvXvXvXvXvXvX  vXvXvXvX  vX          vXK.f.K.",
"=X9XvXvXvX1 1 1 vXvXvXvXvXvXvXvXvXvXvXvXvXvXvXvXvXvXvXvXvXJ.i.c.",
"=X9XvXvXvXvX^.vXvXvXvXvXvXvXvXvXvXvXvXvX1 1 1 vXvXvXvXvXvXK.P.oX",
"=X9XvXvXvXvX^.vXvXvXvXvXvXvXvXvXvXvXvXvX1 ^.1 vXvXvXvXvXvX].z.].",
"oX8XvXvXvXvX^.vXvXvXvXvXvXvXvXvXvXvXvXvX1 1 1 vXvXgXvXvXsXP.f.c.",
"=X8XvXvXvXvX^.vXvXvXvXvXvXvXvXvXvXvXvXvXvX^.vXvXvXvXvXvXvXK.f.K.",
"=X<XvXwXvXvX^.vXvXvXvXvXvXvXvXvXvXvXvXvXvX^.vXvXvXvXvXvXvXc.i.z.",
"=X^.vXpXvXvX^.vXvXvXvXvXvXvXvXvXvXvXvXvXvX^.vXvXvXvXvXvXvXP.P.=X",
"+X^.vXpXvXvX^.vXvXvXvXvX1 1 1 vXvXvXvXvXvX^.xXhXsXhXxXvXgX[.h.[.",
"+X^.vXpXvXvX^.vXvXvXvXvX1 ^.1 vXvXvXvXvXfXW.m.n.b.n.B.@XfX-.=.e.",
"=X^.vXiXvXvX^.vXvXvXvXvX1 1 1 vXvXvXvXqXC.w.o.' ~ ' ..0.C.I.Y.{.",
"=X^.iXpXvXvX^.vXvXzXvXpXvX^.vXvXvXvXfXm.%._ B R R V 5.q.$.2.H.oX",
"=X,X(.iXvXvX^.vXvXzXvXzXzX^.vXvXvXvXU.+.! R R R V O.yXV.V @.N..X",
"+X-X^.4XpXgX^.vXvXiXvXiXpX^.vXvXvXjX8./ R R R R L D.lXb R ( >.H.",
"=X9X5X~./.4X^.pXpX6XvXiXpX^.^.vXpXdX3.R R R R Z &.yX7.H R R  .XX",
"=X9XzX^./.^.^.4X/.4XzX5X2X^.^.5X6X7Xv ~ ~ H V R E.*X( R R R k a.",
"=X9XvX2X5X).^.^.^.^.^.^.^.^.^.^.^.Q.[ n X.S.6.*.cX9.B R D D c } ",
".X-XvXiXiXiX5X/./.^./.^.2X/.^.^.~.!.] 6 b R.kX>XT.S m M A e z v.",
"=X9XvXzXvXvXzX6XiX4X4X2X6X4X4X4X3X3Xs.4 u 2 :XrX4.7 e e F 3 y.K.",
"=X9XvXvXvXvXvXzXvXpXpXpXpXiXpXzXpXzXuX,.s u j 3.6 u g g 0 :. Xl.",
"=X9XvXvXvXvXvXvXvXvXvXvXvXvXvXvXvXvXvX1X1.p a s h d q 4 <.j.d.J.",
"oX}.8X-X+X;X-X=X-X;X;X@X-X8XOX8X-XOX;X-X XN.;.{ l z ;.p.#X].h.L.",
"_._._.'.J._.`.J.J.`.J.J._._.J._._.J._._.J.J.G.G.j.l.G.J.K.K.'._."
};
