/* XPM */
static char *kadu[] = {
/* columns rows colors chars-per-pixel */
"32 32 178 2 ",
"   c #03AD03C30212",
".  c #0C0C0A0A0000",
"X  c #0A8B0A8B0A8B",
"o  c #282821210101",
"O  c #36362E2E0000",
"+  c #3A3A31310101",
"@  c #2D2D2D2D2B2B",
"#  c #323233333333",
"$  c #47473C3C0101",
"%  c #3E9D70A504EF",
"&  c #4C4C41410101",
"*  c #5C5C4C4C0000",
"=  c #626252520056",
"-  c #636358580101",
";  c #6BCC5D270566",
":  c #727263630101",
">  c #7A7A65650202",
",  c #7EBE6BB60104",
"<  c #4F4F4F4F4E4E",
"1  c #535355555656",
"2  c #962A00000000",
"3  c #9E9E0F0F0000",
"4  c #BCBC00000000",
"5  c #A5A51B1B0000",
"6  c #ADAD3B3B0000",
"7  c #A5A331EB0DF2",
"8  c #C1C100000000",
"9  c #C5C532320000",
"0  c #E7E73B3B0000",
"q  c #B9B95A5A0000",
"w  c #82826C6C0000",
"e  c #8C8C74740000",
"r  c #9A9A7F7F0101",
"t  c #B66A67610134",
"y  c #8C6362952693",
"u  c #99297EEB2F2F",
"i  c #E5E545450000",
"p  c #E46F64150091",
"a  c #4D0D8A8A0444",
"s  c #4F4F8E8E0808",
"d  c #506D862F04CE",
"f  c #50508E8E0606",
"g  c #525294940707",
"h  c #58589E9E0505",
"j  c #575798980D0D",
"k  c #585898980F0F",
"l  c #5DDEA7A70687",
"z  c #5F5FABAB0707",
"x  c #5F5FABAB0909",
"c  c #5B5BB7B70000",
"v  c #6161ACAC0606",
"b  c #786BAEF604FC",
"n  c #63E4B5340505",
"m  c #6464BD3D0081",
"M  c #6868BBBB0707",
"N  c #63B9B2B20C62",
"B  c #68BEBCBC0B36",
"V  c #6262ACAC1010",
"C  c #6610B55F1212",
"Z  c #6A6ABC3C1353",
"A  c #6B6BB2B21818",
"S  c #6D6DC57C052A",
"D  c #6E6EC9730157",
"F  c #6C6CC3830ACB",
"G  c #7180CAC805E4",
"H  c #739DCB8C0989",
"J  c #7777CCCC1111",
"K  c #7C7CCECE1818",
"L  c #7C37994347AE",
"P  c #7C7CA6A64646",
"I  c #9C9C81810101",
"U  c #A2A28A8A0000",
"Y  c #A9FF8DE30101",
"T  c #AFAF97970101",
"R  c #B308943E00AB",
"E  c #B1B19F9F0101",
"W  c #BDBD9E9E0000",
"Q  c #85E0B7A803C8",
"!  c #9381B29A0DB3",
"~  c #B7B7A0A00101",
"^  c #BCBCA2F80101",
"/  c #B254BDAD3B0A",
"(  c #C0C09F9F0000",
")  c #DADA9E9E0000",
"_  c #E7E781810000",
"`  c #C306A5E500A2",
"'  c #C8C8A6A60000",
"]  c #C7C7ADAD0000",
"[  c #CD66AE7B00CE",
"{  c #CBCBB3B30081",
"}  c #D353B6B60081",
"|  c #DA57B78700B5",
" . c #D5D5BEBE0000",
".. c #DC54BCE70079",
"X. c #CF75BAD61CBD",
"o. c #E6E6B7B70000",
"O. c #E598BE96008D",
"+. c #E8E8BFBF0000",
"@. c #8383CFCF2525",
"#. c #854FCD9D2B09",
"$. c #8787D0D02C2C",
"%. c #8888D2D22E2E",
"&. c #8787CCCC3131",
"*. c #8787C8C83F3F",
"=. c #8C8CD2273636",
"-. c #8F8FD3D33E3E",
";. c #D7D7C1C10000",
":. c #E4B9C346000B",
">. c #EC2BC5140000",
",. c #E5E5CDCD0000",
"<. c #EFA2CBFA0041",
"1. c #F0F0CECE0000",
"2. c #EDEDD4D40000",
"3. c #F31FD4130000",
"4. c #F7F7DC140000",
"5. c #FADCDFDF003C",
"6. c #FD2CE3E90000",
"7. c #FFFFEAEA013F",
"8. c #FFFFEBEB0F0F",
"9. c #F7F7E2E21414",
"0. c #FAFAE2E21313",
"q. c #FDFDEBEB1212",
"w. c #FBFBECEC1D1D",
"e. c #F5F5E4E42A2A",
"r. c #8585A9A95757",
"t. c #8F8FB5B55E5E",
"y. c #8A8ACBCB4141",
"u. c #9292D6D64040",
"i. c #9797D6D64B4B",
"p. c #9A9AD9D94F4F",
"a. c #9797D0D05050",
"s. c #9C6DD53852F5",
"d. c #9E9EDBDB5555",
"f. c #AFE2C52B4769",
"g. c #ACC8C7934E52",
"h. c #EAEADCDC4444",
"j. c #E8E8D9D95B5B",
"k. c #F8F8E6E64242",
"l. c #FAFAEAEA4141",
"z. c #F3F3EEEE4848",
"x. c #F3F3EFEF5353",
"c. c #FFFFF1F15353",
"v. c #FDFDF1F15B5B",
"b. c #F5F5EAEA6262",
"n. c #F5F5F1F16363",
"m. c #F0F0F1F16D6D",
"M. c #EAEAEDED7373",
"N. c #EBEBF1F17777",
"B. c #BFBFE6E69090",
"V. c #C7C7C2C29595",
"C. c #C1C1E7E79494",
"Z. c #C4C4E8E89797",
"A. c #F7F7F3F38181",
"S. c #DBDBD7D7AAAA",
"D. c #CACAE9E9A7A7",
"F. c #CECEEAEAADAD",
"G. c #D0D0EDEDADAD",
"H. c #C7C7CBCBCCCC",
"J. c #D9D9DDDDDEDE",
"K. c #DCDCF1F1C3C3",
"L. c #EBEBF7F7C2C2",
"P. c #E1E1F5F5CECE",
"I. c #FBFBF9F9C1C1",
"U. c #E5E5F3F3D5D5",
"Y. c #EBEBF7F7DEDE",
"T. c #E8E8F9F9DEDE",
"R. c #FAFAFBFBD6D6",
"E. c #DBDBFBFBFEFE",
"W. c #EFEFF8F8E5E5",
"Q. c #F1F1FAFAE1E1",
"!. c #F4F4FAFAECEC",
"~. c #E3E3F0F0F2F2",
"^. c #EAEAF7F7FAFA",
"/. c #E5E5FCFCFFFF",
"(. c #EFAFFD7DFF7F",
"). c #F9F9FCFCF5F5",
"_. c #FBFBFDFDF8F8",
"`. c None",
/* pixels */
"`.`.`.`.`.`.`.`.`.`.`.`.`.`.`.`.`.`.`.`.`.`.`.`.`.`.`.`.`.`.`.`.",
"`.`.`.`.`.`.`.`.`.`.`.`.`.`.`.`.:.`.`.`.`.`.`.`.`.`.`.`.`.`.`.`.",
"`.`.`.`.`.`.`.`.`.`.`.`.`.`.`.;.<.` `.`.`.`.`.`.`.`.`.`.`.`.`.`.",
"`.`.`.`.`.`.`.`.`.`.`.`.`.`.:.3.3.: `.`.`.`.`.`.`.`.`.`.`.`.`.`.",
"`.`.`.`.`.`.[ ..`.`.`.`.`.`.4.4...`.`.`.`.`.`.`.`.`.`.`.`.`.`.`.",
"`.`.`.`.`.`.T 3.} `.`.`.`.E 4.4.3.- `.`.`.`.`.`.`.`.`.`.`.`.`.`.",
"`.`.`.`.`.`.~ 3.2.`.`.~ ,.6.6.5.6.4.<.] `.`.` ..| ..Y `.`.`.`.`.",
"`.`.`.`.`.`.^ 3.6.2.3.6.6.6.7.6.6.6.6.4.3.:.3.<.<.>.> `.`.`.`.`.",
"`.`.`.`.`.`.: 5.6.6.6.7.7.7.7.7.7.6.5.4.4.3.2.1.r $ `.`.`.`.`.`.",
"`.`.`.`.`.`.`.{ 5.6.7.7.w.N.x.7.7.z.M.0.4.3.3.[   `.`.`.`.`.`.`.",
"`.`.`.`.`.`.`.;.6.7.7.q.T.E.E.m.x.E.E.P.5.3.3.1.& `.`.`.`.`.`.`.",
"`.`.`.`.`.`.`.4.6.7.7.n./././.T.L./././.k.4.3.1.[ `.`.`.`.`.`.`.",
"`.`.`.`.`.`. .6.6.7.7.A.(.~.^.(.Q.(.~.(.b.4.1.2.1.`.`.`.`.`.`.`.",
"`.`.`.`.`.`.2.5.7.7.7.v.J.X # R.I.1 X H.k.4.3.3.<.| W `.`.`.`.`.",
"`.` <.>.^ ] 4.5.6.7.7.q.S.X @ v.c.<   V.5.4.3.<.<.>.>.O.Y `.`.`.",
"`.Y | 1.3.3.4.4.5.6.7.7.q.h.e.7.7.l.j.0.6.3.3.1.<.>.>.+.+.R `.`.",
"`.`.$ :.1.3.3.6.5.6.6.7.7.7.7.7.7.6.6.5.4.3.3.<.<.| e [ O.| `.`.",
"`.`.`.O U { 3.3.5.5.6.6.6.7.6.6.6.5.5.4.3.3.<.>.O.;   . = `.`.`.",
"`.`.`.`.`.  ` 2.3.4.5.5.6.6.6.5.5.4.4.3.o.X./ f.g.L t.`.`.`.`.`.",
"`.`.`.`.`.`., 3.3.4.4.) q ) 1.5.4.4.o.t u s.$.K J K #.a.r.`.`.`.",
"`.`.`.`.`.`.`.| 3.2.3.3.6 2 2 3 5 3 2 y =.H D G G S u.d.=.P `.`.",
"`.`.`.`.`.`.`.= <.<.3.3.>.9 4 4 8 8 7 &.H H H H D %.!.B.D &.`.`.",
"`.`.`.`.`.`.`.= <.<.1.1.<.<.p i 0 p ! H H H H H G Z.).D H H A `.",
"`.`.`.`.`.`.' +.>.>.<.>.2.3.2.<.<.:.Q H H G G D =.!.p.D H H n `.",
"`.`.`.`.`.[ +.+.+.O.> , | >.>.>.>...b G H D D H G.K.J H G G v `.",
"`.`.`.`.`.` U r e o       + R >.:.| d S #.Z.i.-._.p.G S S F v `.",
"`.`.`.`.`.`.`.`.`.`.`.`.`.`.* O.O.` % M m F.).Y.D.F M F F M h `.",
"`.`.`.`.`.`.`.`.`.`.`.`.`.`.W >.O., `.x B c U.W.y.m M F F z `.`.",
"`.`.`.`.`.`.`.`.`.`.`.`.`.`.O.+.r `.`.s N Z Z y.n B Z Z N a `.`.",
"`.`.`.`.`.`.`.`.`.`.`.`.`.`.R ( `.`.`.`.s V C N Z C N l a `.`.`.",
"`.`.`.`.`.`.`.`.`.`.`.`.`.`.`.`.`.`.`.`.`.`.s k k g a `.`.`.`.`.",
"`.`.`.`.`.`.`.`.`.`.`.`.`.`.`.`.`.`.`.`.`.`.`.`.`.`.`.`.`.`.`.`."
};
