/* XPM */
static char *kdenlive[] = {
/* columns rows colors chars-per-pixel */
"32 32 228 2 ",
"   c gray12",
".  c #1A1A23232F2F",
"X  c gray13",
"o  c #252525252626",
"O  c #252528282F2F",
"+  c #2A2A2A2A2A2A",
"@  c #29292C2C2F2F",
"#  c #2C2C2C2C2C2C",
"$  c #27272B2B3131",
"%  c #26262B2B3535",
"&  c #2F2F2F2F3030",
"*  c #2B2B2F2F3535",
"=  c #292930303A3A",
"-  c #323232323232",
";  c #373737373737",
":  c #353533333D3D",
">  c gray22",
",  c #58582D2D2727",
"<  c #666631312B2B",
"1  c #7C7C3A3A3E3E",
"2  c #15152C2C4B4B",
"3  c #12122C2C5252",
"4  c #1E1E34345858",
"5  c #252532324646",
"6  c #2A2A34344141",
"7  c #2B2B36364747",
"8  c #2F2F38384747",
"9  c #242431314B4B",
"0  c #2B2B36364949",
"q  c #2B2B39394848",
"w  c #2A2A39394E4E",
"e  c #323239394545",
"r  c #32323C3C4F4F",
"t  c #2B2B3C3C5353",
"y  c #2E2E3E3E5959",
"u  c #1B1B3D3D7B7B",
"i  c #1C1C3D3D7B7B",
"p  c #2B2B41416262",
"a  c #2D2D48486E6E",
"s  c #3E3E4B4B6161",
"d  c #242440407373",
"f  c #2B2B46467373",
"g  c #2D2D4A4A7575",
"h  c #202041417A7A",
"j  c #32324C4C7A7A",
"k  c #373752527F7F",
"l  c #4B4B4B4B4B4B",
"z  c #404047475555",
"x  c #41414B4B5D5D",
"c  c #4C4C50505858",
"v  c gray32",
"b  c #565656565656",
"n  c #7F7F43435454",
"m  c #51515A5A6A6A",
"M  c #58584C4C7777",
"N  c #54544A4A7878",
"B  c #6A6A6A6A6B6B",
"V  c #898936362323",
"C  c #8E8E37372D2D",
"Z  c #87873E3E2F2F",
"A  c #81813A3A3A3A",
"S  c #A2A239392525",
"D  c #A6A63C3C2929",
"F  c #DFDF45452222",
"G  c #E1E158583E3E",
"H  c #93934E4E4A4A",
"J  c #A1A161615B5B",
"K  c #AEAE6F6F6161",
"L  c #AFAF75756A6A",
"P  c #ADAD72726C6C",
"I  c #A8A872727575",
"U  c #ABAB75757676",
"Y  c #C4C478786969",
"T  c #D5D57E7E6D6D",
"R  c #4B4B88880303",
"E  c #4D4D8A8A0404",
"W  c #4D4D8A8A0606",
"Q  c #4E4E8C8C0404",
"!  c #4F4F8E8E0808",
"~  c #50508E8E0606",
"^  c #525294940707",
"/  c #58589E9E0505",
"(  c #58589F9F0707",
")  c #575798980D0D",
"_  c #585898980F0F",
"`  c #5D5DA6A60606",
"'  c #5D5DA7A70707",
"]  c #5E5EA7A70606",
"[  c #5F5FABAB0707",
"{  c #5F5FABAB0909",
"}  c #5B5BB7B70000",
"|  c #6161ABAB0606",
" . c #6161ACAC0606",
".. c #6464B2B20505",
"X. c #6464B2B20606",
"o. c #6363B7B70404",
"O. c #6363BABA0101",
"+. c #6565BFBF0000",
"@. c #6868BBBB0707",
"#. c #6262B1B10909",
"$. c #6363B1B10F0F",
"%. c #6565B4B40D0D",
"&. c #6868BCBC0808",
"*. c #6868BCBC0909",
"=. c #6868BDBD0B0B",
"-. c #6A6ABEBE0A0A",
";. c #6868BBBB0E0E",
":. c #6868BABA0F0F",
">. c #6262ACAC1010",
",. c #6565B2B21111",
"<. c #6565B5B51010",
"1. c #6767B7B71515",
"2. c #6969B0B01414",
"3. c #6969BCBC1010",
"4. c #6969BCBC1212",
"5. c #6A6AB9B91717",
"6. c #6C6CBDBD1414",
"7. c #6B6BB2B21818",
"8. c #6A6AC6C60000",
"9. c #6D6DC4C40303",
"0. c #6B6BC1C10707",
"q. c #6C6CC1C10606",
"w. c #6F6FC7C70606",
"e. c #6F6FC7C70707",
"r. c #6B6BC8C80000",
"t. c #6D6DC8C80000",
"y. c #6F6FC9C90202",
"u. c #6B6BC3C30909",
"i. c #6E6EC2C20B0B",
"p. c #6E6EC6C60808",
"a. c #6969C0C00F0F",
"s. c #7070C9C90404",
"d. c #7070CACA0404",
"f. c #7171CACA0707",
"g. c #7272CACA0707",
"h. c #7272CBCB0707",
"j. c #7272CACA0808",
"k. c #7272CBCB0808",
"l. c #7373CBCB0808",
"z. c #7272CBCB0909",
"x. c #7373CBCB0909",
"c. c #7373CACA0B0B",
"v. c #7575CBCB0B0B",
"b. c #7575CBCB0E0E",
"n. c #7676CBCB0F0F",
"m. c #7575CCCC0C0C",
"M. c #7575CCCC0D0D",
"N. c #7777CCCC1111",
"B. c #7C7CCECE1818",
"V. c #7B7BA6A64545",
"C. c #7C7CA6A64646",
"Z. c #8383CFCF2525",
"A. c #8383CFCF2929",
"S. c #8484CCCC2E2E",
"D. c #8787D0D02C2C",
"F. c #8888D2D22E2E",
"G. c #8787CCCC3131",
"H. c #8787C8C83F3F",
"J. c #8B8BD0D03535",
"K. c #8C8CD0D03636",
"L. c #8D8DD4D43737",
"P. c #8F8FD3D33E3E",
"I. c #8484A8A85555",
"U. c #8585A9A95757",
"Y. c #8F8FB5B55C5C",
"T. c #8F8FB5B55E5E",
"R. c #EAEA8B8B7777",
"E. c #EAEA8E8E7979",
"W. c #EBEB90907B7B",
"Q. c #8A8ACBCB4141",
"!. c #9292D6D64040",
"~. c #9797D6D64B4B",
"^. c #9A9AD9D94F4F",
"/. c #9797D0D05050",
"(. c #9A9AD7D75151",
"). c #9B9BD2D25757",
"_. c #9E9EDBDB5555",
"`. c #9898C2C26161",
"'. c #9C9CC7C76262",
"]. c #1A1A45459090",
"[. c #1D1D47479191",
"{. c #1E1E48489292",
"}. c #2B2B4E4E8686",
"|. c #323252528181",
" X c #353559598686",
".X c #3D3D59598787",
"XX c #36365B5B8A8A",
"oX c #2A2A55559898",
"OX c #2C2C57579999",
"+X c #2E2E59599A9A",
"@X c #35355D5D9696",
"#X c #33335D5D9A9A",
"$X c #393960609494",
"%X c #363661619E9E",
"&X c #383863639F9F",
"*X c #3B3B66669F9F",
"=X c #3B3B6767A0A0",
"-X c #45455B5B8383",
";X c #42425D5D8E8E",
":X c #505063638484",
">X c #5C5C6B6B8989",
",X c #484862629393",
"<X c #484862629494",
"1X c #4C4C67679A9A",
"2X c #50506C6C9F9F",
"3X c #5D5D73739A9A",
"4X c #646472728D8D",
"5X c #55557171A4A4",
"6X c #59597575A9A9",
"7X c #60607777A1A1",
"8X c #A8A878788181",
"9X c #ECEC9A9A8A8A",
"0X c #BFBFE6E69090",
"qX c #C1C1E7E79494",
"wX c #C4C4E8E89797",
"eX c #CACAE9E9A7A7",
"rX c #CECEEAEAADAD",
"tX c #D0D0EDEDADAD",
"yX c #DCDCF1F1C3C3",
"uX c #E5E5F3F3D5D5",
"iX c #EBEBF7F7DEDE",
"pX c #EFEFF8F8E5E5",
"aX c #F3F3FAFAEBEB",
"sX c #F5F5FAFAEDED",
"dX c #F9F9FCFCF4F4",
"fX c #F9F9FCFCF6F6",
"gX c #FBFBFDFDF8F8",
"hX c None",
/* pixels */
"hXhXhXhXhXhXhXhXhXhXhXhXhXhXhXhXhXhXhXhXhXhXhXhXhXhXhXhXhXhXhXhX",
"hXhXhXhXhXhXhXhXhXhXhXhXhXhXhXhXhXhXhXhXhX# # # hXhXhXhXhXhXhXhX",
"hXhXhXhXhXhXhXhXhXhXhXhXhXhXhXhXhXhXhX& # # hX- q hXhXhXhXhXhXhX",
"hXhXhXhXhXhXhXhXhXhXhXhXhXF hXhXhX# @ @ hX@ r $X=XhXhXhXhXhXhXhX",
"hXhXhXhXhXhXhXhXhXhXhXhXF F hXhX# # hX$ 8 @X%X&X=X$XhXhXhXhXhXhX",
"hXhXhXhXhXhXhXhXhXhXhXF F F V , hX# t g $ %X%X%X=X=X XhXhXhXhXhX",
"hXhXhXhXhXhXhXhXhXR.W.W.hXV V V : {.oX+X7 t #X%X=X=X=Xa hXhXhXhX",
"hXhXhXhXhXhXhXhXhXE.W.K K hXV n H oXOX+X#Xo #X%X#X=X=X*XhXhXhXhX",
"hXhXhXhXhXhXhXhXhXhXK K K S H n n j oXoX+Xa $ %X=X#XXX# # hXhXhX",
"hXhXhXhXhXhXhXhXhX# K hX8XH C n n n ].oX+X+X6 w |.O # hX# # hXhX",
"hXhXhXhXhXhXhXhX# # # 8X8XI D A n n H oXoX+Xp # + hX# # hXhXhXhX",
"hXhXhXhXhXhXhX+ # hXd N 8X8XJ C n n H H }.+ # hX$ # hXhXhXhXhXhX",
"hXhXhXhXhXhXv + o h [.{.8X8XU hXH n n 1 # hX# # hXhXhXhXhXhXhXhX",
"hXhXhXhXhXv b hXO i [.{.N 8X8XP H n V 1 < # hXhXhXhXhXhXhXhXhXhX",
"hXhXhXhXhXv B 3Xr 4 ].[.{.8X8X8XT Z A C G hXhXhXhXhXhXhXhXhXhXhX",
"hXhXhXhXb hX>X6X7X% u ].{.M 8X8XY Y A G G G hXhXhXhXhXhXhXhXhXhX",
"hXhXhXl l m 2X5X6Xz 4 ].{.i K 8XP 9X9XG G hXhXhXhXhXhXhXhXhXhXhX",
"hXhX> # c ,X1X2X5X4Xo ].i $ hXL 9X9X9XhXhXhXhXhXhXhXhXhXhXhXhXhX",
"hXhX> # s .X,X1X1X3Xx 9 hX# # 9X9X9XhXhXhXhXY.`.'.`.Y.hXhXhXhXhX",
"hXhX+ e e .X;X,X1X2Xm # # # hXhX9XhXhXhXI.).S.B.M.B.Z./.U.hXhXhX",
"hXhXd 2 e k -X;X<X:Xv hX& hXhXhXhXhXhXV.K.M.s.l.l.y.!._.J.C.hXhX",
"hXhXd 3 * j k .X-Xv v v hXhXhXhXhXhXhXS.v.f.l.l.y.F.sX0Xr.G.hXhX",
"hXhXhX2 * y j |.v hXv hXhXhXhXhXhXhX2.b.f.l.f.l.s.wXfX8.l.M.7.hX",
"hXhXhX3 5 6 f e l v hXhXhXhXhXhXhXhX..l.v.f.l.y.L.aX^.y.k.k.X.hX",
"hXhXhX3 3 = 0 hXv hXhXhXhXhXhXhXhXhX| f.c.s.s.l.tXyXN.l.l.l.[ hX",
"hXhXhX3 3 $ ; ; hXhXhXhXhXhXhXhXhXhX] e.A.0X~.P.gX(.e.s.e.p.] hX",
"hXhXhX2 3 ; ; ; hXhXhXhXhXhXhXhXhXhX( =.+.rXdXiXeXi.0.0.u.=./ hX",
"hXhXhX2 . hX  hXhXhXhXhXhXhXhXhXhXhXhX' =.} uXpXQ.O.&.=.=.[ hXhX",
"hXhXhXhXX X hXhXhXhXhXhXhXhXhXhXhXhXhX! %.3.5.Q.X.=.4.4.#.R hXhX",
"hXhXhXhXX hXhXhXhXhXhXhXhXhXhXhXhXhXhXhXQ >.<.%.5.1.$.' R hXhXhX",
"hXhXhXhXX hXhXhXhXhXhXhXhXhXhXhXhXhXhXhXhXhX~ _ ) ^ ~ hXhXhXhXhX",
"hXhXhXhXhXhXhXhXhXhXhXhXhXhXhXhXhXhXhXhXhXhXhXhXhXhXhXhXhXhXhXhX"
};
