/* XPM */
static char *kphone[] = {
/* columns rows colors chars-per-pixel */
"32 32 200 2 ",
"   c #001A001A001A",
".  c #053C053C053C",
"X  c #081908190819",
"o  c #0F510F510F51",
"O  c #131C131C131C",
"+  c #15E415E415E4",
"@  c #1B341B341B34",
"#  c #1E421E421E42",
"$  c #27E637B715D2",
"%  c #20FD20FD20FD",
"&  c #23E823E823E8",
"*  c #28BB28BB28BB",
"=  c #2EAB2EAB2EAB",
"-  c #2FF22FF22FF2",
";  c #3402353632E0",
":  c #357135713571",
">  c #385838583858",
",  c #39EF39EF39EF",
"<  c #3D453D453D45",
"1  c #4A4A6EFF20EB",
"2  c #435843584358",
"3  c #44D0457D4436",
"4  c #467346734673",
"5  c #4B664B664B66",
"6  c #4E854E854E85",
"7  c #50D150D150D1",
"8  c #54E554E554E5",
"9  c #564956FE554B",
"0  c #5B855B855B85",
"q  c #5EC75F695DD0",
"w  c #5DF05DF05DF0",
"e  c #5B296BD448DD",
"r  c #631863186318",
"t  c #678E678E678E",
"y  c #681D68C7671F",
"u  c #696569656969",
"i  c #6A116AC16936",
"p  c #6FE56FE56FE5",
"a  c #72667E3964C2",
"s  c #75F57B6A6EC5",
"d  c #728872887288",
"f  c #77C677C677C6",
"g  c #7A257C2977D8",
"h  c #7B887B887B88",
"j  c #7C5E7C5E7C5E",
"k  c #7DEF7ED57CBD",
"l  c #4B4B88880303",
"z  c #4D4D8A8A0404",
"x  c #4D4D8A8A0606",
"c  c #4E4E8C8C0404",
"v  c #50508E8E0606",
"b  c #525294940707",
"n  c #575798980D0D",
"m  c #585898980F0F",
"M  c #54B485571BD9",
"N  c #5D5DA7A70707",
"B  c #5E5EA7A70606",
"V  c #5E4DA9670758",
"C  c #5FA1AABB0AA6",
"Z  c #5B63B7620063",
"A  c #6161ACAC0606",
"S  c #6464B2B20606",
"D  c #6363B7B70404",
"F  c #6363BABA0101",
"G  c #6565BFBF0000",
"H  c #6868BBBB0707",
"J  c #6262B1B10909",
"K  c #6363B1B10F0F",
"L  c #6565B4B40D0D",
"P  c #6868BCBC0808",
"I  c #6868BCBC0909",
"U  c #6868BDBD0B0B",
"Y  c #6A0FBE0E0A0F",
"T  c #6868BBBB0E0E",
"R  c #6868BABA0F0F",
"E  c #6262ACAC1010",
"W  c #6565B2B21111",
"Q  c #6565B5B51010",
"!  c #6767B7B71515",
"~  c #6969BCBC1010",
"^  c #6969BCBC1212",
"/  c #6A6AB9B91717",
"(  c #6C3DBD3C143D",
")  c #62F8940628CE",
"_  c #645A96632B46",
"`  c #6B789C1B313E",
"'  c #6BA5A91D200D",
"]  c #7382AAF93167",
"[  c #7BA2B69733D3",
"{  c #6A6AC6C60000",
"}  c #6D6DC4C40303",
"|  c #6B6BC1C10707",
" . c #6C6CC1C10606",
".. c #6F6FC7C70606",
"X. c #6F6FC7C70707",
"o. c #6B6BC8C80000",
"O. c #6D6DC8C80000",
"+. c #6F6AC9AD0219",
"@. c #6B6BC3C30909",
"#. c #6E6EC2C20B0B",
"$. c #6E6EC6C60808",
"%. c #6969C0C00F0F",
"&. c #7070C9C90404",
"*. c #7070CACA0404",
"=. c #7091CA910492",
"-. c #7139CA39073A",
";. c #7171CACA0707",
":. c #7272CBCB0707",
">. c #71D0CAD007D1",
",. c #727BCAC407F8",
"<. c #7272CBCB0808",
"1. c #7373CBCB0808",
"2. c #728ECA8E088F",
"3. c #7272CBCB0909",
"4. c #7373CBB50924",
"5. c #7373CACA0B0B",
"6. c #7575CBCB0B0B",
"7. c #7575CBCB0E0E",
"8. c #7676CBCB0F0F",
"9. c #7575CCCC0C0C",
"0. c #7575CCCC0D0D",
"q. c #7777CCCC1111",
"w. c #7C7CCECE1818",
"e. c #6A62826C4C32",
"r. c #7C7CA6A64646",
"t. c #8383CFCF2525",
"y. c #8383CFCF2929",
"u. c #8787D0D02C2C",
"i. c #8888D2D22E2E",
"p. c #842ACA773033",
"a. c #8787CCCC3131",
"s. c #8787C8C83F3F",
"d. c #8B8BD0D03535",
"f. c #8C8CD0D03636",
"g. c #8D8DD4D43737",
"h. c #8F8FD3D33E3E",
"j. c #8585A9A95757",
"k. c #85169D7965A4",
"l. c #835788837BDE",
"z. c #88F4A7DF6076",
"x. c #8A2DA28F6973",
"c. c #9110A50C76F9",
"v. c #8A8ACBCB4141",
"b. c #922FD62E4030",
"n. c #9797D6D64B4B",
"m. c #9A9AD9D94F4F",
"M. c #9533CCA15029",
"N. c #9A9AD7D75151",
"B. c #9E9EDBDB5555",
"V. c #9CF6D2715AD6",
"C. c #9898C2C26161",
"Z. c #9C9CC7C76262",
"A. c #80A380A380A3",
"S. c #854985498549",
"D. c #86B486B486B4",
"F. c #8A818A818A81",
"G. c #8E8D8E8D8E8D",
"H. c #91AD91AD91AD",
"J. c #96D096D096D0",
"K. c #96E3998C93E0",
"L. c #98B098B098B0",
"P. c #9CDE9CDE9CDE",
"I. c #A095A095A095",
"U. c #A790A790A790",
"Y. c #A5C2A929A19A",
"T. c #AAB5AAB5AAB5",
"R. c #ADAAADAAADAA",
"E. c #B214B214B214",
"W. c #B5C1B5C1B5C1",
"Q. c #B870B870B870",
"!. c #BEEABEEABEEA",
"~. c #BF66E6669067",
"^. c #C1C1E7E79494",
"/. c #C4C4E8E89797",
"(. c #CACAE9E9A7A7",
"). c #CECEEAEAADAD",
"_. c #D0D0EDEDADAD",
"`. c #C276C276C276",
"'. c #C6CAC6CAC6CA",
"]. c #C90FC90FC90F",
"[. c #CCD7CECBCA92",
"{. c #CF3ACF3ACF3A",
"}. c #D08CD08CD08C",
"|. c #D642D642D642",
" X c #DA79DA79DA79",
".X c #DD08DF91D9D5",
"XX c #DEFEDEFEDEFE",
"oX c #DCDCF1F1C3C3",
"OX c #E5E5F3F3D5D5",
"+X c #EBEBF7F7DEDE",
"@X c #E0D4E0D4E0D4",
"#X c #E650E650E650",
"$X c #EF21EF21EF21",
"%X c #EF68F868E568",
"&X c #F3F3FAFAEBEB",
"*X c #F5F5FAFAEDED",
"=X c #F9F9FCFCF4F4",
"-X c #F9F9FCFCF6F6",
";X c #FBFBFDFDF8F8",
":X c None",
/* pixels */
":X:X:X:X:X:X:X:X:X:X:X:X:X:X:X:X:X:X:X:X:X:X:X:X:X:X:X:X:X:X:X:X",
":X:X:X:X:X:X:X:X:X:X:X:X:X:X:X:X:X% :X:X:X:X:X:X:X:X:X:X:X:X:X:X",
":X:X:X:X:X:X:X:X:X:X:X:X:X:X:X:X:X& :X:X:X:X:X:X:X:X:X:X:X:X:X:X",
":X:X:X:X:X:X:X:X6 :X:X:X:X- :X:X:X< :X:X:X:X, :X:X:X:X:X:X:X:X:X",
":X:X:X:X:X:X:X:X:X:X:X:X:X:X:X:X:X< :X:X:X:X:X:X:X:X:X:X:X:X:X:X",
":X:X:X:X:X:X:X:X:X:X:X:X:X:X:X:X:X:X:X:X:X: :X:X:X:X:X:X:X:X:X:X",
":X:X:X:X:X:X:X:X:X:X:X:X:X:X:X:X:X:X:X:X:X:X:X:X:X:X:X:X:X:X:X:X",
":X:X:X:X:X:X:X:X:X:X:XU.J.P.E.R.T.P.T.:X:X:X:X:X:X:X:X:X:X:X:X:X",
":X:X:X:X2 :X:X:Xh F.E.].].{.{.`.!.`.!.T.H.J.:X:X:X:X:X:X:X:X:X:X",
":X:X:X:X:X:X:Xf E.}. X$X#X}.'.Q.E.!.Q.Q.Q.R.P.U.U.:X:X:X:X:X:X:X",
":X:X:X:X:X:X:XW.XX#X X|.!.L.H.J.H.A.F.J.T.T.T.T.T.S.:X:X:X:X:X:X",
":X:X:X:X:X:X:X].#X@X'.R.L.j :X:X:X:X:X8 h G.S.L.E.L.S.0 :X:X:X:X",
":X:X:X:X:X:X:X}.|.].W.I.L.d :X:X:X:X:X:X:XA.8 j R.U.G.j r :X:X:X",
":X:X:X:X:X:X:X!.!.R.I.H.f S.: :X:X:X:X:X:Xw S.I.U.E.F.h t :X:X:X",
":X:X:X:X:X:X:XE.R.G.h p < p u :X:X:X:X:X:Xt F.G.P.I.A.h r :X:X:X",
":X:X:X:X:X:X:XT.{.I.h 5 :XA.L.d F.R.!.Q.P.A.d 0 d S.h d r :X:X:X",
":X:X:X:X. :X:X:XQ.H.:X:X:XH.R.T.G.!.W.'.j L.r w j p p p r :X:X:X",
":X:X:XO . :X:X:X:X:X:X:X:Xj H.L.L.E.j T.j !.w 9 j y u d y :X:X:X",
":X:Xo .   % :X:X:X:X:X:X:XA.'.P.E.0 8 8 S.l.x.C.Z.z.k.s 0 :X:X:X",
":X:X  :X:X:X:X:X:X:X:X:X:XA.H.{.d 0 L.; c.V.u.w.9.w.t.M.j.:X:X:X",
":X:X+ # X :X:X:X:X:X:X:X:Xj E.Q.h 6 , e.d.7...;.;.+.b.B.d.r.:X:X",
":X:X# : O :X:X:X:X:X:XX :Xd ].f `.L.a p.6.;.1.1.+.i.*X~.o.a.:X:X",
":X:Xo # :X:X:X:X:X:X:X. * j R.P.].[.` 7.;.1.1.1.+./.-X{ 1.9.M :X",
":X  :X:X:X:X:X:X+ :X:X+ < F.P.`.`..X[ 1.6.;.1.+.g.&Xm...1.;.S :X",
":X  :X% 2 :X:X:X:X# % :Xj H.G.H.L.Y.' 1.1.;.X.1._.oXq.1.1.1.A :X",
":X:X:X@ = :X, :X:X+ :X:XA.H.H.G.h K.] } y.~.n.h.;XN.X.1.X.@.B :X",
":X:X:X. :X:X3 :X:X% :X6 I.J.F.j h h _ H G ).=X+X(.#.|  .@.P ) :X",
":X:X:X:X:X:X@ # :X:X:X0 L.h r r t y e C U Z OX%Xv.F P P %.V $ :X",
":X:X:X:Xo O :X:X:X:X:X:XS.G.t w 0 7 3 1 L R ( v.D T ^ ^ J z :X:X",
":X:X:X:X:X:X:X:X:X:X:X:X< p t 6 < :X:X:Xz E W Q / ! K N l :X:X:X",
":X:X:X:X:X:X:X:X:X:X:X:X:X* : % :X:X:X:X:X:Xv m n b c :X:X:X:X:X",
":X:X:X:X:X:X:X:X:X:X:X:X:X:X:X:X:X:X:X:X:X:X:X:X:X:X:X:X:X:X:X:X"
};
