/* XPM */
static char *ksimus[] = {
/* columns rows colors chars-per-pixel */
"32 32 155 2 ",
"   c #2E9E30C92C99",
".  c #2F3B2FB12E7D",
"X  c #301833972BF0",
"o  c #30A1330E2DB5",
"O  c #30E7337F2DC3",
"+  c #315F33572F16",
"@  c gray19",
"#  c #3F9A626C1680",
"$  c #341043E121FC",
"%  c #411664A0168D",
"&  c #40BE63901836",
"*  c #4C387D46120E",
"=  c #531A77CF29BB",
"-  c #561356C05579",
";  c #55EB55EB55EB",
":  c #585858585858",
">  c #5A2A65614C85",
",  c #79D77AF978A2",
"<  c red",
"1  c #4E4E8C8C0404",
"2  c #50508E8E0606",
"3  c #525294940707",
"4  c #575798980D0D",
"5  c #585898980F0F",
"6  c #5FD29E1F143A",
"7  c #5CE1940F1A5D",
"8  c #616A9C601A5D",
"9  c #5C4DA4D707FF",
"0  c #5F43AA5C084E",
"q  c #5F5FABAB0909",
"w  c #5B80B7800081",
"e  c #6363B7B70404",
"r  c #6380BA800181",
"t  c #6565BFBF0000",
"y  c #6868BBBB0707",
"u  c #6262B1B10909",
"i  c #6363B1B10F0F",
"p  c #6565B4B40D0D",
"a  c #6868BCBC0808",
"s  c #6868BCBC0909",
"d  c #6868BDBD0B0B",
"f  c #6A80BE800A81",
"g  c #6868BBBB0E0E",
"h  c #6868BABA0F0F",
"j  c #6134A9BE10D2",
"k  c #6565B2B21111",
"l  c #6565B5B51010",
"z  c #6767B7B71515",
"x  c #6969B0B01414",
"c  c #6958BC571059",
"v  c #6969BCBC1212",
"b  c #6A6AB9B91717",
"n  c #6C58BD571459",
"m  c #50948E0C3128",
"M  c #655C95FF2C81",
"N  c #6DE39FEC34CE",
"B  c #6A6AC6C60000",
"V  c #6D6DC4C40303",
"C  c #6B6BC1C10707",
"Z  c #6C6CC1C10606",
"A  c #6F6FC7C70606",
"S  c #6F6FC7C70707",
"D  c #6B6BC8C80000",
"F  c #6D6DC8C80000",
"G  c #6F6FC9C90202",
"H  c #6B6BC3C30909",
"J  c #6E6EC2C20B0B",
"K  c #6E6EC6C60808",
"L  c #6969C0C00F0F",
"P  c #7000C9FF0301",
"I  c #7070C9C90404",
"U  c #7070CACA0404",
"Y  c #7100CAFF0501",
"T  c #7171CACA0707",
"R  c #7272CBCB0707",
"E  c #71FFC9FE0801",
"W  c #71A0CAA007A1",
"Q  c #7272CACA0808",
"!  c #7272CBCB0808",
"~  c #7373CBCB0808",
"^  c #7300CAFF0901",
"/  c #7272CBCB0909",
"(  c #7373CBCB0909",
")  c #7373CACA0B0B",
"_  c #7575CBCB0B0B",
"`  c #7575CBCB0E0E",
"'  c #7676CBCB0F0F",
"]  c #7575CCCC0C0C",
"[  c #7575CCCC0D0D",
"{  c #7777CCCC1111",
"}  c #7C7CCECE1818",
"|  c #7E4495BE6013",
" . c #8383CFCF2525",
".. c #8383CFCF2929",
"X. c #8484CCCC2E2E",
"o. c #8787D0D02C2C",
"O. c #8888D2D22E2E",
"+. c #8756CAB4335E",
"@. c #8787C8C83F3F",
"#. c #8B8BD0D03535",
"$. c #8C8CD0D03636",
"%. c #8D8DD4D43737",
"&. c #8F8FD3D33E3E",
"*. c #84E8BC5F42CD",
"=. c #91A3A59F781A",
"-. c #8AD6C5CB4307",
";. c #8A8ACBCB4141",
":. c #9300D6FF4100",
">. c #9797D6D64B4B",
",. c #9A9AD9D94F4F",
"<. c #9A9AD7D75151",
"1. c #9ADED24B55D3",
"2. c #9E9EDBDB5555",
"3. c #9EC1D43D5CA2",
"4. c #5BC474269766",
"5. c #5BC4742698AE",
"6. c #7FFF7FFF8006",
"7. c #49465D42A1A1",
"8. c #24362962D373",
"9. c #243629ACD3BD",
"0. c #047107D8E830",
"q. c #00000000F8F8",
"w. c blue",
"e. c #6FE78ED38BAD",
"r. c #7CAC9F0A8286",
"t. c #808080808080",
"y. c #9E13A0179BC6",
"u. c #9C379C379C37",
"i. c #A0A0A0A0A0A0",
"p. c #B634CE3E9804",
"a. c #BFBFE6E69090",
"s. c #C1C1E7E79494",
"d. c #C4C4E8E89797",
"f. c #CACAE9E9A7A7",
"g. c #CECEEAEAADAD",
"h. c #D0D0EDEDADAD",
"j. c #CE48DA1BC0A4",
"k. c #DCDCF1F1C3C3",
"l. c #E5E5F3F3D5D5",
"z. c #EBEBF7F7DEDE",
"x. c #EEFEF87FE4FE",
"c. c #F044F178EF21",
"v. c #F3F3FAFAEBEB",
"b. c #F5F5FAFAEDED",
"n. c #F42FF6D8F12C",
"m. c #F3CEF4B3F29B",
"M. c #F54EF7D7F21B",
"N. c #F962FA0BF864",
"B. c #F9F9FCFCF4F4",
"V. c #F9F9FCFCF6F6",
"C. c #FACDFCC1F888",
"Z. c #FBFBFDFDF8F8",
"A. c #FC5CFD05FB73",
"S. c gray100",
"D. c None",
/* pixels */
"D.D.D.D.D.D.D.D.D.D.D.D.D.D.D.D.D.D.D.D.D.D.D.D.D.D.D.D.D.D.D.D.",
"D.D.D.D.D.D.D.D.D.D.D.D.D.D.D.D.D.D.D.D.D.D.D.D.D.D.D.D.D.D.D.D.",
"D.D.D.i.i.i.i.i.i.i.i.i.i.i.i.i.i.i.i.i.i.i.i.i.i.i.i.i.i.D.D.D.",
"D.i.i.i.t.t.t.t.t.t.t.t.t.t.t.t.t.t.t.t.t.t.t.t.t.t.t.t.t.t.i.D.",
"D.i.i.t.: : : : : : : : : : : : : : : : : : : : : : : : : : t.D.",
"i.i.t.: @ @ @ @ @ @ @ @ @ @ @ @ @ @ @ @ @ @ @ @ @ @ @ @ @ : : : ",
"i.t.: @ @ @ S.S.D.S.S.S.S.S.S.S.S.S.D.S.S.S.S.S.S.S.i.i.t.@ @ @ ",
"i.t.: @ @ S.S.S.S.S.S.S.S.D.S.S.S.S.S.S.S.S.S.D.S.S.S.i.i.t.@ @ ",
"i.t.: @ S.S.S.S.D.S.< < < < < < < < D.S.S.S.S.S.S.S.S.S.i.t.: @ ",
"i.t.: @ S.S.S.S.S.S.< S.S.D.S.S.S.< S.S.S.S.S.D.S.S.S.S.i.t.: @ ",
"i.t.: @ D.S.D.S.D.S.< S.D.S.D.S.D.< D.S.D.S.D.S.D.S.D.S.i.t.: @ ",
"i.t.: @ S.S.S.S.S.S.< S.S.D.S.S.S.< S.S.S.S.S.D.S.S.S.S.i.t.: @ ",
"i.t.: @ S.S.S.S.D.S.< S.S.S.S.S.S.< D.S.S.S.S.S.S.S.S.S.i.t.: @ ",
"i.t.: @ S.S.S.S.S.S.< S.S.D.S.S.S.< S.S.S.S.S.D.S.S.S.S.i.t.: @ ",
"i.t.: @ < < < < < < < S.S.S.S.S.S.< < < < < < < < < < < i.t.: @ ",
"i.t.: @ S.D.S.D.S.D.S.D.S.D.S.D.S.D.S.D.S.D.S.D.S.D.S.D.i.t.: @ ",
"i.t.: @ S.S.S.S.D.S.S.S.S.S.S.S.S.S.D.S.S.S.S.S.S.S.S.S.i.t.: @ ",
"i.t.: @ S.S.S.S.S.S.S.S.S.D.S.S.S.S.S.S.S.S.C.D.m.N.C.S.i.t.: @ ",
"i.t.: @ w.w.w.w.w.w.w.w.w.w.w.w.S.S.D.S.q.9.5.e.r.e.5.9.u.t.: @ ",
"i.t.: @ S.S.S.S.S.S.S.S.S.D.S.w.S.S.S.c.7.3.X.} [ }  .1.=., : @ ",
"i.t.: @ S.S.S.S.D.S.S.S.S.S.S.w.S.S.D.p.$.[ S W ~ F :.2.#.| ; @ ",
"i.t.: @ S.D.S.D.S.D.S.D.S.D.S.w.S.D.j.X._ T ~ ~ F O.b.a.D +.> @ ",
"i.t.: @ S.S.S.S.D.S.S.S.S.S.S.w.S.C.x ` ~ ~ ~ ~ T d.N.B ~ [ M + ",
"i.t.: @ S.S.S.S.S.S.S.S.S.D.S.w.S.M.-.~ ~ ~ ~ G %.v.,.T ~ T 8 + ",
"i.t.: @ t.S.S.S.D.S.S.S.S.S.S.w.w.0.m ~ ~ T F ~ h.k.{ T T ~ 6 X ",
"i.t.: @ t.i.S.S.S.S.S.S.S.D.S.S.S.m.*.G ..s.>.&.Z.<.S S T K 7 + ",
"i.t.t.: @ i.i.i.i.i.i.i.i.i.i.i.i.y.N y t g.Z.z.f.J C Z H a * + ",
"D.t.t.: : @ t.t.t.t.t.t.t.t.t.t.t., D.0 d w l.x.;.r a f c 0 $ D.",
"D.t.t.: : : @ : : : : : : : : : : : : = p h n @.r c v v u %   D.",
"D.D.D.: @ @ @ @ @ @ @ @ @ @ @ @ @ @ @ + & j k l b z i 9 # D.D.D.",
"D.D.D.D.D.D.D.D.D.D.D.D.D.D.D.D.D.D.D.D.D.D.2 5 4 3 1 D.D.D.D.D.",
"D.D.D.D.D.D.D.D.D.D.D.D.D.D.D.D.D.D.D.D.D.D.D.D.D.D.D.D.D.D.D.D."
};
