/* XPM */
static char *kxsldbg[] = {
/* columns rows colors chars-per-pixel */
"32 32 149 2 ",
"   c black",
".  c #036B040D0274",
"X  c #13EF249901A2",
"o  c #1C7F27B60EDB",
"O  c #2E0852BD04A9",
"+  c #3DAB6EB90381",
"@  c #470E7E3B0489",
"#  c #494C79EF1071",
"$  c #5BC474263B0A",
"%  c #4B97868C0489",
"&  c #4B4B88880303",
"*  c #4D4D8A8A0404",
"=  c #4D4D8A8A0606",
"-  c #4E4E8C8C0404",
";  c #50948EE104FC",
":  c #50508E8E0606",
">  c #525294940707",
",  c #575798980D0D",
"<  c #585898980F0F",
"1  c #5D5DA7A70707",
"2  c #5F5FABAB0707",
"3  c #5BC1B7C000C2",
"4  c #60E6AC000BEB",
"5  c #6363B7B70404",
"6  c #6363BABA0101",
"7  c #6565BFBF0000",
"8  c #6868BBBB0707",
"9  c #6262B1B10909",
"0  c #6363B1B10F0F",
"q  c #6565B4B40D0D",
"w  c #6868BCBC0808",
"e  c #6868BCBC0909",
"r  c #6868BDBD0B0B",
"t  c #6A6ABEBE0A0A",
"y  c #6868BBBB0E0E",
"u  c #6868BABA0F0F",
"i  c #6011A89C0FAF",
"p  c #6565B2B21111",
"a  c #6565B5B51010",
"s  c #6767B7B71515",
"d  c #6969BCBC1010",
"f  c #6969BCBC1212",
"g  c #6A6AB9B91717",
"h  c #6BFFBCFF1400",
"j  c #7776A97F3E61",
"k  c #7CC0BA383128",
"l  c #6A6AC6C60000",
"z  c #6D6DC4C40303",
"x  c #6B6BC1C10707",
"c  c #6C6CC1C10606",
"v  c #6F6FC7C70606",
"b  c #6F6FC7C70707",
"n  c #6B6BC8C80000",
"m  c #6D6DC8C80000",
"M  c #6F6FC9C90202",
"N  c #6FC1C9C002C1",
"B  c #6B6BC3C30909",
"V  c #6E6EC2C20B0B",
"C  c #6E6EC6C60808",
"Z  c #6969C0C00F0F",
"A  c #7038C9E40402",
"S  c #7070CACA0404",
"D  c #7171CACA0707",
"F  c #7272CBCB0707",
"G  c #71C1CAC007C1",
"H  c #725FCAD30807",
"J  c #7300CAFF0801",
"K  c #7272CBCB0808",
"L  c #7373CBCB0808",
"P  c #72C1CAC008C1",
"I  c #7272CBCB0909",
"U  c #7373CBCB0909",
"Y  c #73C1CBC009C1",
"T  c #7373CACA0B0B",
"R  c #7575CBCB0B0B",
"E  c #7575CBCB0E0E",
"W  c #7676CBCB0F0F",
"Q  c #7575CCCC0C0C",
"!  c #7575CCCC0D0D",
"~  c #7777CCCC1111",
"^  c #7C7CCECE1818",
"/  c #8383CFCF2525",
"(  c #8383CFCF2929",
")  c #8787D0D02C2C",
"_  c #8900D2FF2F01",
"`  c #87E8CE3433F0",
"'  c #8919CC773522",
"]  c #8787C8C83F3F",
"[  c #8B8BD0D03535",
"{  c #8C8CD0D03636",
"}  c #8D8DD4D43737",
"|  c #8F8FD3D33E3E",
" . c #84E8BC5F42CD",
".. c #9ABCB2377C8C",
"X. c #8AD6C5CB4307",
"o. c #8A8ACBCB4141",
"O. c #9300D6FF4100",
"+. c #9797D6D64B4B",
"@. c #9A9AD9D94F4F",
"#. c #993EC9E15F04",
"$. c #9A9AD7D75151",
"%. c #9ADED24B55D3",
"&. c #9E9EDBDB5555",
"*. c #9CC5D2415AA6",
"=. c #A3FBC65875A0",
"-. c #A34DC2397AD0",
";. c #00000000C0C0",
":. c blue",
">. c #000080808080",
",. c #0000C0C0C0C0",
"<. c #808080808080",
"1. c #ADC8B2F5A64F",
"2. c #B58EB6B0B459",
"3. c #B8A9BB51B5A6",
"4. c #B945BA2BB813",
"5. c #BD11BDC6BC13",
"6. c #BD31BF35BAE4",
"7. c #B42BD3178BAD",
"8. c #B634CE3E9804",
"9. c #B820D08298AE",
"0. c #C000E6FF9100",
"q. c #BBB8CFB4A1A1",
"w. c #BC46D042A2BD",
"e. c #C1C1E7E79494",
"r. c #C4C4E8E89797",
"t. c #CACAE9E9A7A7",
"y. c #CECEEAEAADAD",
"u. c #D0D0EDEDADAD",
"i. c #C0C0C0C0C0C0",
"p. c #CE48DA1BC0A4",
"a. c #DCDCF1F1C3C3",
"s. c #DAECE062D3BD",
"d. c #E5E5F3F3D5D5",
"f. c #EBEBF7F7DEDE",
"g. c #EC58EFBFE830",
"h. c #EFEFF8F8E5E5",
"j. c #F044F178EF21",
"k. c #F3F3FAFAEBEB",
"l. c #F5F5FAFAEDED",
"z. c #F54EF7D7F21B",
"x. c #F962FA0BF864",
"c. c #F9F9FCFCF4F4",
"v. c #F9F9FCFCF6F6",
"b. c #F8F8F8F8F8F8",
"n. c #FACDFCC1F888",
"m. c #FBFBFDFDF8F8",
"M. c #FC55FD05FB7A",
"N. c gray100",
"B. c None",
/* pixels */
"B.B.B.B.B.B.B.B.B.B.B.B.B.B.B.B.B.B.B.B.B.B.B.B.B.B.B.B.B.B.B.B.",
"B.B.B.B.B.B.B.B.B.B.B.B.B.    B.B.B.B.B.B.B.B.B.B.B.B.B.B.B.B.B.",
"B.B.B.B.B.B.B.B.B.B.B.B.B.  <.    B.B.B.B.B.B.B.B.B.B.B.B.B.B.B.",
"B.B.B.B.B.B.B.B.B.B.B.B.B.  i.i.      B.B.B.B.B.B.B.B.B.B.B.B.B.",
"B.B.B.B.B.    B.B.B.B.B.B.  i.i.  ;.;.    B.B.B.B.B.B.B.B.B.B.B.",
"B.B.B.B.B.  <.    B.B.B.B.    <.  :.:.;.;.    B.B.B.B.B.B.B.B.B.",
"B.B.B.B.B.  i.i.      B.B.  i.    ;.;.:.:.;.;.    B.B.B.B.B.B.B.",
"B.B.B.B.B.  i.i.  ;.;.      N.N.i.    ;.;.:.:.;.      B.B.B.B.B.",
"B.B.B.B.B.    <.  :.:.;.;.    i.N.N.i.    ;.;.:.  i.<.    B.B.B.",
"B.B.B.B.B.  i.    ;.;.:.:.;.;.    i.N.N.i.    ;.  i.i.  <.    B.",
"B.B.B.B.B.  N.N.i.    ;.;.:.:.;.      i.N.N.i.    <.i.  i.i.  B.",
"B.B.B.B.B.  N.N.N.N.i.    ;.;.:.  i.<.    i.N.N.i.      i.i.  B.",
"B.B.B.B.B.  N.N.N.N.N.N.i.    ;.  i.i.  <.    N.N.N.i.    <.  B.",
"B.B.B.B.B.  N.N.N.N.N.N.N.N.i.    <.i.  i.i.  i.N.N.N.N.i.    B.",
"B.    B.B.  N.N.N.N.N.N.N.N.N.N.i.      i.i.  i.i.N.N.N.N.i.  B.",
"B.  >.      N.N.N.N.N.N.N.N.N.N.N.N.i.    <.  i.i.N.N.N.N.i.  B.",
"B.  ,.>.>.    i.N.N.N.N.N.N.N.N.N.N.N.N.i.    i.i.N.N.N.N.i.  B.",
"B.  >.,.,.>.>.    i.N.N.N.N.N.N.N.N.N.N.N.i.. 5.4.b.n.N.N.i.  B.",
"B.    >.>.,.,.>.>.    i.N.N.N.N.N.N.N.N.b.1.$ -.=.7.9.s.b.i.  B.",
"B.  i.    >.>.,.,.  <.    N.N.N.N.N.N.j.q.*.) ^ ! ^ / %.w.2.  B.",
"B.  N.N.i.    >.>.  i.i.  i.N.N.N.N.b.8.{ ! v D L m O.&.[ ..  B.",
"B.  N.N.N.N.i.      i.i.  i.i.N.N.N.p.` R L L T m _ l.0.n ' o B.",
"B.  N.N.N.N.N.N.i.    <.  i.i.N.N.n.#.E L L L L F r.v.l L E # B.",
"B.  N.N.N.N.N.N.N.N.i.    i.i.N.N.z.X.L L L L m } k.@.v L F % B.",
"B.  i.i.N.N.N.N.N.N.N.i.  i.i.i.N.g.k L L v b L u.a.~ L L L ; B.",
"B.    i.i.i.N.N.N.N.N.i.      i.i.4. .m ( 0.+.| v.$.b L b B @ B.",
"B.B.B.    i.i.i.N.N.N.i.  B.B.    6.j w 7 y.c.f.t.V x c B w + B.",
"B.B.B.B.B.    i.i.i.N.i.  B.B.B.B.  X 4 r 3 d.h.o.6 w w Z 2 B.B.",
"B.B.B.B.B.B.B.    i.i.i.  B.B.B.B.B.B.O q u h o.5 y f f 9 * B.B.",
"B.B.B.B.B.B.B.B.B.    i.  B.B.B.B.B.B.B.* i p a g s 0 1 & B.B.B.",
"B.B.B.B.B.B.B.B.B.B.B.    B.B.B.B.B.B.B.B.B.; < , > - B.B.B.B.B.",
"B.B.B.B.B.B.B.B.B.B.B.B.B.B.B.B.B.B.B.B.B.B.B.B.B.B.B.B.B.B.B.B."
};
