/* XPM */
static char *lmarbles[] = {
/* columns rows colors chars-per-pixel */
"32 32 146 2 ",
"   c black",
".  c #191919191919",
"X  c #191019BC1876",
"o  c #1ACC1CD01880",
"O  c #1B9627690DF2",
"+  c #36203B4C2EA7",
"@  c #36203B962EF1",
"#  c gray20",
"$  c #353635D8343F",
"%  c #363936E2353B",
"&  c #457E77870C6A",
"*  c #46AA7E21238F",
"=  c #13EF249957A2",
"-  c #000000007BFF",
";  c #000000007F7F",
":  c #4C4C4C4C4C4C",
">  c #64D27D344560",
",  c #5BC474266909",
"<  c #666666666767",
"1  c gray50",
"2  c #4B4B88880303",
"3  c #4D4D8A8A0404",
"4  c #4D4D8A8A0606",
"5  c #4E4E8C8C0404",
"6  c #4F4F8E8E0808",
"7  c #50508E8E0606",
"8  c #525294940707",
"9  c #58589E9E0505",
"0  c #54E892610951",
"q  c #575798980D0D",
"w  c #585898980F0F",
"e  c #4FE6808915AC",
"r  c #5D5DA7A70707",
"t  c #5E5EA7A70606",
"y  c #5F5FABAB0707",
"u  c #5DE0A8FA08E5",
"i  c #5B5BB7B70000",
"p  c #6161ACAC0606",
"a  c #6464B2B20606",
"s  c #6363B7B70404",
"d  c #6363BABA0101",
"f  c #6565BFBF0000",
"g  c #6868BBBB0707",
"h  c #6262B1B10909",
"j  c #6363B1B10F0F",
"k  c #6565B4B40D0D",
"l  c #6868BCBC0808",
"z  c #6868BCBC0909",
"x  c #6868BDBD0B0B",
"c  c #6A6ABEBE0A0A",
"v  c #6868BBBB0E0E",
"b  c #6868BABA0F0F",
"n  c #6262ACAC1010",
"m  c #6565B2B21111",
"M  c #6565B5B51010",
"N  c #6767B7B71515",
"B  c #6969BCBC1010",
"V  c #6969BCBC1212",
"C  c #6A6AB9B91717",
"Z  c #6C6CBDBD1414",
"A  c #6B6BB2B21818",
"S  c #4B97868C2347",
"D  c #6A6AC6C60000",
"F  c #6D6DC4C40303",
"G  c #6B6BC1C10707",
"H  c #6C6CC1C10606",
"J  c #6F6FC7C70606",
"K  c #6F6FC7C70707",
"L  c #6B6BC8C80000",
"P  c #6D6DC8C80000",
"I  c #6F6FC9C90202",
"U  c #6B6BC3C30909",
"Y  c #6E6EC2C20B0B",
"T  c #6E6EC6C60808",
"R  c #6969C0C00F0F",
"E  c #7070C9C90404",
"W  c #7070CACA0404",
"Q  c #7171CACA0707",
"!  c #7272CACA0707",
"~  c #7272CBCB0707",
"^  c #7272CACA0808",
"/  c #7272CBCB0808",
"(  c #7373CBCB0808",
")  c #7272CBCB0909",
"_  c #7373CBCB0909",
"`  c #7373CACA0B0B",
"'  c #7575CBCB0B0B",
"]  c #7575CBCB0E0E",
"[  c #7676CBCB0F0F",
"{  c #7575CCCC0C0C",
"}  c #7575CCCC0D0D",
"|  c #7777CCCC1111",
" . c #7C7CCECE1818",
".. c #7B7BA6A64545",
"X. c #7C7CA6A64646",
"o. c #8383CFCF2525",
"O. c #8383CFCF2929",
"+. c #8484CCCC2E2E",
"@. c #8787D0D02C2C",
"#. c #8888D2D22E2E",
"$. c #8787CCCC3131",
"%. c #8787C8C83F3F",
"&. c #8B8BD0D03535",
"*. c #8C8CD0D03636",
"=. c #8D8DD4D43737",
"-. c #8F8FD3D33E3E",
";. c #81CBA4285370",
":. c #8484A8A85555",
">. c #8585A9A95757",
",. c #8A8ACBCB4141",
"<. c #92D6CA434DCB",
"1. c #9218D6184019",
"2. c #9797D6D64B4B",
"3. c #9A9AD9D94F4F",
"4. c #9A9AD7D75151",
"5. c #9B9BD2D25757",
"6. c #9E9EDBDB5555",
"7. c #047107D8E830",
"8. c #033F05E8F12C",
"9. c #035D05E6F21B",
"0. c #05630618F858",
"q. c #06E207C7F29B",
"w. c #02D604CAF888",
"e. c #035D040DFB7A",
"r. c blue",
"t. c #6FE78ED38BAD",
"y. c gray60",
"u. c #B2B2B2B2B2B2",
"i. c #BFBFE6E69090",
"p. c #C1C1E7E79494",
"a. c #C4C4E8E89797",
"s. c #CACAE9E9A7A7",
"d. c #CECEEAEAADAD",
"f. c #D0D0EDEDADAD",
"g. c gray80",
"h. c #DCDCF1F1C3C3",
"j. c #E5E5F3F3D5D5",
"k. c #EBEBF7F7DEDE",
"l. c gray90",
"z. c #EFEFF8F8E5E5",
"x. c #F3F3FAFAEBEB",
"c. c #F5F5FAFAEDED",
"v. c #F9F9FCFCF4F4",
"b. c #F9F9FCFCF6F6",
"n. c #FBFBFDFDF8F8",
"m. c None",
/* pixels */
"m.m.m.m.m.m.m.m.m.m.m.m.m.m.m.m.m.m.m.m.m.m.m.m.m.m.m.m.m.m.m.m.",
"m.m.m.m.m.m.m.m.m.m.m.m.m.m.m.m.m.m.m.m.m.m.m.m.m.m.m.m.m.m.m.m.",
"m.m.m.m.m.m.m.m.m.m.m.m.m.m.m.  . m.m.m.m.m.m.m.m.m.m.m.m.m.m.m.",
"m.m.m.m.m.m.m.m.m.m.m.m.m.. # r.r.. ; m.m.m.m.m.m.m.m.m.m.m.m.m.",
"m.m.m.m.m.m.m.m.m.m.m.m.. r.r.r.r.# r.. m.m.m.m.m.m.m.m.m.m.m.m.",
"m.m.m.m.m.m.m.m.m.m.m.. ; r.r.r.r.r.; .   m.m.m.m.m.m.m.m.m.m.m.",
"m.m.m.m.m.m.m.m.m.m.m.  r.r.r.r.r.r.. ; . m.m.m.m.m.m.m.m.m.m.m.",
"m.m.m.m.m.m.m.m.m.m.m.. ; r.r.r.r.r.; .   m.m.m.m.m.m.m.m.m.m.m.",
"m.m.m.m.m.m.m.m.m.m.m.m.. r.# r.# ; . . m.m.m.m.m.m.m.m.m.m.m.m.",
"m.m.m.m.m.m.m.m.m.m.m.m.m.. ; . ; .   m.m.m.m.m.m.m.m.m.m.m.m.m.",
"m.m.m.m.m.m.m.m.m.m.m.m.m.. ; . ; .   m.m.m.m.m.m.m.m.m.m.m.m.m.",
"m.m.m.m.m.  .   m.m.m.m.m.m.m.  . m.m.m.m.m.m.m.  .   m.m.m.m.m.",
"m.m.m.m.. r.r..   m.m.m.m.  . < : .   m.m.m.m.. ; r..   m.m.m.m.",
"m.m.m.. r.r.r.r.r..   m.  u.u.y.y.< :   m.. . ; r.r.r.; . m.m.m.",
"m.m.m.. ; r.r.r.r.. . m.  u.u.g.u.< # . m.  r.r.r.r.r.. ; m.m.m.",
"m.m.. ; r.r.r.r.r.;   . < u.l.u.y.< : . . r.r.r.r.r.r.r..   m.m.",
"m.m.. r.r.r.r.r.# ; .   < y.u.y.1 : : . . ; r.r.r.r.r.. ; . m.m.",
"m.m.m.; r.r.r.r.r..   m.  < < < : # #   m.; $ 0.q.% w.; . m.m.m.",
"m.m.m.. . r.# . ; . . m.  # : : # . . . m.@ , t.;.t.> @ ; m.m.m.",
"m.m.m.m.  . ; .   m.m.m.m..   . . .   m.:.5.+. .}  .o.<.:.m.m.m.",
"m.m.m.m.m..   . m.m.m.m.m.m.m..   m.m...*.} E ( Q I 1.6.*.X.m.m.",
"m.m.m.m.m.m.m.m.m.m.m.m.m.  . ; ; . O +.' Q ( ( I #.c.i.L $.m.m.",
"m.m.m.m.m.m.m.m.m.m.m.m.m.r.. r.. w.e ] Q ( Q ( E a.b.D ( } A m.",
"m.m.m.m.m.m.m.m.m.m.m.m.. ; r.r.r.9.S ( ' Q ( I =.x.3.I _ ~ a m.",
"m.m.m.m.m.m.m.m.m.m.m.  r.r.r.r.r.7.0 ( ( E K ( f.h.| Q ( ( p m.",
"m.m.m.m.m.m.m.m.m.m.m.. r.r.r.r.r.9.* F O.i.2.-.n.3.K K K T t m.",
"m.m.m.m.m.m.m.m.m.m.m.. ; r.r.r.r.o & z f d.v.k.s.Y G G G c 9 m.",
"m.m.m.m.m.m.m.m.m.m.m.m.. . ; ; r.. = u x i j.z.,.d z c R y m.m.",
"m.m.m.m.m.m.m.m.m.m.m.m.m.. . . . . . 6 k b Z ,.s v V V h 3 m.m.",
"m.m.m.m.m.m.m.m.m.m.m.m.m.m.m.  . m.m.m.3 n m M C N j r 2 m.m.m.",
"m.m.m.m.m.m.m.m.m.m.m.m.m.m.m.m.m.m.m.m.m.m.7 w q 8 5 m.m.m.m.m.",
"m.m.m.m.m.m.m.m.m.m.m.m.m.m.m.m.m.m.m.m.m.m.m.m.m.m.m.m.m.m.m.m."
};
