/* XPM */
static char *luciole[] = {
/* columns rows colors chars-per-pixel */
"32 32 237 2 ",
"   c black",
".  c #09090D0D0C0C",
"X  c #0B0B10100F0F",
"o  c #141419191717",
"O  c #12921A9A1818",
"+  c #2C2C2E2E2727",
"@  c #246432B32D2D",
"#  c #282834342E2E",
"$  c #2B2B37373131",
"%  c #29293B3B3535",
"&  c #2E2E43433D3D",
"*  c #303044443E3E",
"=  c #33F44B0B4343",
"-  c #37374F4F4848",
";  c #393950504747",
":  c #3BA253534AE4",
">  c #3EBF5A5A51D2",
",  c #44C552D34949",
"<  c #47475BE34CC5",
"1  c #535356564A4A",
"2  c #41C25B5B5252",
"3  c #55555D5D5151",
"4  c #5E40674B4DC0",
"5  c #494960605555",
"6  c #457863635A27",
"7  c #585865655757",
"8  c #585866665959",
"9  c #53136D2D61A1",
"0  c #55D672F366E7",
"q  c #5B5B70706363",
"w  c #515175756969",
"e  c #5E5E75756868",
"r  c #56567B7B6F6F",
"t  c #5A5A7C7C6F6F",
"y  c #6889714A613E",
"u  c #6C9F7DB06D06",
"i  c #4CF78A8A03AE",
"p  c #50508E8E0606",
"a  c #525294940707",
"s  c #58589E9E0505",
"d  c #575798980D0D",
"f  c #585898980F0F",
"g  c #5C2597071A48",
"h  c #5DDEA7A70687",
"j  c #5F5FABAB0707",
"k  c #5BBCB7ED00D4",
"l  c #6161ACAC0606",
"z  c #6090AC8A0C14",
"x  c #63E4B5340505",
"c  c #6464BD3D0081",
"v  c #6868BBBB0707",
"b  c #63B9B2B20C62",
"n  c #68BEBCBC0B36",
"m  c #6262AB2911DC",
"M  c #66A2A6A41CFB",
"N  c #6610B55F1212",
"B  c #6A6ABC2C136A",
"V  c #6B6BB2B21818",
"C  c #6CC2A418337D",
"Z  c #6D6DC57C052A",
"A  c #6E68C95F0161",
"S  c #6C6CC3830ACB",
"D  c #714DCAA805E6",
"F  c #737FCB80097C",
"G  c #7777CCCC1111",
"H  c #7C7CCECE1818",
"J  c #64B099EA46C4",
"K  c #669183625F0F",
"L  c #712DB2063FE0",
"P  c #75EEB20E59D5",
"I  c #5BF583507676",
"U  c #6363830374F5",
"Y  c #6B15834E7359",
"T  c #6C6C8D0D7D7D",
"R  c #7B258686741E",
"E  c #73F4890976F7",
"W  c #72C88BE17B7B",
"Q  c #7D7D8C8C7979",
"!  c #8383CFCF2525",
"~  c #8383CFCF2929",
"^  c #8787D0D02C2C",
"/  c #88CBD2EC2ED0",
"(  c #85A7CABF315C",
")  c #8787C8C83F3F",
"_  c #8C8CD2273636",
"`  c #8F8FD3D33E3E",
"'  c #8B8B94947F7F",
"]  c #931394947676",
"[  c #99499D317FE7",
"{  c #83EFA14F60DA",
"}  c #9426AE336B18",
"|  c #9337B12F77C7",
" . c #8A8ACBCB4141",
".. c #92F8D6FC40D1",
"X. c #9797D6D64B4B",
"o. c #9A9AD9D94F4F",
"O. c #9AA4D4FD52EA",
"+. c #9E9EDBDB5555",
"@. c #9D19D3A45B19",
"#. c #A8A8CF6E7FB8",
"$. c #AC5FD19B79ED",
"%. c #65E691918303",
"&. c #68E997178888",
"*. c #6B1599EF8B8B",
"=. c #731D929281D7",
"-. c #71719F9F8F8F",
";. c #7E7E9C1C8989",
":. c #6E6E9F9F9090",
">. c #6F6FA0A09191",
",. c #7474A4FA953F",
"<. c #7979A4A49393",
"1. c #7676ABAB9A9A",
"2. c #78F9ADED9D1D",
"3. c #7AFAB0B09F9F",
"4. c #7D7DB5B5A4A4",
"5. c #810194948101",
"6. c #8E8E9A9A8383",
"7. c #8520A18986E1",
"8. c #87B9B9E98708",
"9. c #8E0EA9A99494",
"0. c #8383AE2E9C1C",
"q. c #9D9DABAB9393",
"w. c #91AEB4F399DF",
"e. c #9A9AB3B39CF2",
"r. c #A2A2AEAE9595",
"t. c #A4A4B0B09797",
"y. c #A0E0B4B49C5C",
"u. c #AA2AB6369B1B",
"i. c #ABABB9B99F9F",
"p. c #84DABD12AAAA",
"a. c #8A8ABDBDAAAA",
"s. c #9696B7B7A1A1",
"d. c #9696B939A2A2",
"f. c #9B9BBA3AA2A2",
"g. c #A482BC67A370",
"h. c #ABEBBD7DA323",
"j. c #B131BEBEA423",
"k. c #A85ECAB7868E",
"l. c #B06BD317820A",
"z. c #BC20CFF59712",
"x. c #BFFFE6FF90E6",
"c. c #8707C1C1AEAE",
"v. c #913BC26CADAD",
"b. c #9C9CC5C5ADAD",
"n. c #8ABDC679B34C",
"m. c #8C43CA12B6B6",
"M. c #8E38CD22B9B9",
"N. c #9111C6C6B232",
"B. c #9494C8C8B3B3",
"V. c #9C9CCACAB433",
"C. c #9313CF0EBABA",
"Z. c #92ACD204BD8A",
"A. c #9D1DD252BC3C",
"S. c #AD32C30FA7B5",
"D. c #A580C47BAC63",
"F. c #ADADC5EAAC63",
"G. c #AF15C8FBAE47",
"H. c #B60CC30FA580",
"J. c #B5B5C6C6ACAC",
"K. c #BB75C633A9E2",
"L. c #B1B1CACAABAB",
"P. c #BDFDCC0BADAD",
"I. c #A5A2CD6BB466",
"U. c #AC6CCDCDB4F4",
"Y. c #A8A8CFCFB8B8",
"T. c #B45ECE23B333",
"R. c #A0E6D10FB709",
"E. c #AC56D0D0B7B7",
"W. c #A37ED48BBC4E",
"Q. c #A6A6D8D8BFBF",
"!. c #ACACD8D8BFBF",
"~. c #B3B3D1D1B660",
"^. c #B4B4D542BABA",
"/. c #BB7BD554BA3A",
"(. c #B7B7DADABEBE",
"). c #BCBCDB6DBF2C",
"_. c #C1C1E7E79494",
"`. c #C4C4E8E89797",
"'. c #C0C0CBCBAEAE",
"]. c #CECECFCFADAD",
"[. c #CAFCD6E7A478",
"{. c #C242CFCFB1B1",
"}. c #C444D2C0B3D8",
"|. c #C9C9D6D6B7B7",
" X c #C8C8D6D6B8B8",
".X c #C6C6DADABDBD",
"XX c #CDE7DC75BCBC",
"oX c #CACAE9E9A7A7",
"OX c #CECEEAEAADAD",
"+X c #D0D0EDEDADAD",
"@X c #94FBD608C15A",
"#X c #9797D9A6C4F7",
"$X c #9BF0DC3EC67D",
"%X c #9DFADEABC906",
"&X c #A1A1D7D7C0C0",
"*X c #A25FDE52C733",
"=X c #ABABDD5DC5C5",
"-X c #A2E5DF91C8DE",
";X c #B60BDD87C2C2",
":X c #BD3DDE9EC302",
">X c #9D9DE1E1CBFE",
",X c #B008E247C512",
"<X c #A4A4E22CCAF5",
"1X c #AB59E328CAF9",
"2X c #BF8CE1AEC592",
"3X c #B32AE4F5CB42",
"4X c #BAFAE666CB8B",
"5X c #B6B6E9E9CFCF",
"6X c #BC3CE969CE23",
"7X c #A1A1E6E6D0D0",
"8X c #B4B4EBEBD1D1",
"9X c #BB7BEDADD312",
"0X c #CCCCDEDEC1C1",
"qX c #C2A5E354C670",
"wX c #C28FE5D4C9A7",
"eX c #C3E0EA5BCE3F",
"rX c #D43AE349C25B",
"tX c #D88AE7ADC640",
"yX c #DA9AE928C7C7",
"uX c #D2A0ED83CE05",
"iX c #DD6FECA3CB5F",
"pX c #DCDCF1F1C3C3",
"aX c #C2C2ECECD0D0",
"sX c #CC21EE98D17B",
"dX c #D453EFEFD151",
"fX c #CECEF5F5D8D8",
"gX c #D4D4F247D328",
"hX c #DC7FF2DBD275",
"jX c #E47EF3F0D30A",
"kX c #EBEBF7F7DEDE",
"lX c #FFFFFFFFDCDC",
"zX c #EF43F851E548",
"xX c #FFA9FF54E5E5",
"cX c #F4F4FAFAECEC",
"vX c #F9F9FCFCF5F5",
"bX c #FBFBFDFDF8F8",
"nX c None",
/* pixels */
"nXnXnXnXnXnXnXnXnXnXnXnXnXnXnXnXnXnXnXnXnXnXnXnXnXnXnXnXnX@ > nX",
"nXnXnXnXnXnXnXnXnXnXnXnXnXnXnXnXnXnXnXnXnXnXnXnXnXnXnXnX% c.M.w ",
"nXnXnXnXnXnXnXnXnXnXnXnXnXnXnXnXnXnXnXnXnXnXnXnXnXnXnXnX* @X@XI ",
"nXnXnXnXnXnXnXnXnXr 6 nXnXnXnXnXnXnXnXnXnX. O O nXnXnXnXnX1.m.> ",
"nXnXnXnXnXnXnXnX&.m.C.I nXnXnXnXnXnX@ 6 >.c.m.m.c.*.6 # nX  X nX",
"nXnXnXnXnXnXnX- m.C.C.&.nXnXnXnXnXI 2.M.@X@X$X%X>X<X<XZ.>.$ nXnX",
"nXnXnXnXnXnXnX= Z.Z.Z.*.nXH.nX* 6 p.@X#X#X#X%X%X%X%X%X%X-XC.; nX",
"nXnXnXnXnXnXnXu %.p.1.:  XiXY ,.n.2.%X%X%X%X>X%X%X-X-X-X-X-Xa.nX",
"nXnXnXnXP.}.'.H.' Q nXnXyXt.6 m.#X%X#X%X-X-X*X*X-X-X<X<X-X-X1XU ",
"nXnXnXrX{.XX}. XnXrX}.$ 0 @ 4.Z.%X%X%X-X-X-X-X<X=X1X1X1X1X1X1X<.",
"nXnXrXP.nXXX}.yXnXo 9.v.m.& Z.$X#X%Xp.<.<X-X=X1X1X3X3X3X3X3X3X2.",
"nXnXrXnXnXrXnXnX' 3.n.n.m.= #X$X%X%X*X2 1X1X3X3X4X4X9X4X4X6X9XW ",
"nXXXXXnXnXiXnX= C.#X#X#X@X: >X>X%X-X-Xa.0 5X6X9XaXaXI.eXfXY.(.q ",
"nXrXXXnXnXjX7 M.$X#X#X>X>X- <X>X-X-X<X3XV.e s.g.D.sXg.3 8 e.U.; ",
"nXiXXXnXnXj.I.%X#X>X#X#X7X> #X>X-X-X1X3X6XaXD.T.gXdXgXhXhXgX' nX",
"}.iXrXnXnXS.).#X>X*.I n.>X4.%.<X-XN.V.3X6XeXsXdXdXhXhXhXhX/.o nX",
" XiXiXnXnXL.wXW.4.I m.>.Z.$XI B.=XA.T 3XaXsXsXuXhXhXjXjXXX+ nXnX",
"{.iXiX XnXf.wX;X%.4.>.%.>X*Xn.t B.8XV.=.U.qXuXtXyXiXjX/.1 xXnXnX",
"nXiXiXiX, d.wXwX;.n.6 $X%X*X<Xv.U T 9X;XD.S.k.k.$.l.} 4 [ ] lXnX",
"nXyXiXiXE v.qXwXS.A.> <X$X%X*X-X<XU # Y | @.^ H F H ! O.z.H.].nX",
"nXXXiXiXF.n.;X4XU..XW Z.>X*X<X1X5 9 U { _ D D D D A ..+._ } K.nX",
"nX XiXiXq.b.$X0X~.~.2XD.W.<X7XI s.' K ( F D F F A / cXx.A ( [.nX",
"nXnXyXiXy.L.W.&X2Xg.qX~.i.e.w ;.=XI.C G F F F D D `.vXA D G V nX",
"nXnXrXjXe.).L.W.&X(.S.2XqXqX;XA.U w.M D F D D D _ cXo.D D D x nX",
"nXnXnXiXh.:X^.T.Y.W.E.S.G.G.g.=.9 7.M F D D A F +XpXG D D F l nX",
"nXnXnXrX}.L.wX2XqX;XY.W.~.T.I.*X*X< g Z ~ _.X.` bXO.D Z D S h nX",
"nXnXnXnXyXh.(.qXwXwXqX~.W.%X%X<X*X,XL v c +XvXkXoXS v Z S n s nX",
"nXnXnXnX{.yXh.J.^.2X2X:X).^.*X*X<X*X8.z n k jXzX .c v S n l nXnX",
"nXnXnXnXnX}.iXXXH.y.G.^.qXqX!.%X*X1X$XP b B B ) c B B B b i nXnX",
"nXnXnXnXnXnXP.yXiXr.F.wXwXwX^.$X*X<.#XI.J m N N B N b h i nXnXnX",
"nXnXnXnXnXnXnXnXXXiX{.h.T./.f.4.: 9 0.Y y nXp f f a i nXnXnXnXnX",
"nXnXnXnXnXnXnXnXnXnX{.XXP.u.nXnXnXR 6.u.nXnXnXnXnXnXnXnXnXnXnXnX"
};
