/* XPM */
static char *maelstrom[] = {
/* columns rows colors chars-per-pixel */
"32 32 201 2 ",
"   c #0114010D010D",
".  c #01E4028A0143",
"X  c #038805860135",
"o  c #0B3B0B310B31",
"O  c #12200F150F1C",
"+  c #0C2411BA11BA",
"@  c #13F013E813E8",
"#  c #14DF1C031C03",
"$  c #1C551E791A48",
"%  c #1C6E1C661C66",
"&  c #1FBF1DEF1DEF",
"*  c #1E0120A21AF7",
"=  c #228D251E1F63",
"-  c #2A313AE117EB",
";  c #1B8622112211",
":  c #210021092109",
">  c #2114223F1FE8",
",  c #289126E826E8",
"<  c #29972BF026C7",
"1  c #2A812CF5279D",
"2  c #2A392DBF2618",
"3  c #242F2A282A28",
"4  c #298B29932993",
"5  c #29B529BD29BD",
"6  c #2A512C0F2848",
"7  c #2AD62D26281D",
"8  c #2B4C2D47291F",
"9  c #307A2F612F61",
"0  c #2C3A31A92504",
"q  c #31CA32AE2E76",
"w  c #32EB36402EB1",
"e  c #2CC833EE33EE",
"r  c #334E333B333B",
"t  c #364736EA3537",
"y  c #39493B803776",
"u  c #355A3B193B19",
"i  c #3B943BAC3BAC",
"p  c #32BE576F095B",
"a  c #371459E30DF6",
"s  c #38CB5C530E3F",
"d  c #3A315D0711AD",
"f  c #38B3448B2B14",
"g  c #4A1B7BA51087",
"h  c #4A4F5E4830C3",
"j  c #53F26B7035C6",
"k  c #56BD6E0B37D0",
"l  c #3E0740554055",
"z  c #343A53005300",
"x  c #3AA1569F569F",
"c  c #3BAD5B465B46",
"v  c #43EA43D843D8",
"b  c #452C4A7B4A7B",
"n  c #4B2E4BB74BB7",
"m  c #50984F534F53",
"M  c #4D0D52CB52CB",
"N  c #540B54835483",
"B  c #539E59F259F2",
"V  c #5A535A255A25",
"C  c #5B435BB95A1F",
"Z  c #43F264566456",
"A  c #5EFD60226022",
"S  c #644F643B643B",
"D  c #64EB658863FD",
"F  c #67AC6BD06BD0",
"G  c #684B69066906",
"H  c #6A216BB969A1",
"J  c #6B3D6BFD6BFD",
"K  c #6EA16FC96D72",
"L  c #775F7C816FDC",
"P  c #691F702E702E",
"I  c #748474767476",
"U  c #76787A817A81",
"Y  c #7BBB7B927B92",
"T  c #508787970E05",
"R  c #536E8DF10B2D",
"E  c #579394C30BB3",
"W  c #50F5819516B9",
"Q  c #5E65A97E076F",
"!  c #5BF1A47C07A4",
"~  c #5EF1AA0A09F5",
"^  c #5B0BB70A000B",
"/  c #6363B7B70404",
"(  c #6300BA000101",
")  c #6565BFBF0000",
"_  c #6868BBBB0707",
"`  c #6262B1B10909",
"'  c #6363B1B10F0F",
"]  c #6565B4B40D0D",
"[  c #6868BCBC0808",
"{  c #6868BCBC0909",
"}  c #6868BDBD0B0B",
"|  c #6A00BE000A01",
" . c #6868BBBB0E0E",
".. c #6868BABA0F0F",
"X. c #60BDA947105A",
"o. c #6910A75C1D78",
"O. c #6565B2B21111",
"+. c #6565B5B51010",
"@. c #6767B7B71515",
"#. c #6900BC001001",
"$. c #6969BCBC1212",
"%. c #6A6AB9B91717",
"&. c #6C00BD001401",
"*. c #6241967426D2",
"=. c #61BE92D929EF",
"-. c #688599912E5A",
";. c #63428CFE316F",
":. c #649A8E5632C8",
">. c #663595D32FE3",
",. c #6A1DA14A2797",
"<. c #6EA6A99A2797",
"1. c #7660A7013D83",
"2. c #6A6AC6C60000",
"3. c #6D6DC4C40303",
"4. c #6B6BC1C10707",
"5. c #6C6CC1C10606",
"6. c #6F6FC7C70606",
"7. c #6F6FC7C70707",
"8. c #6B6BC8C80000",
"9. c #6D6DC8C80000",
"0. c #6F00C8FF0201",
"q. c #6F6FC9C90202",
"w. c #6B6BC3C30909",
"e. c #6E6EC2C20B0B",
"r. c #6E6EC6C60808",
"t. c #6969C0C00F0F",
"y. c #7038C9E40403",
"u. c #7070CACA0404",
"i. c #710ACA09070B",
"p. c #7229CA28072A",
"a. c #7171CACA0707",
"s. c #7272CBCB0707",
"d. c #7272CABC081A",
"f. c #7272CBCB0808",
"g. c #7373CBCB0808",
"h. c #7272CBCB0909",
"j. c #7365CBAE091D",
"k. c #7373CACA0B0B",
"l. c #7575CBCB0B0B",
"z. c #7575CBCB0E0E",
"x. c #7676CBCB0F0F",
"c. c #7575CCCC0C0C",
"v. c #7575CCCC0D0D",
"b. c #7777CCCC1111",
"n. c #7C7CCECE1818",
"m. c #71A7858F577C",
"M. c #74448CA05384",
"N. c #798D9A1052A7",
"B. c #779092055A31",
"V. c #73A58374618F",
"C. c #759883C164C0",
"Z. c #75E383C165A3",
"A. c #7F8E8AC271E7",
"S. c #8383CFCF2525",
"D. c #8130C77B2D38",
"F. c #8383CFCF2929",
"G. c #8787D0D02C2C",
"H. c #8813D2122E14",
"J. c #84AEC7FF30AA",
"K. c #8787C8C83F3F",
"L. c #8B8BD0D03535",
"P. c #8C8CD0D03636",
"I. c #8D8DD4D43737",
"U. c #8F8FD3D33E3E",
"Y. c #8F7EAF7D6814",
"T. c #8A87B38062C8",
"R. c #8A8ACBCB4141",
"E. c #92DECA4B4DD3",
"W. c #9200D5FF4001",
"Q. c #9797D6D64B4B",
"!. c #9A9AD9D94F4F",
"~. c #9898CE145679",
"^. c #9A9AD7D75151",
"/. c #9E9EDBDB5555",
"(. c #80F980708070",
"). c #83CE83F1824A",
"_. c #849D84108410",
"`. c #89A589A189A1",
"'. c #89A58A1788E3",
"]. c #8DE98DE58DE5",
"[. c #8D1E933C933C",
"{. c #975397539753",
"}. c #9C379C769C76",
"|. c #A362A1F7A1F7",
" X c #BBEABBF2BBF2",
".X c #BF00E5FF9000",
"XX c #C1C1E7E79494",
"oX c #C4C4E8E89797",
"OX c #CACAE9E9A7A7",
"+X c #CECEEAEAADAD",
"@X c #D0D0EDEDADAD",
"#X c #C210C219C219",
"$X c #DCDCF1F1C3C3",
"%X c #E5E5F3F3D5D5",
"&X c #EBEBF7F7DEDE",
"*X c #EEFFF7FFE4FF",
"=X c #F3F3FAFAEBEB",
"-X c #F5F5FAFAEDED",
";X c #F9F9FCFCF4F4",
":X c #F9F9FCFCF6F6",
">X c #FBFBFDFDF8F8",
/* pixels */
"  : 5 5 5 5 5 5 5 5 5 5 5 5 5 5 5 5 5 , 5 5 5 5 5 , 5 5 5 5 :   ",
"% {.{.].].].].].].].].].].].].].].].].].].[.].].].].].].].{.{.: ",
"5 {.i % : % : : % : : : : % : : : & ; & : : & & : & : % % i {.5 ",
"5 ].%                           o                         % ].5 ",
"5 ].%                     o o o % % @ o ; r & o           : ].5 ",
"5 ].:                 o ; i u , 5 n i 3 l i , 9 o         % ].5 ",
"5 ].:         @ @ ; u v S N x u i n n 5 l i 5 n i @ o     : ].5 ",
"5 ].&       @ r u z M N V n b , % b c 3 i m m n v i i @   : ].5 ",
"5 ].:     o r v e 5 i r v M V 5 @ i u , N U J M l r v %   : ].5 ",
"5 ].%     % i v l i , @ , z M S % o @ , S V e c M i v r o % ].5 ",
"5 ].:   @ , 5 i v i + o + # , N ; o @ % v r @ b N 5 5 r o : ].5 ",
"5 ].:   r n 5 5 i % @ 5 @   o @ % o % @ , , o r F i @ ; o % ].5 ",
"5 ].:   , n M v 9 o , @ % u n v M c B F V S N V J % # c 3 & ].5 ",
"5 ].%     ; z i & @ @ & v Z J Y }.[.}.].J I I U n 5 A J ; & ].5 ",
"5 ].:       + # % @ r I U B N I {.]._.P N n n N V N v ,   : ].5 ",
"5 ].:         o % i {. X|.S M m V n v v i v : v Y J @     % ].5 ",
"5 ].&         o u |.#X#X XU M b , % : % % 3 % l _._.8     : ].5 ",
"5 ].:     % o @ I  X#X X{.u ; u o   o 5 N I V t G ).S @   : ].5 ",
"5 ].&   % v r v J ].}.Y e   o o o & v U (.L M.N.T.Y.B.0   ; ].5 ",
"5 ].;   , V Y U i i 5 %     o % v N I K m.~.G.n.v.n.S.E.h : ].5 ",
"5 ].%   : V I J r @     o   : S _._.G k P.v.y.g.g.0.W./.P.j '.5 ",
"5 ].;   o @ @ 5 5   o   o , J ].].J f D.l.i.g.g.0.H.-X.X0.J.A.5 ",
"5 ].&       % n N %   @ @ N }.{.I q W z.i.g.g.g.y.oX:X2.g.v.1.7 ",
"5 ].&       % i i r @ ; r I ].U n = R g.l.i.g.0.I.=X!.0.g.s.<.1 ",
"5 ].:         , i n A Z P V v , : w E g.g.0.y.g.@X$Xb.i.g.g.o.1 ",
"5 ].%         % i n S B V V n @ o % T 2.F.oXQ.U.:X^.7.7.7.r.,.1 ",
"5 ].&         + % @ @ , v I ].r + X g [ ) +X;X&XOXe.4.4.4.| -.1 ",
"5 ].:                   : V Y l % O - ~ } ^ %X*XR.( { | t.Q V.5 ",
"5 ].%                   o r r @     X p ] #.%.K./  .#.$.` s '.5 ",
"5 {.i % % : : % : % % : % % % % % : : $ d X.O.] %.@.' ! a y {.5 ",
": {.{.].].].].].].].].].].].].].].].].].'.C.;.>.*.=.;.C.'.{.{.% ",
"  % 5 5 5 5 5 5 5 5 5 5 5 5 5 5 5 5 5 5 5 5 7 1 1 5 7 5 5 5 :   "
};
