/* XPM */
static char *meritous[] = {
/* columns rows colors chars-per-pixel */
"32 32 208 2 ",
"   c #38816A82276D",
".  c #39CD6BCF2614",
"X  c #3F1876B22103",
"o  c #438F79AC26F7",
"O  c #437F6DAF3AE0",
"+  c #48AB72F33D4E",
"@  c #176336FB4D4D",
"#  c #1CC23CA64C6A",
"$  c #221A3ED659D6",
"%  c #0A6D23F96390",
"&  c #0BB725F36197",
"*  c #09E02255650A",
"=  c #0AD1250A65B7",
"-  c #0A2224036681",
";  c #07D020386878",
":  c #09A823876886",
">  c #080821216B6B",
",  c #0AAD24F168BE",
"<  c #0F8F27DE680C",
"1  c #10D82A4B63D6",
"2  c #103D28EA67A0",
"3  c #101029296B6B",
"4  c #120C2C57682D",
"5  c #101029297373",
"6  c #176F2FD77048",
"7  c #181831317373",
"8  c #1AD933E472BC",
"9  c #212139397B7B",
"0  c #2F4B50245510",
"q  c #29F241086968",
"w  c #292942427B7B",
"e  c #48E16B7B56BC",
"r  c #475258F67B9B",
"t  c #4D6B6C9F6051",
"y  c #540B734062CC",
"u  c #4D938EBB1F13",
"i  c #51F694981785",
"p  c #5D4BA63C0A8C",
"a  c #5BBEB7C600D8",
"s  c #6014AB4E09C4",
"d  c #61E4ACFE0CE9",
"f  c #6363B7B70404",
"g  c #63BEBAC601D8",
"h  c #6565BFBF0000",
"j  c #6868BBBB0707",
"k  c #6262B1B10909",
"l  c #6363B1B10F0F",
"z  c #6565B4B40D0D",
"x  c #6868BCBC0808",
"c  c #6868BCBC0909",
"v  c #6868BDBD0B0B",
"b  c #6B00BF000B01",
"n  c #6868BBBB0E0E",
"m  c #6868BABA0F0F",
"M  c #6109AA2B1297",
"N  c #6565B2B21111",
"B  c #6565B5B51010",
"V  c #6767B7B71515",
"C  c #69A5BCAD10C7",
"Z  c #6969BCBC1212",
"A  c #6A6AB9B91717",
"S  c #6C31BD411485",
"D  c #477A80B31FED",
"F  c #4F3D8C5F230B",
"G  c #4BD984753290",
"H  c #541A8A01305E",
"J  c #7CC0BA383128",
"K  c #6A6AC6C60000",
"L  c #6D6DC4C40303",
"P  c #6B6BC1C10707",
"I  c #6C6CC1C10606",
"U  c #6F6FC7C70606",
"Y  c #6F6FC7C70707",
"T  c #6B6BC8C80000",
"R  c #6D6DC8C80000",
"E  c #6F20C938027C",
"W  c #6F6FC9C90202",
"Q  c #6B6BC3C30909",
"!  c #6E6EC2C20B0B",
"~  c #6E6EC6C60808",
"^  c #6969C0C00F0F",
"/  c #7044C9FD043C",
"(  c #7070CACA0404",
")  c #7107CA20076C",
"_  c #7220CA38077C",
"`  c #7171CACA0707",
"'  c #7272CBCB0707",
"]  c #720FCA28086C",
"[  c #7272CACA0808",
"{  c #7272CBCB0808",
"}  c #7373CBCB0808",
"|  c #7272CBCB0909",
" . c #7373CBCB0909",
".. c #7384CB9409B6",
"X. c #7373CACA0B0B",
"o. c #7575CBCB0B0B",
"O. c #7575CBCB0E0E",
"+. c #7676CBCB0F0F",
"@. c #7575CCCC0C0C",
"#. c #7575CCCC0D0D",
"$. c #7777CCCC1111",
"%. c #7C7CCECE1818",
"&. c #56D4809446FB",
"*. c #647585E664B1",
"=. c #8383CFCF2525",
"-. c #8383CFCF2929",
";. c #8787D0D02C2C",
":. c #8900D2FF2F01",
">. c #8407C81632CA",
",. c #84BCCB79321F",
"<. c #8787C8C83F3F",
"1. c #8B8BD0D03535",
"2. c #8C8CD0D03636",
"3. c #8D8DD4D43737",
"4. c #8F8FD3D33E3E",
"5. c #84E8BC5F42CD",
"6. c #8A50BC58513B",
"7. c #8B8CB04165F8",
"8. c #830BA2337AA7",
"9. c #90D5B44D75BA",
"0. c #8AD6C5CB4307",
"q. c #8A8ACBCB4141",
"w. c #928CD69C40BE",
"e. c #9797D6D64B4B",
"r. c #9A9AD9D94F4F",
"t. c #93E0CC0F51AB",
"y. c #96FACD3F57F8",
"u. c #993EC9E15F04",
"i. c #9A9AD7D75151",
"p. c #9E9EDBDB5555",
"a. c #A87CCC7C7D9C",
"s. c #313142428484",
"d. c #31314A4A8484",
"f. c #39394A4A8484",
"g. c #393952528C8C",
"h. c #424252528C8C",
"j. c #42425A5A8C8C",
"k. c #4A4A5A5A9494",
"l. c #4A4A63639494",
"z. c #525263639494",
"x. c #5A5A6B6B9C9C",
"c. c #656F7678994D",
"v. c #636373739C9C",
"b. c #63637373A5A5",
"n. c #6B6B7B7BA5A5",
"m. c #73738484ADAD",
"M. c #7B7B8484ADAD",
"N. c #7B0E8C07A9E5",
"B. c #7B7B8C8CADAD",
"V. c #9787B2CF8409",
"C. c #84848C8CB5B5",
"Z. c #84F79519B18D",
"A. c #84849494B5B5",
"S. c #8C8C9494B5B5",
"D. c #8C8C9C9CBDBD",
"F. c #94949C9CBDBD",
"G. c #9494A5A5BDBD",
"H. c #B42BD3178BAD",
"J. c #BF17E6309073",
"K. c #BB30CBDAA8E3",
"L. c #C1C1E7E79494",
"P. c #C4C4E8E89797",
"I. c #CACAE9E9A7A7",
"U. c #CECEEAEAADAD",
"Y. c #D0D0EDEDADAD",
"T. c #9C9CA5A5C6C6",
"R. c #9C9CADADC6C6",
"E. c #A476ACF6C3D3",
"W. c #A5A5ADADC6C6",
"Q. c #A865B0D1C7C1",
"!. c #A5A5B5B5CECE",
"~. c #ADADB5B5CECE",
"^. c #B5B5BDBDCECE",
"/. c #B5B5BDBDD6D6",
"(. c #BCFFC5FED605",
"). c #BDBDC6C6D6D6",
"_. c #CE48DA1BC0A4",
"`. c #C6C6C6C6DEDE",
"'. c #C6C6CECEDEDE",
"]. c #CECECECEDEDE",
"[. c #CDB6D60ADC4F",
"{. c #CECED6D6DEDE",
"}. c #DCDCF1F1C3C3",
"|. c #E5E5F3F3D5D5",
" X c #EBEBF7F7DEDE",
".X c #CECED6D6E7E7",
"XX c #D6D6D6D6E7E7",
"oX c #D6D6DEDEE7E7",
"OX c #DEDEDEDEE7E7",
"+X c #DEDEE7E7EFEF",
"@X c #EC58EFBFE830",
"#X c #E7E7E7E7EFEF",
"$X c #EF51F862E593",
"%X c #F3F3FAFAEBEB",
"&X c #F5F5FAFAEDED",
"*X c #EFEFEFEFF7F7",
"=X c #F42FF6D8F12C",
"-X c #F54EF7D7F21B",
";X c gray97",
":X c #F962FA0BF864",
">X c #FA74FC78F827",
",X c #F9F9FCFCF4F4",
"<X c #F9F9FCFCF6F6",
"1X c #F7F7FFFFFFFF",
"2X c #F8F8F8F8F8F8",
"3X c #FACDFCC1F888",
"4X c #FBFBFDFDF8F8",
"5X c gray100",
/* pixels */
"> > > > > > > > > > > > > > > > > > > > > > > > > > > > > > > > ",
"> > > > > > > > > > > > > > > > > > > > > > > > > > > > > > > > ",
"> > > > > > > > > > > > > > > > > > > > > > > > > > 3 3 > > > > ",
"> > > > > > > > > > > > > > > > > > > > > > > > 3 9 k.s.3 > > > ",
"> > > > > > > > > > > > > > > > > > > > > > > 3 w m./.M.7 > > > ",
"> > > > > > > > > > > > > > > > > > > > > > 3 d.C./.`.n.5 > > > ",
"> > > > > > > > > > > > > > > > > > > > > > 5 n..X;X~.l.3 > > > ",
"> > > > > > > > > > > > > > > > > > > > > > 7 S.5X5XT.s.> > > > ",
"> > > > > > > > > > > > > > > > > > > > > > 7 D.5X5XF.9 3 > > > ",
"> > 3 3 > > > 3 3 3 > > > > 3 3 3 > > > > 5 f.T.5X5XT.v.j.9 > > ",
"> 7 f.l.s.5 7 l.n.j.7 > > 5 h.n.v.s.3 > 3 f.F./.5X5X'./.~.k.3 > ",
"7 x.W.).F.b.m.~.OX~.b.9 9 x.W.oX`.S.k.7 3 l.).XX;X5X1X{.^.l.3 > ",
"h.!.*X5X#X/.).1X5X;X/.C.m.!.*X5X5XoX!.M.f.w b.T.OX5XoXG.x.9 > > ",
"l.).*X5X5X+XOX+X5X5X5X'.).).`.#X5X5X;XXXn.5 7 C.oX5X'.n.7 > > > ",
"w M.).5X5X].T.F.).*X5X5X/.M.m.T.XX5X5X'.b.3 7 B.oX5X).x.3 > > > ",
"3 h.~.5X5X/.x.s.n./.5X5XW.g.7 z.~.5X5X~.j.3 7 B.oX5X^.k.3 > > > ",
"> f.W.5X5X^.k.3 w G.5X5XR.s.3 f.W.5X5XW.d.> 7 B.oX5X~.g.3 > > > ",
"> w T.5X5X^.k.3 7 D.5X5XF.7 > f.W.5X5XF.9 > 8 N.[.:XE.f.3 > > > ",
"> 7 F.5X5X^.k.3 7 D.5X5XD.7 > d.W.5X5XD.6 q *.9.a.H.V.r ; > > > ",
"> 7 D.5X5X^.k.3 7 D.5X5XD.7 > w T.5X5XZ.y y.;.%.@.%.=.t.t * > > ",
"> 7 D.5X5X~.g.3 7 D.5X5XD.7 > 7 F.5X2X8.2.#.) ) ) E w.p.1.e ; > ",
"> 7 D.5X5XW.f.3 7 D.5X5XD.7 > 7 D.5X_.,.o.) } } E :.&XJ.T >.$ > ",
"> 7 D.5X5XW.f.> 7 D.5X5XD.7 > 7 D.3Xu.O.) } } ) ( P.<XK } #.G , ",
"> 7 D.5X5XQ.s.; 7 D.5X5XF.7 > 7 F.-X0.} o.) } E 3.%Xr.E } ) u = ",
"> 9 G.5X5XT.s.3 9 F.5X5XW.d.< w T.@XJ } } U E } Y.}.$.} } } i % ",
"3 z.^.5X5X/.b.7 g.W.5X5X/.x.5 h.~.=X5.E -.L.e.4.<Xi.U } U ~ F = ",
"7 A.#X5X5X;XT.s.x.'.5X5XoXA.9 k./.:X6.j h U.,X XI.! P I Q c H 4 ",
"5 n.'.5X5X'.n.7 l.^.;X5X#XD.9 9 m.(.K.d v a |.$Xq.g c c ^ s 0 > ",
"3 s.B.).{.A.s.3 7 v.~.OXW.z.3 3 w n.Q.7.z n S q.f n C C k + 2 > ",
"> 3 w x.v.d.3 > > 7 j.n.j.7 > > ; 7 k.c.&.M N z A V l p O 1 > > ",
"> > > 3 3 3 > > > > 3 3 3 > > > > > 3 3 2 @   o D X . # < > > > ",
"> > > > > > > > > > > > > > > > > > > > > > > = % = > > > > > > "
};
