/* XPM */
static char *mlgui[] = {
/* columns rows colors chars-per-pixel */
"32 32 155 2 ",
"   c black",
".  c #185018501850",
"X  c #190019001900",
"o  c #19A51AC71871",
"O  c #1D361DEB1C38",
"+  c #235D313E1320",
"@  c #360E3B842EDF",
"#  c #323E32EA31A4",
"$  c gray20",
"%  c #35DB5F98040A",
"&  c #00007F000000",
"*  c #36784722242B",
"=  c #7DDA7FCE0091",
"-  c #7F007F000000",
";  c #7EEE7F910274",
":  c #506667E13236",
">  c #550168FD3B78",
",  c #499E499E499E",
"<  c #4C004C004C00",
"1  c #660066006700",
"2  c #7C567EDF7923",
"3  c #000080800000",
"4  c #027D80F90030",
"5  c #4B4B88880303",
"6  c #4D4D8A8A0404",
"7  c #4E4E8C8C0404",
"8  c #46AA9D60048F",
"9  c #525294940707",
"0  c #58589E9E0505",
"q  c #575798980D0D",
"w  c #585898980F0F",
"e  c #54AA86B31B95",
"r  c #4B97A64B03C8",
"t  c #5D5DA7A70707",
"y  c #5E5EA7A70606",
"u  c #5F5FABAB0707",
"i  c #5DE0A8FA08E5",
"p  c #5B99B799009A",
"a  c #6161ACAC0606",
"s  c #6464B2B20606",
"d  c #6363B7B70404",
"f  c #6333BA320133",
"g  c #6565BFBF0000",
"h  c #6868BBBB0707",
"j  c #6262B1B10909",
"k  c #6363B1B10F0F",
"l  c #6565B4B40D0D",
"z  c #6868BCBC0808",
"x  c #6868BCBC0909",
"c  c #6868BDBD0B0B",
"v  c #6A6ABEBE0A0A",
"b  c #6868BBBB0E0E",
"n  c #6868BABA0F0F",
"m  c #6442ACCC13DF",
"M  c #66AAA4221B12",
"N  c #6565B2B21111",
"B  c #6565B5B51010",
"V  c #6767B7B71515",
"C  c #6969BCBC1010",
"Z  c #6969BCBC1212",
"A  c #6A6AB9B91717",
"S  c #6CB2BDB114B3",
"D  c #6B6BB2B21818",
"F  c #44C395BE2693",
"G  c #494696B42F2F",
"H  c #78B7A95A3E7D",
"J  c #6A6AC6C60000",
"K  c #6D6DC4C40303",
"L  c #6B6BC1C10707",
"P  c #6C6CC1C10606",
"I  c #6F6FC7C70606",
"U  c #6F6FC7C70707",
"Y  c #6B6BC8C80000",
"T  c #6D6DC8C80000",
"R  c #6F6DC9B0021B",
"E  c #6B6BC3C30909",
"W  c #6E6EC2C20B0B",
"Q  c #6E6EC6C60808",
"!  c #6969C0C00F0F",
"~  c #7038C9E40402",
"^  c #7070CACA0404",
"/  c #7133CA320733",
"(  c #7171CACA0707",
")  c #724BCA4B074C",
"_  c #7272CBCB0707",
"`  c #71FFC9FE0800",
"'  c #7272CACA0808",
"]  c #7272CBCB0808",
"[  c #7373CBCB0808",
"{  c #7272CBCB0909",
"}  c #7373CBCB0909",
"|  c #7373CACA0B0B",
" . c #7575CBCB0B0B",
".. c #7575CBCB0E0E",
"X. c #7676CBCB0F0F",
"o. c #7575CCCC0C0C",
"O. c #7575CCCC0D0D",
"+. c #7777CCCC1111",
"@. c #7C7CCECE1818",
"#. c #6E7B9330451D",
"$. c #7692957D4E14",
"%. c #772F8F925675",
"&. c #7F9184BE7819",
"*. c #8383CFCF2525",
"=. c #8383CFCF2929",
"-. c #80E1CAB42CE9",
";. c #8787D0D02C2C",
":. c #8888D2D22E2E",
">. c #83CFC72D2FD7",
",. c #8787C8C83F3F",
"<. c #8B8BD0D03535",
"1. c #8C8CD0D03636",
"2. c #8D8DD4D43737",
"3. c #8F8FD3D33E3E",
"4. c #8F8FB5B55E5E",
"5. c #8F20B1F36698",
"6. c #8A8ACBCB4141",
"7. c #939ECB0C4E94",
"8. c #91FFD5FE3FFF",
"9. c #9797D6D64B4B",
"0. c #9A9AD9D94F4F",
"q. c #99ECCF6857D5",
"w. c #9A9AD7D75151",
"e. c #9E9EDBDB5555",
"r. c #9898C2C26161",
"t. c #9C9CC7C76262",
"y. c #800080008000",
"u. c #8F9592FC8B6D",
"i. c #9118924C8FF6",
"p. c #93CF967890CC",
"a. c #956295629562",
"s. c #98FF98FF9906",
"d. c gray60",
"f. c #97D6A3A98A32",
"g. c #B200B200B200",
"h. c #BF32E6329032",
"j. c #C1C1E7E79494",
"k. c #C4C4E8E89797",
"l. c #CACAE9E9A7A7",
"z. c #CECEEAEAADAD",
"x. c #D0D0EDEDADAD",
"c. c gray80",
"v. c #D6C9D8F4D4C4",
"b. c #DCDCF1F1C3C3",
"n. c #E5E5F3F3D5D5",
"m. c #EBEBF7F7DEDE",
"M. c gray90",
"N. c #EF7FF87FE57F",
"B. c #F3F3FAFAEBEB",
"V. c #F5F5FAFAEDED",
"C. c #F9F9FCFCF4F4",
"Z. c #F9F9FCFCF6F6",
"A. c #FBFBFDFDF8F8",
"S. c gray100",
"D. c None",
/* pixels */
"D.D.D.D.D.D.D.D.D.D.D.D.D.D.D.D.D.D.D.D.D.D.D.D.D.D.D.D.D.D.D.D.",
"D.D.D.D.D.D.D.D.D.D.D.D.D.D.D.D.D.D.D.D.D.D.D.D.D.D.D.D.D.D.D.D.",
"D.D.D.D.D.D.D.D.D.D.D.D.D.D.D.D.D.D.D.D.D.D.D.D.D.D.D.D.D.D.D.D.",
"D.D.D.D.D.D.D.D.D.D.  X < 1 y.1 1 y.1 X X D.D.D.D.D.D.D.D.D.D.D.",
"D.D.D.& X X   D.  X y.c.M.S.c.g.g.M.M.M.d.1 X   X X X X D.D.D.D.",
"D.$ y.g.c.c.< X 1 c.M.M.c.c.g.1 1 c.c.M.M.M.g.$ < c.c.y.y.<   D.",
"D.y.c.d.3 d.c.g.c.c.g.y.$ $ g.g.g.y.X $ 1 g.M.c.c.g.g.g.g.c.X D.",
"D.y.c.1 3 3 g.M.g.y.X   D.  X < $ X D.D.  $ y.c.g.3 3 - 3 c.X D.",
"D.1 c.d.d.3 & c.g.X D.D.D.D.D.D.D.D.D.D.D.D.< c.3 3 3 g.g.c.X D.",
"D.X g.g.M.3 3 y.c.<   D.D.X < 1 1 X X D.D.X g.d.3 1 g.g.g.<   D.",
"D.  X $ d.c.1 3 3 g.$ X 1 d.c.g.g.g.d.& $ y.g.3 & d.c.1 $   D.D.",
"D.D.  $ 1 d.g.3 3 d.g.g.g.d.3 3 3 3 d.g.g.g.3 3 d.c.y.1 $ D.D.D.",
"D.D.X < < < d.d.1 3 g.d.3 - 3 y.d.3 1 3 d.3 y.y.g.< < < $   D.D.",
"D.D.X y.y.$ < d.y.d.3 3 3 d.d.d.g.d.y.y.- 3 3 g.y.X < d.<   D.D.",
"D.  X < 1 X X 1 d.d.3 y.g.d.y.< < y.d.d.d.3 y.d.$   $ 1 $   D.D.",
"D.  X $ X X   X y.3 3 d.d.$ X D.D.X & d.d.3 3 1     X $ $ X D.D.",
"D.    X     D.D.- d.d.3 y.$ D.D.D.D.< y.& d.d.< D.D.  X     D.D.",
"D.        D.D.D.X y.y.y.y.1   D.D.X y.y.g.& - O D.D.D.      D.D.",
"D.  X     D.D.D.D.$ y.3 3 y.X D.D.$ 1 3 a.&.%.$.t.r.4.@ X   D.D.",
"D.  X X X D.D.D.D.X y.3 d.y.$ D.D.< 3 i.G q.;.@.O.@.*.7.> X D.D.",
"D.D.X $ $   D.D.D.  < y.d.d.- X X < a.F 1.O.~ / ] T 8.e.<.: D.D.",
"D.D.X < $ X D.D.D.D.& 1 3 d.1 X X 1 f.-. ./ ]  .T :.V.h.Y >.D.D.",
"D.D.  < 1 $   D.D.D.  < y.3 y.$ $ - H ..] ] ] ] / k.Z.J ] O.D D.",
"D.D.D.$ y.1 X   D.D.D.X 1 d.3 < < 2 r ] ] ] ] R 1.B.0.~ ] _ s D.",
"D.D.D.X 1 d.1     D.D.X $ y.3 1 & u.M [ ] ~ T ] x.b.+.] ]  .a D.",
"D.D.D.  $ d.d.y.1 X     $ - d.- - p.8 L =.j.9.3.A.w.~ ] Q Q y D.",
"D.D.D.D.D.< g.d.d.y.$ D.X $ d.g.g.4 e x g z.C.m.l.W L L E z 0 D.",
"D.D.D.D.D.  1 y.1 d.y.X   X y.3 d.d.* t b p n.N.6.f z z ! u D.D.",
"D.D.D.D.D.D.  $ d.c.M.g.y.$ & y.3 < $ #.l b S 6.d b Z Z j 6 D.D.",
"D.D.D.D.D.D.D.  X y.c.M.S.g.$ $ $ $ y.v.5.m N B A V k t 5 D.D.D.",
"D.D.D.D.D.D.D.D.D.  X 1 d.c.y.y.y.y.g.y., + % w q 9 7 D.D.D.D.D.",
"D.D.D.D.D.D.D.D.D.D.D.D.  X X $ X X X X D.D.D.D.D.D.D.D.D.D.D.D."
};
