/* XPM */
static char *mlview_app_icon[] = {
/* columns rows colors chars-per-pixel */
"32 31 256 2 ",
"   c #023701EE01A8",
".  c #08E605EC02DA",
"X  c #0B9408BB054C",
"o  c #0C280C280C28",
"O  c #13B70A7A020B",
"+  c #1C8316470682",
"@  c #130010420809",
"#  c #1EBA125307A2",
"$  c #0F760F930FF1",
"%  c #142113CC12D8",
"&  c #1BF51BE61BD6",
"*  c #20CB0EFC0000",
"=  c #2CD515560179",
"-  c #20AF158F0D46",
";  c #34191C280622",
":  c #3B2B1DBF0306",
">  c #300C1EB50EE7",
",  c #27241AE40FB9",
"<  c #28B61DDE1166",
"1  c #2B1C23C80D3E",
"2  c #35D020650683",
"3  c #3C5E207D05E3",
"4  c #308A26340C85",
"5  c #3D382C7A0B8F",
"6  c #206820311EBA",
"7  c #34772D6A1989",
"8  c #36132BB4120B",
"9  c #3E3C327812A0",
"0  c #265E25F925DD",
"q  c #2BC52BC62B9D",
"w  c #35DE2DC925EF",
"e  c #3A3434252AFD",
"r  c #31BB31C431D9",
"t  c #3AF23AA13A33",
"y  c #4E021DA70000",
"u  c #44B81D7B0AC6",
"i  c #4B5B27CB0451",
"p  c #4524242A049B",
"a  c #5595287101EB",
"s  c #52252CFF080B",
"d  c #57DD27EA0194",
"f  c #42923CFE04BE",
"g  c #57C92FF00235",
"h  c #5E03313C087C",
"j  c #542134FD0BBE",
"k  c #4251364D143A",
"l  c #47B0389E11ED",
"z  c #4C423EF0175A",
"x  c #605F266A015F",
"c  c #62F12DB4031E",
"v  c #7DF4290A0000",
"b  c #645C338606B6",
"n  c #6690392D0BED",
"m  c #710F31B80441",
"M  c #739E3B880897",
"N  c #79A93D96083F",
"B  c #7D8C3D8E03A5",
"V  c #43CD5E2B073C",
"C  c #5B3D49E9164A",
"Z  c #592C41EC13CE",
"A  c #755749F8117F",
"S  c #6A9555B0199D",
"D  c #7C4E55B41875",
"F  c #7B4B5C0D1DA4",
"G  c #7AF063C11DA1",
"H  c #76754268294C",
"J  c #66DD549C20DC",
"K  c #717F5AE62038",
"L  c #7DEC4D023632",
"P  c #3FBA403140E9",
"I  c #4268426F4288",
"U  c #4C4C4C564C45",
"Y  c #557451F94E81",
"T  c #538C532A52D5",
"R  c #5B655B785B8B",
"E  c #649855EC4ED2",
"W  c #657D654A651F",
"Q  c #6BDA6BDB6BE2",
"!  c #722F70326D50",
"~  c #7A6D72736E2E",
"^  c #75CC757C7557",
"/  c #8A712D760000",
"(  c #85C9394C0406",
")  c #82EE35AB10E8",
"_  c #AE5E37CE0000",
"`  c #BFCE3F5002D4",
"'  c #B2FA3A400166",
"]  c #8D02429F03A2",
"[  c #85E5428807B9",
"{  c #8E0647600908",
"}  c #83634C1E0E8B",
"|  c #934345F30410",
" . c #9757499905D2",
".. c #9D444E3B08F1",
"X. c #961058AF0BE3",
"o. c #889350C512A6",
"O. c #80C5530F14E6",
"+. c #9C4E5BA51034",
"@. c #A0954ED806AF",
"#. c #A63754FB09A4",
"$. c #A0C0593D0CCF",
"%. c #AC1E5F4F0F23",
"&. c #B27156F9064C",
"*. c #B5CE5B720980",
"=. c #BC7E5D6D0934",
"-. c #95B36D591E54",
";. c #B50663500E03",
":. c #BCDF692C10DB",
">. c #AFF77DDF1CB2",
",. c #B5D776551D26",
"<. c #8B754A072AC7",
"1. c #85D768CB2385",
"2. c #948B6DC02101",
"3. c #99C47A5A25D5",
"4. c #ADAA7578204E",
"5. c #A8217A4C2498",
"6. c #AC7C7DFD220E",
"7. c #B3AD7E651FDF",
"8. c #CB92436903D2",
"9. c #C3DB5E01065E",
"0. c #C0E65D7F0818",
"q. c #CDB2626806C2",
"w. c #C55A642D0AA1",
"e. c #CFEB656B081C",
"r. c #C2256EE30F85",
"t. c #CB8969FC0A88",
"y. c #D27C64D306FC",
"u. c #D23B664C0828",
"i. c #D3AE6B880B3B",
"p. c #D5D6718E0E92",
"a. c #C9DD6F17103F",
"s. c #C93671C61464",
"d. c #D57F75641123",
"f. c #D9807CA51598",
"g. c #D4917BDD1522",
"h. c #4D0D8A8A0444",
"j. c #50508E8E0606",
"k. c #58589E9E0505",
"l. c #575798980D0D",
"z. c #585898980F0F",
"x. c #525294940707",
"c. c #60FC86180A26",
"v. c #72DE945D06DE",
"b. c #5DDEA7A70687",
"n. c #5F5FABAB0707",
"m. c #5B8DB7570014",
"M. c #607BAA4F090B",
"N. c #6161ACAC0606",
"B. c #756AA24D07F1",
"V. c #63E4B5340505",
"C. c #6464BD3D0081",
"Z. c #6868BBBB0707",
"A. c #63B9B2B20C62",
"S. c #68BEBCBC0B36",
"D. c #6262ACAC1010",
"F. c #6610B55F1212",
"G. c #6A6ABC3C1353",
"H. c #6B6BB2B21818",
"J. c #6D6DC57C052A",
"K. c #6E6EC9730157",
"L. c #6C6CC3830ACB",
"P. c #717ECAC405F9",
"I. c #73A1CB8F098E",
"U. c #7777CCCC1111",
"Y. c #7C7CCECE1818",
"T. c #7C7CA6A64646",
"R. c #8BDA9CA21254",
"E. c #806BA29A0761",
"W. c #9EE6837F3028",
"Q. c #B1768FD72D07",
"!. c #B1A690812E9F",
"~. c #AFC190A83088",
"^. c #B6AA94952FF0",
"/. c #A74CA8043DB4",
"(. c #DAB4840D19B4",
"). c #DD988B831DA0",
"_. c #D13081B51B7B",
"`. c #CE3E87FB2228",
"'. c #C3938A6C2655",
"]. c #DD2A8D10207F",
"[. c #D27C8D76226B",
"{. c #C9D098372E12",
"}. c #C574944D2D6F",
"|. c #D1C5903A2785",
" X c #DF2093072222",
".X c #DFBC9C5329FD",
"XX c #C22B9DC531BD",
"oX c #C2FA974E31E2",
"OX c #E0AF94EF2186",
"+X c #E1F49B112821",
"@X c #DD47A3912E68",
"#X c #CD73A51633EC",
"$X c #DBFAADE73946",
"%X c #D90DAC4635F8",
"&X c #DD3CB3A6374C",
"*X c #E451A5262D23",
"=X c #E5EAA87B2CD5",
"-X c #E1A6A66230E3",
";X c #E5B9ACA332C7",
":X c #E730B2ED354D",
">X c #E949B44C3600",
",X c #E7A6B5673990",
"<X c #E96BB61C38F4",
"1X c #EAE4BE053BBD",
"2X c #E637BB0B3C6B",
"3X c #8544CDA32B9D",
"4X c #8383CFCF2525",
"5X c #8787D0D02C2C",
"6X c #88EBD2BD2E3C",
"7X c #8787CCCC3131",
"8X c #8787C8C83F3F",
"9X c #8C8CD2273636",
"0X c #8F8FD3D33E3E",
"qX c #880E909C4250",
"wX c #B6D99F3641CC",
"eX c #AB95B4F74EFD",
"rX c #B249B23549E4",
"tX c #AED3B7A2521E",
"yX c #AD8DBE8955A0",
"uX c #CBDCB14B47AA",
"iX c #8A8ACBCB4141",
"pX c #9A34D0394FAB",
"aX c #92EBD6BD403B",
"sX c #9797D6D64B4B",
"dX c #9A9AD9D94F4F",
"fX c #9C59D50153E5",
"gX c #9E9EDBDB5555",
"hX c #AE8AC17F5757",
"jX c #AC93C5CA5A81",
"kX c #82EB82E082C7",
"lX c #8A498A498A49",
"zX c #947493D19332",
"xX c #9B6D9B949B95",
"cX c #A593A5A9A5B2",
"vX c #ABEAAC46AC63",
"bX c #B432B432B432",
"nX c #BC05BC48BC6F",
"mX c #BFAFE68F9031",
"MX c #C1C1E7E79494",
"NX c #C4C4E8E89797",
"BX c #CACAE9E9A7A7",
"VX c #CECEEAEAADAD",
"CX c #D0D0EDEDADAD",
"ZX c #CC04CBD2CBA2",
"AX c #D653D655D657",
"SX c #DA6EDAA8DAD9",
"DX c #DCDCF1F1C3C3",
"FX c #EBEBF7F7DEDE",
"GX c #E5E5F3F3D5D5",
"HX c #E69CE6ABE6BB",
"JX c #EFEFF8F8E5E5",
"KX c #F4F4FAFAECEC",
"LX c #F519F519F519",
"PX c #F9F9FCFCF5F5",
"IX c #FE85FEBEFE4F",
"UX c None",
/* pixels */
"UXUXUXUXUXUXUXUXUXUXUXUXUXUXUXUXUXUXUXUXUXUXUXUXUXUXUXUXUXUXUXUX",
"UXUXUXUXUXUXUXUXUXUXUXUXUXUXUXUXUXUXUXUXUXUXUXUXUXUXUXUXUXUXUXUX",
"UXUXUXUXUXUXUXUXUXUXUXUX8 J 1.o.[ N h ; UXUXUXUXUXUXUXUXUXUXUXUX",
"UXUXUXUXUXUXUXUXUXUXn 4.$X,X.Xp.u.q.i.w.#.b UXUXUXUXUXUXUXUXUXUX",
"UXUXUXUXUXUXUXUXh %.g.+X<X;XOXi.u.y.e.i.u.q.#.s UXUXUXUXUXUXUXUX",
"UXUXUXUXUXUXUXF `.f.).=X-X].f.i.y.u.e.u.u.u.e.s.D UXUXUXUXUXUXUX",
"UXUXUXUXUXUXD -X;X(.(.OX].p.i.u.i.i.i.i.u.u.i.(.@X1.UXUXUXUXUXUX",
"UXUXUXUXUXn _.<X>X).p.f.(.f.i.u.p.(.f.i.u.p.f.).=X%XK UXUXUXUXUX",
"UXUXUXUX: =.(.,X$X'.&.&.;.:.w.q.f.).(.p.i.). X X*X>X#Xk UXUXUXUX",
"UXUXUXUX{ y.a.7.2.} c p : i b ] &.s.(.d.p..X=X=X-X,X1X3.UXUXUXUX",
"UXUXUX2 0.9.] m / / u 0 q & X * a +.[.).).*X1X:X1X;X>X%Xk UXUXUX",
"UXUXUXM 9.| x _ ` H ^ vXnXxXR & . 3 3.@X;X1X1X1X1X:X:X*XF UXUXUX",
"UXUXUX..&.c / 8.L cXIXIXIXIXZXR 0 6 l 2.^.XX#X%X&X1X;X].5.UXUXUX",
"UXUXUX*.@.d ' <.bXIXIXIXIXLXbXT R Q 7 1 k z C S G 1.2.,.oXUXUXUX",
"UXUX= =. .y ) ~ nXZXSXLXIXLXvXt U W U I t q 0 % @ + ; D }.4 UXUX",
"UXUXO =.| ; E vXT t R Q kXlXW 0 % $ r P r q 7 7 k Z A 4.{.+ UXUX",
"UXUX= *.[ , ! ZX^ &     & r 0 & % $ o + p C G W.~.}.|.;X#X4 UXUX",
"UXUXUX..] # q T ^ W r o T bXbXvXxXP 1 G !.wXtXjXjXyXtXuX~.UXUXUX",
"UXUXUXM ( O     o t R U t zXLXIXxXe S XXrXfX5XY.I.Y.4XpXqXUXUXUX",
"UXUXUX3 m X         0 ! ^ I Q ^ w s Q./.9XI.P.P.I.K.aXgX9XT.UXUX",
"UXUXUXUX3 .           q xXcXI - a $.>.7XI.P.I.I.K.6XKXmXK.7XUXUX",
"UXUXUXUXX .             T nXW = | t.R.I.P.I.P.P.P.NXPXK.P.I.H.UX",
"UXUXUXUXUX.   . r Q Q Q W xXlX> B r.E.I.I.P.P.P.9XKXdXK.I.P.A.UX",
"UXUXUXUXUXUX% U W r 0 q U vXZXY : X.B.P.I.P.P.I.CXDXU.I.P.I.N.UX",
"UXUXUXUXUXUXUXt & .     o R SXvXe g v.J.3XMXsXiXPXdXJ.J.P.J.b.UX",
"UXUXUXUXUXUXUXUX.         % lXHXkX; c.S.J.VXPXFXBXL.J.J.L.S.k.UX",
"UXUXUXUXUXUXUXUXUX. . .     U AXSXY f n.Z.m.GXJXiXC.Z.Z.G.n.UXUX",
"UXUXUXUXUXUXUXUXUXUXUXUX.   0 zXZX~ < V A.S.G.iXV.G.G.G.V.h.UXUX",
"UXUXUXUXUXUXUXUXUXUXUXUXUXUXUXUXUXUXUXUXj.D.F.F.G.F.A.b.h.UXUXUX",
"UXUXUXUXUXUXUXUXUXUXUXUXUXUXUXUXUXUXUXUXUXUXj.z.z.x.h.UXUXUXUXUX",
"UXUXUXUXUXUXUXUXUXUXUXUXUXUXUXUXUXUXUXUXUXUXUXUXUXUXUXUXUXUXUXUX"
};
