/* XPM */
static char *mmass[] = {
/* columns rows colors chars-per-pixel */
"32 32 228 2 ",
"   c black",
".  c #3B663B663B66",
"X  c #3BD23C483B14",
"o  c #3CD63ECC3A80",
"O  c gray24",
"+  c #606039391313",
"@  c #3CEA4CBC2AD6",
"#  c #3CA64AD22BD1",
"$  c #3CF14AD22CB4",
"%  c #48AF726C16DE",
"&  c #4CDD7DF9150F",
"*  c #4A0773C51836",
"=  c #473E5275399A",
"-  c #3E04700C513B",
";  c #46AA7E2142CD",
":  c #47ED78905F04",
">  c #606060606060",
",  c #6D6D6D6D6D6D",
"<  c gray45",
"1  c gray50",
"2  c #8C8C62623939",
"3  c #5B2599720F8D",
"4  c #5029813615FF",
"5  c #521F865316B0",
"6  c #562F8D5D13AA",
"7  c #515480F31B03",
"8  c #5AB895AD13AA",
"9  c #5DE0A8FA0CE9",
"0  c #5AFFB6FF0101",
"q  c #614FAC680A5A",
"w  c #6051A8DB0C03",
"e  c #6363B7B70404",
"r  c #62FFB9FF0201",
"t  c #6565BFBF0000",
"y  c #6868BBBB0707",
"u  c #6262B1B10909",
"i  c #6363B1B10F0F",
"p  c #6565B4B40D0D",
"a  c #6868BCBC0808",
"s  c #6868BCBC0909",
"d  c #6868BDBD0B0B",
"f  c #69FFBDFF0B01",
"g  c #6868BBBB0E0E",
"h  c #6868BABA0F0F",
"j  c #6538ADC214D6",
"k  c #6565B2B21111",
"l  c #6565B5B51010",
"z  c #6767B7B71515",
"x  c #69FABCF910FB",
"c  c #6969BCBC1212",
"v  c #6A6AB9B91717",
"b  c #6CF7BDF614F7",
"n  c #5CC08D6323E5",
"m  c #50948E0C3128",
"M  c #6A6AC6C60000",
"N  c #6D6DC4C40303",
"B  c #6B6BC1C10707",
"V  c #6C6CC1C10606",
"C  c #6F6FC7C70606",
"Z  c #6F6FC7C70707",
"A  c #6B6BC8C80000",
"S  c #6D6DC8C80000",
"D  c #6F6FC9C90202",
"F  c #6B6BC3C30909",
"G  c #6E6EC2C20B0B",
"H  c #6E6EC6C60808",
"J  c #6969C0C00F0F",
"K  c #6FF7C9F602F7",
"L  c #7070C9C90404",
"P  c #7070CACA0404",
"I  c #70F2CAF104F3",
"U  c #7171CACA0707",
"Y  c #7272CBCB0707",
"T  c #71FFC9FE0801",
"R  c #71DBCADA07DC",
"E  c #725ECAD10805",
"W  c #7272CBCB0808",
"Q  c #7373CBCB0808",
"!  c #72F2CAF108F3",
"~  c #7272CBCB0909",
"^  c #7373CBCB0909",
"/  c #73DBCBDA09DC",
"(  c #7373CACA0B0B",
")  c #7575CBCB0B0B",
"_  c #7575CBCB0E0E",
"`  c #7676CBCB0F0F",
"'  c #7575CCCC0C0C",
"]  c #7575CCCC0D0D",
"[  c #7777CCCC1111",
"{  c #7C7CCECE1818",
"}  c #4B97868C4307",
"|  c #8383CFCF2525",
" . c #8383CFCF2929",
".. c #8787D0D02C2C",
"X. c #88DBD2DA2EDB",
"o. c #86E3CD2F32EB",
"O. c #89D1CD2F35D9",
"+. c #8787C8C83F3F",
"@. c #8B8BD0D03535",
"#. c #8C8CD0D03636",
"$. c #8D8DD4D43737",
"%. c #8F8FD3D33E3E",
"&. c #88B2AC3D5E2A",
"*. c #8938AC0B601E",
"=. c #8A5DAD2F61D5",
"-. c #938DB8426A2F",
";. c #C6C69C9C6D6D",
":. c #8A8ACBCB4141",
">. c #92F7D6F640F6",
",. c #9797D6D64B4B",
"<. c #9A9AD9D94F4F",
"1. c #9A9AD7D75151",
"2. c #9A95D2025582",
"3. c #9E9EDBDB5555",
"4. c #9E50D3CC5C31",
"5. c #AE03D0607FA8",
"6. c #13EF2499AE4E",
"7. c #49465D42A1A1",
"8. c #1B962769C0A4",
"9. c #00000000F8F8",
"0. c #00000000FF05",
"q. c blue",
"w. c #4E4E8585FFFF",
"e. c #6F6F9797FFFF",
"r. c #7B7BBABAF8F8",
"t. c #828282828383",
"y. c #848484848484",
"u. c #989898989898",
"i. c #A64DBDC8881D",
"p. c #A9A9A9A9A9A9",
"a. c #B6B6B6B6B6B6",
"s. c gray72",
"d. c #B06BCF5787EE",
"f. c #AF88C72090E6",
"g. c #B30ECB709254",
"h. c #B3C7CC2A94B2",
"j. c #B6E3CADF9DCD",
"k. c #BFDAE6DA90DB",
"l. c #C1C1E7E79494",
"z. c #C4C4E8E89797",
"x. c #C130C350BF46",
"c. c #CACAE9E9A7A7",
"v. c #CECEEAEAADAD",
"b. c #D0D0EDEDADAD",
"n. c #8E8EA8A8FFFF",
"m. c #8282BBBBF6F6",
"M. c #8080BCBCF7F7",
"N. c #8787BFBFF8F8",
"B. c #ACACB5B5FFFF",
"V. c #BFBFBFBFFFFF",
"C. c #9191C2C2F6F6",
"Z. c #9393C4C4F7F7",
"A. c #9393C5C5F8F8",
"S. c #9494C5C5F8F8",
"D. c #A1A1CBCBF7F7",
"F. c #A6A6CDCDF6F6",
"G. c #A2A2CDCDF8F8",
"H. c #ADADD2D2F7F7",
"J. c #A8A8D0D0F8F8",
"K. c #ADADD3D3F8F8",
"L. c #BEBEDADAF6F6",
"P. c #CC91CEBCCA8C",
"I. c #CBCBCBCBCCCC",
"U. c #CDCDCDCDCDCD",
"Y. c #CDD0CEF2CC9C",
"T. c #D02DD4A2C7FC",
"R. c #D253D7C9CBDB",
"E. c #D13AD3E2CE37",
"W. c #D16DD253D03B",
"Q. c #D5F0D6A6D4F2",
"!. c gray84",
"~. c #D7E6D79BD6E8",
"^. c #D843D8E5D74C",
"/. c #D835D8E5D75A",
"(. c #DADADADADADA",
"). c #DCDCDBDBDBDB",
"_. c #DBDBDCDCDBDB",
"`. c #DBDBDBDBDCDC",
"'. c #DCDCDBDBDCDC",
"]. c gainsboro",
"[. c #E0E0DFDFDFDF",
"{. c #DCDCF1F1C3C3",
"}. c #DF9CE303DB74",
"|. c #E245E28AE034",
" X c #E5E5F3F3D5D5",
".X c #EBEBF7F7DEDE",
"XX c #C0C0DBDBF7F7",
"oX c #C6C6DEDEF7F7",
"OX c #C0C0DCDCF8F8",
"+X c #C6C6E0E0F7F7",
"@X c #D7D7E7E7F6F6",
"#X c #D8D8E8E8F7F7",
"$X c gray88",
"%X c #E4E4E3E3E3E3",
"&X c #E3E3E4E4E3E3",
"*X c #E3E3E3E3E4E4",
"=X c #E3E3E4E4E4E4",
"-X c gray90",
";X c #E8E8E7E7E7E7",
":X c #E712E8A9E2ED",
">X c #E8E8E8E8E7E7",
",X c #E7E7E7E7E8E8",
"<X c #E8E8E7E7E8E8",
"1X c gray91",
"2X c #ECECEBEBEBEB",
"3X c #ECECECECEBEB",
"4X c #ED30EF23EAEB",
"5X c #ECECEBEBECEC",
"6X c #ECECEDEDECEC",
"7X c #EF18EFC5ED86",
"8X c #F02EF02EEF35",
"9X c #F0F0EFEFEFEF",
"0X c #EEFEF7FEE5FF",
"qX c #F0F0F0F0EFEF",
"wX c #F1B4F3B8EE6E",
"eX c #F3F3FAFAEBEB",
"rX c #F5F5FAFAEDED",
"tX c #E2E2ECECF6F6",
"yX c #E4E4EEEEF7F7",
"uX c #EFEFEFEFF0F0",
"iX c #F1F1F1F1F1F1",
"pX c #F4F4F3F3F3F3",
"aX c #F3F3F3F3F4F4",
"sX c #F9F9FCFCF4F4",
"dX c #F9F9FCFCF6F6",
"fX c #FBFBFDFDF8F8",
"gX c gray100",
"hX c None",
/* pixels */
"hXhXhXhXhXhXhXhXhXhXhXhXhXhXhXhXhXhXhXhXhXhXhXhXhXhXhXhXhXhXhXhX",
"hXO O O O O O O O O O O O O O O O O O O O O O O O O O O O O O hX",
"O O gXgXgXgXgXgXgXgXgXgXgXgXgXgXgXgXgXgXgXgXgXgXgXgXgXgXgX-XO hX",
"hXO gX(.(.(._._.].].].$X].].].$X$X$Xq.$X*X-X-X-X-X1X<X1X1X(.O hX",
"O O gX(.(.].).].].].].].].$X$X$X$X&Xq.-X%X-X-X-X,X<X1X1X1X(.O hX",
"hXO gX(.(.(.(.(.(.].].(._.(.(.(.(.(.(.(.(.(.(.(.(.(.).(.].(.O hX",
"O O gX_.].].].].].$X$X$X$X$X$X&X$X%Xq.-X-X-X1X>X1X1X1X5X6X(.O hX",
"hXO gX].].].].].].].$X$X$X$X$X&X-X-Xq.-X-X-X1X1X1X1X2X6X6X(.O hX",
"O O gX].'.].u.        t.$X&X$X-X-X-Xq.-X<X<X1X1X6X6X5X5X6X(.O hX",
"hXO gX(.(.>   D.F.D.C.  > (.(.(.(.(.q.].(.(.).(.(.(.`.'.'.(.O hX",
"O O gX].t.  H.XXoXL.H.A.  y.-X-X-X-Xq.1X1X1X1X6X6X6X6X6X9X(.O hX",
"hXO gX].  D.XX#XB.#XOXG.N.  -X-X-X>Xq.1X1X1X2X5X6X6X6X9XuX(.O hX",
"O O gX].  J.+XyXV.yX+XJ.N.  -X-X1X1Xq.1X1X2X2X6X6X6X9X6XiX(.O hX",
"hXO gX(.  D.L.@XtX#XL.D.m.  (.(.(.(.q.(.).).(.(.'.(.`.(.(.(.O hX",
"O O gX[.  Z.H.OXn.OXK.S.r.  ;X1X1X1Xq.3Xq.6X6XuX9XiXiXiXiX(.O hX",
"hXO gX$Xt.  Z.G.e.G.S.M.  < I.=X3X1Xq.6Xq.6X6X6XuXiXiXiXiX(.O hX",
"O O gX$X$X>   N.w.N.r.        a.-X6Xq.6Xq.6X9X9XiX3XiXiXaX(.O hX",
"hXO gX).].(.1         ,   2 ;.  p.!.q.(.q.(.^.!.W.!.^.(.].(.O hX",
"O O gX$X$X-X-X-Xq.-X1XY.  + 2 ;.  6Xq.6X9.T.g.d.5.d.h.R.8X(.O hX",
"hXO gX$X=X-X-X-Xq.1X1X$Xa.  + 2   6Xq.|.7.4...{ ] { | 2.j.Y.O hX",
"O O gX&X-X-X-X-Xq.1X1X1X-Xa.    s.6X9.f.#.] L W L S >.3.@.i.X hX",
"hXO gX(.q.(.(.(.q.(.q.`.(.).(.(.(.'.8.o.) W W ) K X.rXl.A O.= hX",
"O O gX-Xq.>X>X1Xq.1Xq.3X5X6X6X6X9X3X: ] W W W W L z.dXM W [ n hX",
"hXO gX-X-X>X>X1Xq.1Xq.1X5X6X9X9X9X:X} Q W W W K $.eX<.L W L 8 hX",
"O O gX-Xq.>X1X1Xq.2Xq.6X6X6X6X9X3X}.m W W L L W b.{.[ W W L 3 hX",
"hXO gX(.q.(.(.(.q.(.q.(.q.'.(.(.].W.; N  .l.,.%.fX<.H W H H 6 hX",
"O O gX>Xq.2X1X6Xq.6Xq.6Xq.wXiXiXiXwX- y t v.sX.Xc.G F V G a 4 hX",
"hXO gXq.q.q.q.q.q.q.q.q.q.q.q.q.q.q.6.9 g 0  X0X:.e a a J q @ hX",
"O O gX1X1X3X2X6X6X6XwXiXiXiXiXiXpXpX3X-.p h b :.e g c c u &.. hX",
"hXO -X(.).(.(.(.(.(.`.(.(.(.(.(.(.(._.P.*.j k l v z i w *.I.O hX",
"hXO O O O O O O O O O O O O O O O O O O . # * 7 5 & % # . O O hX",
"hXhXhXO hXO hXO hXO hXO hXO hXO hXO hXO hXO hXo hXo hXO hXO hXhX"
};
