/* XPM */
static char *mumble[] = {
/* columns rows colors chars-per-pixel */
"32 32 151 2 ",
"   c black",
".  c #0257038B0134",
"X  c #02D604CA0091",
"o  c #033F05E8003C",
"O  c #0364040D027B",
"+  c #05690618046B",
"@  c #047107D80049",
"#  c #06E207C705AF",
"$  c #11B71F98017A",
"%  c #1C7F27B60EDB",
"&  c #243629AC1D07",
"*  c #35DB5F98040A",
"=  c #46AA7E21048F",
"-  c #494C79EF1071",
";  c #49465D422F2F",
":  c #49D45DD0304B",
">  c #5BC474263B0A",
",  c #5BC474263C52",
"<  c #79D77AF978A2",
"1  c #7CF97CF97CF9",
"2  c #4B4B88880303",
"3  c #4D4D8A8A0404",
"4  c #50948E0C04FC",
"5  c #5C00B8000101",
"6  c #61E4ACFE0AEF",
"7  c #6131A9BB0CE3",
"8  c #61E4ACFE0CE9",
"9  c #6363B7B70404",
"0  c #62FFB9FF0100",
"q  c #6565BFBF0000",
"w  c #6868BBBB0707",
"e  c #6262B1B10909",
"r  c #6363B1B10F0F",
"t  c #6565B4B40D0D",
"y  c #6868BCBC0808",
"u  c #6868BCBC0909",
"i  c #6868BDBD0B0B",
"p  c #69FFBDFF0A00",
"a  c #6868BBBB0E0E",
"s  c #6868BABA0F0F",
"d  c #6617AEA215B5",
"f  c #6565B2B21111",
"g  c #6565B5B51010",
"h  c #6767B7B71515",
"j  c #68FFBBFF1000",
"k  c #6969BCBC1212",
"l  c #6A6AB9B91717",
"z  c #6BFFBCFF1400",
"x  c #752FA4CE3EDE",
"c  c #7912AD463DA4",
"v  c #7CC0BB0D3128",
"b  c #6A6AC6C60000",
"n  c #6D6DC4C40303",
"m  c #6B6BC1C10707",
"M  c #6C6CC1C10606",
"N  c #6F6FC7C70606",
"B  c #6F6FC7C70707",
"V  c #6B6BC8C80000",
"C  c #6D6DC8C80000",
"Z  c #6EFFC8FE0200",
"A  c #6F6FC9C90202",
"S  c #6B6BC3C30909",
"D  c #6E6EC2C20B0B",
"F  c #6E6EC6C60808",
"G  c #6969C0C00F0F",
"H  c #7038C9E40402",
"J  c #7070CACA0404",
"K  c #70FFC9FE0700",
"L  c #71FFC9FE0700",
"P  c #7171CACA0707",
"I  c #7272CBCB0707",
"U  c #725FCAD30807",
"Y  c #7272CBCB0808",
"T  c #7373CBCB0808",
"R  c #7300CAFF0901",
"E  c #7272CBCB0909",
"W  c #7373CBCB0909",
"Q  c #7373CACA0B0B",
"!  c #7575CBCB0B0B",
"~  c #7575CBCB0E0E",
"^  c #7676CBCB0F0F",
"/  c #7575CCCC0C0C",
"(  c #7575CCCC0D0D",
")  c #7777CCCC1111",
"_  c #7C7CCECE1818",
"`  c #6FE78ED34769",
"'  c #7CAC9F0A4E52",
"]  c #7F46B0614777",
"[  c #7E4495BE6013",
"{  c #8383CFCF2525",
"}  c #80E1C72D2CE9",
"|  c #8383CFCF2929",
" . c #8787D0D02C2C",
".. c #87FFD1FE2E00",
"X. c #83CFC72D2FD7",
"o. c #8787C8C83F3F",
"O. c #8B8BD0D03535",
"+. c #8C8CD0D03636",
"@. c #8D8DD4D43737",
"#. c #8F8FD3D33E3E",
"$. c #864DBD7A43C8",
"%. c #88D7B2945705",
"&. c #8AF8BC0650CE",
"*. c #8A50BC58513B",
"=. c #9973BE287014",
"-. c #9A63BD3571DB",
";. c #8AD6C5CB4307",
":. c #8AD6C5CB43C8",
">. c #8A8ACBCB4141",
",. c #92D6CA434DCB",
"<. c #91FFD5FE3FFF",
"1. c #9797D6D64B4B",
"2. c #9A9AD9D94F4F",
"3. c #993EC9E15F04",
"4. c #9A9AD7D75151",
"5. c #9E9EDBDB5555",
"6. c #9EC1D43D5CA2",
"7. c #808080808080",
"8. c #B634CE3E9804",
"9. c #BEFFE5FE8FFF",
"0. c #C1C1E7E79494",
"q. c #C4C4E8E89797",
"w. c #C09BD145AE4E",
"e. c #CACAE9E9A7A7",
"r. c #CECEEAEAADAD",
"t. c #D0D0EDEDADAD",
"y. c gray78",
"u. c #CE48DA1BC0A4",
"i. c #DAECE018D373",
"p. c #DCDCF1F1C3C3",
"a. c #E5E5F3F3D5D5",
"s. c #EBEBF7F7DEDE",
"d. c #EC58EFD7E830",
"f. c #EEFEF7FEE4FE",
"g. c #EEF1F11CECEC",
"h. c #EFEAF23CED12",
"j. c #F3F3FAFAEBEB",
"k. c #F5F5FAFAEDED",
"l. c #F54EF7DEF222",
"z. c #F674F864F423",
"x. c #F7D0F87CF735",
"c. c #FA74FC78F827",
"v. c #F9F9FCFCF4F4",
"b. c #F9F9FCFCF6F6",
"n. c #F8F8F8F8F8F8",
"m. c #FAD1FC47F906",
"M. c #FADDFCD1F8A8",
"N. c #FBFBFDFDF8F8",
"B. c #FEFEFEFEFF05",
"V. c gray100",
"C. c None",
/* pixels */
"C.C.C.C.C.C.C.C.V.V.V.V.V.V.V.V.V.V.V.V.V.V.V.V.C.C.C.C.C.C.C.C.",
"C.C.C.C.C.C.V.V.V.V.7.  V.V.V.V.V.V.V.V.  7.V.V.V.V.C.C.C.C.C.C.",
"C.C.C.C.C.V.V.V.7.        V.V.V.V.V.V.        7.V.V.V.C.C.C.C.C.",
"C.C.C.C.V.V.V.7.          V.V.V.V.V.V.          7.V.V.V.C.C.C.C.",
"C.C.C.V.V.V.V.    7.V.    y.V.V.V.V.y.    V.7.    V.V.V.V.C.C.C.",
"C.C.V.V.V.V.y.    y.V.    7.V.V.V.V.7.    V.y.    y.V.V.V.V.C.C.",
"C.V.V.V.V.V.7.    V.V.    7.V.V.V.V.7.    V.V.    7.V.V.V.V.V.C.",
"C.V.V.V.V.V.    7.V.V.    7.V.V.V.V.7.    V.V.7.    V.V.V.V.V.C.",
"V.V.V.V.V.V.    y.V.V.    7.V.V.V.V.7.    V.V.y.    V.V.V.V.V.V.",
"V.V.V.V.V.V.    V.V.V.    7.V.V.V.V.7.    V.V.V.    V.V.V.V.V.V.",
"V.V.V.V.V.V.    V.V.V.    7.V.V.V.V.7.    V.V.V.    V.V.V.V.V.V.",
"V.V.V.V.V.V.    V.V.V.    7.V.V.V.V.7.    V.V.V.    V.V.V.V.V.V.",
"V.V.V.V.V.y.      V.V.V.    7.7.7.7.    V.V.V.      y.V.V.V.V.V.",
"V.V.V.V.    y.y.7.  V.V.V.            V.V.V.  7.y.y.    V.V.V.V.",
"V.V.V.  y.y.7.7.    V.V.V.V.V.V.V.V.V.V.V.V.    7.7.y.y.  V.V.V.",
"V.V.y.  7.7.        V.V.V.V.V.V.V.V.V.V.V.V.        7.7.  y.V.V.",
"V.V.  y.7.          V.                    V.          7.y.  V.V.",
"V.V.  7.            V.                    V.. + # + O   7.  V.V.",
"V.y.  7.            V.  V.V.    V.  V.V.  i., ` ' ` , & 1   y.V.",
"V.  7.              V.  V.  V.  V.  V.. ; 6. ._ ~ _ { ,.: <   V.",
"V.  7.              V.  V.V.    V.  n.8.+.~ N K T Z <.5.O.[   V.",
"V.                  V.  V.  V.  V.  u.} ! I T T Z  .k.9.V X.% V.",
"V.                  V.  V.  V.  V.. 3.~ I T T T N q.b.b I ^ - M.",
"V.V.                V.  V.V.V.  V.l.;.T T T T Z @.j.2.Z T I :.l.",
"V.V.                V.            @ 3 T T Z N T t.p.) I T T v d.",
"C.V.                V.            . = n | q.1.#.M.2.B B B F $.C.",
"C.V.V.              V.V.V.V.V.V.V.c.*.u b r.z.s.e.D S M S p &.C.",
"C.C.V.              V.V.V.V.V.V.V.V.w.7 u 5 a.f.>.0 y p i 6 C.C.",
"C.C.C.V.            V.V.V.V.7.    7.z.-.t a z >.9 a k k e 3 C.C.",
"C.C.C.C.V.V.      V.V.V.V.V.        V.h.-.d f g l h r 7 2 C.C.C.",
"C.C.C.C.C.V.V.V.V.V.V.V.V.V.7.            $ * x c ] %.C.C.C.C.C.",
"C.C.C.C.C.C.C.V.V.V.V.V.V.V.V.V.V.V.V.V.V.V.M.z.h.C.C.C.C.C.C.C."
};
