/* XPM */
static char *nvtv[] = {
/* columns rows colors chars-per-pixel */
"32 32 228 2 ",
"   c #024A02530258",
".  c #0B110B260B5D",
"X  c #143D15650F88",
"o  c #0F480F580FB7",
"O  c #0F7C0FCB1006",
"+  c #1356136C13C0",
"@  c #1763199F1620",
"#  c #18BF196F16AF",
"$  c #1716172817E8",
"%  c #177617A5183D",
"&  c #1B0C1B3F1BA6",
"*  c #1F6C20FE1B34",
"=  c #218023BC177A",
"-  c #226824551CED",
";  c #1F141F2D200C",
":  c #1F651FB02065",
">  c #230A236C236E",
",  c #270427182842",
"<  c #276027D8288D",
"1  c #2B572BA82C5B",
"2  c #2C0931892515",
"3  c #326B361122C8",
"4  c #39593EB02525",
"5  c #36B43A102B3A",
"6  c #2F1E2F9A3053",
"7  c #2F552FE23053",
"8  c #338733E8340D",
"9  c #3A643BFE353C",
"0  c #369236B83856",
"q  c #37D537AF38E7",
"w  c #3ADE3B503BBA",
"e  c #361358FA0DE1",
"r  c #3D5841AF2D36",
"t  c #3F5E40C23C9E",
"y  c #48396D0D1F89",
"u  c #40E147862F3F",
"i  c #43914B7E2C87",
"p  c #49DF52002F72",
"a  c #46525DCE282A",
"s  c #428B495D307F",
"d  c #43F0469C3D06",
"f  c #4C9752EB32DA",
"g  c #4AD65ED43156",
"h  c #4D30530F3A97",
"j  c #4C665D563AC1",
"k  c #51935A74371B",
"l  c #5BC267FF3546",
"z  c #588863193861",
"x  c #5D16695E3B4C",
"c  c #65B97380384C",
"v  c #68F377523E0F",
"b  c #6A3A7B5D3C75",
"n  c #3E6D3EB5400C",
"m  c #3F483FF14054",
"M  c #435D43DD4431",
"N  c #49DD4D8442BC",
"B  c #46B1472D4896",
"V  c #478247FC4879",
"C  c #4A8F4AF74C08",
"Z  c #4EC852D64039",
"A  c #52505546460A",
"S  c #56685C284426",
"D  c #4E894F0F5105",
"F  c #4F4C501E5176",
"G  c #53B7541F54AF",
"H  c #570059E6570A",
"J  c #56D5574E58E3",
"K  c #5740582959AA",
"L  c #5B005B715C38",
"P  c #5C9B635E44E2",
"I  c #56EE626E49F7",
"U  c #62BE7B284372",
"Y  c #67D470864CCE",
"T  c #68ED73D24DD4",
"R  c #74277FED4872",
"E  c #688C6CB85875",
"W  c #6CDC737852D7",
"Q  c #6E597C6D5ECB",
"!  c #70A6776D5156",
"~  c #5E2F5EE060EB",
"^  c #5F21601D6196",
"/  c #621562B96382",
"(  c #6691676F68E1",
")  c #67E268466932",
"_  c #6BC06C4F6CA0",
"`  c #6F40709C6E1F",
"'  c #6DFB6EC470EA",
"]  c #732F73947445",
"[  c #7540763A7804",
"{  c #7AB87B3C7BF4",
"}  c #4CF78A8A03AE",
"|  c #50508E8E0606",
" . c #525294940707",
".. c #58589E9E0505",
"X. c #575798980D0D",
"o. c #585898980F0F",
"O. c #56F7891E1E2C",
"+. c #58CB905B170C",
"@. c #5DDEA7A70687",
"#. c #5F5FABAB0707",
"$. c #5F0BAA270A16",
"%. c #5B3AB73A003C",
"&. c #6161ACAC0606",
"*. c #63E4B5340505",
"=. c #644CBCF9009A",
"-. c #6868BBBB0707",
";. c #63B9B2B20C62",
":. c #68BEBCBC0B36",
">. c #60FCA98710A2",
",. c #6E45AE06199D",
"<. c #6610B55F1212",
"1. c #6A54BC111353",
"2. c #723284233F21",
"3. c #72FBA3B53A6F",
"4. c #6D6DC57C052A",
"5. c #6E5DC9530158",
"6. c #6C6CC3830ACB",
"7. c #7126CAA505DA",
"8. c #7388CB7C0977",
"9. c #7777CCCC1111",
"0. c #7C7CCECE1818",
"q. c #69F9828649AB",
"w. c #75AA8652454C",
"e. c #74D981D94EF9",
"r. c #7F1691B145CA",
"t. c #771D96174EC9",
"y. c #7F8F8CCB51FC",
"u. c #7BF683135C3C",
"i. c #7A4E993F5226",
"p. c #8039BF8625EF",
"a. c #8383CFCF2525",
"s. c #8383CFCF2929",
"d. c #8787D0D02C2C",
"f. c #8822D2222E23",
"g. c #83DEC73D2FE8",
"h. c #8665CD19309E",
"j. c #8B9AC1D2399D",
"k. c #8787C8C83F3F",
"l. c #8C8CD2273636",
"z. c #8F8FD3D33E3E",
"x. c #82C994D84CCA",
"c. c #83318D5F5D27",
"v. c #8469929455E6",
"b. c #8BE09D125392",
"n. c #8D289B455C07",
"m. c #8C91A4C24614",
"M. c #8E9FA85E481F",
"N. c #9301AD7844FE",
"B. c #9505AE6A4D14",
"V. c #957FB13B44E9",
"C. c #966BB1FB485E",
"Z. c #9B2DB6904D52",
"A. c #83CFA63F558C",
"S. c #8E0DA243527C",
"D. c #9173A3DA564A",
"F. c #94D0A9E35535",
"G. c #91BCA0BA5C0D",
"H. c #93FFAEE55F18",
"J. c #9DD2B67053F4",
"K. c #9F36BA5F5044",
"L. c #A290BBA6570E",
"P. c #A558BD6C5B27",
"I. c #8873900660F3",
"U. c #8D6A957F6216",
"Y. c #8FDB9EB463EC",
"T. c #8EA3972F6896",
"R. c #94559D806529",
"E. c #941D9CC06C04",
"W. c #9920A7C1653C",
"Q. c #9FD2BFC16149",
"!. c #A373B4C26689",
"~. c #A661B4167307",
"^. c #8A8ACBCB4141",
"/. c #932ECA9B4E26",
"(. c #9216D6164017",
"). c #9797D6D64B4B",
"_. c #9A9AD9D94F4F",
"`. c #988ECE175645",
"'. c #9A9AD7D75151",
"]. c #9E9EDBDB5555",
"[. c #A7D6C0DE5A41",
"{. c #AB13C15E62E7",
"}. c #AD18C34A6A7F",
"|. c #B250C99E65F1",
" X c #B1FCC4926E51",
".X c #B73ECC306E99",
"XX c #B438C53B72F1",
"oX c #BA8CCE1D72EF",
"OX c #BD00CCA77CDC",
"+X c #7FAC7FF28002",
"@X c #7FC1808C81BE",
"#X c #833B83838433",
"$X c #868A86CC8835",
"%X c #872F88358917",
"&X c #8ABA8B398C1F",
"*X c #8F458FF890CF",
"=X c #8F49904390E9",
"-X c #93DA941794F1",
";X c #963D96FF98DC",
":X c #98C3993A9B2B",
">X c #A186A21CA3C0",
",X c #BF0AE609900A",
"<X c #C1ACD0158371",
"1X c #CD7CDF4D847E",
"2X c #CDA0DAA18D89",
"3X c #D2A2E50C86E1",
"4X c #D50CE6A08A3F",
"5X c #C1C1E7E79494",
"6X c #C4C4E8E89797",
"7X c #D5DAE37092EB",
"8X c #DBCCEAB59439",
"9X c #E482F2C79CE5",
"0X c #E897F7479E98",
"qX c #CACAE9E9A7A7",
"wX c #CECEEAEAADAD",
"eX c #D0D0EDEDADAD",
"rX c #C37BC429C536",
"tX c #C791C7B2C95C",
"yX c #CBBFCC45CD8A",
"uX c #DAFCDB50DC45",
"iX c #DCDCF1F1C3C3",
"pX c #E5E5F3F3D5D5",
"aX c #EBEBF7F7DEDE",
"sX c #EF16F816E517",
"dX c #F4F4FAFAECEC",
"fX c #F9F9FCFCF5F5",
"gX c #FBFBFDFDF8F8",
"hX c None",
/* pixels */
"hXhXhXhXhXhXhXhXhXhXhXhXhXhX%X#X$X$X%XhXhXhXhXhXhXhXhXhXhXhXhXhX",
"hXhXhXhXhXhXhXhXhXhX&X#X' ( K D C D ~ ~ ) { &XhXhXhXhXhXhXhXhXhX",
"hXhXhXhXhXhXhXhX&X+X~ n 1 < 6 n M 0 6 , , 0 F [ =XhXhXhXhXhXhXhX",
"hXhXhXhXhXhXhX$X~ 1 ; 8 D ( +X:X>X-X+X^ D 8 > < K { hXhXhXhXhXhX",
"hXhXhXhXhXhX$XM $ 1 B J E [ >XyXuXtX:X' ~ K B < $ 0 ] ;XhXhXhXhX",
"hXhXhXhXhX#Xw + 6 B D ~ ~ ] >XtXuXrX;X' ~ K D B 8 + 1 ] hXhXhXhX",
"hXhXhXhX#Xn . 1 n B D J J B G ` ' ) ~ ~ D n d 7 8 6 + , ` hXhXhX",
"hXhXhXhXG . > 0 n M M 8 A I.R.4     . > Z w.b.y.4 8 , . 0 $XhXhX",
"hXhXhX] $ $ 1 8 1 + & ! 2X9X0Xk     . z B.J.|.4XU., 1 % . J hXhX",
"hXhXhXM . > , +   . ! 7X2X4X8Xp   . z F.x i v.4XR.& 1 > O > #XhX",
"hXhX] + + + .     h <XT.5 >XOX3 . h D.i   . Y 3XR.  & > + . G hX",
"hXhXL   +       # E.T.& , ~.G.+ r D.f . . - S.1XR     + +   0 hX",
"hX&X8         . > E > $ h OXR = x.c # # + s P. X*       + . & { ",
"hX#X+       . + - & > , W  Xr v 2.3 > > > b P.G.X             ^ ",
"hX#X+     . + $ > , 1 9 !.L.Y m.4 1 8 < u m.L.p .             L ",
"hX{ X   . + $ > , 6 8 P {.K.N.l 8 m q 8 w.K.x.- X .           L ",
"hXu.O   O % : , 7 8 9 R.P.V.r.9 C C M h J.L.k & # + .         L ",
"hX@X+   O & , 7 q q P P.Z.m.h C K G M v.|.D.- 1 > # o         L ",
"hX%X+ . $ : < 7 w t b.P.V.e.M / / J S }..XT q.i.A.t.U 2       / ",
"hXhX8 . % : 1 0 w S P.Z.S.N ( ] ' G n.oXH.`.d.0.9.0.a./.g   @ { ",
"hXhX~ . & : 7 0 w y.P.C.Y J { { ] L oXP.l.9.7.7.8.5.z.].l.a 8 hX",
"hXhX[ ; O , 7 w d S.Z.y.d [ #X&X` c.~.g.8.7.8.8.5.f.dX,X5.g.I hX",
"hXhXhXC . : 7 q h B.M.f ~ { $X*X` W.j.9.8.8.8.8.7.6XfX5.7.9.3.hX",
"hXhXhX[ & % 7 8 P m.w.M ` { #X#XE ~.0.6.8.7.7.5.l.dX'.5.8.7.*.hX",
"hXhXhXhX/ + ; 0 M x 5 G ) ] ] { E Y.,.8.8.5.4.7.eXiX9.8.8.8.&.hX",
"hXhXhXhX#XM . , w 0 B K / ) ` ] ^ N +.4.s.6X).z.gX'.4.4.4.7.@.hX",
"hXhXhXhXhX$Xw o < B V G K / / / / H O.-.=.wXfXaXqX6.6.4.6.-...hX",
"hXhXhXhXhXhX$XB + & w V C G J L J H j $.-.%.pXsX^.=.-.-.1.#.hXhX",
"hXhXhXhXhXhXhXhX( 1 + , 0 V C C D D B y <.:.1.^.=.1.1.1.*.} hXhX",
"hXhXhXhXhXhXhXhX-X#XL 8 : & - & ; & + @ e >.<.<.1.<.;.@.} hXhXhX",
"hXhXhXhXhXhXhXhXhXhX=X$X] G F C V V C G / Q | o.o. .} hXhXhXhXhX",
"hXhXhXhXhXhXhXhXhXhXhXhXhXhX&X&X&X&X&XhXhXhXhXhXhXhXhXhXhXhXhXhX"
};
