/* XPM */
static char *nxtvepg[] = {
/* columns rows colors chars-per-pixel */
"32 32 236 2 ",
"   c #060606060606",
".  c gray3",
"X  c gray5",
"o  c #101C10BE0F25",
"O  c #11D3128810D5",
"+  c #128D128D128D",
"@  c #131313131313",
"#  c #141D14931267",
"$  c #141414141313",
"%  c #141413131414",
"&  c #151515151515",
"*  c #158217A21398",
"=  c #184518451845",
"-  c #17CC19011799",
";  c #191919191919",
":  c #1D1D1D1D1D1D",
">  c #1C392C0B0A25",
",  c #2323314F124E",
"<  c #2E103BF01DD2",
"1  c gray13",
"2  c #229424902037",
"3  c #22ED24E020A8",
"4  c gray14",
"5  c #252325232523",
"6  c #26E526E526E5",
"7  c #2631289E2345",
"8  c #29622B662716",
"9  c #282828282828",
"0  c #2C2C2B2B2B2B",
"q  c gray18",
"w  c #2E7730732C1A",
"e  c #2FE83BBB2244",
"r  c #31D337002A5A",
"t  c #308532D62DAD",
"y  c #312D312D312E",
"u  c #31B033262FE5",
"i  c #3535372532E4",
"p  c #353535353535",
"a  c #3598370E33CD",
"s  c #393939393939",
"d  c #3F3F3F3F3F3F",
"f  c #33E856BB0ACF",
"g  c #35B659410B2D",
"h  c #3E1A67D70C48",
"j  c #419C72A90772",
"k  c #448D75A80CBE",
"l  c #42186BD51046",
"z  c #42E865BB1A61",
"x  c #49167B1E1001",
"c  c #4A0E79AC13BC",
"v  c #404040403F3F",
"b  c #4E2B5ED53BDE",
"n  c #4FE267EC31B2",
"m  c #52B366AF389C",
"M  c #607978DC3FBF",
"N  c #414140404141",
"B  c #434343434343",
"V  c #444444444444",
"C  c #4B4B4B4B4B4B",
"Z  c gray31",
"A  c #505050505050",
"S  c #565656565656",
"D  c #569158BD548C",
"F  c #5B5B5B5B5B5B",
"G  c #5B5B5C5C5B5B",
"H  c gray37",
"J  c gray38",
"K  c #646464646464",
"L  c #676767676767",
"P  c #6D6D6D6D6D6D",
"I  c #725F74E86F2C",
"U  c gray45",
"Y  c gray46",
"T  c gray47",
"R  c #7D7D7C7C7C7C",
"E  c #7E7E7E7E7E7E",
"W  c #4C7F80B31111",
"Q  c #53358A6310B0",
"!  c #5699873B1C5F",
"~  c #5CE094581AC5",
"^  c #5BC2A44C0774",
"/  c #5E31A94A0737",
"(  c #5BECB7EB00ED",
")  c #6008AB220B0D",
"_  c #6363B7B70404",
"`  c #6344BA430145",
"'  c #6565BFBF0000",
"]  c #6868BBBB0707",
"[  c #6262B1B10909",
"{  c #6363B1B10F0F",
"}  c #6565B4B40D0D",
"|  c #6868BCBC0808",
" . c #6868BCBC0909",
".. c #6868BDBD0B0B",
"X. c #6A14BE140A15",
"o. c #6868BBBB0E0E",
"O. c #6868BABA0F0F",
"+. c #6103A98E10A1",
"@. c #6565B2B21111",
"#. c #6565B5B51010",
"$. c #6767B7B71515",
"%. c #6918BC181019",
"&. c #6969BCBC1212",
"*. c #6A6AB9B91717",
"=. c #6C5EBD5D145F",
"-. c #7949B7962DB1",
";. c #7B5DB8D52FC5",
":. c #7F2DBA23375E",
">. c #6A6AC6C60000",
",. c #6D6DC4C40303",
"<. c #6B6BC1C10707",
"1. c #6C6CC1C10606",
"2. c #6F6FC7C70606",
"3. c #6F6FC7C70707",
"4. c #6B6BC8C80000",
"5. c #6D6DC8C80000",
"6. c #6F0CC90C020D",
"7. c #6F6FC9C90202",
"8. c #6B6BC3C30909",
"9. c #6E6EC2C20B0B",
"0. c #6E6EC6C60808",
"q. c #6969C0C00F0F",
"w. c #7053C9FF041D",
"e. c #7070CACA0404",
"r. c #7177CAA30742",
"t. c #7272CBCB0707",
"y. c #71C1CAC007C1",
"u. c #7283CACC0800",
"i. c #7272CBCB0808",
"p. c #7373CBCB0808",
"a. c #72B8CAB708B8",
"s. c #7272CBCB0909",
"d. c #7373CBCB0909",
"f. c #7373CACA0B0B",
"g. c #7400CBFF0A01",
"h. c #7575CBCB0B0B",
"j. c #7575CBCB0E0E",
"k. c #7676CBCB0F0F",
"l. c #7575CCCC0C0C",
"z. c #7575CCCC0D0D",
"x. c #7777CCCC1111",
"c. c #7C7CCECE1818",
"v. c #7362924D4AE4",
"b. c #8383CFCF2525",
"n. c #8191C7DD2D9A",
"m. c #8383CFCF2929",
"M. c #8787D0D02C2C",
"N. c #8875D2742E76",
"B. c #8AD6CE3436DE",
"V. c #8787C8C83F3F",
"C. c #8B8BD0D03535",
"Z. c #8C8CD0D03636",
"A. c #8D8DD4D43737",
"S. c #8F8FD3D33E3E",
"D. c #9973BE287014",
"F. c #8AD6C5CB43C8",
"G. c #8A8ACBCB4141",
"H. c #92A6D6A640A7",
"J. c #9797D6D64B4B",
"K. c #9A9AD9D94F4F",
"L. c #9752CCCE5533",
"P. c #9A9AD7D75151",
"I. c #990AD07753FF",
"U. c #9E9EDBDB5555",
"Y. c #9A9DCB4061C2",
"T. c #A223C48073C9",
"R. c #818181818181",
"E. c gray52",
"W. c #898989898989",
"Q. c gray56",
"!. c gray57",
"~. c #949494949595",
"^. c #9B689EE7973F",
"/. c #9B9B9B9B9B9B",
"(. c #9E9E9F9F9F9F",
"). c #A9DFBDDB9057",
"_. c #A0A0A0A0A0A0",
"`. c gray65",
"'. c gray66",
"]. c gray67",
"[. c #ACACACACACAC",
"{. c #B028B2D0AD25",
"}. c #B0E8B1CEAFB6",
"|. c #B2B2B2B2B2B2",
" X c #B4B4B4B4B4B4",
".X c #B7B7B7B7B7B7",
"XX c gray72",
"oX c #BCBCBCBCBCBC",
"OX c #B42BD3178BAD",
"+X c #B6C3CE3E9893",
"@X c #B820D08298AE",
"#X c #BF07E6069007",
"$X c #C1C1E7E79494",
"%X c #C4C4E8E89797",
"&X c #CACAE9E9A7A7",
"*X c #CECEEAEAADAD",
"=X c #D0D0EDEDADAD",
"-X c #C0C0C0C0C0C0",
";X c #C5C5C5C5C5C5",
":X c gray78",
">X c #CACACACACACA",
",X c gray80",
"<X c #CF31DA68C18D",
"1X c #D0D0D0D0D0D0",
"2X c LightGray",
"3X c gray84",
"4X c #D8D8D8D8D8D8",
"5X c gainsboro",
"6X c #DFDFDFDFDFDF",
"7X c #DCDCF1F1C3C3",
"8X c #DAECE062D3BD",
"9X c #E5E5F3F3D5D5",
"0X c #EBEBF7F7DEDE",
"qX c gray88",
"wX c #E7E7E7E7E7E7",
"eX c #E7CCEB33E3A4",
"rX c #EB39EBE5EA9E",
"tX c gray92",
"yX c gray93",
"uX c #EFD8F8D8E5D8",
"iX c #F056F178EF21",
"pX c #F3F3FAFAEBEB",
"aX c #F5F5FAFAEDED",
"sX c gray95",
"dX c #F54EF7E5F229",
"fX c gray97",
"gX c #F962FA0BF864",
"hX c #F9F9FCFCF4F4",
"jX c #F9F9FCFCF6F6",
"kX c #F8F8F8F8F8F8",
"lX c gray98",
"zX c #FBFBFBFBFBFB",
"xX c #FADDFCD1F8A8",
"cX c #FBFBFDFDF8F8",
"vX c #FC55FD05FB7A",
"bX c gray100",
/* pixels */
"bXbXbXbXbXbXbXbXbXbXbXbXbXbXsXsXbXbXbXbXbXbXbXbXbXbXbXbXbXbXbXbX",
"bXbXbXbXbXbXbXbXbXbXbXbXbXbX/.wXbXbXbXbXbXbXbXbXbXbXbXbXbXbXbXbX",
"bXbXbXbXbXbXbXbXbXbXbXbXbXbXp wXbXbXbXbXbXbXbXbXbXbXbXbXbXbXbXbX",
"bXbXbXbXbXbXbXbXbXbXbXbXbX-X. tXbXbXbXbXbXbXbXbXbXbXbXbXbXbXbXbX",
"bXbXbXbXbXbXbXbXbXbXbXbXbXF   wXbXbXbXbXbXbXbXbXbXbXbXbXbXbXbXbX",
"bXbXbXbXbXbXbXbXbXbXbXbX2X&   wXbXbXbXbXbXbXbXbXbXbXbXbXbXbXbXbX",
"bXbXbXbXbXbXbXbXbXbXbXbXU . . tXbXbXbXbXbXbXbXbXbXbXbXbXbXbXbXbX",
"bXbXbXbXbXbXbXbXbXbXbXqX5 X X wXbXbXbXE bXbXbXbXbXbXbXbXbXbXbXbX",
"bXbXbXbXbXbXbXbXbXbXbXR.% + X tXbXbX6XN bXbXbXbXbXbXbXbXbXbXbXbX",
"bXbXbXbXbXbXbXbXbXbX6Xq @ + X tXbXlXF 5 bXbXbXbXbXbXbXbXbXbXbXbX",
"bXbXbXbXbXbXbXbXbXbXE.; & & & tXbX_.. 5 bXbXbXbXbXbXbXbXbXbXbXbX",
"bXbXbXbXbXbXbXbXbXqXp ; & & E bX4X1 X 4 bXbXbXbXbXbXbXbXbXbXbXbX",
"bXbXbXbXbXbXbXbXbXE.: : ; Z sXlXZ + . 9 bXbXbXbXbXbXbXbXbXbXbXbX",
"bXbXbXbXbXbXbXbX4Xp : : y 6XbXW.+ X & 9 bXbXbXfXsXbXbXbXbXbXbXbX",
"bXbXbXbXbXbXbXbXY 5 1 9 E bXE : & @ X q bXbXbXE .XbXbXbXbXbXbXbX",
"bXbXbXbXbXbXbX;Xy 5 5 /.bXqXp ; & % $ U bXlXR . |.bXbXbXbXbXbXbX",
"bXbXbXbXbXbXsXG 9 9 E lXsXS : ; ; ; Y lXfXU   .  XbXbXbXbXbXbXbX",
"bXbXbXbXbXbX`.q q K sXvXT 1 : : : R.bXyXJ X o + }.gXvXbXbXbXbXbX",
"bXbXbXbXbXqXC q F wXlX~.6 1 1 5 /.bXqXC + r M v.T.OX@X8XlXbXbXbX",
"bXbXbXbXlXR.y A qXlX[.y 5 5 y .XbX1Xd ; m L.M.c.g.c.b.I.).iXbXbX",
"bXbXbXbXE s Z 2XlXXXs 9 5 Z ,XbX.Xy ; n Z.z.t.t.u.7.H.U.B.+XkXbX",
"bXbXbXwXF Z ,XbX-XN y y U wXfX~.9 : e n.h.t.g.g.7.N.aX#X4.B.<XbX",
"bXbXlXE.S >XbXE V y v _.lX6XP 5 5 2 ! j.u.u.u.u.w.%XjX>.u.j.Y.jX",
"bXbXE H 2XbXXXC s H >XbX;XA 6 5 y I :.t.u.u.u.7.A.pXK.7.u.t.F.dX",
"bXwXU 2XbX.XC N !.tXsX/.d q d E 2XeX;.t.u.7.7.u.=X7Xx.t.t.u.-.^.",
"lX(.6XbX.XZ L ;XlX4XP s N W.4XbXkX{.~ <.m.%XJ.S.vXP.2.2.2.0.Q 7 ",
"4XtXbXXXF _.yXlX].Z S /.qXbXyX|.F 9 x ] >.*XjX0X&X9.<.<.8.X.j 2 ",
"lXbX.XR.3XbXqXE P .XyXbXwX/.A y w y b / o.( 9XuXG.` | X.%./ > 5 ",
"bX4X;XfXlXXXQ.;XfXbX2XR.C p N U '.6XtXD.} %.=.V.` o.&.&.[ g # 1 ",
"bXlXbXtXE 4XlXbX>XT C J !.;XyXbXlX3X/.D z +.@.#.*.$.{ ^ f * # 5 ",
"bXbXfXyXbXlXoXW.Q.XXwXlXbXwXXXE.Z p q 9 5 < l c W k h , = ; & 2 ",
"bXbXbXbXsX3XwXbXlX6XoX!.J C V N N v N s s p p i t w y 9 9 5 5 y "
};
