/* XPM */
static char *nzb[] = {
/* columns rows colors chars-per-pixel */
"32 32 199 2 ",
"   c #2CC22EED2ABD",
".  c gray18",
"X  c #31CB31CB31CB",
"o  c gray20",
"O  c gray21",
"+  c #393939393939",
"@  c #391339DA37FB",
"#  c #3B8F3B8F3B8F",
"$  c gray24",
"%  c #3FE062B31759",
"&  c #416D4D4033C9",
"*  c #473E5275399A",
"=  c #4C955C663A81",
"-  c #5CC974D33E99",
";  c gray26",
":  c #458145F744C3",
">  c gray28",
",  c #494949494949",
"<  c gray31",
"1  c #505050505050",
"2  c gray33",
"3  c #585858585858",
"4  c #5D5D5D5D5D5D",
"5  c #606060606060",
"6  c #676767676767",
"7  c #686868686868",
"8  c #6F6F6F6F6F6F",
"9  c #717171717171",
"0  c #747474747474",
"q  c gray48",
"w  c #7E7E7E7E7E7E",
"e  c #4B4B88880303",
"r  c #4E4E8C8C0404",
"t  c #50508E8E0606",
"y  c #525294940707",
"u  c #575798980D0D",
"i  c #585898980F0F",
"p  c #55EB86F91BC1",
"a  c #5BF596EB14E8",
"s  c #5E439C9012AB",
"d  c #5CE1940F1A5D",
"f  c #5C2FA4B907E1",
"g  c #5BCCB7CB00CD",
"h  c #612BAC440A35",
"j  c #6112AC2C0C17",
"k  c #6363B7B70404",
"l  c #63CFBACE01D0",
"z  c #6565BFBF0000",
"x  c #6868BBBB0707",
"c  c #6262B1B10909",
"v  c #6363B1B10F0F",
"b  c #6565B4B40D0D",
"n  c #6868BCBC0808",
"m  c #6868BCBC0909",
"M  c #6868BDBD0B0B",
"N  c #6ACFBECE0AD0",
"B  c #6868BBBB0E0E",
"V  c #6868BABA0F0F",
"C  c #6128A9B210C5",
"Z  c #6565B2B21111",
"A  c #6565B5B51010",
"S  c #6767B7B71515",
"D  c #6996BC961097",
"F  c #6969BCBC1212",
"G  c #6A6AB9B91717",
"H  c #6CA2BDA214A3",
"J  c #5CC08D6323E5",
"K  c #61F1857C3768",
"L  c #7683B3FC2AEC",
"P  c #7D18B4903AFE",
"I  c #6A6AC6C60000",
"U  c #6D6DC4C40303",
"Y  c #6B6BC1C10707",
"T  c #6C6CC1C10606",
"R  c #6F6FC7C70606",
"E  c #6F6FC7C70707",
"W  c #6B6BC8C80000",
"Q  c #6D6DC8C80000",
"!  c #6F6FC9C90202",
"~  c #6FE4C9E302E5",
"^  c #6B6BC3C30909",
"/  c #6E6EC2C20B0B",
"(  c #6E6EC6C60808",
")  c #6969C0C00F0F",
"_  c #7070C9C90404",
"`  c #7070CACA0404",
"'  c #70E4CAE304E5",
"]  c #7171CACA0707",
"[  c #7272CBCB0707",
"{  c #71C6CAC607C7",
"}  c #7285CACF0803",
"|  c #7272CBCB0808",
" . c #7373CBCB0808",
".. c #72DCCADB08DD",
"X. c #7272CBCB0909",
"o. c #7373CBCB0909",
"O. c #738ECB8E098F",
"+. c #7373CACA0B0B",
"@. c #7575CBCB0B0B",
"#. c #7575CBCB0E0E",
"$. c #7676CBCB0F0F",
"%. c #7575CCCC0C0C",
"&. c #7575CCCC0D0D",
"*. c #7777CCCC1111",
"=. c #7C7CCECE1818",
"-. c #724696FB48E7",
";. c #7BA6ADAF4292",
":. c #7E7E83F4774F",
">. c #82E6BDDB3B17",
",. c #8383CFCF2525",
"<. c #8383CFCF2929",
"1. c #825EC8AA2E66",
"2. c #8787D0D02C2C",
"3. c #88E6D2E52EE6",
"4. c #8A50CDAE3658",
"5. c #8787C8C83F3F",
"6. c #8B8BD0D03535",
"7. c #8C8CD0D03636",
"8. c #8D8DD4D43737",
"9. c #8F8FD3D33E3E",
"0. c #87BAAA185960",
"q. c #899AA886611C",
"w. c #9921B80D70A3",
"e. c #8A8ACBCB4141",
"r. c #92E0D6DF40E0",
"t. c #9797D6D64B4B",
"y. c #9A9AD9D94F4F",
"u. c #96B1C7545C77",
"i. c #9A9AD7D75151",
"p. c #9902D06F53F7",
"a. c #9E9EDBDB5555",
"s. c #9EB9D4355C99",
"d. c gray51",
"f. c gray53",
"g. c #898989898989",
"h. c #8E8E8E8E8E8E",
"j. c gray57",
"k. c gray59",
"l. c #98E79993984C",
"z. c #9A9A9A9A9A9A",
"x. c #9D9D9D9D9D9D",
"c. c #9D65AE0F8B18",
"v. c #A6BFBE3A888F",
"b. c #A2A2A2A2A2A2",
"n. c #A7A7A7A7A7A7",
"m. c gray66",
"M. c #ABD6ABD6ABD6",
"N. c #AFAFAFAFAFAF",
"B. c gray69",
"V. c #B6B6B6B6B6B6",
"C. c #B9B9B9B9B9B9",
"Z. c #AC89C4EB8D17",
"A. c #B7C3D0269709",
"S. c #B2D9C6D59950",
"D. c #BFE5E6E590E6",
"F. c #BB45CF41A12E",
"G. c #C1C1E7E79494",
"H. c #C4C4E8E89797",
"J. c #CACAE9E9A7A7",
"K. c #CECEEAEAADAD",
"L. c #D0D0EDEDADAD",
"P. c #C3C3C3C3C3C3",
"I. c gray77",
"U. c #C70FCA75C2E6",
"Y. c #CAFECAFECB05",
"T. c #CBCBCBCBCBCB",
"R. c #CACECCD2C881",
"E. c #CECECECECECE",
"W. c gray82",
"Q. c #D636D758D501",
"!. c gray84",
"~. c #D5F3D89CD2F0",
"^. c #DA35DF61D2BC",
"/. c #DABDDD46D78A",
"(. c gray86",
"). c #DFDFDFDFDFDF",
"_. c #DCDCF1F1C3C3",
"`. c #E5E5F3F3D5D5",
"'. c #EBEBF7F7DEDE",
"]. c gray89",
"[. c #E661E855E41C",
"{. c gray90",
"}. c #EAEAEAEAEAEA",
"|. c #ECECECECECEC",
" X c #EF7DF87DE57D",
".X c #EF55F089EE33",
"XX c #F09DF14EEFC3",
"oX c #F3F3FAFAEBEB",
"OX c #F5F5FAFAEDED",
"+X c #F3F3F3F3F3F3",
"@X c #F7F8F7F8F7F8",
"#X c #F861F916F763",
"$X c #F9F9FCFCF4F4",
"%X c #F9F9FCFCF6F6",
"&X c #FB69FC0BFA72",
"*X c gray98",
"=X c #FBFBFDFDF8F8",
"-X c #FEFEFEFEFEFE",
";X c None",
/* pixels */
";X;X;X;X;X;X;X;X;X;X;X;X;X;X;X;X;X;X;X;X;X;X;X;X;X;X;X;X;X;X;X;X",
";X;X;X;X;X> > > > > > > > > > > > > > > > > > > > > > > > ;X;X;X",
"> 0 b.B.B.B.B.B.N.N.B.N.N.n.B.V.P.I.I.I.I.I.w C.C.P.P.w m.< ;X;X",
"w !.(.).|.|.|.|.].(.(.).{.}.}.}.}.{.!.(.!.(.{.}.}.!.!.{.W.5 ;X;X",
"8 W.].].].].].].{.].{.{.{.{.{.{.{.{.{.{.{.{.{.}.{.{.{.{.{.q ;X;X",
"6 {.-X{.{.@X-X-X-X-X-X-X-X}.].{.}.].-X-X-X-X-X-X-X{.).{.|.j.;X;X",
"5 ].@XE.!.!.(.!.(.!.!.(.(.!.!.W.!.!.(.(.W.T.T.I.I.w w w T.b.;X;X",
"7 ].-X+X@X+X@X!.C.P.{.{.!.W.T.(.(.!.I.I.{.{.{.@X+X@X(.].+Xb.;X;X",
"7 ].-X(.{.@X-X+XP.m.V.C.!.x.C.m.z.z.N.m.n.C.m.N.W.-X-X-X-XV.;X;X",
"7 (.-X(.{.+X-X-XI.W.w b.w w 8 w 2 0 3 w n.z.w P.}.@X+X@X*XC.;X;X",
"7 (.@XB.B.B.B.9 9 N.2 O O O o O O O O o O g.B.6 h.w w w E.C.;X;X",
"7 (.-Xz.z.-X7 o E.-XE.-X-X-X-X-X*X1 O o O w -X7 o z.{.-X-XT.o ;X",
"6 !.*XO j.}.O O -X-X-X-X-X-X-X].f.O o > j.-X-Xz.O k.w C.].T.o ;X",
"6 (.C.3 k.g.o O -X-X-X-X-X-X}.k., O O d.).-X-Xz.o 4 g., {.T.O ;X",
"6 !.z.; !.z.O O -X-X-X-X-X-Xn.1 O O ; W.-X-X-X+XO O O O k.E.+ ;X",
"6 !.O q q h.O o -X-X-X-X-X).+ O O $ ).-X-X-X-X+XO o O O ; W.+ ;X",
"6 ).O f.1 g.O o -X-X-X-X}.< O O O I.-X-X-X-X-X-XO O +X).O {.+ ;X",
"5 ).h.].O 5 O O -X-X-X).< o O , z.-X-X-X-X-X*X@X@ @ .X}.g.].+ ;X",
"6 ].T.E.0 ; o O -X-X{.j.o O ; f.].-X-X-X@X^.A.w.0.q.Z.:.M.).+ ;X",
"4 {.).6 P.O O O -X-Xb.< o O q !.-X-X-X.XF.s.2.=.%.=.,.p.S.!.$ ;X",
"4 }.).].).N.O O C.(.O O o O O O O O o - 4.%.E  .[ ! r.a.6.v.# ;X",
"5 +X(.(.).].).d.B.T.2 O O o o O O o & 1.@.[  . .! 3.OXD.W 4.* ;X",
"8 |.!.!.).].].W.}.).].].+X+X+X|.{.[.u.#. . . . .! H.%XI  .%.J ;X",
"8 }.].].].).{.!.+X{.).].].{.}.-X|./.>. . . . .! 8.oXy.E  .[ a ;X",
"q {.(.).(.(.).T.+X!.!.].).).].*X{.U.L [  .[ U  .L._.*.[  . .s ;X",
"9 {.(.!.(.).).E.}.W.!.(.(.!.).+X).~.P Y <.G.t.9.=Xi.E E E ( d ;X",
"6 (.(.!.!.(.(.w (.T.T.W.E.W.!.).W.R.;.x z K.$X'.J./ Y Y ^ N p ;X",
"2 C.w P.P.I.w V.T.P.I.I.T.I.T.W.E.T.c.j n g `. Xe.l n N M h = ;X",
";X+ , 2 6 8 8 q f.h.j.j.x.b.n.b.b.b.l.-.b B H e.k B F F c K > ;X",
";X;X;X;X;X;X;X;X;X;X;X. . . . . . . .   % C Z A G S v f e ;X;X;X",
";X;X;X;X;X;X;X;X;X;X;X;X;X;X;X;X;X;X;X;X;X;Xt i u y r ;X;X;X;X;X",
";X;X;X;X;X;X;X;X;X;X;X;X;X;X;X;X;X;X;X;X;X;X;X;X;X;X;X;X;X;X;X;X"
};
