/* XPM */
static char *occ_icon_32[] = {
/* columns rows colors chars-per-pixel */
"32 32 190 2 ",
"   c black",
".  c gray3",
"X  c #656F0430076F",
"o  c #6878000007D0",
"O  c #6B6500000808",
"+  c #687A018607FF",
"@  c #6A89048107F8",
"#  c #689E05E707C7",
"$  c #65C007D8078F",
"%  c #5C632499070D",
"&  c #424200003939",
"*  c #737318182121",
"=  c #6B6B00003939",
"-  c #70E129622279",
";  c #00004A4A3939",
":  c #5B1A52BD0808",
">  c #73734A4A0000",
",  c #76E04EC70DD2",
"<  c #4A4A63630000",
"1  c #5E07700C0754",
"2  c #52526B6B1010",
"3  c #7B7B6B6B0000",
"4  c #60C87E210683",
"5  c #794C5D4232C6",
"6  c #000039395A5A",
"7  c #6B6B00005A5A",
"8  c #737308086363",
"9  c #00007B7B5A5A",
"0  c #000052527373",
"q  c #7B7B7B7B7B7B",
"w  c #984F0000176F",
"e  c #9C9C00001818",
"r  c #9A8804CA17E8",
"t  c #ADAD00001818",
"y  c #94D127691EC3",
"u  c #A3C10B021FFF",
"i  c #A83A07C72017",
"p  c #ADAD08082121",
"a  c #848431313939",
"s  c #848452520000",
"d  c #8EB878901AC6",
"f  c #B5B573730000",
"g  c #91B9605C3541",
"h  c #828574263DEF",
"j  c #A5A56B6B3939",
"k  c #A5A500005A5A",
"l  c #ADAD00005A5A",
"z  c #949400007B7B",
"x  c #BDBD00006B6B",
"c  c #CECE00007373",
"v  c #E7E700007B7B",
"b  c #4B4B88880303",
"n  c #4D4D8A8A0404",
"m  c #4E4E8C8C0404",
"M  c #50508E8E0606",
"N  c #525294940707",
"B  c #58589E9E0505",
"V  c #575798980D0D",
"C  c #585898980F0F",
"Z  c #631C8E0C065F",
"A  c #73739C9C0808",
"S  c #7B7B9C9C1818",
"D  c #5D5DA7A70707",
"F  c #5E5EA7A70606",
"G  c #5F5FABAB0707",
"H  c #5F8FA8FA0905",
"J  c #5BAEB7070021",
"K  c #6161ACAC0606",
"L  c #6464B2B20606",
"P  c #6363B7B70404",
"I  c #6363BABA0101",
"U  c #6565BFBF0000",
"Y  c #6868BBBB0707",
"T  c #6262B1B10909",
"R  c #6363B1B10F0F",
"E  c #6565B4B40D0D",
"W  c #6868BCBC0808",
"Q  c #6868BCBC0909",
"!  c #6868BDBD0B0B",
"~  c #6A6ABEBE0A0A",
"^  c #6868BBBB0E0E",
"/  c #6868BABA0F0F",
"(  c #63C1A89C1040",
")  c #7B7BA5A51010",
"_  c #6565B2B21111",
"`  c #6565B5B51010",
"'  c #6767B7B71515",
"]  c #6969BCBC1010",
"[  c #6969BCBC1212",
"{  c #6A6AB9B91717",
"}  c #6CAEBCFF1418",
"|  c #6B6BB2B21818",
" . c #6A6AC6C60000",
".. c #6D6DC4C40303",
"X. c #6B6BC1C10707",
"o. c #6C6CC1C10606",
"O. c #6F6FC7C70606",
"+. c #6F6FC7C70707",
"@. c #6B6BC8C80000",
"#. c #6D6DC8C80000",
"$. c #6F6FC9C90202",
"%. c #6B6BC3C30909",
"&. c #6E6EC2C20B0B",
"*. c #6E6EC6C60808",
"=. c #6969C0C00F0F",
"-. c #706EC9E40406",
";. c #7070CACA0404",
":. c #716BC9FE0708",
">. c #72DFC9FE0729",
",. c #7171CACA0707",
"<. c #7272CBCB0707",
"1. c #72DFC9FE0829",
"2. c #7272CACA0808",
"3. c #7272CBCB0808",
"4. c #7373CBCB0808",
"5. c #736BCAFE0908",
"6. c #7272CBCB0909",
"7. c #7373CBCB0909",
"8. c #7373CACA0B0B",
"9. c #7575CBCB0B0B",
"0. c #7575CBCB0E0E",
"q. c #7676CBCB0F0F",
"w. c #7575CCCC0C0C",
"e. c #7575CCCC0D0D",
"r. c #7777CCCC1111",
"t. c #7C7CCECE1818",
"y. c #0000A5A57B7B",
"u. c #7C7CA6A64646",
"i. c #82A6868C0DF3",
"p. c #BDBDA5A50000",
"a. c #BDBDADAD0808",
"s. c #BDBD84843131",
"d. c #EFEF9C9C0000",
"f. c #9C9CCECE1010",
"g. c #9C9CC6C61818",
"h. c #8383CFCF2525",
"j. c #86FFC72D2E0B",
"k. c #8383CFCF2929",
"l. c #9C9CCECE2929",
"z. c #8787D0D02C2C",
"x. c #8888D2D22E2E",
"c. c #8787CCCC3131",
"v. c #8787C8C83F3F",
"b. c #8B8BD0D03535",
"n. c #8C8CD0D03636",
"m. c #8D8DD4D43737",
"M. c #8F8FD3D33E3E",
"N. c #E7E7CECE0000",
"B. c #F7F7DEDE0000",
"V. c #EFEFDEDE1818",
"C. c #8585A9A95757",
"Z. c #8F8FB5B55E5E",
"A. c #8A8ACBCB4141",
"S. c #9292D6D64040",
"D. c #9797D6D64B4B",
"F. c #9A9AD9D94F4F",
"G. c #9A18CC3554DA",
"H. c #9797D0D05050",
"J. c #9A9AD7D75151",
"K. c #9E9EDBDB5555",
"L. c #9898C2C26161",
"P. c #9C9CC7C76262",
"I. c #00005A5A8C8C",
"U. c #00006B6BA5A5",
"Y. c #00007B7BA5A5",
"T. c #00007B7BBDBD",
"R. c #E7E708088484",
"E. c #00008C8CBDBD",
"W. c #0000B5B5EFEF",
"Q. c #97A6A58781BD",
"!. c #B5B59C9CADAD",
"~. c gray68",
"^. c #BBF2BC95B32C",
"/. c #BDBDBDBDB5B5",
"(. c #BFBFE6E69090",
"). c #C1C1E7E79494",
"_. c #C4C4E8E89797",
"`. c #CACAE9E9A7A7",
"'. c #CECEEAEAADAD",
"]. c #D0D0EDEDADAD",
"[. c #DCDCF1F1C3C3",
"{. c #E5E5F3F3D5D5",
"}. c #EBEBF7F7DEDE",
"|. c #EFBDF8BDE5B5",
" X c #F3F3FAFAEBEB",
".X c #F5F5FAFAEDED",
"XX c #F9F9FCFCF4F4",
"oX c #F9F9FCFCF6F6",
"OX c #FBFBFDFDF8F8",
"+X c None",
/* pixels */
"+X+X+X+X+X+X+X+X+X+X+X+X+X+X+X+X+X+X/.d.d.+X+X+X+X+X+X+X+X+X+X+X",
"+X+X+X+X+X+X+X+X+X+X+X+X+X!.z z z /.> s f s./.W.W.W./.+X+X+X+X+X",
"+X+X+X+X+X+X+X+X+X+X+X+X+X& z z 7 /.> s f /.0 W.W.E.Y.+X+X+X+X+X",
"+X+X+X+X+X+X+XI.T.T.T.I.+X& & 8 7 +X+X+X+X+X0 0 0 E.E.; ; y.y.9 ",
"+X+X+X+X+X+X+X6 6 U.I.I.+X/.& 7 /.+X+X+X+X+X+X0 0 /.+X; ; ; 9 9 ",
"/.v R.v R./.+X6 6 I.I.I.+X+X+X+X+X+X+X+X+X+X+X+X+X+X+X; ; ; 9 9 ",
"= v v c l /.+X+X6 I.I.+X+X+X+X+X+X+X+X+X+X+X+X+X+X+X+X+X/.; 9 +X",
"= k x l l /.g.g.l.+X+X+X+X+X+X+X      +X+X+X      +X+X+X      +X",
"= x l j g.g.f.g.g./.+X+X+X+X+X  . +X    +X          +X          ",
"+Xl /.< g.g.g.A A S +X+X+X+X+X  +X+X+X  +X    +X+X+X      +X+X+X",
"+X+X+X< < ) A A A A +X+X+X+X    +X+X+X      +X+X+X+X    +X+X+X+X",
"+X+X+X2 < A S S A A +XB.B.V.+X  +X+X+X  +X    +X+X+X      +X+X+X",
"+X+X+X< 2 S A S S +XB.B.B.B.B.    +X    +X          +X          ",
"+X+X+X+X/.A /./.B.B.B.B.B.B.B.p.      +X+X+X      q +X+X      +X",
"+X+X+X+X+X+X+X/.3 B.B.B.B.B.N.p.+X+X+X+X+X+X+X+X+X+X+X+X+X+X+X+X",
"+X+X+X+X+X+X+X/.3 3 B.B.p.p.p.p.+X+X+X+X+X+X+X+X+X+X+X+X+X+X+X+X",
"+X+X+X+X+X+X+X/.3 3 3 p.p.p.p.p.+X+X+Xp ~.+X+X+X+X+X+X+X+X+X+X+X",
"+X+X+X+X+X+X+X/.3 3 3 p.p.p.p.a.+Xt t p O O ^.+X+X+X+X+X+X+X+X+X",
"+X+X+X+X+X+X+X+X+X3 3 p.p.p.p.+X+Xp e p + - h L.P.L.Z.+X+X+X+X+X",
"+X+X+X+X+X+X+X+X+X/.3 p.p.+X+Xt p p t u 5 G.z.t.e.t.h.H.C.+X+X+X",
"+X+X+X+X+X+X+X+X+X+X3 p.+X+X+Xt p p w g n.e.:.:.4.$.S.K.n.u.+X+X",
"+X+X+X+X+X+X+X+X+X+X+X+X+X+X+XO t t y j.9.:.7.7.$.x..X(.@.c.+X+X",
"+X+X+X+X+X+X+X+X+X+X+X+X+X+X+XO O r d 0.:.9.:.:.-._.oX .4.e.| +X",
"+X+X+X+X+X+X+X+X+X+X+X+X+X+X+XO O # i.4.9.:.:.$.m. XF.$.4.<.L +X",
"+X+X+X+X+X+X+X+X+X+X+X+X+X+X+XO + $ Z <.4.$...4.].[.r.:.4.4.K +X",
"+X+X+X+X+X+X+X+X+X+X+X+X+X+X+XO O # 4 X.k._.D.M.oXJ.+.+.+.*.F +X",
"+X+X+X+X+X+X+X+X+X+X+X+X+X+X+XO O @ 1 Y U '.XX}.`.&.X.X.X.~ B +X",
"+X+X+X+X+X+X+X+X+X+X+X+X+X+X+X+X* + % H ! J {.|.A.I Q ~ =.G +X+X",
"+X+X+X+X+X+X+X+X+X+X+X+X+X+X+X+X+XO O : E ^ } A.P ^ [ [ T n +X+X",
"+X+X+X+X+X+X+X+X+X+X+X+X+X+X+X+X+X+XO # , ( _ ` { ' R D b +X+X+X",
"+X+X+X+X+X+X+X+X+X+X+X+X+X+X+X+X+X+X/.O i Q.M C V N m +X+X+X+X+X",
"+X+X+X+X+X+X+X+X+X+X+X+X+X+X+X+X+X+X+Xa /.+X+X+X+X+X+X+X+X+X+X+X"
};
