/* XPM */
static char *openofficeorg3_printeradmin[] = {
/* columns rows colors chars-per-pixel */
"32 32 256 2 ",
"   c #0D010E010E01",
".  c #000006060A0A",
"X  c #040411111C1C",
"o  c #0C0C15151D1D",
"O  c #0B0B12121717",
"+  c #131314141414",
"@  c #1A1A1B1B1B1B",
"#  c #1AC829840AF5",
"$  c #010114142323",
"%  c #020217172828",
"&  c #01011A1A2C2C",
"*  c #0A0A1A1A2C2C",
"=  c #0C0C16162020",
"-  c #02021D1D3131",
";  c #0B0B1E1E3232",
":  c #131322222E2E",
">  c #040423233737",
",  c #0A0A22223636",
"<  c #040424243A3A",
"1  c #0F0F25253B3B",
"2  c #1144254C3ABC",
"3  c #121228283E3E",
"4  c #1E1E2D2D3D3D",
"5  c #151526263737",
"6  c #2B222F422B5F",
"7  c #21DD28672955",
"8  c #2AA32FF42935",
"9  c #21212C2C3838",
"0  c #22042DB13150",
"q  c #397B638E07FF",
"w  c #429F73400BD3",
"e  c #487B7CE30D40",
"r  c #098A292945C6",
"t  c #13132B2B4242",
"y  c #13132E2E4848",
"u  c #151530304242",
"i  c #141430304C4C",
"p  c #1B1B39395353",
"a  c #101033335555",
"s  c #232336364A4A",
"d  c #25A63B3B4E4E",
"f  c #24243E3E5353",
"g  c #22223E3E5A5A",
"h  c #16163D3D6868",
"j  c #3B3B45454E4E",
"k  c #202040405D5D",
"l  c #32324A4A5E5E",
"z  c #29294A4A6666",
"x  c #38B951D26767",
"c  c #242449497575",
"v  c #2E2E52527B7B",
"b  c #323254547373",
"n  c #373759597272",
"m  c #39395B5B7C7C",
"M  c #34DF57017CD2",
"N  c #44444E4E5858",
"B  c #454553535F5F",
"V  c #51756E6B4AC6",
"C  c #672F797657B6",
"Z  c #52525D5D68E9",
"A  c #414159597373",
"S  c #40405F5F7C7C",
"D  c #56AB62D56E41",
"F  c #4C4C67E87D7D",
"G  c #5C5C69697575",
"H  c #51516A6A7D7D",
"J  c #646466666969",
"K  c #61BC66486372",
"L  c #62626F6F7B7B",
"P  c #68686F6F74F5",
"I  c #6AFA74567DB5",
"U  c #747477777979",
"Y  c #767679797B7B",
"T  c #7B6D7E707F72",
"R  c #753C7A2A77CC",
"E  c #5F1297071E30",
"W  c #5FD0AAF609E8",
"Q  c #5EC8A7640A9E",
"!  c #5B7BB77E0080",
"~  c #6474BD3C00A8",
"^  c #63B9B2B20C62",
"/  c #68C4BCC70B38",
"(  c #65E6B9B90586",
")  c #637EAC4B13A1",
"_  c #6610B55F1212",
"`  c #6A79BC311384",
"'  c #616193D42943",
"]  c #660E9DFB2507",
"[  c #66288AF63E26",
"{  c #6BB0AADF2285",
"}  c #71B4A4403B9F",
"|  c #7AD7B6E93564",
" . c #6D6DC57C052A",
".. c #6E7EC975017A",
"X. c #6C6CC3830ACB",
"o. c #70FDCABA055A",
"O. c #7372CB7B0967",
"+. c #7C7CCECE1818",
"@. c #7777CCCC1111",
"#. c #69558E9842A8",
"$. c #6E3792564848",
"%. c #79D192A15DDA",
"&. c #5A1E92A17389",
"*. c #78BE951C6144",
"=. c #8383CFCF2727",
"-. c #883FD1E42D93",
";. c #8791CC7B33C4",
":. c #8787C8C83F3F",
">. c #8C8CD2273636",
",. c #8F8FD3D33E3E",
"<. c #8025B2604A29",
"1. c #8A8ACBCB4141",
"2. c #935FCB6D4FA7",
"3. c #96D1D7A948FB",
"4. c #9D23D7D55652",
"5. c #ABF7CF8E7FA8",
"6. c #13134A4A8686",
"7. c #14144D4D8A8A",
"8. c #171750508F8F",
"9. c #161652529393",
"0. c #181854549797",
"q. c #181856569A9A",
"w. c #191958589D9D",
"e. c #292953538181",
"r. c #323257578484",
"t. c #373759598181",
"y. c #3C3C5E5E8282",
"u. c #34345E5E8D8D",
"i. c #23235E5E9F9F",
"p. c #3F3F65658686",
"a. c #3E3E64648F8F",
"s. c #2A2A61619D9D",
"d. c #343465659C9C",
"f. c #3E3E69699999",
"g. c #1B1B5C5CA3A3",
"h. c #2B2B6666A8A8",
"j. c #3A3A6D6DA5A5",
"k. c #32326A6AA6A6",
"l. c #2C577671AB7F",
"z. c #31ED79D6ABA5",
"x. c #357776D1BD1E",
"c. c #424264648484",
"v. c #494965658282",
"b. c #4D4D6C6C8D8D",
"n. c #4A4A6C168585",
"m. c #525270708C8C",
"M. c #555573739292",
"N. c #5D5D7B7B9A9A",
"B. c #5E5E79799797",
"V. c #696976768282",
"C. c #6E6E7B7B8989",
"Z. c #66BC777786DC",
"A. c #74747C7C8383",
"S. c #48D27885A6F7",
"D. c #44447B7BB4B4",
"F. c #41417676B0B0",
"G. c #39397A7AC0C0",
"H. c #36367878C0C0",
"J. c #737380808D8D",
"K. c #666681819F9F",
"L. c #7A7A88889696",
"P. c #767689899B9B",
"I. c #767684849191",
"U. c #49498181BCBC",
"Y. c #54D58484B8B8",
"T. c #66E78585A6A6",
"R. c #7C7C9090A3A3",
"E. c #73739191AEAE",
"W. c #66668F8FBBBB",
"Q. c #77779494B3B3",
"!. c #79CF98EEBA64",
"~. c #4E4E8989C7C7",
"^. c #47478383C3C3",
"/. c #56008B35C56F",
"(. c #64649292C6C6",
"). c #69699A9ACECE",
"_. c #72729D9DCBCB",
"`. c #7D7DA1A1CACA",
"'. c #7A7AA4A4D4D4",
"]. c #84F589CF8CDE",
"[. c #88888B8B8E8E",
"{. c #847587D38986",
"}. c #8B8B8E8E9292",
"|. c #8C8C94949E9E",
" X c #8CF092CB909F",
".X c #99999C9C9F9F",
"XX c #92E1975D97AA",
"oX c #9507A3BF8DB1",
"OX c #9D39A4439E86",
"+X c #86869898ABAB",
"@X c #91919C9CA7A7",
"#X c #9F9FA3A3A8A8",
"$X c #8585A1A1BEBE",
"%X c #9090A3A3B9B9",
"&X c #9191A8A8BFBF",
"*X c #9A9AABABBEBE",
"=X c #9696A5A5B1B1",
"-X c #A8A8ACACAEAE",
";X c #A6A6ACACB0B0",
":X c #ACACB1B1B5B5",
">X c #ACACB3B3BABA",
",X c #B1B1B6B6BBBB",
"<X c #ADBECE4587EE",
"1X c #AF6EC9FD9254",
"2X c #B3A4C96B9D24",
"3X c #BFDEE6E190E4",
"4X c #C343E8689616",
"5X c #C746D47FBC6F",
"6X c #CCCCEA6AAAAA",
"7X c #D0D0EDEDADAD",
"8X c #8888A5A5C3C3",
"9X c #8989A9A9CACA",
"0X c #9393AAAAC2C2",
"qX c #9999B0B0C7C7",
"wX c #9E9EB5B5CDCD",
"eX c #8B8BAEAED4D4",
"rX c #8585AAAAD4D4",
"tX c #9741B80DDB30",
"yX c #ABABB8B8C5C5",
"uX c #A0A0B7B7CDCD",
"iX c #A4A4B4B4C4C4",
"pX c #BABABEBEC1C1",
"aX c #A2A2BFBFDEDE",
"sX c #9E9EBEBEE0E0",
"dX c #BFBFC3C3C7C7",
"fX c #B8B8C2C2C8C8",
"gX c #B4B4CACAE1E1",
"hX c #BFBFD4D4EBEB",
"jX c #BBBBD0D0E7E7",
"kX c #C9A9CFFDCD1B",
"lX c #C9BAD333C96B",
"zX c #C4C4CBCBD1D1",
"xX c #CDCDD0D0D4D4",
"cX c #C9C9D453DEDE",
"vX c #D1D1D5D5D8D8",
"bX c #D9D9DCDCDFDF",
"nX c #D1D1D4D4D7D7",
"mX c #DCDCF1F1C3C3",
"MX c #E8E8F5F5DA5A",
"NX c #CDCDD7D7E0E0",
"BX c #D9D7DF11E39A",
"VX c #DF2BE325E4D8",
"CX c #DBDBE4E4EAEA",
"ZX c #E34DE7C7EB03",
"AX c #E3ADE9C1ED82",
"SX c #EAEAEDEDEFEF",
"DX c #EF7AF87DE57E",
"FX c #F4F4FAFAECEC",
"GX c #E7E7EDEDF1F1",
"HX c #EBEBEEEEF2F2",
"JX c #EDEDF1F1F5F5",
"KX c #F2F2F4F4F7F7",
"LX c #F9F9FCFCF5F5",
"PX c #F5F5F7F7F9F9",
"IX c #FEE0FEF4FEC3",
"UX c None",
/* pixels */
"UXUXUXUX< < < < < < < < 7.w.w.q.q.q.q.w.w.i.g.g.g.g.g.g.g.g.UXUX",
"UXUXUX< p H P.R.P.Z.< r wXwXqX0X%X0X0XwXaXgXjXcXhXNXhXsXg.g.UXUX",
"UXUXUX< F m.m n b f ; g Q.E.qXvXAXIXJXcX8X9XtXsXsXsXsX(.g.q.UXUX",
"UXUXUX> n.n b H P.C.B A %XJXIXHXyXR.m.K.Q.$XtXsXsXsXsXD.g.UXUXUX",
"UXUXUX> m =XSXIXIXIXIXKXIXPXiXv.v.n.M.N.T.!.8XeXtXtXtXh.g.UXUXUX",
"UXUXUXG JXkX@XC.V.L A.NXIX+XA y.c.b.b.M.B.$X$X!.`.rXeXg.g.UXUXUX",
"UXUXUXD d u 9 t t $ $ n v.b m y.b.%XNXIXIXKXcX$XW.).'.w.g.UXUXUX",
"UXUXUX% t t t t t $ $ t.M M y.*XPXIXPXyXN.t.a.S.Y.(.).w.q.UXUXUX",
"UXUXUX& t t t t 2 % % v r.c.BXIXIX*Xt.v r.u.f.F.Y././.i.w.UXUXUX",
"UXUXUX> t 2 s C.|.-X@X+XK.BXIXJXB.c e.u.d.j.F.D.D.~.~.k.w.UXUXUX",
"UXUXUX% x :XPXIXIXIXIXIXIXL.L.L.L.L.L.L.L.L.P.L.L.L.L.D.0.UXUXUX",
"UXUXUX|.IXIXIXIXxX,XpXBXIXI.JXHXJXJXJXJXKXKXJXJXKXJXL.D.9.7.UXUX",
"UXUXAXPX:XD 4 & * 5 X X v C.CXCXCXCXCXCXCXCXCXCXCXCXC./.9.9.UXUX",
"UXZXfX: * * ; ; ; 2 , $ h C.CXCXCXCXBXCXCXBXCXBXCXCXC.G.s.7.UXUX",
"UXUXUX$ , 1 1 1 2 t d % a C.CXCXl.l.l.l.l.l.l.l.CXCXV.G.D.7.7.UX",
"UXUXUX% t t t y y y l & < L CXCXBXCXCXCXCXCXCXCXCXCXL x.~.7.6.UX",
"UXUXUX& y i i i i i g , - G CXZXCXAXCXAXCXCXCXCXCXAXG x.^.9.6.UX",
"UXUXUX- i i i i i i i s - Z SXZXl.l.l.l.l.l.z.z.VXZXD x.G.d.6.UX",
"UXUXUX& i i i i i i i f - Z SXSXGXGXGXGXZXkX1X<X5.<X*.S.x.j.6.UX",
"UXUXUX- i i i i 2 * X O . B JXJXJXJXJXVX2X4.-.+.O.+.=.2.V 5 r k ",
"UXUXUX& p p p p O U Y pX,XN KXKXl.z.l.&.>.O.o.o.O...,.4.>.%.L 9 ",
"UXUXUX& g p h g o ;X[.VXxXN PXPXPXPX5X;.O.O.O.O...-.FX3X..;.oX9 ",
"UXUXUX& z z z z = :X}.ZXbXj A.[.L.].} @.O.O.O.O.o.4XLX....@.<.0 ",
"UXUXUX& b b b b = :X}.vXpXzXnXnXvXkX| O.O.O.O...>.FX4...O...| 0 ",
"UXUXUX& M m m m @ :X.X-X-X@X#X#X.XOX{ O.O.o...O.7XmX@.O.o.O.{ 8 ",
"UXUXUX% z c.p.p.o A.R P J J J J J K E  .=.4X3.,.LX4. . . .X.] 8 ",
"UXUXUX% u l p.n.+ Y Y Y Y Y Y Y U R ' ( ~ 7XLXMX6XX. . . ./ ' 6 ",
"UXUXUXUX& & & & . T T A.T T T T T T C W / ! MXDX:.~ / X./ W C 7 ",
"UXUXUXUXUXUXUXUX+ [.[.[.[.[.[.[.[.[.{.[ _ ` ` :.( ` / ` ^ [ {.@ ",
"UXUXUXUXUXUXUXUX+ R .X.X.X.X.X.X.X.X.XXX$.) ^ _ _ _ _ Q #. XR   ",
"UXUXUXUXUXUXUXUX                          # q w e w q #         ",
"UXUXUXUXUXUXUXUXUXUXUXUXUXUXUXUXUXUXUXUXUXUXUXUXUXUXUXUXUXUXUXUX"
};
