/* XPM */
static char *opencity[] = {
/* columns rows colors chars-per-pixel */
"32 32 256 2 ",
"   c #565679792D2D",
".  c #58586C6C3B3B",
"X  c #AEAE00000000",
"o  c #B3B300000000",
"O  c #BBBB03030404",
"+  c #BDBD02020D0D",
"@  c #BA3A03031717",
"#  c #B0B009092929",
"$  c #C6C601010000",
"%  c #CACA03030303",
"&  c #C7C70B0B0101",
"*  c #CBCB0B0B0303",
"=  c #C4C404040909",
"-  c #CCCC0A0A0C0C",
";  c #DDDD1D1D0C0C",
":  c #C6C60B0B1414",
">  c #D7570E8F1212",
",  c #CECE10101414",
"<  c #E1E10F0F1212",
"1  c #E1E111111616",
"2  c #F3F319191E1E",
"3  c #CBCB3B3B0000",
"4  c #F2F226261A1A",
"5  c #D2D218182F2F",
"6  c #F6F61A1A2020",
"7  c #FF691D0C240F",
"8  c #DAEC3E2A3689",
"9  c #EEEE25252020",
"0  c #FC3D211C258B",
"q  c #F3CE22B92722",
"w  c #F8F82BAC33B4",
"e  c #FDFD33333939",
"r  c #F8F838A13E7C",
"t  c #D9D947472121",
"y  c #878704045151",
"u  c #A2A212124040",
"i  c #8D8D16166060",
"p  c #88881E1E6868",
"a  c #B8207EA74814",
"s  c #D97D4E3745DE",
"d  c #FAFA44444444",
"f  c #EB9951EB4F95",
"g  c #CACA7E7E7E7E",
"h  c #0707B3B30000",
"j  c #0808B2B20101",
"k  c #0606BCBC0000",
"l  c #0606B1B10909",
"z  c #0505A2A21F1F",
"x  c #4D0D8A8A0444",
"c  c #50508E8E0606",
"v  c #58589E9E0505",
"b  c #575798980D0D",
"n  c #585898980F0F",
"m  c #525294940707",
"M  c #5DDEA7A70687",
"N  c #5F5FABAB0707",
"B  c #5BCBB76D000B",
"V  c #6116AAE90976",
"C  c #6161ACAC0606",
"Z  c #63E4B5340505",
"A  c #64B0BD5A00F7",
"S  c #6868BBBB0707",
"D  c #63B9B2B20C62",
"F  c #68D7BCC70B5F",
"G  c #6262ACAC1010",
"H  c #6610B55F1212",
"J  c #6A7FBC25134F",
"K  c #6B6BB2B21818",
"L  c #754DB31E295C",
"P  c #7E0BADAF3EFA",
"I  c #7A2AB163365A",
"U  c #0202CFCF0000",
"Y  c #0D0DCCCC0B0B",
"T  c #0101D3D30000",
"R  c #0000D9D90000",
"E  c #0B0BDBDB0C0C",
"W  c #1414DDDD1515",
"Q  c #1818D4D41919",
"!  c #1C1CDDDD1C1C",
"~  c #0000FFFF0E0E",
"^  c #1B1BE1E11D1D",
"/  c #0202FEFE1313",
"(  c #0000F3F31C1C",
")  c #0B0BFFFF1A1A",
"_  c #1111F4F41A1A",
"`  c #1F1FDBDB2222",
"'  c #0606DFDF3636",
"]  c #0202E7E72525",
"[  c #0404E8E82A2A",
"{  c #0202F1F12020",
"}  c #0505E3E33131",
"|  c #2929E4E42F2F",
" . c #2727E4E42A2A",
".. c #2121FFFF2E2E",
"X. c #2F2FEFEF3636",
"o. c #3434E8E83737",
"O. c #3939EEEE3F3F",
"+. c #2D2DFDFD3A3A",
"@. c #3737F1F13D3D",
"#. c #3131FFFF3E3E",
"$. c #6D6DC57C052A",
"%. c #6E3BC9620134",
"&. c #6C6CC3830ACB",
"*. c #7145CA960577",
"=. c #738CCB820978",
"-. c #7777CCCC1111",
";. c #7C7CCECE1818",
":. c #090996964242",
">. c #2A2A93936464",
",. c #1313ABAB6F6F",
"<. c #7C7CA6A64646",
"1. c #0707D3D34444",
"2. c #0A0AC0C05C5C",
"3. c #3B3BF3F34343",
"4. c #3434FFFF4040",
"5. c #3A3AFFFF4646",
"6. c #4040F6F64848",
"7. c #4343FBFB4D4D",
"8. c #4646FFFF5151",
"9. c #4D4DFEFE5858",
"0. c #4B4BFDFD5656",
"q. c #5555FDFD5F5F",
"w. c #5C5CFEFE6666",
"e. c #5F5FFFFF6969",
"r. c #6262FFFF6C6C",
"t. c #6767FFFF7171",
"y. c #6868FFFF7272",
"u. c #867E85B51009",
"i. c #81A8BC9E38DB",
"p. c #EBEBAEAE0000",
"a. c #EAEAA2A21A1A",
"s. c #8383CFCF2525",
"d. c #8383CFCF2929",
"f. c #8787D0D02C2C",
"g. c #88DFD2B32E84",
"h. c #8704CC313095",
"j. c #8787C8C83F3F",
"k. c #8C8CD2273636",
"l. c #8F8FD3D33E3E",
"z. c #DDDDDDDD1717",
"x. c #ECECECEC0202",
"c. c #EEEEEEEE0A0A",
"v. c #F9F9ECEC0101",
"b. c #F4F4F4F40000",
"n. c #FFFFFEFE0101",
"m. c #E3E3E3E31111",
"M. c #FFFFFFFF1111",
"N. c #FCFCFCFC1D1D",
"B. c #E0E0E0E02828",
"V. c #E4E4E4E42323",
"C. c #FFFFFFFF2626",
"Z. c #FFFFFFFF2B2B",
"A. c #B7C384D04F28",
"S. c #B97A8A235E4F",
"D. c #B42B9696510C",
"F. c #B42B98FF5331",
"G. c #8DC3BF0A5338",
"H. c #B0E0A6D15754",
"J. c #A714B5C67952",
"K. c #8A8ACBCB4141",
"L. c #92FFD6FF40FE",
"P. c #9797D6D64B4B",
"I. c #9A9AD9D94F4F",
"U. c #9EA1CFFC5881",
"Y. c #9AB8D4885301",
"T. c #9E9EDBDB5555",
"R. c #FFFFFFFF5252",
"E. c #FFFFFFFF6868",
"W. c #FFFFEFEF7474",
"Q. c #FFFFFFFF7171",
"!. c #FFFFFFFF7E7E",
"~. c #02023F3F9090",
"^. c #1C1C1E1EACAC",
"/. c #01010202BCBC",
"(. c #3A3A0C0CB9B9",
"). c #56563131AEAE",
"_. c #3E3E41419A9A",
"`. c #090976769F9F",
"'. c #20207C7CA5A5",
"]. c #646468689393",
"[. c #00000101CCCC",
"{. c #00001818C1C1",
"}. c #00000000DDDD",
"|. c #0B0B0D0DDCDC",
" X c #0F0F1717D7D7",
".X c #00000000E2E2",
"XX c #0F0F1010E5E5",
"oX c #18181E1EEAEA",
"OX c #00000707FFFF",
"+X c #03030E0EFDFD",
"@X c #0B0B0C0CF0F0",
"#X c #04041010FCFC",
"$X c #0C0C1515FCFC",
"%X c #1A1A2323F4F4",
"&X c #27272C2CF4F4",
"*X c #21212B2BFBFB",
"=X c #2F2F3232F6F6",
"-X c #26263030FFFF",
";X c #2F2F3939FFFF",
":X c #5C5C3333CACA",
">X c #37374444DBDB",
",X c #26265A5AD5D5",
"<X c #22226A6AC3C3",
"1X c #33336565D5D5",
"2X c #39395B5BE3E3",
"3X c #2C2C4343F1F1",
"4X c #3D3D4545FFFF",
"5X c #65656969E6E6",
"6X c #909053538282",
"7X c #92926969A6A6",
"8X c #151584848686",
"9X c #A4D7B0178500",
"0X c #81818585A2A2",
"qX c #90909696BABA",
"wX c #97979C9CB3B3",
"eX c #9E9EA2A2AEAE",
"rX c #A3A3A7A7AAAA",
"tX c #B6B6B9B9B7B7",
"yX c #BABABBBBB6B6",
"uX c #B5B5B7B7B8B8",
"iX c #B9B9BDBDBBBB",
"pX c #CFCF89898D8D",
"aX c #DCDCA5A5A5A5",
"sX c #DFDFB9B9B8B8",
"dX c #BBD3C5EF9785",
"fX c #BFFEE6FF90FE",
"gX c #B88FC67BAAEB",
"hX c #BEBEC0C0BDBD",
"jX c #D3D3D5D58989",
"kX c #C1C1E7E79494",
"lX c #C4C4E8E89797",
"zX c #D302C9FFBA32",
"xX c #CACAE9E9A7A7",
"cX c #CECEEAEAADAD",
"vX c #D0D0EDEDADAD",
"bX c #92929696CECE",
"nX c #8C8C8E8ED3D3",
"mX c #CCCCCECECBCB",
"MX c #C6BAC8EEC1D3",
"NX c #D9D9CFCFC0C0",
"BX c #DF95CEFCCB15",
"VX c #CFCFD1D1CDCD",
"CX c #D252D653CDE8",
"ZX c #CECED2D2D0D0",
"AX c #D49ED6A0D29F",
"SX c #D728DA76D613",
"DX c #DBDBDDDDDADA",
"FX c #EF67D1BFCD8A",
"GX c #DCDCF1F1C3C3",
"HX c #EBEBF7F7DEDE",
"JX c #E5E5F3F3D5D5",
"KX c #EFBEF863E502",
"LX c #F4F4FAFAECEC",
"PX c #F9F9FCFCF5F5",
"IX c #FBFBFDFDF8F8",
"UX c None",
/* pixels */
"UXUXUXUXUXUXUXUXUXUXUXUXUXUXUXUXUXUXUXUXUXUXUXUXUXUXUXUXUXUXUXUX",
"UXUXUXUXUXUXUXUXUXUXUXUXUXUXUXUXUXUXUXUXUXUXUXUXUXUXUXUXUXUXUXUX",
"UXUXUXUXUXUXUXUXUXUXUXUXUXUXUXUXUXUXUXUXUXUXUXUXUXUXUXUXUXUXUXUX",
"UXUXUXUXUXUXUXUXUXUXUXUXUXUXUXUXUXUXUXUXUXUXUXUXUXUXUXUXUXUXUXUX",
"UXUXUXUXUXUXUXUXUXUXUXb.x.m.B.m.V.x.b.n.UXUXUXUXUXUXUXUXUXUXUXUX",
"UXUXUXUXUXUXUXUXUXUXUXz.c.C.R.E.Q.M.n.n.UXUXUXUXUXUXUXUXUXUXUXUX",
"UXUXUXUXUXUXUX[./././.^._.].0XjX!.N.n.n.UXUXUXUXUXUXUXUXUXUXUXUX",
"UXUXUXUXUXUX.X}.|.oX%X*X$XOX#XrX!.C.n.n.UXUXUXUXUXUXUXUXUXUXUXUX",
"UXUXUXUXUXUX.X.XXX&X;X4X*X+X+XeX!.Z.n.n.UXUXUXUXUXUXUXUXUXUXUXUX",
"UXUXUXUXUXUX~.{. X&X;X4X-X+X+XwX!.Z.n.n.UXUXUXUXUXUXUXUXUXUXUXUX",
"U k h j j j l z :.8X3X4X-X#X+XqXW.a.p.v.UXUXUXUXUXUXUXUXUXUXUXUX",
"R T Y Q ` | X._ ~ ] ,X4X-X+X@X6Xt & & 3 UXUXUXUXUXUXUXUXUXUXUXUX",
"R R ^ 7.r.r.e.#.~ { <X4X=X(.y = $ $ $ $ O o UXUXUXUXUXUXUXUXUXUX",
"R R ! 7.t.t.e.8./ ( '.:Xi @ % $ $ $ $ $ $ $ o X UXUXUXUXUXUXUXUX",
"UXR ! 3.r.t.r.9.) / . @ $ $ $ $ $ $ $ $ $ $ = - O X UXUXUXUXUXUX",
"UXR ! @.e.t.e.9.) ~   = $ $ $ $ $ $ $ $ % 1 2 7 2 > O UXUXUXUXUX",
"UXR W O.w.t.r.9.) / >.# $ $ $ $ $ $ * ; 2 7 7 7 7 7 6 > = UXUXUX",
"UXR E O.q.t.r.9.) ~ ,.p $ $ $ $ * ; 4 0 7 7 7 0 q q 7 7 2 < UXUX",
"UXR R o.9.y.r.8./ ~ 2.).+ $ = , 9 0 7 7 7 8 a D.H.D.A.s r e 6 UX",
"UXUXR  .0.t.r.7./ ~ 1.>Xu : 5 w w e d f S.U.f.;.-.;.s.Y.dXFXUXUX",
"UXUXR ^ 7.t.r.5./ ~ ' 2X7Xg pXaXsXNXBXJ.k.=.*.*.*.%.L.T.k.<.UXUX",
"UXUXR W 6.r.r.4.~ ~ } 2XbXiXiXZXDXDXgXf.=.*.=.=.$.g.LXfX%.h.UXUX",
"UXUXR E 3.r.r.#.~ ~ [ 1XnXyXiXmXSXSXG.-.=.=.=.*.*.lXPX%.*.-.K UX",
"UXUXR E @.r.r.#.~ / ( <X5XuXiXVXSXCXi.=.=.*.*.*.k.LXI.%.=.=.Z UX",
"UXUXUXE 3.q.r.+.~ / ( `.UXtXiXVXAXMXL =.=.*.$.*.vXGX-.=.=.=.C UX",
"UXUXUXUXO.q.w...~ ~ UXUXUXyXiXmXAXVXI %.d.kXP.l.IXI.$.$.*.$.M UX",
"UXUXUXUXUX+.#.UXUXUXUXUXUXUXhXmXVXCXP S A cXPXHXxX&.S &.&.F v UX",
"UXUXUXUXUXUXUXUXUXUXUXUXUXUXMXmXVXAX9XV F B JXKXK.A S &.&.C UXUX",
"UXUXUXUXUXUXUXUXUXUXUXUXUXUXmXVXVXSXzXu.H F J K.Z F J J D x UXUX",
"UXUXUXUXUXUXUXUXUXUXUXUXUXUXUXUXUXUXUXUXc G H H J H D M x UXUXUX",
"UXUXUXUXUXUXUXUXUXUXUXUXUXUXUXUXUXUXUXUXUXUXc n n m x UXUXUXUXUX",
"UXUXUXUXUXUXUXUXUXUXUXUXUXUXUXUXUXUXUXUXUXUXUXUXUXUXUXUXUXUXUXUX"
};
