/* XPM */
static char *passage[] = {
/* columns rows colors chars-per-pixel */
"32 32 162 2 ",
"   c #2B3A391B1AFD",
".  c #230223022302",
"X  c #24F226E122A1",
"o  c #24FF26752334",
"O  c gray14",
"+  c #3B8C5E5E1304",
"@  c #41C36B800FF2",
"#  c #4AD57A741484",
"$  c #4CA776641AD5",
"%  c #452753533452",
"&  c #4D937F9B2BD4",
"*  c #5A047CD730EA",
"=  c #5AC87E53303F",
"-  c #33BB37227682",
";  c #3461370A7B11",
":  c #350E37127E9A",
">  c #372547CF59AA",
",  c #46D1492343F9",
"<  c #484B4A4745EE",
"1  c #491F4A954754",
"2  c #494949494949",
"3  c #5D9B6D6D4B87",
"4  c #68E174185B3D",
"5  c #67916B106369",
"6  c #6774699A657D",
"7  c #681C693F66E8",
"8  c #6AA56D27679C",
"9  c #6A4F6AC56990",
"0  c #6A6A6B1669D0",
"q  c #6A476A476A47",
"w  c #6C276D0D6AF5",
"e  c #6CB06EA86A67",
"r  c #6D6D6D6D6D6D",
"t  c #6DB66E5F6CB8",
"y  c #6DC96E796CEE",
"u  c #725077C66B20",
"i  c #653D7D47778A",
"p  c #025781810134",
"a  c #000087870000",
"s  c #4FFB8117182D",
"d  c #548788BB1919",
"f  c #5995970E1B81",
"g  c #621699441F92",
"h  c #5CE4A56F0896",
"j  c #5F97AAB108A2",
"k  c #5EB2A9CB0AF1",
"l  c #5B49B74800B7",
"z  c #6363B7B70404",
"x  c #636DBA6C016E",
"c  c #6565BFBF0000",
"v  c #6868BBBB0707",
"b  c #6262B1B10909",
"n  c #6363B1B10F0F",
"m  c #6565B4B40D0D",
"M  c #6868BCBC0808",
"N  c #6868BCBC0909",
"B  c #6868BDBD0B0B",
"V  c #6A6DBE6C0A6E",
"C  c #6868BBBB0E0E",
"Z  c #6868BABA0F0F",
"A  c #60EBA9761089",
"S  c #6375A1C217DE",
"D  c #669FA1951F92",
"F  c #6565B2B21111",
"G  c #6565B5B51010",
"H  c #6767B7B71515",
"J  c #6949BC481049",
"K  c #6969BCBC1212",
"L  c #6A6AB9B91717",
"P  c #6C23BD231424",
"I  c #535B8AD3244A",
"U  c #5EB68FC3248C",
"Y  c #5BF280A73294",
"T  c #5DB298A730EB",
"R  c #6C0E9CB13333",
"E  c #6A6AC6C60000",
"W  c #6D6DC4C40303",
"Q  c #6B6BC1C10707",
"!  c #6C6CC1C10606",
"~  c #6F6FC7C70606",
"^  c #6F6FC7C70707",
"/  c #6B6BC8C80000",
"(  c #6D6DC8C80000",
")  c #6F6FC9B2021D",
"_  c #6B6BC3C30909",
"`  c #6E6EC2C20B0B",
"'  c #6E6EC6C60808",
"]  c #6969C0C00F0F",
"[  c #7070C9C90404",
"{  c #706FCA9B0439",
"}  c #716ECA8B074C",
"|  c #726DCA6C076E",
" . c #7272CBCB0707",
".. c #7271CABA0819",
"X. c #7272CBCB0808",
"o. c #7373CBCB0808",
"O. c #7272CBCB0909",
"+. c #7372CBB30922",
"@. c #7373CACA0B0B",
"#. c #7575CBCB0B0B",
"$. c #7575CBCB0E0E",
"%. c #7676CBCB0F0F",
"&. c #7575CCCC0C0C",
"*. c #7575CCCC0D0D",
"=. c #7777CCCC1111",
"-. c #7C7CCECE1818",
";. c #5F358FD847BD",
":. c #75D08D4A57A0",
">. c #7AC08EBB6137",
",. c #8383CFCF2525",
"<. c #8383CFCF2929",
"1. c #8787D0D02C2C",
"2. c #886DD26C2E6D",
"3. c #82E4C93031ED",
"4. c #86D0CA2E32D8",
"5. c #8787C8C83F3F",
"6. c #8B8BD0D03535",
"7. c #8C8CD0D03636",
"8. c #8D8DD4D43737",
"9. c #8F8FD3D33E3E",
"0. c yellow",
"q. c #833E9BA163CD",
"w. c #8D15AC016497",
"e. c #92FDB55A64A2",
"r. c #B820B6126FEB",
"t. c #B42BBF8C6E7F",
"y. c #BBB8AEF170B6",
"u. c #8A8ACBCB4141",
"i. c #926DD66C406D",
"p. c #9797D6D64B4B",
"a. c #9A9AD9D94F4F",
"s. c #9644CDB2513A",
"d. c #9A9AD7D75151",
"f. c #9E9EDBDB5555",
"g. c #9EC1D1F05933",
"h. c #34323432827C",
"j. c #4EBE5A908D7C",
"k. c #48A04B29ACD8",
"l. c #47464746B1B2",
"z. c #49D24BC6B18C",
"x. c #49494949B6B6",
"c. c blue",
"v. c #DAECABCA855A",
"b. c #F8F8B1B28E8C",
"n. c #F956B4359011",
"m. c #FC63B5BF9100",
"M. c #FFFFB6B69292",
"N. c #BF6CE66C906D",
"B. c #C1C1E7E79494",
"V. c #C4C4E8E89797",
"C. c #CACAE9E9A7A7",
"Z. c #CECEEAEAADAD",
"A. c #D0D0EDEDADAD",
"S. c #DCDCF1F1C3C3",
"D. c #E5E5F3F3D5D5",
"F. c #EBEBF7F7DEDE",
"G. c #EF48F848E5B6",
"H. c #F3F3FAFAEBEB",
"J. c #F5F5FAFAEDED",
"K. c #F9F9FCFCF4F4",
"L. c #F9F9FCFCF6F6",
"P. c #FBFBFDFDF8F8",
/* pixels */
"r r r r r r r r r r r r 0.0.0.0.0.0.0.0.0.0.0.0.r r r r r r r r ",
"r r r r r r r r r r r r 0.0.0.0.0.0.0.0.0.0.0.0.r r r r r r r r ",
"r r r r r r r r r r r r 0.0.0.0.0.0.0.0.0.0.0.0.r r r r r r r r ",
"r r r r r r r r r r r r 0.0.0.0.0.0.0.0.0.0.0.0.r r r r r r r r ",
"r r r r r r r r 0.0.0.0.0.0.0.0.c.c.c.c.M.M.M.M.r r r r r r r r ",
"r r r r r r r r 0.0.0.0.0.0.0.0.c.c.c.c.M.M.M.M.r r r r r r r r ",
"r r r r r r r r 0.0.0.0.0.0.0.0.c.c.c.c.M.M.M.M.r r r r r r r r ",
"r r r r r r r r 0.0.0.0.0.0.0.0.c.c.c.c.M.M.M.M.r r r r r r r r ",
"r r r r r r r r 0.0.0.0.0.0.0.0.M.M.M.M.M.M.M.M.r r r r r r r r ",
"r r r r r r r r 0.0.0.0.0.0.0.0.M.M.M.M.M.M.M.M.r r r r r r r r ",
"r r r r r r r r 0.0.0.0.0.0.0.0.M.M.M.M.M.M.M.M.r r r r r r r r ",
"r r r r r r r r 0.0.0.0.0.0.0.0.M.M.M.M.M.M.M.M.r r r r r r r r ",
"r r r r r r r r r r r r a a a a a a a a r r r r r r r r r r r r ",
"r r r r r r r r r r r r a a a a a a a a r r r r r r r r r r r r ",
"r r r r r r r r r r r r a a a a a a a a r r r r r r r r r r r r ",
"r r r r r r r r r r r r a a a a a a a a r r r r r r r r r r r r ",
"r r r r r r r r M.M.M.M.a a a a a a a a M.M.M.M.r r r r r r r r ",
"r r r r r r r r M.M.M.M.a a a a a a a a M.M.m.n.w r r r r r r r ",
"r r r r r r r r M.M.M.M.a a a a a a a a b.v.r.t.e.w.q.u 0 r r r ",
"r r r r r r r r M.M.M.M.a a a a a a a p y.g.1.-.*.-.,.s.>.6 r r ",
"r r r r r r r r r r r r x.x.x.x.x.x.l.i 7.*.~ } o.) i.f.6.:.0 r ",
"r r r r r r r r r r r r x.x.x.x.x.x.j.3.#.} o.o.) 1.J.N./ 4.4 r ",
"r r r r r r r r r r r r x.x.x.x.x.z.;.$.} o.o.o.~ V.L.E } *.R e ",
"r r r r r r r r r r r r x.x.x.x.x.k.T o.#.} o.) 8.H.a.) o. .D w ",
"r r r r r r r r x.x.x.x.h.h.h.h.h.- f } o.} ) o.A.S.=.o.o. .S 5 ",
"r r r r r r r r x.x.x.x.h.h.h.h.h.; I ^ <.B.p.9.L.d.~ ~ ^ ` g 8 ",
"r r r r r r r r x.x.x.x.h.h.h.h.h.: & v c Z.L.F.C.` _ ! _ N U e ",
"r r r r r r r r x.x.x.x.h.h.h.h.h.h.> k N l D.G.u.x M V ] j 3 e ",
"r r r r r r r r 2 2 2 2 O O O O r r 0 * m Z P 5.z C K K b * w r ",
"r r r r r r r r 2 2 2 2 O O O O r r r 6 + A F G L H n h * 6 r r ",
"r r r r r r r r 2 2 2 2 O O O O r r r r .   @ # d s $ % 0 r r r ",
"r r r r r r r r 2 2 2 2 O O O O r r r r O . X X , < < 2 r r r r "
};
