/* XPM */
static char *pixbros[] = {
/* columns rows colors chars-per-pixel */
"32 32 203 2 ",
"   c #026F01C50020",
".  c #0C2903920056",
"X  c #00000AA40000",
"o  c #0D4D08E105EA",
"O  c #0CDA0AA4086F",
"+  c #161606B10000",
"@  c #1C3C09690121",
"#  c #10900F0F0D0D",
"$  c #000015C00000",
"%  c #00001AF60000",
"&  c #150E10A20C7F",
"*  c #181811110B0B",
"=  c #141412921090",
"-  c #181816161313",
";  c #1CC71919156B",
":  c #1C9C1A9A1919",
">  c #23230AC20093",
",  c #2A2A0C0C0000",
"<  c #262610100707",
"1  c #26261C1C0000",
"2  c #353511110081",
"3  c #3BD5137A0168",
"4  c #22221E1E1818",
"5  c #008F24070000",
"6  c #08D6238A029C",
"7  c #00002BEC0000",
"8  c #013433CD009A",
"9  c #00003B910000",
"0  c #14143D3D0E0E",
"q  c #171729291010",
"w  c #292925251D1D",
"e  c #20202B2B1818",
"r  c #292927272525",
"t  c #2E2E2A2A2379",
"y  c #2CD72CD72A2A",
"u  c #32CC2D942457",
"i  c #362530F4270E",
"p  c #352A3E2F202A",
"a  c #36B731B22868",
"s  c #3A3A345F29D4",
"d  c #3F3F38382D2D",
"f  c #393937373434",
"g  c #459B151500AB",
"h  c #484815150000",
"j  c #525219190000",
"k  c #5A5A1B1B0000",
"l  c #67671E9E0000",
"z  c #4A4A21211010",
"x  c #6D6D20200000",
"c  c #7C7C25250000",
"v  c #404039392E2E",
"b  c #5B5B38382424",
"n  c #028345450182",
"m  c #02024F4F0101",
"M  c #000054D50000",
"N  c #00405B5B0000",
"B  c #38845F6D02CE",
"V  c #000064890000",
"C  c #00006CED0000",
"Z  c #000074180000",
"A  c #00007BFC0000",
"S  c #3E5E40F62FA8",
"D  c #48C973890B74",
"F  c #5042475239F6",
"G  c #528B49843B61",
"H  c #4AD65E783053",
"J  c #4E2B708E24C5",
"K  c #4F05620432F4",
"L  c #5D0272D2387B",
"P  c #45C644C54444",
"I  c #4E4E49CA4242",
"U  c #53D44D4D4242",
"Y  c #575750504747",
"T  c #5B3C53A044A8",
"R  c #5F5F56564949",
"E  c #570958465328",
"W  c #5BDC5ADB59DA",
"Q  c #64FE5DC45285",
"!  c #60605F5F5D5D",
"~  c #6BEC626252D2",
"^  c #6C6C65E65A5A",
"/  c #713D6F9A57DA",
"(  c #7F7F72725C5C",
")  c #64A464646424",
"_  c #6AEB6AAA6A2A",
"`  c #73736C6C6262",
"'  c #797972726767",
"]  c #7AA4746F6A21",
"[  c #7D277D277D27",
"{  c #820227270081",
"}  c #808028280202",
"|  c #93932B2B0000",
" . c #9A9A2DD80056",
".. c #A1A130300101",
"X. c #AEAE33DE0000",
"o. c #B5B535E00000",
"O. c #B96337370000",
"+. c #848476765F5F",
"@. c #8403787863E4",
"#. c #83437D7D7474",
"$. c #000084040000",
"%. c #00008BA50000",
"&. c #000092890000",
"*. c #4C4C89890384",
"=. c #50508E8E0606",
"-. c #525294940707",
";. c #58589E9E0505",
":. c #575798980D0D",
">. c #5DDEA7A70687",
",. c #5F5FABAB0707",
"<. c #5C00B7FF0101",
"1. c #6161ACAC0606",
"2. c #61E3ACFD0CE8",
"3. c #63E4B5340505",
"4. c #6450BCE90081",
"5. c #6868BBBB0707",
"6. c #63B9B2B20C62",
"7. c #68ACBC9C0B34",
"8. c #60BEA93C1046",
"9. c #6E8BA8E51ACF",
"0. c #6610B55F1212",
"q. c #6A48BBEB1355",
"w. c #6B6BB2B21818",
"e. c #6ECBA6422C97",
"r. c #6D6DC57C052A",
"t. c #6E62C9540156",
"y. c #6C6CC3830ACB",
"u. c #7125CAAA05D1",
"i. c #7392CB83097E",
"p. c #7777CCCC1111",
"a. c #7C7CCECE1818",
"s. c #79848EA051B9",
"d. c #7C7CA6A64646",
"f. c #8ACCBF4F31A4",
"g. c #8383CFCF2525",
"h. c #8403CD1E2C59",
"j. c #8787D0D02C2C",
"k. c #887FD2712E5C",
"l. c #8787CCCC3131",
"z. c #8787C8C83F3F",
"x. c #8C8CD2273636",
"c. c #8F8FD3D33E3E",
"v. c #9145BA6A42F4",
"b. c #85E5A264573B",
"n. c #8A44BC4D512F",
"m. c #9338839B6673",
"M. c #99528A7D6EAF",
"N. c #868680807676",
"B. c #8AAB84FB7B6A",
"V. c #8ECE88C87EFF",
"C. c #A7A796967979",
"Z. c #ADAD9B9B7E7E",
"A. c #9086A6BC6A7C",
"S. c #94BFB3E86583",
"D. c #91DEB693687F",
"F. c #8A8ACBCB4141",
"G. c #93FCCB494E9D",
"H. c #9239D6334029",
"J. c #9797D6D64B4B",
"K. c #9A9AD9D94F4F",
"L. c #9A94CFD957F0",
"P. c #9A9AD7D75151",
"I. c #9E9EDBDB5555",
"U. c #878785858282",
"Y. c #8D0D8C8C8C0C",
"T. c #91BC8C0B82EA",
"R. c #941393939292",
"E. c #9E489E489DF3",
"W. c #B7B7A4A48585",
"Q. c #BDBDAA108989",
"!. c #A50BA50BA4A4",
"~. c #AAAAAAAAAAAA",
"^. c #AE44B073AAC8",
"/. c #B5B5B534B534",
"(. c #BFBFBEBEBEBE",
"). c #D4D4BEBE9999",
"_. c #BF51E648903A",
"`. c #C1C1E7E79494",
"'. c #C4C4E8E89797",
"]. c #C080D12BAE34",
"[. c #E6E6CF4FA7A7",
"{. c #E9E9D1D1A9A9",
"}. c #F40DDC70AFA4",
"|. c #F574DC5CB1B1",
" X c #CACAE9E9A7A7",
".X c #CECEEAEAADAD",
"XX c #D0D0EDEDADAD",
"oX c #FDFDE3E3B7B7",
"OX c #FFD8E5BEB99F",
"+X c #C141C141C141",
"@X c #CC86CCB1CBFF",
"#X c LightGray",
"$X c #DDDDDDDDDDDD",
"%X c #DCDCF1F1C3C3",
"&X c #E5E5F3F3D5D5",
"*X c #EBEBF7F7DEDE",
"=X c gray93",
"-X c #EF3BF839E538",
";X c #F4F4FAFAECEC",
":X c #F6F6F6F6F6F6",
">X c #FA15FCC3F6A4",
",X c #FF67FF95FF21",
"<X c None",
/* pixels */
"<X<X<X<X<X<X<X<X<X<X<X$ 7 7 7 7 <X<X<X<X<X<X<X<X<X<X<X<X<X<X<X<X",
"<X<X<X<X<X<X<X<X<XX 9 C $.%.%.A V 7 <X<X<X<X<X<X<X<X<X<X<X<X<X<X",
"<X<X<X<X<X<X<X<X5 Z &.&.&.&.&.&.&.&.N $ <X<X<X<X<X<X<X<X<X<X<X<X",
"<X<X<X<X<X<X<X5 Z &.&.&.&.&.&.&.&.&.&.V 5 <X<X<X<X<X<X<X<X<X<X<X",
"<X<X<X<X<X<XX Z &.&.&.&.&.&.&.&.&.&.&.&.A $ <X<X<X<X<X<X<X<X<X<X",
"<X<X<X<X<X<X5 &.&.&.&.&.&.&.&.&.&.&.&.&.&.V $ <X<X<X<X<X<X<X<X<X",
"<X<X<X<X<X<XM &.&.&.&.&.&.&.&.&.&.&.&.&.&.&.V X <X<X<X<X<X<X<X<X",
"<X<X<X<X<X<XC &.&.&.&.&.&.&.&.&.&.&.&.&.&.&.&.9 <X<X<X<X<X<X<X<X",
"<X<X<X<X<X% Z &.&.&.&.&.&.&.&.&.&.&.&.&.&.&.&.$.8 <X<X<X<X<X<X<X",
"<X<X<X<X<X% Z &.&.&.&.&.&.&.&.&.&.&.&.&.&.&.&.&.A   <X<X<X<X<X<X",
"<X<X<X<X<X% Z &.&.&.&.&.&.&.&.&.&.&.&.&.&.&.&.&.&.V $ <X<X<X<X<X",
"<X<X<X<X<X8 $.&.&.A Z Z Z Z A A A $.A Z $.&.&.&.&.%.V   <X<X<X<X",
"<X<X<X<X7 &.&.&.&.&.&.&.&.&.&.%.$.$.%.&.&.&.&.&.&.&.&.V % <X<X<X",
"<X<X<X5 A &.&.&.&.&.&.&.&.&.&.&.&.&.&.&.&.&.&.&.&.&.&.&.C X <X<X",
"<X<X5 $.&.&.&.&.&.&.&.&.&.&.&.&.&.&.&.&.%.A C V N m n 9 9 5   <X",
"<X  5 M Z $.&.&.&.&.&.&.&.&.&.$.Z N n 8 0 6 e i a I s     <X<X<X",
"<X<X<X    2 3 1 6 6 6 6 6 q a y P a w ( ~ v G R V.#.Q O     <X<X",
"<X<X<X+ +  .o.x @ . @ @ u Q #.B.' G G i t F G T.B.@.T *     <X<X",
"<X<X<X@ + X.O. ., O @ 4 ^ T.B.Q G G G u * / A.S.S.b.s.d     <X<X",
"<X<X  .   O.O.o.g = O U ] T.^ G G G G i K L.j.a.p.a.g.G.K   <X<X",
"<X<X  <X+ j X...b Q.i a Q Y G G G G F L l.p.r.u.u.t.H.I.x.d.<X<X",
"<X<X<X<X  @  .c @.|.).C.R 4 u s v i p h.p.u.i.i.t.k.;X_.t.l.<X<X",
"<X<X<X<X  > { z ^ Q.[.oXoX|.Q.M.+.M.v.p.u.i.u.i.u.'.>Xt.u.p.w.<X",
"<X<X<X<X  k k I (.B.~ ~ Z.{.oXoXOX}.l.i.u.i.i.t.x.;XP.t.i.u.3.<X",
"<X<X<X<X. | @ P [ ,X,X$XE.) W ` @.m.9.i.i.t.t.i.XX%Xp.i.i.i.1.<X",
"<X<X<X<X> X.3 ; = !./.#X,X,X:X$X@X^.e.t.j.`.J.c.>XP.r.r.r.u.>.<X",
"<X<X<X<Xh o.c < f Y.y E.@XR.,X,X,X>Xn.5.4..X>X*X Xy.y.r.y.7.;.<X",
"<X<X<X<Xl { > 2 t #X) _ P _ =X,X,X,X].2.7.<.&X-XF.4.5.7.y.1.<X<X",
"<X<X<X  3   <X. + r !.:XE.) ) [ !.+X@XD.0.q.q.z.3.7.q.q.2.*.<X<X",
"<X<X<X<X  <X<X  <Xo - _ E.=X:X@X~.R.[ E J 8.0.0.q.0.6.>.*.<X<X<X",
"<X<X<X<X<X<X<X<X<X<X<XO - : ! Y.U._ y O O <X=.D :.-.B <X<X<X<X<X",
"<X<X<X<X<X<X<X<X<X<X<X<X<X<X# = = = <X<X<X<X<XX <X<X<X<X<X<X<X<X"
};
