/* XPM */
static char *PosteRazor[] = {
/* columns rows colors chars-per-pixel */
"32 32 157 2 ",
"   c black",
".  c #072E072E072E",
"X  c #171617161716",
"o  c #195D195D195D",
"O  c #1C121C121C12",
"+  c #13EF249901A2",
"@  c #1C7F27B60EDB",
"#  c #1DAE1FB21B61",
"$  c #243629621CBD",
"%  c #1FF61FF61FF6",
"&  c #20DC21C21FAA",
"*  c #23C723C723C7",
"=  c #24CA24CA24CA",
"-  c #357135713571",
";  c #385C3905375E",
":  c #478A79930E75",
">  c #4F8D6708315D",
",  c #5BC474263B0A",
"<  c #4420454242EC",
"1  c #46B546B546B5",
"2  c #4B484B484B48",
"3  c #4D544D544D54",
"4  c #5C3D5EE5593A",
"5  c #5E8D5E8D5E8D",
"6  c #612A75264713",
"7  c #631763176317",
"8  c #65E1671664BF",
"9  c #67AC67AC67AC",
"0  c #6B1A6B1A6B1A",
"q  c #6B866C366AAB",
"w  c #72CC72CC72CC",
"e  c #760A760A760A",
"r  c #7B7D7EE47755",
"t  c #7A687A687A68",
"y  c #7B9B7D8F7957",
"u  c #7CAF7CAF7CAF",
"i  c #4B4B88880303",
"p  c #4D4D8A8A0404",
"a  c #4D4D8A8A0606",
"s  c #4E4E8C8C0404",
"d  c #4F4F8E8E0808",
"f  c #50508E8E0606",
"g  c #525294940707",
"h  c #58589E9E0505",
"j  c #575798980D0D",
"k  c #585898980F0F",
"l  c #5DA7951E1B8C",
"z  c #5D5DA7A70707",
"x  c #5E5EA7A70606",
"c  c #5F5FABAB0707",
"v  c #5DE0A8FA08E5",
"b  c #5AFFB6FF0000",
"n  c #6161ACAC0606",
"m  c #6464B2B20606",
"M  c #6363B7B70404",
"N  c #62FFB9FF0100",
"B  c #6565BFBF0000",
"V  c #6868BBBB0707",
"C  c #6262B1B10909",
"Z  c #6363B1B10F0F",
"A  c #6565B4B40D0D",
"S  c #6868BCBC0808",
"D  c #6868BCBC0909",
"F  c #6868BDBD0B0B",
"G  c #69FFBDFF0A00",
"H  c #6868BBBB0E0E",
"J  c #6868BABA0F0F",
"K  c #6262ACAC1010",
"L  c #6617A3901A80",
"P  c #6565B2B21111",
"I  c #6565B5B51010",
"U  c #6767B7B71515",
"Y  c #6969BCBC1010",
"T  c #6969BCBC1212",
"R  c #6A6AB9B91717",
"E  c #6C6CBDBD1414",
"W  c #6B6BB2B21818",
"Q  c #6A64A55A2295",
"!  c #71ACA24F3772",
"~  c #6A6AC6C60000",
"^  c #6D6DC4C40303",
"/  c #6B6BC1C10707",
"(  c #6C6CC1C10606",
")  c #6F6FC7C70606",
"_  c #6F6FC7C70707",
"`  c #6B6BC8C80000",
"'  c #6D6DC8C80000",
"]  c #6F6FC9C90202",
"[  c #6B6BC3C30909",
"{  c #6E6EC2C20B0B",
"}  c #6E6EC6C60808",
"|  c #6969C0C00F0F",
" . c #7070C9C90404",
".. c #7067CA940431",
"X. c #7177CAB20731",
"o. c #727CCA7C077D",
"O. c #7272CBCB0707",
"+. c #7275CABE081D",
"@. c #7272CBCB0808",
"#. c #7373CBCB0808",
"$. c #7272CBCB0909",
"%. c #7374CBB60924",
"&. c #7373CACA0B0B",
"*. c #7575CBCB0B0B",
"=. c #7575CBCB0E0E",
"-. c #7676CBCB0F0F",
";. c #7575CCCC0C0C",
":. c #7575CCCC0D0D",
">. c #7777CCCC1111",
",. c #7C7CCECE1818",
"<. c #76AA95964E2D",
"1. c #76218A1C5C98",
"2. c #7B01930B5CD1",
"3. c #7752832569AE",
"4. c #7F91821A7C5E",
"5. c #8383CFCF2525",
"6. c #8383CFCF2929",
"7. c #8787D0D02C2C",
"8. c #884DD24C2E4D",
"9. c #83CFC72D2FD7",
"0. c #844DCA993056",
"q. c #8787C8C83F3F",
"w. c #8B8BD0D03535",
"e. c #8C8CD0D03636",
"r. c #8D8DD4D43737",
"t. c #8F8FD3D33E3E",
"y. c #8C71AECF5E17",
"u. c #820287787AD3",
"i. c #8C76AB6263F9",
"p. c #87EDA050687C",
"a. c #8A8ACBCB4141",
"s. c #9235D6344035",
"d. c #9797D6D64B4B",
"f. c #9A9AD9D94F4F",
"g. c #95CDCD3A50C2",
"h. c #979BCD16557B",
"j. c #9A9AD7D75151",
"k. c #9E9EDBDB5555",
"l. c #80F080F080F0",
"z. c #836B836B836B",
"x. c #849484948494",
"c. c #BEFFE5FE8FFF",
"v. c #C1C1E7E79494",
"b. c #C4C4E8E89797",
"n. c #CACAE9E9A7A7",
"m. c #CECEEAEAADAD",
"M. c #D0D0EDEDADAD",
"N. c #DCDCF1F1C3C3",
"B. c #E5E5F3F3D5D5",
"V. c #EBEBF7F7DEDE",
"C. c #EEFEF7FEE4FE",
"Z. c #F3F3FAFAEBEB",
"A. c #F5F5FAFAEDED",
"S. c #F9F9FCFCF4F4",
"D. c #F9F9FCFCF6F6",
"F. c #FBFBFDFDF8F8",
"G. c None",
/* pixels */
"G.G.G.G.G.G.G.G.G.G.G.G.G.G.G.G.G.G.G.G.G.G.G.G.G.G.G.G.G.G.G.G.",
"G.G.G.G.G.G.G.G.G.G.G.G.G.G.G.G.G.G.G.G.G.G.G.G.G.G.G.G.G.G.G.G.",
"G.G.G.G.G.G.G.G.G.G.G.G.G.G.G.G.G.G.G.G.G.G.G.G.G.G.G.G.G.G.G.G.",
"G.G.G.G.G.G.G.G.G.G.G.G.G.G.G.G.G.G.G.G.G.G.G.G.G.G.G.G.G.G.G.G.",
"G.G.G.G.                                                G.G.G.G.",
"G.G.G.G.  . o % O O O % % O O O % O O O O O O O % o .   G.G.G.G.",
"G.G.G.G.  X 1 7 5 5 5 5 7 5 5 5 7 5 5 5 7 5 5 5 7 2 o   G.G.G.G.",
"G.G.G.G.  O 3 0 t z.z.z.u z.z.u z.u z.z.z.z.z.t 0 2 O   G.G.G.G.",
"G.G.G.G.G.G.O - 9 z.z.u z.u z.z.z.u u z.z.t z.9 - o G.G.G.G.G.G.",
"G.G.G.G.G.G.o - 9 z.z.u u u u z.z.z.u z.u z.z.0 - o G.G.G.G.G.G.",
"          o 2 0 t u z.z.u z.z.z.u z.u u z.z.z.t 0 2 o           ",
"  . X O O - 0 u 0 5 5 9 e e 9 5 5 9 e e 9 5 5 0 t 0 - O O X .   ",
"  X 1 5 7 9 t 0 - O O - 0 0 - O O - 0 0 - % O - 0 t 9 7 7 1 X   ",
"  O 7 x.z.t 0 3 o     = 9 9 =     = 9 9 =     o 3 0 t z.x.7 O   ",
"  % 7 x.x.9 - O G.G.G.G.e e G.G.G.G.e e G.G.G.G.o - 9 z.x.7 O   ",
"  O 5 z.z.5 o   G.G.G.G.u z.G.G.G.G.u u G.G.G.G.  o 5 z.z.5 %   ",
"  O 5 z.z.5 o   G.G.G.G.u z.G.G.G.G.z.u G.G.G.G.  O 5 z.z.5 O   ",
"  O 5 x.z.0 - o G.G.G.G.e e G.G.G.G.e e G.G.G.G.% ; q x.z.5 O   ",
"  % 5 x.x.t 0 2 o     = q 9 =     * 0 9 * $ , <.y.i.p.u.z.7 %   ",
"  o 1 7 5 0 u 0 - O O - 9 0 - O O - 9 9 6 h.7.,.:.,.5.g.1.< X   ",
"  . X O O - 0 u 0 5 5 0 e t 9 5 5 9 w 2.e.:.) #.#.] s.k.w.> .   ",
"          o 3 0 t z.z.t u z.u z.z.z.3.0.*.X.#.#.' 8.A.c.` 9.@   ",
"G.G.G.G.G.G.o - 9 z.z.u u u u z.u y ! =.X.#.#.#.) b.D.~ #.:.W G.",
"G.G.G.G.G.G.o - 9 z.z.z.z.u z.u u 4.Q #.#.#.#.] r.Z.f.] #.X.m G.",
"G.G.G.G.  O 3 0 t z.z.u z.z.z.z.z.r L #.#.X.] #.M.N.>.#.#.#.n G.",
"G.G.G.G.  X 2 7 7 5 5 5 5 5 5 7 5 4 l ^ 6.v.d.t.F.f._ _ _ } x G.",
"G.G.G.G.  . X O % % O O O O O O O O : V B m.D.V.n.{ / ( / D h G.",
"G.G.G.G.                            + v F b B.C.a.N D D | c G.G.",
"G.G.G.G.G.G.G.G.G.G.G.G.G.G.G.G.G.G.G.d A J E q.M H T T C a G.G.",
"G.G.G.G.G.G.G.G.G.G.G.G.G.G.G.G.G.G.G.G.a K P I R U Z c i G.G.G.",
"G.G.G.G.G.G.G.G.G.G.G.G.G.G.G.G.G.G.G.G.G.G.f k j g s G.G.G.G.G.",
"G.G.G.G.G.G.G.G.G.G.G.G.G.G.G.G.G.G.G.G.G.G.G.G.G.G.G.G.G.G.G.G."
};
