/* XPM */
static char *pterm[] = {
/* columns rows colors chars-per-pixel */
"32 32 217 2 ",
"   c black",
".  c #0269038B0134",
"X  c #15AA15AA15AA",
"o  c #1A4D1A4D1A4D",
"O  c #1B0B1B0B1B0B",
"+  c #1E301E301E30",
"@  c #13EF249901A2",
"#  c #1FBB21BF1D6E",
"$  c #220A220A2211",
"%  c #29782A29289E",
"&  c #29FD29FD2A02",
"*  c #324B324B3167",
"=  c #373B373B3756",
"-  c #3A4B3A4B377F",
";  c #37EC37EC37EC",
":  c #3A103ABA392C",
">  c #3BCA3BCA38FD",
",  c #3D5F3D5F3C88",
"<  c #4703790B0DEE",
"1  c #45525CCD2722",
"2  c #401A401A3C65",
"3  c #57536B4F3DCA",
"4  c #4B7E4B7E4B7E",
"5  c #4E2C4E2C4E2C",
"6  c #4F3B50204E08",
"7  c #541E541E541E",
"8  c #5C2B5ED35928",
"9  c #5E7A5E7A5E7A",
"0  c #5C01617754D2",
"q  c #602360236023",
"w  c #691B691B691B",
"e  c #698C6A41688E",
"r  c #6D216D216D38",
"t  c #731773177317",
"y  c #7A2F7D96761B",
"u  c #7ADE7D6877AC",
"i  c #7E737E737E73",
"p  c #4B4B88880303",
"a  c #4D4D8A8A0404",
"s  c #4D4D8A8A0606",
"d  c #4E4E8C8C0404",
"f  c #4F4F8E8E0808",
"g  c #50508E8E0606",
"h  c #525294940707",
"j  c #58589E9E0505",
"k  c #575798980D0D",
"l  c #585898980F0F",
"z  c #5DA2951A1B88",
"x  c #5D5DA7A70707",
"c  c #5E5EA7A70606",
"v  c #5F5FABAB0707",
"b  c #5DE0A8FA08E5",
"n  c #5AFFB6FF0000",
"m  c #6161ACAC0606",
"M  c #6464B2B20606",
"N  c #6363B7B70404",
"B  c #62FFB9FF0100",
"V  c #6565BFBF0000",
"C  c #6868BBBB0707",
"Z  c #6262B1B10909",
"A  c #6363B1B10F0F",
"S  c #6565B4B40D0D",
"D  c #6868BCBC0808",
"F  c #6868BCBC0909",
"G  c #6868BDBD0B0B",
"H  c #6A6ABEBE0A0A",
"J  c #6868BBBB0E0E",
"K  c #6868BABA0F0F",
"L  c #6262ACAC1010",
"P  c #6701A4791B6D",
"I  c #6565B2B21111",
"U  c #6565B5B51010",
"Y  c #6767B7B71515",
"T  c #6969BCBC1010",
"R  c #6969BCBC1212",
"E  c #6A6AB9B91717",
"W  c #6C6CBDBD1414",
"Q  c #6B6BB2B21818",
"!  c #6AD4A5CA2305",
"~  c #6A6AC6C60000",
"^  c #6D6DC4C40303",
"/  c #6B6BC1C10707",
"(  c #6C6CC1C10606",
")  c #6F6FC7C70606",
"_  c #6F6FC7C70707",
"`  c #6B6BC8C80000",
"'  c #6D6DC8C80000",
"]  c #6F66C9A90214",
"[  c #6B6BC3C30909",
"{  c #6E6EC2C20B0B",
"}  c #6E6EC6C60808",
"|  c #6969C0C00F0F",
" . c #7070C9C90404",
".. c #7070CACA0404",
"X. c #70E4CAE304E5",
"o. c #711DCA1D071E",
"O. c #7171CACA0707",
"+. c #7272CBCB0707",
"@. c #71E5CAE407E6",
"#. c #7279CAC307F6",
"$. c #7272CBCB0808",
"%. c #7373CBCB0808",
"&. c #728FCA8F088D",
"*. c #7272CBCB0909",
"=. c #7373CBCB0909",
"-. c #73E4CBE309E5",
";. c #7373CACA0B0B",
":. c #7575CBCB0B0B",
">. c #7575CBCB0E0E",
",. c #7676CBCB0F0F",
"<. c #7575CCCC0C0C",
"1. c #7575CCCC0D0D",
"2. c #7777CCCC1111",
"3. c #7C7CCECE1818",
"4. c #7AE6AB8840AC",
"5. c #8383CFCF2525",
"6. c #8383CFCF2929",
"7. c #8787D0D02C2C",
"8. c #88A6D2A62EA7",
"9. c #83CFC72D2FD7",
"0. c #872ACD763333",
"q. c #8787C8C83F3F",
"w. c #8B8BD0D03535",
"e. c #8C8CD0D03636",
"r. c #8D8DD4D43737",
"t. c #8F8FD3D33E3E",
"y. c #885AA0BD68E9",
"u. c #8AA9A30B69F6",
"i. c #9640B52B6CCB",
"p. c #8FF1A3ED7537",
"a. c #9EBEBDAA7640",
"s. c #8A8ACBCB4141",
"d. c #9298D6974099",
"f. c #9797D6D64B4B",
"g. c #9A9AD9D94F4F",
"h. c #95CCCD3A50C2",
"j. c #9A9AD7D75151",
"k. c #9E9EDBDB5555",
"l. c #9BAFD12A5984",
"z. c #A20CC4697366",
"x. c blue",
"c. c #2AE92AE9F1AF",
"v. c #2F762F76F1AF",
"b. c #3F313F31FFFF",
"n. c #53B753B7E711",
"m. c #418E418EFFFF",
"M. c #61ED61EDF269",
"N. c #61E661E6F540",
"B. c #734A734AFFFF",
"V. c #81FA81FA8210",
"C. c #84B084B084D4",
"Z. c #8AD9900580CA",
"A. c #8BDA8BDA8855",
"S. c #8F458FE88AC9",
"D. c #8C788C788C78",
"F. c #8FCD8FCD8C2E",
"G. c #923092309230",
"H. c #95EA95EA9210",
"J. c #9541967692CC",
"K. c #971B971B943D",
"L. c #988398839896",
"P. c #9E139E139CA6",
"I. c #9E43A0379BFE",
"U. c #A076A076A076",
"Y. c #A6B6A6B6A6B6",
"T. c #AFA7AFA7AFA7",
"R. c #B3E2B3E2ADE2",
"E. c #B492B492B01B",
"W. c #B1A9B1A9B1A9",
"Q. c #B7B6B7B6B1A7",
"!. c #B746B746B5D3",
"~. c #B8ACB8ACB430",
"^. c #B902B902B47D",
"/. c #A9CDC1D78B9D",
"(. c #BF5FE65F905F",
"). c #BB78C74BADD4",
"_. c #C1C1E7E79494",
"`. c #C4C4E8E89797",
"'. c #C0AFC0AFBF65",
"]. c #C55EC55EBF70",
"[. c #CACAE9E9A7A7",
"{. c #CECEEAEAADAD",
"}. c #D0D0EDEDADAD",
"|. c #9FF09FF0CECF",
" X c #92B592B5D1AB",
".X c #B893B893C77B",
"XX c #A5BEA5BED49D",
"oX c #C433C433C2C7",
"OX c #C600C600C188",
"+X c #C87FC87FC87F",
"@X c #C786C786D66E",
"#X c #D38CD38CD38C",
"$X c #DAC6DAC6DAC6",
"%X c #DEC2DEC2DEC2",
"&X c #DCDCF1F1C3C3",
"*X c #E5E5F3F3D5D5",
"=X c #EBEBF7F7DEDE",
"-X c #C886C886F2D7",
";X c #C87AC87AF759",
":X c #C6E9C6E9FFFF",
">X c #C84AC84AFFFF",
",X c #D80AD80AFFFF",
"<X c #D975D975FFFF",
"1X c #E402E402E402",
"2X c #E50CE50CE50C",
"3X c #EEFEF7FEE4FE",
"4X c #F3F3FAFAEBEB",
"5X c #F5F5FAFAEDED",
"6X c #F0EEF0EEF0EE",
"7X c #F4C6F4C6F4C6",
"8X c #F9F9FCFCF4F4",
"9X c #F9F9FCFCF6F6",
"0X c #FA09FA09FA09",
"qX c #FBFBFDFDF8F8",
"wX c #F889F889FFFF",
"eX c gray100",
"rX c None",
/* pixels */
"rXrXrXrXrXrXrXrXrXrXrXrXrXrXrXrXrXrXrXrXrXrXrXrXrXrXrXrXrXrXrXrX",
"rXrXrXrXrXrXrXrXrXrXrXrXrXrXrXrXrXrXrXrXrXrXrXrXrXrXrXrXrXrXrXrX",
"rXrXrXrXrXrX                                    rXrXrXrXrXrXrXrX",
"rXrXrXrXrXrX= , 2 2 2 2 2 2 2 2 2 2 2 > * & $ O rXrXrXrXrXrXrXrX",
"rXrXrXrX  ; L.'.'.].].].].].].].].].].^.P.C.r 4 O   rXrXrXrXrXrX",
"rXrXrXrX  , oXwX,X:X>X>X>X>X>X:X>X>X>X;X@X!.K.q +   rXrXrXrXrXrX",
"rXrXrXrX  , OX<XB.m.m.m.m.m.m.m.m.m.m.N.XX^.K.9 +   rXrXrXrXrXrX",
"rXrXrXrX  2 ].:Xb.x.x.x.x.x.x.x.x.x.x.c. XQ.K.9 +   rXrXrXrXrXrX",
"rXrXrXrX  2 ].>Xm.x.x.x.x.x.x.x.x.x.x.v. XQ.H.9 +   rXrXrXrXrXrX",
"rXrXrXrX  2 ].>Xm.x.x.x.x.x.x.x.x.x.x.v. XE.K.9 +   rXrXrXrXrXrX",
"rXrXrXrX  2 ].>Xm.x.x.x.x.x.x.x.x.x.x.v. XE.H.9 +   rXrXrXrXrXrX",
"rXrXrXrX  2 ].>Xm.x.x.x.x.x.x.x.x.x.x.v. X~.H.9 +   rXrXrXrXrXrX",
"rXrXrXrX  2 ].>Xm.x.x.x.x.x.x.x.x.x.x.v. XQ.K.9 +   rXrXrXrXrXrX",
"rXrXrXrX  2 ].>Xb.x.x.x.x.x.x.x.x.x.x.v. XQ.H.9 +   rXrXrXrXrXrX",
"rXrXrXrX  2 OX>Xb.x.x.x.x.x.x.x.x.x.x.v. XQ.K.9 +   rXrXrXrXrXrX",
"rXrXrXrX  - ~.-XM.v.v.v.v.v.v.v.v.v.v.n.|.E.K.9 O   rXrXrXrXrXrX",
"rXrXrXrX  * P.@XXX X X X X X X X X X X|..X!.G.9 +       rXrXrXrX",
"rXrXrXrX+ ; F.W.R.Q.W.T.Q.T.T.!.E.E.E.E.T.Y.F.w 6 ; & O rXrXrXrX",
"rXrX  X 5 w V.F.F.F.F.D.F.F.F.F.F.F.F.F.A.Z.u.i.z.a.u.0 O   rXrX",
"rXrX= 7 C.Y.P.P.P.P.U.P.P.P.P.P.U.P.U.H.p.l.7.3.1.3.5.h.3 . rXrX",
"  ; L.+X$X2X2X2X1X2X2X2X2X2X2X2X1X1X%X/.e.1.o.o.%.' d.k.w.1 rXrX",
"  , OXeX0X6X6X6X6X7X7X6X6X6X2X2X1X1X).0.:.%.%.%.' 8.5X(.` 9.rXrX",
"  , OXeX2X#X#X#X#X#X#X#X#X+XW.P.U.I.4.>.%.%.%.%.+.`.9X~ %.>.Q rX",
"  ; ^.2XOXW.W.W.R.Q.W.W.T.Y.F.i i u ! %.%.%.o.] e.4Xg.] %.+.M rX",
"  * P.+XY.F.G.G.G.G.G.G.G.F.C.V.V.y P $.%.+._ %.}.&X2.%.%.%.v rX",
"  & t F.r 9 9 9 9 9 9 9 9 9 q q 9 8 z ( 6.(.f.t.qXj._ _ _ } c rX",
"rXrX& & $ + + + + + + + + + + + + # < C V {.8X=X[.{ / ( / H j rX",
"rXrX                                @ b F n *X3Xs.B F H | v rXrX",
"rXrXrXrXrXrXrXrXrXrXrXrXrXrXrXrXrXrXrXf S K W s.N J R R Z a rXrX",
"rXrXrXrXrXrXrXrXrXrXrXrXrXrXrXrXrXrXrXrXa L I U E Y A c p rXrXrX",
"rXrXrXrXrXrXrXrXrXrXrXrXrXrXrXrXrXrXrXrXrXrXg l k h d rXrXrXrXrX",
"rXrXrXrXrXrXrXrXrXrXrXrXrXrXrXrXrXrXrXrXrXrXrXrXrXrXrXrXrXrXrXrX"
};
