/* XPM */
static char *pyrocket[] = {
/* columns rows colors chars-per-pixel */
"31 32 201 2 ",
"   c #0121012500C2",
".  c #0AA4060605EC",
"X  c #01340C73036A",
"o  c #0C0C09090707",
"O  c #05050A0A0808",
"+  c #0C730C260B58",
"@  c #13B409730704",
"#  c #134C0B440AB5",
"$  c #1CC70DB80E0E",
"%  c #010117170808",
"&  c #0B36113C0C0C",
"*  c #151511BC0DB8",
"=  c #1BF814470E28",
"-  c #17170F0F1010",
";  c #0E0E19191414",
":  c #159612121090",
">  c #191911E713E9",
",  c #1B9C1A1A1292",
"<  c #1A1A17171818",
"1  c #1F1F19191A1A",
"2  c #37370D0D0A0A",
"3  c #23461A43127A",
"4  c #257B19C41BC6",
"5  c #28F21B191BF4",
"6  c #020222220E8F",
"7  c #030326261212",
"8  c #06062A2A1717",
"9  c #0B0B29291818",
"0  c #2F2F20201C1C",
"q  c #303025251E1E",
"w  c #393929291F1F",
"e  c #2AAB1E9E22A3",
"r  c #0A0A37372222",
"t  c #0D0D3A3A2424",
"y  c #1B1B3B3B2A2A",
"u  c #202024242121",
"i  c #2A2A24242424",
"p  c #2D2D28282626",
"a  c #292922222929",
"s  c #25A62CAD2929",
"d  c #2D2D28282A2A",
"f  c #333324242262",
"g  c #3C3C23232323",
"h  c #37372F2F2424",
"j  c #3A3A27272828",
"k  c #313128282929",
"l  c #3B912C2C2BD6",
"z  c #252530302424",
"x  c #35352D2D3434",
"c  c #303035353232",
"v  c #3C9234343434",
"b  c #3E3E32323939",
"n  c #404025250D0D",
"m  c #484838382525",
"M  c #41412F2F3030",
"N  c #424233333535",
"B  c #4D4D3C3C3A3A",
"V  c #3B3B414139BA",
"C  c #43B372710707",
"Z  c #43C443433BBC",
"A  c #53A941EC3E3E",
"S  c #5A5A46463F3F",
"D  c #6B6B58583939",
"F  c #767657573737",
"G  c #404038384444",
"H  c #383850504646",
"J  c #4A4A49494040",
"K  c #5B5B46464141",
"L  c #50504B4B4949",
"P  c #575751514A4A",
"I  c #41415C5C5151",
"U  c #545452525353",
"Y  c #5B5B5A5A5757",
"T  c #5DDE52D25E5E",
"R  c #454560605757",
"E  c #44446E6E5A5A",
"W  c #484869695D5D",
"Q  c #732E77FF5786",
"!  c #51516A6A6363",
"~  c #55557A7A6C6C",
"^  c #6A6A65656161",
"/  c #6F4E6C6061A3",
"(  c #787868686666",
")  c #6E6E73736767",
"_  c #74746D6D7979",
"`  c #90902A2A2323",
"'  c #FFFF3B3B1E1E",
"]  c #A7A74C4C2929",
"[  c #8E8E7B7B2D2D",
"{  c #F8F84D4D1A1A",
"}  c #FCFC46462828",
"|  c #F1F14B4B2E2E",
" . c #FEFE6A6A3131",
".. c #8E8E7B7B7B7B",
"X. c #95957F7F7B7B",
"o. c #FFFF7F7F4545",
"O. c #4D0D8A8A0444",
"+. c #4FC784650B50",
"@. c #4F4F8E8E0808",
"#. c #50508E8E0606",
"$. c #583D8F7A0C46",
"%. c #525294940707",
"&. c #58589E9E0505",
"*. c #5ADB95AB0C8C",
"=. c #575798980D0D",
"-. c #585898980F0F",
";. c #5CF988D41E9A",
":. c #5DDEA7A70687",
">. c #5F5FABAB0707",
",. c #5F5FABAB0909",
"<. c #5B5BB7B70000",
"1. c #6161ACAC0606",
"2. c #63E4B5340505",
"3. c #6464BD3D0081",
"4. c #6868BBBB0707",
"5. c #63B9B2B20C62",
"6. c #68BEBCBC0B36",
"7. c #6262ACAC1010",
"8. c #6610B55F1212",
"9. c #6A6ABC3C1353",
"0. c #6B6BB2B21818",
"q. c #6D6DC57C052A",
"w. c #6E6EC9730157",
"e. c #6C6CC3830ACB",
"r. c #7151CACA05E6",
"t. c #7396CB910989",
"y. c #7777CCCC1111",
"u. c #7C7CCECE1818",
"i. c #7BFCA6A645C6",
"p. c #5A5A84847676",
"a. c #5D5D89897878",
"s. c #717183837777",
"d. c #CACA93933E3E",
"f. c #8383CFCF2525",
"g. c #8403CE4E2BAC",
"h. c #8787D0D02C2C",
"j. c #8888D2D22E2E",
"k. c #8787CCCC3131",
"l. c #8787C8C83F3F",
"z. c #8C8CD2273636",
"x. c #8F8FD3D33E3E",
"c. c #919185854C4C",
"v. c #8505A9295656",
"b. c #8F8FB5B55D5D",
"n. c #949483837F7F",
"m. c #FFFF93934949",
"M. c #FFFFADAD4E4E",
"N. c #FFFFB1B14F4F",
"B. c #FEFEB8B84F4F",
"V. c #FEFEB1B15050",
"C. c #FDFDB2B25E5E",
"Z. c #C4C4B9B96969",
"A. c #8A8ACBCB4141",
"S. c #9292D6D64040",
"D. c #9797D6D64B4B",
"F. c #9A9AD9D94F4F",
"G. c #9797D0D05050",
"H. c #9B1BD5545454",
"J. c #9E9EDBDB5555",
"K. c #99EFC46E61B7",
"L. c #FDFDC1C14242",
"P. c #FDFDDFDF4949",
"I. c #FFFFCACA5D5D",
"U. c #FBFBE2E24B4B",
"Y. c #FEFEF6F65151",
"T. c #FFFFF8F85555",
"R. c #FFFFCECE6161",
"E. c #FFFFD2D26262",
"W. c #FFFFF8F87676",
"Q. c #FFFFFCFC7C7C",
"!. c #717187878585",
"~. c #6C6C90908282",
"^. c #939383838D8D",
"/. c #969697978888",
"(. c #8B8B82829191",
"). c #8585A5A59696",
"_. c #8686A1A19E9E",
"`. c #A1A1B3B3B2B2",
"'. c #BFBFE6E69090",
"]. c #C1C1E7E79494",
"[. c #C4C4E8E89797",
"{. c #FFFFF7F78686",
"}. c #FFFFFEFE8686",
"|. c #FFFFFFFF9595",
" X c #FFFFFFFF9C46",
".X c #CACAE9E9A7A7",
"XX c #CECEEAEAADAD",
"oX c #D0D0EDEDADAD",
"OX c #FFFFFFFFA7A7",
"+X c #FFFFFFFFAB2B",
"@X c #FFFFFFFFB9B9",
"#X c #DCDCF1F1C3C3",
"$X c #E5E5F3F3D5D5",
"%X c #EBEBF7F7DEDE",
"&X c #DFDFE7E7E9E9",
"*X c #EFEFF8F8E5E5",
"=X c #F4F4FAFAECEC",
"-X c #ECECF2F2F3F3",
";X c #F9F9FCFCF5F5",
":X c #FBFBFDFDF8F8",
">X c None",
/* pixels */
">X>X>X>X>X>X>X>X>X>X>X>X>X>X>X>X>X>X>X>X>X>X>X>X>X>X>X>X>X>X>X",
">X>X>X>X>X>X>X>X>X>X>X>X>X>X>X>X>X>X>X>X>X>X>X>X>X>X>X>X>X>X>X",
">X>X>X>X>X>X>X>X>X>X>X>X>X>X>X>X>X>X>X>X>X>X>X>X>X>X>X>X>X>X>X",
">X>X>X>X>X>X>X>X>X>X>X>X>X>X>X>X>X>X>X>X>X>X>X>X>X>X>X>X>X>X>X",
">X>X>X>X>X>X>X>X>X>X>X>X>X>X>X>X>X>X>X>X>X>X>X>X>X>X>X>X>Xw ^.",
">X>X>X>X>X>X>X>X>X>X>X>X>X>XO # Z >X>X>X>X>X'  .R.|. X@Xc.0 ( ",
">X>X>X>X>X>X>X>X>X>X>X>Xh = , z f q = # = d.B.I.{.OX|. XZ.S X.",
">X>X>X>X>X>X>X>X>X3 :       &   @       g | o.M.L.Q.OX|.D B ..",
">X>X>X>X>X* *     .       X & o #     @ n V.E.W.OX+X+X}.[ m K ",
">X>X>X>X>X        . X       & > o     v F N.m.C.U.P.Y.T.>X>X>X",
">X>X>X>X>X        < .       ; 4 -     . 2 ` ] { } >X>X>X>X>X>X",
">X>X>X>X#                   ; + + . o # # >X>X>X>X>X>X>X>X>X>X",
">X>X>X>X>X                  O & + l A >X>X>X>X>X>X>X>X>X>X>X>X",
">X>X>X>X>X                      i Z >X>X>X>X>X>X>X>X>X>X>X>X>X",
">X>X>X>X>X>X.         . O , >X>X>X>X>X>X>X>X>X>X>X>X>X>X>X>X>X",
">X>X>X>X>X>Xo     .   i f 0 M >X>X>X>X>X>X>X>X>X>X>X>X>X>X>X>X",
">X>X>X>X>X>X      1   v l j f >X>X>X>X>X>X>X>X>X>X>X>X>X>X>X>X",
">X>X>X>X>X>X  & < p   k v V V >X>X>X>X>X>X>X>X>X>X>X>X>X>X>X>X",
">X>X>X. d   X y s.L $ 5 U ).a.P K /.>X>X>Xb.K.K.K.b.>X>X>X>X>X",
">X>X>X  <     7 t s o b (.-X~.^ j ) >Xv.H.h.u.y.u.f.G.v.>X>X>X",
">X>X>X  +   X 7 r 1   i _ &Xa.Y N / i.z.t.r.r.t.w.S.J.k.i.>X>X",
">X>X,   . X % 9 y - . > I ~ E J A Q g.y.r.t.t.w.h.=X].w.k.>X>X",
">X>X        % 8 e o   - ! `.~.c 5 ;.y.r.t.t.r.r.[.;Xw.r.y.0.>X",
">X>X        X 6 +     > R _.p.s = $.r.r.r.t.w.z.=XF.w.t.t.2.>X",
">X3         X 6 +     - H !.W u 3 =.t.q.r.w.t.oX#Xy.t.t.t.1.>X",
"o               > o   # x ^.T e 3 +.q.f.'.D.x.:XF.q.q.q.q.,.>X",
">X                    o a T G > @ C 4.q.oX;X%X.Xe.4.q.e.6.&.>X",
">X>X>X>X>X>X>X>X>X>X>X>X>X>X>X>X>X>X,.6.<.$X*XA.3.6.6.e.1.>X>X",
">X>X>X>X>X>X>X>X>X>X>X>X>X>X>X>X>X>X@.5.6.9.A.2.6.6.9.5.O.>X>X",
">X>X>X>X>X>X>X>X>X>X>X>X>X>X>X>X>X>X>XO.7.8.8.0.8.5.:.O.>X>X>X",
">X>X>X>X>X>X>X>X>X>X>X>X>X>X>X>X>X>X>X>X>X@.-.-.%.@.>X>X>X>X>X",
">X>X>X>X>X>X>X>X>X>X>X>X>X>X>X>X>X>X>X>X>X>X>X>X>X>X>X>X>X>X>X"
};
