/* XPM */
static char *qdvdauthor[] = {
/* columns rows colors chars-per-pixel */
"32 32 220 2 ",
"   c #E9E90F0F0000",
".  c #E9E9181800AB",
"X  c #E9E921CC01AC",
"o  c #E9E92A80065C",
"O  c #E9E92F2F0808",
"+  c #E9E931310707",
"@  c #E9E933B4098A",
"#  c #EA3F3BE60D63",
"$  c #E9E940400F0F",
"%  c #EAAA43431212",
"&  c #EAEA49E314C8",
"*  c #EAEA4DF81A1A",
"=  c #EAEA53531B1B",
"-  c #EAEA59031EC9",
";  c #EBEB51512222",
":  c #E0C25DB92546",
">  c #EB6B5CDD2222",
",  c #EBEB59592828",
"<  c #EB9561B72424",
"1  c #EBEB67672929",
"2  c #EBEB6BD22A2A",
"3  c #ECEC70702727",
"4  c #EC9673732D2D",
"5  c #ECC774BD3257",
"6  c #ED2C7DBD3979",
"7  c #ECEC7D7D4848",
"8  c #4B4B88880303",
"9  c #4D4D8A8A0404",
"0  c #4D4D8A8A0606",
"q  c #4E4E8C8C0404",
"w  c #50508E8E0606",
"e  c #525294940707",
"r  c #58589E9E0505",
"t  c #575798980D0D",
"y  c #585898980F0F",
"u  c #5D5DA7A70707",
"i  c #5E5EA7A70606",
"p  c #5F5FABAB0707",
"a  c #5BECB76B002A",
"s  c #6161ACAC0606",
"d  c #61B3AC470B19",
"f  c #6464B2B20606",
"g  c #6363B7B70404",
"h  c #6363BABA0101",
"j  c #6565BFBF0000",
"k  c #6868BBBB0707",
"l  c #6262B1B10909",
"z  c #6363B1B10F0F",
"x  c #6565B4B40D0D",
"c  c #6868BCBC0808",
"v  c #6868BCBC0909",
"b  c #6868BDBD0B0B",
"n  c #6A6ABEBE0A0A",
"m  c #6868BBBB0E0E",
"M  c #6868BABA0F0F",
"N  c #6262ACAC1010",
"B  c #6565B2B21111",
"V  c #6565B5B51010",
"C  c #6767B7B71515",
"Z  c #6969BCBC1010",
"A  c #6969BCBC1212",
"S  c #6A6AB9B91717",
"D  c #6C6CBDBD1414",
"F  c #6B6BB2B21818",
"G  c #7B89B74D26E9",
"H  c #6A6AC6C60000",
"J  c #6D6DC4C40303",
"K  c #6B6BC1C10707",
"L  c #6C6CC1C10606",
"P  c #6F6FC7C70606",
"I  c #6F6FC7C70707",
"U  c #6B6BC8C80000",
"Y  c #6D6DC8C80000",
"T  c #6F6FC9C90202",
"R  c #6B6BC3C30909",
"E  c #6E6EC2C20B0B",
"W  c #6E6EC6C60808",
"Q  c #6969C0C00F0F",
"!  c #7070C9C90404",
"~  c #7070CACA0404",
"^  c #70F3CAC5047E",
"/  c #7171CACA0707",
"(  c #7272CBCB0707",
")  c #7272CAC40801",
"_  c #72F6CAE207A5",
"`  c #7272CBCB0808",
"'  c #7373CBCB0808",
"]  c #7272CBCB0909",
"[  c #7391CBAF090F",
"{  c #7373CACA0B0B",
"}  c #7575CBCB0B0B",
"|  c #7575CBCB0E0E",
" . c #7676CBCB0F0F",
".. c #7575CCCC0C0C",
"X. c #7575CCCC0D0D",
"o. c #7777CCCC1111",
"O. c #7C7CCECE1818",
"+. c #7C7CA6A64646",
"@. c #92B59DB833D7",
"#. c #82B5B6843040",
"$. c #871FB27934CE",
"%. c #ED8683503C22",
"&. c #EDED88883838",
"*. c #8383CFCF2525",
"=. c #8383CFCF2929",
"-. c #8787D0D02C2C",
";. c #8888D2D22E2E",
":. c #8787CCCC3131",
">. c #87CCCE063329",
",. c #89D8C42B3C07",
"<. c #8787C8C83F3F",
"1. c #8B8BD0D03535",
"2. c #8C8CD0D03636",
"3. c #8D8DD4D43737",
"4. c #8F8FD3D33E3E",
"5. c #8585A9A95757",
"6. c #8F8FB5B55E5E",
"7. c #B780AF1D5EB4",
"8. c #ACAEB1FA5548",
"9. c #B027BD6763CA",
"0. c #EDED86064141",
"q. c #EDED8A654368",
"w. c #EE988D8D4AF5",
"e. c #EEEE93934646",
"r. c #EEEE93BE4BF6",
"t. c #EEEE9B344DB4",
"y. c #EEEE95EB51FC",
"u. c #EF4A9BD2531C",
"i. c #EEEE99995959",
"p. c #EFEFA4715522",
"a. c #EFEFA36A5A3D",
"s. c #EFEFAFAF5B5B",
"d. c #F0F0A9A95858",
"f. c #EFEFA65062B8",
"g. c #EAFCAC146461",
"h. c #EFEFA8A86565",
"j. c #EFFEAD7F645C",
"k. c #EFEFA5A56D6D",
"l. c #EF6FAEAE6BEC",
"z. c #F0F0AE2E64BA",
"x. c #F0F0AEAE6A6A",
"c. c #EC48B3436896",
"v. c #EA30B6D26F4C",
"b. c #F0F0B3086711",
"n. c #F15EB46B6BC7",
"m. c #F19BBB106D98",
"M. c #EFEFB2B27070",
"N. c #E6A4BEC87AC0",
"B. c #F1E0BBEE731D",
"V. c #F0F0B4B47979",
"C. c #F1F1BFBF7878",
"Z. c #8A8ACBCB4141",
"A. c #9292D6D64040",
"S. c #9797D6D64B4B",
"D. c #9A9AD9D94F4F",
"F. c #98EDC9905D6C",
"G. c #9797D0D05050",
"H. c #9A9AD7D75151",
"J. c #9E9EDBDB5555",
"K. c #9E98D3E75B49",
"L. c #9898C2C26161",
"P. c #B443C48F74FD",
"I. c #F1F1C2C2741E",
"U. c #F2A5C55E7D4A",
"Y. c #F2F2C8C87D7D",
"T. c #B894C8248714",
"R. c #B381C875814C",
"E. c #BFBFE6E69090",
"W. c #F19BC46E822C",
"Q. c #F303CCAA8585",
"!. c #F1F1C4C48888",
"~. c #F280CD5B89FB",
"^. c #F3F3D3D38787",
"/. c #F3B5D26B8C8C",
"(. c #E37DD7319B9A",
"). c #F3A7D63F92DE",
"_. c #F45ADA40952E",
"`. c #F1F9DCCD9EAB",
"'. c #F4E5DD289C50",
"]. c #C1C1E7E79494",
"[. c #C4C4E8E89797",
"{. c #F54AE18B9F49",
"}. c #CD1DD83CB877",
"|. c #D80EDB66BF3B",
" X c #E7DEDCF1A29F",
".X c #F54ADEDEA0A0",
"XX c #CACAE9E9A7A7",
"oX c #CECEEAEAADAD",
"OX c #D0D0EDEDADAD",
"+X c #F5AFE285A475",
"@X c #F639E4E4AB75",
"#X c #F6F6E9E9ADAD",
"$X c #F6F6E7E7B3B3",
"%X c #F7A1EAEAB5A0",
"&X c #F7F7EC1ABB8C",
"*X c #F222E886BF36",
"=X c #F8F8EEEEBE3E",
"-X c #DCDCF1F1C3C3",
";X c #EF8BEB81C1A7",
":X c #F7F7ED6DC0C0",
">X c #F8F8EF16C49C",
",X c #F400EE95CF40",
"<X c #F95FF157C52B",
"1X c #F9E7F2F2CCBA",
"2X c #E5E5F3F3D5D5",
"3X c #EBEBF7F7DEDE",
"4X c #FAE3F551D51A",
"5X c #FB9FF73FDBED",
"6X c #EFEFF8F8E5E5",
"7X c #FBFBF96AE3AA",
"8X c #F3F3FAFAEBEB",
"9X c #F5F5FAFAEDED",
"0X c #F92EFA29ED30",
"qX c #FD2FFBAEEC9F",
"wX c #FE53FD52F449",
"eX c #F9F9FCFCF4F4",
"rX c #F9F9FCFCF6F6",
"tX c #FBFBFDFDF8F8",
"yX c #FEFEFEFEFAFA",
"uX c None",
/* pixels */
"uXuXuXuXuXuXuXuXuXuXuXuXuXuXuXuXuXuXuXuXuXuXuXuXuXuXuXuXuXuXuXuX",
"uXuXuXuXuXuXuXuXuXuXuXuXuXuXuXuXuXuXuXuXuXuXuXuXuXuXuXuXuXuXuXuX",
"uXuXuXuXuXuXuXuXuXuXuXuXuXuXuXuXuXuXuXuXuXuXuXuXuXuXuXuXuXuXuXuX",
"uXuXuX%.t.u.%.uXuXuXuXuXuXuXuXuXuXuXuXuXuXuXuXuXuXuX%.t.u.%.uXuX",
"uXuXq.B.Q.Q.B.%.uXuXuXuXuXuXuXuXuXuXuXuXuXuXuXuXuXr.B.Q.Q.M.%.uX",
"uXuXl.).@X#X).a.uXuXuXuXuXuX%.u.r.5 uXuXuXuXuXuXuXl.).#X#X^.a.uX",
"uXuXl.).<X4X'.n.< uXuXuXuXq.B.Q.Q.n.%.$ uXuXuXuXuXM.).<X4X_.m.uX",
"uXuXu.^.&X1X'.b.- uXuXuX1 n.).#X$X_.m.5 @ uXuXuXuXu.^.%X4X'.n.uX",
"uXuX4 m.@X%X).u.& uXuX* q.W.'.%X4X%X).p.> uXuXuXuX5 B.@X&X/.p.uX",
"uXuX3 I.'.+XY.6 @ o , %.b.~._.+X%X4X$XQ.q.% uXuXuX4 I.'.{.Y.%.uX",
"uXuXe.Q.).~.a.= X % w.x.^.).^.I._.1X4X'.m.5 o uXuXw.Q._.^.p.uXuX",
"uXuXz.~.~.m.5 O X , f.W.{.@X).s.U.@X5X:X~.u.& X = f.!.~.B.%.uXuX",
"uXuXV.!.B.q.% . O 5 B.).%X<X'.h.p.).1X5X@XB.2 + ; k.W.B.e.uXuXuX",
"uXuXuXuXuXuXuX. & u.^.+X=X5X$XY.e.m..X5X>X).y.% # 7 i.uXuXuXuXuX",
"uXuXuXuXuXuXuXO 5 B._.@X%X5X1X'.p.p.).4X5X@Xx.1 @ uXuXuXuXuXuXuX",
"uXuXuXuXuXuXuX= y.~.@X+X{.1X7X$XC.u.C.&X7X:XQ.6 # uXuXuXuXuXuXuX",
"uXuXuXuXuXuX@ 6 U.+X$X/.Y.+X5X4X_.n.b.{.5X4X_.u.* uXuXuXuXuXuXuX",
"uXuXuXuXuXuX* u./.:X$XI.p.~.%X7X=X/.I._.1X7X`.g.: uXuXuXuXuXuXuX",
"uXuXuXuXuXuX1 n..X5X@Xm.&.z.'.1X5X@X^._.*X|.P.9.8.L.6.uXuXuXuXuX",
"uXuXuXuXuXuX6 W.&X7X$XY.t.d.^.%XqX4X#X XT.K.-.O.X.O.*.G.5.uXuXuX",
"uXuXuXuXuXuX0.Q.>XqX1X.X~.Q.{.=XqXqX,XR.2.X.P ' ' T A.J.1.+.uXuX",
"uXuXuXuXuXuX0.Q.>XwXqX1X=X%X<X5XwXyX}.>.} ' ' ' T ;.9XE.U >.uXuX",
"uXuXuXuXuXuX5 B..X7XqXqXqXqXqXqXqX0XF.| / ' ' ' P [.rXH ' X.F uX",
"uXuXuXuXuXuX; a.~.@X:X>X>X>X:X:X:X;X,.' ' ' ' T 3.8XD.T ' / f uX",
"uXuXuXuXuXuXuX5 f.U.~.)./.)./.~.^.(.G / ' P I ' OX-Xo./ ' ' s uX",
"uXuXuXuXuXuXuXuX2 q.y.u.y.t.r.e.t.N.#.I =.E.S.4.tXH.P P I W i uX",
"uXuXuXuXuXuXuXuXuX# & & & % % % 3 c.$.k j oXeX3XXXE K K R n r uX",
"uXuXuXuXuXuXuXuXuXuXuXuXuXuX  . - j.7.d b a 2X6XZ.h k n Z p uXuX",
"uXuXuXuXuXuXuXuXuXuXuXuXuXuXuXuX& y.v.@.x A D Z.g m A A l 9 uXuX",
"uXuXuXuXuXuXuXuXuXuXuXuXuXuXuXuXuXuXuXuX9 N B x S C z p 8 uXuXuX",
"uXuXuXuXuXuXuXuXuXuXuXuXuXuXuXuXuXuXuXuXuXuXw y t e q uXuXuXuXuX",
"uXuXuXuXuXuXuXuXuXuXuXuXuXuXuXuXuXuXuXuXuXuXuXuXuXuXuXuXuXuXuXuX"
};
