/* XPM */
static char *qlix[] = {
/* columns rows colors chars-per-pixel */
"32 32 197 2 ",
"   c #000017973297",
".  c #0000188C3495",
"X  c #002B1D293E0B",
"o  c #02A7200A3AD7",
"O  c #34836B6C1F0F",
"+  c #3D0479101CD3",
"@  c #2AD05FDF2913",
"#  c #2CF662B32A84",
"$  c #35DB6CC52068",
"%  c #3DB17C872181",
"&  c #417A7C0A22C7",
"*  c #00001E7F4197",
"=  c #000020B5467F",
"-  c #007F24084BC0",
";  c #03C42AFD4E43",
":  c #11923D6F4172",
">  c #000026405363",
",  c #010529655529",
"<  c #000026FE5884",
"1  c #00092A505B39",
"2  c #00132DB96359",
"3  c #0697307A6302",
"4  c #08DF33766017",
"5  c #003231EB6BB5",
"6  c #001C359C7462",
"7  c #029938B372BB",
"8  c #0AB83BEB7671",
"9  c #000037297979",
"0  c #0000393A7BAE",
"q  c #085D3C037A01",
"w  c #13B442D444AC",
"e  c #1C0B4E086346",
"r  c #180344D57916",
"t  c #2436523B7503",
"y  c #243E559F7BE8",
"u  c #450B75395CBC",
"i  c #498D76A56690",
"p  c #45DF82881CB1",
"a  c #471A8A911F25",
"s  c #4BA392E11F25",
"d  c #509C977E1792",
"f  c #5B2BA4B40902",
"g  c #5EC9AA6F0A01",
"h  c #5BFEB7FC00FD",
"j  c #6363B7B70404",
"k  c #6432BCF600B2",
"l  c #6868BBBB0707",
"z  c #63B9B2B20C62",
"x  c #68ACBCA40B45",
"c  c #6011A98D11B6",
"v  c #6610B55F1212",
"b  c #6A55BC0E138F",
"n  c #4B258C77360A",
"m  c #61049AA83853",
"M  c #7C4AB9A13064",
"N  c #7BEFB9B83A3A",
"B  c #6D6DC57C052A",
"V  c #6E5BC95A0168",
"C  c #6C6CC3830ACB",
"Z  c #711DCAB805C0",
"A  c #7385CB84097A",
"S  c #7777CCCC1111",
"D  c #7C7CCECE1818",
"F  c #5BC88A5E6C48",
"G  c #8383CFCF2525",
"H  c #8383CFCF2929",
"J  c #87C3D1822D50",
"K  c #8258C8A53192",
"L  c #8787C8C83F3F",
"P  c #8C8CD2273636",
"I  c #8F8FD3D33E3E",
"U  c #81BFB993406C",
"Y  c #8132A6067B9B",
"T  c #9915BE107DB5",
"R  c #8A8ACBCB4141",
"E  c #91FFD636407A",
"W  c #9797D6D64B4B",
"Q  c #9A9AD9D94F4F",
"!  c #92D6CC0F51AC",
"~  c #9722CE4D58AF",
"^  c #9A9AD7D75151",
"/  c #9E9EDBDB5555",
"(  c #000B3D8D84E0",
")  c #00003EAC8A2B",
"_  c #000041368CEE",
"`  c #0D7E47688A7D",
"'  c #1422461780B6",
"]  c #12AF4A3789F1",
"[  c #0019444693EE",
"{  c #000046D5998F",
"}  c #003E492E9DEB",
"|  c #0DE24F039B00",
" . c #10104F6A98C5",
".. c #1A995378955A",
"X. c #1C6656459941",
"o. c #2A39569E8A1F",
"O. c #332E5D138E54",
"+. c #24FE5BE99B91",
"@. c #3BF2608B8B31",
"#. c #33F2632499F4",
"$. c #3D1B6B099E1C",
"%. c #001C4C15A4C1",
"&. c #00174EEFAB25",
"*. c #0DA354FDA7BB",
"=. c #00005085ADEB",
"-. c #08385567B019",
";. c #16AE5704A1E0",
":. c #1698592EA76E",
">. c #11D058F7AC74",
",. c #0023536FB3C0",
"<. c #00005577B85A",
"1. c #1C2261ECB35E",
"2. c #24E96313AB97",
"3. c #34F86A05A7DC",
"4. c #35BB6DD4B009",
"5. c #38EC6ED5AEAB",
"6. c #3DB171DEAE6E",
"7. c #2B3869C3B1EF",
"8. c #35977459BD15",
"9. c #4D047430A24E",
"0. c #5AC97FAAAA4E",
"q. c #60DF7E3FA08C",
"w. c #4ABA80A8BF62",
"e. c #52908523C008",
"r. c #59F08607B97B",
"t. c #59E98924BFE2",
"y. c #69DC8A01AFC8",
"u. c #75728EF8AC6F",
"i. c #7CDE933DAD52",
"p. c #7DF9977EB4FB",
"a. c #71E89424BBC4",
"s. c #51C28585C1AB",
"d. c #52EA88E8C79A",
"f. c #5CEE8D6DC5AF",
"g. c #65E59287C60A",
"h. c #69FD92DBC22C",
"j. c #6E619B1ECEF8",
"k. c #7CD79D17C270",
"l. c #76369EB3CDB8",
"z. c #79879F71CBC0",
"x. c #83B49D24BAA0",
"c. c #8FC1A497B408",
"v. c #8FF4A6C5B88D",
"b. c #B055D28B819F",
"n. c #B375D22D8A7F",
"m. c #BEFFE6369079",
"M. c #C1C1E7E79494",
"N. c #C4C4E8E89797",
"B. c #CACAE9E9A7A7",
"V. c #CECEEAEAADAD",
"C. c #D0D0EDEDADAD",
"Z. c #8496A39BC785",
"A. c #884EA4D2C608",
"S. c #81A7A487CD13",
"D. c #94C2AA38C319",
"F. c #9A6CB125CB9C",
"G. c #8568AB1FD6FF",
"H. c #9427B271D5A3",
"J. c #9B89B565D3CA",
"K. c #9662B6A3DC0A",
"L. c #AAA7BB35CE8D",
"P. c #A2DDB823D0EC",
"I. c #A46CBC31D7A1",
"U. c #AED4C034D482",
"Y. c #A485BFFBDFBE",
"T. c #A7A5C141DEF9",
"R. c #AA6EC286DE55",
"E. c #B8CAC702D780",
"W. c #BFE7CB7AD672",
"Q. c #BE76CB6EDA6B",
"!. c #ADE3C6A5E329",
"~. c #BA12CD9AE452",
"^. c #DCDCF1F1C3C3",
"/. c #E5E5F3F3D5D5",
"(. c #EBEBF7F7DEDE",
"). c #C35AD24DE3A6",
"_. c #CC94D6C6E2AB",
"`. c #CE46DB6CEAB5",
"'. c #D125D9BFE3C6",
"]. c #D426DE71EA59",
"[. c #DCF3E4AEED9E",
"{. c #DEDBE757F115",
"}. c #E9EDECA5E42C",
"|. c #E1D8E7EEEEFB",
" X c #E3D6E8B1EBCC",
".X c #EF33F857E581",
"XX c #F156F189EE82",
"oX c #F4F4FAFAECEC",
"OX c #E4C6EB13F261",
"+X c #E96FEDC9F2D5",
"@X c #EE33F124F48C",
"#X c #F2FFF47CF635",
"$X c #F9F9FCFCF5F5",
"%X c #F799F841F8FB",
"&X c #F872F8CCF934",
"*X c #FD4CFC9BFB82",
"=X c None",
/* pixels */
"=X=X=X9 _ _ ( _ ( ( ( ) ) _ _ _ ( _ ( _ ) ( _ _ ( ( _ _ 9 =X=X=X",
"=X6 &.,.,.,.,.=.<.,.,.,.,.,.,.<.,.,.,.,.<.,.,.,.,.,.,.<.,.%.0 =X",
"=X%.<.<.<.<.<.<.<.<.<.<.,.<.<.<.<.<.,.,.,.<.<.,.<.<.<.<.<.<.=.5 ",
"0 ,.,.,.,.,.,.,.,.<.,.,.,.,.,.,.,.,.,.,.,.,.<.,.,.,.,.,.,.,.=._ ",
"_ =.,.=.,.,.=.,.,.,.=.,.&.,.=.,.<.,.,.=.,.,.,.,.=.,.=.=.,.=.,._ ",
"0 =.=.=.=.=.=.=.&.&.&.-.8.j.K.!.!.T.G.d.1.&.=.=.=.=.=.=.=.=.%._ ",
"0 =.=.=.=.=.=.%.&.&.8.Y.+X*X*X*X*X*X*X&X`.j.>.&.=.=.=.=.=.=.=.0 ",
"0 %.%.%.%.%.%.%.&.f.{.*X%X~.l.s.w.f.H.[.*X*X!.>.%.%.%.%.%.%.%.( ",
"0 %.%.%.%.%.%.%.e.+X*XOXg.*.%.} %.} %.7.R.*X*XR.:.%.%.%.%.%.%.0 ",
"0 } } } } } } 2.].*X@Xt.} } } %.} %.} } :.R.*X*Xz.} %.} { } %.0 ",
"6 } } } { } { S.*X*XH.} { } { { { } { { { 4.|.*X[.2.{ { } } } 9 ",
"6 { { { { { ;.`.*X+X5.{ { { { { { { { { { { J.*X&Xh.{ { { { { 6 ",
"5 { [ [ [ [ 6.#X*X).| { [ [ [ { { { [ [ { [ r.%X*XI.{ { [ { [ 6 ",
"5 [ [ _ [ _ r.*X*XF.[ [ _ [ [ [ _ [ _ [ [ _ 3.+X*X_. ._ _ [ [ 5 ",
"5 _ _ _ _ _ a.*X*XZ._ _ _ _ _ _ _ _ _ _ _ _ +.[.*X[..._ _ _ [ 5 ",
"5 _ _ _ _ _ k.*X*Xk.) _ _ _ _ _ _ _ _ _ _ _ X.[.&X[.X._ _ _ _ 5 ",
"5 ( ( ( ( ( a.*X*XA.( ( ( ( ) ( _ ( _ ( ( ( +.|.*X]...( ( ( ) 2 ",
"2 ( ( ( ( ( 0.%X*XP.( ( ( ( ( ( ( ( ( ( ( ( $. XXXW.] ( ( ( ) 2 ",
"2 ( ( 0 ( 9 #.+X*X_.] ( ( 0 ( ( ( 0 0 0 ( t Y n.b.T F y 9 ( ( 2 ",
"1 9 0 ( 0 0 ` Q.*X#X9.0 0 0 0 0 0 ( 0 7 i ~ J D A D G ! i 7 ( < ",
"1 9 9 9 9 9 9 y.&X*XU.' 9 9 9 9 0 9 7 u P A Z Z Z V I / P u 9 < ",
"< 9 9 6 6 6 6 ' E.*X%Xx.q 6 6 6 9 9 e K S Z Z S Z J oXm.V K e 1 ",
"> 6 6 6 6 6 6 6 O.'.*X#XD.o.8 6 5 7 n S Z A Z Z Z N.$XV Z S n , ",
"> 5 6 5 5 6 5 5 6 O.Q.*X*X|.L.x.x.v.N A Z Z A Z P oX^ Z A Z s ; ",
"> 5 5 5 5 5 5 5 5 5 r u.).@X*X*X*X}.M A A V V A C.^.S Z A A d ; ",
"- 5 2 5 5 5 2 5 3 5 2 2 q @.q.i.i.c.U B H M.W I $X^ B B Z C a ; ",
"- 2 3 2 2 2 2 3 2 2 3 2 2 2 2 2 2 4 m l k C.$X(.B.C C B B x % - ",
"- 1 2 2 2 2 2 2 2 2 2 2 2 2 2 1 2 2 w g x h /..XR k l x C g w - ",
"* 1 1 1 2 2 1 1 1 1 1 2 2 1 1 1 1 2 1 # z b b L j x b b z # 1 = ",
". < 1 1 < < 1 1 1 1 1 1 1 1 1 1 > 1 1 , # c v v b v z f @ , < * ",
"=X= > < 1 1 < 1 > 1 1 1 1 , 1 1 , 1 , 1 , : $ & p % O : > < * =X",
"=X=X. * X X X * X X X X X X X X * X X X X X X o o X X X = . =X=X"
};
