/* XPM */
static char *renpy_demo[] = {
/* columns rows colors chars-per-pixel */
"32 32 256 2 ",
"   c #1B9C1B9C5E5E",
".  c #1F1F27274A4A",
"X  c #2E6F35B65959",
"o  c #1E1E1E1E60E1",
"O  c #282828286767",
"+  c #2C6C2BD669BF",
"@  c #23D423D46494",
"#  c #34342F2F6A6A",
"$  c #336632656E07",
"%  c #35E0358B711B",
"&  c #3C853B60744F",
"*  c #40403F3F5555",
"=  c #4F4F39396C6C",
"-  c #5E5E5B5B6969",
";  c #4A25496E7EA3",
":  c #454343627A00",
">  c #51CA49C37223",
",  c #696944446F6F",
"<  c #7DFE51D27676",
"1  c #5E5E64E57CFD",
"2  c #6B3668817453",
"3  c #8DAD54495E7D",
"4  c #91E754AA5EB4",
"5  c #8F126DE858BA",
"6  c #9A285BC66432",
"7  c #83834E4E7373",
"8  c #8E8E5F5F7F7F",
"9  c #9A9A5B5B7373",
"0  c #A4645EDF6626",
"q  c #9BDB60E166E7",
"w  c #9D08645B6A96",
"e  c #9DEE6EFF66BD",
"r  c #8F8F68687C7C",
"t  c #9E1E6EEF7E7E",
"y  c #941365A573F4",
"u  c #A4E4618166E6",
"i  c #AA8A61216747",
"p  c #A424648F69D4",
"a  c #AC0664286A0F",
"s  c #A3A368BE6CC2",
"d  c #ACD769BF6CC2",
"f  c #B45F65516AA0",
"g  c #BA3A66E76B6B",
"h  c #B35669236CE1",
"j  c #BCA16A6A6E1D",
"k  c #AFAF67677C7C",
"l  c #AA5A6B5B7787",
"z  c #B7B766E772F2",
"x  c #B2B26E6E72C8",
"c  c #ABFB74C57696",
"v  c #B4097D527BD1",
"b  c #D1D17B7B5E5E",
"n  c #C16B69BF6E18",
"m  c #CA9F6E43719C",
"M  c #C7E46DDF74AD",
"N  c #D2D26D6D7676",
"B  c #C5C571717333",
"V  c #CC4B72B27414",
"C  c #C0C07E7E7C7C",
"Z  c #D31B73AA7587",
"A  c #DBDB759576F7",
"S  c #D4F57B667A83",
"D  c #D9A678E77BA6",
"F  c #D9D97D7D67E8",
"G  c #E36376767777",
"H  c #E3B076A978AB",
"J  c #E46F7AD77BD8",
"K  c #EC467B207C4F",
"L  c #EE437D7D7676",
"P  c #F5007CFD7D08",
"I  c #FE617F247F1F",
"U  c #F0F07F7F7474",
"Y  c #74349DFC1DC6",
"T  c #5D6AAF9D0603",
"R  c #60DAABBB0AC9",
"E  c #6485BD2E00DB",
"W  c #63B9B2B20C62",
"Q  c #68C8BCB80B54",
"!  c #65E6B9B90586",
"~  c #691AA65115BA",
"^  c #6610B55F1212",
"/  c #6A89BC2F13AA",
"(  c #7197A0172A3C",
")  c #6AB69C5737E4",
"_  c #7D84981230E3",
"`  c #710DA0973CA5",
"'  c #7C03B7452C1A",
"]  c #6D6DC57C052A",
"[  c #6E79C9630168",
"{  c #6C6CC3830ACB",
"}  c #712DCAB005B1",
"|  c #7388CB840977",
" . c #7C7CCECE1818",
".. c #7777CCCC1111",
"X. c #6FFA99C64558",
"o. c #70978ACA5C5C",
"O. c #7526981A5609",
"+. c #6EAB986344B3",
"@. c #73768A5D6710",
"#. c #83DEB8383BAD",
"$. c #8383CFCF2727",
"%. c #883AD1C22D68",
"&. c #885BC8783834",
"*. c #8C8CD2273636",
"=. c #8F8FD3D33E3E",
"-. c #839B8ED74FD9",
";. c #879EB65C47F4",
":. c #A04C8D166183",
">. c #BA3A81817E7E",
",. c #9831B3A26A37",
"<. c #AF9DA283670F",
"1. c #C0C08A8A4646",
"2. c #CECE81815454",
"3. c #CF0797ED4B12",
"4. c #DBDBB1B15757",
"5. c #DCDC89896969",
"6. c #E86880807676",
"7. c #FCFC81817E28",
"8. c #F4108732753C",
"9. c #F2729A9A7979",
"0. c #DFDFADAD7575",
"q. c #F348A6A67A7A",
"w. c #F6F6B1B17E7E",
"e. c #E4E4A2A26868",
"r. c #9705D7B94907",
"t. c #97EBCD77542A",
"y. c #97E2C47455B6",
"u. c #9C9CD9D95353",
"i. c #8A8ACBCB4141",
"p. c #ADEDC51574E8",
"a. c #EFEFC5C56F6F",
"s. c #FCFCD0D07F7F",
"d. c #4D6D4D4D81C1",
"f. c #50504ECF8282",
"g. c #53B0536A85FA",
"h. c #575757578989",
"j. c #5BAF5A828AA7",
"k. c #656558588686",
"l. c #620C5CB28AE0",
"z. c #616160B68F39",
"x. c #6F6F61618B8B",
"c. c #64A464649191",
"v. c #6A9D6A03952E",
"b. c #6E6E6E6E9919",
"n. c #696965659090",
"m. c #78A36D6D93E9",
"M. c #787876F79E9E",
"N. c #7C7C79799E9E",
"B. c #741E739E9C46",
"V. c #73366C6088B0",
"C. c #7C437C26A2A2",
"Z. c #88C86B6B8989",
"A. c #9C9C6913812B",
"S. c #9A9A76CC8933",
"D. c #911179799696",
"F. c #863678E99565",
"G. c #A7E773B38585",
"H. c #B83875758484",
"J. c #82027E7EA222",
"K. c #D15177F88403",
"L. c #EDED7F7F8080",
"P. c #FAFA7F7F8080",
"I. c #97168A0A8282",
"U. c #90D99F268F6A",
"Y. c #84C487079858",
"T. c #987491DF9776",
"R. c #87DD97668800",
"E. c #B99989898808",
"W. c #B2A799868BEE",
"Q. c #BFBF92929090",
"!. c #A5A59C9C9C9C",
"~. c #ACA4BF1E8471",
"^. c #BA2CBFD59493",
"/. c #828281CEA60C",
"(. c #88088585A5A5",
"). c #864D864DA9C6",
"_. c #8B7D8BA6ACFD",
"`. c #9FB99415A0F2",
"'. c #8F8F8F8FB0B0",
"]. c #931292A7B247",
"[. c #9D1D9696B0B0",
"{. c #9F9E9EEBB858",
"}. c #97978F8FA9A9",
"|. c #A44C9674A7BE",
" X c #BD3D9F1FA5A5",
".X c #B365AA4EACA0",
"XX c #A6D6A8F1BA25",
"oX c #A5C1A539B7E9",
"OX c #BE3EADADB737",
"+X c #BBBBB9B9BEBE",
"@X c #C44388888383",
"#X c #C76092C58B8B",
"$X c #C6059B9B93BA",
"%X c #D85891E78B0B",
"&X c #E6E683638585",
"*X c #F49482C282E2",
"=X c #F247898989DF",
"-X c #FC3E8A248936",
";X c #FBFB94948989",
":X c #D680A6A69C9C",
">X c #C5C5A5A59797",
",X c #FA39B7B78605",
"<X c #E758ADC99E82",
"1X c #F9F9A9A99191",
"2X c #F736B8789595",
"3X c #F6F6A3F988DE",
"4X c #CFC4AA2AA061",
"5X c #D9D9ADADA1A1",
"6X c #CECEB2B2AAAA",
"7X c #D82DB6B6A8A8",
"8X c #DD81C034AFDE",
"9X c #EAEAB939A626",
"0X c #EE2DBBBBA9A9",
"qX c #E9FDB728A725",
"wX c #BFA4E65D9065",
"eX c #FCFCD4D49393",
"rX c #C343E8689616",
"tX c #DEDEC0C0ADAD",
"yX c #CD6EC72BBFDC",
"uX c #CB4CCE2DAC30",
"iX c #EFEFC1C1AEAE",
"pX c #FC7CD9D9A7A7",
"aX c #E6DBC67DB6FE",
"sX c #F575C848B333",
"dX c #F5F5CD77BA0F",
"fX c #CCCCEA6AAAAA",
"gX c #D0D0EDEDADAD",
"hX c #FEFEE0E0AFAF",
"jX c #AD30AD82C25B",
"kX c #AE7BB0A4C0E8",
"lX c #B0DFB1B1C5EA",
"zX c #B485B4B4CA55",
"xX c #BA0FBA0FCECE",
"cX c #BDBDBDBDD0D0",
"vX c #DEDED5D5D2D2",
"bX c #D6ABD025CBF6",
"nX c #F0F0CFCFC1C1",
"mX c #E9A2D777C90D",
"MX c #F3F3D6D6C5C5",
"NX c #F979DEDECDCD",
"BX c #F29CDC86CECE",
"VX c #E915DD29D3ED",
"CX c #E8E8CBCBC0C0",
"ZX c #DCDCF1F1C3C3",
"AX c #EE5FE2EED11F",
"SX c #F5A3E740DB29",
"DX c #F9F9E73CDA2F",
"FX c #F7B2EA4DDCE7",
"GX c #FA81EACCDDEC",
"HX c #F9C6E37CD4A1",
"JX c #E8E8F5F5DA5A",
"KX c #F6F6EBEBE0E0",
"LX c #FBB1EEE2E2AC",
"PX c #F4F4FAFAECEC",
"IX c #FAA4FD52F6F6",
"UX c #EF96F890E5A3",
/* pixels */
"      o o @ @ @ O + = z L.P.P.I I I I P N < : : : : : ; d.d.d.d.",
"o o @ @ @ @ O + = 9 P P.P.P.I I I P.I P A n 9 > ; ; ; d.d.d.d.g.",
"@ @ @ @ O + $ , N 7.I I I P.I P.I P H A N n n M k 8 ; f.g.g.g.g.",
"@ @ @ + + # 7 K I P I I I I I I I P K P P P I I I I H.k.g.g.h.j.",
"O O O + # 7 L.P.I P 7.I -X*X7.7.P P 8.7.P.I I I P P.=XG.l.j.j.j.",
"+ + $ $ > L.P.P.I P -X;X1X,X,X,X,Xw.q.8.8.U U U P L.=X&Xx.j.j.c.",
"$ + % & A.-XP.P.I 9.2XpXhXpXeXs.s.s.a.4.3.1.b 5.P H K =XZ.c.c.c.",
"$ % & = *X-XP.P 5.0.2X2X2X1X3X3X9.q.q.e.3.3.1.2.K P D *XG.n.c.v.",
"% % & x.-X-X-X6.F 6.P 7.*XI P P P I P.7.P L 5.b H P.K J H.v.v.v.",
"& & = k =X-X=XV K.K.*X*XP K J K K K P P K *X7.K D *X-XJ D m.b.b.",
"& & : L.L.-XL.g B J K J J V M V Z Z A J J J &XA m J -XJ Z m.B.B.",
": = > L.J P.A f j V S V B h f f h j f V Z B S B f Z *X&Xj Z.B.B.",
": d.k.P H P N 3 p j h d a 6 i u u a p u j j h j 0 j J *Xa Z.M.N.",
": d.7 H H K m 3 6 w s s 6 s x 0 p s s q 6 d d s q f D K a r N.C.",
"d.d.Z.N K H N 3 6 c c c w v @Xf c >.c v v >.c c q i B H u y J.J.",
"d.g.A.k H H m 6 #X5X:X$X#X>X:Xv v #X#X:X7X:X$X$X>.a M N f 4 J.).",
"g.g.k f D Z S #XaX6XI.E.$XaX0X:X#X5XaXMX7XW.>X7X7X5.M j f 4 (.).",
"g.h.k f Z B 6.0XtXI.- * I.MXNXdX0XaXHXAX!.- 2 <.8X4XS f g 3 D._.",
"j.j.l f m j 6.8XtXT.> . 2 vXGXFXHXDXGXbXV.> o.,.p.p.<.e f 3 S.'.",
"z.l.l j j g 6.8XaX+XX . V.vXLXLXGXLXLXyX@.t.%. ... .$.t.:.3 A.].",
"z.x.p g g a 6.9XSXvXY.1 |.GXLXLXLXLXSX~.*.| } } } [ =.u.*.-.q ].",
"n.Z.p g a i B <XMXFXvXbXVXGXGXLXLXLXuX&.| } | | } %.PXwX[ &.5 [.",
"v.r d h i i B @XaXFXKXLXLXLXLXLXLXFXy...| | } | } rXIX] } .._ |.",
"b.t h h i u h d >.mXLXLXLXLXLXKXDXHX&.| | | | [ *.PXu.[ | } Y `.",
"m.S.c d d q j p w Q.VXLXLXLXFXFXGXvX' } | } [ ..gXZX..| } | Y T.",
"B.m.D.A.A.y l p w w Q.mXLXLXLXFXGXSX' ] $.wXr.=.IXu.] } } { ( oX",
"M.M.N.F.J.F.S.l y y 6 E.CXLXLXLXLXFX;.! E gXPXJXfX{ { ] ] ! ) oX",
"C.C.C.C.J./.J.D.(.D.F.S.$XnXGXLXLXLX^.R { T JXUX&.E Q Q { R R.lX",
"C.C.C./.).).).'._._._.}.>X<XiXNXFXAXtXO.W Q / i.! / Q / W O.jXzX",
"/./.).).).)._.).'.].'.]..X<X9X9X9XiXiX XO.~ ^ ^ ^ ^ W R O.XXzXzX",
").)._._._._.'.'.].].].[.$X<X9X0XiXsXsXOX{.R.+.` ) ) X.U.lXzXzXxX",
")._._.'.'.'.].].].'.Y.6X0XqX9XiXsXdXdX6XY._.{.XXXXjXlXzXzXxXxXcX"
};
