/* XPM */
static char *ripoff[] = {
/* columns rows colors chars-per-pixel */
"32 32 225 2 ",
"   c #AFFC04A604A6",
".  c #A48E0E4506B6",
"X  c #B0C007180718",
"o  c #B10E080A080A",
"O  c #B1A709E509E5",
"+  c #B33B0EA20EA2",
"@  c #AECB0FD10FD1",
"#  c #AE901BF41649",
"$  c #B3BA10431043",
"%  c #B48E12FB12FB",
"&  c #B606176D176D",
"*  c #B64E186A186A",
"=  c #B77E1C391C39",
"-  c #B2A9261F2063",
";  c #B97B22182218",
":  c #BB14273A273A",
">  c #BBB6298C298C",
",  c #BC5D2BF92BF9",
"<  c #BD482ECE2ECE",
"1  c #A302307223CD",
"2  c #BDBB30023002",
"3  c #BF90360E360E",
"4  c #C01C37183718",
"5  c #BDB9389F3706",
"6  c #C10D3A4A3A4A",
"7  c #C2103D7B3D7B",
"8  c #9BDC77B83E9B",
"9  c #A25D7FD851C5",
"0  c #C3E4431A431A",
"q  c #C46F44974497",
"w  c #C4F6467E467E",
"e  c #C6474A744A74",
"r  c #C7484D5D4D5D",
"t  c #C83151195119",
"y  c #C93153EE53EE",
"u  c #CB235A8C5A8C",
"i  c #CE9E65386538",
"p  c #D1CE6ECB6ECB",
"a  c #D33A72F872F8",
"s  c #D398746C746C",
"d  c #D5847A427A42",
"f  c #700892420932",
"g  c #5C00B8000101",
"h  c #61E4ACFE0AEF",
"j  c #6131A9BB0CE3",
"k  c #61E4ACFE0CE9",
"l  c #6363B7B70404",
"z  c #6400BB000201",
"x  c #6565BFBF0000",
"c  c #6868BBBB0707",
"v  c #6262B1B10909",
"b  c #6363B1B10F0F",
"n  c #6565B4B40D0D",
"m  c #6868BCBC0808",
"M  c #6868BCBC0909",
"N  c #6868BDBD0B0B",
"B  c #6B00BF000B01",
"V  c #6868BBBB0E0E",
"C  c #6868BABA0F0F",
"Z  c #6617AEA215B5",
"A  c #7EEFA03D1D79",
"S  c #6565B2B21111",
"D  c #6565B5B51010",
"F  c #6767B7B71515",
"G  c #6A00BD001101",
"H  c #6969BCBC1212",
"J  c #6A6AB9B91717",
"K  c #6D00BE001501",
"L  c #7C1AA0D72745",
"P  c #7912AD463DA4",
"I  c #7CC0BB0C3128",
"U  c #6A6AC6C60000",
"Y  c #6D6DC4C40303",
"T  c #6B6BC1C10707",
"R  c #6C6CC1C10606",
"E  c #6F6FC7C70606",
"W  c #6F6FC7C70707",
"Q  c #6B6BC8C80000",
"!  c #6D6DC8C80000",
"~  c #6F6FC9C90202",
"^  c #6B6BC3C30909",
"/  c #6E6EC2C20B0B",
"(  c #6E6EC6C60808",
")  c #6969C0C00F0F",
"_  c #6FF7C9E302E4",
"`  c #7091C9E90407",
"'  c #7070CACA0404",
"]  c #71C4CA420743",
"[  c #7171CACA0707",
"{  c #7272CBCB0707",
"}  c #725FCAD30807",
"|  c #7300CAFF0801",
" . c #7272CBCB0808",
".. c #7373CBCB0808",
"X. c #7352CAED08EF",
"o. c #7272CBCB0909",
"O. c #7373CBCB0909",
"+. c #7373CACA0B0B",
"@. c #7575CBCB0B0B",
"#. c #7575CBCB0E0E",
"$. c #7676CBCB0F0F",
"%. c #7575CCCC0C0C",
"&. c #7575CCCC0D0D",
"*. c #7777CCCC1111",
"=. c #7C7CCECE1818",
"-. c #7F46B0614777",
";. c #8383CFCF2525",
":. c #8383CFCF2929",
">. c #8787D0D02C2C",
",. c #88FCD2F42EF5",
"<. c #87E8CE3433F0",
"1. c #8AD6CE3436DE",
"2. c #8787C8C83F3F",
"3. c #8B8BD0D03535",
"4. c #8C8CD0D03636",
"5. c #8D8DD4D43737",
"6. c #8F8FD3D33E3E",
"7. c #864DBD7A43C8",
"8. c #83BCB35B4D6B",
"9. c #8988B9DC4EBF",
"0. c #88D7B2935705",
"q. c #8AF8BC0550CE",
"w. c #8A2FB3EC585E",
"e. c #9848BBD36DBF",
"r. c #993EBC107024",
"t. c #9973BE277014",
"y. c #9A63BD3571DA",
"u. c #A8A0AEDB6771",
"i. c #8AD6C5CB43C8",
"p. c #8A8ACBCB4141",
"a. c #9300D6FF4100",
"s. c #9797D6D64B4B",
"d. c #9A9AD9D94F4F",
"f. c #9C47CC7554DA",
"g. c #981FC64E5B71",
"h. c #9A9AD7D75151",
"j. c #9ADED24B55D3",
"k. c #9E9EDBDB5555",
"l. c #9A9DCB4061C1",
"z. c #D772809A809A",
"x. c #D87F84278427",
"c. c #DB038B728B72",
"v. c #DBCA8EC28EC2",
"b. c #DD58936D936D",
"n. c #DA8B981793C7",
"m. c #DE1994EB94EB",
"M. c #DF0D985E985E",
"N. c #E0489C349C34",
"B. c #E1469F7E9F7E",
"V. c #E1D3A177A177",
"C. c #E43AA800A800",
"Z. c #E478A9B6A9B6",
"A. c #E592ACA9ACA9",
"S. c #E6A4B010B010",
"D. c #E707B17DB17D",
"F. c #E89FB6C1B6C1",
"G. c #EA07BA9EBA9E",
"H. c #EB8BBFCDBFCD",
"J. c #B092D247818F",
"K. c #B42BD3168BAD",
"L. c #B634CE3D9803",
"P. c #B6C3CE3D9893",
"I. c #B820D08298AE",
"U. c #C000E6FF9100",
"Y. c #BC46D041A2BD",
"T. c #C1C1E7E79494",
"R. c #C4C4E8E89797",
"E. c #C0D4D110AEA3",
"W. c #C620D44BB54A",
"Q. c #C66BD44BB62D",
"!. c #CACAE9E9A7A7",
"~. c #CECEEAEAADAD",
"^. c #D0D0EDEDADAD",
"/. c #CE48DA1AC0A3",
"(. c #CF31DA67C18C",
"). c #EC4AC1C6C1C6",
"_. c #E9B5C66EC236",
"`. c #ED00C4B0C4B0",
"'. c #EE5AC7EAC7EA",
"]. c #EF03CA45CA45",
"[. c #EC10CFF8CE45",
"{. c #EFC1CD12CD12",
"}. c #F212D3D8D3D8",
"|. c #F358D837D837",
" X c #F3EFD9C7D9C7",
".X c #F508DDFEDDFE",
"XX c #DCDCF1F1C3C3",
"oX c #DAECE061D3BC",
"OX c #EB7CE284E02D",
"+X c #E5E5F3F3D5D5",
"@X c #EBEBF7F7DEDE",
"#X c #EC58EFD6E82F",
"$X c #F6E7E39EE39E",
"%X c #F852E828E828",
"&X c #F8F3E9B5E9B5",
"*X c #FADAEFE8EFE8",
"=X c #EFFFF8FFE5FF",
"-X c #EEF1F11BECEB",
";X c #EFEAF23BED11",
":X c #EFD7F1F6EDEC",
">X c #F056F177EF20",
",X c #F3F3FAFAEBEB",
"<X c #F5F5FAFAEDED",
"1X c #F3CEF4B3F29A",
"2X c #F507F773F21A",
"3X c #F54EF7E4F228",
"4X c #F66EF863F416",
"5X c #F7B4F829F6F5",
"6X c #F7F7F7F6F7F6",
"7X c #FB2EF0EAF0EA",
"8X c #FC76F4BFF4BF",
"9X c #FD61F7A9F7A9",
"0X c #F7D0F87BF735",
"qX c #F962FA0AF863",
"wX c #FA74FC6FF816",
"eX c #F9F9FCFCF4F4",
"rX c #F9F9FCFCF6F6",
"tX c #F8F8F8F7F8F7",
"yX c #FAD1FC46F905",
"uX c #FE81FB45FB45",
"iX c #FADDFCD0F8A7",
"pX c #FBFBFDFDF8F8",
"aX c #FC55FD04FB79",
"sX c #FEFEFEFDFF01",
"dX c #FFFFFFFEFFFE",
/* pixels */
"dXdXdXdXdXdXdXdXdXdXdXdXdXdXdXdXdXdXdXdXdXdXdXdXdXdXdXdXdXdXdXdX",
"dXdXdXdXdXdXdXdXdXdXdXdXdXdXdXdXdXdXdXdXdXdXdXdXdXdXdXdXdXdXdXdX",
"dXdXdXdXdXdXdXdXdXdXdXdXdXdXdXdXdXdXdXdXdXdXdXdXdXdXdXdXdXdXdXdX",
"dXdXdXdXdXdXdXdXdXdXdXdXdXdXdXdXdXdXdXdXdXdXdXdXdXdXdXdXdXdXdXdX",
"dXdXdXdXdXdXdXdXdXdXdXdXdXdXdXdXdXdXdXdXdXdXdXdXdXdXdXdXdXdXdXdX",
"dXdXdXdXdXdXdX.XM.p i c. XdXdXdXdXdX$XM.$XdXdXdXdXdXdXdXdXdXdXdX",
"dXdXdXdXdXuXD.y 3 $   O 0 }.dXdX8XS.7 + p 7XdXdXdXdXdXdXdXdXdXdX",
"dXdXdXdXdXuX].].{.C.2 O O s uX|.c.0 O O & M.dXdXdXdXdXdXdXdXdXdX",
"dXdXdXdXdXdXdXdXdXdXm.O O , b.t b.'.2 X O : '.dXdXdXdXdXdXdXdXdX",
"dXdXdXdXdXdXdXdXdXdXG.* O $ d c.S.dXV.& X O e $XdXdXdXdXdXdXdXdX",
"dXdXdXdXdXdXdXdXdXdXH.= O * '.S.Z.dX9Xa O O O s 9XdXdXdXdXdXdXdX",
"dXdXdXdXdXdXdXdXdX7Xz.$   * '.Z.Z.dXdX.Xq X * a 9XdXdXdXdXdXdXdX",
"dXdXdXdXdXdXdXdX Xx.u & O * '.S.S.dXdXdXm.3 M.7XdXdXdXdXdXdXdXdX",
"dXdXdXdXdXdXdXG.p H.H.= O * '.S.Z.dXuXD.z.'.dXdXdXdXdXdXdXdXdXdX",
"dXdXdXdXdX*Xv.; : S.H.=   * ].S.S.%Xd 6 G.dXdXdXdXdXdXdXdXdXdXdX",
"dXdXdXdXdX&Xi % X ; y & O * '.S.d y + O 6 D.dXdXdXdXdXdXdXdXdXdX",
"dXdXdXdXdXdX*XN.>   O O O * '.C.3 > O O   : D.dXdXdXdXdXdXdXdXdX",
"dXdXdXdXdXdXdXdXF.< O O O & '.A.M.{.z.= O o 5 [.1X0XaXdXdXdXdXdX",
"dXdXdXdXdXdXdXdXdXZ.* O O * '.S.S.dXuXb.@ 1 8 u.J.K.I.oXtXdXdXdX",
"dXdXdXdXdXdXdXdXdX7Xu O O * '.S.Z.dXdXOX9 f.>.=.@.=.;.j.Y.>XdXdX",
"dXdXdXdXdXdXdXdXdXdXV.O O & '.S.S.dXuXP.4.*.] ] ] ~ a.k.3.P.tXdX",
"dXdXdXdXdXdXdXdXdXdXS.& O & F.V.S.dXQ.<.@.} ..} ~ ,.<XU.Q 1.(.dX",
"dXdXdXdXdXdXdXdX}.z., O O + : > i _.g.#.} @...} ' R.rXU ] &.l.aX",
"dXdXdXdXdXdX9XM., X   X   X X O X - A ] ..} } ~ 5.,Xd.' ..{ i.1X",
"dXdXdXdXdX*Xd & = 3 w e 0 : + X O . f @.} ' ' } ^.XX*.] } ..I #X",
"dXdXdXdXuXB.i m.).|.&X*X$X].m.7 + # L Y :.T.s.6.rXh.E ] E ( 7.3X",
"dXdXdXdXuX&X8XdXdXdXdXdXdXdXdX$Xx.n.9.m z ~.rX@X!./ T / ^ m q.rX",
"dXdXdXdXdXdXdXdXdXdXdXdXdXdXdXdXdXdXE.k m g +X=Xp.z m m ) h E.dX",
"dXdXdXdXdXdXdXdXdXdXdXdXdXdXdXdXdXdX0Xt.n V K 2.l V H H v e.5XdX",
"dXdXdXdXdXdXdXdXdXdXdXdXdXdXdXdXdXdXdX-Xy.Z S D J F b k r.>XdXdX",
"dXdXdXdXdXdXdXdXdXdXdXdXdXdXdXdXdXdXdXdX5XW.0.8.P -.0.W.5XdXdXdX",
"dXdXdXdXdXdXdXdXdXdXdXdXdXdXdXdXdXdXdXdXdXdXaX0X;X3XtXdXdXdXdXdX"
};
