/* XPM */
static char *roxterm[] = {
/* columns rows colors chars-per-pixel */
"32 32 232 2 ",
"   c #010101010101",
".  c #045006E7012B",
"X  c #03DF05D301AA",
"o  c #0C0C0C0C0C0C",
"O  c #0F0F13130A0A",
"+  c gray7",
"@  c #19191A1A1717",
"#  c gray11",
"$  c #1A1A25250A0A",
"%  c #252532321212",
"&  c #232323232323",
"*  c #2A2A2C2C2727",
"=  c #29D029D029D0",
"-  c gray17",
";  c #2D2D31312828",
":  c #343434343434",
">  c #373738383636",
",  c #39633A983841",
"<  c gray23",
"1  c #2F2F47470C0C",
"2  c #373755550E0E",
"3  c #2E2E41411313",
"4  c #303043431616",
"5  c #369144712653",
"6  c #3B3B48482929",
"7  c #3F3F52522424",
"8  c #41415C5C1B1B",
"9  c #454567671414",
"0  c #474766661B1B",
"q  c #495E731B178D",
"w  c #4E4E70701E1E",
"e  c #404052522525",
"r  c #424E493338F8",
"t  c #4C4C5E5E3232",
"y  c #4AB46D86229B",
"u  c #535375752323",
"i  c #575768683F3F",
"p  c #43FC462842E5",
"a  c gray27",
"s  c #49494B4B4646",
"d  c #474747474848",
"f  c gray29",
"g  c gray33",
"h  c #57335AB2530A",
"j  c #5B5B5B5B5B5B",
"k  c #575768684040",
"l  c #63C177BD49AA",
"z  c #60CA63725DC7",
"x  c #62DD63C361AB",
"c  c gray39",
"v  c #641564C26322",
"b  c #6D6D6D6D6D6D",
"n  c #75E57B116E6C",
"m  c #727272727272",
"M  c #742F75297529",
"N  c #777778787878",
"B  c #7E7E7E7E7E7E",
"V  c #4D4D8A8A0404",
"C  c #58589E9E0505",
"Z  c #536883071D17",
"A  c #585883831C1C",
"S  c #58258C591CB6",
"D  c #5C879AD410F0",
"F  c #5ED4964B1CB9",
"G  c #666698981E1E",
"H  c #5F5FABAB0707",
"J  c #5F95A8200B47",
"K  c #5B45B7440046",
"L  c #6112AC2C0C17",
"P  c #6363B7B70404",
"I  c #6363BABA0101",
"U  c #6565BFBF0000",
"Y  c #6868BBBB0707",
"T  c #6262B1B10909",
"R  c #6363B1B10F0F",
"E  c #6565B4B40D0D",
"W  c #6868BCBC0808",
"Q  c #6868BCBC0909",
"!  c #6868BDBD0B0B",
"~  c #6A6ABEBE0A0A",
"^  c #6868BBBB0E0E",
"/  c #6868BABA0F0F",
"(  c #61BFAA491163",
")  c #6F6FAFAF1515",
"_  c #6A6AA1A11B1B",
"`  c #68D4A64C1D3C",
"'  c #6565B2B21111",
"]  c #6565B5B51010",
"[  c #6767B7B71515",
"{  c #69FFBCFF1100",
"}  c #6969BCBC1212",
"|  c #6A6AB9B91717",
" . c #6CA3BDA314A4",
".. c #7A7ABEBE1717",
"X. c #5AA38BBE22D4",
"o. c #61618F8F2020",
"O. c #607E8A3B2EAD",
"+. c #6D40A46E2ABB",
"@. c #7474AEAE2121",
"#. c #75F7A8003CE2",
"$. c #6A6AC6C60000",
"%. c #6D6DC4C40303",
"&. c #6B6BC1C10707",
"*. c #6C6CC1C10606",
"=. c #6F6FC7C70606",
"-. c #6F6FC7C70707",
";. c #6B6BC8C80000",
":. c #6D6DC8C80000",
">. c #6F6FC9C90202",
",. c #6B6BC3C30909",
"<. c #6E6EC2C20B0B",
"1. c #6E6EC6C60808",
"2. c #6969C0C00F0F",
"3. c #6FF4C9F302F5",
"4. c #7070C9C90404",
"5. c #7070CACA0404",
"6. c #709ACA9A049B",
"7. c #7171CACA0707",
"8. c #7272CBCB0707",
"9. c #71EECAED07EF",
"0. c #7272CAD50802",
"q. c #7272CBCB0808",
"w. c #7373CBCB0808",
"e. c #72F4CAF308F5",
"r. c #7272CBCB0909",
"t. c #7373CBCB0909",
"y. c #7373CACA0B0B",
"u. c #73F4CBF309F5",
"i. c #7575CBCB0B0B",
"p. c #7575CBCB0E0E",
"a. c #7676CBCB0F0F",
"s. c #7575CCCC0C0C",
"d. c #7575CCCC0D0D",
"f. c #7777CCCC1111",
"g. c #7C7CC2C21818",
"h. c #7C7CCECE1818",
"j. c #7E8D8CB96DB9",
"k. c #8423BF193D16",
"l. c #8888D7D71717",
"z. c #8787D3D31B1B",
"x. c #8F8FE3E31818",
"c. c #9191E4E41B1B",
"v. c #9494EBEB1818",
"b. c #9999F3F31919",
"n. c #9E9EFBFB1818",
"m. c #A0A0FFFF1919",
"M. c #8383CFCF2525",
"N. c #8383CFCF2929",
"B. c #8787D0D02C2C",
"V. c #88F4D2F32EF5",
"C. c #8793CDDF339C",
"Z. c #8A81CDDF368A",
"A. c #865FC1543E90",
"S. c #8787C8C83F3F",
"D. c #8B8BD0D03535",
"F. c #8C8CD0D03636",
"G. c #8D8DD4D43737",
"H. c #8F8FD3D33E3E",
"J. c #870EA9E05DF4",
"K. c #850E9D716454",
"L. c #850E9D71659C",
"P. c #83C287297F9A",
"I. c #89DDAE92607E",
"U. c #8E6CAD5765EE",
"Y. c #8FC2AEF36789",
"T. c #8945A14F6B15",
"R. c #9509B79B66E3",
"E. c #8A8ACBCB4141",
"W. c #939FCB154E84",
"Q. c #929AD69A409B",
"!. c #9797D6D64B4B",
"~. c #9A9AD9D94F4F",
"^. c #9895CE115675",
"/. c #9381C4245947",
"(. c #96C9C76C5DEE",
"). c #9A9AD7D75151",
"_. c #9E9EDBDB5555",
"`. c gray52",
"'. c gray55",
"]. c #939393939393",
"[. c #965C965C965C",
"{. c #9A9A9A9A9A9A",
"}. c #9D65AE0F8B18",
"|. c #A158B55487D0",
" X c gray64",
".X c #A741A741A741",
"XX c #ACACACACACAC",
"oX c #B197B30DAFCC",
"OX c #B566B756B316",
"+X c #B4B4B4B4B4B4",
"@X c #B82BBA7DB553",
"#X c #B854BA58B608",
"$X c #BBBBBBBBBBBB",
"%X c #BE63BE63BE63",
"&X c #AEC1C63C9091",
"*X c #BFF3E6F390F4",
"=X c #C1C1E7E79494",
"-X c #C4C4E8E89797",
";X c #C1ABCD7DB407",
":X c #C6C8D1FFB924",
">X c #CACAE9E9A7A7",
",X c #CECEEAEAADAD",
"<X c #D0D0EDEDADAD",
"1X c #BFBFBFBFC0C0",
"2X c #C3C3C3C3C3C3",
"3X c #C7C7C7C7C8C8",
"4X c #CAFECAFECB05",
"5X c #CBCBCBCBCBCB",
"6X c #CE3AD036CBDD",
"7X c #D3FAD4A7D360",
"8X c #D5D5D5D5D5D5",
"9X c #DADADADADADA",
"0X c #DCDCF1F1C3C3",
"qX c #DF0BE12CDD22",
"wX c #DF8AE0ADDE56",
"eX c #E074E1EADEAA",
"rX c #E5E5F3F3D5D5",
"tX c #EBEBF7F7DEDE",
"yX c #E43AE6C3E107",
"uX c #E4E4E4E4E4E4",
"iX c #E94CEB40E707",
"pX c #ED41ED41ED41",
"aX c gray93",
"sX c #EFEDF8EDE5ED",
"dX c #F3F3FAFAEBEB",
"fX c #F5F5FAFAEDED",
"gX c #F3F3F3F3F3F3",
"hX c #F9F9FCFCF4F4",
"jX c #F9F9FCFCF6F6",
"kX c #FBFBFDFDF8F8",
"lX c #FEFEFEFEFEFE",
"zX c None",
/* pixels */
"2X  + # # # # # # # # # & # & # & # & & & & & & & & & & & &   `.",
"B b gXgXgXgXgXgXgXgXgXgXgXgXgXgXgXgXgXgXgXgXgXgXaXgXgXgXgXgX+X  ",
"B {.lXlXlXlXlXgXlXgXgXlXgXgXgXgXgXgXgXgXgXgXgXgXgXgXgXgXgXgX8X  ",
"B {.gX$Xa f f g j j c c b m N N B B `.'.'.].{.{.{. X XXX5XgX8X  ",
"B {.lX$X    o + # 0 & * - : < a d f f j j c c b m N B `.3XaX9X  ",
"`. XgX$X    o + 4 c.4 - - : < < a f g g j c c b m N B `.5XaX9X  ",
"B  XlX$X    O ) v.m.b.z.- : > < a f f g j c c b m N N `.5XaXuX  ",
"B  XgX2X    2 n...c.w G - : > a a d g g g g f a : - & # XXaXuX  ",
"B  XgX2X    1 n.x.b.A 4 * : : < < a < & o o             XXaXuX  ",
"B XXgX5X    o A l.n.n.v.6 : : - # o                     +XaXuX  ",
"`.XXgX5X    $ % % c._ m.u & o                           +XaXuX  ",
"B XXgX5X  o 9 x.g.b.x.b.3 o o o o o + o o o o + o + o   +XaXuX  ",
"B XXgX5X  # * o.@.b.G 8 # @ # # # # # # # # # # # # # o $XaXuX  ",
"B +XgX8X  * - : > c.* * ; e 7 7 7 e - * - - - - : - * + $XaXaX  ",
"B +XgX8Xo : > > > t > > t c.c.c.c.c.< < < < < < > < < + $XaXuX  ",
"B +XaX8Xo a a a a a a a s i k k k k d a d d d f d d a # 2XaXaX  ",
"`.+XgX9Xo g g g g g g g g g g g g g g g g j g j g j g # 5XaXaX  ",
"B +XgX9Xo c j c c j c c c c c c c c c c c c x x x v v & 2XpXaX  ",
"B $XgX9Xo b b b b b b m b m m m m m N m M n K.U.R.U.L.r 1XaXgX  ",
"B $XaXuX  < < < < < < < < < < < < < < < l ^.B.h.d.h.M.W.|.9XgX  ",
"B $XaXaX'.].'.].].].].].{.].{.{.{.{.[.T.G.d.8.8.8.>.Q._.G.&XaX  ",
"`.$XaXgXaXaXgXaXaXgXaXgXaXaXgXaXpXgX;XC.i.0.0.i.>.V.fX*X;.C.:X  ",
"`.$XaXaXaXaXaXaXaXuXaXaXuXaXaXaXaXiX/.d.0.0.0.8.>.-XjX$.0.a.(.X ",
"B  XaXaXaXuXaXaXaXaXaXaXaXaXaXaXaXeXA.w.i.8.0.3.G.dX~.>.i.8.k.X ",
"'.* m `.`.`.`.`.`.`.'.`.'.`.'.'.'.P.` 0.0.-.>.0.<X0Xf.8.0.0.D h ",
"zX{.{.{.{.{.{.{.{.{.{.o d g g j c z F =.N.*X!.H.kX).=.=.=.1.+.zX",
"zXzXzXzXzXzXzXzXzXzXzX+ '.XX$X$X$X#X#.Q U ,XhXtX>X<.&.<.,.W C zX",
"zXzXzXzXzXzXzXzXaXm N f 5X5X5X5X5X5X}.L ! K rXsXE.I W W 2.H zXzX",
"zXzXzXzXlXlXlX+Xd ].3X9X8X9X9X9X7X9X7XI.E ^  .E.P ^ } } T V zXzX",
"lXlXgX9X5XXX'.a < d d d d d s d d d d p y ( ' E | [ R J J.wXgXlX",
"lXuX5X$X X'.B c d < : - - & # # # & & & - 5 q Z S X.O.j..X2X9XgX",
"zXzXzXgXaXuX8X5X%X$XXXXX X X X{.{.{.{. X XXXoXOX#X6XeXuXgXlXzXzX"
};
