/* XPM */
static char *scribus[] = {
/* columns rows colors chars-per-pixel */
"32 32 245 2 ",
"   c #2D2D30303232",
".  c #343437373838",
"X  c #44A4785A3764",
"o  c #1BC64DCE6DC3",
"O  c #1B9C4F4F7070",
"+  c #1A1A5151741E",
"@  c #1D1D55D67AFB",
"#  c #2A304FC96386",
"$  c #21A24E4E69EA",
"%  c #29C9503D6510",
"&  c #23F050EE6C44",
"*  c #3BBC59AF6C97",
"=  c #232355557474",
"-  c #282855557171",
";  c #33DE5B0574CA",
":  c #36FB62F579B6",
">  c #393960607878",
",  c gray26",
"<  c #4E4E4C4C4949",
"1  c #595950504040",
"2  c #494951515555",
"3  c gray33",
"4  c #595959AF5A04",
"5  c #6F6F63634B4B",
"6  c #45C6595964E5",
"7  c #48C95ADB6666",
"8  c #449A5C066BC1",
"9  c #565663636B6B",
"0  c #5B5B72726E6E",
"q  c #44446E6E7F7F",
"w  c #556E76C67C7F",
"e  c #650F65656565",
"r  c #727279796464",
"t  c #71C771717171",
"y  c gray47",
"u  c #9A9A77773737",
"i  c #909071713838",
"p  c #8A8A73734141",
"a  c #4CF78A8A03AE",
"s  c #50508E8E0606",
"d  c #525294940707",
"f  c #58589E9E0505",
"g  c #575798980D0D",
"h  c #585898980F0F",
"j  c #5DDEA7A70687",
"k  c #5F5FABAB0707",
"l  c #5FD3ABA40C03",
"z  c #5B6EB7A000C0",
"x  c #6161ACAC0606",
"c  c #63E4B5340505",
"v  c #6464BD3D0081",
"b  c #6868BBBB0707",
"n  c #63B9B2B20C62",
"m  c #68BEBCBC0B36",
"M  c #61C8AABF1218",
"N  c #6610B55F1212",
"B  c #6A5DBC26136F",
"V  c #6B6BB2B21818",
"C  c #673CAC2B27D8",
"Z  c #6E10AE3B2E71",
"A  c #6698A89235AE",
"S  c #7AA1ACDC3F72",
"D  c #6D6DC57C052A",
"F  c #6E65C9650170",
"G  c #6C6CC3830ACB",
"H  c #7114CAAB05AC",
"J  c #736FCB760970",
"K  c #7777CCCC1111",
"L  c #7C7CCECE1818",
"P  c #5C5E9623551F",
"I  c #7D1698BB5CB9",
"U  c #6450A3834079",
"Y  c #5990889E61A2",
"T  c #7C9EA5D964BA",
"R  c #7160A11077F6",
"E  c #8383CFCF2525",
"W  c #8383CFCF2929",
"Q  c #8787D0D02C2C",
"!  c #8853D2922EBC",
"~  c #8606CBF230FB",
"^  c #8787C8C83F3F",
"/  c #8C8CD2273636",
"(  c #8F8FD3D33E3E",
")  c #9E9E82824C4C",
"_  c #934587F75B13",
"`  c #8D7F9DC056D8",
"'  c #902F9A4B595F",
"]  c #AEAE8F8F4F4F",
"[  c #ADAD90905454",
"{  c #A2A28F8F6363",
"}  c #AC8593F162C8",
"|  c #A42392926CED",
" . c #AEC499496D5A",
".. c #85AEAF3662CB",
"X. c #A008A425765C",
"o. c #C2C2A8A86C6C",
"O. c #C3C3ADAD7D7D",
"+. c #8A8ACBCB4141",
"@. c #9249D69040BF",
"#. c #9797D6D64B4B",
"$. c #9A9AD9D94F4F",
"%. c #9521CEBA53A3",
"&. c #9A71CFCC57A0",
"*. c #9A9AD7D75151",
"=. c #9E9EDBDB5555",
"-. c #26265D5D8181",
";. c #2DAE62E28403",
":. c #26CC65838A5D",
">. c #2F2F66668989",
",. c #3373642482C2",
"<. c #3A1F66D382EA",
"1. c #338969BF8BE1",
"2. c #2A2A6AEA9413",
"3. c #24246C6C9A9A",
"4. c #2C2C6E6E9898",
"5. c #30B16D6D9413",
"6. c #272770709D9D",
"7. c #3C3C76369A9A",
"8. c #3EBF79799F1F",
"9. c #20206E6EA0A0",
"0. c #25257171A1A1",
"q. c #240A7643AA43",
"w. c #25E67979AE6E",
"e. c #2B6B7A1AABAB",
"r. c #348A7979A54F",
"t. c #3BE67C7CA54F",
"y. c #31B27BFCAAAA",
"u. c #38387F7FACAC",
"i. c #25D07C7CB308",
"p. c #29967E43B479",
"a. c #30307F7FB2B2",
"s. c #42426E6E8A8A",
"d. c #404077779B9B",
"f. c #72727D7D8585",
"g. c #40EB7DA8A4CF",
"h. c #3B3E81C3ADF9",
"j. c #2DC081CAB6B6",
"k. c #3278823CB4B4",
"l. c #3C3C85B0B388",
"z. c #32B38484B8F8",
"x. c #3C898A8ABC08",
"c. c #4F3489179D2A",
"v. c #67BD972A87AD",
"b. c #64C29994808E",
"n. c #4AA081D7A4FA",
"m. c #440B84BDADE6",
"M. c #4B8B8686AD6D",
"N. c #4B4B8C8CAFAF",
"B. c #50508686A7A7",
"V. c #5B5B8D8DADAD",
"C. c #40408686B3B3",
"Z. c #41C28909B5B5",
"A. c #4CCD8C8CB4B4",
"S. c #42428CDBBC59",
"D. c #49168E5BBA53",
"F. c #53138E8EB474",
"G. c #52528F8FB8B8",
"H. c #54FF90E6B660",
"J. c #5C069292B50A",
"K. c #53A29358BBCF",
"L. c #5C3A961EBC55",
"P. c #5D5D9898BEBE",
"I. c #70709B9BA6A6",
"U. c #72729696AEAE",
"Y. c #79799898ADAD",
"T. c #62629898B5B5",
"R. c #60E19797BCBC",
"E. c #63EF9A77BE1A",
"W. c #6AEB9DF3BF14",
"Q. c #6E6EA0A0BFBF",
"!. c #76AEA2EFBDBF",
"~. c #7ED9AA31BE63",
"^. c #51B19777C3C3",
"/. c #530A98E1C4E9",
"(. c #5D5D9E9EC7C7",
"). c #61219C5CC181",
"_. c #6B1E9EB8C141",
"`. c #6D17A1CCC318",
"'. c #628AA218C9DD",
"]. c #6CEDA7A7CE4E",
"[. c #73A6A4CBC477",
"{. c #7A24A751C46E",
"}. c #7C3FA9DAC6BA",
"|. c #719CAB40CF0E",
" X c #7DB6AB72C8E5",
".X c #75F6ADADD151",
"XX c #8C8C8B8B8A8A",
"oX c #8A8A9C9C9E9E",
"OX c #909090909090",
"+X c #969697979898",
"@X c #B8B8ADAD8C8C",
"#X c #8B8BA0A0ACAC",
"$X c #9494ADADADAD",
"%X c #82DAA7E6B459",
"&X c #A54FA54FA4A4",
"*X c #ACACADADAEAE",
"=X c #ADADBABAA6A6",
"-X c #A0DCB1A1AEBE",
";X c #AEAEB1B1B3B3",
":X c #B433B3B3B3B3",
">X c #CECEBCBC8686",
",X c #CDCDBABA8B8B",
"<X c #D3D3BDBD8484",
"1X c #C921BF5DA213",
"2X c #BF49E69090BE",
"3X c #AD02C076ADA8",
"4X c #AFAFC1C1B2B2",
"5X c #C1C1E7E79494",
"6X c #C4C4E8E89797",
"7X c #C6C6C6C6A4A4",
"8X c #C1C1C6C6B4B4",
"9X c #D4D4D0D0B5B5",
"0X c #E2E2D3D3A4A4",
"qX c #CACAE9E9A7A7",
"wX c #CECEEAEAADAD",
"eX c #D0D0EDEDADAD",
"rX c #80E6ACFAC67B",
"tX c #8327AE54C9C8",
"yX c #8B8BB0B0C6C6",
"uX c #86B1B0B0CA74",
"iX c #8BF9B36ACCF1",
"pX c #9595B6B6C6C6",
"aX c #9090B5B5CFCF",
"sX c #8462B660D55D",
"dX c #8888B8B8D7D7",
"fX c #9595BA0FD1D1",
"gX c #9CF2BE3ED453",
"hX c #9330BF84DAC6",
"jX c #A9A9BFBFC4C4",
"kX c #B5B5C4C4CECE",
"lX c #A6A6C4C4D8D8",
"zX c #AAAAC7C7D9D9",
"xX c #A4F3C9DDE157",
"cX c #B68BD454E6BB",
"vX c #C7C7C6C6C5C5",
"bX c #D0D0CFCFCFCF",
"nX c #DCDCF1F1C3C3",
"mX c #E5E5F3F3D5D5",
"MX c #EBEBF7F7DEDE",
"NX c #C5C5DD5DEC96",
"BX c #EF3BF875E599",
"VX c #F4F4FAFAECEC",
"CX c #F9F9FCFCF5F5",
"ZX c #FBFBFDFDF8F8",
"AX c None",
/* pixels */
"AXAXAXAXAXAXAXAXAXAXAXAXAXAXAXAXAXAXAXAXAXAXAXAXAXAXAXAXAXAXAXAX",
"AXAXAXAXAXAXAXAXAXAXAXAXAXAXAXAXAXAXAXAXAXAXAXAXAXAXAXAXAXAXAXAX",
"AXAXAXAXAXAXAXAXAXAXAXAXx./.]..X.X]./.x.AXAXAXAXAXAXAXAXAXAXAXAX",
"AXAXAXAXAXAXAXAXAXz.(.dXcXNXNXNXNXNXNXcXdXR.f.AXAXAXAXAXAXAXAXAX",
"AXAXAXAXAXAXAXAXx..XxXcXcXcXcXcXcXcXcXcXcXzX:X+XAXAXAXAXAXAXAXAX",
"AXAXAXAXAXAXi.j.sXxXxXxXxXxXxXxXxXxXxXxXxXkXbX&X. AXAXAXAXAXAXAX",
"AXAXAXAXAXw.p.'.hXhXhXhXhXhXhXhXhXhXhXhXhXjXvX&Xe   AXAXAXAXAXAX",
"AXAXAXAXAXi.x..XsXsXsXsXsXsXsXsXsXsXsXsXsX;X:XXXy , 2 AXAXAXAXAX",
"AXAXAXAXq.i.^.].].|.|.|..X|.|.|.|.|.|.|.#X*XOXt t 4 <.i.AXAXAXAX",
"AXAXAX9.q.w.a.(.'.'.'.'.'.).'.'.'.'.'.'.U.&Xt e e 9 y.i.q.AXAXAX",
"AXAXAXy.e.q.a.D.^.^.^.^././.^.^././././.Y.XX4 3 4 s.p.p.q.AXAXAX",
"AXAXg.G.Z.e.w.a.z.^.x.x.x.x.x.^.x.S.S.S.oX@X5 < 7 y.p.p.3.AXAXAX",
"AXAXg.L.L.D.y.q.w.a.a.a.a.z.z.a.z.z.z.z.4X<Xi 1 1.p.p.3.@ @ AXAX",
"AXAXm.L.L.(.^.u.w.q.w.e.p.p.p.p.p.p.p.A.7X] p q j.p.0.+ o O AXAX",
"AXAXM.L.L.L.).L.C.e.q.w.i.i.i.p.p.p.p.I.>Xu r e.j.i.@ o o o AXAX",
"AXAXM.R.R.R.R.).).A.e.q.w.a.a.a.k.k.l.=Xo.) 0 j.j.0.o o o O AXAX",
"AXAXB.R.E.E._.W._.W.L.l.h.l.Z.S.S.S.T.0X[ { s.k.2.$ & & - = AXAX",
"AXAXM.E._._._._._.[.[.`.K.A.H.K.K.K.$X,X} | w <.# # & 1.2.2.AXAX",
"AXAX4.l.F.R._._.[.{.tX}.}.P.P.P.(.E.8XO. ._ I T ..T R c.h.6.AXAX",
"AXAX-.t.u.h.m.F._.{.uXiXaXiX[.`.`.}.9X} ' &.Q L J L E %.b.:.AXAX",
"AXAX-.r.m.m.m.M.H.R.{.iXfXgXfX X}.pX7X` / J H H H F ( =./ Y AXAX",
"AXAXAX4.m.A.A.N.L.T.W.[.uXgXlXgXuXkXX.~ J J J J F ! VX2XF ~ AXAX",
"AXAXAX;.m.G.G.H.R.W.W.[. XuXgXzXfX=XS K J J H H H 6XCXF H K V AX",
"AXAXAXAX5.F.H.J.E._.[.{.}.uXiXfXgX-XZ J J J J D / VX$.D J J c AX",
"AXAXAXAX; 7.H.L.E.Q.[.{. XuXuXuXyX%XC J J H F J eXnXK J J H x AX",
"AXAXAXAXAX;.g.L.W.`.[.}. X XuXuXyX~.A D W 5X#.( ZX*.D D H J j AX",
"AXAXAXAXAXAX,.t.R.Q.[.|. X XuXuXtXrXU b v wXCXMXqXG G D G m f AX",
"AXAXAXAXAXAXAX; 7.V.Q.{. X X XuX}.tXv.l m z mXBX+.v b m G k AXAX",
"AXAXAXAXAXAXAXAX* <.8.J.Q.}.}.tX}.}.!.P N B B ^ c m B B x a AXAX",
"AXAXAXAXAXAXAXAXAXAX8 > 1.d.n.M.B.n.7.: X M n N B N n j a AXAXAX",
"AXAXAXAXAXAXAXAXAXAXAXAXAX6 * * * * 6 AXAXAXs h h d s AXAXAXAXAX",
"AXAXAXAXAXAXAXAXAXAXAXAXAXAXAXAXAXAXAXAXAXAXAXAXAXAXAXAXAXAXAXAX"
};
