/* XPM */
static char *sdlbasic[] = {
/* columns rows colors chars-per-pixel */
"32 32 168 2 ",
"   c #333366663333",
".  c #343467673434",
"X  c #37376A6A3333",
"o  c #353568683535",
"O  c #3B3B6E6E3B3B",
"+  c #454578784545",
"@  c #48487B7B4848",
"#  c #4A4A7D7D4A4A",
"$  c #4B4B88880303",
"%  c #4D4D8A8A0404",
"&  c #4D4D8A8A0606",
"*  c #4E4E8C8C0404",
"=  c #50508E8E0606",
"-  c #525294940707",
";  c #58589E9E0505",
":  c #575798980D0D",
">  c #585898980F0F",
",  c #5D5DA7A70707",
"<  c #5E5EA7A70606",
"1  c #5F5FABAB0707",
"2  c #5BCDB8000033",
"3  c #6161ACAC0606",
"4  c #6116ACFE09B2",
"5  c #6363B7B70404",
"6  c #6363BABA0101",
"7  c #6565BFBF0000",
"8  c #6868BBBB0707",
"9  c #6262B1B10909",
"0  c #6363B1B10F0F",
"q  c #6565B4B40D0D",
"w  c #6868BCBC0808",
"e  c #6868BCBC0909",
"r  c #6868BDBD0B0B",
"t  c #6A6ABEBE0A0A",
"y  c #6868BBBB0E0E",
"u  c #6868BABA0F0F",
"i  c #73EABA380DD2",
"p  c #6262ACAC1010",
"a  c #6565B2B21111",
"s  c #6565B5B51010",
"d  c #6767B7B71515",
"f  c #6969BCBC1010",
"g  c #6969BCBC1212",
"h  c #6A6AB9B91717",
"j  c #6C6CBDBD1414",
"k  c #7875BC5F1102",
"l  c #7B0DBC581431",
"z  c #666699993333",
"x  c #7171A4A43333",
"c  c #7979ACAC3333",
"v  c #6A6AC6C60000",
"b  c #6D6DC4C40303",
"n  c #6B6BC1C10707",
"m  c #6C6CC1C10606",
"M  c #6F6FC7C70606",
"N  c #6F6FC7C70707",
"B  c #6B6BC8C80000",
"V  c #6D6DC8C80000",
"C  c #6F87C9D7020E",
"Z  c #6B6BC3C30909",
"A  c #6E6EC2C20B0B",
"S  c #6E6EC6C60808",
"D  c #6969C0C00F0F",
"F  c #7070C9C90404",
"G  c #709FCAE5041C",
"H  c #71AECAED0724",
"J  c #72CDCAFF0733",
"K  c #7272CBCB0707",
"L  c #7281CAD3080F",
"P  c #7272CBCB0808",
"I  c #7373CBCB0808",
"U  c #7272CBCB0909",
"Y  c #738ACBD80914",
"T  c #7373CACA0B0B",
"R  c #7575CBCB0B0B",
"E  c #7575CBCB0E0E",
"W  c #7676CBCB0F0F",
"Q  c #7575CCCC0C0C",
"!  c #7575CCCC0D0D",
"~  c #7E2FC5CB106E",
"^  c #7E2FC5CB112F",
"/  c #7777CCCC1111",
"(  c #7C7CCECE1818",
")  c #4E4E81814E4E",
"_  c #545487875454",
"`  c #59598C8C5959",
"'  c #5C5C8F8F5C5C",
"]  c #5E5E91915E5E",
"[  c #606093936060",
"{  c #666699996666",
"}  c #68689B9B6565",
"|  c #69699C9C6464",
" . c #7272A5A56060",
".. c #83F7BE281A25",
"X. c #88FBC9E11DF7",
"o. c #8383CFCF2525",
"O. c #8A5ACB4020B4",
"+. c #8383CFCF2929",
"@. c #8680CE342E51",
"#. c #8787D0D02C2C",
"$. c #88CDD2FF2E33",
"%. c #9E12D145242B",
"&. c #896ECE34313F",
"*. c #8787C8C83F3F",
"=. c #9C9CCFCF3333",
"-. c #9F84CE3E3D43",
";. c #A013CE3E3DD2",
":. c #8B8BD0D03535",
">. c #8C8CD0D03636",
",. c #8D8DD4D43737",
"<. c #8F8FD3D33E3E",
"1. c #AA8BDA1B31AF",
"2. c #AB74DA683298",
"3. c #A0DCD2A53D37",
"4. c #A5C3D89C3F8B",
"5. c #A68ED97A3FBC",
"6. c #A7A7DADA3E3E",
"7. c #BABAEDED3333",
"8. c #C0B7F17830CA",
"9. c #C46BF4B33512",
"0. c #C66BF87C31A4",
"q. c #C72DF8F831CB",
"w. c #C5C5F8F83737",
"e. c #C945FCD13249",
"r. c #CCCCFFFF3333",
"t. c #C892FA0B3535",
"y. c #CA91FD053446",
"u. c #CACAFDFD3434",
"i. c #8A8ACBCB4141",
"p. c #9696C9C94E4E",
"a. c #92CCD6FF4033",
"s. c #9797D6D64B4B",
"d. c #9942D24B4F66",
"f. c #9A9AD9D94F4F",
"g. c #9A9AD7D75151",
"h. c #9D26D43D5635",
"j. c #9E9EDBDB5555",
"k. c #A4D4CFB44613",
"l. c #A562D042472F",
"z. c #A3A3D6D64747",
"x. c #A6A6D9D94646",
"c. c #A9BEDD5A4157",
"v. c #AA17DDA341B8",
"b. c #ABFFDEFE4307",
"n. c #ACACDFDF4343",
"m. c #A3A3D6D64848",
"M. c #A5A7D0824D82",
"N. c #A5A7D0824ECB",
"B. c #B661E0184148",
"V. c #A684D3175510",
"C. c #A670D33E58C3",
"Z. c #B661E0624192",
"A. c #BFCCE6FF9032",
"S. c #C1C1E7E79494",
"D. c #C4C4E8E89797",
"F. c #CACAE9E9A7A7",
"G. c #CECEEAEAADAD",
"H. c #D0D0EDEDADAD",
"J. c #DCDCF1F1C3C3",
"K. c #E5E5F3F3D5D5",
"L. c #EBEBF7F7DEDE",
"P. c #EFEFF8F8E5E5",
"I. c #F3F3FAFAEBEB",
"U. c #F5F5FAFAEDED",
"Y. c #F9F9FCFCF4F4",
"T. c #F9F9FCFCF6F6",
"R. c #FBFBFDFDF8F8",
"E. c None",
/* pixels */
"E.E.E.E.E.E.E.E.E.E.E.  E.E.E.E.E.E.E.E.E.E.E.E.E.E.E.E.E.E.E.E.",
"E.E.E.E.E.E.E.E.E.      E.E.E.E.E.  E.E.E.E.E.E.E.E.E.E.E.E.E.E.",
"E.E.E.E.E.E.E.          E.E.E.E.E.      E.E.E.E.E.E.E.E.E.E.E.E.",
"E.E.E.E.E.              E.E.E.E.E.          E.E.E.E.E.E.E.E.E.E.",
"E.E.E.o                         E.              E.E.E.E.E.E.E.E.",
"E.E.E.[ @ .                                         E.E.E.E.E.E.",
"E.E.E.{ { [ @ .                                     X c E.E.E.E.",
"E.E.E.{ { { { [ @ .                             X x 7.r.E.E.E.E.",
"E.E.E.` { { { { { [ @ .                     X x 7.r.r.r.E.E.E.E.",
"E.E.    O _ { { { { { [                 X x 7.r.r.r.r.r.E.E.E.E.",
"# .         O _ { { { {             X x 7.r.r.r.r.r.r.r.E.E.E.E.",
"{ [ @ .         O _ { {           z 7.r.r.r.r.r.r.r.r.r.    E.E.",
"{ { { [ @ .         O _           =.r.r.r.r.r.r.r.r.r.r.    X c ",
"{ { { { { [ @ .                   =.r.r.r.r.r.r.r.r.r.r.X x 7.r.",
"{ { { { { { { [ @ .               =.r.r.r.r.r.r.r.r.r.r.7.r.r.r.",
"{ { { { { { { { { [ @ .   + ' ) o =.r.r.r.r.r.r.r.r.r.r.r.r.r.r.",
"{ { { { { { { { { { { [ ] { { { { 6.r.r.r.r.r.r.r.r.r.r.r.r.r.r.",
"{ { { { { { { { { { { { { { { { { n.r.r.r.r.y.t.9.t.y.r.r.r.r.r.",
"{ { { { { { { { { { { { { { { { { n.r.r.q.Z.M.V.C.V.M.Z.q.r.r.r.",
"{ { { { { { { { { { { { { { | { { n.r.8.k.h.#.( Q ( o.d.l.8.r.r.",
"{ { { { { { { { { { { {  .m.m.{ { n.q.-.>.! J J L C a.j.:.-.q.y.",
"{ E.E.{ { { { { { { { { y.r.x.{ { n.1.@.R L I I C $.U.A.B &.1.r.",
"E.E.E.{ { { { { { { { { r.r.x.{ { v.X.E J L I L G D.T.v L E O.r.",
"E.E.E.{ { { { { { { { { r.r.x.{ { 6.^ L L L L C ,.I.f.C L J ^ E.",
"E.E.E.E.E.{ { { { { { { r.r.x.{ { 3.i K L C M L H.J./ L L L 3 E.",
"E.E.E.E.{ { { { { { { { r.r.x.{ { 6.k b +.S.s.<.R.g.M M M S < E.",
"E.E.{ { { { { { { { { { r.r.x.{ { v.l 8 7 G.Y.L.F.A n n Z t ; E.",
"E.E.E.{ { { { { { { { { r.r.x.{ { v.%.4 y 2 K.P.i.6 w t f 1 E.E.",
"E.E.E.E.E.{ { { { { { { r.r.x.{ { n.q...q u j i.6 y g g 9 * E.E.",
"E.E.E.E.E.E.E.{ { { { { r.r.w.p.| n.r.E.& p a s h d 0 < $ E.E.E.",
"E.E.E.E.E.E.E.E.E.{ { { r.r.r.E.E.E.E.E.E.E.= > : - * E.E.E.E.E.",
"E.E.E.E.E.E.E.E.E.E.E.{ r.E.E.E.E.E.E.E.E.E.E.E.E.E.E.E.E.E.E.E."
};
