/* XPM */
static char *seahorse[] = {
/* columns rows colors chars-per-pixel */
"32 32 248 2 ",
"   c #69696B6B6767",
".  c #741975BE7097",
"X  c #78787A7A7575",
"o  c #D0D05E5E0303",
"O  c #D4D463630404",
"+  c #D8D865650303",
"@  c #DADA6A6A0707",
"#  c #D0D062620808",
"$  c #D5D568680B0B",
"%  c #D2D26B6B1212",
"&  c #D9D974741A1A",
"*  c #E3E36F6F0505",
"=  c #E7E772720404",
"-  c #E7E773730808",
";  c #EAEA76760808",
":  c #ECEC79790909",
">  c #F4F47C7C0606",
",  c #F5F57F7F0909",
"<  c #C9C974742D2D",
"1  c #D3D373732222",
"2  c #DCDC7F7F2D2D",
"3  c #D0D07C7C3434",
"4  c #4D0D8A8A0444",
"5  c #4F4F8E8E0808",
"6  c #50508E8E0606",
"7  c #525294940707",
"8  c #58589E9E0505",
"9  c #575798980D0D",
"0  c #585898980F0F",
"q  c #5DDEA7A70687",
"w  c #5F5FABAB0707",
"e  c #5B5BB7B70000",
"r  c #6161ACAC0606",
"t  c #60AAABC70BA2",
"y  c #63E4B5340505",
"u  c #6464BD3D0081",
"i  c #6868BBBB0707",
"p  c #63B9B2B20C62",
"a  c #68BEBCBC0B36",
"s  c #6262ACAC1010",
"d  c #6610B55F1212",
"f  c #6A6ABC3C1353",
"g  c #6B6BB2B21818",
"h  c #7124AEF62534",
"j  c #7875B069359F",
"k  c #6D6DC57C052A",
"l  c #6E6EC9730157",
"z  c #6C6CC3830ACB",
"x  c #7151CACA05E6",
"c  c #7396CB910989",
"v  c #7777CCCC1111",
"b  c #7C7CCECE1818",
"n  c #7BFCA6A645C6",
"m  c #84E2C0173D13",
"M  c #F4F480800909",
"N  c #EAEA80801A1A",
"B  c #DEDE82823030",
"V  c #DADA88883F3F",
"C  c #EAEA8A8A2E2E",
"Z  c #F1F18E8E2B2B",
"A  c #E1E188883636",
"S  c #8383CFCF2525",
"D  c #8403CE4E2BAC",
"F  c #8787D0D02C2C",
"G  c #8888D2D22E2E",
"H  c #8787CCCC3131",
"J  c #8787C8C83F3F",
"K  c #8C8CD2273636",
"L  c #8F8FD3D33E3E",
"P  c #8752B95A4DF0",
"I  c #8505A9295656",
"U  c #8F8FB5B55D5D",
"Y  c #84B391ED7442",
"T  c #A6A68B8B6B6B",
"R  c #D8D88E8E4848",
"E  c #D9D995955B5B",
"W  c #E3E395954444",
"Q  c #F7F79B9B4040",
"!  c #E6E69E9E5858",
"~  c #E6E6A1A14F4F",
"^  c #EEEEADAD4F4F",
"/  c #E9E9A5A55E5E",
"(  c #FAFAB9B95252",
")  c #E6E6A6A66666",
"_  c #E7E7A9A96969",
"`  c #EBEBABAB6969",
"'  c #F3F3AFAF6161",
"]  c #F8F8B2B26262",
"[  c #E4E4AFAF7676",
"{  c #EDEDB4B47575",
"}  c #EDEDBEBE7171",
"|  c #F3F3B9B97474",
" . c #FAFABEBE7777",
".. c #8A8ACBCB4141",
"X. c #9292D6D64040",
"o. c #9797D6D64B4B",
"O. c #9A9AD9D94F4F",
"+. c #92DEC3805852",
"@. c #9797D0D05050",
"#. c #9B1BD5545454",
"$. c #9E9EDBDB5555",
"%. c #99EFC46E61B7",
"&. c #FBFBC6C66262",
"*. c #FBFBC9C96666",
"=. c #FCFCCDCD6B6B",
"-. c #FDFDD5D57676",
";. c #3B3B6B6BA8A8",
":. c #41416F6FAAAA",
">. c #4D4D7B7BB4B4",
",. c #52528181B7B7",
"<. c #58588686BBBB",
"1. c #7F7F9999B6B6",
"2. c #72729494BBBB",
"3. c #62628E8EC1C1",
"4. c #65659191C3C3",
"5. c #6C6C9393C1C1",
"6. c #76769898C3C3",
"7. c #7A7A9E9EC6C6",
"8. c #70709A9ACACA",
"9. c #7A7AA2A2CDCD",
"0. c #7A7AA5A5D1D1",
"q. c #858588888787",
"w. c #8A8A8B8B8686",
"e. c #8D8D8E8E8989",
"r. c #8F8F90908C8C",
"t. c #918B938A8F4E",
"y. c #959597979292",
"u. c #AAAAA0A09292",
"i. c #A2A2A3A39F9F",
"p. c #AE52BFAA9AAB",
"a. c #A2A2A3A3A0A0",
"s. c #A8A8AAAAA6A6",
"d. c #ADADAFAFACAC",
"f. c #AFAFB0B0ADAD",
"g. c #BCBCB5B5A7A7",
"h. c #A4A4AEAEB7B7",
"j. c #B50CB934B157",
"k. c #BBBBBDBDB5B5",
"l. c #BCBCBEBEBABA",
"z. c #CECEADAD8787",
"x. c #D2D2B3B39B9B",
"c. c #E1E1B0B08787",
"v. c #EBEBBABA8888",
"b. c #E1E1B6B69393",
"n. c #E1E1BABA9A9A",
"m. c #C3C3BEBEB1B1",
"M. c #BFBFE6E69090",
"N. c #EFEFC7C78F8F",
"B. c #F5F5C1C18585",
"V. c #FEFEDADA8F8F",
"C. c #EEEEC5C59696",
"Z. c #FBFBCDCD9393",
"A. c #F4F4CECE9B9B",
"S. c #FDFDDDDD9595",
"D. c #F3F3D4D49D9D",
"F. c #C1C1E7E79494",
"G. c #C4C4E8E89797",
"H. c #FDFDE5E58D8D",
"J. c #FCFCE3E39393",
"K. c #FAFAE8E89191",
"L. c #FEFEE3E39D9D",
"P. c #FEFEF2F29C9C",
"I. c #C2C2C0C0B7B7",
"U. c #C2ABC366BE9B",
"Y. c #E2E2CCCCABAB",
"T. c #F0F0CBCBA8A8",
"R. c #F6F6D7D7AFAF",
"E. c #F5F5D8D8AFAF",
"W. c #FAFADDDDAEAE",
"Q. c #CACAE9E9A7A7",
"!. c #CECEEAEAADAD",
"~. c #D0D0EDEDADAD",
"^. c #FDFDE4E4A4A4",
"/. c #FDFDE3E3ACAC",
"(. c #FEFEEAEAAAAA",
"). c #FCFCE3E3BDBD",
"_. c #FEFEEBEBBBBB",
"`. c #FEFEF7F7B5B5",
"'. c #80809F9FC3C3",
"]. c #8888A6A6CACA",
"[. c #8686A8A8CDCD",
"{. c #9393AEAECACA",
"}. c #9F9FB6B6CECE",
"|. c #8C8CAEAED3D3",
" X c #9494B0B0D2D2",
".X c #9E9EBBBBDADA",
"XX c #B1B1BCBCCCCC",
"oX c #ABABC2C2DEDE",
"OX c #BDBDC9C9D3D3",
"+X c #BABACACADBDB",
"@X c #B4B4CCCCE5E5",
"#X c #B9B9CDCDE3E3",
"$X c #BEBED2D2E9E9",
"%X c #C5C5C6C6C3C3",
"&X c #C7C7C9C9C4C4",
"*X c #C9C9CBCBC6C6",
"=X c #CCCCCECEC9C9",
"-X c #D1D1D2D2CECE",
";X c #D469D56AD26C",
":X c #D7B4D981D3B4",
">X c #D8D8D9D9D5D5",
",X c #DCDCDDDDDADA",
"<X c #F5F5DCDCC2C2",
"1X c #DCDCF1F1C3C3",
"2X c #DFDFE0E0DDDD",
"3X c #F7F7E1E1C2C2",
"4X c #FBFBE6E6C7C7",
"5X c #FEFEEDEDC3C3",
"6X c #FDFDE9E9CACA",
"7X c #FEFEF0F0C8C8",
"8X c #E1E1E1E1DFDF",
"9X c #F8F8E7E7D6D6",
"0X c #FCFCEDEDD3D3",
"qX c #FCFCEFEFD9D9",
"wX c #E5E5F3F3D5D5",
"eX c #EBEBF7F7DEDE",
"rX c #FEFEF3F3D3D3",
"tX c #FFFFFAFAD3D3",
"yX c #FEFEF3F3DBDB",
"uX c #CACAD8D8E7E7",
"iX c #C1C1D5D5EAEA",
"pX c #CDCDDCDCECEC",
"aX c #D1D1DFDFEEEE",
"sX c #D4D4E2E2F1F1",
"dX c #DADAE6E6F3F3",
"fX c #DEDEE8E8F3F3",
"gX c #E4E4E5E5E2E2",
"hX c #E7E7E8E8E7E7",
"jX c #E8E8E8E8E6E6",
"kX c #EBEBEBEBEAEA",
"lX c #EFEFF8F8E5E5",
"zX c #EABDF12CEE57",
"xX c #FDFDF5F5E3E3",
"cX c #FFFFFAFAE4E4",
"vX c #F1DCF2A1EF8F",
"bX c #FDFDF7F7E8E8",
"nX c #F4F4FAFAECEC",
"mX c #FFFFF9F9ECEC",
"MX c #E4E4ECECF5F5",
"NX c #EAEAF1F1F7F7",
"BX c #ECECF2F2F9F9",
"VX c #F5F5F5F5F4F4",
"CX c #F9F9F7F7F5F5",
"ZX c #FD2FFC2EF5F5",
"AX c #F2F2F6F6FAFA",
"SX c #F5F5F9F9FCFC",
"DX c #FBFBFD10FCAD",
"FX c None",
/* pixels */
"FXFXFXFXFXFXFXFXFXFXFXFXFXFXFXFXFXFXFXFXFXFXFXFXFXFXFXFXFXFXFXFX",
"FXFXFXFXFXFXFXFXFXFXFXFXFXFXFXFXFXFXFXFXFXFXFXFXFXFX- * * FXFXFX",
"FXFXFXFXFXFXFXFXFX> M > M > FXFXFXFXFXFXFXFX; = C B.4X0X` @ FXFX",
"FXFXFXFXFXFXFX> Q ).yXyX0X .> FXFXFX: : N | ).xX<Xv.! / T.+ FXFX",
"FXFXFXFXFXFX> Z.mX_.^./._.ZXrXZ M ' W.xX9XC._ ~ ^ Z./.S.yX# FXFX",
"FXFXFXFXFX> ] mXS.V.S.L.^.(.7XZXZX9XD.} &.E.xXZXyXqXR.DX{ o FXFX",
"FXFXFXFXFX> 6XZXmXxX5X^.^.K.H.H.K.H._.cXyXqXO V mXB # 2 # FXFXFX",
"FXFXFXFXFXZ CXY.z.{ ZX_.-.-.-.-.P.`.ZX/ 0XA.O O % # FXFXFXFXFXFX",
"FXFXFXFXT A m.=X=Xg.B.bX=.=.=.-.tXDX{ + $ % FXFXFXFXFXFXFXFXFXFX",
"FXFXFXFXu.m.>XhX2X%X[ rX&.=.*.W.bX& < '.7.FXFXFXFXFXFXFXFXFXFXFX",
"FXFXFXt.l.2X8Xk.m.g.<X7X&.( ( bX) n.AXDXNXiX|.0.FXFXFXFXFXFXFXFX",
"FXFXFXj.,XgXm.hX4XbX7XH.=.( /.yX1 MXsXpXaXMXSXDXfXoX0.8.FXFXFXFX",
"FXFXFX*XvX*XR  .ZXrXJ.J.S.yXxXR x.NXSXBXdXpX@X@XpXMXDXAX#X3.FXFX",
"FXFXU.kXgXOXXXB W 6XxXmXmXN.% c.SXNX.XDXSXMXAXBXpX$X@X@XsX|.FXFX",
"FXFX,XVX-XkX{.+Xb.3 o # % E m.5.4.3.<.oXaX<.3.DXSXDXMXMXdX5.FXFX",
"FX=XVXjX&Xt.hX{.9.#XpXpXuX[.].q.FXFXFX<.,.FX>.MX X6.SXSXpX:.FXFX",
"FX,XSXgXFXs.y.>XaX}.7.2.1.h.vXd.FXFXFXFXFXFXFX:.FX;.oX].;.FXFXFX",
"-XkXCXFXk.=X;Xa.r.t.l.DX,X-X=XVXe.FXFXFXFXFXFXFXFXFXFXFXFXFXFXFX",
">XDXvX%X*XkX%XFXFXFXr.%XhXCX%XgX%XFXFXFXFXFXU %.%.%.U FXFXFXFXFX",
">XCX,X=XkX>Xk.FXFXFXFXFXw.CX,Xk.VXy.FXFXI #.F b v b S @.I FXFXFX",
"-XVXgXkX>Xl.FXFXFXFXFXFXy.DXZX-X=X,Xr.n K v x x x l L $.K n FXFX",
"*X>X,X%Xm.FXFXFXFXFXFXFXy.j.d.SXk.VXY D c x c c l G nXM.l H FXFX",
"FX%Xk.k.FXFXFXFXFXFXFXFXFXFXe.gX,XU.+.v x x x c x G.ZXk x v g FX",
"FXFXFXFXFXFXFXFXFXFXFXFXFXFXa.DXkXj.J x c c c l K nXO.x x x y FX",
"FXFXFXFXFXFXFXFXFXFXFXFXFXFXa.,XZX:Xh x c l l x ~.1Xv x x x r FX",
"FXFXFXFXFXFXFXFXFXFXFXFXFXFXFXw.*XzXj z D F.o.L ZX$.l k c z q FX",
"FXFXFXFXFXFXFXFXFXFXFXFXFXFXFXw.kXvXP i k Q.ZXeXQ.z z z z a 8 FX",
"FXFXFXFXFXFXFXFXFXFXFXFXFXFXFXX s.;Xp.t a e wXlX..u i i z r FXFX",
"FXFXFXFXFXFXFXFXFXFXFXFXFXFXFXFXFX  . 5 p f f ..y a f f p 4 FXFX",
"FXFXFXFXFXFXFXFXFXFXFXFXFXFXFXFXFXFXFXFX5 s d p f d p q 4 FXFXFX",
"FXFXFXFXFXFXFXFXFXFXFXFXFXFXFXFXFXFXFXFXFXFX5 0 0 7 4 FXFXFXFXFX",
"FXFXFXFXFXFXFXFXFXFXFXFXFXFXFXFXFXFXFXFXFXFXFXFXFXFXFXFXFXFXFXFX"
};
