/* XPM */
static char *seamonkey_composer[] = {
/* columns rows colors chars-per-pixel */
"32 32 234 2 ",
"   c #001B0029000E",
".  c #1657151405DC",
"X  c #06060F0F1919",
"o  c #0E0E14141A1A",
"O  c #1511151D1505",
"+  c #158217A21398",
"@  c #121218181F1F",
"#  c #25251D1D0B0B",
"$  c #28C821D60EEB",
"%  c #204D2E7A0F79",
"&  c #20992E7A105C",
"*  c #14141C1C2323",
"=  c #12121F1F2B2B",
"-  c #1B1B25252E2E",
";  c #22222F2F3C3C",
":  c #781732C51B56",
">  c #7B7B3B3B1E1E",
",  c #35B659410B2D",
"<  c #3C2165DE0A4F",
"1  c #4E1B403A144A",
"2  c #427873940AAA",
"3  c #4BE17DA90EFA",
"4  c #46EF768E109E",
"5  c #7C126F421295",
"6  c #49465D422F2F",
"7  c #7C7C42422121",
"8  c #7EBC5E302458",
"9  c #58B86F6A21C2",
"0  c #4EAA6624307A",
"q  c #624979383CD9",
"w  c #242433334242",
"e  c #2B2B3C3C4D4D",
"r  c #313142425454",
"t  c #333345455858",
"y  c #35354B4B6363",
"u  c #38384C4C6161",
"i  c #3C3C52526767",
"p  c #3D3D54546B6B",
"a  c #404056566F6F",
"s  c #414158586F6F",
"d  c #44445C5C7676",
"f  c #47475F5F7878",
"g  c #4E4E60607373",
"h  c #4A4A64647E7E",
"j  c #515163637676",
"k  c #555567677B7B",
"l  c #565668687D7D",
"z  c #5A5A6B6B7F7F",
"x  c #ADE749DF2085",
"c  c #B9B94B4B2323",
"v  c #BABA55552525",
"b  c #BCBC5D5D2828",
"n  c #808064642323",
"m  c #810875263CDC",
"M  c #BDBD63632B2B",
"N  c #CACA70702D2D",
"B  c #FFFF7C7C3131",
"V  c #DAEC7EF04023",
"C  c #58589E9E0505",
"Z  c #5FAE95ED093C",
"A  c #5DF6A60906AE",
"S  c #5E35A94E073F",
"D  c #5BEEB7820032",
"F  c #6161ACAC0606",
"G  c #6F69A5160CF4",
"H  c #61E4AB6A09CF",
"J  c #63E4B5340505",
"K  c #6477BD2200C3",
"L  c #6868BBBB0707",
"P  c #63B9B2B20C62",
"I  c #68B7BCA00B36",
"U  c #646AAA371077",
"Y  c #6610B55F1212",
"T  c #6A88BBFD1357",
"R  c #6B6BB2B21818",
"E  c #6D6DC57C052A",
"W  c #6E83C961015D",
"Q  c #6C6CC3830ACB",
"!  c #7149CA8605FB",
"~  c #7398CB8A0995",
"^  c #7777CCCC1111",
"/  c #7C7CCECE1818",
"(  c #808080800000",
")  c #99738A581A25",
"_  c #8045A7611334",
"`  c #8A03A383177C",
"'  c #AB6F83922BB3",
"]  c #B2B285852E2E",
"[  c #BFED92F92996",
"{  c #B3B391913333",
"}  c #B0B099993535",
"|  c #D9D09B55390F",
" . c #F7D0815D31A4",
".. c #FFFF84843333",
"X. c #FFFF8C8C3535",
"o. c #FFFF92923636",
"O. c #FFFF95953939",
"+. c #FFFF9B9B3A3A",
"@. c #DFDFA9A93B3B",
"#. c #EBDEAEAD3C7A",
"$. c #FDC8A37D3B86",
"%. c #F0F0AFAF3E3E",
"&. c #FEBEAC813E30",
"*. c #8383CFCF2525",
"=. c #8383CFCF2929",
"-. c #8787D0D02C2C",
";. c #88F0D28E2E34",
":. c #8463C7C1306B",
">. c #84A7CAD7308D",
",. c #8787C8C83F3F",
"<. c #8C8CD2273636",
"1. c #8F8FD3D33E3E",
"2. c yellow",
"3. c #85969F6C4D4D",
"4. c #B7C3AF3051B1",
"5. c #A11DB8A15754",
"6. c #B027BA3156AC",
"7. c #EDEDBABA4141",
"8. c #FFFFB5B54141",
"9. c #F0F0BCBC4242",
"0. c #FFFFBDBD4343",
"q. c #8A8ACBCB4141",
"w. c #9ADECDE24F36",
"e. c #9300D6914036",
"r. c #9797D6D64B4B",
"t. c #9A9AD9D94F4F",
"y. c #974ACCA654C2",
"u. c #9A9AD7D75151",
"i. c #9E9EDBDB5555",
"p. c #CAC7C19443E7",
"a. c #D757C70453E9",
"s. c #EDEDCBCB4848",
"d. c #FFFFC3C34646",
"f. c #FFFFCDCD4848",
"g. c #F416D6CC4B2E",
"h. c #FFFFD3D34A4A",
"j. c #F6B9DAC94C8A",
"k. c #FAFADCDC4D4D",
"l. c #FFFFE1E14F4F",
"z. c #4B4B65658181",
"x. c #4E4E6B6B8787",
"c. c #4F4F6C6C8888",
"v. c #59596C6C8181",
"b. c #51516E6E8B8B",
"n. c #5B5B70708686",
"m. c #535371718F8F",
"M. c #565674749393",
"N. c #595977779696",
"B. c #575778789797",
"V. c #5F5F7A7A9595",
"C. c #5B5B7C7C9C9C",
"Z. c #626275758B8B",
"A. c #62627F7F9B9B",
"S. c #626281819E9E",
"D. c #6D6D83839B9B",
"F. c #777786869696",
"G. c #5E5E8282A4A4",
"H. c #61618484A6A6",
"J. c #69698484A1A1",
"K. c #6E6E8B8BA5A5",
"L. c #61618686A9A9",
"P. c #65658989ADAD",
"I. c #6B6B8A8AABAB",
"U. c #71718A8AA3A3",
"Y. c #71718E8EADAD",
"T. c #7D7D9494ACAC",
"R. c #67678E8EB2B2",
"E. c #6B6B8E8EB3B3",
"W. c #6C6C9191B6B6",
"Q. c #6C6C9393BBBB",
"!. c #70709292B6B6",
"~. c #72729797BBBB",
"^. c #72729A9ABFBF",
"/. c #72729B9BC1C1",
"(. c #7A7A9D9DC1C1",
"). c #7E7EA1A1C5C5",
"_. c #7979A4A4CBCB",
"`. c #7F7FAAAAD2D2",
"'. c #85C281DB80E1",
"]. c #898985858484",
"[. c #83839494A7A7",
"{. c #80809797B0B0",
"}. c #83839B9BB2B2",
"|. c #88889E9EB4B4",
" X c #85859F9FBABA",
".X c #9696A9A9BCBC",
"XX c #A5A5A7A7A8A8",
"oX c #B634CE3E9804",
"OX c #C000E66B902A",
"+X c #C1C1E7E79494",
"@X c #C4C4E8E89797",
"#X c #CACAE9E9A7A7",
"$X c #CECEEAEAADAD",
"%X c #D0D0EDEDADAD",
"&X c #8383A2A2C1C1",
"*X c #8C8CA7A7C1C1",
"=X c #8383A6A6CACA",
"-X c #9B9BADADC0C0",
";X c #9A9AB2B2C9C9",
":X c #8383ABABD2D2",
">X c #8A8AAEAED4D4",
",X c #8484B1B1D4D4",
"<X c #8B8BB3B3D4D4",
"1X c #8C8CB8B8D4D4",
"2X c #9292B1B1D0D0",
"3X c #A3A3B5B5C6C6",
"4X c #ABABBDBDCDCD",
"5X c #A4A4BEBED0D0",
"6X c #9595C2C2D4D4",
"7X c #B2B2C1C1CFCF",
"8X c #A6A6C5C5D4D4",
"9X c #B4B4C5C5D4D4",
"0X c #BABAC9C9D8D8",
"qX c #9999C4C4F1F1",
"wX c #A4A4C6C6E0E0",
"eX c #ACACCACAE0E0",
"rX c #BEBEE0E0E0E0",
"tX c #C0C0C0C0C0C0",
"yX c #C3C3CECED9D9",
"uX c #CDCDD7D7DFDF",
"iX c #DCDCF1F1C3C3",
"pX c #E5E5F3F3D5D5",
"aX c #EBEBF7F7DEDE",
"sX c #C9C9D6D6E1E1",
"dX c #D3D3DCDCE4E4",
"fX c #DCDCE2E2E9E9",
"gX c #E4E4E9E9EEEE",
"hX c #EEFEF7FEE4FE",
"jX c #F4F4FAFAECEC",
"kX c #EAEAEDEDF1F1",
"lX c #EFEFF2F2F4F4",
"zX c #F9F9FCFCF5F5",
"xX c #FFEDFFF6FFDF",
"cX c None",
/* pixels */
"cX5XH.M.b.b.b.M.M.M.M.M.M.M.M.M.M.M.M.M.M.M.M.M.N.C.C.C.N.h z cX",
"eXrXI.h g g j l v.v.v.v.v.v.v.v.v.v.v.v.v.v.v.v.Z.D.{.*XY.h e t ",
">XwX3XcXcXcXcXcXcXcXcXcXcXcXcXcXcXcXcXcXcXcXcXcXcXcXcXcXcXF.w t ",
"^.V.cXcX1X:X_./././././././././././.^.^.^.^.^.~.W.L.C.x.cX2Xz.; ",
"W.n.cX8X6X`./.Q.W.W.W.W.W.W.W.W.W.W.W.W.W.W.E.R.H.B.x.d cXG.p @ ",
"!.l cX6X<XdXfXlX;XdXlX0X;XgXlX4XL.L.L.L.H.H.G.C.M.z.d cXE.M.w   ",
"~.k cX1X`.dXlXlX3XdXlXlX7XdXlXlXC.C.C.C.C.M.m.x.h d cXQ.H.u o cX",
"(.k cX<X_.&XlXlXS.K.lXkXC.C.lXgXC.M.M.M.m.c.z.d s cXQ.W.d *   cX",
").k cX,X_.;XlX9XM.|.lXyXM.-XlX4XM.M.M.b.c.z.d s cXQ.W.d -   cXcX",
"=Xk cX,X_.9XlX}.M.3XlX3XM.7XlX.XM.M.b.c.z.d s cXQ.W.d -   O cXcX",
"=Xk cX,X_.sXlXU.M.yXlX}.M.uXlXT.M.xXd f d s cXQ.W.d -   7 O cXcX",
"=Xk cX,X_.gXlXA.M.gXlXJ.M.gXlXA.xXxXk.r i cXQ.W.d -   +.7 O cXcX",
"=Xk cX,X_.R.C.M.M.M.M.M.M.M.M.xXxX].k.k.XXP.E.d -   d.O.7 O cXcX",
"=Xk cX,X_.R.C.M.M.M.M.M.M.M.xXxX].xXxXxXk.h a -   f.0.o.> O cXcX",
"=Xk cX,X_.R.C.M.M.M.M.M.M.2.xX].xXxX].xXxXk.*   f.f.8.X.> O cXcX",
"=Xk cX,X_.R.C.M.M.M.M.M.xXxX2.2.tX].xXxX].xXxX{ 7.d.&...> O cXcX",
"=Xk cX,X_.R.C.M.M.M.M.xXxX].2.xX  ( xX].xXxXk.xX] %.$...> O cXcX",
"=Xk cX,X_.R.C.M.M.M.xXxX].xX( tX].    xXxXxXj.$ 8 | $.B > O cXcX",
"=Xk cX,X_.R.C.M.M.k.xX].xX].xXxX].xX    g.a.q 3.5.6.4.V : O cXcX",
"=Xk cX,X_.R.C.M.b.d k.xX].xXxX].xX].xX  6 y.-./ ~ / *.w.m O cXcX",
"=Xk cX,X_.R.C.m.c.f r k.k.xX].xXxXxX'.oX<.~ W ~ ~ W e.i.<.0 cXcX",
"=Xk cX,X_.R.C.b.z.d i XXk.xXxXxX].xXp.>.~ ~ ~ ~ W ;.jXOXW :.cXcX",
"=Xk cX,X/.P.M.z.d s cXP.h k.xX].xXj.3 ~ ~ ~ ~ ~ W @XzXW ~ ~ R cX",
"=Xz cX,X/.H.c.f s cXQ.E.a * k.xXk.. Z ~ ~ ~ ! W <.jXu.W ~ ~ J cX",
"=Xv.cX:XQ.C.z.d cXQ.W.d -   } k.# 1 G ~ ~ W W ~ %XiX^ ! ~ ! F cX",
"=XZ.cX_.P.m.d cXQ.W.d -   l.s.{ n ] G W =.+Xr.1.zXu.! ! ! Q A cX",
"=XU.cXQ.C.h cXQ.W.d -   l.k.h.9.@.%.` L K $XzXaX#XQ I E Q I C cX",
"=X XcXH.x.cXQ.W.d -   k.h.f.d.0.8.&.[ H I D pXhXq.K I I I F cXcX",
"(.2XcXcXcXQ.E.d -   d.8.&.&.$.+.o.X. .) Y T T ,.J I I T P , cXcX",
"P.qX[.z.E.M.p -   O.N M M M b v v v c x 5 U Y Y T R P A 9 + cXcX",
"t b.y z.p e *   O O O O O O O O O O O O O & < 4 3 2 < % O cXcXcX",
"cXt = X - o cXcXcXcXcXcXcXcXcXcXcXcXcXcXcXcXcXcXcXcXcXcXcXcXcXcX"
};
