/* XPM */
static char *smart[] = {
/* columns rows colors chars-per-pixel */
"32 32 253 2 ",
"   c #6F6F71716767",
".  c #6F6F76767979",
"X  c #7F7F7C7C7272",
"o  c #8E8E57572525",
"O  c #94945CDD2626",
"+  c #95955E5E2828",
"@  c #9A9A61612727",
"#  c #9BBB634328E9",
"$  c #A0A066662828",
"%  c #A4796AC028D3",
"&  c #A8A86D6D28A9",
"*  c #AEAE70702727",
"=  c #ADAD70F12929",
"-  c #B1B175752BAC",
";  c #B7B778782929",
":  c #B8B87C7C2E2E",
">  c #ABAB77773636",
",  c #B6367F7F3BBC",
"<  c #4B4B88880303",
"1  c #4D4D8A8A0404",
"2  c #4D4D8A8A0606",
"3  c #4E4E8C8C0404",
"4  c #4F4F8E8E0808",
"5  c #50508E8E0606",
"6  c #525294940707",
"7  c #58589E9E0505",
"8  c #575798980D0D",
"9  c #585898980F0F",
"0  c #5D5DA7A70707",
"q  c #5E5EA7A70606",
"w  c #5F5FABAB0707",
"e  c #5F5FABAB0909",
"r  c #5B5BB7B70000",
"t  c #6161ACAC0606",
"y  c #6464B2B20606",
"u  c #6363B7B70404",
"i  c #6363BABA0101",
"p  c #6565BFBF0000",
"a  c #6868BBBB0707",
"s  c #6262B1B10909",
"d  c #6363B1B10F0F",
"f  c #6565B4B40D0D",
"g  c #6868BCBC0808",
"h  c #6868BCBC0909",
"j  c #6868BDBD0B0B",
"k  c #6A6ABEBE0A0A",
"l  c #6868BBBB0E0E",
"z  c #6868BABA0F0F",
"x  c #6262ACAC1010",
"c  c #6565B2B21111",
"v  c #6565B5B51010",
"b  c #6767B7B71515",
"n  c #6969BCBC1010",
"m  c #6969BCBC1212",
"M  c #6A6AB9B91717",
"N  c #6C6CBDBD1414",
"B  c #6B6BB2B21818",
"V  c #6EEFA3363B17",
"C  c #7BC9B95F30A8",
"Z  c #6A6AC6C60000",
"A  c #6D6DC4C40303",
"S  c #6B6BC1C10707",
"D  c #6C6CC1C10606",
"F  c #6F6FC7C70606",
"G  c #6F6FC7C70707",
"H  c #6B6BC8C80000",
"J  c #6D6DC8C80000",
"K  c #6F6FC9C90202",
"L  c #6B6BC3C30909",
"P  c #6E6EC2C20B0B",
"I  c #6E6EC6C60808",
"U  c #6969C0C00F0F",
"Y  c #7070C9C90404",
"T  c #7070CACA0404",
"R  c #70C3CAD304ED",
"E  c #7171CACA0707",
"W  c #7272CBCB0707",
"Q  c #71A2CAD10801",
"!  c #7279CACB0807",
"~  c #7272CBCB0808",
"^  c #7373CBCB0808",
"/  c #72F3CAF608FE",
"(  c #7272CBCB0909",
")  c #7373CBCB0909",
"_  c #73ADCBB109B3",
"`  c #7373CACA0B0B",
"'  c #7575CBCB0B0B",
"]  c #7575CBCB0E0E",
"[  c #7676CBCB0F0F",
"{  c #7575CCCC0C0C",
"}  c #7575CCCC0D0D",
"|  c #7777CCCC1111",
" . c #7C7CCECE1818",
".. c #7C7CA6A64646",
"X. c #7BE0B56B403D",
"o. c #C1C184843030",
"O. c #8383CFCF2525",
"+. c #8383CFCF2929",
"@. c #8787D0D02C2C",
"#. c #8888D2D22E2E",
"$. c #8787CCCC3131",
"%. c #8616CCFD33F0",
"&. c #8787C8C83F3F",
"*. c #8B8BD0D03535",
"=. c #8C8CD0D03636",
"-. c #8D8DD4D43737",
";. c #8F8FD3D33E3E",
":. c #B6B685854343",
">. c #BEBE91914F4F",
",. c #8585A9A95757",
"<. c #8F8FB5B55E5E",
"1. c #979789896565",
"2. c #9F9F8D8D6B6B",
"3. c #9F9F83837171",
"4. c #9E9E93937979",
"5. c #ABAB87876060",
"6. c #A4A48C8C6464",
"7. c #AEAE8D8D6464",
"8. c #A7A787876969",
"9. c #A2A293936868",
"0. c #A3A38D8D7F7F",
"q. c #AEAE9D9D7B7B",
"w. c #9E1CBE3576F5",
"e. c #C0C08F8F4646",
"r. c #CBCB9A9A4D4D",
"t. c #CCCC9D9D5151",
"y. c #D52AA2F84EF9",
"u. c #CACAA6A65F5F",
"i. c #D433A4445313",
"p. c #D7D7A9A95555",
"a. c #DCA9AC5F553B",
"s. c #D5D5A9A95959",
"d. c #DB5BAE2E5959",
"f. c #D7D7B9B97E7E",
"g. c #E0E0B7B76F6F",
"h. c #879CC3704248",
"j. c #8A8ACBCB4141",
"k. c #9292D6D64040",
"l. c #9797D6D64B4B",
"z. c #9A9AD9D94F4F",
"x. c #9197C4C75F04",
"c. c #9797D0D05050",
"v. c #9A9AD7D75151",
"b. c #9E9EDBDB5555",
"n. c #9C2AD2DA5CA2",
"m. c #9898C2C26161",
"M. c #9C9CC7C76262",
"N. c #E8E8C0C07373",
"B. c #F7F7CDCD7B7B",
"V. c #7D7D9797C7C7",
"C. c #7A7A9797CECE",
"Z. c #7A7A9A9AD8D8",
"A. c #71719898E3E3",
"S. c #7A7A9E9EE0E0",
"D. c #72729F9FF3F3",
"F. c #7A7AA7A7FFFF",
"G. c #7C7CA9E9FF7F",
"H. c gray53",
"J. c #8B8B8B8B8484",
"K. c #878792929999",
"L. c #8D8D95159E9E",
"P. c #945494D49514",
"I. c #979798989898",
"U. c #9CF29CF29CF2",
"Y. c #A0A08B8B8080",
"T. c #A4A49C9C8686",
"R. c #9FE4A0999EE6",
"E. c #962CBA399804",
"W. c #9BE0BBDD9027",
"Q. c #A9A9A7A79999",
"!. c #90089FEBAB41",
"~. c #99999E9EA2A2",
"^. c #90909F9FB3B3",
"/. c #A6A69D9DA0A0",
"(. c #96B1B85DA1A1",
"). c #A222A222A222",
"_. c #A5A5A7A7A9A9",
"`. c #AF2FAC2CAE2E",
"'. c #B6B6B2B2A2A2",
"]. c #A423ABABB5B5",
"[. c #AD46B1B1B24B",
"{. c #B9B9BA3AB9B9",
"}. c #C8C8BCBC9595",
"|. c #BFBFE6E69090",
" X c #F9F9D6D68A8A",
".X c #F8F8DADA9696",
"XX c #C1C1E7E79494",
"oX c #C4C4E8E89797",
"OX c #CECEC9C9A8A8",
"+X c #CACAE9E9A7A7",
"@X c #CECEEAEAADAD",
"#X c #D0D0EDEDADAD",
"$X c #F9F9E0E0A2A2",
"%X c #F9F9E4E4AAAA",
"&X c #FBFBECECB4B4",
"*X c #FCFCEFEFBDBD",
"=X c #83839B9BC9C9",
"-X c #9F74B741D373",
";X c #AAAAB3B3C5C5",
":X c #A4A4B333C949",
">X c #A5A5B8B8D4D4",
",X c #9898B3B3E5E5",
"<X c #828CADA9F643",
"1X c #83D9AE58FDA7",
"2X c #8E8EB6B6FEFE",
"3X c #9494B9B9FFFF",
"4X c #A01FBCEDF8F8",
"5X c #A01FBE0CFB6C",
"6X c #9E9EBFBFFFFF",
"7X c #A2D2BC49EF21",
"8X c #A121BF3FFFFF",
"9X c #C2C2BEBEC3C3",
"0X c #B50ECAB0C0A4",
"qX c #A4A4C242FFFF",
"wX c #BC60D1E3F21B",
"eX c #BDBDD3D3FFFF",
"rX c #C403C403C484",
"tX c #C0C0C9C9C6C6",
"yX c #C7C7CBCBCACA",
"uX c #CB75CB75CB75",
"iX c #D0D0D8D8CACA",
"pX c #C3C3CCCCD2D2",
"aX c #CBCBCECED1D1",
"sX c #D027D9EBDE2F",
"dX c #D453D4A1D43A",
"fX c #DC00DC24DC00",
"gX c #DCDCF1F1C3C3",
"hX c #FAFAF5F5C9C9",
"jX c #E3E3EAEAD1D1",
"kX c #E5E5F3F3D5D5",
"lX c #EBEBF7F7DEDE",
"zX c #DB30DE88E338",
"xX c #C3C3D7D7FFFF",
"cX c #CBCBDCDCFFFF",
"vX c #DEDEE0E0E1E1",
"bX c #DADAE363F575",
"nX c #D0F0E477F8F8",
"mX c #E46CE48EE4D3",
"MX c #E6E6E7E7E8E8",
"NX c #EBEBEC00EC2B",
"BX c #EFEFF8F8E5E5",
"VX c #F3F3FAFAEBEB",
"CX c #F5F5FAFAEDED",
"ZX c #EE6EEFEFF1F1",
"AX c #EFEFF0F0F2F2",
"SX c #F465F482F4BB",
"DX c #F9F9FCFCF4F4",
"FX c #F9F9FCFCF6F6",
"GX c #F2F2F676FCFC",
"HX c #F68FF95FFECB",
"JX c #FBFBFDFDF8F8",
"KX c #FA6BFB17FD19",
"LX c None",
/* pixels */
"LXLXLXLXLXLXLXLXLXLXLXLXLXLXLXLXLXLXLXLXLXLXLXLXLXLXLXLXLXLXLXLX",
"LXLXLXLXLXLXLXLXLXLXLXLXLXLXLXLXLXLXLXLXLXLXLXLXLXLXLXLXLXLXLXLX",
"LXLXLXLXLXLXLXLXLXLXLXLXLXLXLXLXLXLXLXLXLXLXLXLXLXLXLXLXLXLXLXLX",
"LXLXLXLXLXLXLXLXLXLXLXLXLXLXLXLXLXLXLXLXLXLXLXLXLXLXLXLXLXLXLXLX",
"LXLXLXLXLXLXLXLXLXLXLXLXLXLXLXLXLXLXLXLXLXLXLXLXLXLXLXLXLXLXLXLX",
"LXLXLXLXLXLXLXLXLXLXLXLXLXLXzXpXLXLXLXLXLXLXLXLXLXLXLXLXLXLXLXLX",
"LXLXLXLXLXLXLXLXLXLXLXLXLXtXjXiXaXLX'.s.T.LXLXLXLXLXLXLXLXLXLXLX",
"LXLXLXLXLXLXLXLXLXLXLXyXOX&X*XhX[.Q.d.a.p.4.LXLXLXLXLXLXLXLXLXLX",
"LXLXLXLXLXLXLXLXLXLXLX}. X.X$X%Xf.a.a.a.p.i.2.LXLXLXLXLXLXLXLXLX",
"LXLXLXLXLXLXLXLXLXLXLX{.N.B.g., * o.a.a.a.i.t.6.LXLXLXLXLXLXLXLX",
"LXLXLXLXLXLXLXLXLXLXLXLXq., @ # & ; : y.a.p.i.r.6.LXLXLXLXLXLXLX",
"LXLXLXLXLXLXLXLXLXLXLXLX:X3.O + $ ; = - y.a.i.t.>.J.LXLXLXLXLXLX",
"LXLXLXLXLXLXLXLXLXLXLXLX>X1XY.o @ = & % % r.p.t.X LXLXLXLXLXLXLX",
"LXLXLXLXLXLXLXLXLXLXLXLX>XG.1XT.+ & % # # @ e.  ~.LXLXLXLXLXLXLX",
"LXLXLXLXLXLXLXLXfXuXdXrX].S.G.1X/.% # # @ > i.s.u.9.K.LXLXLXLXLX",
"LXLXLXLXLXLXLXdXNXSXAXfXfXdX=X1X2X`.@ # :.r.i.i.1.P.LXLXLXLXLXLX",
"LXLXLXLXLXLXfXZXKXKXSXmXmXGXzXC.3X6X9X0.8.5.7.. {.LXLXLXLXLXLXLX",
"LXLXLXLXLXLXdXSXKXKXSXMXAXKXKX;XD.qXeX6XqX6X4XR.LXLXLXLXLXLXLXLX",
"LXLXLXLXLXmXmXNXSXKXSXNXKXKXKXzXA.F.xX6X4X-XW.w.M.m.<.LXLXLXLXLX",
"LXLXLXLXLXdXfXmXNXZX{.{.AXNXvXdXC.F.cX7X(.n.@. .}  .O.c.,.LXLXLX",
"LXLXLXLXLXdXfXmXZXAXP.~.jXAXmXdXV.G.nXE.=.} E E ^ K k.b.*...LXLX",
"LXLXLXLXLXdXGXKXKXKXmXmXKXSXNXfXZ.1X0X%.' ^ ^ ^ K @.CX|.H $.LXLX",
"LXLXLXLXLXMXzXKXKXSXNXKXKXKXSX;X,X<Xx.] ^ ^ ^ ^ E XXFXZ ^ ] B LX",
"LXLXLXLXLXLX9XGXGXmXNXSXKXKXSXL.bXwXh.^ ^ ^ ^ A -.VXz.K ^ ^ y LX",
"LXLXLXLXLXLXLXrXMXfXmXAXSXKXU.I.^.sXC E ^ E G ^ #XgX| E ^ ^ t LX",
"LXLXLXLXLXLXLXuX_.rXmXNXuXH.).LXLX^.C G +.|.l.;.JXv.G G G I q LX",
"LXLXLXLXLXLXLXLXLX`.P.P.U.LXLXLXLXLXV a p @XDXlX+XP S S S k 7 LX",
"LXLXLXLXLXLXLXLXLXLXLXLXLXLXLXLXLXLXLXe h r kXBXj.i h k U w LXLX",
"LXLXLXLXLXLXLXLXLXLXLXLXLXLXLXLXLXLXLX4 f z N j.u l m m s 1 LXLX",
"LXLXLXLXLXLXLXLXLXLXLXLXLXLXLXLXLXLXLXLX1 x c v M b d 0 < LXLXLX",
"LXLXLXLXLXLXLXLXLXLXLXLXLXLXLXLXLXLXLXLXLXLX5 9 8 6 3 LXLXLXLXLX",
"LXLXLXLXLXLXLXLXLXLXLXLXLXLXLXLXLXLXLXLXLXLXLXLXLXLXLXLXLXLXLXLX"
};
