/* XPM */
static char *snowballz[] = {
/* columns rows colors chars-per-pixel */
"32 32 194 2 ",
"   c #15F517E913B1",
".  c #1B6F1BD21A85",
"X  c #303018181818",
"o  c #2C2C27271E1E",
"O  c #3D3D2C2C1010",
"+  c #295E35301BBA",
"@  c #23AC2357233B",
"#  c #292927272727",
"$  c #2BDC2BB02B9E",
"%  c #3CBD26262626",
"&  c #3C3C2B2B2B2B",
"*  c #330A36702ED6",
"=  c #337033703364",
"-  c #3BA33BAA3B98",
";  c #40401D1D1D1D",
":  c #6D6D0C0C0C0C",
">  c #65651B1B1B1B",
",  c #505036360C0C",
"<  c #55552B2B2B2B",
"1  c #414130303030",
"2  c #767622222222",
"3  c #4E337ED613F9",
"4  c #545444442424",
"5  c #646456563030",
"6  c #4D83658C2F52",
"7  c #435F436F4348",
"8  c #4A314A524A02",
"9  c #4EB354284783",
"0  c #53A953A9537E",
"q  c #5B5B5B5B5B5B",
"w  c #666648484848",
"e  c #5D78716043D3",
"r  c #63F663D16363",
"t  c #6B6B6B6B6AAA",
"y  c #7427742773C0",
"u  c #7C5C7C5C7BFC",
"i  c #8E8E06060606",
"p  c #959505050505",
"a  c #9A9A09090909",
"s  c #88881B1B1B1B",
"d  c #9F9F16161616",
"f  c #AD2D05050505",
"g  c #B7B702020202",
"h  c #B9B901570157",
"j  c #A2A212121212",
"k  c #A8A811111111",
"l  c #8A8A27272727",
"z  c #999921212121",
"x  c #90902B2B2B2B",
"c  c #ACAC2E2E2E2E",
"v  c #B4B425252525",
"b  c #C2C203840384",
"n  c #CACA00000000",
"m  c #CDCD09090909",
"M  c #D56E01340134",
"N  c #DE7700330033",
"B  c #D3D30A0A0A0A",
"V  c #C9C91E1E1E1E",
"C  c #D8D814141313",
"Z  c #E4E402020202",
"A  c #ED2C01010101",
"S  c #F2F200000000",
"D  c #FD6300000000",
"F  c #9C9C77771414",
"G  c #88884C4C4C4C",
"H  c #99994A4A4A4A",
"J  c #959554545454",
"K  c #9D9D5C5C5C5C",
"L  c #B1B142424242",
"P  c #98986C6C6C6C",
"I  c #818176766666",
"U  c #929270706E6E",
"Y  c #969670707070",
"T  c #999975757575",
"R  c #A8A862626262",
"E  c #B1B16F6F6F6F",
"W  c #ACAC7F7F7F7F",
"Q  c #C8C859595858",
"!  c #D7D77A7A7878",
"~  c #50778B6D08A8",
"^  c #554192B3099C",
"/  c #61D3A01A1622",
"(  c #5BF8B7F900F5",
")  c #61A0ABE00C30",
"_  c #6363B7B70404",
"`  c #64ABBD5800F7",
"'  c #6868BBBB0707",
"]  c #63B9B2B20C62",
"[  c #68D4BCC50B5C",
"{  c #6615AEA015B2",
"}  c #6610B55F1212",
"|  c #6AB4BC5C13C8",
" . c #714AAC5F29DD",
".. c #7587ACC03273",
"X. c #7900AD343D87",
"o. c #7EDCB6123B89",
"O. c #6D6DC57C052A",
"+. c #6E62C958015D",
"@. c #6C6CC3830ACB",
"#. c #7152CA9505F6",
"$. c #7398CB8B098B",
"%. c #7777CCCC1111",
"&. c #7C7CCECE1818",
"*. c #7F2DB04A4753",
"=. c #DFDFBFBF0E0E",
"-. c #8383CFCF2525",
";. c #819FC7EA2DA6",
":. c #8383CFCF2929",
">. c #8787D0D02C2C",
",. c #8854D2432E24",
"<. c #8A4BCDAC3647",
"1. c #8787C8C83F3F",
"2. c #8C8CD2273636",
"3. c #8F8FD3D33E3E",
"4. c #DDDDC9C91E1E",
"5. c #8482B58F4C56",
"6. c #888BB9E64D2B",
"7. c #88B8B27656D7",
"8. c #8A11B3CF582F",
"9. c #80DF94DA669D",
"0. c #808080807E7E",
"q. c #98D6BC896F17",
"w. c #923DAAA072CC",
"e. c #9A3ABD0F719E",
"r. c #98CCB05F7A1A",
"t. c #C0C09E9E5151",
"y. c #8A8ACBCB4141",
"u. c #927CD67B407C",
"i. c #9797D6D64B4B",
"p. c #9A9AD9D94F4F",
"a. c #9527CC95501D",
"s. c #9399C46559DD",
"d. c #9A9AD7D75151",
"f. c #9E9EDBDB5555",
"g. c #9BEDD16959CB",
"h. c #A223C11D7957",
"j. c #A933CBAB7A49",
"k. c #843B843B8416",
"l. c #878788888484",
"z. c #8A8A8A8A8787",
"x. c #8C008C178B1C",
"c. c #909090908D8D",
"v. c #96FD96FD96FD",
"b. c #9B9B9BDB9ADA",
"n. c #A4A480808080",
"m. c #ACAC86868686",
"M. c #A8A896969696",
"N. c #A14BA1F79F49",
"B. c #A5C5A5E5A585",
"V. c #A9A9AAAAA7A7",
"C. c #ABABAB96AAEA",
"Z. c #AFAFB0B0AEAE",
"A. c #B1E3B67AAAC9",
"S. c #B489B48FB3AA",
"D. c #BC60BC97BB3A",
"F. c #C0C0BFBFBCBC",
"G. c #ACD3CBC783FF",
"H. c #AB37C3C489F7",
"J. c #BF2BE62A902B",
"K. c #C1C1E7E79494",
"L. c #C4C4E8E89797",
"P. c #C094D0D5AE43",
"I. c #C127C18EBEF1",
"U. c #C604D40DB559",
"Y. c #CACAE9E9A7A7",
"T. c #CECEEAEAADAD",
"R. c #D0D0EDEDADAD",
"E. c #C45DC491C390",
"W. c #C7C7C8C8C4C4",
"Q. c #C9F2CAF1C6C3",
"!. c #CE00CE00CCCC",
"~. c #DEDECFCFCCCC",
"^. c #CEF0DA2AC129",
"/. c #D0D0D0D0CDCD",
"(. c #D4B2D507D2E3",
"). c #D6F1DA7BD16E",
"_. c #D9E8DAEBD655",
"`. c #DC38DCADDAC3",
"'. c #DCDCF1F1C3C3",
"]. c #DFDFE0E0DD5D",
"[. c #E1E1E201DE9E",
"{. c #E5E5F3F3D5D5",
"}. c #EBEBF7F7DEDE",
"|. c #E474E494E332",
" X c #E7DFE919E58E",
".X c #EC38EC9FEA83",
"XX c #EFF1F8F1E5EE",
"oX c #EF3AF172ECCB",
"OX c #F239F35CEE14",
"+X c #F4F4FAFAECEC",
"@X c #F5E4F674F430",
"#X c #FA41FB4AF6FF",
"$X c #FF84FF91FF47",
"%X c None",
/* pixels */
"%X%X%X%X%X%X%X%X%X%X%X%X%X%X%X%X%X%X%X%X%X%X%X%X%X%X%X%X%X%X%X%X",
"%X%X%X%X%X%X%X%X%X%X%X%X%X%X%X%X%X%X%X%X%X%X%X%X%X%X%X%X%X%X%X%X",
"%X%X%X%X%X%X%X%X%X%X%X%X%X%X%X%X%X%X%X%X%X%X%X%X%X%X%X%X%X%X%X%X",
"%X%X%X%X%X%X%X%X%X%X%XY x j c W %X%X%X%X%X%X%X%X%X%X%X%X%X%X%X%X",
"%X%X%X%X%X%X%X%X%X%XG p h M N L %X%X%X%X%X%X%X%X%X%X%X%X%X%X%X%X",
"%X%X%X%X%X%X%X%XT l a h n N A v %X%X%X%X%X%X%X%X%X%X%X%X%X%X%X%X",
"%X%X%X%X%X%X%X%X< X ; > k Z Z b M.%X%X%X%X%X%X%X%X%X%X%X%X%X%X%X",
"%X%X%X%X%X%X%Xz.u 8 c.r = 1 s m R %X%X%X%X%X%X%X%X%X%X%X%X%X%X%X",
"%X%X%X%X%X%X%XS.`.|.`.@X0 - - $ z %X%X%X%X%X%X%X%X%X%X%X%X%X%X%X",
"%X%X%X%X%X%XB.E..X/.S.#Xq 7 - $ w %X%X%X%X%X%X%Xn.K m.%X%X%X%X%X",
"%X%X%X%X%X%Xu I t.I.!.u 8 7 - $ y %X%X%X%X%X%XH h M B E %X%X%X%X",
"%X%X%X%X%X%Xq , =.4.5 7 7 7 = $ y %X%X%X%X%XJ g Z D D V x.k.y t ",
"%X%X%X%X%X%X8 . O F 5 7 7 - = $ b.%X%X%X%XP f M S D D A U x.z.l.",
"%X%X%X%X%X%X7 . o $ - 7 - - = 7 %X%X%X%XP a b N S D D D Q F.F.D.",
"%X%X%X%X%X%X- . @ $ - 4 - - = 7 C.%X%Xn.: i f M A D D D C ~.|.[.",
"%X%X%X%X%XV.8 0 8 8 0 8 8 7 - $ 8 B.%Xr @ # $ & < 2 d m N ! #X#X",
"%X%X%X%X0.- k.|.$X$X$X$X$XE.7 - = 7 l.$ # $ = = - 7 - - % P $X$X",
"%X%Xb.0 # $ D..X$X$X$X$X$X$XC.8 7 = $ @ 7 y 7 7 8 8 7 - = C.$X$X",
"%X%X0 = - y (.#X$X$X$X$X$X$X#Xx.7 7 $ . S.A.H.h.j.G.w.9 $ k.$X$X",
"%X%X= # - b.`.#X$X$X$X$X$X$X$X X- - $ . 9.g.>.&.$.&.-.a.e c.$X$X",
"%X%X%Xk.y v.!.@X$X$X$X$X$X$X$X$Xr $ @ 6 2.$.+.#.$.+.3.f.<.r.#X$X",
"%X%X%X%Xv.k.D.[.#X$X$X$X$X$X$X$XC.. + ;.$.$.$.$.+.,.+XJ.+.<.^.$X",
"S.C.C.%XC.y v.F.|.$X$X$X$X$X$X$XS.  3 $.$.$.#.$.#.L.#X+.$.$.s. X",
"|.`.Q.Z.B.t y b.S.!._.|. X@X$X$Xv.. ~ $.$.$.$.+.2.+Xp.+.$.#. .).",
".X`.`.Q.C.k.b.S.E.W.!.(.(./.(.(.z.* ^ $.$.#.+.$.R.'.%.$.$.$./ A.",
"!.I.B.N.C.D.!._.]. X.XOXOX@XOX.X].Q...+.:.J.i.3.#Xp.#.O.O.O.o._.",
"b.0.x.Z.E.(.`..X@X#X$X$X$X$X$X$X$XOX5.' ` T.#X}.Y.@.@.O.@.' 6.OX",
"y x.B.I.!.`. X@X$X$X$X$X$X$X$X$X$X$XP.) [ ( {.XXy.` ' [ @.) P.$X",
"u b.Z.E.!.`. X@X$X$X$X$X$X$X$X$X$X$X#Xq.} [ | y._ | | | ] q.@X$X",
"x.M.S.F.!.(.`.@X$X$X$X$X$X$X$X$X$X$X$XoXe.{ } } | } ] ) q.oX$X$X",
"c.N.S.D.Q.(.|.OX$X$X$X$X$X$X$X$X$X$X$X$X@XU.7.5.X.*.7.U.@X$X$X$X",
"c.N.Z.D.E.(. XOX$X$X$X$X$X$X$X$X$X$X$X$X$X$X#X@XoX@X#X$X$X$X$X$X"
};
