/* XPM */
static char *stellarium[] = {
/* columns rows colors chars-per-pixel */
"32 32 256 2 ",
"   c #00B500B500A7",
".  c #038401820A0A",
"X  c #0A0A02020F0F",
"o  c #0D0D0C0C0E0E",
"O  c #04F0085200DE",
"+  c #0B0B00001010",
"@  c #0A4A07071354",
"#  c #13D404441C9D",
"$  c #128D21160192",
"%  c #1CE028020F4E",
"&  c #0C8D06062626",
"*  c #191906202107",
"=  c #1BE60ABA24B9",
"-  c #1C1C10BB22CD",
";  c #1D1D1A1A2020",
":  c #14140C0C3535",
">  c #191911923CBD",
",  c #21210C0C29AA",
"<  c #202012122727",
"1  c #215619A92448",
"2  c #220013132839",
"3  c #260219C22CA2",
"4  c #2A2A1D1D3131",
"5  c #262616163030",
"6  c #22DB21FB24CE",
"7  c #2C042B652E4F",
"8  c #35163FAF26E0",
"9  c #2C8622663258",
"0  c #2D602A5D3209",
"q  c #312428263734",
"w  c #34FA2DA43A4E",
"e  c #323222223939",
"r  c #361D302C3C10",
"t  c #383830B13DBE",
"y  c #355D5F100394",
"u  c #3DB75F921549",
"i  c #3D7F6E8A048A",
"p  c #3E635FE9174C",
"a  c #3F87610D1902",
"s  c #44EE789108DD",
"d  c #44C766F51DF0",
"f  c #4A5D7A26124E",
"g  c #16160AB54399",
"h  c #19C40E0E459B",
"j  c #1C1C139443C4",
"k  c #1DF913384B94",
"l  c #20A115154E4E",
"z  c #202019194545",
"x  c #24EC1AFE53C5",
"c  c #28281D1D5454",
"v  c #28A91E1E5959",
"b  c #282821214E4E",
"n  c #2B8124245555",
"m  c #2C5722B85C87",
"M  c #32322BAC5959",
"N  c #38873232543F",
"B  c #2EAF25256060",
"V  c #303026A761E2",
"C  c #336F2A1B6473",
"Z  c #35CB2D0269BF",
"A  c #38382EAF6C6C",
"S  c #373730306A6A",
"D  c #3A3A31E36D6D",
"F  c #3B3B333362E3",
"G  c #3D34351A73EF",
"H  c #3F3F383875F6",
"J  c #4A4A3CBD4ACB",
"K  c #40C138386EEF",
"L  c #404036366E6E",
"P  c #404037377676",
"I  c #43CE3ABB7636",
"U  c #459B3D3D7A24",
"Y  c #4A4A3E9478CE",
"T  c #49493E637608",
"R  c #4ACB420D5339",
"E  c #5B424CAE597E",
"W  c #623D75455081",
"Q  c #4D4D41A87710",
"!  c #4C8C43037A8F",
"~  c #51DE442773F4",
"^  c #5252459B794E",
"/  c #55D449717B6A",
"(  c #5C8F4DA37B59",
")  c #5C5C4D4D7575",
"_  c #6315534C7CCF",
"`  c #68BE56567BD1",
"'  c #6BE15A217D56",
"]  c #616A5DFA7528",
"[  c #72725E5E7ED4",
"{  c #702A7E93677F",
"}  c #767660607A7A",
"|  c #7E7E66667E7E",
" . c #84846C6C78F9",
".. c #848476767474",
"X. c #4BB986A704B2",
"o. c #4FE484540F72",
"O. c #50AC8EF30518",
"+. c #572092720CB6",
"@. c #5DC2A7E7086E",
"#. c #5B31B7270037",
"$. c #644BBCF3009C",
"%. c #63B9B2B20C62",
"&. c #68B4BCA30B3D",
"*. c #65E6B9B90586",
"=. c #6123A99B10DD",
"-. c #6610B55F1212",
";. c #6A50BBF51368",
":. c #5A6C88D42693",
">. c #66719D632019",
",. c #6D6DC57C052A",
"<. c #6E6DC961016A",
"1. c #6C6CC3830ACB",
"2. c #7151CA94061A",
"3. c #7394CB850991",
"4. c #7C7CCECE1818",
"5. c #7777CCCC1111",
"6. c #7D7391206998",
"7. c #8383CFCF2727",
"8. c #87DCD17C2D31",
"9. c #84E9C82B3115",
"0. c #8787C8C83F3F",
"q. c #8679CBEA30F7",
"w. c #8C8CD2273636",
"e. c #8F8FD3D33E3E",
"r. c #8D449CF56AD9",
"t. c #96C49D906960",
"y. c #8F1D81847F30",
"u. c #8CB7A6D168FA",
"i. c #9086A9C96A0F",
"p. c #94D5B2B1674C",
"a. c #8A8ACBCB4141",
"s. c #96E4D7B1490C",
"d. c #9BA3D02D58EA",
"f. c #95BBCCB0517A",
"g. c #9C9CD9D95353",
"h. c #505047478080",
"j. c #53534BA1822C",
"k. c #575750508686",
"l. c #5B9B51D284C4",
"z. c #5C5C56568888",
"x. c #6AC05A04832D",
"c. c #63D15B128A8A",
"v. c #6F6F62628989",
"b. c #74F564248545",
"n. c #7A4665468313",
"m. c #7CFD69698383",
"M. c #74A766998BF2",
"N. c #7C3C68688A0A",
"B. c #6BAB65E69353",
"V. c #6F6F6A6A9797",
"C. c #74746C6C9898",
"Z. c #79FA71719898",
"A. c #83C36C2C8444",
"S. c #8933711B8484",
"D. c #8575711489CD",
"F. c #8A3473738D37",
"G. c #909076F78606",
"H. c #99767C958640",
"J. c #95C87B7B89F0",
"K. c #838377779999",
"L. c #868678F997B7",
"P. c #92527CBC9353",
"I. c #9E9E80808787",
"U. c #989882829595",
"Y. c #964082829A9A",
"T. c #A43D851E8A8A",
"R. c #ABAB8BD48C43",
"E. c #A73B884B844A",
"W. c #B43391D18CCC",
"Q. c #BABA962F8C8C",
"!. c #BDBD98988E8E",
"~. c #A34D8933933D",
"^. c #A9E98E4E9494",
"/. c #A8A88F8F9898",
"(. c #A4A485859292",
"). c #A2A296969595",
"_. c #B4B494949090",
"`. c #BDBD9A9A92D2",
"'. c #B9399C1C9A9A",
"]. c #B838A1A19C9C",
"[. c #92928E8EA8A8",
"{. c #9F9F9191A8A8",
"}. c #96969191B3B3",
"|. c #A4A49191A121",
" X c #AF2F9C9CA8A8",
".X c #B8B89F9FA0A0",
"XX c #A3A39C9CB636",
"oX c #ADADA0A0AEAE",
"OX c #BABAA727A625",
"+X c #BABAA8A8B0B0",
"@X c #B4B4A6A6B4B4",
"#X c #C39C9DCA8E86",
"$X c #C3439F9F9212",
"%X c #C9C9A1A18B8B",
"&X c #C746B5AA8085",
"*X c #DDDDB0B08E8E",
"=X c #C5C5A1A19595",
"-X c #CB92A3F991CA",
";X c #CBCBACAC9393",
":X c #D126A650923C",
">X c #D5D5AB4492F9",
",X c #D9D9ADAD93E9",
"<X c #DDDDB1B19555",
"1X c #E322B5759555",
"2X c #E5E5B8B89616",
"3X c #EB51BBBB962F",
"4X c #F1F1BEBE9696",
"5X c #CCCCB0B0A8A8",
"6X c #BF34E62C9039",
"7X c #F3F3C1C19696",
"8X c #F729C4C49A33",
"9X c #F8F8C5C59A1A",
"0X c #F9F9C9C99F49",
"qX c #C343E8689616",
"wX c #E9E9CACAACAC",
"eX c #F94ECB75A3A3",
"rX c #F8F8CF4FAAAA",
"tX c #F8F8D0D0AD2D",
"yX c #F777D7D7A8A8",
"uX c #F95FD43AB3B3",
"iX c #F9F9D6D6BB65",
"pX c #F9F9D9D9BC3C",
"aX c #CCCCEA6AAAAA",
"sX c #D0D0EDEDADAD",
"dX c #B6B6B3B3CBCB",
"fX c #CECECCCCDADA",
"gX c #D9D9CECED2D2",
"hX c #D4D4D0D0DADA",
"jX c #DCDCD6D6DADA",
"kX c #D7D7D0D0D453",
"lX c #EAEAD6D6C0C0",
"zX c #FAFADD87C3EE",
"xX c #FBFBDEDEC9C9",
"cX c #DCDCF1F1C3C3",
"vX c #F7F7E1E1CBCB",
"bX c #FC7CE4E4CE4E",
"nX c #F0F0E4E4D3D3",
"mX c #FCFCE8E8D7D7",
"MX c #FD7DE868D717",
"NX c #E8E8F5F5DA5A",
"BX c #DADAD9D9E4E4",
"VX c #E3E3DE33E58F",
"CX c #E5E5E4E4ECEC",
"ZX c #EB6BE7E7E9E9",
"AX c #EF2FF826E536",
"SX c #F4F4FAFAECEC",
"DX c #FDFDF7F7ECEC",
"FX c #EEEEEDEDF2F2",
"GX c #F2F2EFEFF2F2",
"HX c #F8F8F6F6F6F6",
"JX c #F9F9FCFCF5F5",
"KX c #F7F7F6F6F9F9",
"LX c #F8F8F6F6F8F8",
"PX c #FEA0FEA3FEA8",
"IX c #F49EF39DF4F4",
"UX c None",
/* pixels */
"            .   .         .                               UXUXUX",
"  Z S Z D S Z S C C C B B m B m m x x x l k l k h g & .     UXUX",
"  D P P B.G D k.G A D A A C C B z.B B v v x x x k k h g @     UX",
". K I I I P P P I G U P G A D A Z C B B m m B n m x k h g .   UX",
"  I Z.Q Q Q I I I h.V.j.G G G G D A Z B V Z C XXK M c l h &   UX",
"  ~ / ~ ~ Q Q Q Q / }.j.I G G G G G A A Z Z G B.fXZ M c l :     ",
"  ) _ ( ( _ ( / / / / / Y I I P G G G G A G I ! FX[.K m x >     ",
"  ' ' ' b.M.M._ ( ( / c.^ Q T T I G I G G G Y j.jXFXF Z v >     ",
"  } n.m.m.LX{.M.' ` _ ( ( / ^ Q Y U I I G I j.z.BXPXl.G M j     ",
"   .|.S.P.oXU.m.} b.' ` ` _ ( / ^ Q Y I I U k.B.GXPXV.I C j     ",
"+ ..H.H.H.U.G.S.A.D.D.n.[ ' ` _ ( / / Y ! j.c.}.PXPXB.! Z z     ",
". E.R./.T.T.I.H.H. XoXF.m.n.n.x.x._ ( ( l.c.C.CXPXKXj.! D b     ",
"  Q.!.Q.Q.W.R.R.R.^.(.H.G.U.A.D.m.N.b.v.M.Z.hXPXPXdXk.U D b     ",
"  %X:X:X-X%X%X5XW.W.OX(.T.J.gX|.P.L.K.L.XXCXPXPXLXc.k.U G n     ",
"  *X3X1X<X,X>X:X%X#XQ.$XR./.(.LXGXVXVXIXPXPXPXKXK.c.! U G n     ",
"o 7X8X9X8X7X2X1X1X,X-X#X$X`.'.T.gXPXPXPXPXPXhXK.M.z.c.V.I M     ",
". wXuXrXtXeXeX8X4X3X1X,X>X=X`.]._./.+X+XoXY.Z.N.x.z.! T I M     ",
"  lXxXzXzXpXuXuXeXeX4X3X1X,X;X=X`.'..X/.~.P.S.m.] _ ) ~ Q M     ",
"  nXMXbXvXxXxXzXpXuXrX0X8X3X1X>X-X$X_./.H.I.t.i.p.u.6.] Q M     ",
"  CXgXjXZXLXDXmXMXzXiXuXrXeX7X1X,X-X#XE.t.d.8.4.5.4.7.f.{ N     ",
"  X X X + o - J ..OXnXbXiXtXeX8X3X<X#Xt.w.3.2.2.2.<.s.g.w.W     ",
"  , * = = = = * # # = E ].vXpXtXyXyX&Xq.3.2.2.3.<.8.AX6X<.9.%   ",
"  = * * = * * * * = * # # 3 ..). .R :.5.2.3.3.2.2.qXJX<.2.5.f   ",
"  , = = = = = = = - = = - = * * e E >.2.2.3.2.2.w.SXg.<.3.2.X.O ",
"  5 2 2 2 2 2 2 < 2 2 < 2 2 2 2 < 1 +.3.3.<.<.3.sXcX5.3.2.3.O.O ",
"  4 3 3 3 3 3 3 3 3 3 3 3 3 3 5 3 3 o.,.7.qXs.e.JXg.,.,.2.1.s O ",
"  1 4 9 9 9 9 9 9 9 9 9 9 9 9 9 9 0 f &.$.sXHXNXaX1.,.,.,.&.i O ",
"  o q q q q q q q q q q q q q q q q 8 @.&.#.NXAXa.$.&.&.1.@.$   ",
"    ; t r w r r w r r r r w w w w r r d -.;.;.0.*.;.&.;.%.u     ",
"UX    o 6 0 0 0 0 0 0 0 0 0 0 0 0 0 0 7 a =.-.-.-.-.%.@.u 6     ",
"UXUX                                      $ y s s i y $         ",
"UXUXUXUX                                        O O           UX"
};
