/* XPM */
static char *tatan[] = {
/* columns rows colors chars-per-pixel */
"32 32 222 2 ",
"   c #5B2BA9BB0CE3",
".  c #5C00B8000000",
"X  c #61E4ACFE06EB",
"o  c #6116ACFE09E7",
"O  c #7912AD460A71",
"+  c #6363B7B70404",
"@  c #62FFBB000201",
"#  c #6565BFBF0000",
"$  c #6868BBBB0707",
"%  c #6262B1B10909",
"&  c #6363B1B10F0F",
"*  c #6565B4B40D0D",
"=  c #6868BCBC0808",
"-  c #6868BCBC0909",
";  c #6868BDBD0B0B",
":  c #6A92BF000A90",
">  c #6868BBBB0E0E",
",  c #6868BABA0F0F",
"<  c #7CC0BB0D04FC",
"1  c #7E7EB061095E",
"2  c #6011AEA215B5",
"3  c #6565B2B21111",
"4  c #6565B5B51010",
"5  c #6767B7B71515",
"6  c #68FFBD001101",
"7  c #6969BCBC1212",
"8  c #6A6AB9B91717",
"9  c #6C69BE0014A0",
"0  c #701ABA381B28",
"q  c #57EBB3EC389F",
"w  c #6E6EB35B241B",
"e  c #6CBEBC5F23CD",
"r  c #6A6AC6C60000",
"t  c #6D6DC4C40303",
"y  c #6B6BC1C10707",
"u  c #6C6CC1C10606",
"i  c #6F6FC7C70606",
"p  c #6F6FC7C70707",
"a  c #6B6BC8C80000",
"s  c #6D6DC8C80000",
"d  c #6F6FC9C90202",
"f  c #6B6BC3C30909",
"g  c #6E6EC2C20B0B",
"h  c #6E6EC6C60808",
"j  c #6969C0C00F0F",
"k  c #7000C9FF0200",
"l  c #7070C9C90404",
"z  c #7070CACA0404",
"x  c #7100CAFF0400",
"c  c #7171CACA0707",
"v  c #7200CAFF0700",
"b  c #7300CAFF0700",
"n  c #7272CBCB0707",
"m  c #7272CACA0808",
"M  c #7300CAFF0800",
"N  c #7272CBCB0808",
"B  c #7373CBCB0808",
"V  c #7272CBCB0909",
"C  c #7373CBCB0909",
"Z  c #7373CACA0B0B",
"A  c #7400CBFF0900",
"S  c #7575CBCB0B0B",
"D  c #7575CBCB0E0E",
"F  c #7676CBCB0F0F",
"G  c #7575CCCC0C0C",
"H  c #7575CCCC0D0D",
"J  c #7777CCCC1111",
"K  c #7C7CCECE1818",
"L  c #76FEC5CB2387",
"P  c #2BF5BD3571DB",
"I  c #3316BE287014",
"U  c #55E9B29441DB",
"Y  c #5ABDBC5842DE",
"T  c #701BC9E14067",
"R  c #7B7BCE3E746D",
"E  c #864DBD7A0489",
"W  c #8AF8BC060381",
"Q  c #9848BBD30255",
"!  c #8406BC112B49",
"~  c #8AD6C5CB0489",
"^  c #9A9DCB401071",
"/  c #8383CFCF2525",
"(  c #8383CFCF2929",
")  c #87CCCE342D5A",
"_  c #8787D0D02C2C",
"`  c #87FFD2FF2F01",
"'  c #8AD6CE342FD7",
"]  c #8787C8C83F3F",
"[  c #8B8BD0D03535",
"{  c #8C8CD0D03636",
"}  c #8D8DD4D43737",
"|  c #8F8FD3D33E3E",
" . c #B6C3CE3E2722",
".. c #BC46D042304B",
"X. c #C10CD0DD014B",
"o. c #CF31DA680EDB",
"O. c #EC58EFD70049",
"+. c #EFE1F21A0013",
"@. c #F056F1780134",
"#. c #F507F774002A",
"$. c #F54EF7E50038",
"%. c #F66EF8640024",
"&. c #F7B4F82A0000",
"*. c #F8F8F8F80000",
"=. c #FA74FC700020",
"-. c #FAD1FC47000E",
";. c #FADDFCD100B1",
":. c #FEFEFEFE0000",
">. c yellow",
",. c #F6F6FFFF1010",
"<. c #FBFBFFFF1010",
"1. c #FCFCFFFF1010",
"2. c #DEDEFFFF3030",
"3. c #DACBF7F73E3C",
"4. c #EBEBFFFF2020",
"5. c #EEEEFFFF2020",
"6. c #FBFBFFFF2020",
"7. c #E0E0FFFF3030",
"8. c #E4E4FFFF3030",
"9. c #E9E9FFFF3030",
"0. c #FBFBFFFF3030",
"q. c #8A8ACBCB4141",
"w. c #91FFD6FF4100",
"e. c #9797D6D64B4B",
"r. c #9A9AD9D94F4F",
"t. c #99ABD24B5050",
"y. c #9A9AD7D75151",
"u. c #9EA9D43D551B",
"i. c #9E9EDBDB5555",
"p. c #BFBFFFFF4040",
"a. c #BEBEFFFF5050",
"s. c #8455D0826ED5",
"d. c #90D5D3176DB2",
"f. c #839ECFB4768B",
"g. c #83D7D33E7F40",
"h. c #91D7E06278BE",
"j. c #BDBDFFFF6060",
"k. c #B2B2FFFF7070",
"l. c #C6C6FFFF4040",
"z. c #DFDFFFFF4040",
"x. c #C8C8FFFF5050",
"c. c #E1E1FFFF4040",
"v. c #EAEAFFFF4040",
"b. c #EEEEFFFF4040",
"n. c #F3F3FFFF4040",
"m. c #F7F7FFFF4040",
"M. c #C1C1FFFF6060",
"N. c #3F12D44C88D4",
"B. c #1AB4D145AE4E",
"V. c #23D8D44CA9F5",
"C. c #2F35DA1BB56D",
"Z. c #3E3CF7F7B9BB",
"A. c #5BC4D08298AE",
"S. c #6FE7D3178BAD",
"D. c #7070FFFF8F8F",
"F. c #7777FFFF8F8F",
"G. c #7E7EFFFF8F8F",
"H. c #7272FFFF9F9F",
"J. c #7E7EFFFF9F9F",
"K. c #5959FFFFAFAF",
"L. c #4040FFFFBFBF",
"P. c #4747FFFFBFBF",
"I. c #4B4BFFFFBFBF",
"U. c #7272FFFFAFAF",
"Y. c #6161FFFFBFBF",
"T. c #6A6AFFFFBFBF",
"R. c #6C6CFFFFBFBF",
"E. c #7373FFFFBFBF",
"W. c #3D4AE018C7FC",
"Q. c #3E3EFFFFCFCF",
"!. c #3737FFFFDFDF",
"~. c #0471EFBFE830",
"^. c #0205F11CECEC",
"/. c #0257F178EF21",
"(. c #033FF6D8F12C",
"). c #035DF7D7F21B",
"_. c #06E2F4B3F29B",
"`. c #00DAF87CF735",
"'. c #027DFC78F827",
"]. c #0569FA0BF85E",
"[. c #0000F8F8F8F8",
"{. c #02D6FCC1F888",
"}. c #036BFD05FB6C",
"|. c #0000FEFEFF05",
" X c cyan",
".X c #0707FFFFFFFF",
"XX c #0A0AFFFFFFFF",
"oX c #0C0CFFFFFFFF",
"OX c #1C1CFFFFFFFF",
"+X c #2323FFFFEFEF",
"@X c #2727FFFFEFEF",
"#X c #3333FFFFEFEF",
"$X c #2828FFFFFFFF",
"%X c #47B5FD05CC9D",
"&X c #4646FFFFCFCF",
"*X c #5C5CFFFFCFCF",
"=X c #4E4EFFFFDFDF",
"-X c #8080FFFF8080",
";X c #8787FFFF8080",
":X c #8383FFFF8F8F",
">X c #9C9CFFFF8080",
",X c #9797FFFF8F8F",
"<X c #9292FFFF9F9F",
"1X c #C000E6FF8FFF",
"2X c #A6A6FFFF8080",
"3X c #AFAFFFFF8080",
"4X c #B0B0FFFF8080",
"5X c #B6B6FFFF8080",
"6X c #C1C1E7E79494",
"7X c #C4C4E8E89797",
"8X c #CACAE9E9A7A7",
"9X c #CECEEAEAADAD",
"0X c #D0D0EDEDADAD",
"qX c #DCDCF1F1C3C3",
"wX c #E5E5F3F3D5D5",
"eX c #EBEBF7F7DEDE",
"rX c #EFF6F8FFE50E",
"tX c #F3F3FAFAEBEB",
"yX c #F5F5FAFAEDED",
"uX c #F9F9FCFCF4F4",
"iX c #F9F9FCFCF6F6",
"pX c #FBFBFDFDF8F8",
/* pixels */
">.>.>.>.>.>.>.>.>.>.>.>.>.>.>.>.>.>.>.>.>.>.>.>.>.>.>.>.>.>.>.>.",
">.>.>.>.>.>.>.>.>.>.>.>.>.>.>.>.>.>.>.>.>.>.>.>.>.>.>.>.>.>.>.>.",
">.>.>.>.>.>.>.>.>.>.>.>.>.>.>.>.>.>.>.>.>.>.>.>.>.>.>.>.>.>.>.>.",
">.>.>.>.>.>.>.>.>.>.>.>.>.>.>.>.>.>.>.>.>.>.>.>.>.>.>.>.>.>.>.>.",
">.>.>.>.>.>.>.>.>.>.>.>.>.>.>.>.>.>.>.>.>.>.>.>.>.>.>.>.>.>.>.>.",
">.>.>.>.>.>.>.>.>.>.>.>.>.>.>.>.>.>.>.>.>.>.>.>.>.>.>.>.>.>.>.>.",
">.>.>.>.>.>.>.>.>.>.>.>.>.>.>.>.>.>.>.>.>.>.>.>.>.>.>.>.>.>.>.>.",
">.>.>.>.>.>.>.>.>.>.>.>.>.>.>.>.>.>.>.>.>.>.>.>.>.>.>.>.>.>.>.>.",
">.>.>.>.>.>.>.>.>.>.>.>.>.>.>.>.>.>.>.>.>.>.>.>.>.>.>.>.>.>.>.>.",
">.>.>.>.>.>.>.>.>.>.>.>.>.>.>.>.>.>.>.>.>.>.>.>.>.>.>.>.>.>.>.>.",
">.>.>.>.>.>.>.>.>.>.>.>.>.>.>.>.>.>.>.>.>.>.>.>.>.>.>.>.>.>.>.>.",
">.>.>.>.>.>.>.>.p.1.>.>.>.>.>.>.>.>.>.>.>.>.>.>.>.>.>.>.>.>.>.>.",
">.>.>.>.>.>.>.U. XR.>.>.>.>.>.>.>.>.>.>.>.>.>.>.>.>.>.>.>.>.>.>.",
">.>.>.>.>.>.>.P. X$X>.>.>.>.>.>.>.>.>.>.>.>.>.>.>.>.>.>.>.>.>.>.",
">.>.>.>.>.>.>.Y. XOX>.>.>.>.>.>.>.>.>.>.>.>.>.>.>.>.>.>.>.>.>.>.",
">.>.>.>.>.>.>.T. XOX>.>.>.>.>.>.>.>.>.>.>.>.>.>.>.>.>.>.>.>.>.>.",
">.>.>.7.I.I.-X!. XoXG.L.L.H.<.>.>.>.>.>.x.F.L.%XD.x.>.>.>.>.>.>.",
">.>.>.E. X X X X X X X X X X4X>.>.>.9.&X X X[.].(.).%X,.>.>.>.>.",
">.>.>.k.XX X X X X X XQ.L.I.4.>.>.8.+X X[.W.s.d.g.S.A.h.*.>.>.>.",
">.>.>.>.>.5.p.*X X X0.>.>.>.>.>.<.#X X/.f.u._ K S K / t...@.>.>.",
">.>.>.>.>.>.>.J. X Xm.>.>.>.>.>.<X X[.R { H v v v d w.i.[  .*.>.",
">.>.>.>.>.>.>.;X X Xn.>.>.>.>.>.@X XC.) S v B B d ` yX1Xa ' o.>.",
">.>.>.>.>.>.>.>X X Xb.>.>.>.>.b. X{.T D v B v B l 7XiXr B D ^ ;.",
">.>.>.>.>.>.>.2X X Xv.>.>.>.>.l. X).L B S v B d } tXr.k B v ~ $.",
">.>.>.>.>.>.>.3X X Xc.>.>.>.>.l. X~.0 B B v d B 0XqXJ B B B < O.",
">.>.>.>.>.>.>.3X X Xz.>.>.>.>.c. X(.e t ( 6Xe.| pXy.i i i h E #.",
">.>.>.>.>.>.>.4X X Xp.>.>.>.>.6.XX'.Y = # 9XiXeX8Xg y y f = W *.",
">.>.>.>.>.>.>.5X X Xa.>.>.>.>.>.=X XB.  = . wXrXq.@ = : j X X.>.",
">.>.>.>.>.>.>.4X X Xj.>.>.>.>.>.M. X[.I * , 9 ] + > 7 7 % Q %.>.",
">.>.>.>.>.>.>.3X X Xv.>.>.>.>.>.>.,X.X^.P 2 3 4 8 5 &   ! @.>.>.",
">.>.>.>.>.>.>.5.K.:X>.>.>.>.>.>.>.>.2.h.Z.N.q w O 1 U V.3.>.>.>.",
">.>.>.>.>.>.>.>.>.>.>.>.>.>.>.>.>.>.>.;.>.>.;.%.@.%.*.>.>.>.>.>."
};
