/* XPM */
static char *teeworlds[] = {
/* columns rows colors chars-per-pixel */
"32 32 256 2 ",
"   c #01EE01C70150",
".  c #0BD90A3D02D0",
"X  c gray4",
"o  c #11110D0D0808",
"O  c #11110E0E0505",
"+  c #141411920101",
"@  c #14BF11BC0B61",
"#  c #1C72176D0DB8",
"$  c #0F0F12121212",
"%  c #192E192E190F",
"&  c #24241E9E0909",
"*  c #22CD1E741369",
"=  c #31B22B5E02D0",
"-  c #3ABB32B30303",
";  c #2E2E2C2C1212",
":  c #2875233D178B",
">  c #31B22CAD1010",
",  c #3DE833331C72",
"<  c #22A322822282",
"1  c #28D326D12323",
"2  c #2B2B282822A3",
"3  c #2CAD2C6C2C6C",
"4  c #35D132E7267C",
"5  c #348A31312AD5",
"6  c #357535753535",
"7  c #383836B73434",
"8  c #393938383737",
"9  c #3C3C3C5C3AFB",
"0  c #35353D3D3A3A",
"q  c #4C033D86236C",
"w  c #40403C3C3737",
"e  c #41C23F3F3BBC",
"r  c #3E3E41413A3A",
"t  c #4E4E43C40606",
"y  c #5B5B4D4D0909",
"u  c #551549890808",
"i  c #5D5D50500808",
"p  c #676759590808",
"a  c #676759590384",
"s  c #65E657571A9A",
"d  c #737364640101",
"f  c #7D4A6C6C0B3E",
"g  c #737363E40C8D",
"h  c #6E6E61611313",
"j  c #4DA3414123CE",
"k  c #5C5C4D4D2929",
"l  c #555548082869",
"z  c #444442423F3F",
"x  c #595950503737",
"c  c #60604B4B2828",
"v  c #69BF5B5B23CE",
"b  c #6DEE54D52929",
"n  c #7979565623A4",
"m  c #71C75C5C3333",
"M  c #5C4E69723749",
"N  c #7D7D69BF2828",
"B  c #797961613333",
"V  c #3D3D47474545",
"C  c #4545452E44B9",
"Z  c #484848484646",
"A  c #4D174D174CF7",
"S  c #45C648484747",
"D  c #5A5A53534C4C",
"F  c #5290523B523B",
"G  c #5BB15BAB5B53",
"H  c #51515D5D5B5B",
"J  c #65E65C1C4ACB",
"K  c #64645D5D5555",
"L  c #6B6B61614848",
"P  c #6003778C4145",
"I  c #688462B85A93",
"U  c #717169695F5F",
"Y  c #6A6A6A146969",
"T  c #640E640E62B8",
"R  c #7C7C73736060",
"E  c #666675757373",
"W  c #72727272721C",
"Q  c #7C7C7C7C7C7C",
"!  c #870775750303",
"~  c #860574740BCB",
"^  c #90907D7D0303",
"/  c #81816D6D2F2F",
"(  c #848463632D2D",
")  c #874E6D343AC9",
"_  c #878770703D3D",
"`  c #8C37731D3A0F",
"'  c #939370703838",
"]  c #ABAB7B7B3838",
"[  c #858571714343",
"{  c #818171F24BCC",
"}  c #8C3675754242",
"|  c #92B47C164635",
" . c #90907F7F5757",
".. c #A7A77F7F4242",
"X. c #87877D7D7171",
"o. c #5EB3A9BF0991",
"O. c #5B8EB78D008D",
"+. c #6187AB580BE5",
"@. c #64A9BD5600F7",
"#. c #63B9B2B20C62",
"$. c #68D7BCC70B5F",
"%. c #65E6B9B90586",
"&. c #6612AE9D15B0",
"*. c #7BC7A7E412D0",
"=. c #6610B55F1212",
"-. c #6AB4BC5D13CA",
";. c #78E8AD1E3D7B",
":. c #7C9BBAEA3104",
">. c #6D6DC57C052A",
",. c #6E3BC9620134",
"<. c #6C6CC3830ACB",
"1. c #7159CA9A05A1",
"2. c #73A1CB8D098F",
"3. c #7C7CCECE1818",
"4. c #7777CCCC1111",
"5. c #6ECC93664502",
"6. c #7F0EB02D4742",
"7. c #991985850081",
"8. c #9A9A86300DB8",
"9. c #9D9D89090D8E",
"0. c #979782820D0D",
"q. c #A3B18E380E8F",
"w. c #A3A38E8E0101",
"e. c #AB2B95140081",
"r. c #A5FB90900F0F",
"t. c #A8A892920F0F",
"y. c #B4B49D9D00AB",
"u. c #852FAEF114A9",
"i. c #BBBBA3A30101",
"p. c #91FAAC802367",
"a. c #827CBD5C3B64",
"s. c #842DA8732817",
"d. c #CF4FB5B50101",
"f. c #D151B6B60182",
"g. c #C2C28C8C3F3F",
"h. c #D6539B2B3D79",
"j. c #856FCDD82C19",
"k. c #8383CFCF2525",
"l. c #880AD1A62D43",
"z. c #84C2C81F30CA",
"x. c #8787C8C83F3F",
"c. c #8C8CD2273636",
"v. c #8F8FD3D33E3E",
"b. c #99EF81814646",
"n. c #9E1E85854848",
"m. c #A50B8AF14BE5",
"M. c #A9298E0E4DCE",
"N. c #A1A180804242",
"B. c #B3B38D8D4747",
"V. c #BABA96964F4F",
"C. c #A0A086865050",
"Z. c #AE2E92125151",
"A. c #B6B6991953D4",
"S. c #BC5C9CBC55B5",
"D. c #B1B196965454",
"F. c #84CEB8384866",
"G. c #8ED6A1105D19",
"H. c #8A7FBB5850FD",
"J. c #893DB2FE576E",
"K. c #BEBEA1A15858",
"L. c #ADB1BD585C3B",
"P. c #B248B47656F5",
"I. c #8E8E85857979",
"U. c #8E4E82E274F5",
"Y. c #A0FF8AFF6406",
"T. c #B415977B680C",
"R. c #9869BB9C6E9B",
"E. c #9A07BCDD7182",
"W. c #B92DB8376007",
"Q. c #DDAB9DD34310",
"!. c #D0D099994C4C",
"~. c #C6C69ADA5616",
"^. c #DFB0A06C40BC",
"/. c #C3C3A2A258D9",
"(. c #CD22AC015E5E",
"). c #C763A7DA5341",
"_. c #D151ADAD5F5F",
"`. c #E743A28343A4",
"'. c #E920A3804452",
"]. c #E9E9A6A64ACA",
"[. c #E456A4E74BB6",
"{. c #ECECAEAE5858",
"}. c #E9C8AD30548B",
"|. c #ECEEB274534A",
" X c #F272B73758D9",
".X c #F3F3BB965D5D",
"XX c #C6C6A2226A6A",
"oX c #D252AFAF6060",
"OX c #D52AA82765E6",
"+X c #D47EB1DC628D",
"@X c #DADAB60B630D",
"#X c #D3C2B74167F9",
"$X c #E3E3BCBC6868",
"%X c #8A8ACBCB4141",
"&X c #96FBCDAF4FB1",
"*X c #96E7D7B548F4",
"=X c #9C6BD4D45448",
"-X c #9E9EDBDB5555",
";X c #E79AC17A69E3",
":X c #EE32C67D6CF3",
">X c #EEEEC8C86E6E",
",X c #F472C1ED6319",
"<X c #F473CBCB6F2F",
"1X c #FA4FCB756D42",
"2X c #F696CD6D70FA",
"3X c #FB5ECF24720E",
"4X c #FE7ED1DF7410",
"5X c #757587878484",
"6X c #8282822C8181",
"7X c #89B989058676",
"8X c #90908F8F8D8D",
"9X c #93938C0C8282",
"0X c #989891918888",
"qX c #9A5A9A1A9959",
"wX c #931393539353",
"eX c #A1A19D9D9696",
"rX c #A1A1A0A09D9D",
"tX c #AB47B67E9DA3",
"yX c #9797AEAEAAAA",
"uX c #A7A7A6A6A4A4",
"iX c #A71CA9E7A342",
"pX c #AEAEABABA5A5",
"aX c #ABE7ACC3AA4F",
"sX c #AF76B10EAD0D",
"dX c #B1B1B131ADAD",
"fX c #B26AB24AB208",
"gX c #B8B8B6B6B3B3",
"hX c #BABAB9B9B68B",
"jX c #BD67BCF5BB9E",
"kX c #BFFEE6D19073",
"lX c #C343E8689616",
"zX c #C07BD053AE6C",
"xX c #C242C141BEBE",
"cX c #C5AFD3BDB52C",
"vX c #CCCCEA6AAAAA",
"bX c #D0D0EDEDADAD",
"nX c #C713C713C713",
"mX c #D2D2D2D2D2D2",
"MX c #DDE7DD9FDDC3",
"NX c #C5C5D7D7D4D4",
"BX c #DCDCF1F1C3C3",
"VX c #C443E161DCDC",
"CX c #E8E8F5F5DA5A",
"ZX c #CBCBE9E9E4E4",
"AX c #D3D3EEEEEAEA",
"SX c #D37DF146EC41",
"DX c #ED57EE13ECAC",
"FX c #E2A2E2A2E2A2",
"GX c #EFF4F8F4E5F4",
"HX c #EF11F13AED2E",
"JX c #F4F4FAFAECEC",
"KX c #F5CDF5E5F5B0",
"LX c #F9F9FCFCF5F5",
"PX c #F49EFAA4F9F9",
"IX c #FF12FF2BFF02",
"UX c #E8E8F7F7F5F5",
/* pixels */
"  A X   % % 9 6 C <   A S 6 < : < 8 A A F A A A A A A A A A A C ",
"A jX< C G T jXhXmXW % T F e 4 4 5 9 G qXmXPXIXPXPXIXIXKXhXmXnXaX",
"6 Y < G G G jXhXjX6X# k ` B.~.~.S...m , 8 7XMXIXIXIXIXuX3 3 % 9 ",
". k [ [ x C hXgXgXpXK D.1X4X4X3X3X1X<X@X[ q A jXIXIXMXA 6 C < % ",
"j >X3X4X+XL dXxXgXnXqXC.4X4X4X4X4X4X4X4X3X/.j 0 hXIXPXG C rXW 1 ",
"q 1X4X4X<X{ uXhXnXMXfXC.<X4X4X4X4X4X4X4X4X4XoXl 9 nXjXZ 7XgXgXY ",
"q 3X4X4X1X .qXhXmXMXnX{ <X4X4X4X4X4X4X4X4X4X4XoXq A A T gX0X9XW ",
"q 3X4X4X3Xm.8XdXjXMXgX{ >X4X4X4X4X4X4X4X4X4X4X4X..o Z dXeXU.U.K ",
"q 3X4X4X4XD.I I G 8XR D.4X4X4X4X4X4X4X4X4X4X4X4X Xm 7XaXX.I.I.D ",
"q 3X4X4X4XoXj b.Z.K.+X3X4X4X<X4X4X4X4X4X4X4X4X4X X] K X.X.I.X.2 ",
"q 3X4X4X4XA.} 1X4X4X4X4X4X/.| <X4X4X4X4X4X4X4X4X.XQ.J X.X.X.w @ ",
"* m.oX_.m._ (.4X4X4X4X4X:Xc + b.4X4X4X4X4X4X4X4X.X].) I X.D < G ",
"  & B } M.@X4X4X4X4X4X4XK.#   * _.4X4X4X4X4X4X4X{.`...J U 2 6XaX",
"  & ` S.>X4X4X4X4X4X4X4X[     : +X4X4X<X3X3X4X3X{.`.~.w 3 D FXfX",
"= 7.^ f / (.4X4X4X4X4X1Xm   @ b.4X4X$X) | _.3X1X].`.~.* 3 hXIXfX",
"- y.d.d.7.N A.4X4X4X4X4Xn., | 4X4X4XM.o   : S..X`.`.OX2 Q IXIXfX",
"+ y d i.d.e./ $X4X4X4X4X3X;X4X4X4X4X_     , _.|.'.`.XX: 6XIXIXfX",
"= 9.p a w.d.~ n.4X4X4X4X4X4X4X4X4X4X@X| k m.,X`.Q.[.T.@ T DXIXfX",
"= q.r.~ a e.y.N 4X4X4X4X4X4X4X4X4X4X4X4X$X#XP.L.L.L.G.4 F DXIXfX",
"= 9.q.r.g d i.N 4X4X4X4X4X4X4X4X4X4X4X:XW.=Xl.3.4.3.k.&XM 7XIXfX",
"= 9.q.q.8.y ! ` 4X4X4X4X4X4X4X4X4X4X3XP.c.4.1.1.2.,.v.-Xc.P MXfX",
"= q.q.r.q.u u S.4X4X4X4X3X4X4X4X4X4X).j.2.1.2.2.,.l.JXkX,.z.tXfX",
"= q.r.q.0.- ( ,X3X3X4X4X4X3X1X3X,X|.p.2.2.2.2.1.,.lXPX,.2.4.H.sX",
"= q.r.8.y n Q.`.}. X.X.X.X.X{.].'.^.u.2.2.1.1.1.c.JX-X,.2.2.:.aX",
". t t = . n `.`.'.'.`.'.'.`.'.'.'.h.*.1.2.1.,.2.bXBX4.1.2.2.:.iX",
"$ V 0 H E 9 b g.'.`.'.'.'.'.'.'.'.h.*.>.k.lX*Xv.LX-X>.>.1.>.F.aX",
"S VXVXZXSX5X# s ' !.].`.'.'.'.'.].}.s.%.@.bXKXCXvX<.<.<.>.%.H.sX",
"S AXSXSXSXyX; ! h v _ M.~._.OXOXXXY.M o.$.O.CXGX%X@.%.<.$.#.zXdX",
"A KXPXPXUXNXr p t.8.~ h s v v l * 6 G 5.=.$.-.%X%.$.-.-.#.R.KXfX",
"A IXIXIXIXPXwX; f q.r.q.q.8.f = 3 fXKXDXE.&.=.=.-.=.#.+.E.HXIXfX",
"A IXIXIXIXIXUXQ > i ~ ~ f t & z aXIXIXIXPXcXJ.6.6.6.J.cXKXIXIXfX",
"C aXfXfXfXfXfXpXZ . . + . X 9 wXdXdXfXfXfXfXfXaXiXiXsXfXfXfXfXW "
};
