/* XPM */
static char *tkdiff[] = {
/* columns rows colors chars-per-pixel */
"32 32 251 2 ",
"   c #5B8735A23E72",
".  c #7FC227C129F5",
"X  c #03A735C4558C",
"o  c #0F2E3EDA75A5",
"O  c #5A88384F4035",
"+  c #4F0A3C695F7F",
"@  c #63E73B46437E",
"#  c #78803EAF46F8",
"$  c #702536D549EB",
"%  c #326C4197537B",
"&  c #1123415B79FB",
"*  c #114B45F07D5D",
"=  c #19A446B17B6E",
"-  c #3AAA4A046B0B",
";  c #2BDD59B5698A",
":  c #35784A8D7BCF",
">  c #36424CEB7AF9",
",  c #3D014A807A88",
"<  c #59EE4557515E",
"1  c #7BE644854B29",
"2  c #73105AC53FD3",
"3  c #607B48E45B3A",
"4  c #66694CF259FC",
"5  c #754343CF5BAB",
"6  c #4C134BE0797B",
"7  c #759D45FB5FEC",
"8  c #7A6A4C376B93",
"9  c #6DC5592A6F8B",
"0  c #714C54B66020",
"q  c #783F574967CC",
"w  c #7D955FDD65F1",
"e  c #6D065358767F",
"r  c #74F351F8723B",
"t  c #7C71575777EF",
"y  c #4FDF7CD160DA",
"u  c #547B7D8E69FA",
"i  c #8A7F27522887",
"p  c #9013239323FB",
"a  c #9A2123842499",
"s  c #915A26B22A9F",
"d  c #9CE228D42A08",
"f  c #801E2E6332F0",
"g  c #92E32E362FF0",
"h  c #804634943920",
"j  c #A45B240924CB",
"k  c #A18026E927B1",
"l  c #A6A8276927E2",
"z  c #A4BA2AB32CA1",
"x  c #AD9728AB2A47",
"c  c #B57F20392177",
"v  c #B5B126942764",
"b  c #BF1D22852334",
"n  c #B8C627A5277C",
"m  c #B9CB33573879",
"M  c #C706256F272D",
"N  c #C91B26722865",
"B  c #C18128FB28B4",
"V  c #CD94291A2B99",
"C  c #D1512D6A2F63",
"Z  c #C58530DC32E6",
"A  c #C9B1362C3901",
"S  c #D436370738F0",
"D  c #D31438C83A9C",
"F  c #D69038BC3B3C",
"G  c #D81B3B563EC9",
"H  c #D8453CD73F56",
"J  c #A9703C5144D9",
"K  c #B0E93F0E47D6",
"L  c #D61D3FB24422",
"P  c #DA9A3E67437B",
"I  c #9EF941614E06",
"U  c #998647B44FB8",
"Y  c #96174B044F26",
"T  c #8B3147015723",
"R  c #8CE94D7A55A0",
"E  c #90894D085591",
"W  c #A03C421F49CE",
"Q  c #AD524D7C5F5E",
"!  c #B3DC4E595C51",
"~  c #885E4D5368DB",
"^  c #88AD59C8725C",
"/  c #88AA591D74A0",
"(  c #BE965C3A6327",
")  c #B74660E96718",
"_  c #DCFF44654883",
"`  c #C28F49FC59BF",
"'  c #C2514ED45FCC",
"]  c #DF074B1552AD",
"[  c #DF9D4C4A5106",
"{  c #CA4956B35B39",
"}  c #E3D046BC4B5E",
"|  c #E2F548DA4CC4",
" . c #E7B549084E47",
".. c #E45053A957C4",
"X. c #D5E35D5162D1",
"o. c #4B4B88880303",
"O. c #4D4D8A8A0404",
"+. c #4D4D8A8A0606",
"@. c #4E4E8C8C0404",
"#. c #4F4F8E8E0808",
"$. c #50508E8E0606",
"%. c #525294940707",
"&. c #58589E9E0505",
"*. c #575798980D0D",
"=. c #585898980F0F",
"-. c #475081071D97",
";. c #559B9AED1BD4",
":. c #5D5DA7A70707",
">. c #5E5EA7A70606",
",. c #5F5FABAB0707",
"<. c #5F58AA1E0A47",
"1. c #5B5BB7B70000",
"2. c #6161ACAC0606",
"3. c #6464B2B20606",
"4. c #6363B7B70404",
"5. c #6363BABA0101",
"6. c #6565BFBF0000",
"7. c #6868BBBB0707",
"8. c #6262B1B10909",
"9. c #6363B1B10F0F",
"0. c #6565B4B40D0D",
"q. c #6868BCBC0808",
"w. c #6868BCBC0909",
"e. c #6868BDBD0B0B",
"r. c #6A6ABEBE0A0A",
"t. c #6868BBBB0E0E",
"y. c #6868BABA0F0F",
"u. c #6262ACAC1010",
"i. c #6565B2B21111",
"p. c #6565B5B51010",
"a. c #6767B7B71515",
"s. c #6969BCBC1010",
"d. c #6969BCBC1212",
"f. c #6A6AB9B91717",
"g. c #6C6CBDBD1414",
"h. c #6B6BB2B21818",
"j. c #49718D512156",
"k. c #560D994B23BB",
"l. c #53738FA835BC",
"z. c #6A6AC6C60000",
"x. c #6D6DC4C40303",
"c. c #6B6BC1C10707",
"v. c #6C6CC1C10606",
"b. c #6F6FC7C70606",
"n. c #6F6FC7C70707",
"m. c #6B6BC8C80000",
"M. c #6D6DC8C80000",
"N. c #6F6FC9C90202",
"B. c #6B6BC3C30909",
"V. c #6E6EC2C20B0B",
"C. c #6E6EC6C60808",
"Z. c #6969C0C00F0F",
"A. c #7070C9C90404",
"S. c #7070CACA0404",
"D. c #702BCA6104AB",
"F. c #7118CA470784",
"G. c #7218CA470784",
"H. c #7171CACA0707",
"J. c #7272CBCB0707",
"K. c #7218CA470884",
"L. c #7272CACA0808",
"P. c #7272CBCB0808",
"I. c #7373CBCB0808",
"U. c #7272CBCB0909",
"Y. c #7373CBCB0909",
"T. c #7338CB7409C8",
"R. c #7373CACA0B0B",
"E. c #7575CBCB0B0B",
"W. c #7575CBCB0E0E",
"Q. c #7676CBCB0F0F",
"!. c #7575CCCC0C0C",
"~. c #7575CCCC0D0D",
"^. c #7777CCCC1111",
"/. c #7C7CCECE1818",
"(. c #7C7CA6A64646",
"). c #8383CFCF2525",
"_. c #8383CFCF2929",
"`. c #8787D0D02C2C",
"'. c #8888D2D22E2E",
"]. c #8191C9293086",
"[. c #8787CCCC3131",
"{. c #8787C8C83F3F",
"}. c #8B8BD0D03535",
"|. c #8C8CD0D03636",
" X c #8D8DD4D43737",
".X c #8F8FD3D33E3E",
"XX c #8585A9A95757",
"oX c #8F8FB5B55E5E",
"OX c #8A8ACBCB4141",
"+X c #9292D6D64040",
"@X c #9797D6D64B4B",
"#X c #9A9AD9D94F4F",
"$X c #97ABCEBB5929",
"%X c #9797D0D05050",
"&X c #9A9AD7D75151",
"*X c #9E9EDBDB5555",
"=X c #9898C2C26161",
"-X c #9C9CC7C76262",
";X c #176F47458384",
":X c #190C484D8377",
">X c #1E6C49598297",
",X c #19904AD186CD",
"<X c #1D234AA38463",
"1X c #1A5A4B60894D",
"2X c #1B7A4C088A2D",
"3X c #1E24507A9153",
"4X c #2A584BE28154",
"5X c #236354309318",
"6X c #22A157669BD0",
"7X c #27FF5CEFA37B",
"8X c #26AC5EA2A82C",
"9X c #2E5165B2AFE6",
"0X c #35E56138A30D",
"qX c #334A69AAB169",
"wX c #33246CACB96C",
"eX c #3B5C6FC9BA42",
"rX c #484B581D897B",
"tX c #455973A59CFD",
"yX c #64DE67618B21",
"uX c #56856B2AA57D",
"iX c #5A857506B090",
"pX c #35F77130C0E1",
"aX c #38FE759EC6E2",
"sX c #3CE779F0CD11",
"dX c #42B97FF3D31E",
"fX c #82516B948037",
"gX c #83EF72298B40",
"hX c #915B7501825B",
"jX c #D47C7A6C8272",
"kX c #7745A5238A2B",
"lX c #491387A2DE05",
"zX c #4D28889DDC7A",
"xX c #4A418A93E2F7",
"cX c #4EBE8D7EE4E0",
"vX c #505492BFEE3F",
"bX c #BFBFE6E69090",
"nX c #C1C1E7E79494",
"mX c #C4C4E8E89797",
"MX c #CACAE9E9A7A7",
"NX c #CECEEAEAADAD",
"BX c #D0D0EDEDADAD",
"VX c #DCDCF1F1C3C3",
"CX c #E5E5F3F3D5D5",
"ZX c #EBEBF7F7DEDE",
"AX c #EFEFF8F8E5E5",
"SX c #F3F3FAFAEBEB",
"DX c #F5F5FAFAEDED",
"FX c #F9F9FCFCF4F4",
"GX c #F9F9FCFCF6F6",
"HX c #FBFBFDFDF8F8",
"JX c None",
/* pixels */
"JXJXJXJXJXJXJXJXJXJXJXJXJXJXJXJXJXJXJXJXJXJXJXJXJXJXJXJXJXJXJXJX",
"JXJXJXJXJXJXJXJXJXJXJXJXJXJXJXJXJXJXJXJXJXJXJXJXJXJXJXJXJXJXJXJX",
"JXJXJXJXJXJXJXJXJXJXJXJXJXJXJXJXJXJXJXJXJXJXJXJXJXJXJXJXJXJXJXJX",
"JXJXJXJXJXJXJXJXJXJXJXJXJXJXJXJXJXJXJXJXJXJXJXJXJXJXJXJXJXJXJXJX",
"JXJXJXJXJXJXJXJXJXJXJXJXJXJXJXJXJXJXJXJXJXJXJXJXJXJXJXJXJXJXJXJX",
"JXJXJXJXJXJXJXJXJXJXJXJXJXJXJXJXJXJXJXJXJXJXJXJXJXJXJXJXJXJXJXJX",
"JXJXJXJXJXJXJXJXJXJXJXJXJXJXJXJXJXJXJXJXJXJXJXJXJXJXJXJXJXJXJXJX",
"JXJXJXJXJXJXJXJXJXJXJXJXJXJXJXJXO 1 w JXJXJXJXJXJXJXJXJXJXJXJXJX",
"JXJXJXJXJXJXJXJXJXJXJXJXJXJX< # . Y JXJXJXJXJXJXJXJXJXJXJXJXJXJX",
"JXJXJXJXJXJXJXJXJXJXJXJXJXJX@ s i E JXJXJXJXJXJXJXJXJXJXJXJXJXJX",
"JXJXJXJXJXJXJXJXJXJXJXJXJX  f a $ uXJXJXJXJXJXJXJXJXJXJXJXJXJXJX",
"JXJXJXJXJXJXJXJXJXJXJXJXJXh p k 7 eXvXJXJXJXJXJXJXJXJXJXJXJXJXJX",
"JXJXJXJXJXJXJXJXJXJXJXJXR g j z T rXdXJXJXJXJXJXJXJXJXJXJXJXJXJX",
"JXJXJXJXJXJXJXJXJXJXJXJXU d c x m ^ qXxXJXJXJXJXJXJXJXJXJXJXJXJX",
"JXJXJXJXJXJXJXJXJXJXJXhXW l b n Z / 5XaXJXJXJXJXJXJXJXJXJXJXJXJX",
"JXJXJXJXJXJXJXJXJXJXJXgXJ v M B A e ,X7XlXJXJXJXJXJXJXJXJXJXJXJX",
"JXJXJXJXJXJXJXJXJXJXvXiXK N V N I > ;X2XpXcXJXJXJXJXJXJXJXJXJXJX",
"JXJXJXJXJXJXJXJXJXJXcX0XW C C ! 9 > :X:X3XlXJXJXJXJXJXJXJXJXJXJX",
"JXJXJXJXJXJXJXJXJXzXpX1X5 P S { ( r :X:X;XtXkX=X-X=XoXJXJXJXJXJX",
"JXJXJXJXJXJXJXJXJXxX7X4XW F H D G 8 <X= u $X`./.~./.).%XXXJXJXJX",
"JXJXJXJXJXJXJXJXvXwX1X>X~ L P G _ t :Xy |.~.n.F.I.N.+X*X}.(.JXJX",
"JXJXJXJXJXJXJXJXdX6X:X:X: Q } P X.yX; ].E.F.I.I.N.'.DXbXm.[.JXJX",
"JXJXJXJXJXJXJXxX9X,X:X:X:Xe ] | jXfXl.W.F.I.I.I.n.mXGXz.I.~.h.JX",
"JXJXJXJXJXJXJXsX3X:X:X:X:X, '  ...) k.I.I.I.I.N. XSX#XN.I.F.3.JX",
"JXJXJXJXJXJXxX8X,X,X:X:X:X:X6 ` [ q ;.I.P.n.n.I.BXVX^.I.I.I.2.JX",
"JXJXJXJXJXJXwX* o o & o o o o + ! - j.c._.bX@X.XGX#Xn.I.n.B.>.JX",
"JXJXJXJXJXpX* X X X X X X X X X 3 4 -.w.z.NXFXZXMXV.c.v.B.q.&.JX",
"JXJXJXJXJXJXJXJXJXJXJXJXJXJXJXJX% 0 2 :.w.1.CXAXOX5.q.q.Z.,.JXJX",
"JXJXJXJXJXJXJXJXJXJXJXJXJXJXJXJXJXJXJX#.0.y.g.OX4.t.d.d.8.O.JXJX",
"JXJXJXJXJXJXJXJXJXJXJXJXJXJXJXJXJXJXJXJXO.u.i.p.f.a.9.:.o.JXJXJX",
"JXJXJXJXJXJXJXJXJXJXJXJXJXJXJXJXJXJXJXJXJXJX$.=.*.%.@.JXJXJXJXJX",
"JXJXJXJXJXJXJXJXJXJXJXJXJXJXJXJXJXJXJXJXJXJXJXJXJXJXJXJXJXJXJXJX"
};
