/* XPM */
static char *treeviewx[] = {
/* columns rows colors chars-per-pixel */
"32 32 130 2 ",
"   c black",
".  c #027D04810030",
"X  c #02D604CA0091",
"o  c #13EF249901A2",
"O  c #44C35CCD2693",
"+  c #79C57AF978A2",
"@  c #7CF97CF97CF9",
"#  c #4B97868C03C8",
"$  c #4B4B88880303",
"%  c #4D4D8A8A0404",
"&  c #4D4D8A8A0606",
"*  c #4E4E8C8C0404",
"=  c #4F4F8E8E0808",
"-  c #50508E8E0606",
";  c #525294940707",
":  c #58589E9E0505",
">  c #575798980D0D",
",  c #585898980F0F",
"<  c #5D5DA7A70707",
"1  c #5E5EA7A70606",
"2  c #5F5FABAB0707",
"3  c #5DE0A8FA08E5",
"4  c #5AFFB6FF0000",
"5  c #6161ACAC0606",
"6  c #6464B2B20606",
"7  c #6363B7B70404",
"8  c #6363BABA0101",
"9  c #6565BFBF0000",
"0  c #6868BBBB0707",
"q  c #6262B1B10909",
"w  c #6363B1B10F0F",
"e  c #6565B4B40D0D",
"r  c #6868BCBC0808",
"t  c #6868BCBC0909",
"y  c #6868BDBD0B0B",
"u  c #6A6ABEBE0A0A",
"i  c #6868BBBB0E0E",
"p  c #6868BABA0F0F",
"a  c #7CC0BA3804FC",
"s  c #6262ACAC1010",
"d  c #6565B2B21111",
"f  c #6565B5B51010",
"g  c #6767B7B71515",
"h  c #6969BCBC1010",
"j  c #6969BCBC1212",
"k  c #6A6AB9B91717",
"l  c #6C6CBDBD1414",
"z  c #6B6BB2B21818",
"x  c #70BFA1623685",
"c  c #6A6AC6C60000",
"v  c #6D6DC4C40303",
"b  c #6B6BC1C10707",
"n  c #6C6CC1C10606",
"m  c #6F6FC7C70606",
"M  c #6F6FC7C70707",
"N  c #6B6BC8C80000",
"B  c #6D6DC8C80000",
"V  c #6F6FC9C90202",
"C  c #6B6BC3C30909",
"Z  c #6E6EC2C20B0B",
"A  c #6E6EC6C60808",
"S  c #6969C0C00F0F",
"D  c #7070C9C90404",
"F  c #7070CACA0404",
"G  c #7171CACA0707",
"H  c #7280CA7F0781",
"J  c #7272CBCB0707",
"K  c #7274CABE081C",
"L  c #7272CBCB0808",
"P  c #7373CBCB0808",
"I  c #7272CBCB0909",
"U  c #7373CBCB0909",
"Y  c #7373CACA0B0B",
"T  c #7575CBCB0B0B",
"R  c #7575CBCB0E0E",
"E  c #7676CBCB0F0F",
"W  c #7575CCCC0C0C",
"Q  c #7575CCCC0D0D",
"!  c #7777CCCC1111",
"~  c #7C7CCECE1818",
"^  c #7C7CA6A64646",
"/  c #7549811B67A4",
"(  c #84E8BC5F048F",
")  c #8A50BC5804EF",
"_  c #8383CFCF2525",
"`  c #8383CFCF2929",
"'  c #8787D0D02C2C",
"]  c #8888D2D22E2E",
"[  c #8468CAB43071",
"{  c #8787CCCC3131",
"}  c #8787C8C83F3F",
"|  c #8B8BD0D03535",
" . c #8C8CD0D03636",
".. c #8D8DD4D43737",
"X. c #8F8FD3D33E3E",
"o. c #EC58EFBF0049",
"O. c #F42FF6D8003C",
"+. c #F54EF7D7002A",
"@. c yellow",
"#. c #8484A8A85555",
"$. c #8585A9A95757",
"%. c #8F8FB5B55C5C",
"&. c #8F8FB5B55E5E",
"*. c #8A8ACBCB4141",
"=. c #9292D6D64040",
"-. c #9797D6D64B4B",
";. c #9A9AD9D94F4F",
":. c #9797D0D05050",
">. c #9A9AD7D75151",
",. c #9B9BD2D25757",
"<. c #9E9EDBDB5555",
"1. c #9898C2C26161",
"2. c #9C9CC7C76262",
"3. c #808080808080",
"4. c #BFBFE6E69090",
"5. c #C1C1E7E79494",
"6. c #C4C4E8E89797",
"7. c #CACAE9E9A7A7",
"8. c #CECEEAEAADAD",
"9. c #D0D0EDEDADAD",
"0. c #DCDCF1F1C3C3",
"q. c #E5E5F3F3D5D5",
"w. c #EBEBF7F7DEDE",
"e. c #EFEFF8F8E5E5",
"r. c #F3F3FAFAEBEB",
"t. c #F5F5FAFAEDED",
"y. c #F9F9FCFCF4F4",
"u. c #F9F9FCFCF6F6",
"i. c #FBFBFDFDF8F8",
"p. c None",
/* pixels */
"p.p.p.p.p.p.p.p.p.p.p.p.p.p.p.p.p.p.p.p.p.p.p.p.p.p.p.p.p.p.p.p.",
"p.p.p.p.p.p.p.p.p.p.p.p.p.p.p.p.p.p.p.p.p.p.p.p.p.p.p.p.p.p.p.p.",
"p.p.p.p.p.p.p.p.p.p.p.p.p.p.p.p.p.p.p.p.p.p.p.p.p.p.p.p.p.p.p.p.",
"p.p.p.p.p.p.p.p.p.p.p.p.p.p.p.p.p.p.p.p.p.p.p.p.p.p.p.p.p.p.p.p.",
"p.p.p.p.p.p.p.p.p.p.p.p.p.p.p.p.p.p.p.p.p.p.p.p.p.p.p.p.p.p.p.p.",
"p.p.p.p.p.p.p.p.p.p.p.p.p.p.p.p.p.p.p.p.p.p.p.p.p.p.p.p.p.p.p.p.",
"p.p.p.p.p.p.p.p.p.p.p.p.p.p.p.p.p.p.p.p.p.p.p.p.p.p.p.p.p.p.p.p.",
"p.p.          p.p.p.p.p.p.p.          p.p.p.p.p.p.p.          p.",
"p.  @.@.@.  3.  p.p.p.p.p.  @.@.@.  3.p.p.p.p.p.p.  @.@.@.  3.p.",
"          3.3.3.  p.p.p.          3.p.p.p.p.p.p.          3.p.p.",
"p.  @.@.@.  3.3.3.  p.  @.@.@.  3.p.p.p.p.p.p.  @.@.@.  3.p.p.p.",
"p.p.  @.@.@.  3.3.3.  @.@.@.  3.p.p.p.p.p.p.  @.@.@.  3.p.p.p.p.",
"p.p.p.  @.@.@.  3.  @.@.@.  3.p.p.p.p.p.p.  @.@.@.  3.p.p.p.p.p.",
"p.p.p.p.  @.@.@.  @.@.@.  3.p.p.p.p.p.p.  @.@.@.  3.p.p.p.p.p.p.",
"p.p.p.p.p.  @.@.@.@.@.  3.  p.p.p.p.p.  @.@.@.  3.p.p.p.p.p.p.p.",
"p.p.p.p.p.p.  @.@.@.  3.3.3.  p.p.p.  @.@.@.  3.p.p.p.p.p.p.p.p.",
"p.p.p.p.p.p.p.  @.@.@.  3.3.3.  p.  @.@.@.  3.p.p.p.p.p.p.p.p.p.",
"p.p.p.p.p.p.p.p.  @.@.@.  3.3.3.  @.@.@.  3.p.p.p.p.p.p.p.p.p.p.",
"p.p.p.p.p.p.p.p.p.  @.@.@.  3.  @.@.@.  @ p.&.1.2.1.&.p.p.p.p.p.",
"p.p.p.p.p.p.p.p.p.p.  @.@.@.  @.@.@.  + #.,.' ~ Q ~ _ :.$.p.p.p.",
"p.p.p.p.p.p.p.p.p.p.p.  @.@.@.@.@.  @ O  .Q D G P B =.<.| ^ p.p.",
"p.p.p.p.p.p.p.p.p.p.p.p.  @.@.@.  3./ [ T G P P V ] t.4.N { p.p.",
"p.p.p.p.p.p.p.p.p.p.p.p.p.  @.@.@.X x R G P P P D 6.u.c P Q z p.",
"p.p.p.p.p.p.p.p.p.p.p.p.p.p.  @.@.+.# P T G P V ..r.;.V P G 6 p.",
"p.p.p.p.p.p.p.p.p.p.p.p.p.p.p.  @.o.a P P D M P 9.0.! G P P 5 p.",
"p.p.p.p.p.p.p.p.p.p.p.p.p.p.p.p.  O.( v ` 4.-.X.i.>.M M M A 1 p.",
"p.p.p.p.p.p.p.p.p.p.p.p.p.p.p.p.p.X ) t 9 8.y.w.7.Z b b b u : p.",
"p.p.p.p.p.p.p.p.p.p.p.p.p.p.p.p.p.p.o 3 y 4 q.e.*.8 t u S 2 p.p.",
"p.p.p.p.p.p.p.p.p.p.p.p.p.p.p.p.p.p.p.= e p l *.7 i j j q % p.p.",
"p.p.p.p.p.p.p.p.p.p.p.p.p.p.p.p.p.p.p.p.% s d f k g w < $ p.p.p.",
"p.p.p.p.p.p.p.p.p.p.p.p.p.p.p.p.p.p.p.p.p.p.- , > ; * p.p.p.p.p.",
"p.p.p.p.p.p.p.p.p.p.p.p.p.p.p.p.p.p.p.p.p.p.p.p.p.p.p.p.p.p.p.p."
};
