/* XPM */
static char *tree_puzzle[] = {
/* columns rows colors chars-per-pixel */
"32 32 149 2 ",
"   c black",
".  c #00BE01340000",
"X  c #01D9034F000E",
"o  c #027C04740023",
"O  c #030A056A0028",
"+  c #0260038B0134",
"@  c #02DE04D200A1",
"#  c #035D05ED0031",
"$  c #047107F00049",
"%  c #116C1F980097",
"&  c #11B71F98017A",
"*  c #135F2330014B",
"=  c #13EF249901A2",
"-  c #1C7F27B60EDB",
";  c #243629AC1D07",
":  c #34835E4002B1",
">  c #35DB5F98040A",
",  c #3DAB6EB90381",
"<  c #3D046E1F0535",
"1  c #3E04700C04EF",
"2  c #470E7E3B0489",
"3  c #417A71190B29",
"4  c #45DF7A130A71",
"5  c #47ED78900DB3",
"6  c #494C79EF1071",
"7  c #49D45DD0304B",
"8  c #5BC474263B0A",
"9  c #5BC474263C52",
"0  c #4B97868C03C8",
"q  c #4B97868C0489",
"w  c #50948EE104FC",
"e  c #5DE0A8FA06EB",
"r  c #5B2BA74C0CB8",
"t  c #5DE0A8FA08E5",
"y  c #5AFFB6FF0000",
"u  c #6363B7B70404",
"i  c #62FFBA9801FA",
"p  c #6565BFBF0000",
"a  c #6868BBBB0707",
"s  c #6262B1B10909",
"d  c #6363B1B10F0F",
"f  c #6565B4B40D0D",
"g  c #6868BCBC0808",
"h  c #6868BCBC0909",
"j  c #6868BDBD0B0B",
"k  c #69FFBDFF0A00",
"l  c #6868BBBB0E0E",
"z  c #6868BABA0F0F",
"x  c #6011AC33158B",
"c  c #6565B2B21111",
"v  c #6565B5B51010",
"b  c #6767B7B71515",
"n  c #68FFBC9810FA",
"m  c #6969BCBC1212",
"M  c #6A6AB9B91717",
"N  c #6BFFBCFF1400",
"B  c #5094A8602FF2",
"V  c #6A6AC6C60000",
"C  c #6D6DC4C40303",
"Z  c #6B6BC1C10707",
"A  c #6C6CC1C10606",
"S  c #6F6FC7C70606",
"D  c #6F6FC7C70707",
"F  c #6B6BC8C80000",
"G  c #6D6DC8C80000",
"H  c #6EFFC8FE0200",
"J  c #6F6FC9C90202",
"K  c #6B6BC3C30909",
"L  c #6E6EC2C20B0B",
"P  c #6E6EC6C60808",
"I  c #6969C0C00F0F",
"U  c #7038C9E40402",
"Y  c #7070CACA0404",
"T  c #7171CACA0707",
"R  c #7272CBCB0707",
"E  c #70FFCA9807FA",
"W  c #725FCAC20806",
"Q  c #7272CBCB0808",
"!  c #7373CBCB0808",
"~  c #71FFCA9808FA",
"^  c #72FFCAFE0900",
"/  c #7272CBCB0909",
"(  c #7373CBCB0909",
")  c #7373CACA0B0B",
"_  c #7575CBCB0B0B",
"`  c #7575CBCB0E0E",
"'  c #7676CBCB0F0F",
"]  c #7575CCCC0C0C",
"[  c #7575CCCC0D0D",
"{  c #7777CCCC1111",
"}  c #7C7CCECE1818",
"|  c #2AD08F766D1C",
" . c #2CDD90706ACD",
".. c #2E0892C46D21",
"X. c #2BF5909A6ED3",
"o. c #6FE78ED34769",
"O. c #46AAA33B4118",
"+. c #8383CFCF2525",
"@. c #8383CFCF2929",
"#. c #8787D0D02C2C",
"$. c #87FFD2982EFA",
"%. c #80E1CB5D33BF",
"&. c #83CFCB5D36AD",
"*. c #8787C8C83F3F",
"=. c #8B8BD0D03535",
"-. c #8C8CD0D03636",
";. c #8D8DD4D43737",
":. c #8F8FD3D33E3E",
">. c #8A8ACBCB4141",
",. c #92D6CA434DCB",
"<. c #91FFD69840F9",
"1. c #9797D6D64B4B",
"2. c #9A9AD9D94F4F",
"3. c #9A9AD7D75151",
"4. c #9E9EDBDB5555",
"5. c #96B9D0FE5C69",
"6. c #1B9691EDBBBC",
"7. c #44C3A06C94E7",
"8. c #4552A06C9576",
"9. c #4946A17A9E7D",
"0. c #6FE7B78489CE",
"q. c #7CACBE288117",
"w. c #2436964BCE6F",
"e. c #04719213E1D2",
"r. c #01F891A4E6E8",
"t. c #033F9586EA8F",
"y. c #06E29501EC1A",
"u. c #00DA94BBF06E",
"i. c #00009468F222",
"p. c #05699782F1AC",
"a. c #000097FFF805",
"s. c #027D984FF159",
"d. c #03649875F49D",
"f. c #00009898F8F8",
"g. c #BEFFE69790F9",
"h. c #C1C1E7E79494",
"j. c #C4C4E8E89797",
"k. c #CACAE9E9A7A7",
"l. c #CECEEAEAADAD",
"z. c #D0D0EDEDADAD",
"x. c #DCDCF1F1C3C3",
"c. c #E5E5F3F3D5D5",
"v. c #EBEBF7F7DEDE",
"b. c #EEFEF7FEE4FE",
"n. c #F3F3FAFAEBEB",
"m. c #F5F5FAFAEDED",
"M. c #F9F9FCFCF4F4",
"N. c #F9F9FCFCF6F6",
"B. c #FBFBFDFDF8F8",
/* pixels */
"                                                                ",
"                                                                ",
"    f.f.f.f.f.f.f.f.f.f.f.f.    f.f.f.f.f.f.f.f.f.f.f.f.f.f.    ",
"    f.f.f.f.f.f.f.f.f.f.f.f.    f.f.f.f.f.f.f.f.f.f.f.f.f.f.    ",
"    f.f.                f.f.    f.f.                    f.f.    ",
"    f.f.                f.f.    f.f.                    f.f.    ",
"    f.f.    f.f.f.f.                    f.f.f.f.f.f.f.f.f.f.    ",
"    f.f.    f.f.f.f.                    f.f.f.f.f.f.f.f.f.f.    ",
"    f.f.f.f.f.f.f.f.    f.f.f.f.    f.f.f.f.    f.f.    f.f.    ",
"    f.f.f.f.f.f.f.f.    f.f.f.f.    f.f.f.f.    f.f.    f.f.    ",
"        f.f.    f.f.    f.f.        f.f.                        ",
"        f.f.    f.f.    f.f.        f.f.                        ",
"    f.f.f.f.    f.f.    f.f.    f.f.f.f.f.f.f.f.f.f.f.f.f.f.    ",
"    f.f.f.f.    f.f.    f.f.    f.f.f.f.f.f.f.f.f.f.f.f.f.f.    ",
"    f.f.        f.f.f.f.f.f.f.f.f.f.                    f.f.    ",
"    f.f.        f.f.f.f.f.f.f.f.f.f.                    f.f.    ",
"    f.f.f.f.    f.f.                    f.f.f.f.f.f.f.f.f.f.    ",
"    f.f.f.f.    f.f.                    f.f.d.p.y.p.d.f.f.f.    ",
"    f.f.                f.f.f.f.f.f.    i.w.9 o.q.0.9 ;         ",
"    f.f.                f.f.f.f.f.f.  + 9.5.#.} [ } +.,.7 +     ",
"    f.f.f.f.f.f.f.f.    f.f.    f.f.i.7.-.[ U U Q G <.4.-.7.    ",
"    f.f.f.f.f.f.f.f.    f.f.    f.f.6.%._ Q ) Q G $.m.g.G &.-   ",
"        f.f.            f.f.      + 5 [ Q Q Q Q U j.B.V Q [ 6 + ",
"        f.f.            f.f.      + 0 ! Q Q Q H ;.m.2.G ( ! 0 + ",
"    f.f.f.f.    f.f.f.f.f.f.    f.e.B U Q U G Q z.x.{ Q Q ) w $ ",
"    f.f.f.f.    f.f.f.f.f.f.    f.t.O.C @.h.1.:.B.2.D D D P 2 + ",
"    f.f.        f.f.            f.s.1 a p l.B.v.k.L Z A P h , + ",
"    f.f.        f.f.            f.f.= e n y c.b.>.i h h n e =   ",
"    f.f.    f.f.f.f.f.f.f.f.    f.f.i...f n N *.u l n n s  .    ",
"    f.f.    f.f.f.f.f.f.f.f.    f.f.f.r.| x c v M b d r | r.    ",
"                                          * : 3 4 < : *         ",
"                                            + + + + +           "
};
