/* XPM */
static char *tuxguitar[] = {
/* columns rows colors chars-per-pixel */
"32 32 256 2 ",
"   c #02770261024C",
".  c #0B0B08080404",
"X  c #0B970B800B97",
"o  c #03DD06660880",
"O  c #1AC511BC0101",
"+  c #030308081414",
"@  c #08080C0C1515",
"#  c #0D0D10901616",
"$  c #131E138512FE",
"%  c #151516961A1A",
"&  c #1BC11BD01BD0",
"*  c #212117170404",
"=  c #22221B1B1268",
"-  c #22221F1F1919",
";  c #35351B1B1111",
":  c #33B422CD0303",
">  c #3CCD28EA0245",
",  c #3D3D27270A0A",
"<  c #241221911D12",
"1  c #32673E5413EB",
"2  c #18981B9C22A3",
"3  c #24BA24FA2525",
"4  c #2C2C29292727",
"5  c #2AB22B442B21",
"6  c #39392B2B2626",
"7  c #323230302E2E",
"8  c #26262E2E3131",
"9  c #252527273232",
"0  c #272731313E3E",
"q  c #33C633A1336A",
"w  c #383837373535",
"e  c #3B043B023A9C",
"r  c #4C4C1F1F0C0C",
"t  c #484830300303",
"y  c #50FB35E003AE",
"u  c #444438381A1A",
"i  c #66E728280E8F",
"p  c #676736361717",
"a  c #767638381818",
"s  c #7A7A30301414",
"d  c #53D436362626",
"f  c #4C4C3B3B3333",
"g  c #40403F3F3C3C",
"h  c #3781566D03DC",
"j  c #3E6D43C73740",
"k  c #5D5D4242098A",
"l  c #6B154646045A",
"z  c #62E244440505",
"x  c #7DFE55D60707",
"c  c #45C87ABF08EA",
"v  c #5F8772F70581",
"b  c #525246462929",
"n  c #454541413E3E",
"m  c #4A4A41413C3C",
"M  c #559548483D3D",
"N  c #4A9F5FBA3459",
"B  c #76765C5C2E2E",
"V  c #65E64A4A3BBC",
"C  c #7E7E52523939",
"Z  c #797964643E3E",
"A  c #2A2A36364545",
"S  c #39393D3D4343",
"D  c #3E3E41414848",
"F  c #432643264326",
"G  c #454547474848",
"H  c #454549494DF8",
"J  c #4BDE4C714C03",
"K  c #4D4D46464141",
"L  c #55554C4C4747",
"P  c #5F5F4E4E4747",
"I  c #4FA652DE4B38",
"U  c #575752D34D4D",
"Y  c #4F4F4F4F5050",
"T  c #530652D252B9",
"R  c #585857575959",
"E  c #5AC85B5E5AC2",
"W  c #515154545D5D",
"Q  c #6C6C53534646",
"!  c #62E353D44BCC",
"~  c #63E456565050",
"^  c #70705C5C5050",
"/  c #62857A8E4454",
"(  c #7A7A74745757",
")  c #555563636464",
"_  c #64E5648F64E5",
"`  c #6B156B156B40",
"'  c #69EA6F6F7373",
"]  c #6E6E70707A7A",
"[  c #72BB73057373",
"{  c gray50",
"}  c #B8B822220B0B",
"|  c #AE2E35B6098A",
" . c #A0A039391111",
".. c #8D8D3A3A2727",
"X. c #96963F3F2A2A",
"o. c #879B5A0A048E",
"O. c #BBBB40C10000",
"+. c #A5A545451D9E",
"@. c #BABA58581313",
"#. c #BCBC7C7C0606",
"$. c #BEBE7A7A1C1C",
"%. c #808048483636",
"&. c #ACAC4C4C2626",
"*. c #A7A75B5B3939",
"=. c #9E9E67672020",
"-. c #97976C6C2020",
";. c #9B9B62623737",
":. c #ACAC61612525",
">. c #A7A764643D3D",
",. c #BCBC67673535",
"<. c #A3A371713D3D",
"1. c #B6B672723E3E",
"2. c #B45E7A7A3D3D",
"3. c #C6C654540C0C",
"4. c #CCCC6B6B0505",
"5. c #CB4B75750384",
"6. c #C0C07F7F1111",
"7. c #D1D16B6B3737",
"8. c #86865B5B5050",
"9. c #B4B47C7C4C4C",
"0. c #90906E6E6262",
"q. c #8A8A7B7B7474",
"w. c #4CF78A8A03AE",
"e. c #50508E8E0606",
"r. c #585898980F0F",
"t. c #571298D709D1",
"y. c #5DDEA7A70687",
"u. c #5F0FAAA90820",
"i. c #5B8DB75B0004",
"p. c #6161ACAC0606",
"a. c #63E4B5340505",
"s. c #6464BD3D0081",
"d. c #63B9B2B20C62",
"f. c #68BEBCBC0B36",
"g. c #6868BBBB0707",
"h. c #61C5A9BE0FC1",
"j. c #6610B55F1212",
"k. c #6A7CBC2A1350",
"l. c #6B6BB2B21818",
"z. c #75E7B0C32E18",
"x. c #795BA9FE3F72",
"c. c #6D6DC57C052A",
"v. c #6E6EC9730157",
"b. c #6C6CC3830ACB",
"n. c #7136CA8E05F4",
"m. c #738DCB7F098A",
"M. c #7C7CCECE1818",
"N. c #7777CCCC1111",
"B. c #6E7286C74D96",
"V. c #7C7CA6A64646",
"C. c #7495806866F1",
"Z. c #ABAB80801717",
"A. c #BABA858535B6",
"S. c #C6C682820909",
"D. c #C7C784840808",
"F. c #D55583830A8B",
"G. c #D9D98A0A0788",
"H. c #DBDB95950606",
"J. c #DB5B93930A0A",
"K. c #C5C581811F1F",
"L. c #DADA8F8F1E1E",
"P. c #E5E58E8E0606",
"I. c #E4E491910E0E",
"U. c #EB6B9B1B1394",
"Y. c #DCDCA2A21717",
"T. c #FFFFA4230404",
"R. c #FFFFA9A90F0F",
"E. c #FFFFA6A60A0A",
"W. c #FFCCACDF11AB",
"Q. c #F3F3A6A61717",
"!. c #FFFFB2B21A1A",
"~. c #D9D994942A2A",
"^. c #FFFFBA642B2B",
"/. c #FDFDB3B328A9",
"(. c #FFFFBABA3232",
"). c #8383CFCF2727",
"_. c #8808D1D12D2D",
"`. c #85ACCB753086",
"'. c #8787C8C83F3F",
"]. c #8C8CD2273636",
"[. c #8F8FD3D33E3E",
"{. c #FFFFC1C13E3E",
"}. c #999987874E4E",
"|. c #B8B890905656",
" X c #B4B497975A5A",
".X c #84D4A66F5983",
"XX c #8F8FB5B55E5E",
"oX c #8D8D89896C6C",
"OX c #92928A8A6363",
"+X c #838380807C7C",
"@X c #964085DB7979",
"#X c #A4A486866E6E",
"$X c #A8A89D9D7777",
"%X c #B3B393937E7E",
"&X c #C0C09D9D5F5F",
"*X c #DDDD96967676",
"=X c #DFDFA4A46A6A",
"-X c #E5E5B2B27373",
";X c #8A8ACBCB4141",
":X c #96ECD7D748F3",
">X c #96CDCC4854AC",
",X c #9797D0D05050",
"<X c #9C9CD9D95353",
"1X c #9A9AC54461E2",
"2X c #FFFFC5C54848",
"3X c #FFFFCE4E53D4",
"4X c #FFFFCBCB5B5B",
"5X c #FFFFD1D15B5B",
"6X c #D5D5C2C27C7C",
"7X c #FFFFDFDF6565",
"8X c #FFFFD7D76868",
"9X c #FFFFD8D86666",
"0X c #FDFDDDDD7E7E",
"qX c #FFFFE2E27C7C",
"wX c #7E7E7E7E8383",
"eX c #7978852582DF",
"rX c #810184038282",
"tX c #890989098909",
"yX c #9B1B98988787",
"uX c #8F8F90909191",
"iX c #95EB95EB9741",
"pX c #AAAA93938787",
"aX c #A4A8A7318E7C",
"sX c #B9B9A2A28F8F",
"dX c #AAAAAAAA9696",
"fX c #B2B2ACAC9191",
"gX c #B3B3B4B49D9D",
"hX c #AB44AADDAB44",
"jX c #B7B7ACACA4A4",
"kX c #B4B4B4B4B4B4",
"lX c #BDBDBDBDBD67",
"zX c #CECEA9A99999",
"xX c #D7D7B9B9A7A7",
"cX c #E9E9B9B9A4A4",
"vX c #BFBFE6E69090",
"bX c #E3E3D1D18686",
"nX c #EFEFD9D99F9F",
"mX c #C343E8689616",
"MX c #FFFFEAEA9191",
"NX c #CECEC2C2A5A5",
"BX c #CACAC2C2B5B5",
"VX c #E7E7CACAABAB",
"CX c #CCCCEA6AAAAA",
"ZX c #D0D0EDEDADAD",
"AX c #C318C2C2C217",
"SX c #CA1FCA1FCA74",
"DX c #DCDCF1F1C3C3",
"FX c #E8E8F5F5DA5A",
"GX c #D8D8DCDCE8E8",
"HX c #EFEFEFEFEFEF",
"JX c #E363E665E7E7",
"KX c #EFEFF8F8E5E5",
"LX c #F4F4FAFAECEC",
"PX c #F9F9FCFCF5F5",
"IX c #FBFBFDFDF8F8",
"UX c None",
/* pixels */
"UXUXUXUXUXUXUXUXUXUXUXUXUXUX[ ` [ UXUXUXUXUXUXUXUXUXUXUXUXUXUXUX",
"UXUXUXUXUXUXUXUXUXUXUXUXUX_ R J Y E ` UXUXUXUXUXUXUXUXUXUXUXUXUX",
"UXUXUXUXUXUXUXUXUXUXUXUXR q & & & & q E UXUXUXUXUXUXUXUXUXUXUXUX",
"UXUXUXUXUXUXUXUXUXUXUXR 5 X X     3 w 5 _ UXUXUXUXUXUXUXUXUXUXUX",
"UXUXUXUXUXUXUXUXUXUXUXF 8 kXSX3 & JXHXY J UXUXUXUXUXUXUXUXUXUXUX",
"UXUXUXUXUXUXUXUXUXUXUXq tXSXBXiX[ lXSXkXH UXUXUXUXUXUXUXUXUXUXUX",
"UXUXUXUXUXUXUXUXUXUXUXq hX` D hXwXH [ AXF UXUXUXUXUXUXUXUXUXUXUX",
"UXUXUXUXUXUXUXUXUXUXUX2 W GXNXbX6XBXJX] 9 UXUXUXUXUXUXUXUXUXUXUX",
"UXUXUXUXUXUXUXUXUXUXUXoX( 6X3XMXqX4XnXOX$XUXUXUXUXUXUXAXUXUXUXUX",
"UXUXUXUXUXUXUXUXUXUX4X0X7X^.^.2X{./.^.8X9XQ.UXUXUXUXlXiXrXUXUXUX",
"UXUXUXUXUXUXUXUXUXUXS.G.U.W.R.E.W.E.W.U.P.UXUXUXUXUXhX_ 5 e UXUX",
"UXUXUXUXUXUXUXUXUXUXUX-.I.(.W.T.T.!./.5.B UXUXUXUXT H e E e UXUX",
"UXUXUXUXUXUXUXUXUXUXUX0 , A.9X3X3X5X=.= A UXUXf Q f 3 H n _ UXUX",
"UXUXUXUXUXUXUXUXUXUXE 5 + ! 2.9.9.<.E @ 6 L q.^ d u UXUXUXUXUXUX",
"UXUXUXUXUXUXUXUXUX[ _ 3 5 uXP i p _ ' n ~ M Q 6 UXUXUXUXUXUXUXUX",
"UXUXUXUXUXUXUX{ ` F J T q.xXpX0.C ! q J ~ f F UXUXUXUXUXUXUXUXUX",
"UXUXUXUXUXUXUX[ q & - q T sXVX#XP L 5 5 7 3 E UXUXUXUXUXUXUXUXUX",
"UXUXUXUXUXUX@XH % X X % % w BX@Xf K F $ 2 3 e E UXUXUXUXUXUXUXUX",
"UXUXUXUXUX*XcX@Xq # X   X   ' jXV e J $   j B..X1X1XXXUXUXUXUXUX",
"UXUXUXUXUX7.=X-X Xb + $ <   w SX%XJ H 5 N >X_.M.N.M.).,X.XUXUXUX",
"UXUXUXUX,.3.L.L. X}.u S T < rXzX} X.E / ].N.n.n.m.v.[.<X].V.UXUX",
"UXUXUXUX9.O.F.H.6.$XZ.Z yXdXyX%...8.( `.m.n.m.m.v._.LXvXv.`.UXUX",
"UXUXUXUXUX| 4.J.G.A.Y.S.gXfXK S ) eXx.N.n.m.n.n.n.mXPXv.n.N.l.UX",
"UXUXUXUXUX+.O.F.J.K.|.5.;.%.Y [ uXaXz.m.m.m.m.v.].LX<Xv.m.m.a.UX",
"UXUXUXUXUXUX| @.|.6.:.9.&.r 8 T E I r.m.m.c.n.m.ZXDXN.m.m.n.p.UX",
"UXUXUXUXUXUXUX .+.>.*...d .         c c.).mX:X[.IX<Xn.c.c.b.u.UX",
"UXUXUXUXUXUXUXUXi s a ; o o @ X $ $ c f.s.ZXLXFXCXb.c.c.b.b.t.UX",
"UXUXUXUXUXUXUXUXk o.z : = = - & & < 1 u.f.i.FXKX'.s.g.f.b.p.UXUX",
"UXUXUXUXUXUXUXD.S.#.o.l x z *   . t o.v f.k.k.;Xa.k.k.k.p.w.UXUX",
"UXUXUXUXUXUX, y : l > : l >       O y > h h.d.j.k.j.d.y.w.UXUXUX",
"UXUXUXUXUXUXUXUXUXUXUXUXUXUXUXUXUXUXUXUXUXUXe.r.r.e.e.UXUXUXUXUX",
"UXUXUXUXUXUXUXUXUXUXUXUXUXUXUXUXUXUXUXUXUXUXUXUXUXUXUXUXUXUXUXUX"
};
