/* XPM */
static char *uae[] = {
/* columns rows colors chars-per-pixel */
"32 32 256 2 ",
"   c #1808170B18D5",
".  c #096909691416",
"X  c #284619071974",
"o  c #3031147E1474",
"O  c #31ED2F0C1A8A",
"+  c #1F27204D22EE",
"@  c #2C122E082B33",
"#  c #38DE37783695",
"$  c #125812B42F80",
"%  c #4C142DDC16D4",
"&  c #6CAF2DF81002",
"*  c #4D14359C2FEC",
"=  c #498D35DD2C8A",
"-  c #656335EC27BE",
";  c #328D53A7125C",
":  c #3AE54A703130",
">  c #2C84498627E0",
",  c #487C4732172E",
"<  c #64FE57210BA7",
"1  c #6F7C4D881006",
"2  c #4CD175540F0C",
"3  c #787378B21AE2",
"4  c #6F086BD51604",
"5  c #494C4A9136F8",
"6  c #4D9344373871",
"7  c #567B4F5F31E8",
"8  c #54BD574A3579",
"9  c #6F6B53E1262C",
"0  c #571D6E1E30F6",
"q  c #6B0B6A2B2985",
"w  c #73FF6D472AE0",
"e  c #6712679237BB",
"r  c #794B77A434DB",
"t  c #65787D113190",
"y  c #2D2C30F950D5",
"u  c #10A037CE7190",
"i  c #31B534936A1E",
"p  c #2C3C377675AD",
"a  c #28D4358D6748",
"s  c #58A1216E58C9",
"d  c #54CD33E14DDE",
"f  c #51BA3D3B696C",
"g  c #144845AD5457",
"h  c #364A4C374C8A",
"j  c #174D4BE87146",
"k  c #2F814F2C6ABC",
"l  c #2E8F4D206468",
"z  c #2C8A50B47CF8",
"x  c #30146A736F73",
"c  c #2A9B689662B6",
"v  c #5759570E4EB1",
"b  c #462B51D756D7",
"n  c #567F58CC5563",
"m  c #464E4A7C4B8A",
"M  c #577571F64EB4",
"N  c #558B6667543B",
"B  c #57E0768558EE",
"V  c #68CC687845CF",
"C  c #684969CE571B",
"Z  c #772D76A65486",
"A  c #6DFF76744C5A",
"S  c #47A24A18663D",
"D  c #4EF654557143",
"F  c #449E6C5170E0",
"G  c #4FFE6B5E6FF0",
"H  c #48F37A987A57",
"J  c #63C669C86517",
"K  c #78C07B0F671C",
"L  c #66D367ED792E",
"P  c #696C742E75CF",
"I  c #6CEE74966852",
"U  c #6BB154D85E6F",
"Y  c #8B2C6D530912",
"T  c #862D754C16DF",
"R  c #981E75CE1ECB",
"E  c #AEC37C0D18DE",
"W  c #8C196E502A69",
"Q  c #8AB27AE130BB",
"!  c #868B77BF2F03",
"~  c #B1DC791B260C",
"^  c #CC527D641CC7",
"/  c #9D22582D5A57",
"(  c #90A27C766291",
")  c #88AC792E6FFF",
"_  c #8F4C78D9501F",
"`  c #552F8BBE1972",
"'  c #66D199671982",
"]  c #79EC8ABC1785",
"[  c #5DC7A7900798",
"{  c #5B00B72800C5",
"}  c #744BA8FD06AF",
"|  c #68BDBCAB0B3A",
" . c #6486B71306F6",
".. c #6880B92A12E6",
"X. c #6167ABCC0A9D",
"o. c #6F6F8E422C14",
"O. c #6D6DC57C052A",
"+. c #6E65C95E0163",
"@. c #6C6CC3830ACB",
"#. c #714ACA9B060C",
"$. c #7398CB8C0991",
"%. c #7AD0CE2315C0",
"&. c #5F0191225474",
"*. c #6D7F8EC254C0",
"=. c #548D86E1707E",
"-. c #6C948686702C",
";. c #7A6581376655",
":. c #97AA8F130C73",
">. c #88F088611B23",
",. c #98E596FA19A3",
"<. c #AEEE8F8F11F7",
"1. c #B801A44E0821",
"2. c #B1E5AB901434",
"3. c #881F88982703",
"4. c #984097A42B47",
"5. c #9412937A2A17",
"6. c #89E2892E35DD",
"7. c #98379B263729",
"8. c #AF6F91A62EC4",
"9. c #9D8EA0D82243",
"0. c #9410A58E3377",
"q. c #A895A7B52DC7",
"w. c #A577A4553693",
"e. c #B95AB956345B",
"r. c #8260ACC11048",
"t. c #CF55952D1178",
"y. c #EDA39F230658",
"u. c #D3DFB3730D3B",
"i. c #D854A97916F9",
"p. c #F1A2ACD40D57",
"a. c #EB77A8F81B23",
"s. c #DAAE8C461FE8",
"d. c #E6EF98AD3072",
"f. c #D111AECB29BF",
"g. c #E5A2B1EB2D19",
"h. c #83D4CDCE294A",
"j. c #8D4DD2923838",
"k. c #86E2CD8E33FF",
"l. c #B828C0A021B1",
"z. c #CC72C49B0D6B",
"x. c #EA06D8A31C48",
"c. c #F7D1CA32099A",
"v. c #F993FA121D27",
"b. c #D87AC86A3675",
"n. c #D893D8303605",
"m. c #D18BD1852B3D",
"M. c #E65CDA1C2681",
"N. c #E6ABCE753073",
"B. c #DFACE4332CDE",
"V. c #E8BAE4912606",
"C. c #E6F3E6C635AB",
"Z. c #F6FBEA7433C3",
"A. c #880A87B549F3",
"S. c #973485524744",
"D. c #8B1096FD479E",
"F. c #960497A0463B",
"G. c #8753870C59DF",
"H. c #93038B935978",
"J. c #8B219579577E",
"K. c #960F98B35703",
"L. c #AE088F725440",
"P. c #A43E979754D9",
"I. c #9060A93B51EF",
"U. c #A9A6AAE2464A",
"Y. c #B693ADE24D7C",
"T. c #B8E6B55058E4",
"R. c #89DF88F0687C",
"E. c #8CD296146691",
"W. c #893489677618",
"Q. c #8B6890787069",
"!. c #983F9852687C",
"~. c #9EC7A6C57424",
"^. c #922AAFEA62E1",
"/. c #A909ADC0743F",
"(. c #ED949F4555E2",
"). c #C1D1ABEF51D3",
"_. c #CC51BE6358A5",
"`. c #96DED7B64905",
"'. c #96A0C62F5938",
"]. c #9C5DD6E354A3",
"[. c #8A8ACBCB4141",
"{. c #BEA1C8D157F2",
"}. c #DCA0D90455D8",
"|. c #CCC1CB254E16",
" X c #F07FCC3D4C4C",
".X c #E1A5E40D510C",
"XX c #F1E5EA8343DB",
"oX c #C5C2C7106466",
"OX c #DE5EEEFF674A",
"+X c #DF32E1157341",
"@X c #EB17E92D6FA1",
"#X c #E279D2737080",
"$X c #17EB2AA897E8",
"%X c #07AE3C1E9930",
"&X c #2DB8321390F2",
"*X c #2C7730B38CF7",
"=X c #123E32C0ABA7",
"-X c #277C3712AAB5",
";X c #2EC03D90B972",
":X c #0FEE17AE9BC8",
">X c #1647451F8B19",
",X c #17E958A48866",
"<X c #065B47D9971B",
"1X c #1C8543C397FC",
"2X c #067F48258856",
"3X c #398F570F8714",
"4X c #2C924B3F9114",
"5X c #2FE6682D814B",
"6X c #1809559DA803",
"7X c #1A125481B909",
"8X c #276F4DD3B0D2",
"9X c #118465E0A4AC",
"0X c #49594A138B63",
"qX c #53DF56049617",
"wX c #61065FB58B33",
"eX c #57C6637A87D9",
"rX c #761B74E68775",
"tX c #6818705A90E5",
"yX c #52776885AE67",
"uX c #0DD62F43C6E1",
"iX c #27992E58DD2A",
"pX c #1B635EE6D544",
"aX c #1AAF7E2CD1C0",
"sX c #1A265A7EE698",
"dX c #1C6C4346E4FA",
"fX c #1C9768C7E6F1",
"gX c #1638BCADBCE7",
"hX c #3A50A4A3A78B",
"jX c #2B13B3C1B41D",
"kX c #315984768F7B",
"lX c #547E8D068CFB",
"zX c #4999901091DB",
"xX c #6B8C9B908C64",
"cX c #49789E92A157",
"vX c #4710A5DAA8B4",
"bX c #52F9B19CB1B6",
"nX c #41BBB43BB497",
"mX c #657DA7AFA047",
"MX c #205DC18D9215",
"NX c #506BCEBDA76D",
"BX c #19DC8716E479",
"VX c #92BE8E1F8B7A",
"CX c #85FE941AA437",
"ZX c #9979B0F2990D",
"AX c #EDA5BABF8971",
"SX c #BF18E63190A6",
"DX c #8824D74FB88D",
"FX c #C79BD1D2915A",
"GX c #C343E8689616",
"HX c #CE23EB95ABAB",
"JX c #E9D0EBC8AE96",
"KX c #DCDCF1F1C3C3",
"LX c #E8E8F5F5DA5A",
"PX c #FAA4FD52F6F6",
"IX c #F2FCFA1DEA7B",
"UX c None",
/* pixels */
"UXUXUXUXUXUXUXUXUXUXUXUXUXUXUXnXjXUXUXUXUXUXUXUXUXUXUXUXUXUXUXUX",
"UXUXUXUXUXUXUXUXUXUX$XG.h h @ gXbXv VXD UXUXUXUXUXUXUXUXUXUXUXUX",
"UXUXUXUXUXUXUXUXuXD 1XI :.0.* jXhXV ~.L W.>XUXUXUXUXUXUXUXUXUXUX",
"UXUXUXUXUX, :Xb k S G Z ,.F.7 NXZX3.D K.3X-.6Xp 5 UXUXUXUXUXUXUX",
"UXUXUXUX=.H.Z 1XM ;XN p A.r O mXNX1.-X*.0XA.-XQ.CXD UXUXUXUXUXUX",
"UXUXUXUXk 7XD.qXx 4X,.0Xw.! O vXjX8.uXa eXL /.yXaX4XUXUXUXUXUXUX",
"UXUXUXs &.E.3XI J *.e R.f.9.& vXcX2.R.c %X6XyX-XCXCXUXUXUXUXUXUX",
"UXUXUXn N v k h Z Z ~ a.i.T t.e V 2.c.<.F 3X4X8XfXsX7XUXUXUXUXUX",
"UXUXUXb v C H.i B Y.Q ~.W.ZXJXw.4.G.7.Q M.J.q w.0./ J UXUXUXUXUX",
"UXUXD.U.P.P.L.B b w 4.w.5.S.@X}.8.3.F.3 Q.;.# g a ,X,XUXUXUXUXUX",
"UXUXf L./ A.Y.l.e Y.U.7.2.s. XM.E q.~._.b.w.m./ ;.J *.tXUXUXUXUX",
"UXUXdXBXsX7XD l.Q :.e #   1.(._.E $ . 8 Y ~ V.tXfXfXsXdXUXUXUXUX",
"UXn Q.Q.P K C M.s.K.<.Q 9.:.).L.4.4.V 2.2.u..XU.D.7.Q T ; UXUXUX",
"UX&X9XD S &.A _. X+X Xx.i.s._. Xi.B.N.g.|.}..XeX1X&X,X4XMXUXUXUX",
"UXV E.Z Z ( Z f.b.oXAXc.M.N.)._.d.x.y.+X}.oXe.P Q.J.F.D.6.UXUXUX",
"UXpXsXsXfX8X*Xq.R <.JXC.a.a.<.Y y.u.g..Xu.8.P.iXsXpX=X7X$XUXUXUX",
"UXt.q.F.K.R.( L s e JX#Xp.Z.(.f.z.s.M.N.9 # T 9.2.<.i.a.x.6.UXUX",
"n L z 7X=X,Xc h F.q.t.FX@XJXXXu.C.p.M.9., d i i 0X0X0XrXrX0XUXUX",
"4.A.Q.W./ R.S 5X-XiX,.E Z.C.1.~ M.u.t.# i ;.^.^.'.^.I.A.4.7.UXUX",
"&Xj k k Z K.H.( H.!.A.- Y.}.N.@Xg.s.& 3 K.].h.%.$.%.h.`.=.l i UX",
"R.E.E.K.L.Z 0 h 5 L -.8 1 z.d.v.T.4 , t k.$.+.$.$.+.j.].j.*.*XUX",
"$X%X>XP ) R.0.3 < 4 V ] z.w._ oXG.1.3 h.$.$.$.$.+.h.PXSX+.k.3XUX",
"y g z rXL : 5 b s b w :.oXr xXhXn e.r.$.$.$.$.$.#.GXPX+.$.$.o.UX",
"UXUX7 V 9 w M E.D j 9 i.+X3.hXbXG r } $.$.$.#.+.j.IX].+.$.$. .UX",
"UXK VX3 0 -.wX*X,X<XW c.OXo.F G J < } $.$.+.#.$.HXKX%.#.#.$.X.UX",
"K DXFXn.N rXlX6X2X2XQ b.@XF.H H kX< } O.h.GX`.[.PX].+.O.O.#.[ UX",
"T.OXn.{.U.W.3Xu <X:X>.C.Z.e.xXvXZ Y }  .O.HXIXLXHX$.@.O.@.@.' UX",
"n.|.q 9 r D >X<X2X%XW a.M.C.vXbXA q.] [ | { LXIX[.{ | | @.X.7.UX",
"S.O X % U eXx uX9X<X3.w W ~ =.vXZ >.O 2 X.....[. .......X.2 ! UX",
"S.X   8 * B h > e J.>.VXv 5 c vXeXS B 4 ' X.........X.[ ; = P.UX",
"VX@ X 5 m &.a h i L T ( !./.zXlXmXR.6.q J 6 2 ` ' ` 2 ,   5 Y.UX",
"VXo o % 5 U.*.> j qXW O + * lXzXH O , m qXi @ 5 J.N : %   O 5.UX"
};
