/* XPM */
static char *uqm[] = {
/* columns rows colors chars-per-pixel */
"32 32 226 2 ",
"   c #3E3E1B1B0F0F",
".  c #2F2F1D1D1616",
"X  c #3D3D1A1A1010",
"o  c #3B531BCD1022",
"O  c #0D0D35350C0C",
"+  c #0B0B39390B0B",
"@  c #07D03F7607D0",
"#  c #1E1E27271313",
"$  c #14142F2F1212",
"%  c #15002F651200",
"&  c #29FC24201C50",
"*  c #2B2B25251D1D",
"=  c #343421211111",
"-  c #2C2C2D2D2424",
";  c #2CD2306C2240",
":  c #2F2F30302626",
">  c #323234342B2B",
",  c #378C3A152F9B",
"<  c #373737373232",
"1  c #3A0D3AB63446",
"2  c #3B3B3D3D3939",
"3  c #3FE51E6A1127",
"4  c #06A94931060F",
"5  c #06064A4A0606",
"6  c #04044E4E0404",
"7  c #080841410808",
"8  c #030358580202",
"9  c #05685A130222",
"0  c #030362620202",
"q  c #03036D6D0202",
"w  c #020278780202",
"e  c #32AA6AC0094C",
"r  c #3C89416A3C89",
"t  c #3E3E43433E3E",
"y  c #57E46D43337A",
"u  c #60E768D02DCE",
"i  c #414145454040",
"p  c #434348484343",
"a  c #44D54A5943DE",
"s  c #48D94FAA459C",
"d  c #48484D4D4747",
"f  c #4F4F54544E4E",
"g  c #54385CF94CBF",
"h  c #59595C5C5555",
"j  c #60605C5C5A5A",
"k  c #69695A5A5E5E",
"l  c #5EDC67E14D03",
"z  c #B5AA57871E76",
"x  c #A4F07A893131",
"c  c #CBCB40400202",
"v  c #CCCC49490202",
"b  c #DADA47470303",
"n  c #DCDC4F4F0404",
"m  c #E1E15C5C0A0A",
"M  c #DEDE6D6D0202",
"N  c #E4E47D7D0101",
"B  c #E6E679793C3C",
"V  c #030383830303",
"C  c #010089FF0107",
"Z  c #01018A8A0101",
"A  c #020291910000",
"S  c #010198980000",
"D  c #00009E9E0000",
"F  c #149C9D2101A2",
"G  c #3E509956053B",
"H  c #0000A2A20000",
"J  c #0000A8A80000",
"K  c #0000AEAE0000",
"L  c #0101B2B20000",
"P  c #0101B7B70000",
"I  c #0101BBBB0000",
"U  c #0000BEBE0000",
"Y  c #3333B7B70D0D",
"T  c #4B4B88880303",
"R  c #4D4D8A8A0404",
"E  c #4D4D8A8A0606",
"W  c #4E4E8C8C0404",
"Q  c #50508E8E0606",
"!  c #4765939C050C",
"~  c #525294940707",
"^  c #58589E9E0505",
"/  c #55C694CD0846",
"(  c #575798980D0D",
")  c #585898980F0F",
"_  c #5D7299A51564",
"`  c #5D5DA7A70707",
"'  c #5E5EA7A70606",
"]  c #5F5FABAB0707",
"[  c #5DE0ABF808E5",
"{  c #5C5CAAAA0D0D",
"}  c #5B02B76C0002",
"|  c #5A5AAEAE1313",
" . c #4040B1B11010",
".. c #4F4FB1B11414",
"X. c #6161ACAC0606",
"o. c #6161A9A90D0D",
"O. c #6464B2B20606",
"+. c #6363B7B70404",
"@. c #6363BABA0101",
"#. c #6565BFBF0000",
"$. c #6868BBBB0707",
"%. c #6262B1B10909",
"&. c #6363B1B10F0F",
"*. c #6565B4B40D0D",
"=. c #6868BCBC0808",
"-. c #6868BCBC0909",
";. c #6868BDBD0B0B",
":. c #6A6ABEBE0A0A",
">. c #6868BBBB0E0E",
",. c #6868BABA0F0F",
"<. c #6262ACAC1010",
"1. c #6565B2B21111",
"2. c #6565B5B51010",
"3. c #6767B7B71515",
"4. c #6969BCBC1010",
"5. c #6969BCBC1212",
"6. c #6A6AB9B91717",
"7. c #6C6CBDBD1414",
"8. c #6B6BB2B21818",
"9. c #696995432BAD",
"0. c #0000C3C30000",
"q. c #0101C7C70101",
"w. c #0000CACA0000",
"e. c #0000D0D00000",
"r. c #0000D4D40000",
"t. c #0000D8D80000",
"y. c #0000DEDE0000",
"u. c #1818D4D40F0F",
"i. c #1F1FCBCB1010",
"p. c #2929C0C01010",
"a. c #0000E1E10000",
"s. c #0000E5E50000",
"d. c #0000ECEC0000",
"f. c #0E0EE3E30B0B",
"g. c #0101F1F10101",
"h. c #0101F4F40101",
"j. c #6A6AC6C60000",
"k. c #6D6DC4C40303",
"l. c #6B6BC1C10707",
"z. c #6C6CC1C10606",
"x. c #6F6FC7C70606",
"c. c #6F6FC7C70707",
"v. c #6B6BC8C80000",
"b. c #6D6DC8C80000",
"n. c #6F6FC9C90202",
"m. c #6B6BC3C30909",
"M. c #6E6EC2C20B0B",
"N. c #6E6EC6C60808",
"B. c #6969C0C00F0F",
"V. c #7051C9FE0418",
"C. c #7070CACA0404",
"Z. c #712BCA2C0724",
"A. c #723BCA3C0739",
"S. c #7171CACA0707",
"D. c #7272CBCB0707",
"F. c #725FCABA0807",
"G. c #7272CBCB0808",
"H. c #7373CBCB0808",
"J. c #7272CBCB0909",
"K. c #7357CBB60907",
"L. c #7373CACA0B0B",
"P. c #7575CBCB0B0B",
"I. c #7575CBCB0E0E",
"U. c #7676CBCB0F0F",
"Y. c #7575CCCC0C0C",
"T. c #7575CCCC0D0D",
"R. c #7777CCCC1111",
"E. c #7C7CCECE1818",
"W. c #AAB98DDE3D68",
"Q. c #ECEC91910101",
"!. c #ECEC9C9C0101",
"~. c #E7E7A6A60101",
"^. c #EBEBB6B60101",
"/. c #ECECBCBC0202",
"(. c #8383CFCF2525",
"). c #8383CFCF2929",
"_. c #8296C9052E9F",
"`. c #8787D0D02C2C",
"'. c #87FFD2C32E00",
"]. c #856FC8DB3169",
"[. c #8787C8C83F3F",
"{. c #8B8BD0D03535",
"}. c #8C8CD0D03636",
"|. c #8D8DD4D43737",
" X c #8F8FD3D33E3E",
".X c #B8B8E3E33232",
"XX c #BDBDE4E43838",
"oX c #DFDFC8C80909",
"OX c #CFCFD4D41A1A",
"+X c #803B95C84BB2",
"@X c #8484A8A85555",
"#X c #88C0AB8759FD",
"$X c #8F8FB5B55C5C",
"%X c #8A8ACBCB4141",
"&X c #9A44CF2D4DD3",
"*X c #929BD6AC4094",
"=X c #9797D6D64B4B",
"-X c #9A9AD9D94F4F",
";X c #9A9AD7D75151",
":X c #9B9BD2D25757",
">X c #9E9EDBDB5555",
",X c #9898C2C26161",
"<X c #C7C7E7E74242",
"1X c #D4D4E8E84C4C",
"2X c #D7D7E7E75555",
"3X c #D5D5E5E55B5B",
"4X c #9E9EB5B58989",
"5X c #9B9BACAC9393",
"6X c #9999ABAB9898",
"7X c #BFD3E6D190D8",
"8X c #C1C1E7E79494",
"9X c #C4C4E8E89797",
"0X c #CACAE9E9A7A7",
"qX c #CECEEAEAADAD",
"wX c #D0D0EDEDADAD",
"eX c #D3D3D1D1D7D7",
"rX c #DCDCF1F1C3C3",
"tX c #E5E5F3F3D5D5",
"yX c #EBEBF7F7DEDE",
"uX c #EFEFF8F8E5E5",
"iX c #F3F3FAFAEBEB",
"pX c #F5F5FAFAEDED",
"aX c #F9F9FCFCF4F4",
"sX c #F9F9FCFCF6F6",
"dX c #FBFBFDFDF8F8",
"fX c None",
/* pixels */
"fXfXfXfXfXfXfXfXfXfXfXfXfXfXfXfXfXfXfXfXfXfXfXfXfXfXfXfXfXfXfXfX",
"fXfXfXfXfXfXfXfXfXfXfXfXfXfXfXfXfXfXfXfXfXfXfXfXfXfXfXfXfXfXfXfX",
"fXfXfXfXfXfXfXfXfXfXfXX . fXfXfXfXfXfXfXfXfXfXfXfXfXfXfXfXfXfXfX",
"fXfXfXfXfXfXfXfXfX2 : m b > fXfX$ 6 8 8 8 8 8 6 8 = > fXfXfXfXfX",
"fXfXfXfXfXfXfXfXi > f B ^.b . + S H o.o.o.o.o.K K v c i fXfXfXfX",
"fXfXfXfXfXfXfXt O q j 6X4Xm = 7 A D { Q.Q.~.oXOXI H o.c fXfXfXfX",
"fXfXfXfXfXfX- 5 q D i.4XeXk > O q D H K K K | 2X<Xp.q.M   t fXfX",
"fXfXfXfXfX$ 6 w S w.s.0.t t fX$ 0 S K e.w.w.q.XX3X1Xu.U A $ fXfX",
"fXfXfXfX: 6 w S 0.a.I 6 < fXfX$ q D J r.t.t.t.w.XX3X1Xi.D $ fXfX",
"fXfXfX< 7 V D w.t.J 5 t fXfXt 5 S D K r.e.w.e.r.w..X2X.XS # fXfX",
"fXfXfX$ w L t.u.d $ i fXfXp w H D H U t.e.q.q.0.w.q.| XXD # fXfX",
"fXfXt 8 H t.u.k j 2 - fXfX6 H S H I r.y.w.0.q.U w.0...XXH # fXfX",
"fXfX- Z e.t.Z k k f - * 6 S D J U e.t.q.U U q.0.w.q...XXH # fXfX",
"fXfX0 t.t.w # * t h t A H D K w.e.w.U I q.r.s.d.d.d.f..XD # fXfX",
"fXfXq y.A * fXfX: t A Y D K w.r.Y i.q.0.r.s.h.h.h.h.h.h.A * fXfX",
"fXfX8 V # fXfXfX> w H f h Y Y ..5Xi.w.r.d.h.s.S A P U J 7 d fXfX",
"fXfX$ > fXfXfX- Z H H U { Q.Q.{ q.w.t.g.h.g.6 # * # O * fXfXfXfX",
"fXfXfXfXfXfX- 8 S H L q.{ !.!.Q.q.e.d.h.d.6 a fXfX1 3 = fXfXfXfX",
"fXfXfX+ 0 6 9 8 Z L w.q.{ Q.Q.{ r.d.h.s.7 g $X,X#X+XW.z * fXfXfX",
"fXfXfXX { K J D A I y.5X..Y Y ..4Xf.K $ @X:X`.E.T.E.(.&Xx o fXfX",
"fXfXfXX v  .H I q.A e.i.q.e.a.h.Y u.t y {.T.Z.Z.Z.n.*X>X{.u fXfX",
"fXfXfX# c /.p.w.w.K Z e.y.t.h.h.f.j l _.P.Z.H.Z.n.'.pX7Xv.].fXfX",
"fXfXfXfX  b /.o.q.w.I A I f.h.Z # d 9.T.Z.P.Z.P.n.9XsXj.G.T.8.fX",
"fXfXfXfXfX  N /.o.q.r.y.Z Y V < fX, _ H.H.Z.Z.n.|.iX-Xn.P.Z.O.fX",
"fXfXfXfXfXp   Q./.f.a.g.r.O i fXfXfX/ D.G.n.c.G.wXrXR.G.G.G.X.fX",
"fXfXfXfXfXfXd   b ~.Y f.u.- fXfXfX; ! z.).8X=X XdX;Xc.G.c.N.' fX",
"fXfXfXfXfXfXfXfX. c n | u.: fXfXO 9 G $.#.qXaXyX0XM.l.z.m.=.^ fX",
"fXfXfXfXfXfXfXfXfX.     V > fXO 0 Z F [ ;.} tXuX%X@.=.=.B.] fXfX",
"fXfXfXfXfXfXfXfXfXfXfXfXfXfXfXO 5 0 5 e *.,.7.%X+.>.5.5.%.R fXfX",
"fXfXfXfXfXfXfXfXfXfXfXfXfXfXfXfXfXfXfXfXR <.1.2.6.3.&.` T fXfXfX",
"fXfXfXfXfXfXfXfXfXfXfXfXfXfXfXfXfXfXfXfXfXfXQ ) ( ~ W fXfXfXfXfX",
"fXfXfXfXfXfXfXfXfXfXfXfXfXfXfXfXfXfXfXfXfXfXfXfXfXfXfXfXfXfXfXfX"
};
