/* XPM */
static char *vboxgtk[] = {
/* columns rows colors chars-per-pixel */
"32 32 227 2 ",
"   c #3F1876B92F56",
".  c #4070781130AF",
"X  c #292A55975D3D",
"o  c #281954086042",
"O  c #286454086125",
"+  c #32EB5B916D75",
"@  c #218B4B3C7B0E",
"#  c #20B94A117D94",
"$  c #3C906DBB7412",
"%  c #561F9BB21C5F",
"&  c #5ED2AAAD0B8E",
"*  c #5B3CB76B00AA",
"=  c #619FACB90AA2",
"-  c #60CAA9540C70",
";  c #6363B7B70404",
":  c #633CBA6B01AA",
">  c #6565BFBF0000",
",  c #6868BBBB0707",
"<  c #6262B1B10909",
"1  c #6363B1B10F0F",
"2  c #6565B4B40D0D",
"3  c #6868BCBC0808",
"4  c #6868BCBC0909",
"5  c #6868BDBD0B0B",
"6  c #6A3CBE6B0AAA",
"7  c #6868BBBB0E0E",
"8  c #6868BABA0F0F",
"9  c #65B1AE3B1542",
"0  c #6565B2B21111",
"q  c #6565B5B51010",
"w  c #6767B7B71515",
"e  c #69EFBCEE10EE",
"r  c #6969BCBC1212",
"t  c #6A6AB9B91717",
"y  c #6CEFBDEE14EE",
"u  c #4C4C88EF258C",
"i  c #4554815A2849",
"p  c #475E85272C6E",
"a  c #49CB84542E3D",
"s  c #4EFD90962605",
"d  c #538698E72605",
"f  c #55CC98FB2E4C",
"g  c #4FF7905D3780",
"h  c #538091883B7E",
"j  c #5C02A1CB22F4",
"k  c #5C35A3122F2F",
"l  c #6A6AC6C60000",
"z  c #6D6DC4C40303",
"x  c #6B6BC1C10707",
"c  c #6C6CC1C10606",
"v  c #6F6FC7C70606",
"b  c #6F6FC7C70707",
"n  c #6B6BC8C80000",
"m  c #6D6DC8C80000",
"M  c #6F6FC9C90202",
"N  c #6F43C97202B0",
"B  c #6B6BC3C30909",
"V  c #6E6EC2C20B0B",
"C  c #6E6EC6C60808",
"Z  c #6969C0C00F0F",
"A  c #7070C9C90404",
"S  c #7070CACA0404",
"D  c #70EFCAEE04EE",
"F  c #7171CACA0707",
"G  c #7272CBCB0707",
"H  c #71AECAC007D6",
"J  c #726ACABB07F9",
"K  c #7272CBCB0808",
"L  c #7373CBCB0808",
"P  c #7243CA7208B0",
"I  c #7272CBCB0909",
"U  c #7373CBCB0909",
"Y  c #73EDCBED09ED",
"T  c #7373CACA0B0B",
"R  c #7575CBCB0B0B",
"E  c #7575CBCB0E0E",
"W  c #7676CBCB0F0F",
"Q  c #7575CCCC0C0C",
"!  c #7575CCCC0D0D",
"~  c #7777CCCC1111",
"^  c #7C7CCECE1818",
"/  c #5D4B9D3C4581",
"(  c #65AF92A17634",
")  c #77A7A16D7DE1",
"_  c #8383CFCF2525",
"`  c #8383CFCF2929",
"'  c #8787D0D02C2C",
"]  c #88EFD2EE2EED",
"[  c #82EBCA8231D8",
"{  c #8A5ECDBC3658",
"}  c #8787C8C83F3F",
"|  c #8B8BD0D03535",
" . c #8C8CD0D03636",
".. c #8D8DD4D43737",
"X. c #8F8FD3D33E3E",
"o. c #911FB4AA65BF",
"O. c #91E2B4B467EA",
"+. c #9306B5D869A0",
"@. c #9249B6FF6813",
"#. c #83FBAFC07799",
"$. c #8C07B838732B",
"%. c #8596B11778AB",
"&. c #8A8ACBCB4141",
"*. c #92EFD6EE40ED",
"=. c #9797D6D64B4B",
"-. c #9A9AD9D94F4F",
";. c #9532CE235376",
":. c #9A9AD7D75151",
">. c #9E9EDBDB5555",
",. c #9E00D38B5BF8",
"<. c #1F29480E8374",
"1. c #21734BB98041",
"2. c #21184B3C814B",
"3. c #1FBC48DF82BE",
"4. c #21174B8F83DD",
"5. c #21B94C2A804F",
"6. c #219B4C6E8367",
"7. c #22044CCF83F8",
"8. c #200049FF86FF",
"9. c #20204A4A8787",
"0. c #3EC76F78A679",
"q. c #3C006BFFA906",
"w. c #3C3C6C6CA9A9",
"e. c #3E3E6E6EABAB",
"r. c #4F717C338B62",
"t. c #40766F849D9D",
"y. c #419C719EA3B2",
"u. c #42EE7302A634",
"i. c #47627471A838",
"p. c #43FC749DAABD",
"a. c #42427272ADAD",
"s. c #43437373AFAF",
"d. c #48407623AEC4",
"f. c #46467676B0B0",
"g. c #48487777B1B1",
"h. c #4A4A7979B3B3",
"j. c #4D4D7A7AB1B1",
"k. c #4B4B7B7BB4B4",
"l. c #4D4D7D7DB5B5",
"z. c #4F4F7F7FB7B7",
"x. c #52247EB4B0A4",
"c. c #50507D7DB4B4",
"v. c #5B62833C9EB7",
"b. c #6CBB96418151",
"n. c #52E6808CB472",
"m. c #52728106B628",
"M. c #51518080B8B8",
"N. c #53538282BABA",
"B. c #54548383BBBB",
"V. c #55558484BBBB",
"C. c #57578686BCBC",
"Z. c #5B5B8787B9B9",
"A. c #58588585BBBB",
"S. c #5B5B8A8ABFBF",
"D. c #63638D8DBFBF",
"F. c #66668E8EBDBD",
"G. c #6D6D9191BCBC",
"H. c #5D5D8B8BC0C0",
"J. c #5F5F8E8EC2C2",
"K. c #61618F8FC3C3",
"L. c #63639191C5C5",
"P. c #65659393C6C6",
"I. c #67679595C7C7",
"U. c #69699797C9C9",
"Y. c #771D9949C057",
"T. c #71719999C6C6",
"R. c #75759B9BC7C7",
"E. c #7C7C9C9CC3C3",
"W. c #70709B9BCACA",
"Q. c #79799E9EC8C8",
"!. c #7F7FA1A1C9C9",
"~. c #7B7BA2A2CCCC",
"^. c #A946C4328D9E",
"/. c #AF33C6AE901F",
"(. c #B4A5C8A19A36",
"). c #BFECE6ED90EC",
"_. c #C1C1E7E79494",
"`. c #C4C4E8E89797",
"'. c #CACAE9E9A7A7",
"]. c #CECEEAEAADAD",
"[. c #D0D0EDEDADAD",
"{. c #8383A4A4C9C9",
"}. c #8585A5A5CACA",
"|. c #8484A7A7CDCD",
" X c #8C8CAAAACBCB",
".X c #8A8AAAAACECE",
"XX c #9292ADADCDCD",
"oX c #99C6B3CBCF7C",
"OX c #9B9BB3B3CFCF",
"+X c #8D8DADADD0D0",
"@X c #9797B1B1D0D0",
"#X c #9A9AB4B4D2D2",
"$X c #A6A6BBBBD3D3",
"%X c #A2A2BBBBD7D7",
"&X c #A4A4BBBBD4D4",
"*X c #ACACC2C2DADA",
"=X c #B0B0C3C3D7D7",
"-X c #B1B1C4C4D9D9",
";X c #B5B5C8C8DCDC",
":X c #BCBCCBCBDCDC",
">X c #CB29D10CC467",
",X c #C3C3D0D0DDDD",
"<X c #C4C4D1D1DEDE",
"1X c #DCDCF1F1C3C3",
"2X c #DF26E151DB45",
"3X c #DFFAE21ADC33",
"4X c #E079E19BDD67",
"5X c #E5E5F3F3D5D5",
"6X c #EBEBF7F7DEDE",
"7X c #CACAD5D5E0E0",
"8X c #D0D0D9D9E3E3",
"9X c #D6D6DDDDE4E4",
"0X c #D8D8DFDFE5E5",
"qX c #DDDDE3E3E7E7",
"wX c #E759E805E4CF",
"eX c #E85FE85FE66B",
"rX c #E7E7E9E9EAEA",
"tX c #E9E9EAEAEAEA",
"yX c #ECECEDEDEBEB",
"uX c #EDEDEDEDEBEB",
"iX c #EEEEEEEEECEC",
"pX c #EF3BF86BE5A9",
"aX c #F3F3FAFAEBEB",
"sX c #F5F5FAFAEDED",
"dX c #F9F9FCFCF4F4",
"fX c #F9F9FCFCF6F6",
"gX c #FBFBFDFDF8F8",
/* pixels */
"9.9.9.9.9.9.9.9.9.9.9.9.9.9.9.9.9.9.9.9.9.9.9.9.9.9.9.9.9.9.9.9.",
"9.9.9.9.9.9.9.9.9.9.9.9.9.9.9.9.9.9.9.9.9.9.9.9.9.9.9.9.9.9.9.9.",
"9.9.iXiXiXiXiXiXiXiXiXiXiXiXiXiXiXiXiXiXiXiXiXiXiXiXiXiXiXiX9.9.",
"9.9.iXiXiXiXiXiXiXiXiXiXiXiXiXiXiXiXiXiXiXiXiXiXiXiXiXiXiXiX9.9.",
"9.9.iXiXU.U.U.U.U.U.U.U.U.U.U.U.U.U.U.U.U.U.U.U.U.U.U.U.iXiX9.9.",
"9.9.iXiXI.I.I.I.I.I.I.I.I.I.I.I.I.W.~.U.I.P.P.U.P.U.P.U.iXiX9.9.",
"9.9.iXiXP.P.P.P.P.P.P.P.P.P.P.P.P.%X*XP.P.P.P.P.P.P.P.P.iXiX9.9.",
"9.9.iXiXL.L.L.L.L.L.L.L.L.L.L.L.L.0XqXP.P.K.P.K.K.P.K.P.iXiX9.9.",
"9.9.iXiXK.K.K.K.K.K.K.K.K.K.K.K.+XiXyX|.K.K.K.J.K.K.K.K.iXiX9.9.",
"9.9.iXiXJ.J.J.J.J.J.J.J.J.J.J.J.7XiXyX;XJ.J.J.J.J.K.J.J.iXiX9.9.",
"9.9.iXiXH.H.H.H.H.H.H.H.H.H.H.R.iXiXyXrXK.H.S.J.H.H.H.H.iXiX9.9.",
"9.9.iXiXS.S.S.S.S.S.S.S.S.S.S.-XiX-X8XyX.XS.S.S.S.S.S.S.iXiX9.9.",
"9.9.iXiXiXiXiXiXiXiXQ.S.C.S.K.tXiXT.#XiX,XS.S.S.H.C.S.C.iXiX9.9.",
"9.9.iXiXiXiXiXiXiXiX&XC.C.C.#XiX<XA.L.iXtXD.N.C.C.C.C.C.iXiX9.9.",
"9.9.iXiXV.V.V.V.!.iX8XV.N.C.9XiX}.B.B.<XiX@XV.B.B.B.B.B.iXiX9.9.",
"9.9.iXiXN.N.N.N.A.rXiXD.N.{.iX0XB.N.N. XiX<XB.N.N.B.N.N.iXiX9.9.",
"9.9.iXiXz.z.z.z.z.:XuXXXz.,XiX@Xc.N.z.B.tXiXF.N.z.N.M.M.yXyX9.9.",
"9.9.iXiXz.z.z.z.z. XuX,XG.uXtXB.N.z.N.c.;XiXoXc.x.c.M.M.yXyX9.9.",
"9.9.iXiXc.c.l.l.l.A.iXrX-XiX=Xj.z.z.z.h.E.>X^.#.$.#.) v.eXiX9.9.",
"9.9.uXuXl.l.l.h.j.z.7XiXiXuXK.k.h.k.k.i.( ,.' ^ Q ^ _ ;.(.4X9.9.",
"9.9.iXiXh.h.h.h.h.h.oXuXuX,Xh.k.h.h.f.(  .! F F F m *.>.| /.3.9.",
"9.9.iXiXf.h.h.f.h.h.K.uXuXE.f.f.h.s.r.[ R F I R m ] sX_.m { + 9.",
"9.9.iXiXh.p.s.f.s.f.d.qX9Xf.f.f.s.i./ E I R F I F `.fXl I ! h 7.",
"9.9.iXiXs.s.s.s.s.a.s.$X Xs.f.f.s.u.k I F I F M ..aX-.m Q L d # ",
"9.9.iXiXp.e.s.s.p.s.s.G.j.s.s.s.s.t.j I I F N I [.1X~ I I I % @ ",
"9.9.iXiXe.s.s.e.w.p.s.w.w.s.e.p.w.y.f z ` _.=.X.gX:.v I v C s # ",
"9.9.iXiXe.e.q.e.e.e.e.e.w.e.e.e.w.0.g 4 > ].dX6X'.V c c V 3 p 9.",
"9.9.iXiXq.q.q.q.w.w.w.w.w.w.w.w.w.q.$ & 4 * 5XpX&.: 3 3 Z = X 9.",
"9.9.iXiXiXiXiXiXiXiXiXiXiXiXiXiXiXiXwX+.2 8 y &.; 7 r r < o.3.9.",
"9.9.iXiXiXiXiXiXiXiXiXiXiXiXiXiXiXiXyX4X+.9 0 2 t w 1 - o.3X9.9.",
"9.9.9.9.9.9.9.9.9.9.9.9.9.9.9.9.9.9.9.9.3.O . p u i   X <.9.9.9.",
"9.9.9.9.9.9.9.9.9.9.9.9.9.9.9.9.9.9.9.9.9.9.7.3.# 3.7.9.9.9.9.9."
};
