/* XPM */
static char *xbill[] = {
/* columns rows colors chars-per-pixel */
"32 27 174 2 ",
"   c black",
".  c #191919191919",
"X  c gray20",
"o  c #7F7F00000000",
"O  c #7F7F00007F7F",
"+  c #00007BFF7BFF",
"@  c #00007F7F7F7F",
"#  c #49404A74481E",
"$  c #4C4C4C4C4C4C",
"%  c #639663966490",
"&  c #666666666767",
"*  c red",
"=  c #000080800000",
"-  c #5DE0ACFE0CE9",
";  c #5B66B7650068",
":  c #6116AC300A21",
">  c #5FFCA8870BAE",
",  c #6363B7B70404",
"<  c #63CDBACC01CE",
"1  c #6565BFBF0000",
"2  c #6868BBBB0707",
"3  c #6262B1B10909",
"4  c #6363B1B10F0F",
"5  c #6565B4B40D0D",
"6  c #6868BCBC0808",
"7  c #6868BCBC0909",
"8  c #6868BDBD0B0B",
"9  c #6ACDBECC0ACE",
"0  c #6868BBBB0E0E",
"q  c #6868BABA0F0F",
"w  c #63AFAC39134C",
"e  c #6565B2B21111",
"r  c #6565B5B51010",
"t  c #6767B7B71515",
"y  c #69CDBCCC10CD",
"u  c #6969BCBC1212",
"i  c #6A6AB9B91717",
"p  c #6CCDBDCC14CD",
"a  c #632C85FE3AA4",
"s  c #63BD88733A5F",
"d  c #5094BA383128",
"f  c #73EAB2372852",
"g  c #6ED5A3093366",
"h  c #7205A3213A37",
"j  c #79A6B0D43722",
"k  c #7E2FB9253722",
"l  c #6A6AC6C60000",
"z  c #6D6DC4C40303",
"x  c #6B6BC1C10707",
"c  c #6C6CC1C10606",
"v  c #6F6FC7C70606",
"b  c #6F6FC7C70707",
"n  c #6B6BC8C80000",
"m  c #6D6DC8C80000",
"M  c #6F6FC9C90202",
"N  c #6FCDC9CC02CE",
"B  c #6B6BC3C30909",
"V  c #6E6EC2C20B0B",
"C  c #6E6EC6C60808",
"Z  c #6969C0C00F0F",
"A  c #7070C9C90404",
"S  c #7038CAA40442",
"D  c #7171CACA0707",
"F  c #7272CBCB0707",
"G  c #7166CAE607E8",
"H  c #725FCAD30807",
"J  c #7272CBCB0808",
"K  c #7373CBCB0808",
"L  c #71FFCAFF0901",
"P  c #7272CBCB0909",
"I  c #7356CBB80927",
"U  c #7373CACA0B0B",
"Y  c #7575CBCB0B0B",
"T  c #7575CBCB0E0E",
"R  c #7676CBCB0F0F",
"E  c #7575CCCC0C0C",
"W  c #7575CCCC0D0D",
"Q  c #7777CCCC1111",
"!  c #7C7CCECE1818",
"~  c #3E04BC58513B",
"^  c #035D800C7E81",
"/  c #46AABC5F42CD",
"(  c #767CA61B402B",
")  c #77F9A1B64628",
"_  c #7952A30F4780",
"`  c #7B82AC904158",
"'  c #49469641682F",
"]  c #7ED280C67C8D",
"[  c #6FE7B0D26969",
"{  c #4B97C5CB4307",
"}  c #47EDC9E15F04",
"|  c #8383CFCF2525",
" . c #8383CFCF2929",
".. c #8787D0D02C2C",
"X. c #88B2D2B22EB3",
"o. c #80E1CE3433F0",
"O. c #896ECCCC3577",
"+. c #8787C8C83F3F",
"@. c #8B8BD0D03535",
"#. c #8C8CD0D03636",
"$. c #8D8DD4D43737",
"%. c #8F8FD3D33E3E",
"&. c yellow",
"*. c #82CDA6575844",
"=. c #8328A5FB5A0E",
"-. c #8A5ABAFD517E",
";. c #89F2A2556A80",
":. c #8A8ACBCB4141",
">. c #92B2D6B240B3",
",. c #9797D6D64B4B",
"<. c #9A9AD9D94F4F",
"1. c #9A9AD7D75151",
"2. c #9942D0B05438",
"3. c #9E9EDBDB5555",
"4. c #96B9D43D5CA2",
"5. c blue",
"6. c #13EFD145AE4E",
"7. c #44C3CE3E9804",
"8. c #5BC4D0829766",
"9. c #6FE7D3178BAD",
"0. c #7CACD33E8286",
"q. c #1B96DA1BC0A4",
"w. c #2436E018D373",
"e. c #033FF6D8F12C",
"r. c #035DF7D7F21B",
"t. c #06E2F4B3F29B",
"y. c #0569FA0BF85E",
"u. c #036BFD05FB6C",
"i. c cyan",
"p. c #800080008000",
"a. c #8F9592FC8B6D",
"s. c #902C92588E27",
"d. c #950795B3946D",
"f. c #9744994894F8",
"g. c #98FF98FF9906",
"h. c gray60",
"j. c #9E4FAE218C3B",
"k. c #A013B78E81E3",
"l. c #A562B95E8BDA",
"z. c #A1FCB0289127",
"x. c #A247B028920A",
"c. c #A3C0A9369C91",
"v. c #AB74B6AB9DCF",
"b. c #AD17AD17AD17",
"n. c #B2B2B2B2B2B2",
"m. c #BFCCE6CC90CC",
"M. c #BDF6C175B9CE",
"N. c #C1C1E7E79494",
"B. c #C4C4E8E89797",
"V. c #C088C2D9BDB0",
"C. c #C0C0C1E2BF8C",
"Z. c #C041C261BE57",
"A. c #CACAE9E9A7A7",
"S. c #CECEEAEAADAD",
"D. c #D0D0EDEDADAD",
"F. c #C4A4C711C1B8",
"G. c #C4EAC781C1C6",
"H. c #C59EC79AC341",
"J. c #C5AAC79AC359",
"K. c #C650C6C6C592",
"L. c #C6E8C6E8C6E8",
"P. c #C90BCAC2C702",
"I. c #CBFECBFECBFE",
"U. c gray80",
"Y. c #DCDCF1F1C3C3",
"T. c #E5E5F3F3D5D5",
"R. c #EBEBF7F7DEDE",
"E. c gray90",
"W. c #EFCCF8CCE5CC",
"Q. c #F3F3FAFAEBEB",
"!. c #F5F5FAFAEDED",
"~. c #F9F9FCFCF4F4",
"^. c #F9F9FCFCF6F6",
"/. c #FBFBFDFDF8F8",
/* pixels */
"U.U.U.U.U.U.U.U.U.U.U.U.& . . U.U.U.U.U.U.U.U.U.U.U.U.U.U.U.U.U.",
"U.U.U.U.U.U.U.U.U.U.U.p.X & h.X n.n.n.U.U.U.U.U.U.U.U.U.U.U.U.U.",
"U.U.U.U.U.U.U.U.U.U.E.$ . & p.h.$ n.p.X & U.U.U.U.U.U.U.U.U.U.U.",
"U.U.U.U.U.U.U.U.U.U.& . $ h.& p.. h.h.p.p.p.h.U.U.U.U.U.U.U.U.U.",
"U.U.U.U.U.U.U.U.U.p.& p.p.& $ $   p.h.h.h.p.p.& n.U.U.U.U.U.U.U.",
"U.U.n.n.U.n.p.p.U.. p.n.& . p.$ . n.p.$ p.h.h.& p.h.n.U.U.U.U.U.",
"U.U.h.h.U.* o X n.O X $ $ $ h.& $ @ i.i.@ @ & h.p.$ p.h.U.U.U.U.",
"U.U.$ p.n.h.h.h.n.n.$ X h.h.. & & $ i.i.i.p.. $ n.n.& & h.n.U.U.",
"n.n.n.&.n.U.U.U.U.X X h.h.$ p.n.& . @ i.i.@ @ h.X & h.h.& $ n.U.",
"= = = = = = = = h.X h.h.$ & $ & & . @ i.h.p.i.i.i.@ $ & n.n.h.n.",
"U.U.n.h.n.U.n.n.n.n.$ . X $ $ $ $ . i.i.@ @ i.i.i.i.i.$ & n.n.U.",
"U.E.5.5.p.5.5.5.5.n.X . $ $ & $ $   @ i.h.i.i.i.i.i.@ p.n.U.U.U.",
"U.n.h.h.h.i.h.h.h.n.h.$ . . X n.&   & @ @ i.u.y.t.y.^ h.U.U.U.U.",
"U.U.U.h.h.U.U.U.U.U.E.h.& @ @ $ X @ & & + w.8.9.0.[ ;.c.L.U.U.U.",
"U.n.&.$ $ p.p.p.p.p.n.n.n.n.i.@ X i.@ # ' 4...! E ! | 2.l.C.U.U.",
"U.U.p.$ $ X X X $ $ n.p.& i.i.i.i.i.% 7.#.E D D H m >.3.@.k.L.U.",
"U.U.U.U.U.U.U.U.U.U.n.& $ i.i.i.i.@ q.o.W L H P m X.!.m.n O.v.I.",
"U.U.U.U.U.U.U.h.n.U.& @ i.i.i.i.@ ] } T H P P H D B.^.n H Q -.P.",
"U.U.U.U.U.U.h.. & n.h.& p.i.i.i.& t.{ H H U H n $.Q.<.m P F k G.",
"U.U.U.U.U.U.U.h.X . p.U.h.@ i.i.^ a.d K H N N L D.Y.Q H H P f M.",
"U.U.U.U.U.U.U.U.h.p.$ p.n.n.h.X ^ r./ z  .m.,.%./.1.b H D C j F.",
"U.U.U.U.U.U.U.U.U.U.h.h.p.p.n.p.^ f.~ 6 x S.~.R.A.V x c B 7 ` P.",
"U.U.U.U.U.U.U.U.U.U.U.U.h.& & h.I.h.6.- 7 ; T.W.:.< 7 7 8 : j.I.",
"U.U.U.U.U.U.U.U.U.U.U.U.U.n.$ p.h.n.d.s 5 q u :., 0 u u 3 *.L.U.",
"U.U.U.U.U.U.U.U.U.U.U.U.U.U.U.U.$ h.h.s.a w e r i t 4 - =.C.I.I.",
"U.U.U.U.U.U.U.U.U.U.U.U.U.U.U.U.U.h.& p.b.x._ ( g h _ x.L.I.U.U.",
"U.U.U.U.U.U.U.U.U.U.U.U.U.U.U.U.U.U.n.& $ n.P.F.M.K.P.U.U.U.U.U."
};
