/* XPM */
static char *xmotd[] = {
/* columns rows colors chars-per-pixel */
"32 32 183 2 ",
"   c #00654687008A",
".  c #04AB4A4105D7",
"X  c #07054C3D08AD",
"o  c #09874E870BCF",
"O  c #0C1B51980EAF",
"+  c #0D114F6910E0",
"@  c #0F53544F129C",
"#  c #1127556D1558",
"$  c #14A6551A1AA5",
"%  c #14E959481969",
"&  c #18B45C971E08",
"*  c #3F877E4F1ADE",
"=  c #1B755EF0220F",
"-  c #208A635A278F",
";  c #23FC66552BBE",
":  c #26CB68C42F29",
">  c #3BFA7AA22146",
",  c #356570FA2C63",
"<  c #26EC6225322F",
"1  c #29E863FE360C",
"2  c #27926973314A",
"3  c #2B506CA834A6",
"4  c #2E0F67053B64",
"5  c #2F006FDD3920",
"6  c #31896F303B7D",
"7  c #35BB757C3205",
"8  c #3B9977E53616",
"9  c #32E6732E3DE8",
"0  c #3F2977E33941",
"q  c #3A0279373B4E",
"w  c #418D7F9A393F",
"e  c #35E9752841D2",
"r  c #39AE778046CF",
"t  c #3E097A394C41",
"y  c #424675455573",
"u  c #46717F6357B8",
"i  c #49B37AAF5F07",
"p  c #4BE77C1E61DD",
"a  c #454C843A1722",
"s  c #4A348BF71545",
"d  c #5010912216DA",
"f  c #594993881787",
"g  c #518290B51EF3",
"h  c #63D29D3C0FBD",
"j  c #5C5EA66C0852",
"k  c #5B35B7740042",
"l  c #58E8A37E140A",
"z  c #60BCAC88071B",
"x  c #6062ABD70C2C",
"c  c #6363B7B70404",
"v  c #644CBD19009F",
"b  c #6868BBBB0707",
"n  c #63B9B2B20C62",
"m  c #68B4BCAF0B3F",
"M  c #6A01A03411B4",
"N  c #638BACBB1429",
"B  c #6091A6681934",
"V  c #6610B55F1212",
"C  c #6A4FBC181369",
"Z  c #581D9D302169",
"A  c #5FDE994B2D8D",
"S  c #4AC287693571",
"D  c #441881C337F3",
"F  c #511A8CC83318",
"G  c #63BC9C932C1C",
"H  c #625294143E29",
"J  c #6B67A3142930",
"K  c #6C1DAE66287F",
"L  c #7A0FAF8123A6",
"P  c #7DCAB2B321F1",
"I  c #6C89AA0D3516",
"U  c #6E81A71E3C4D",
"Y  c #7304B3AE3762",
"T  c #6D6DC57C052A",
"R  c #6E79C9750163",
"E  c #6C6CC3830ACB",
"W  c #7132CAA505D4",
"Q  c #737BCB80097B",
"!  c #7777CCCC1111",
"~  c #7C7CCECE1818",
"^  c #5B588FE44212",
"/  c #4B2D82535DFE",
"(  c #600E90CD4AEC",
")  c #71359EB15C05",
"_  c #6D93A67E4246",
"`  c #7BFDB3F651D1",
"'  c #4E92846D627C",
"]  c #540784466B4B",
"[  c #586A8A886F85",
"{  c #5CA98D2A752D",
"}  c #60168F4C79AD",
"|  c #634191427DDF",
" . c #73E1A15468D3",
".. c #8B07BDE21D4D",
"X. c #890CB0F33FB2",
"o. c #8F0BC1471ADB",
"O. c #9C7FCCCD15E0",
"+. c #953FC6AC18BF",
"@. c #AECDDC7C0DB7",
"#. c #B29ADFA70CB4",
"$. c #A4C5D3D71293",
"%. c #A9AAD8141013",
"&. c #B58AE0381556",
"*. c #B0F8DA261ACF",
"=. c #B638E2A30BEF",
"-. c #B98EE5630BEF",
";. c #B726E262136B",
":. c #B692E0CB1BD2",
">. c #8383CFCF2525",
",. c #82E5CD132BE4",
"<. c #8787D0D02C2C",
"1. c #88B6D2E02E1C",
"2. c #8830CC31357E",
"3. c #8787C8C83F3F",
"4. c #8C8CD2273636",
"5. c #8F8FD3D33E3E",
"6. c #B416DCAD2BD5",
"7. c #B2C4DA7F3446",
"8. c #B741E0832288",
"9. c #9A86BF7D7F1E",
"0. c #8A8ACBCB4141",
"q. c #9AD5C3B33FFC",
"w. c #929FD6B640CE",
"e. c #9797D6D64B4B",
"r. c #9A9AD9D94F4F",
"t. c #97D7CFFE5440",
"y. c #9C20CCBF54D3",
"u. c #9A9AD7D75151",
"i. c #9E9EDBDB5555",
"p. c #B02AD5FE4674",
"a. c #AE79D2CD5438",
"s. c #AD74D0F45BFC",
"d. c #9E09C5DC7177",
"f. c #AC44CED664B9",
"g. c #ABDECDC26A9B",
"h. c #AA76CB55742B",
"j. c #A9C2C96A7E53",
"k. c #67E994258408",
"l. c #6D5D967B8864",
"z. c #716699418C9F",
"x. c #7F929FD08C74",
"c. c #70A695EF913C",
"v. c #746E9BEB949D",
"b. c #787C9D1B9A94",
"n. c #7D5BA173A06D",
"m. c #8C0AADC08256",
"M. c #912CAF7B8C4D",
"N. c #9557B60E8693",
"B. c #8364A1379414",
"V. c #8BE4A73A9E84",
"C. c #8167A2C5A655",
"Z. c #8639A6B6AC48",
"A. c #961CAC0DAFEB",
"S. c #93D6B208A281",
"D. c #8D1BAAC8B57C",
"F. c #8F8BAB7DB913",
"G. c #91D5AB9BB46F",
"H. c #941EAECFBDCF",
"J. c #A39CBE5DAC59",
"K. c #A1BCBAC3BC19",
"L. c #A863C77B84A1",
"P. c #A4EBC26E8A5D",
"I. c #A63BC361966F",
"U. c #BF9FE6B590D1",
"Y. c #C1C1E7E79494",
"T. c #C4C4E8E89797",
"R. c #CACAE9E9A7A7",
"E. c #CECEEAEAADAD",
"W. c #D0D0EDEDADAD",
"Q. c #96BAAD53C07C",
"!. c #9729B187C292",
"~. c #9BDCB426C6A0",
"^. c #9F92B6AACDC6",
"/. c #9FD5B681D0E5",
"(. c #A10AB7A1CFAF",
"). c #A22CB87ED117",
"_. c #DCDCF1F1C3C3",
"`. c #E5E5F3F3D5D5",
"'. c #EBEBF7F7DEDE",
"]. c #EF31F872E53C",
"[. c #F4F4FAFAECEC",
"{. c #F9F9FCFCF5F5",
"}. c #FBFBFDFDF8F8",
/* pixels */
"{ 9 9 9 9 9 9 q o.=.g./.^.^.^.^.^.^.^.^.^.^.^.^.^.^.^.^.D.t 9 - ",
"H./ 9 9 9 9 9 9 S $.:.I./.^.^.^.^.^.^.^.^.^.^.^.^.^.^.~.] 9 2 X ",
"^.Z.t 9 9 9 e 9 9 G @.7.K././.^.^.^.^.^.^.^.^.^.^.^.~.| q 3 O X ",
"^.^.v.e 9 9 9 9 9 9 L ;.s.~.^.^.^.^.^.^.^.^.^.^.^.).b.e 5 @ . i ",
"^.^.~.} 9 9 9 9 9 9 q o.=.L.).^.^.).^.^.^.^.^.^./.n.r 9 =   y ~.",
"^.^.).H.' 9 9 9 9 9 9 S $.6.J.^.).~.^.^.^.^.^.^.F./ 9 ; . 1 D.).",
"^.^.^.).Z.t 9 9 9 9 9 5 A @.p.K.^.^.^.^.^.^.^.~.] e 2 o $ n.).^.",
"^.^.^.^.^.v.9 9 9 9 9 9 q P -.f.^.^.^.^.^.).^.k.e 5 o @ c.).^.^.",
"^.^.^.^.^.~.} 9 9 e 9 9 9 w +.:.I./.^.^.^.^.b.r 5 # . p ).^.^.^.",
"^.^.^.^.^.).H.' 9 9 9 9 9 9 F %.7.J.).^.).D.t 9 & . y ~.).^.^.^.",
"^.^.^.^.^.^.^.Z.t 9 9 9 9 9 9 A #.a.~.^.H./ 9 - . 4 F.^.^.^./.^.",
"^.^.^.^.^.^.^.).v.e 9 9 9 9 9 q L =.j.~.{ 9 3 X # n.).^.^.^.^.^.",
"^.^.^.^.^.^.^.^.~.} 9 9 9 9 9 9 D +.8. .e 5 @ o c.).^.^.^.^.^.^.",
"^.^.^.^.^.^.^.^.^.H.' 9 9 9 9 9 e > f w 7 # . ] ^.^.^.^.^.^.^.^.",
"^.^.^.^.^.^.^.^.^.).Z.t 9 e 9 9 2 # 2 9 & . y ~.^.^.^.^.^.^.^.^.",
"^.^.^.^.^.^./.^.^.^.^.v.e 9 9 5 # ; 9 7 > h S.).^.^.^.^.^.^.^.^.",
"^.^.^.^.^.(.^.^.^.^.^.~.' 9 9 % & 9 9 q ..-.g.(.(.^.(.(.(.^.^.^.",
"^.^.^.^.^.).~.^.^.^.^.n.r 9 = + 5 e 9 9 D O.&.P.!.~.~.(.^.^.^.^.",
"^.^.^.^.^.^.^.^.^.^.D.t 9 ; o 2 9 9 9 9 6 H q.y.d.9.N.A.~.(.^.^.",
"(.^.^.^.^.^.^.^.).H.' 9 3 o X 6 e 9 9 5 ( y.<.~ ! ~ >.t.M.H.^.^.",
"^.^.^.^.^.^.^.^.~.| 9 5 @   1 p 9 9 9 ^ 4.! W W Q R 5.i.2.m.~.^.",
"^.^.^.^.^.^.^.(.v.e 9 %   $ b.!./ 9 0 ,.Q W Q Q R 1.[.U.R 2.V.^.",
"^.^.^.^.^.^.^.n.r 9 = . + c.^.^.Z.t Z Q Q Q Q Q W T.{.R W ! ` ~.",
"^.^.^.^.^.(.F.u 9 ; . . ] ^.^.^.^.z.l Q Q W W R 4.[.r.R Q Q Y !.",
"^.^.(.(.(.~.' 9 2 o   p ~.).^.^.(.G.B Q Q R T Q W._.! Q Q Q K H.",
"^.^.~.(.~.| 9 5 +   4 H.).(.^.^.^.~.I R ,.Y.e.5.}.u.W W T E I H.",
"^.^.^.^.b.e 9 %   < D.(.(.^.^.^.^.~._ b v E.{.'.R.m T T T b U ^.",
"^.^.).Z.t 9 = . $ b.(.^.^.^.^.^.^.^.x.x m k `.].0.v b m C z X.~.",
"^.^.D./ 9 : X o c.(.(.^.^.^.(.^.^.^.~.) n m C 0.c m C C n h *.h.",
"^.~.[ 9 5 o . ] ^.^.^.^.^.^.^.^.^.^.^.H.) N N m C C n j * 8 O.&.",
"~.k.9 9 @   i ^.(.^.^.^.^.^.^.^.^.^.^.^.~.B.H g d s a , 6 9 F $.",
"b.e 9 =   < F.^.^.^.^.^.^.^.^.^.^.^.^.^.(.(.(.l.9 6 9 9 9 9 9 J "
};
