/* XPM */
static char *xosview[] = {
/* columns rows colors chars-per-pixel */
"25 32 256 2 ",
"   c #37CA5CB33C89",
".  c #43EF5CD93736",
"X  c #4D097C552DE1",
"o  c #49675FF4363D",
"O  c #495179F438AC",
"+  c #1F1F0D0D6E6E",
"@  c #001100117E98",
"#  c #1C9C0B0B7070",
"$  c #12D80A557B91",
"%  c #0586199A7777",
"&  c #0AF21A6579C0",
"*  c #0404131379FA",
"=  c #171710107878",
"-  c #18981A1A7B7B",
";  c #3ABB00006262",
":  c #2F2F16166363",
">  c #252513337CFD",
",  c #2A2A171775F6",
"<  c #266709497172",
"1  c #156B3E3E6EC4",
"2  c #0A0A20207777",
"3  c #10902EAF7373",
"4  c #1B1B2A2A7B7B",
"5  c #186E35E0741E",
"6  c #34512A7E6D75",
"7  c #3636232363E4",
"8  c #393934346565",
"9  c #23EE2B1778D1",
"0  c #21A236B77979",
"q  c #32A42D9F71C7",
"w  c #5E5E11115C5C",
"e  c #575709095B05",
"r  c #7AFB01824444",
"t  c #63E417175EDF",
"y  c #76761C1C5757",
"u  c #595938E359AF",
"i  c #4E4E0E0E6565",
"p  c #49B319A16A7E",
"a  c #58181B5C6727",
"s  c #565623236F6F",
"d  c #50503C3C6A6A",
"f  c #58343B917926",
"g  c #450531066EDA",
"h  c #747432326767",
"j  c #202049496A6A",
"k  c #23234B4B7D7D",
"l  c #3434529371B1",
"z  c #3B3B6D6D6F6F",
"x  c #3C3C70706E6E",
"c  c #343461E27575",
"v  c #52524F4F5F5F",
"b  c #5D5D5E5E5959",
"n  c #6EEF46464A4A",
"m  c #6A6A55554E4E",
"M  c #6F6F4C4C5959",
"N  c #71714C4C5151",
"B  c #64E551D25858",
"V  c #74745E5E5252",
"C  c #4D7A61FD5E72",
"Z  c #68E967E85252",
"A  c #7D7D7B7B5454",
"S  c #4A4A4B4B6565",
"D  c #404057576161",
"F  c #535353536767",
"G  c #5B5B4A4A7C7C",
"H  c #43435DDE7AFA",
"J  c #585852527272",
"K  c #565649496666",
"L  c #69694A4A6363",
"P  c #696955556711",
"I  c #4E8C625D6AA3",
"U  c #501D69086CE2",
"Y  c #535372726868",
"T  c #51587B3B72E4",
"R  c #7A7A60606868",
"E  c #60D6769E6E3E",
"W  c #636365E67878",
"Q  c #B50119193C3C",
"!  c #B9B936363B3B",
"~  c #8A8A5B5B3EBF",
"^  c #B2B277773E3E",
"/  c #B1B127274343",
"(  c #83AA598D5421",
")  c #8B0B5F5F5151",
"_  c #8B2461FB5252",
"`  c #81817F7F5656",
"'  c #85854B4B7171",
"]  c #5F57AB1A0A95",
"[  c #5C04A48A0A17",
"{  c #5B61B78800A9",
"}  c #6463BD2400D5",
"|  c #63B9B2B20C62",
" . c #68BCBCB30B50",
".. c #65E6B9B90586",
"X. c #613EA98A12D1",
"o. c #6610B55F1212",
"O. c #6A54BBEB1385",
"+. c #4DE282F3242F",
"@. c #512B8CC725AE",
"#. c #5F6E9F592C35",
"$. c #4F1A80933850",
"%. c #5D4F9E00323B",
"&. c #5CE799A23EF9",
"*. c #6D5282C226F5",
"=. c #6233A9D22381",
"-. c #6D6DC57C052A",
";. c #6E60C95A016E",
":. c #6C6CC3830ACB",
">. c #70FCCA9205B2",
",. c #7370CB750971",
"<. c #7C7CCECE1818",
"1. c #7777CCCC1111",
"2. c #6D6D81815F5F",
"3. c #5EDF9D5D6DEE",
"4. c #52E8800374C0",
"5. c #60609E1E6CED",
"6. c #6767A12169EA",
"7. c #7B7BB0B06565",
"8. c #7A7AA9A96666",
"9. c #8383CFCF2727",
"0. c #8812D1E42D7C",
"q. c #86F7CC4B37C2",
"w. c #8C8CD2273636",
"e. c #8F8FD3D33E3E",
"r. c #9A9A99444AF6",
"t. c #8D0D941351D2",
"y. c #97979B9B5555",
"u. c #A222A1A14A4A",
"i. c #A5A5A2224545",
"p. c #8C26BDD7783C",
"a. c #81FAB3C37DBC",
"s. c #8A8ACBCB4141",
"d. c #96BBD78F4908",
"f. c #95CBCD2855D2",
"g. c #9C9CD9D95353",
"h. c #A3A3C1C15555",
"j. c #921EC2B67394",
"k. c #C3C3D5D54F4F",
"l. c #D8D8D1D14E4E",
"z. c #E5E5EEEE4343",
"x. c #EDEDF3F34141",
"c. c #021C01EE8125",
"v. c #0AB505058202",
"b. c #0ADC0A6782DF",
"n. c #10D10D4D83C3",
"m. c #0DCE16D78747",
"M. c #144D13B08513",
"N. c #1A53158784F6",
"B. c #16941943858F",
"V. c #1BC01B22862F",
"C. c #1F1F1D1D8888",
"Z. c #13CE1CD789CF",
"A. c #12920A0A9515",
"S. c #169617179595",
"D. c #21381E788506",
"F. c #28281D9E8787",
"G. c #202017178686",
"H. c #04B42DDB8469",
"J. c #05B0252589DF",
"K. c #027C2BA58A7E",
"L. c #149425458D2D",
"P. c #1C0D26DB8A7A",
"I. c #1F1F32078F64",
"U. c #0B8C24A59615",
"Y. c #19E1287694C4",
"T. c #189825259616",
"R. c #189837379717",
"E. c #2424235E893A",
"W. c #2B5E258C8922",
"Q. c #2B00283E8949",
"!. c #31DC277D852F",
"~. c #32322AAB8A8A",
"^. c #3A3A2E2E8C36",
"/. c #2AEB37378989",
"(. c #367632328B4B",
"). c #36293A708BEE",
"_. c #3C3C38388D8D",
"`. c #3B3B32DD8C8C",
"'. c #2753377E94BD",
"]. c #343438389919",
"[. c #23261A5DA213",
"{. c #3B3B3E3EB1B1",
"}. c #42C335358707",
"|. c #43EE3C678E8E",
" X c #043A5CEC8461",
".X c #00E25CE88D67",
"XX c #07B25A048832",
"oX c #212149498080",
"OX c #353546F18989",
"+X c #3E3E50508D8D",
"@X c #282846869656",
"#X c #2CAD4ACA9C1C",
"$X c #2D2D55559D9D",
"%X c #32B35EDF9818",
"&X c #34DF499F9943",
"*X c #038460608E0E",
"=X c #00006B6B9090",
"-X c #2F2F62629292",
";X c #32B361619F1F",
":X c #2C2C4545A0A0",
">X c #3F3F4A4AA7A7",
",X c #3A3A5AB0A8A8",
"<X c #37E76A72A1DE",
"1X c #3F3F7373A5A5",
"2X c #464640408F39",
"3X c #4A4A42ED8F8F",
"4X c #4DCE46469090",
"5X c #52A84AA09191",
"6X c #414151519B1B",
"7X c #5C5C5353933D",
"8X c #64BA595994EA",
"9X c #484863638D8D",
"0X c #484872729898",
"qX c #6E1863639741",
"wX c #79796E6E9999",
"eX c #7E7E72729A9A",
"rX c #48485757AC01",
"tX c #42FC69CDA634",
"yX c #5CDD7B7BA524",
"uX c #868675F69C1C",
"iX c #045A863088DE",
"pX c #02E48C118EA8",
"aX c #040482828585",
"sX c #010194949595",
"dX c #0000A0A0A1A1",
"fX c #68209ED88235",
"gX c #6F44A6869F6F",
"hX c #7057A8359FAF",
"jX c #784CB2779299",
"kX c #46C78383AAAA",
"lX c #539382C2A6E6",
"zX c #548088EEAD04",
"xX c #58F2897EAAF4",
"cX c #5AA2972DA312",
"vX c #6AEA9A1AAE2E",
"bX c #78789F9FB0B0",
"nX c #63DDA68AAFBE",
"mX c #6695AAF6B3F4",
"MX c #6686AA3AB4E4",
"NX c #76C6AE9EB141",
"BX c #6AAAB1B1B777",
"VX c #7A9FB446B6FF",
"CX c #8181B1B1B4B4",
"ZX c #8787A8A8ABAB",
"AX c #89F5D6409D41",
"SX c #BF9CE6F690CC",
"DX c #8383C6C6BCBC",
"FX c #C343E8689616",
"GX c #CCCCEA6AAAAA",
"HX c #D0D0EDEDADAD",
"JX c #9E1EFA7ACD4D",
"KX c #DCDCF1F1C3C3",
"LX c #E8E8F5F5DA5A",
"PX c #EF73F830E566",
"IX c #F4F4FAFAECEC",
"UX c #FAA4FD52F6F6",
/* pixels */
"dXpXpXiXpXpXpXpXiXpXpXpXpXpXpXpXpXpXpXpXpXiXpXpXsX",
"pX@ @ @ @ @ @ @ + + + + $ b.L.$ @ @ @ @ @ @ @ @ .X",
"pXv.V.N.v.b.v.= N ) ~ n G cX0X6X$ = = = = = $ $ .X",
"iX^.wXqXE.E.Q.E.L _ ( ( V ( ( ( _ _ ) ) ) _ _ R XX",
"pXv.b.b.v.b.b.b.S v v V Z B B L N M P W W J d g .X",
"pXN.(.E.B.D.E.M.5 9 /.b b S F G u d (.$X;X@XB.$ .X",
"pX^.4X3X~._.2X(.` i.y.r.u.i.u.r.r.t.Y c c t.2.H .X",
"pXv.c.b.b.b.b.$ l D l A Z b Z P m b OX-X-XH 9 2 .X",
"pXG.~.V.N.V.Q.M.% % Z.8 8 6 6 > : , G.U.R.U.@ @ .X",
"pX}.5X4X2X5X7X|.T 3.3.3.6.6.6.3.6.8.k.z.x.7.h.l..X",
"pXc.c.c.c.c.@ @ & & % * & & 2 2 7 7 7 N.< ; < ; XX",
"pXn.C.c.$ M.n.m.3 1 3 1 3 1 j q u n u q i r e r XX",
"pXuXqX4X`.eXuX8Xc x x z x x ^ ! Q Q Q Q Q Q / vX*X",
"pXc.c.c.@ @ @ @ 4 0 9 '.OX&X+X!.> > > > > G.> D..X",
"pXV.^.Q.n.M.N.B.k c oX9X;XkX1X@XL.L.P.L.L.L.L.B.*X",
"pX}.qX7XE.(.|.(.0XlXyXkXlXlXkXlXzXxXxXxXxXxXxXyX.X",
"pXc.@ v.@ M.b.@ ,XtXrXrX>X6X1XkX#X'.I.I.'.I.I.P..X",
"pX`.|.Q.b.@ n.M.:XrX].{.].`.;X1X).P.D.Z.B.B.B.M..X",
"pX~.7X3Xv.@ B.Q.xXmXMXMXmXnXhXa.p.j.p.7.hXmXBXvX.X",
"pX@ v.v.c.@ @ @ :X:X>X{.].E f.0.<.1.<.0.f.U 2 m..X",
"pX!.Q.N.c.@ b.b.Y.].A.[.I w.,.>.,.,.;.e.g.w.C @ .X",
"pXqX|.D.@ @ E._.DXJXJXAXq.,.>.,.,.;.0.IXSX;.q.jX.X",
"pXc.c.c.c.c.@ c.T.S.Y.$.1.>.,.,.,.>.FXUX;.>.1.O  X",
"pXF.E.E.v.@ b.B.,X,XtX#.,.>.,.,.;.w.IXg.;.,.>.@. X",
"pX8X3X8XN.@ Q.(.lXMXcX=.,.,.-.;.,.HXKX1.,.,.>.=. X",
"pX@ @ @ @ @ @ c.i a p +.-.9.FXd.e.UXg.>.-.>.-.+. X",
"pXF.|.W.b.@ @ c.t h G X  .-.GXIXLXGX:. . .-. .X *X",
"pX^.5X(.B.c.c.$ f yXzXT ]  .{ LXPXs.}  . .:.[ T .X",
"aXc.@ @ c.@ c.c.w y p D.. | O.O.q.|  .O.O.|   B..X",
"pX~.4X`.b.c.c.c.a s s W.6 o X.o.o.O.o.| [   9 V..X",
"pX~.|.Q.M.@ c.$ ' ZXVXVXCXNXfX*.*.#.%.&.fXNXVXbX.X",
"pXJ.K.J.K.J.K.K.K.K.K.K.K.K.K.H.H.H.H.K.K.K.K.K.=X"
};
