/* XPM */
static char *zekr_32[] = {
/* columns rows colors chars-per-pixel */
"32 32 195 2 ",
"   c #008800880088",
".  c #090909090909",
"X  c #14EA14EA14EA",
"o  c gray11",
"O  c #1DE8214E19BF",
"+  c #232323232323",
"@  c #2BEC2BEC2BEC",
"#  c #33B433B433B4",
"$  c #3C3C3C3C3C3C",
"%  c #40403F3F3F3F",
"&  c #458E5D09275E",
"*  c #4E4E4E4E4E4E",
"=  c #5BDC5B9B5B1B",
"-  c #62E262626262",
";  c #686867676767",
":  c #73C973C973C9",
">  c #775A778D7497",
",  c #7DD37CD27C26",
"<  c #4B4B88880303",
"1  c #4D4D8A8A0404",
"2  c #4D4D8A8A0606",
"3  c #4E4E8C8C0404",
"4  c #4F4F8E8E0808",
"5  c #50AB8E230513",
"6  c #50508E8E0606",
"7  c #525294940707",
"8  c #58589E9E0505",
"9  c #58589F9F0707",
"0  c #575798980D0D",
"q  c #585898980F0F",
"w  c #5D5DA6A60606",
"e  c #5D5DA7A70707",
"r  c #5E5EA7A70606",
"t  c #5F5FABAB0707",
"y  c #5F5FABAB0909",
"u  c #5B5BB7B70000",
"i  c #6161ACAC0606",
"p  c #6464B2B20606",
"a  c #6363B7B70404",
"s  c #6363BABA0101",
"d  c #6565BFBF0000",
"f  c #6868BBBB0707",
"g  c #6262B1B10909",
"h  c #6363B1B10F0F",
"j  c #6565B4B40D0D",
"k  c #6868BCBC0808",
"l  c #6868BCBC0909",
"z  c #6868BDBD0B0B",
"x  c #6A6ABEBE0A0A",
"c  c #6868BBBB0E0E",
"v  c #6868BABA0F0F",
"b  c #6262ACAC1010",
"n  c #6565B2B21111",
"m  c #6565B5B51010",
"M  c #6767B7B71515",
"N  c #6969BCBC1010",
"B  c #6969BCBC1212",
"V  c #6A6AB9B91717",
"C  c #6C6CBDBD1414",
"Z  c #6B6BB2B21818",
"A  c #73EFAD7D2A39",
"S  c #6A6AC6C60000",
"D  c #6D6DC4C40303",
"F  c #6B6BC1C10707",
"G  c #6C6CC1C10606",
"H  c #6F6FC7C70606",
"J  c #6F6FC7C70707",
"K  c #6B6BC8C80000",
"L  c #6D6DC8C80000",
"P  c #6F6FC9C90202",
"I  c #6B6BC3C30909",
"U  c #6E6EC2C20B0B",
"Y  c #6E6EC6C60808",
"T  c #6969C0C00F0F",
"R  c #7070C9C90404",
"E  c #7070CACA0404",
"W  c #70EACAE604E6",
"Q  c #7171CACA0707",
"!  c #7272CBCB0707",
"~  c #7200C9FF0800",
"^  c #71E4CAE107E0",
"/  c #7283CACB07FF",
"(  c #7272CBCB0808",
")  c #7373CBCB0808",
"_  c #7272CBCB0909",
"`  c #7378CBB90928",
"'  c #7373CACA0B0B",
"]  c #7575CBCB0B0B",
"[  c #7575CBCB0E0E",
"{  c #7676CBCB0F0F",
"}  c #7575CCCC0C0C",
"|  c #7575CCCC0D0D",
" . c #7777CCCC1111",
".. c #7C7CCECE1818",
"X. c #8383CFCF2525",
"o. c #8383CFCF2929",
"O. c #8787D0D02C2C",
"+. c #87FFD1FF2E00",
"@. c #8787CCCC3131",
"#. c #86A7CCDA3289",
"$. c #8787C8C83F3F",
"%. c #8B8BD0D03535",
"&. c #8C8CD0D03636",
"*. c #8D8DD4D43737",
"=. c #8F8FD3D33E3E",
"-. c #807AB00D4456",
";. c #8A8ACBCB4141",
":. c #9285D6844085",
">. c #9797D6D64B4B",
",. c #9A9AD9D94F4F",
"<. c #9A9AD7D75151",
"1. c #99FFD15554CC",
"2. c #9E9EDBDB5555",
"3. c #9E0DD3735BC9",
"4. c #AE45D0447F28",
"5. c #85DB858584DA",
"6. c #8D8D8BE18B35",
"7. c #92928F8F8D8D",
"8. c #9F9F8F8F8E8E",
"9. c #941E9D238246",
"0. c #9640949493E9",
"q. c #9B9B95959393",
"w. c gray61",
"e. c #A2A294949393",
"r. c #ABAB96969595",
"t. c #A34D9D9D9B9B",
"y. c #B5B59E9E9D9D",
"u. c #A674BD1285F4",
"i. c #AC63BEEF9085",
"p. c #A5A5A4A4A464",
"a. c #ACACA8A8A6A6",
"s. c #ADADABABAA54",
"d. c #B207AEAEAC01",
"f. c #B78EB3A6B0B8",
"g. c #B5B5B3B3B2B2",
"h. c #BCBCB8B8B5B5",
"j. c #BCBCBBBBBBBB",
"k. c #C3C3ACACAAAA",
"l. c #C8C8B1B1B0B0",
"z. c #C0C0BD67BBBB",
"x. c #B045CEA486CC",
"c. c #B0C3CF328746",
"v. c #B0DCC8598E8E",
"b. c #AF57C2049301",
"n. c #B47FCC77943E",
"m. c #BFBFE6E69090",
"M. c #C1C1E7E79494",
"N. c #C4C4E8E89797",
"B. c #CAF2CE23C03F",
"V. c #CACAE9E9A7A7",
"C. c #CECEEAEAADAD",
"Z. c #D0D0EDEDADAD",
"A. c #C544C343C242",
"S. c #CCCCC747C545",
"D. c #CE9CCD1BC6F0",
"F. c #CD97CE5DC769",
"G. c #CD22CC76CBCB",
"H. c #D4D4C5C5C3C3",
"J. c #D260CECECCCC",
"K. c #D1CED5F6C7F2",
"L. c #D4D4D1D1CECE",
"P. c #D4D1D2C1CE8D",
"I. c #D5FAD41CD2D2",
"U. c #D9A6D6D6D53B",
"Y. c #DC75D93FD73D",
"T. c #DD45DC73DBDB",
"R. c #E277DEF3DCF1",
"E. c #DCDCF1F1C3C3",
"W. c #E332E07FDECD",
"Q. c #E44EE161DF49",
"!. c #E5E5F3F3D5D5",
"~. c #EBEBF7F7DEDE",
"^. c #E563E2F9E122",
"/. c #E61AE45AE324",
"(. c #E7FAE730E351",
"). c #E99CE6D5E517",
"_. c #EA75E979E6E0",
"`. c #EBDCE961E77D",
"'. c #ED29EC21E89A",
"]. c #ED90EBE6EADF",
"[. c #EFCCEF5DECAB",
"{. c #F162EF52EDB4",
"}. c #EFEFF8F8E5E5",
"|. c #F338F165EF7A",
" X c #F3F3FAFAEBEB",
".X c #F5F5FAFAEDED",
"XX c #F57FF50CF287",
"oX c #F5F0F4CAF3B2",
"OX c #F8F8F7CCF6CB",
"+X c #FA16F8F8F7F7",
"@X c #F9F9FCFCF4F4",
"#X c #F9F9FCFCF6F6",
"$X c #FAFAF9F9F8F8",
"%X c #FBFBFDFDF8F8",
"&X c None",
/* pixels */
"&X&X&X&X&X&X&X&X&X&X&X&X&X&X&X&X&X&X&X&X&X&X&X&X&X&X&X&X&X&X&X&X",
"&X&X&X&X&X&X&X&X&X&X&X&X&X&X&X&X&X&X&X&X&X&X&X&X&X&X&X&X&X&X&X&X",
"&X&X&X&X&X&X&X&X&X&X&X&X&X&X&X&X&X&X&X&X&X&X&X&X&X&X&X&X&X&X&X&X",
"&X&X&X&X&X&X&X&X&X&X&X&X&X&X&X&X&X&X&XG.&X&X&X&X&X&X&X&X&X&X&X&X",
"&X&X&X&X&X&X&X&X&X&X&X&X&X&X&X&X&XU.OX$X].&X&X&X&X&X&X&X&X&X&X&X",
"&X&X&X&X&X&X&X&X&X&X&X&X&X&X&Xz.{.oXOX$X$Xj.&X&X&X&X&X&X&X&X&X&X",
"&X&X&X&X&X&X&X&X&X&X&X&X&X&XL.{.|.oXoXOX$XOX&X&X&X&X&X&X&X&X&X&X",
"&X&X&X&X&X&X&X&X&X&X&X&X&XJ.).{.].oXoXOX$X$XL.&X&X&X&X&X&X&X&X&X",
"&X&X&X0.T.+X$X$X$XoX{.d., I.).`.].{.oXoX$XoXoX5.&X&X&X&X&X&X&X&X",
"&X&X&XY.`.$X$X$X$XOX|.R.r.g.R.).].].{.].].].{.R.&X&X&X&X&X&X&X&X",
"&X&Xg.Y./.|.$X$X$XOX|.].k.q.L./.).).R./.).].{.oXa.&X&X&X&X&X&X&X",
"&X&XT.T./.].$X$X$XOXoX].H.8.g.R.Q.Y.T././.].oXoXoX= &X&X&X&X&X&X",
"&X@ T.T.T.).+X$X$X$XoX{./.y.7.J.I.U.T.).{.oXOXOX$XI.&X&X&X&X&X&X",
"&X+ p.T.T.).{.$X$XOXoX{.`.l.7.d.L.T.).`.{.|.oXOX$X$X5.&X&X&X&X&X",
"&X@ ; T.T././.$X$X$XoX|.`.S.8.6.J.Q.).).].{.oXoXoX$X].# &X&X&X&X",
"&X&X# /.Q.Q./.OX$X$XOX].U.R.k.6.z.R.).).].].|.oXoX$X$Xs.&X&X&X&X",
"&X&XX G./././.].$X$XoXR.'.).H.t.t.I.Q.Q.).].|.|.|.OX+X$X= &X&X&X",
"&X&Xo 6././././.$XOX).).{.].R.k.q.A.Q.Q.).(.`.'.(.[.oX+XY.&X&X&X",
"&X&X@ * /./././.oXoX/.oX{.)./.L.e.d.R.R.R.D.v.x.4.x.n.K.(.% &X&X",
"&X&X&X+ /.].]./.).).OXoX{.{.).R.h.e.H.L.i.3.O...} ..X.1.i.>   &X",
"&X&X&Xo g.].]./.R.].oXoX{.].).Q.L.a.g.u.&.} ! ! ~ L :.2.%.& &X&X",
"&X&X&X+ : ].].].Y.].$XOXoX].)./.Y.h.9.#.) ! ) ~ E +..Xm.K #.&X&X",
"&X&X&X&X# {.].).)./.$X$XoX{.]./.Q.F.-.[ ) ) ) ! E N.#XS ~ [ Z &X",
"&X&X&X&XX T.{.oX].R.oXoX].)././.Y.F.A ) ) ~ ~ ! *. X,.E ~ ! p &X",
"&X&X&X&XX w.oXoX{.(.).].).T.p.- # O 6 ) ~ ! L ~ Z.E. .~ ) ) i &X",
"&X&X&X&XX = oXoX|.]./.j.- X     &X&Xe D o.M.>.=.#X<.J ~ J Y r &X",
"&X&X&X&X&XX OX{.T.w.$     &X&X&X&X&X9 k d C.@X~.V.U G G I k 8 &X",
"&X&X&X&X&X. p.: o   &X&X&X&X&X&X&X&X&Xe z u !.}.;.s k k T t &X&X",
"&X&X&X&X&X      &X&X&X&X&X&X&X&X&X&X&X4 j N C ;.a c B B g 1 &X&X",
"&X&X&X&X&X&X&X&X&X&X&X&X&X&X&X&X&X&X&X&X1 b n m V M h e < &X&X&X",
"&X&X&X&X&X&X&X&X&X&X&X&X&X&X&X&X&X&X&X&X&X&X6 q 0 7 3 &X&X&X&X&X",
"&X&X&X&X&X&X&X&X&X&X&X&X&X&X&X&X&X&X&X&X&X&X&X&X&X&X&X&X&X&X&X&X"
};
